<svg xmlns="http://www.w3.org/2000/svg" width="73" height="72" fill="none" viewBox="0 0 73 72"><circle cx="36.333" cy="36" r="36" fill="#333"/><path fill="#193ae6" fill-rule="evenodd" d="M27.667 22.666A1.667 1.667 0 0 0 26 24.333v20a5 5 0 1 0 10 0v-20a1.667 1.667 0 0 0-1.667-1.667zm10.186 26.667H51a1.667 1.667 0 0 0 1.667-1.667V41A1.666 1.666 0 0 0 51 39.333h-3.192zm13.271-13.332A5 5 0 0 1 56 41v6.666a5 5 0 0 1-5 5H31a8.333 8.333 0 0 1-8.333-8.333v-20a5 5 0 0 1 5-5h6.666a5 5 0 0 1 5 5v.976l.986-.986.002-.001a5.667 5.667 0 0 1 8.036.01l3.145 3.145a5.667 5.667 0 0 1 .052 8.092l-.004.004zm-11.79-5.978v13.098l9.87-9.915a2.33 2.33 0 0 0-.05-3.361L45.99 26.68a2.335 2.335 0 0 0-3.31-.004zm-10 14.31c0-.92.746-1.667 1.666-1.667h.017a1.667 1.667 0 1 1 0 3.334H31c-.92 0-1.667-.746-1.667-1.667" clip-rule="evenodd"/></svg>