<svg xmlns="http://www.w3.org/2000/svg" width="648" height="643" fill="none" viewBox="0 0 648 643"><g clip-path="url(#a)"><rect width="648" height="643" fill="#292929" rx="24"/><g stroke="#fff" opacity=".05"><path d="M-70.905-64.702S-337.7 513 52.114 578.304c389.813 65.306 207.188 507.576 998.176 167.225 791-340.354 28.6 676.521 28.6 676.521"/><path d="M234.11-385.678s-266.794 577.7 123.019 643.005c389.814 65.306 207.188 507.58 998.181 167.226 790.99-340.355 28.6 676.527 28.6 676.527"/><path d="M-68.116-67.64S-334.91 510.062 54.903 575.368 262.09 1082.95 1053.08 742.592c790.99-340.354 28.6 676.528 28.6 676.528"/><path d="M-64.858-71.069s-266.795 577.7 123.019 643.006c389.813 65.305 207.187 507.583 998.179 167.225 790.99-340.354 28.6 676.528 28.6 676.528"/><path d="M-61.128-74.99s-266.794 577.699 123.02 643.005C451.704 633.32 269.078 1075.59 1060.07 735.24c790.99-340.354 28.6 676.52 28.6 676.52"/><path d="M-56.929-79.413s-266.794 577.701 123.02 643.006c389.813 65.306 207.187 507.577 998.179 167.225 790.99-340.354 28.6 676.522 28.6 676.522"/><path d="M-52.26-84.327S-319.056 493.374 70.757 558.68c389.814 65.306 207.188 507.581 998.182 167.225 790.99-340.354 28.6 676.526 28.6 676.526"/><path d="M-47.12-89.733s-266.794 577.7 123.019 643.006 207.188 507.577 998.181 167.225c790.99-340.354 28.6 676.522 28.6 676.522"/><path d="M-41.51-95.64S-308.306 482.062 81.507 547.368c389.814 65.305 207.188 507.583 998.182 167.225 790.99-340.354 28.6 676.528 28.6 676.528"/><path d="M-35.433-102.038s-266.794 577.701 123.02 643.006C477.4 606.274 294.774 1048.55 1085.77 708.193c790.99-340.354 28.59 676.527 28.59 676.527"/><path d="M-28.882-108.928s-266.794 577.7 123.02 643.005c389.813 65.306 207.187 507.583 998.182 167.226 790.99-340.355 28.6 676.527 28.6 676.527"/><path d="M-21.862-116.319s-266.795 577.7 123.019 643.006c389.813 65.305 207.188 507.583 998.183 167.225 790.99-340.354 28.59 676.528 28.59 676.528"/><path d="M-14.374-124.194s-266.794 577.7 123.019 643.006 207.188 507.578 998.175 167.225c791-340.354 28.6 676.523 28.6 676.523"/><path d="M-6.413-132.569s-266.794 577.7 123.019 643.006 207.188 507.583 998.184 167.225c790.99-340.354 28.59 676.528 28.59 676.528"/><path d="M2.013-141.436s-266.795 577.7 123.019 643.006c389.813 65.305 207.188 507.58 998.178 167.225 790.99-340.354 28.6 676.525 28.6 676.525"/><path d="M10.915-150.803s-266.794 577.7 123.019 643.005c389.814 65.306 207.188 507.58 998.176 167.226 791-340.355 28.6 676.522 28.6 676.522"/><path d="M20.286-160.663s-266.794 577.701 123.019 643.006c389.814 65.306 207.188 507.58 998.175 167.225 791-340.354 28.6 676.522 28.6 676.522"/><path d="M30.122-171.014s-266.794 577.7 123.019 643.006c389.814 65.305 207.188 507.579 998.179 167.225s28.6 676.523 28.6 676.523"/><path d="M40.435-181.866s-266.795 577.7 123.019 643.006c389.813 65.305 207.187 507.58 998.176 167.225 791-340.354 28.6 676.525 28.6 676.525"/><path d="M51.212-193.209s-266.794 577.7 123.019 643.005c389.813 65.306 207.188 507.58 998.179 167.226 790.99-340.355 28.6 676.528 28.6 676.528"/><path d="M62.458-205.045s-266.794 577.7 123.019 643.005c389.813 65.306 207.188 507.58 998.183 167.226 790.99-340.355 28.6 676.524 28.6 676.524"/><path d="M74.177-217.374s-266.794 577.701 123.019 643.006c389.813 65.306 207.188 507.58 998.184 167.225 790.99-340.354 28.59 676.523 28.59 676.523"/><path d="M86.368-230.209s-266.794 577.7 123.019 643.005c389.814 65.306 207.188 507.58 998.183 167.226 790.99-340.355 28.6 676.528 28.6 676.528"/><path d="M99.028-243.53s-266.794 577.7 123.019 643.006c389.814 65.305 207.188 507.579 998.183 167.225 790.99-340.354 28.6 676.519 28.6 676.519"/><path d="M112.153-257.342s-266.794 577.7 123.019 643.005c389.814 65.306 207.188 507.58 998.178 167.226 790.99-340.355 28.6 676.521 28.6 676.521"/><path d="M125.755-271.655s-266.794 577.7 123.019 643.006S455.962 878.93 1246.95 538.576c791-340.354 28.6 676.524 28.6 676.524"/><path d="M139.825-286.459s-266.794 577.7 123.019 643.005c389.814 65.306 207.188 507.58 998.176 167.226 791-340.355 28.6 676.528 28.6 676.528"/><path d="M154.364-301.756s-266.794 577.7 123.019 643.005c389.814 65.306 207.188 507.58 998.177 167.226 790.99-340.355 28.6 676.525 28.6 676.525"/><path d="M169.372-317.553s-266.794 577.7 123.019 643.005c389.814 65.306 207.188 507.58 998.179 167.226 790.99-340.355 28.6 676.522 28.6 676.522"/><path d="M184.853-333.842s-266.795 577.7 123.019 643.005c389.813 65.306 207.187 507.58 998.178 167.226 790.99-340.355 28.6 676.521 28.6 676.521"/><path d="M200.802-350.624S-65.992 227.077 323.821 292.382C713.634 357.688 531.009 799.962 1322 459.607c790.99-340.354 28.6 676.523 28.6 676.523"/><path d="M217.22-367.905s-266.794 577.7 123.019 643.006S547.427 782.68 1338.42 442.326c790.99-340.354 28.6 676.524 28.6 676.524"/></g><rect width="81" height="30" x="24" y="24" fill="#1f1f1f" rx="15"/><path fill="#fff" d="M37.735 44v-9.94h5.782v1.232h-4.48v3.01h3.541v1.232h-3.542V44zm9.408.14q-1.148 0-1.862-.77-.714-.784-.714-2.072V37h1.204v4.116q0 .882.42 1.4.435.518 1.162.518.84 0 1.386-.686.56-.7.56-1.876V37h1.204v7H49.3v-1.078q-.686 1.218-2.156 1.218m5.77-.14V33.5h1.204V44zm3.626 0V33.5h1.204V44zm7.143 0V33.5h1.204V44zm6.734.14q-1.58 0-2.632-1.05-1.035-1.065-1.035-2.59 0-1.526 1.035-2.576 1.05-1.065 2.632-1.064 1.569 0 2.605 1.064 1.05 1.05 1.05 2.576 0 1.525-1.05 2.59-1.037 1.05-2.605 1.05m-1.763-1.848q.686.728 1.763.728 1.08 0 1.75-.728.673-.728.672-1.792 0-1.065-.671-1.792-.672-.728-1.75-.728-1.08 0-1.764.728-.673.728-.672 1.792 0 1.065.672 1.792m10.17 1.848a3.22 3.22 0 0 1-2.45-1.064q-.98-1.065-.98-2.576t.98-2.576a3.22 3.22 0 0 1 2.45-1.064q.77 0 1.428.35.672.336 1.036.868V37h1.204v7h-1.204v-1.078q-.364.532-1.036.882a3.1 3.1 0 0 1-1.428.336m.182-1.106q1.036 0 1.708-.728t.672-1.806-.672-1.806-1.708-.728q-1.05 0-1.722.728T76.61 40.5t.672 1.806 1.722.728m8.776 1.106a3.22 3.22 0 0 1-2.45-1.064q-.98-1.065-.98-2.576t.98-2.576a3.22 3.22 0 0 1 2.45-1.064q.77 0 1.428.35.672.336 1.036.868V33.5h1.204V44h-1.204v-1.078q-.364.532-1.036.882a3.1 3.1 0 0 1-1.428.336m.182-1.106q1.036 0 1.708-.728t.672-1.806-.672-1.806-1.708-.728q-1.05 0-1.722.728T85.57 40.5t.672 1.806 1.722.728"/><path fill="#3552e9" d="M31.392 124V97.072H24l5.184-7.152h9.456V124zm26.154.528q-5.136 0-8.88-3.072-3.744-3.12-3.936-8.688h7.2q.24 2.304 1.728 3.456t3.888 1.152q2.112 0 3.36-1.008 1.296-1.056 1.344-2.736.048-1.824-1.344-2.976t-3.696-1.152h-2.976v-5.808h2.592q4.368 0 4.464-3.696.048-1.536-1.056-2.496-1.104-1.008-2.832-1.008-2.112 0-3.456 1.248t-1.296 3.024h-7.248q0-5.184 3.6-8.304 3.648-3.12 8.4-3.12 5.232 0 8.208 2.928 2.976 2.88 2.976 7.104 0 2.304-1.056 4.272-1.008 1.92-2.496 3.072 1.92.96 3.216 2.88t1.296 4.656q0 4.512-3.36 7.392-3.312 2.88-8.64 2.88m33.88-.528-5.087-6.528L81.25 124h-8.688l9.216-11.616L72.659 100h8.544l5.088 7.008L91.379 100h8.64l-9.12 12.384L100.067 124z"/><path fill="#a3a3a3" d="M25.504 156v-11.36h6.608v1.408h-5.12v3.44h4.048v1.408h-4.048V156zm11.139.16q-1.665 0-2.8-1.216-1.12-1.216-1.12-2.944t1.12-2.944q1.135-1.216 2.8-1.216.879 0 1.632.4.768.384 1.184.992V148h1.376v8h-1.376v-1.232q-.416.607-1.184 1.008a3.54 3.54 0 0 1-1.632.384m.208-1.264q1.184 0 1.952-.832.768-.833.768-2.064t-.768-2.064q-.768-.832-1.952-.832-1.2 0-1.968.832-.768.833-.768 2.064t.768 2.064q.768.832 1.968.832M46 156.16q-1.104 0-1.936-.464a2.75 2.75 0 0 1-1.2-1.392l1.12-.624q.224.592.784.928t1.248.336q.591 0 .992-.288a.92.92 0 0 0 .4-.784.93.93 0 0 0-.32-.72q-.304-.288-1.072-.528l-.8-.256q-2-.576-2-2.336 0-.992.784-1.584.8-.608 1.968-.608 1.824 0 2.64 1.392l-1.024.704q-.656-.912-1.664-.912a1.64 1.64 0 0 0-.944.272q-.384.256-.384.688 0 .4.24.688.256.272.896.464l.88.272q2.176.672 2.176 2.352 0 1.12-.784 1.76-.768.64-2 .64m7.973-.08q-1.104 0-1.776-.624t-.672-1.824v-4.368H49.83V148h1.696v-2.224h1.376V148h2.304v1.264h-2.304v4.192q0 .751.32 1.056.32.304 1.008.304.607 0 .976-.16v1.232a3.9 3.9 0 0 1-1.232.192m6.56.08q-1.84 0-2.992-1.184T56.39 152q0-1.776 1.168-2.96 1.168-1.2 2.992-1.2 1.617 0 2.704 1.088 1.104 1.072 1.104 2.928 0 .24-.016.416h-6.56q.032 1.12.8 1.872.785.752 1.968.752 1.68 0 2.496-1.392l1.088.752q-1.168 1.904-3.6 1.904m-2.656-5.008h5.072q-.16-.96-.848-1.52-.672-.576-1.6-.576-.945 0-1.696.576-.736.56-.928 1.52M66.471 156v-8h1.376v1.552q.224-.736.864-1.184.656-.448 1.376-.448.353 0 .624.064v1.424q-.288-.128-.752-.128-.832 0-1.472.72t-.64 2.032V156zm10.101 0v-6.736h-1.696V148h1.696v-1.616q0-1.2.672-1.84t1.776-.64q.657 0 1.248.208v1.216q-.368-.16-.992-.16-.687 0-1.008.304t-.32 1.056V148h2.32v1.264h-2.32V156zm8.195.16q-1.312 0-2.128-.88-.816-.896-.816-2.368V148H83.2v4.704q0 1.008.48 1.6.497.592 1.328.592.96 0 1.584-.784.64-.8.64-2.144V148h1.376v8h-1.376v-1.232q-.784 1.392-2.464 1.392m6.594-.16v-12h1.376v12zm4.144 0v-12h1.376v12zm8.164 0v-12h1.376v12zm7.697.16q-1.808 0-3.008-1.2-1.184-1.216-1.184-2.96t1.184-2.944q1.2-1.216 3.008-1.216 1.791 0 2.976 1.216 1.2 1.2 1.2 2.944t-1.2 2.96q-1.185 1.2-2.976 1.2m-2.016-2.112q.783.832 2.016.832 1.232 0 2-.832t.768-2.048-.768-2.048-2-.832q-1.233 0-2.016.832-.768.832-.768 2.048t.768 2.048m11.623 2.112q-1.665 0-2.8-1.216-1.12-1.216-1.12-2.944t1.12-2.944q1.135-1.216 2.8-1.216.879 0 1.632.4.767.384 1.184.992V148h1.376v8h-1.376v-1.232q-.416.607-1.184 1.008a3.54 3.54 0 0 1-1.632.384m.208-1.264q1.184 0 1.952-.832.768-.833.768-2.064t-.768-2.064q-.768-.832-1.952-.832-1.2 0-1.968.832-.768.833-.768 2.064t.768 2.064q.768.832 1.968.832m10.03 1.264q-1.665 0-2.8-1.216-1.12-1.216-1.12-2.944t1.12-2.944q1.135-1.216 2.8-1.216.879 0 1.632.4.768.384 1.184.992V144h1.376v12h-1.376v-1.232q-.416.607-1.184 1.008a3.54 3.54 0 0 1-1.632.384m.208-1.264q1.184 0 1.952-.832.768-.833.768-2.064t-.768-2.064q-.768-.832-1.952-.832-1.2 0-1.968.832-.768.833-.768 2.064t.768 2.064q.768.832 1.968.832m13.592 1.184q-1.104 0-1.776-.624t-.672-1.824v-4.368h-1.696V148h1.696v-2.224h1.376V148h2.304v1.264h-2.304v4.192q0 .751.32 1.056.32.304 1.008.304.607 0 .976-.16v1.232a3.9 3.9 0 0 1-1.232.192m4.525-.08h-1.376v-12h1.376v5.232q.816-1.392 2.544-1.392 1.36 0 2.192.88t.832 2.352V156h-1.36v-4.72q0-1.008-.512-1.584-.512-.592-1.376-.592-.992 0-1.664.784-.656.784-.656 2.144zm11.502.16q-1.663 0-2.8-1.216-1.12-1.216-1.12-2.944t1.12-2.944q1.137-1.216 2.8-1.216.88 0 1.632.4.768.384 1.184.992V148h1.376v8h-1.376v-1.232q-.416.607-1.184 1.008a3.54 3.54 0 0 1-1.632.384m.208-1.264q1.184 0 1.952-.832.768-.833.768-2.064t-.768-2.064q-.768-.832-1.952-.832-1.2 0-1.968.832-.768.833-.768 2.064t.768 2.064q.768.832 1.968.832M167.98 156v-8h1.376v1.232q.816-1.392 2.544-1.392 1.36 0 2.192.88t.832 2.352V156h-1.36v-4.72q0-1.008-.512-1.584-.512-.592-1.376-.592-.992 0-1.664.784-.656.784-.656 2.144V156zM24.096 180l5.024-11.36h1.232l5.04 11.36H33.84l-1.472-3.312h-5.296L25.632 180zm5.616-9.344-2.048 4.688h4.112zm8.62-1.072a.93.93 0 0 1-.688.272 1 1 0 0 1-.704-.272.96.96 0 0 1-.288-.704q0-.4.288-.688a.96.96 0 0 1 .704-.288q.417 0 .688.288a.97.97 0 0 1 .272.688q0 .416-.272.704M36.94 180v-8h1.376v8zm4.145 0v-8h1.376v1.552q.224-.736.864-1.184.656-.448 1.376-.448.351 0 .624.064v1.424q-.288-.128-.752-.128-.833 0-1.472.72-.64.72-.64 2.032V180zm10.211.16a3.6 3.6 0 0 1-1.648-.384q-.751-.4-1.168-1.008V180h-1.376v-12h1.376v5.232q.417-.608 1.168-.992a3.5 3.5 0 0 1 1.648-.4q1.665 0 2.784 1.216 1.136 1.216 1.136 2.944t-1.136 2.944q-1.119 1.216-2.784 1.216m-2.16-2.096q.768.832 1.952.832 1.185 0 1.952-.832.768-.833.768-2.064t-.768-2.064q-.768-.832-1.952-.832t-1.952.832q-.768.833-.768 2.064t.768 2.064m10.178 5.28h-1.536l1.744-3.76L56.018 172h1.52l2.752 6.08 2.736-6.08h1.536zm9.886-3.264q-1.104 0-1.776-.624t-.672-1.824v-4.368h-1.696V172h1.696v-2.224h1.376V172h2.304v1.264h-2.304v4.192q0 .751.32 1.056.32.304 1.008.304.607 0 .976-.16v1.232a3.9 3.9 0 0 1-1.232.192m6.56.08q-1.84 0-2.992-1.184T71.616 176q0-1.776 1.168-2.96 1.168-1.2 2.992-1.2 1.617 0 2.704 1.088 1.104 1.072 1.104 2.928 0 .24-.016.416h-6.56q.032 1.12.8 1.872.785.752 1.968.752 1.68 0 2.496-1.392l1.088.752q-1.167 1.904-3.6 1.904m-2.656-5.008h5.072q-.16-.96-.848-1.52-.672-.576-1.6-.576-.943 0-1.696.576-.735.56-.928 1.52"/><path fill="#3552e9" d="M466.368 121.168q-3.264 3.36-8.736 3.36t-8.736-3.36-3.264-8.544a9.3 9.3 0 0 1 .528-3.12q.528-1.536 1.152-2.544.672-1.056 2.352-3.504l9.504-13.536h8.928l-8.352 11.904q3.888.336 6.864 3.264 3.024 2.88 3.024 7.584 0 5.136-3.264 8.496m-8.736-3.6q2.016 0 3.36-1.392t1.344-3.408-1.344-3.408-3.36-1.392q-2.112 0-3.408 1.392-1.296 1.344-1.296 3.408t1.296 3.456q1.296 1.344 3.408 1.344M491.389 124l-5.088-6.528-5.088 6.528h-8.688l9.216-11.616-9.12-12.384h8.544l5.088 7.008 5.088-7.008h8.64l-9.12 12.384L500.029 124z"/><path fill="#a3a3a3" d="M445.504 156v-11.36h6.608v1.408h-5.12v3.44h4.048v1.408h-4.048V156zm11.139.16q-1.665 0-2.8-1.216-1.12-1.216-1.12-2.944t1.12-2.944q1.135-1.216 2.8-1.216.879 0 1.632.4.767.384 1.184.992V148h1.376v8h-1.376v-1.232q-.417.607-1.184 1.008a3.54 3.54 0 0 1-1.632.384m.208-1.264q1.184 0 1.952-.832.768-.833.768-2.064t-.768-2.064q-.768-.832-1.952-.832-1.2 0-1.968.832-.768.833-.768 2.064t.768 2.064q.768.832 1.968.832m9.15 1.264q-1.104 0-1.936-.464a2.74 2.74 0 0 1-1.2-1.392l1.12-.624q.223.592.784.928.56.336 1.248.336.591 0 .992-.288a.92.92 0 0 0 .4-.784.93.93 0 0 0-.32-.72q-.304-.288-1.072-.528l-.8-.256q-2-.576-2-2.336 0-.992.784-1.584.8-.608 1.968-.608 1.824 0 2.64 1.392l-1.024.704q-.656-.912-1.664-.912-.545 0-.944.272-.384.256-.384.688 0 .4.24.688.255.272.896.464l.88.272q2.175.672 2.176 2.352 0 1.12-.784 1.76-.768.64-2 .64m7.973-.08q-1.104 0-1.776-.624t-.672-1.824v-4.368h-1.696V148h1.696v-2.224h1.376V148h2.304v1.264h-2.304v4.192q0 .751.32 1.056.32.304 1.008.304.607 0 .976-.16v1.232a3.9 3.9 0 0 1-1.232.192m6.56.08q-1.84 0-2.992-1.184T476.39 152q0-1.776 1.168-2.96 1.168-1.2 2.992-1.2 1.616 0 2.704 1.088 1.104 1.072 1.104 2.928 0 .24-.016.416h-6.56q.032 1.12.8 1.872.784.752 1.968.752 1.68 0 2.496-1.392l1.088.752q-1.168 1.904-3.6 1.904m-2.656-5.008h5.072q-.16-.96-.848-1.52-.672-.576-1.6-.576-.944 0-1.696.576-.736.56-.928 1.52m8.593 4.848v-8h1.376v1.552q.223-.736.864-1.184.656-.448 1.376-.448.352 0 .624.064v1.424q-.288-.128-.752-.128-.832 0-1.472.72t-.64 2.032V156zm10.101 0v-6.736h-1.696V148h1.696v-1.616q0-1.2.672-1.84t1.776-.64q.657 0 1.248.208v1.216q-.368-.16-.992-.16-.687 0-1.008.304t-.32 1.056V148h2.32v1.264h-2.32V156zm8.195.16q-1.312 0-2.128-.88-.816-.896-.816-2.368V148h1.376v4.704q0 1.008.48 1.6.497.592 1.328.592.96 0 1.584-.784.64-.8.64-2.144V148h1.376v8h-1.376v-1.232q-.784 1.392-2.464 1.392m6.594-.16v-12h1.376v12zm4.144 0v-12h1.376v12zm8.164 0v-12h1.376v12zm7.697.16q-1.808 0-3.008-1.2-1.184-1.216-1.184-2.96t1.184-2.944q1.2-1.216 3.008-1.216 1.791 0 2.976 1.216 1.2 1.2 1.2 2.944t-1.2 2.96q-1.185 1.2-2.976 1.2m-2.016-2.112q.783.832 2.016.832 1.232 0 2-.832t.768-2.048-.768-2.048-2-.832-2.016.832q-.768.832-.768 2.048t.768 2.048m11.623 2.112q-1.665 0-2.8-1.216-1.12-1.216-1.12-2.944t1.12-2.944q1.135-1.216 2.8-1.216.879 0 1.632.4.767.384 1.184.992V148h1.376v8h-1.376v-1.232q-.417.607-1.184 1.008a3.54 3.54 0 0 1-1.632.384m.208-1.264q1.184 0 1.952-.832.768-.833.768-2.064t-.768-2.064q-.768-.832-1.952-.832-1.2 0-1.968.832-.768.833-.768 2.064t.768 2.064q.768.832 1.968.832m10.03 1.264q-1.665 0-2.8-1.216-1.12-1.216-1.12-2.944t1.12-2.944q1.135-1.216 2.8-1.216.879 0 1.632.4.767.384 1.184.992V144h1.376v12h-1.376v-1.232q-.417.607-1.184 1.008a3.54 3.54 0 0 1-1.632.384m.208-1.264q1.184 0 1.952-.832.768-.833.768-2.064t-.768-2.064q-.768-.832-1.952-.832-1.2 0-1.968.832-.768.833-.768 2.064t.768 2.064q.768.832 1.968.832M448.864 180.16q-1.808 0-3.008-1.2-1.184-1.2-1.184-2.96t1.184-2.96q1.2-1.2 3.008-1.2 1.216 0 2.176.576a4.05 4.05 0 0 1 1.52 1.568l-1.2.672a2.77 2.77 0 0 0-1.008-1.12q-.64-.416-1.488-.416-1.232 0-2.016.832t-.784 2.048.784 2.048 2.016.832q.847 0 1.488-.416a2.77 2.77 0 0 0 1.008-1.12l1.2.672a4.05 4.05 0 0 1-1.52 1.568q-.96.576-2.176.576m9.191 0q-1.808 0-3.008-1.2-1.184-1.216-1.184-2.96t1.184-2.944q1.2-1.216 3.008-1.216 1.793 0 2.976 1.216 1.2 1.2 1.2 2.944t-1.2 2.96q-1.183 1.2-2.976 1.2m-2.016-2.112q.785.832 2.016.832 1.232 0 2-.832t.768-2.048-.768-2.048-2-.832q-1.231 0-2.016.832-.768.832-.768 2.048t.768 2.048M474.67 180v-4.704q0-.991-.416-1.584-.4-.608-1.168-.608-.96 0-1.568.752-.593.752-.624 2.048V180h-1.376v-4.704q0-1.008-.416-1.6-.4-.592-1.152-.592-.992 0-1.6.8-.608.784-.608 2.128V180h-1.376v-8h1.376v1.232q.768-1.392 2.416-1.392 1.824 0 2.464 1.712a2.67 2.67 0 0 1 1.024-1.248 2.84 2.84 0 0 1 1.6-.464q1.296 0 2.048.88t.752 2.368V180zm5.388 3.344h-1.376V172h1.376v1.232q.417-.608 1.168-.992a3.5 3.5 0 0 1 1.648-.4q1.665 0 2.784 1.216 1.136 1.216 1.136 2.944t-1.136 2.944q-1.119 1.216-2.784 1.216a3.64 3.64 0 0 1-1.648-.384q-.751-.4-1.168-1.008zm.656-5.28q.768.832 1.952.832 1.185 0 1.952-.832.768-.833.768-2.064t-.768-2.064q-.767-.832-1.952-.832-1.184 0-1.952.832-.768.833-.768 2.064t.768 2.064m11.518 2.096q-1.664 0-2.8-1.216-1.12-1.216-1.12-2.944t1.12-2.944q1.136-1.216 2.8-1.216.88 0 1.632.4.768.384 1.184.992V172h1.376v8h-1.376v-1.232q-.416.607-1.184 1.008a3.54 3.54 0 0 1-1.632.384m.208-1.264q1.184 0 1.952-.832.768-.833.768-2.064t-.768-2.064q-.768-.832-1.952-.832-1.2 0-1.968.832-.768.833-.768 2.064t.768 2.064q.768.832 1.968.832m6.734 1.104v-8h1.376v1.552q.224-.736.864-1.184.656-.448 1.376-.448.353 0 .624.064v1.424q-.288-.128-.752-.128-.832 0-1.472.72t-.64 2.032V180zm9.258.16q-1.84 0-2.992-1.184T504.288 176q0-1.776 1.168-2.96 1.168-1.2 2.992-1.2 1.617 0 2.704 1.088 1.104 1.072 1.104 2.928 0 .24-.016.416h-6.56q.032 1.12.8 1.872.784.752 1.968.752 1.68 0 2.496-1.392l1.088.752q-1.167 1.904-3.6 1.904m-2.656-5.008h5.072q-.16-.96-.848-1.52-.672-.576-1.6-.576a2.72 2.72 0 0 0-1.696.576q-.736.56-.928 1.52m11.889 5.008q-1.664 0-2.8-1.216-1.12-1.216-1.12-2.944t1.12-2.944q1.136-1.216 2.8-1.216.88 0 1.632.4.768.384 1.184.992V168h1.376v12h-1.376v-1.232q-.416.607-1.184 1.008a3.54 3.54 0 0 1-1.632.384m.208-1.264q1.184 0 1.952-.832.768-.833.768-2.064t-.768-2.064q-.768-.832-1.952-.832-1.2 0-1.968.832-.768.833-.768 2.064t.768 2.064q.768.832 1.968.832m13.592 1.184q-1.104 0-1.776-.624t-.672-1.824v-4.368h-1.696V172h1.696v-2.224h1.376V172h2.304v1.264h-2.304v4.192q0 .751.32 1.056.32.304 1.008.304.608 0 .976-.16v1.232a3.9 3.9 0 0 1-1.232.192m6.592.08q-1.808 0-3.008-1.2-1.184-1.216-1.184-2.96t1.184-2.944q1.2-1.216 3.008-1.216 1.793 0 2.976 1.216 1.2 1.2 1.2 2.944t-1.2 2.96q-1.183 1.2-2.976 1.2m-2.016-2.112q.785.832 2.016.832 1.233 0 2-.832.768-.832.768-2.048t-.768-2.048-2-.832-2.016.832q-.768.832-.768 2.048t.768 2.048M548.596 180v-11.36h3.264q2.608 0 4.32 1.616 1.728 1.616 1.728 4.064t-1.728 4.064Q554.468 180 551.86 180zm1.488-1.392h1.776q2.032 0 3.28-1.2 1.264-1.216 1.264-3.088t-1.264-3.072q-1.248-1.216-3.28-1.216h-1.776zm13.515 1.552q-1.84 0-2.992-1.184T559.455 176q0-1.776 1.168-2.96 1.168-1.2 2.992-1.2 1.616 0 2.704 1.088 1.104 1.072 1.104 2.928 0 .24-.016.416h-6.56q.032 1.12.8 1.872.785.752 1.968.752 1.68 0 2.496-1.392l1.088.752q-1.169 1.904-3.6 1.904m-2.656-5.008h5.072q-.16-.96-.848-1.52-.672-.576-1.6-.576-.944 0-1.696.576-.736.56-.928 1.52m12.785 5.008a3.6 3.6 0 0 1-1.648-.384q-.752-.4-1.168-1.008V180h-1.376v-12h1.376v5.232q.416-.608 1.168-.992a3.5 3.5 0 0 1 1.648-.4q1.663 0 2.784 1.216 1.136 1.216 1.136 2.944t-1.136 2.944q-1.12 1.216-2.784 1.216m-2.16-2.096q.768.832 1.952.832t1.952-.832q.768-.833.768-2.064t-.768-2.064q-.768-.832-1.952-.832t-1.952.832q-.768.833-.768 2.064t.768 2.064m11.726 2.096q-1.84 0-2.992-1.184T579.15 176q0-1.776 1.168-2.96 1.168-1.2 2.992-1.2 1.616 0 2.704 1.088 1.104 1.072 1.104 2.928 0 .24-.016.416h-6.56q.032 1.12.8 1.872.785.752 1.968.752 1.68 0 2.496-1.392l1.088.752q-1.168 1.904-3.6 1.904m-2.656-5.008h5.072q-.16-.96-.848-1.52-.672-.576-1.6-.576-.944 0-1.696.576-.736.56-.928 1.52m7.937 4.848v-1.088l4.576-5.648h-4.512V172h6.288v1.104l-4.576 5.632h4.72V180zm9.958-10.416a.93.93 0 0 1-.688.272 1 1 0 0 1-.704-.272.96.96 0 0 1-.288-.704q0-.4.288-.688a.96.96 0 0 1 .704-.288q.416 0 .688.288a.97.97 0 0 1 .272.688 1 1 0 0 1-.272.704M597.141 180v-8h1.376v8zm6.976.16q-1.312 0-2.128-.88-.816-.896-.816-2.368V172h1.376v4.704q0 1.008.48 1.6.497.592 1.328.592.96 0 1.584-.784.64-.8.64-2.144V172h1.376v8h-1.376v-1.232q-.784 1.392-2.464 1.392m16.898-.16v-4.704q0-.991-.416-1.584-.4-.608-1.168-.608-.96 0-1.568.752-.592.752-.624 2.048V180h-1.376v-4.704q0-1.008-.416-1.6-.4-.592-1.152-.592-.992 0-1.6.8-.608.784-.608 2.128V180h-1.376v-8h1.376v1.232q.768-1.392 2.416-1.392 1.824 0 2.464 1.712a2.67 2.67 0 0 1 1.024-1.248 2.84 2.84 0 0 1 1.6-.464q1.296 0 2.048.88t.752 2.368V180z"/><rect width="595" height="360" x="24.5" y="234.5" fill="#1f1f1f" rx="11.5"/><rect width="595" height="360" x="24.5" y="234.5" stroke="#3d3d3d" rx="11.5"/><path fill="#1f1f1f" d="M150 260h443a8 8 0 0 1 8 8v269H150z"/><path fill="#193ae6" fill-opacity=".3" d="M164 279a4 4 0 0 1 4 4v32a4 4 0 0 1-4 4h-26v-40z"/><path fill="#193ae6" d="M164 279a4 4 0 0 1 4 4v32a4 4 0 0 1-4 4h-4v-40z"/><path fill="#353347" fill-opacity=".5" d="M264 343a4 4 0 0 1 4 4v32a4 4 0 0 1-4 4H138v-40z"/><path fill="#353347" d="M264 343a4 4 0 0 1 4 4v32a4 4 0 0 1-4 4h-4v-40z"/><path fill="#353347" fill-opacity=".5" d="M444 407a4 4 0 0 1 4 4v32a4 4 0 0 1-4 4H138v-40z"/><path fill="#353347" d="M444 407a4 4 0 0 1 4 4v32a4 4 0 0 1-4 4h-4v-40z"/><path fill="#353347" fill-opacity=".5" d="M528 471a4 4 0 0 1 4 4v32a4 4 0 0 1-4 4H138v-40z"/><path fill="#353347" d="M528 471a4 4 0 0 1 4 4v32a4 4 0 0 1-4 4h-4v-40z"/><path stroke="#47455f" d="M138.5 258v277M138 534.5h451"/><path fill="#fff" d="M255.504 565v-11.36h6.608v1.408h-5.12v3.44h4.048v1.408h-4.048V565zm10.753.16q-1.312 0-2.128-.88-.816-.896-.816-2.368V557h1.376v4.704q0 1.008.48 1.6.495.592 1.328.592.96 0 1.584-.784.64-.8.64-2.144V557h1.376v8h-1.376v-1.232q-.784 1.392-2.464 1.392m6.593-.16v-12h1.376v12zm4.145 0v-12h1.376v12zm8.163 0v-12h1.376v12zm7.697.16q-1.808 0-3.008-1.2-1.184-1.216-1.184-2.96t1.184-2.944q1.2-1.216 3.008-1.216 1.793 0 2.976 1.216 1.2 1.2 1.2 2.944t-1.2 2.96q-1.183 1.2-2.976 1.2m-2.016-2.112q.785.832 2.016.832 1.232 0 2-.832t.768-2.048-.768-2.048-2-.832q-1.231 0-2.016.832-.768.832-.768 2.048t.768 2.048m11.623 2.112q-1.664 0-2.8-1.216-1.12-1.216-1.12-2.944t1.12-2.944q1.136-1.216 2.8-1.216.88 0 1.632.4.768.384 1.184.992V557h1.376v8h-1.376v-1.232q-.416.607-1.184 1.008a3.54 3.54 0 0 1-1.632.384m.208-1.264q1.184 0 1.952-.832t.768-2.064-.768-2.064-1.952-.832q-1.2 0-1.968.832t-.768 2.064.768 2.064 1.968.832m10.03 1.264q-1.664 0-2.8-1.216-1.12-1.216-1.12-2.944t1.12-2.944q1.136-1.216 2.8-1.216.88 0 1.632.4.768.384 1.184.992V553h1.376v12h-1.376v-1.232q-.416.607-1.184 1.008a3.54 3.54 0 0 1-1.632.384m.208-1.264q1.184 0 1.952-.832t.768-2.064-.768-2.064-1.952-.832q-1.2 0-1.968.832t-.768 2.064.768 2.064 1.968.832m13.592 1.184q-1.104 0-1.776-.624t-.672-1.824v-4.368h-1.696V557h1.696v-2.224h1.376V557h2.304v1.264h-2.304v4.192q0 .751.32 1.056.32.304 1.008.304.608 0 .976-.16v1.232a3.9 3.9 0 0 1-1.232.192m4.542-10.496a.94.94 0 0 1-.688.272.99.99 0 0 1-.704-.272.96.96 0 0 1-.288-.704q0-.4.288-.688a.96.96 0 0 1 .704-.288q.415 0 .688.288a.97.97 0 0 1 .272.688 1 1 0 0 1-.272.704M329.65 565v-8h1.376v8zm14.448 0v-4.704q0-.991-.416-1.584-.4-.608-1.168-.608-.96 0-1.568.752-.592.752-.624 2.048V565h-1.376v-4.704q0-1.008-.416-1.6-.4-.592-1.152-.592-.992 0-1.6.8-.608.784-.608 2.128V565h-1.376v-8h1.376v1.232q.768-1.392 2.416-1.392 1.824 0 2.464 1.712a2.67 2.67 0 0 1 1.024-1.248 2.84 2.84 0 0 1 1.6-.464q1.296 0 2.048.88t.752 2.368V565zm7.532.16q-1.84 0-2.992-1.184T347.486 561q0-1.776 1.168-2.96 1.168-1.2 2.992-1.2 1.617 0 2.704 1.088 1.104 1.073 1.104 2.928 0 .24-.016.416h-6.56q.032 1.12.8 1.872.784.752 1.968.752 1.68 0 2.496-1.392l1.088.752q-1.167 1.904-3.6 1.904m-2.656-5.008h5.072q-.16-.96-.848-1.52-.672-.576-1.6-.576a2.72 2.72 0 0 0-1.696.576q-.736.56-.928 1.52m15.237 7.408h-1.12q-2.048-3.727-2.048-7.68t2.048-7.68h1.12q-1.936 3.76-1.936 7.68t1.936 7.68m3.334-12.976a.93.93 0 0 1-.688.272 1 1 0 0 1-.704-.272.96.96 0 0 1-.288-.704q0-.4.288-.688a.96.96 0 0 1 .704-.288q.416 0 .688.288a.97.97 0 0 1 .272.688 1 1 0 0 1-.272.704M366.153 565v-8h1.376v8zm4.144 0v-8h1.376v1.232q.816-1.392 2.544-1.392 1.36 0 2.192.88t.832 2.352V565h-1.36v-4.72q0-1.008-.512-1.584-.512-.592-1.376-.592-.992 0-1.664.784-.656.784-.656 2.144V565zm23.905 0v-4.704q0-.991-.416-1.584-.4-.608-1.168-.608-.96 0-1.568.752-.591.752-.624 2.048V565h-1.376v-4.704q0-1.008-.416-1.6-.399-.592-1.152-.592-.991 0-1.6.8-.608.784-.608 2.128V565h-1.376v-8h1.376v1.232q.768-1.392 2.416-1.392 1.825 0 2.464 1.712a2.67 2.67 0 0 1 1.024-1.248 2.85 2.85 0 0 1 1.6-.464q1.296 0 2.048.88.753.88.752 2.368V565zm5.405-10.416a.94.94 0 0 1-.688.272.99.99 0 0 1-.704-.272.96.96 0 0 1-.288-.704q0-.4.288-.688a.96.96 0 0 1 .704-.288q.415 0 .688.288a.97.97 0 0 1 .272.688 1 1 0 0 1-.272.704M398.215 565v-8h1.376v8zm4.144 0v-8h1.376v1.232q.816-1.392 2.544-1.392 1.36 0 2.192.88t.832 2.352V565h-1.36v-4.72q0-1.008-.512-1.584-.512-.592-1.376-.592-.992 0-1.664.784-.656.784-.656 2.144V565zm11.998.16q-1.104 0-1.936-.464a2.74 2.74 0 0 1-1.2-1.392l1.12-.624a1.8 1.8 0 0 0 .784.928q.56.336 1.248.336.592 0 .992-.288a.91.91 0 0 0 .4-.784.93.93 0 0 0-.32-.72q-.304-.288-1.072-.528l-.8-.256q-2-.576-2-2.336 0-.991.784-1.584.8-.608 1.968-.608 1.824 0 2.64 1.392l-1.024.704q-.656-.912-1.664-.912a1.64 1.64 0 0 0-.944.272q-.384.256-.384.688 0 .4.24.688.256.272.896.464l.88.272q2.176.672 2.176 2.352 0 1.12-.784 1.76-.768.64-2 .64m4.86 2.4h-1.12q1.936-3.76 1.936-7.68t-1.936-7.68h1.12q2.048 3.727 2.048 7.68t-2.048 7.68M181.53 304v-2.702h-5.292v-.966l5.446-6.272h1.05v6.104h1.372v1.134h-1.372V304zm-3.724-3.836h3.724v-4.284zm13.247 3.024q-.952.952-2.394.952t-2.408-.952-.966-2.324q0-.727.28-1.302a6.3 6.3 0 0 1 .84-1.232l3.626-4.27h1.526l-3.038 3.598q.252-.028.392-.028 1.245 0 2.17.952.938.952.938 2.254 0 1.386-.966 2.352m-2.394-.21q.896 0 1.512-.63.615-.63.616-1.512 0-.882-.616-1.512a2.03 2.03 0 0 0-1.512-.63q-.91 0-1.526.63a2.06 2.06 0 0 0-.616 1.512q0 .896.616 1.526.615.616 1.526.616M206.408 304v-4.116q0-.869-.364-1.386-.35-.532-1.022-.532-.84 0-1.372.658-.518.658-.546 1.792V304H201.9v-4.116q0-.882-.364-1.4-.35-.518-1.008-.518-.868 0-1.4.7-.532.686-.532 1.862V304h-1.204v-7h1.204v1.078q.672-1.218 2.114-1.218 1.596 0 2.156 1.498.28-.686.896-1.092a2.5 2.5 0 0 1 1.4-.406q1.134 0 1.792.77t.658 2.072V304zm4.729-9.114a.82.82 0 0 1-.602.238.86.86 0 0 1-.616-.238.84.84 0 0 1-.252-.616q0-.35.252-.602a.84.84 0 0 1 .616-.252q.363 0 .602.252a.85.85 0 0 1 .238.602q0 .364-.238.616M209.919 304v-7h1.204v7zm3.626 0v-7h1.204v1.078q.714-1.218 2.226-1.218 1.19 0 1.918.77t.728 2.058V304h-1.19v-4.13q0-.882-.448-1.386-.448-.518-1.204-.518-.868 0-1.456.686-.574.686-.574 1.876V304zm10.498.14q-.966 0-1.694-.406a2.4 2.4 0 0 1-1.05-1.218l.98-.546q.196.518.686.812t1.092.294q.518 0 .868-.252a.8.8 0 0 0 .35-.686.81.81 0 0 0-.28-.63q-.266-.252-.938-.462l-.7-.224q-1.75-.504-1.75-2.044 0-.869.686-1.386.7-.532 1.722-.532 1.596 0 2.31 1.218l-.896.616q-.574-.798-1.456-.798a1.43 1.43 0 0 0-.826.238.69.69 0 0 0-.336.602q0 .35.21.602.224.238.784.406l.77.238q1.904.588 1.904 2.058 0 .98-.686 1.54-.672.56-1.75.56"/><path fill="#a3a3a3" d="M283.126 366.838V368h-6.44v-.476q0-.518.154-.98a4.3 4.3 0 0 1 .364-.798q.196-.322.616-.714.42-.406.658-.588.238-.196.798-.588a51 51 0 0 1 .742-.532q.994-.728 1.372-1.218.392-.504.392-1.316 0-.784-.504-1.246-.504-.476-1.316-.476-.854 0-1.456.518t-.602 1.442h-1.232q0-1.4.924-2.268.938-.868 2.352-.868 1.316 0 2.184.756.882.756.882 2.156 0 1.064-.518 1.82-.518.742-1.778 1.652l-.672.476q-.433.294-.672.476a9 9 0 0 0-.532.448q-.28.252-.448.546a2.2 2.2 0 0 0-.224.616zm3.019 1.162h-1.344l4.634-8.764h-5.082v-1.176h6.524v1.008zm6.101 0 3.066-3.612a5 5 0 0 1-.392.014q-1.247 0-2.184-.952-.924-.952-.924-2.24 0-1.4.952-2.352.966-.966 2.408-.966t2.408.952.966 2.324q0 .728-.294 1.316a6 6 0 0 1-.826 1.218l-3.64 4.298zm1.4-5.278q.615.616 1.526.616.91 0 1.526-.616.615-.63.616-1.526a2.06 2.06 0 0 0-.616-1.512q-.617-.63-1.526-.63-.91 0-1.526.63-.603.617-.602 1.512 0 .896.602 1.526M312.837 368v-4.116q0-.869-.364-1.386-.35-.532-1.022-.532-.84 0-1.372.658-.517.658-.546 1.792V368h-1.204v-4.116q0-.882-.364-1.4-.35-.518-1.008-.518-.868 0-1.4.7-.532.686-.532 1.862V368h-1.204v-7h1.204v1.078q.672-1.218 2.114-1.218 1.596 0 2.156 1.498.28-.686.896-1.092a2.5 2.5 0 0 1 1.4-.406q1.134 0 1.792.77t.658 2.072V368zm4.729-9.114a.82.82 0 0 1-.602.238.86.86 0 0 1-.616-.238.84.84 0 0 1-.252-.616q0-.35.252-.602a.84.84 0 0 1 .616-.252q.363 0 .602.252a.85.85 0 0 1 .238.602q0 .364-.238.616M316.348 368v-7h1.204v7zm3.626 0v-7h1.204v1.078q.714-1.218 2.226-1.218 1.19 0 1.918.77t.728 2.058V368h-1.19v-4.13q0-.882-.448-1.386-.448-.518-1.204-.518-.868 0-1.456.686-.574.686-.574 1.876V368zm10.498.14q-.966 0-1.694-.406a2.4 2.4 0 0 1-1.05-1.218l.98-.546q.196.518.686.812t1.092.294q.518 0 .868-.252a.8.8 0 0 0 .35-.686.81.81 0 0 0-.28-.63q-.266-.252-.938-.462l-.7-.224q-1.75-.504-1.75-2.044 0-.869.686-1.386.7-.532 1.722-.532 1.596 0 2.31 1.218l-.896.616q-.574-.798-1.456-.798a1.43 1.43 0 0 0-.826.238.69.69 0 0 0-.336.602q0 .35.21.602.224.238.784.406l.77.238q1.904.588 1.904 2.058 0 .98-.686 1.54-.672.56-1.75.56M462.272 431.188q-.952.952-2.394.952t-2.408-.952-.966-2.324q0-.727.28-1.302a6.3 6.3 0 0 1 .84-1.232l3.626-4.27h1.526l-3.038 3.598q.252-.028.392-.028 1.246 0 2.17.952.938.952.938 2.254 0 1.386-.966 2.352m-2.394-.21q.896 0 1.512-.63t.616-1.512-.616-1.512a2.03 2.03 0 0 0-1.512-.63q-.91 0-1.526.63a2.06 2.06 0 0 0-.616 1.512q0 .896.616 1.526.616.616 1.526.616m4.968 1.022 3.066-3.612a5 5 0 0 1-.392.014q-1.247 0-2.184-.952-.924-.952-.924-2.24 0-1.4.952-2.352.966-.966 2.408-.966t2.408.952.966 2.324q0 .728-.294 1.316a6 6 0 0 1-.826 1.218l-3.64 4.298zm1.4-5.278q.616.616 1.526.616t1.526-.616q.616-.63.616-1.526 0-.895-.616-1.512-.616-.63-1.526-.63t-1.526.63q-.602.617-.602 1.512 0 .896.602 1.526m6.56 5.278 3.066-3.612a5 5 0 0 1-.392.014q-1.245 0-2.184-.952-.924-.952-.924-2.24 0-1.4.952-2.352.966-.966 2.408-.966t2.408.952.966 2.324q0 .728-.294 1.316-.28.575-.826 1.218l-3.64 4.298zm1.4-5.278q.617.616 1.526.616.91 0 1.526-.616.616-.63.616-1.526 0-.895-.616-1.512-.615-.63-1.526-.63-.91 0-1.526.63-.602.617-.602 1.512 0 .896.602 1.526M493.397 432v-4.116q0-.869-.363-1.386-.351-.532-1.022-.532-.84 0-1.373.658-.518.658-.546 1.792V432h-1.204v-4.116q0-.882-.364-1.4-.35-.518-1.008-.518-.867 0-1.4.7-.531.686-.532 1.862V432h-1.204v-7h1.204v1.078q.672-1.218 2.114-1.218 1.596 0 2.156 1.498.28-.686.896-1.092a2.5 2.5 0 0 1 1.4-.406q1.134 0 1.793.77.657.77.658 2.072V432zm4.729-9.114a.81.81 0 0 1-.602.238.86.86 0 0 1-.616-.238.84.84 0 0 1-.252-.616q0-.35.252-.602a.84.84 0 0 1 .616-.252q.365 0 .602.252a.85.85 0 0 1 .238.602.86.86 0 0 1-.238.616M496.908 432v-7h1.204v7zm3.627 0v-7h1.204v1.078q.714-1.218 2.226-1.218 1.19 0 1.918.77t.728 2.058V432h-1.19v-4.13q0-.882-.448-1.386-.448-.518-1.204-.518-.868 0-1.456.686-.574.686-.574 1.876V432zm10.498.14q-.966 0-1.694-.406a2.4 2.4 0 0 1-1.05-1.218l.98-.546q.195.518.686.812.489.294 1.092.294.517 0 .868-.252a.8.8 0 0 0 .35-.686.82.82 0 0 0-.28-.63q-.266-.252-.938-.462l-.7-.224q-1.75-.504-1.75-2.044 0-.869.686-1.386.699-.532 1.722-.532 1.596 0 2.31 1.218l-.896.616q-.574-.798-1.456-.798-.477 0-.826.238a.69.69 0 0 0-.336.602q0 .35.21.602.223.238.784.406l.77.238q1.904.588 1.904 2.058 0 .98-.686 1.54-.672.56-1.75.56M541.036 496l3.066-3.612a5 5 0 0 1-.392.014q-1.246 0-2.184-.952-.924-.952-.924-2.24 0-1.4.952-2.352.966-.966 2.408-.966t2.408.952.966 2.324q0 .728-.294 1.316a6 6 0 0 1-.826 1.218l-3.64 4.298zm1.4-5.278q.616.616 1.526.616t1.526-.616q.616-.63.616-1.526 0-.895-.616-1.512-.616-.63-1.526-.63t-1.526.63q-.602.617-.602 1.512 0 .896.602 1.526m11.496 4.466q-.952.952-2.394.952t-2.408-.952-.966-2.324q0-.727.28-1.302a6.3 6.3 0 0 1 .84-1.232l3.626-4.27h1.526l-3.038 3.598q.252-.028.392-.028 1.245 0 2.17.952.938.952.938 2.254 0 1.386-.966 2.352m-2.394-.21q.895 0 1.512-.63.615-.63.616-1.512 0-.882-.616-1.512a2.03 2.03 0 0 0-1.512-.63q-.91 0-1.526.63a2.06 2.06 0 0 0-.616 1.512q0 .896.616 1.526.615.616 1.526.616m8.436 1.162q-1.554 0-2.534-1.036-.98-1.05-.98-2.702v-2.772q0-1.652.98-2.688.994-1.05 2.534-1.05t2.534 1.05.994 2.688v2.772q0 1.652-.994 2.702-.994 1.036-2.534 1.036m0-1.176q1.037 0 1.68-.686.644-.686.644-1.876v-2.772q0-1.19-.644-1.876t-1.68-.686q-1.022 0-1.666.686t-.644 1.876v2.772q0 1.19.644 1.876t1.666.686M578.149 496v-4.116q0-.869-.364-1.386-.35-.532-1.022-.532-.84 0-1.372.658-.518.658-.546 1.792V496h-1.204v-4.116q0-.882-.364-1.4-.35-.518-1.008-.518-.867 0-1.4.7-.532.686-.532 1.862V496h-1.204v-7h1.204v1.078q.672-1.218 2.114-1.218 1.596 0 2.156 1.498.28-.686.896-1.092a2.5 2.5 0 0 1 1.4-.406q1.134 0 1.792.77t.658 2.072V496zm4.729-9.114a.81.81 0 0 1-.602.238.86.86 0 0 1-.616-.238.84.84 0 0 1-.252-.616q0-.35.252-.602a.84.84 0 0 1 .616-.252q.365 0 .602.252a.85.85 0 0 1 .238.602.86.86 0 0 1-.238.616M581.66 496v-7h1.204v7zm3.627 0v-7h1.204v1.078q.714-1.218 2.226-1.218 1.19 0 1.918.77t.728 2.058V496h-1.19v-4.13q0-.882-.448-1.386-.448-.518-1.204-.518-.868 0-1.456.686-.574.686-.574 1.876V496zm10.498.14q-.966 0-1.694-.406a2.4 2.4 0 0 1-1.05-1.218l.98-.546q.195.518.686.812.489.294 1.092.294.517 0 .868-.252a.8.8 0 0 0 .35-.686.82.82 0 0 0-.28-.63q-.266-.252-.938-.462l-.7-.224q-1.75-.504-1.75-2.044 0-.869.686-1.386.699-.532 1.722-.532 1.596 0 2.31 1.218l-.896.616q-.574-.798-1.456-.798-.477 0-.826.238a.69.69 0 0 0-.336.602q0 .35.21.602.223.238.784.406l.77.238q1.904.588 1.904 2.058 0 .98-.686 1.54-.673.56-1.75.56"/><path fill="#fff" d="m65.096 497 5.024-11.36h1.232l5.04 11.36H74.84l-1.472-3.312h-5.296L66.632 497zm5.616-9.344-2.048 4.688h4.112zm8.62-1.072a.93.93 0 0 1-.688.272 1 1 0 0 1-.704-.272.96.96 0 0 1-.288-.704q0-.4.288-.688a.96.96 0 0 1 .704-.288q.417 0 .688.288a.97.97 0 0 1 .272.688q0 .416-.272.704M77.94 497v-8h1.376v8zm4.145 0v-8h1.376v1.552q.224-.736.864-1.184.656-.448 1.376-.448.351 0 .624.064v1.424q-.288-.128-.752-.128-.833 0-1.472.72-.64.72-.64 2.032V497zm10.211.16a3.6 3.6 0 0 1-1.648-.384q-.751-.4-1.168-1.008V497h-1.376v-12h1.376v5.232q.416-.608 1.168-.992a3.5 3.5 0 0 1 1.648-.4q1.664 0 2.784 1.216 1.136 1.216 1.136 2.944t-1.136 2.944q-1.119 1.216-2.784 1.216m-2.16-2.096q.768.832 1.952.832 1.185 0 1.952-.832.768-.832.768-2.064t-.768-2.064-1.952-.832-1.952.832-.768 2.064.768 2.064m10.178 5.28h-1.536l1.744-3.76L97.018 489h1.52l2.752 6.08 2.736-6.08h1.536zm9.886-3.264q-1.104 0-1.776-.624t-.672-1.824v-4.368h-1.696V489h1.696v-2.224h1.376V489h2.304v1.264h-2.304v4.192q0 .752.32 1.056t1.008.304q.608 0 .976-.16v1.232a3.9 3.9 0 0 1-1.232.192m6.56.08q-1.84 0-2.992-1.184T112.616 493q0-1.776 1.168-2.96 1.168-1.2 2.992-1.2 1.617 0 2.704 1.088 1.104 1.072 1.104 2.928 0 .24-.016.416h-6.56q.033 1.12.8 1.872.784.752 1.968.752 1.68 0 2.496-1.392l1.088.752q-1.167 1.904-3.6 1.904m-2.656-5.008h5.072q-.16-.96-.848-1.52-.672-.576-1.6-.576a2.72 2.72 0 0 0-1.696.576q-.735.56-.928 1.52M46.504 433v-11.36h3.264q2.608 0 4.32 1.616 1.728 1.616 1.728 4.064t-1.728 4.064Q52.376 433 49.768 433zm1.488-1.392h1.776q2.032 0 3.28-1.2 1.264-1.216 1.264-3.088t-1.264-3.072q-1.248-1.216-3.28-1.216h-1.776zm13.515 1.552q-1.84 0-2.992-1.184T57.363 429q0-1.776 1.168-2.96 1.168-1.2 2.992-1.2 1.617 0 2.704 1.088 1.104 1.072 1.104 2.928 0 .24-.016.416h-6.56q.032 1.12.8 1.872.785.752 1.968.752 1.68 0 2.496-1.392l1.088.752q-1.167 1.904-3.6 1.904m-2.656-5.008h5.072q-.16-.96-.848-1.52-.672-.576-1.6-.576-.944 0-1.696.576-.735.56-.928 1.52m12.785 5.008a3.6 3.6 0 0 1-1.648-.384q-.751-.4-1.168-1.008V433h-1.376v-12h1.376v5.232q.417-.608 1.168-.992a3.5 3.5 0 0 1 1.648-.4q1.665 0 2.784 1.216 1.136 1.216 1.136 2.944t-1.136 2.944q-1.119 1.216-2.784 1.216m-2.16-2.096q.768.832 1.952.832 1.185 0 1.952-.832.768-.832.768-2.064t-.768-2.064-1.952-.832q-1.185 0-1.952.832-.768.832-.768 2.064t.768 2.064m11.726 2.096q-1.84 0-2.992-1.184T77.058 429q0-1.776 1.168-2.96 1.168-1.2 2.992-1.2 1.617 0 2.704 1.088 1.104 1.072 1.104 2.928 0 .24-.016.416h-6.56q.032 1.12.8 1.872.785.752 1.968.752 1.68 0 2.496-1.392l1.088.752q-1.167 1.904-3.6 1.904m-2.656-5.008h5.072q-.16-.96-.848-1.52-.672-.576-1.6-.576-.944 0-1.696.576-.735.56-.928 1.52M86.483 433v-1.088l4.576-5.648h-4.512V425h6.288v1.104l-4.576 5.632h4.72V433zm9.958-10.416a.93.93 0 0 1-.688.272 1 1 0 0 1-.704-.272.96.96 0 0 1-.288-.704q0-.4.288-.688a.96.96 0 0 1 .704-.288q.417 0 .688.288a.97.97 0 0 1 .272.688q0 .416-.272.704M95.05 433v-8h1.376v8zm6.976.16q-1.311 0-2.128-.88-.816-.896-.816-2.368V425h1.376v4.704q0 1.008.48 1.6.497.592 1.328.592.96 0 1.584-.784.64-.8.64-2.144V425h1.376v8h-1.376v-1.232q-.783 1.392-2.464 1.392m16.898-.16v-4.704q0-.992-.416-1.584-.4-.608-1.168-.608-.96 0-1.568.752-.592.752-.624 2.048V433h-1.376v-4.704q0-1.008-.416-1.6-.4-.592-1.152-.592-.992 0-1.6.8-.608.784-.608 2.128V433h-1.376v-8h1.376v1.232q.768-1.392 2.416-1.392 1.824 0 2.464 1.712a2.67 2.67 0 0 1 1.024-1.248 2.84 2.84 0 0 1 1.6-.464q1.296 0 2.048.88t.752 2.368V433zM60.504 369v-11.36h6.608v1.408h-5.12v3.44h4.048v1.408h-4.048V369zm9.828-10.416a.93.93 0 0 1-.688.272 1 1 0 0 1-.704-.272.96.96 0 0 1-.288-.704q0-.4.288-.688a.96.96 0 0 1 .704-.288q.417 0 .688.288a.97.97 0 0 1 .272.688q0 .416-.272.704M68.94 369v-8h1.376v8zm6.64 0-3.695-8h1.536l2.736 6.064L78.893 361h1.536l-3.696 8zm9.747.16q-1.84 0-2.992-1.184T81.183 365q0-1.776 1.168-2.96 1.168-1.2 2.992-1.2 1.617 0 2.704 1.088 1.104 1.072 1.104 2.928 0 .24-.016.416h-6.56q.032 1.12.8 1.872.785.752 1.968.752 1.68 0 2.496-1.392l1.088.752q-1.167 1.904-3.6 1.904m-2.656-5.008h5.072q-.16-.96-.848-1.52-.672-.576-1.6-.576-.944 0-1.696.576-.735.56-.928 1.52m11.588 4.928q-1.104 0-1.776-.624t-.672-1.824v-4.368h-1.696V361h1.696v-2.224h1.376V361h2.304v1.264h-2.304v4.192q0 .752.32 1.056t1.008.304q.607 0 .976-.16v1.232a3.9 3.9 0 0 1-1.232.192m3.15-.08v-8h1.375v1.552q.225-.736.864-1.184.657-.448 1.376-.448.352 0 .624.064v1.424q-.287-.128-.752-.128-.831 0-1.472.72-.64.72-.64 2.032V369zm9.049.16q-1.663 0-2.8-1.216-1.12-1.216-1.12-2.944t1.12-2.944q1.137-1.216 2.8-1.216.88 0 1.632.4.768.384 1.184.992V361h1.376v8h-1.376v-1.232q-.416.607-1.184 1.008a3.54 3.54 0 0 1-1.632.384m.208-1.264q1.185 0 1.952-.832.768-.832.768-2.064t-.768-2.064-1.952-.832q-1.2 0-1.968.832T103.93 365t.768 2.064 1.968.832M113.4 369v-8h1.376v1.232q.816-1.392 2.544-1.392 1.36 0 2.192.88t.832 2.352V369h-1.36v-4.72q0-1.008-.512-1.584-.512-.592-1.376-.592-.992 0-1.664.784-.656.784-.656 2.144V369zM78.592 303.784q1.872 0 3.12-1.296 1.264-1.296 1.264-3.168t-1.264-3.168q-1.248-1.296-3.12-1.296-1.855 0-3.12 1.296-1.248 1.296-1.248 3.168t1.248 3.168q1.264 1.296 3.12 1.296m0 1.408q-2.448 0-4.16-1.696-1.712-1.712-1.712-4.176t1.712-4.16q1.712-1.712 4.16-1.712 2.465 0 4.16 1.712 1.712 1.696 1.712 4.16t-1.712 4.176q-1.695 1.696-4.16 1.696m8.275-.192v-11.36h1.488v9.952h5.488V305zm11.78.16q-1.665 0-2.8-1.216-1.12-1.216-1.12-2.944t1.12-2.944q1.135-1.216 2.8-1.216.88 0 1.631.4.768.384 1.184.992V297h1.376v8h-1.376v-1.232q-.416.607-1.184 1.008a3.53 3.53 0 0 1-1.632.384m.207-1.264q1.185 0 1.952-.832.768-.833.768-2.064t-.768-2.064q-.767-.832-1.952-.832-1.2 0-1.968.832-.768.833-.768 2.064t.768 2.064q.768.832 1.968.832M111.3 305l-4.336-4v4h-1.376v-12h1.376v7.12l3.488-3.12h1.824l-3.936 3.536 4.816 4.464zm6.078.16q-1.84 0-2.992-1.184T113.234 301q0-1.776 1.168-2.96 1.168-1.2 2.992-1.2 1.616 0 2.704 1.088 1.104 1.072 1.104 2.928 0 .24-.016.416h-6.56q.032 1.12.8 1.872.784.752 1.968.752 1.68 0 2.496-1.392l1.088.752q-1.169 1.904-3.6 1.904m-2.656-5.008h5.072q-.16-.96-.848-1.52-.672-.576-1.6-.576-.944 0-1.696.576-.736.56-.928 1.52"/></g><defs><clipPath id="a"><rect width="648" height="643" fill="#fff" rx="24"/></clipPath></defs></svg>