<svg xmlns="http://www.w3.org/2000/svg" width="167" height="167" fill="none" viewBox="0 0 167 167"><rect width="11.837" height="32.78" x="75.696" fill="#2e2e2e" rx="1.821"/><rect width="11.837" height="32.78" x="75.696" fill="#2e2e2e" rx="1.821"/><rect width="11.837" height="32.78" x="75.696" fill="#193ae6" rx="1.821"/><rect width="11.837" height="32.78" x="118.492" y="7.284" fill="#2e2e2e" rx="1.821" transform="rotate(30 118.492 7.284)"/><rect width="11.837" height="32.78" x="151.912" y="34.992" fill="#2e2e2e" rx="1.821" transform="rotate(60 151.912 34.992)"/><rect width="11.837" height="32.78" x="167" y="75.696" fill="#2e2e2e" rx="1.821" transform="rotate(90 167 75.696)"/><rect width="11.837" height="32.78" x="159.716" y="118.492" fill="#203665" rx="1.821" transform="rotate(120 159.716 118.492)"/><rect width="11.837" height="32.78" x="132.008" y="151.912" fill="#203665" rx="1.821" transform="rotate(150 132.008 151.912)"/><rect width="11.837" height="32.78" x="91.304" y="167" fill="#203665" rx="1.821" transform="rotate(-180 91.304 167)"/><rect width="11.837" height="32.78" x="48.508" y="159.716" fill="#407bff" rx="1.821" transform="rotate(-150 48.508 159.716)"/><rect width="11.837" height="32.78" x="15.088" y="132.008" fill="#407bff" rx="1.821" transform="rotate(-120 15.088 132.008)"/><rect width="11.837" height="32.78" y="91.304" fill="#245dde" rx="1.821" transform="rotate(-90 0 91.304)"/><rect width="11.837" height="32.78" x="7.284" y="48.508" fill="#245dde" rx="1.821" transform="rotate(-60 7.284 48.508)"/><rect width="11.837" height="32.78" x="34.992" y="15.088" fill="#193ae6" rx="1.821" transform="rotate(-30 34.992 15.088)"/></svg>