<svg xmlns="http://www.w3.org/2000/svg" width="703" height="250" fill="none" viewBox="0 0 703 250"><g filter="url(#a)"><rect width="703" height="250" fill="url(#b)" fill-opacity=".4" rx="24"/><rect width="702" height="249" x=".5" y=".5" stroke="url(#c)" rx="23.5"/><rect width="79" height="79" x="132.5" y="98.5" fill="#1f1f1f" rx="39.5"/><rect width="79" height="79" x="132.5" y="98.5" stroke="#3d3d3d" rx="39.5"/><g filter="url(#d)"><rect width="48" height="48" x="148" y="114" fill="#292929" rx="24" shape-rendering="crispEdges"/><g clip-path="url(#e)"><path fill="#00678c" fill-rule="evenodd" d="M182.107 144.695c-1.306-.036-2.318.098-3.167.455-.244.098-.637.098-.669.405.131.129.147.341.261.52.196.324.539.762.849.988l1.044.747c.637.389 1.355.616 1.975 1.006.359.227.718.519 1.077.762.183.13.294.341.523.422v-.049c-.114-.145-.147-.356-.261-.519l-.49-.47a7.7 7.7 0 0 0-1.698-1.639c-.522-.357-1.664-.843-1.876-1.443l-.033-.036c.359-.037.783-.163 1.126-.26.556-.146 1.061-.114 1.632-.259l.784-.228v-.145c-.294-.292-.506-.681-.816-.957a22 22 0 0 0-2.693-1.995c-.506-.325-1.159-.536-1.698-.811-.196-.098-.522-.146-.636-.308-.295-.357-.458-.828-.67-1.25l-1.338-2.822c-.294-.633-.474-1.265-.832-1.849-1.682-2.758-3.51-4.428-6.318-6.067-.603-.341-1.322-.487-2.085-.665l-1.224-.066c-.262-.113-.523-.422-.751-.568-.931-.584-3.33-1.849-4.016-.182-.441 1.055.653 2.093 1.024 2.628.278.373.637.795.833 1.217.11.275.147.568.261.86.261.713.506 1.509.849 2.174.183.341.375.698.604 1.006.13.182.359.259.407.551-.228.325-.244.811-.375 1.217-.587 1.833-.359 4.104.473 5.454.262.405.878 1.298 1.715.957.734-.292.571-1.217.783-2.028.049-.194.016-.324.114-.454v.036l.669 1.346c.506.795 1.388 1.623 2.122 2.174.392.292.702.796 1.191.974v-.049h-.032c-.098-.146-.245-.211-.376-.325a8 8 0 0 1-.848-.973c-.686-.908-1.289-1.914-1.828-2.952-.262-.503-.49-1.054-.702-1.557-.098-.195-.098-.487-.261-.584-.245.356-.604.665-.784 1.103-.311.697-.343 1.557-.457 2.449-.066.017-.036 0-.066.037-.521-.13-.701-.666-.897-1.119-.49-1.152-.572-3.001-.147-4.332.114-.34.604-1.411.408-1.735-.098-.309-.424-.487-.604-.73a6.6 6.6 0 0 1-.587-1.038c-.392-.909-.587-1.915-1.012-2.823-.196-.422-.539-.86-.817-1.249-.31-.438-.652-.746-.897-1.265-.082-.182-.196-.471-.065-.666.032-.129.098-.181.228-.21.212-.182.816.048 1.029.145.603.244 1.109.47 1.615.811.229.162.474.47.768.552h.343c.522.113 1.109.036 1.599.181.865.277 1.648.682 2.35 1.12a14.4 14.4 0 0 1 5.093 5.548c.196.373.277.714.457 1.103.343.796.768 1.606 1.11 2.385.343.763.669 1.542 1.159 2.175.245.34 1.224.518 1.664.697.327.145.833.276 1.127.454.555.341 1.11.73 1.632 1.103.261.195 1.077.6 1.126.924zm-16.646-14.096a2.6 2.6 0 0 0-.669.081v.036h.032c.131.26.36.438.523.666l.376.778.032-.036c.228-.162.343-.422.343-.811-.098-.113-.114-.227-.196-.34-.098-.163-.31-.244-.441-.373z" clip-rule="evenodd"/></g></g><rect width="79" height="79" x="132.5" y="24.5" fill="#1f1f1f" rx="39.5"/><rect width="79" height="79" x="132.5" y="24.5" stroke="#3d3d3d" rx="39.5"/><g filter="url(#f)"><rect width="48" height="48" x="148" y="40" fill="#292929" rx="24" shape-rendering="crispEdges"/><path fill="#000" d="M181.32 65.976c-.117-.352-.421-.598-.815-.656a1.9 1.9 0 0 0-.65.036 6 6 0 0 1-1.002.131c.896-1.514 1.626-3.24 2.045-4.865.679-2.629.316-3.826-.107-4.367-1.122-1.434-2.759-2.204-4.733-2.227a8.4 8.4 0 0 0-2.46.345 9 9 0 0 0-1.439-.132c-.95-.015-1.789.192-2.506.617a11.4 11.4 0 0 0-1.77-.444c-1.73-.284-3.125-.063-4.145.658-1.235.873-1.808 2.389-1.702 4.506.033.672.41 2.718 1.002 4.658.34 1.115.703 2.04 1.078 2.752.533 1.009 1.102 1.603 1.742 1.816.358.12 1.009.203 1.694-.367.087.105.203.21.357.306.195.123.434.224.672.284.859.214 1.664.16 2.35-.14q.007.185.011.34c.004.162.009.323.015.473.04 1.013.109 1.8.314 2.352l.042.125c.102.312.272.835.706 1.244.448.423.991.553 1.489.553.249 0 .487-.032.696-.077.744-.16 1.589-.403 2.2-1.273.578-.823.859-2.062.909-4.014l.019-.158.012-.104.136.012.035.003c.758.034 1.684-.126 2.253-.39.45-.21 1.891-.97 1.552-1.997"/><path fill="#336791" d="M180.023 66.176c-2.253.465-2.408-.298-2.408-.298 2.379-3.53 3.373-8.01 2.515-9.107-2.341-2.991-6.394-1.576-6.462-1.54l-.021.004a8 8 0 0 0-1.503-.156c-1.02-.017-1.793.267-2.38.712 0 0-7.23-2.978-6.893 3.746.071 1.43 2.05 10.823 4.41 7.986.863-1.037 1.696-1.915 1.696-1.915.414.275.91.416 1.43.365l.04-.034c-.013.129-.007.255.016.404-.608.68-.429.799-1.645 1.049-1.23.253-.507.705-.035.823.571.142 1.894.345 2.788-.906l-.035.142c.238.191.405 1.242.377 2.194s-.046 1.606.141 2.116c.188.51.375 1.66 1.973 1.317 1.335-.286 2.027-1.027 2.123-2.264.068-.88.223-.75.233-1.535l.124-.373c.143-1.191.022-1.576.845-1.397l.2.017c.605.028 1.398-.097 1.863-.313 1.001-.465 1.595-1.24.608-1.037"/><path fill="#fff" d="M170.187 60.175c-.203-.028-.387-.002-.48.069a.18.18 0 0 0-.073.117c-.011.083.047.176.083.224a.63.63 0 0 0 .399.248 1 1 0 0 0 .063.005c.246 0 .47-.192.49-.333.024-.177-.233-.295-.482-.33m6.726.006c-.019-.139-.266-.178-.5-.146-.234.033-.461.138-.442.277.015.108.21.293.441.293q.03 0 .059-.004a.57.57 0 0 0 .322-.176c.081-.086.129-.182.12-.244"/><path fill="#fff" d="M180.775 66.123c-.086-.26-.363-.344-.822-.249-1.364.282-1.853.087-2.013-.031 1.06-1.616 1.932-3.568 2.403-5.39.223-.863.346-1.664.356-2.317.011-.717-.111-1.244-.363-1.566-1.015-1.297-2.505-1.993-4.309-2.012-1.24-.014-2.288.303-2.491.393a6.2 6.2 0 0 0-1.402-.18c-.931-.015-1.735.207-2.401.662a10.8 10.8 0 0 0-1.952-.512c-1.582-.255-2.838-.062-3.735.574-1.07.758-1.564 2.113-1.468 4.027.032.644.399 2.625.978 4.522.763 2.498 1.591 3.911 2.463 4.202.102.034.22.058.35.058.318 0 .707-.143 1.113-.631a40 40 0 0 1 1.535-1.737c.343.184.719.287 1.104.297l.003.03-.195.24c-.266.34-.322.41-1.181.587-.244.05-.893.184-.903.639-.01.497.767.706.856.728q.464.115.89.115c.689 0 1.296-.227 1.781-.665-.015 1.772.059 3.517.272 4.05.174.435.6 1.499 1.944 1.499q.295.002.653-.075c1.403-.3 2.013-.92 2.248-2.288.126-.73.343-2.475.445-3.41.215.066.491.097.79.097.624 0 1.343-.133 1.795-.342.507-.236 1.422-.813 1.256-1.315m-3.342-6.325a5.5 5.5 0 0 1-.083.79c-.043.28-.088.572-.099.925-.011.344.032.702.073 1.048.084.698.17 1.417-.163 2.127a3 3 0 0 1-.148-.304 6 6 0 0 0-.256-.485c-.485-.87-1.62-2.905-1.039-3.736.173-.247.613-.502 1.715-.365m-1.336-4.68c1.616.035 2.894.64 3.799 1.796.695.888-.07 4.925-2.283 8.407l-.067-.084-.028-.035c.572-.945.46-1.88.361-2.708-.041-.34-.08-.66-.07-.963.01-.32.052-.593.093-.859.05-.326.102-.664.087-1.063a.4.4 0 0 0 .01-.15c-.036-.382-.473-1.526-1.362-2.561a6.1 6.1 0 0 0-2.165-1.628 7.3 7.3 0 0 1 1.625-.153m-9.044 12.198c-.447.537-.756.434-.857.4-.662-.22-1.429-1.618-2.106-3.834-.585-1.919-.927-3.847-.954-4.388-.086-1.71.329-2.903 1.232-3.543 1.47-1.043 3.887-.419 4.858-.102l-.042.04c-1.594 1.61-1.556 4.36-1.552 4.528q0 .094.013.283c.027.462.078 1.323-.058 2.298a2.9 2.9 0 0 0 .964 2.62c-.273.291-.867.938-1.498 1.698m1.703-2.272a2.35 2.35 0 0 1-.616-1.97c.144-1.029.09-1.926.062-2.407l-.01-.174c.233-.206 1.312-.784 2.081-.608.351.08.565.32.654.73.461 2.13.061 3.017-.26 3.73a7 7 0 0 0-.182.43l-.041.11c-.105.282-.202.543-.263.79a1.99 1.99 0 0 1-1.425-.631m.08 2.871a1.2 1.2 0 0 1-.372-.16c.068-.032.188-.075.397-.118 1.01-.208 1.166-.355 1.507-.788.078-.099.167-.211.289-.348.183-.205.267-.17.418-.108.123.051.243.205.291.375.023.08.049.231-.036.35-.711.996-1.749.984-2.494.797m5.288 4.92c-1.236.266-1.673-.365-1.962-1.086-.186-.466-.278-2.565-.213-4.882a.3.3 0 0 0-.012-.09 1 1 0 0 0-.034-.163c-.097-.337-.332-.62-.614-.736-.112-.047-.318-.132-.565-.069.052-.217.144-.462.243-.728l.042-.112c.046-.126.105-.256.167-.394.336-.747.796-1.769.297-4.077-.187-.865-.811-1.287-1.758-1.189-.567.059-1.086.288-1.345.42l-.155.081c.073-.871.346-2.5 1.367-3.53.643-.648 1.5-.968 2.543-.951 2.056.034 3.375 1.089 4.119 1.968.641.758.988 1.521 1.127 1.933-1.042-.106-1.751.1-2.11.613-.782 1.117.427 3.286 1.008 4.328.107.19.199.356.228.426.189.459.434.765.613.989.055.068.108.134.149.192-.316.091-.883.302-.831 1.352-.042.528-.338 2.996-.489 3.869-.199 1.152-.623 1.581-1.815 1.837m5.16-5.904c-.323.15-.863.263-1.376.287-.567.026-.855-.064-.923-.12-.032-.654.212-.722.47-.795q.06-.016.118-.036.036.03.078.058c.456.3 1.268.333 2.415.096l.012-.003a3 3 0 0 1-.794.513"/></g><rect width="79" height="79" x="186.5" y="61.5" fill="#1f1f1f" rx="39.5"/><rect width="79" height="79" x="186.5" y="61.5" stroke="#3d3d3d" rx="39.5"/><g clip-path="url(#g)" filter="url(#h)"><path fill="#13aa52" d="M226 125c13.255 0 24-10.745 24-24s-10.745-24-24-24-24 10.745-24 24 10.745 24 24 24"/><path fill="#fff" d="M232.414 98.068c-1.516-6.691-5.098-8.89-5.484-9.731-.422-.593-.85-1.648-.85-1.648-.007-.018-.018-.05-.031-.08-.044.593-.066.822-.627 1.42-.868.679-5.322 4.416-5.684 12.018-.338 7.089 5.121 11.313 5.859 11.852l.084.059v-.005c.005.036.234 1.688.396 3.438h.578q.204-1.857.609-3.681l.047-.03q.496-.356.943-.772l.034-.03a13.6 13.6 0 0 0 4.363-10.15 16 16 0 0 0-.237-2.66m-6.399 9.828s0-9.943.328-9.941c.256 0 .588 12.825.588 12.825-.456-.054-.916-2.11-.916-2.884"/></g><rect width="89" height="29" x="75.5" y="196.5" fill="#1f1f1f" rx="14.5"/><rect width="89" height="29" x="75.5" y="196.5" stroke="#3d3d3d" rx="14.5"/><path fill="#fff" d="M96.99 216h-1.12l-6.049-7.742V216H88.52v-9.94h1.134l6.048 7.742v-7.742h1.288zm5.56.14q-1.61 0-2.618-1.036t-1.008-2.604q0-1.554 1.021-2.59 1.023-1.05 2.619-1.05 1.413 0 2.366.952.966.938.966 2.562 0 .21-.014.364h-5.74q.028.98.7 1.638.686.658 1.722.658 1.47 0 2.184-1.218l.952.658q-1.023 1.666-3.15 1.666m-2.324-4.382h4.438q-.14-.84-.742-1.33a2.08 2.08 0 0 0-1.4-.504q-.827 0-1.484.504-.645.49-.812 1.33M113.667 216l-1.736-5.026-1.722 5.026h-1.064l-2.38-7h1.26l1.694 5.11 1.75-5.11h.924l1.75 5.11 1.694-5.11h1.274l-2.38 7zm11.036.14q-1.455 0-2.45-1.064-.98-1.064-.98-2.576t.98-2.576q.995-1.064 2.45-1.064.771 0 1.428.35.672.336 1.036.868V205.5h1.204V216h-1.204v-1.078q-.364.532-1.036.882a3.1 3.1 0 0 1-1.428.336m.182-1.106q1.036 0 1.708-.728t.672-1.806-.672-1.806-1.708-.728q-1.05 0-1.722.728t-.672 1.806.672 1.806 1.722.728m8.777 1.106a3.22 3.22 0 0 1-2.45-1.064q-.98-1.064-.98-2.576t.98-2.576a3.22 3.22 0 0 1 2.45-1.064 3 3 0 0 1 1.428.35q.672.336 1.036.868V209h1.204v7h-1.204v-1.078q-.364.532-1.036.882a3.1 3.1 0 0 1-1.428.336m.182-1.106q1.036 0 1.708-.728t.672-1.806-.672-1.806-1.708-.728q-1.05 0-1.722.728t-.672 1.806.672 1.806 1.722.728m8.608 1.036q-.966 0-1.554-.546t-.588-1.596v-3.822h-1.484V209h1.484v-1.946h1.204V209h2.016v1.106h-2.016v3.668q0 .659.28.924.28.266.882.266.532 0 .854-.14v1.078a3.4 3.4 0 0 1-1.078.168m5.544.07q-1.455 0-2.45-1.064-.98-1.064-.98-2.576t.98-2.576q.995-1.064 2.45-1.064.771 0 1.428.35.673.336 1.036.868V209h1.204v7h-1.204v-1.078q-.363.532-1.036.882a3.1 3.1 0 0 1-1.428.336m.182-1.106q1.036 0 1.708-.728t.672-1.806-.672-1.806-1.708-.728q-1.05 0-1.722.728t-.672 1.806.672 1.806 1.722.728"/><rect width="107" height="29" x="501.5" y="196.5" fill="#1f1f1f" rx="14.5"/><rect width="107" height="29" x="501.5" y="196.5" stroke="#3d3d3d" rx="14.5"/><path fill="#fff" d="M520.597 216v-9.94h2.856q2.281 0 3.78 1.414 1.512 1.414 1.512 3.556t-1.512 3.556q-1.499 1.414-3.78 1.414zm1.302-1.218h1.554q1.778 0 2.87-1.05 1.106-1.064 1.106-2.702t-1.106-2.688q-1.092-1.064-2.87-1.064h-1.554zm11.63 1.358q-1.456 0-2.45-1.064-.98-1.064-.98-2.576t.98-2.576q.994-1.064 2.45-1.064a3 3 0 0 1 1.428.35q.672.336 1.036.868V209h1.204v7h-1.204v-1.078q-.364.532-1.036.882a3.1 3.1 0 0 1-1.428.336m.182-1.106q1.036 0 1.708-.728t.672-1.806-.672-1.806-1.708-.728q-1.05 0-1.722.728t-.672 1.806.672 1.806 1.722.728m8.608 1.036q-.966 0-1.554-.546t-.588-1.596v-3.822h-1.484V209h1.484v-1.946h1.204V209h2.016v1.106h-2.016v3.668q0 .659.28.924.28.266.882.266.533 0 .854-.14v1.078a3.4 3.4 0 0 1-1.078.168m5.545.07a3.22 3.22 0 0 1-2.45-1.064q-.98-1.064-.98-2.576t.98-2.576a3.22 3.22 0 0 1 2.45-1.064 3 3 0 0 1 1.428.35q.672.336 1.036.868V209h1.204v7h-1.204v-1.078q-.364.532-1.036.882a3.1 3.1 0 0 1-1.428.336m.182-1.106q1.036 0 1.708-.728t.672-1.806-.672-1.806-1.708-.728q-1.05 0-1.722.728t-.672 1.806.672 1.806 1.722.728m9.409.966v-10.5h1.204V216zm6.51.14q-1.455 0-2.45-1.064-.98-1.064-.98-2.576t.98-2.576q.995-1.064 2.45-1.064.771 0 1.428.35.673.336 1.036.868V209h1.204v7h-1.204v-1.078q-.363.532-1.036.882a3.1 3.1 0 0 1-1.428.336m.182-1.106q1.036 0 1.708-.728t.672-1.806-.672-1.806-1.708-.728q-1.05 0-1.722.728t-.672 1.806.672 1.806 1.722.728m10.891.966-3.794-3.5v3.5h-1.204v-10.5h1.204v6.23l3.052-2.73h1.596l-3.444 3.094 4.214 3.906zm5.317.14q-1.61 0-2.618-1.036t-1.008-2.604q0-1.554 1.022-2.59 1.023-1.05 2.618-1.05 1.415 0 2.366.952.966.938.966 2.562 0 .21-.014.364h-5.74q.028.98.7 1.638.687.658 1.722.658 1.47 0 2.184-1.218l.952.658q-1.022 1.666-3.15 1.666m-2.324-4.382h4.438q-.14-.84-.742-1.33a2.08 2.08 0 0 0-1.4-.504 2.38 2.38 0 0 0-1.484.504q-.644.49-.812 1.33m9.633 4.382q-.966 0-1.694-.406a2.4 2.4 0 0 1-1.05-1.218l.98-.546q.196.518.686.812t1.092.294q.518 0 .868-.252a.8.8 0 0 0 .35-.686.81.81 0 0 0-.28-.63q-.266-.252-.938-.462l-.7-.224q-1.75-.504-1.75-2.044 0-.869.686-1.386.7-.532 1.722-.532 1.596 0 2.31 1.218l-.896.616q-.574-.798-1.456-.798a1.43 1.43 0 0 0-.826.238.69.69 0 0 0-.336.602q0 .35.21.602.224.238.784.406l.77.238q1.904.588 1.904 2.058 0 .98-.686 1.54-.672.56-1.75.56"/><rect width="80" height="92" x="64" y="94" fill="#1e1e1e" rx="4"/><rect width="64" height="12" x="72" y="102" fill="#333" rx="6"/><rect width="64" height="12" x="72" y="118" fill="#333" rx="6"/><rect width="64" height="12" x="72" y="134" fill="#333" rx="6"/><rect width="63" height="11" x="72.5" y="150.5" fill="#193ae6" fill-opacity=".25" stroke="#193ae6" rx="5.5"/><rect width="63" height="11" x="72.5" y="166.5" fill="#193ae6" fill-opacity=".25" stroke="#193ae6" rx="5.5"/><path fill="#fff" d="M94 170.667a1.333 1.333 0 1 0 0 2.667 1.333 1.333 0 0 0 0-2.667M93.75 172v24h.5v-24z"/><rect width="79" height="79" x="559.5" y="98.5" fill="#1f1f1f" rx="39.5"/><rect width="79" height="79" x="559.5" y="98.5" stroke="#3d3d3d" rx="39.5"/><g filter="url(#i)"><rect width="48" height="48" x="575" y="114" fill="#292929" rx="24" shape-rendering="crispEdges"/><g clip-path="url(#j)"><mask id="k" width="103" height="24" x="508" y="126" maskUnits="userSpaceOnUse" style="mask-type:luminance"><path fill="#fff" d="M611 126H508v24h103z"/></mask><g mask="url(#k)"><path fill="#287abe" d="M609.097 131.643c.905 1.029 1.306 2.309 1.594 3.6 1.477 6.646-2.451 13.036-8.995 14.467-7.152 1.563-13.227-3.517-14.14-9.881a12.1 12.1 0 0 1 1.317-7.616c.116-.217.191-.477.46-.574l3.377.056-1.151 2.478v.254c.831 2.455 2.382 4.473 3.853 6.537.159.877.041 1.8.425 2.638q1.61 1.849 3.217 3.7c.079.091.174.149.272.014.49-.305.634-.864.904-1.32.616-1.03 1.284-2.033 1.77-3.139l.15-.241c.602-.238.981-.786 1.514-1.12.178-.1.323-.25.418-.433s.134-.39.114-.596c-.031-1.034-.011-2.077-.013-3.107q.363-.364.681-.768c.519-.741 1.336-1.247 1.641-2.152a.27.27 0 0 0 .272-.139c.215-.332-.016-.61-.11-.902-.18-.563-.524-1.069-.56-1.681z"/><path fill="#b8e1f2" d="m592.709 131.696-3.377-.057c.445-1.178 1.326-2.021 2.235-2.797 1.565-1.336 3.361-2.258 5.388-2.63 3.526-.639 6.734.138 9.572 2.373 1.058.831 2.017 1.772 2.57 3.054l-2.995.067-2.45-.031v-.84l1.756-.01.057-.032-.056-.094a2.925 2.925 0 0 0-2.252-.857c-2.414.058-4.831.024-7.246.018-.847 0-1.552.368-2.231.824-.626.028-.637.572-.799.987z"/><path fill="#b6e0f2" d="M591.559 134.424v-.254c1.411-.427 2.707-1.136 4.036-1.759.421-.198 1-.181 1.225-.73.809.035 1.634-.138 2.427.108l.02 5.83h-.125c-1.551-.675-3.091-1.375-4.655-2.013-.971-.392-1.86-1.018-2.928-1.182"/><path fill="#90d4f0" d="M591.559 134.426c1.067.162 1.956.786 2.932 1.185 1.564.638 3.104 1.339 4.654 2.013-.124.592-.699.733-1.062 1.08-.826.795-1.814 1.4-2.602 2.243a.2.2 0 0 1-.068.017c-1.471-2.064-3.021-4.08-3.854-6.538"/><path fill="#4d8ac8" d="M604.186 137.355c0 1.036-.019 2.077.012 3.108a1.06 1.06 0 0 1-.532 1.028c-.532.334-.912.882-1.514 1.121-.642-.831-1.042-1.823-1.618-2.695-.392-.593-.555-1.357-1.225-1.745q0-.196.006-.393l.26-.138c.118.146.282.127.434.113q2.085-.194 4.177-.399"/><path fill="#b6e0f2" d="M595.834 143.605c-.384-.839-.273-1.761-.424-2.639a.2.2 0 0 0 .068-.017c1.226.053 2.451.085 3.668.277q0 1.454-.007 2.908a5.4 5.4 0 0 1-.732-.08c-.861-.136-1.691-.446-2.573-.449"/><path fill="#58afdd" d="M599.141 144.132q0-1.455.006-2.908c.282-1.005.044-2.038.154-3.046.672.387.836 1.153 1.225 1.744.578.874.976 1.86 1.619 2.695l-.15.241-2.738 1.281a1 1 0 0 1-.116-.007"/><path fill="#4d8ac8" d="m603.648 131.68 2.451.03c.035.612.38 1.119.559 1.681.094.294.326.571.111.903a.3.3 0 0 0-.156.03.3.3 0 0 0-.117.108c-.51.097-.953.373-1.414.583-.462.211-.871.562-1.417.547q0-1.927-.007-3.853z"/><path fill="#266fa8" d="M603.662 135.563c.544.016.953-.337 1.417-.546s.904-.487 1.414-.583c-.306.906-1.121 1.411-1.64 2.151q-.319.405-.681.769l-4.179.4c-.153.014-.317.033-.434-.114.962-.452 1.931-.89 2.883-1.365.422-.208.911-.306 1.22-.712"/><path fill="#90d4f0" d="M599.14 144.133q.06.006.121 0l.064 3.184c-.098.139-.192.077-.272-.013a2237 2237 0 0 1-3.217-3.695c.881 0 1.711.313 2.572.449q.364.063.732.075M596.824 131.685c-.23.554-.81.532-1.225.73-1.329.623-2.625 1.332-4.037 1.758l1.154-2.477.168-.022z"/><path fill="#266fa8" d="m599.326 147.313-.064-3.185 2.737-1.28c-.486 1.107-1.154 2.108-1.769 3.139-.264.461-.414 1.02-.904 1.326M606.5 134.436a.291.291 0 0 1 .273-.138.27.27 0 0 1-.273.138"/><path fill="#f4fafd" d="M593.676 130.687c.68-.455 1.384-.831 2.231-.824 2.416 0 4.833.04 7.246-.018a2.94 2.94 0 0 1 2.255.859v.127l-1.77.01h-9.107c-.294 0-.591.018-.855-.154"/><path fill="#e9f6fd" d="M593.679 130.688c.264.171.561.152.855.152h9.107v.84l.012.031-4.399.084c-.801-.245-1.619-.073-2.427-.108l-3.948-.009c.165-.419.174-.963.8-.99M605.41 130.827v-.128l.056.094z"/><path fill="#68c1ea" d="m599.254 131.793 4.407-.082q0 1.927.006 3.853c-.309.406-.796.504-1.214.714-.953.474-1.921.912-2.883 1.365l-.26.138-.037-.156z"/></g></g></g><rect width="79" height="79" x="559.5" y="24.5" fill="#1f1f1f" rx="39.5"/><rect width="79" height="79" x="559.5" y="24.5" stroke="#3d3d3d" rx="39.5"/><g filter="url(#l)"><rect width="48" height="48" x="575" y="40" fill="#292929" rx="24" shape-rendering="crispEdges"/><path fill="#e25444" fill-rule="evenodd" d="m607.045 56.64-4.072 7.407 4.072 7.406 1.668-.89V57.53z" clip-rule="evenodd"/><path fill="#7b1d13" fill-rule="evenodd" d="m607.045 56.64-8.145.891-4.146 6.516 4.146 6.516 8.145.89z" clip-rule="evenodd"/><path fill="#58150d" fill-rule="evenodd" d="m590.61 56.64-1.325.563v13.688l1.325.562 8.292-7.406z" clip-rule="evenodd"/><path fill="#e25444" fill-rule="evenodd" d="m590.594 56.625 8.321 2.208v10.625l-8.321 2z" clip-rule="evenodd"/><path fill="#58150d" fill-rule="evenodd" d="m598.916 60-3.533-.542 3.533-3.833 3.524 3.833z" clip-rule="evenodd"/><path fill="#58150d" fill-rule="evenodd" d="m602.44 59.458-3.528.55-3.529-.55v-3.833M598.916 68.042l-3.533.625 3.533 3.292 3.524-3.292z" clip-rule="evenodd"/><path fill="#7b1d13" fill-rule="evenodd" d="m598.904 52.75-3.533 1.781v4.922l3.544-.953zM598.912 61.208l-3.529.367v4.914l3.529.386zM598.912 69.5l-3.529-.846v4.831l3.529 1.765z" clip-rule="evenodd"/><path fill="#e25444" fill-rule="evenodd" d="m602.443 68.654-3.529.846v5.75l3.529-1.765zM598.914 61.208l3.529.367v4.914l-3.529.386zM598.902 52.75l3.533 1.781v4.922l-3.533-.937z" clip-rule="evenodd"/></g><rect width="80" height="92" x="471" y="94" fill="#1e1e1e" rx="4"/><rect width="64" height="12" x="479" y="102" fill="#333" rx="6"/><rect width="64" height="12" x="479" y="118" fill="#333" rx="6"/><rect width="64" height="12" x="479" y="134" fill="#333" rx="6"/><rect width="63" height="11" x="479.5" y="150.5" fill="#193ae6" fill-opacity=".25" stroke="#193ae6" rx="5.5"/><rect width="63" height="11" x="479.5" y="166.5" fill="#193ae6" fill-opacity=".25" stroke="#193ae6" rx="5.5"/><path fill="url(#m)" fill-rule="evenodd" d="M376.988 128.908V137l14-12-14-12v7.713H346v8.195z" clip-rule="evenodd"/></g><defs><filter id="a" width="791" height="338" x="-44" y="-44" color-interpolation-filters="sRGB" filterUnits="userSpaceOnUse"><feFlood flood-opacity="0" result="BackgroundImageFix"/><feGaussianBlur in="BackgroundImageFix" stdDeviation="22"/><feComposite in2="SourceAlpha" operator="in" result="effect1_backgroundBlur_1060_3259"/><feBlend in="SourceGraphic" in2="effect1_backgroundBlur_1060_3259" result="shape"/></filter><filter id="d" width="96" height="96" x="124" y="90" color-interpolation-filters="sRGB" filterUnits="userSpaceOnUse"><feFlood flood-opacity="0" result="BackgroundImageFix"/><feColorMatrix in="SourceAlpha" result="hardAlpha" values="0 0 0 0 0 0 0 0 0 0 0 0 0 0 0 0 0 0 127 0"/><feOffset/><feGaussianBlur stdDeviation="12"/><feComposite in2="hardAlpha" operator="out"/><feColorMatrix values="0 0 0 0 0 0 0 0 0 0 0 0 0 0 0 0 0 0 0.5 0"/><feBlend in2="BackgroundImageFix" result="effect1_dropShadow_1060_3259"/><feBlend in="SourceGraphic" in2="effect1_dropShadow_1060_3259" result="shape"/></filter><filter id="f" width="96" height="96" x="124" y="16" color-interpolation-filters="sRGB" filterUnits="userSpaceOnUse"><feFlood flood-opacity="0" result="BackgroundImageFix"/><feColorMatrix in="SourceAlpha" result="hardAlpha" values="0 0 0 0 0 0 0 0 0 0 0 0 0 0 0 0 0 0 127 0"/><feOffset/><feGaussianBlur stdDeviation="12"/><feComposite in2="hardAlpha" operator="out"/><feColorMatrix values="0 0 0 0 0 0 0 0 0 0 0 0 0 0 0 0 0 0 0.5 0"/><feBlend in2="BackgroundImageFix" result="effect1_dropShadow_1060_3259"/><feBlend in="SourceGraphic" in2="effect1_dropShadow_1060_3259" result="shape"/></filter><filter id="h" width="96" height="96" x="178" y="53" color-interpolation-filters="sRGB" filterUnits="userSpaceOnUse"><feFlood flood-opacity="0" result="BackgroundImageFix"/><feColorMatrix in="SourceAlpha" result="hardAlpha" values="0 0 0 0 0 0 0 0 0 0 0 0 0 0 0 0 0 0 127 0"/><feOffset/><feGaussianBlur stdDeviation="12"/><feComposite in2="hardAlpha" operator="out"/><feColorMatrix values="0 0 0 0 0 0 0 0 0 0 0 0 0 0 0 0 0 0 0.5 0"/><feBlend in2="BackgroundImageFix" result="effect1_dropShadow_1060_3259"/><feBlend in="SourceGraphic" in2="effect1_dropShadow_1060_3259" result="shape"/></filter><filter id="i" width="96" height="96" x="551" y="90" color-interpolation-filters="sRGB" filterUnits="userSpaceOnUse"><feFlood flood-opacity="0" result="BackgroundImageFix"/><feColorMatrix in="SourceAlpha" result="hardAlpha" values="0 0 0 0 0 0 0 0 0 0 0 0 0 0 0 0 0 0 127 0"/><feOffset/><feGaussianBlur stdDeviation="12"/><feComposite in2="hardAlpha" operator="out"/><feColorMatrix values="0 0 0 0 0 0 0 0 0 0 0 0 0 0 0 0 0 0 0.5 0"/><feBlend in2="BackgroundImageFix" result="effect1_dropShadow_1060_3259"/><feBlend in="SourceGraphic" in2="effect1_dropShadow_1060_3259" result="shape"/></filter><filter id="l" width="96" height="96" x="551" y="16" color-interpolation-filters="sRGB" filterUnits="userSpaceOnUse"><feFlood flood-opacity="0" result="BackgroundImageFix"/><feColorMatrix in="SourceAlpha" result="hardAlpha" values="0 0 0 0 0 0 0 0 0 0 0 0 0 0 0 0 0 0 127 0"/><feOffset/><feGaussianBlur stdDeviation="12"/><feComposite in2="hardAlpha" operator="out"/><feColorMatrix values="0 0 0 0 0 0 0 0 0 0 0 0 0 0 0 0 0 0 0.5 0"/><feBlend in2="BackgroundImageFix" result="effect1_dropShadow_1060_3259"/><feBlend in="SourceGraphic" in2="effect1_dropShadow_1060_3259" result="shape"/></filter><linearGradient id="b" x1=".835" x2="624.523" y1="0" y2="380.129" gradientUnits="userSpaceOnUse"><stop stop-color="#3d3d3d" stop-opacity=".4"/><stop offset="1" stop-color="#292929" stop-opacity=".1"/></linearGradient><linearGradient id="c" x1="0" x2="666.649" y1="0" y2="324.646" gradientUnits="userSpaceOnUse"><stop stop-color="#292929" stop-opacity=".4"/><stop offset="1" stop-color="#3d3d3d" stop-opacity=".15"/></linearGradient><linearGradient id="m" x1="391.187" x2="346" y1="124.81" y2="124.81" gradientUnits="userSpaceOnUse"><stop stop-color="#fff"/><stop offset="1" stop-color="#292929"/></linearGradient><clipPath id="e"><path fill="#fff" d="M160 126h24v24h-24z"/></clipPath><clipPath id="g"><path fill="#fff" d="M202 77h48v48h-48z"/></clipPath><clipPath id="j"><path fill="#fff" d="M587 126h24v24h-24z"/></clipPath></defs></svg>