<svg xmlns="http://www.w3.org/2000/svg" width="260" height="160" fill="none" viewBox="0 0 260 160"><rect width="100" height="120" x="20" y="20" fill="#f9fafb" stroke="#e5e7eb" rx="8"/><text x="70" y="40" fill="#6b7280" font-family="sans-serif" font-size="12" text-anchor="middle">Schema</text><rect width="80" height="20" x="30" y="60" fill="#eff6ff" rx="4"/><text x="40" y="74" fill="#3b82f6" font-family="sans-serif" font-size="10">id</text><text x="85" y="74" fill="#6b7280" font-family="monospace" font-size="10" text-anchor="end">INT</text><rect width="80" height="20" x="30" y="90" fill="#eff6ff" rx="4"/><text x="40" y="104" fill="#3b82f6" font-family="sans-serif" font-size="10">Cost</text><text x="85" y="104" fill="#6b7280" font-family="monospace" font-size="10" text-anchor="end">FLOAT</text><rect width="80" height="20" x="30" y="120" fill="#eff6ff" rx="4"/><text x="40" y="134" fill="#3b82f6" font-family="sans-serif" font-size="10">pay_date</text><text x="85" y="134" fill="#6b7280" font-family="monospace" font-size="10" text-anchor="end">DATE</text><path stroke="#3b82f6" stroke-linecap="round" d="M130 80h20"/><circle cx="140" cy="80" r="5" fill="#3b82f6"/><rect width="100" height="120" x="160" y="20" fill="#f9fafb" stroke="#e5e7eb" rx="8"/><text x="210" y="40" fill="#6b7280" font-family="sans-serif" font-size="12" text-anchor="middle">Schema</text><rect width="80" height="20" x="170" y="60" fill="#eff6ff" rx="4"/><text x="180" y="74" fill="#3b82f6" font-family="sans-serif" font-size="10">id</text><text x="225" y="74" fill="#6b7280" font-family="monospace" font-size="10" text-anchor="end">BIGINT</text><rect width="80" height="20" x="170" y="90" fill="#eff6ff" rx="4"/><text x="180" y="104" fill="#3b82f6" font-family="sans-serif" font-size="10">Cost</text><text x="225" y="104" fill="#6b7280" font-family="monospace" font-size="10" text-anchor="end">DOUBLE</text><rect width="80" height="20" x="170" y="120" fill="#eff6ff" rx="4"/><text x="180" y="134" fill="#3b82f6" font-family="sans-serif" font-size="10">pay_date</text><text x="225" y="134" fill="#6b7280" font-family="monospace" font-size="10" text-anchor="end">TIMESTAMP</text></svg>