<svg xmlns="http://www.w3.org/2000/svg" width="20" height="20" fill="none" viewBox="0 0 20 20"><g clip-path="url(#a)"><path fill="#569cd6" d="M20 11.285c-.019.681-.594 1.215-1.276 1.215h-2.161v.625c0 .854-.19 1.663-.531 2.389l2.352 2.352a1.25 1.25 0 0 1-1.767 1.768l-2.139-2.138a5.6 5.6 0 0 1-3.54 1.254V9.219a.47.47 0 0 0-.469-.469h-.937a.47.47 0 0 0-.469.469v9.531a5.6 5.6 0 0 1-3.54-1.254l-2.139 2.138a1.25 1.25 0 0 1-1.767-1.768l2.352-2.352a5.6 5.6 0 0 1-.531-2.389V12.5H1.276c-.68 0-1.256-.534-1.275-1.215A1.25 1.25 0 0 1 1.251 10h2.187V7.705L1.617 5.884a1.25 1.25 0 0 1 1.767-1.768L5.518 6.25h8.965l2.133-2.134a1.25 1.25 0 0 1 1.768 1.768l-1.821 1.821V10h2.188A1.25 1.25 0 0 1 20 11.285M10.04 0a4.375 4.375 0 0 0-4.375 4.375h8.75A4.375 4.375 0 0 0 10.04 0"/></g><defs><clipPath id="a"><path fill="#fff" d="M0 0h20v20H0z"/></clipPath></defs></svg>