<svg xmlns="http://www.w3.org/2000/svg" width="20" class="icon" viewBox="0 0 1024 1024"><path fill="currentColor" d="M364.219 512.243a41.39 41.39 0 0 0 40.901 41.389H633a40.902 40.902 0 0 0 0-82.29H405.12a41.39 41.39 0 0 0-40.901 40.901M159.71 541.946a40.9 40.9 0 0 0 57.944 0L377.853 381.26a40.9 40.9 0 0 0 0-57.944L217.655 160.685a40.902 40.902 0 1 0-58.431 57.944l132.93 132.93-132.93 131.956a40.9 40.9 0 0 0 0 58.43zM941.71 941.71H82.29V82.29h859.42zm0-941.71H82.29A82.29 82.29 0 0 0 0 82.29v859.42a82.29 82.29 0 0 0 82.29 80.83h859.42a82.29 82.29 0 0 0 80.83-80.83V82.29A82.29 82.29 0 0 0 941.71 0"/></svg>