<svg xmlns="http://www.w3.org/2000/svg" width="710.28" height="723.618" viewBox="0 0 710.28 723.618"><ellipse cx="278.443" cy="-435.171" rx="355.14" ry="361.809" style="display:inline;fill:#fff" transform="translate(76.697 796.98)"/><g style="display:inline"><path d="M283.313 576.028c-6.05-.69-14.825-1.987-19.5-2.882-4.675-.894-10.3-2.016-12.5-2.493s-6.25-1.453-9-2.171-8.825-2.56-13.5-4.095-10.18-3.393-12.232-4.132-4.04-1.65-4.416-2.028c-.377-.377-1.253-.685-1.946-.685s-4.78-1.611-9.083-3.58c-4.303-1.968-11.75-5.576-16.548-8.017-4.799-2.44-13.124-7.2-18.5-10.577s-13.846-9.15-18.822-12.83-12.401-9.562-16.5-13.071-9.191-7.966-11.316-9.903-5.158-5.772-6.74-8.522c-2.341-4.067-2.88-6.189-2.888-11.365-.007-5.012.556-7.404 2.652-11.254 1.464-2.69 4.051-5.94 5.75-7.223 1.699-1.284 5.221-3.141 7.827-4.128 3.108-1.176 6.259-1.622 9.16-1.295 2.431.274 6.374 1.47 8.761 2.656s7.254 4.89 10.814 8.23c3.56 3.342 9.86 8.808 14 12.148s12.477 9.312 18.527 13.272c6.05 3.959 14.15 8.822 18 10.807 3.85 1.984 10.964 5.418 15.809 7.63s9.368 4.022 10.05 4.022 1.668.385 2.19.855c.523.47 4.776 2.02 9.45 3.443 4.676 1.423 11.426 3.316 15 4.205l10 2.49c1.926.48 8.676 1.652 15 2.604 8.44 1.27 17.755 1.726 35 1.715 17.316-.01 26.133-.457 33.5-1.695 5.5-.924 12.25-2.188 15-2.808 2.75-.621 8.15-1.995 12-3.054s8.35-2.293 10-2.743c1.65-.451 6.243-1.984 10.206-3.407s10.262-3.98 14-5.683a3658 3658 0 0 0 10.295-4.71c1.925-.886 5.75-2.929 8.5-4.538s7.7-4.532 11-6.494c3.3-1.963 9.15-5.824 13-8.581s10.825-8.236 15.5-12.176 12.343-11.16 17.04-16.044c4.698-4.883 11.403-12.48 14.9-16.88 3.498-4.4 9.155-12.274 12.573-17.5 3.417-5.224 8.341-13.55 10.942-18.5 2.6-4.95 6.522-13.274 8.713-18.5 2.192-5.224 4.63-11.524 5.418-14 .787-2.474 2.06-6.524 2.826-9 .766-2.474 1.858-6.524 2.426-9 .568-2.474 1.722-7.65 2.564-11.5s1.98-10.132 2.529-13.962c.757-5.284.705-7.15-.217-7.735-.668-.424-14.36-.778-30.426-.787l-29.21-.015-1.54 5.181c-.846 2.85-1.538 6.155-1.538 7.343 0 1.19-1.802 7.708-4.003 14.485-2.202 6.778-6.502 17.311-9.556 23.407s-6.09 12.007-6.747 13.136-4.26 6.374-8.008 11.657-10.948 13.814-16 18.959c-5.053 5.144-13.011 12.308-17.686 15.919-4.675 3.61-11.875 8.644-16 11.185s-11.775 6.614-17 9.051-12.875 5.55-17 6.918c-4.125 1.367-9.975 3.191-13 4.053-3.025.861-7.75 2.027-10.5 2.59s-9.275 1.56-14.5 2.217-14.9 1.186-21.5 1.175-15.6-.545-20-1.189c-4.4-.643-10.475-1.652-13.5-2.242s-7.75-1.71-10.5-2.487a957 957 0 0 1-8.5-2.447c-1.925-.568-5.3-1.742-7.5-2.608s-5.575-2.24-7.5-3.052c-1.925-.813-7.034-3.253-11.352-5.424-4.319-2.17-11.519-6.318-16-9.217-4.482-2.899-12.56-8.988-17.952-13.53-5.392-4.544-13.267-12.313-17.5-17.265s-10.323-12.885-13.534-17.629c-3.21-4.743-7.585-12.013-9.721-16.155s-4.841-9.781-6.011-12.531-3.194-8.234-4.498-12.187-3.25-11.153-4.323-16-2.437-11.79-3.03-15.428c-.594-3.639-1.08-13.712-1.08-22.385s.49-18.746 1.089-22.385c.598-3.638 1.767-9.765 2.597-13.615s3.327-12.382 5.548-18.96c2.221-6.577 6.295-16.252 9.053-21.5 2.757-5.247 7.664-13.486 10.903-18.31s8.59-11.908 11.892-15.744 10.354-10.849 15.67-15.583c5.318-4.734 14.353-11.702 20.08-15.483s14.996-9.11 20.6-11.84c5.603-2.73 14.387-6.359 19.52-8.064s12.98-3.93 17.44-4.946 12.609-2.4 18.109-3.078 15.633-1.21 22.518-1.183 17.46.743 23.5 1.592 14.807 2.49 19.482 3.645c4.675 1.156 9.918 2.744 11.65 3.528 1.734.784 3.845 1.426 4.692 1.426s1.818.45 2.158 1 1.4 1 2.354 1 7.341 2.84 14.191 6.31c6.85 3.472 15.605 8.47 19.455 11.107s10.911 8.11 15.692 12.163c4.935 4.182 9.877 9.387 11.43 12.038 1.74 2.969 2.9 6.632 3.183 10.052.297 3.57-.114 6.85-1.219 9.743-.916 2.4-3.225 5.967-5.13 7.93-1.907 1.962-5.151 4.375-7.211 5.362-2.56 1.227-5.96 1.775-10.745 1.731-4.389-.04-8.12-.66-10-1.662-1.65-.88-5.925-4.151-9.5-7.27s-9.425-7.724-13-10.237-10.83-6.75-16.12-9.417c-5.292-2.668-10.264-4.85-11.05-4.85s-1.858-.374-2.38-.831c-.523-.457-3.65-1.564-6.95-2.46s-8.475-2.187-11.5-2.87c-3.298-.745-12.906-1.245-24-1.249-13.635-.005-20.473.432-26 1.662-4.125.918-9.075 2.174-11 2.791s-4.4 1.488-5.5 1.936-4.475 1.804-7.5 3.014-7.525 3.34-10 4.734-6.965 4.142-9.977 6.108-6.387 4.266-7.5 5.114-6.33 5.818-11.592 11.046-11.5 12.141-13.862 15.364c-2.361 3.222-6.425 9.972-9.03 15-2.606 5.027-5.72 11.995-6.92 15.483-1.199 3.488-3.12 10.238-4.268 15-1.68 6.965-2.099 11.981-2.14 25.658-.032 10.362.442 19.147 1.215 22.5.698 3.025 2.607 9.696 4.243 14.825 1.637 5.13 5.01 13.36 7.495 18.288 2.486 4.93 7.157 12.519 10.38 16.865 3.222 4.346 9.297 11.308 13.5 15.47 4.204 4.162 11.988 10.459 17.3 13.991 5.31 3.533 12.418 7.792 15.795 9.465 3.376 1.673 11.026 4.59 17 6.481 5.973 1.892 14.236 4.042 18.36 4.778 4.126.735 13.126 1.337 20 1.337 6.876 0 15.876-.625 20-1.388 4.126-.764 10.426-2.177 14-3.14 3.576-.965 8.976-2.735 12-3.935 3.026-1.2 8.65-3.778 12.5-5.73 3.85-1.951 10.6-6.162 15-9.358s10.751-8.43 14.113-11.63 8.187-8.41 10.723-11.575 6.21-8.257 8.166-11.314 4.708-7.892 6.117-10.744 3.674-8.111 5.034-11.686 3.123-8.9 3.919-11.832 1.19-5.745.878-6.25c-.329-.532-17.032-.918-39.758-.918h-39.191l-5.867 6.562c-3.227 3.608-7.727 7.735-10 9.17-2.273 1.436-6.833 3.69-10.133 5.007-4.92 1.966-7.89 2.413-16.5 2.483-9.272.075-11.319-.241-17.5-2.707-3.85-1.536-9.132-4.339-11.737-6.229s-6.35-5.315-8.323-7.611c-1.973-2.297-5.241-7.55-7.263-11.675-3.615-7.374-3.677-7.703-3.677-19.5 0-11.876.04-12.08 3.822-19.823 2.556-5.23 5.763-9.763 9.678-13.677q5.855-5.855 13.177-9.333c4.05-1.923 10.53-4.001 14.499-4.65 5.895-.964 8.602-.904 15.17.335 4.396.83 10.617 2.77 13.823 4.313 3.912 1.882 8.522 5.524 14.006 11.066l8.175 8.26 118.825.255 118.825.254.333 16.5c.183 9.075-.2 23.025-.852 31s-1.825 18.325-2.608 23-1.836 10.3-2.339 12.5-1.672 7.15-2.598 11-2.78 10.375-4.121 14.5a536 536 0 0 1-4.987 14.5c-1.402 3.85-3.447 9.025-4.546 11.5s-4.025 8.679-6.502 13.786c-2.478 5.108-6.997 13.433-10.043 18.5s-8.69 13.67-12.54 19.115c-3.851 5.446-9.7 13.096-12.998 17s-10.092 11.3-15.098 16.436-12.926 12.574-17.601 16.531c-4.675 3.958-11.425 9.453-15 12.213s-8.975 6.608-12 8.552c-3.025 1.945-8.875 5.577-13 8.073s-12 6.795-17.5 9.553-12.25 6.025-15 7.259-7.925 3.357-11.5 4.718-9.875 3.594-14 4.963-9.075 2.845-11 3.278c-1.925.434-6.2 1.534-9.5 2.445s-9.825 2.341-14.5 3.179-14.125 2.162-21 2.942c-7.431.843-21.22 1.373-34 1.309-11.825-.06-26.45-.675-32.5-1.366M41.302 344.202c-3.307-1.23-8.086-3.662-10.62-5.407-2.536-1.744-6.602-5.386-9.037-8.094-2.434-2.708-5.605-7.196-7.046-9.973s-3.388-8.506-4.329-12.732c-1.07-4.815-1.49-9.533-1.122-12.64.323-2.728 1.125-6.614 1.781-8.637.656-2.022 1.982-5.497 2.947-7.722.965-2.224 3.578-6.352 5.807-9.172s6.936-7.184 10.459-9.699l6.406-4.57 1.74-9.757c.956-5.367 2.316-11.782 3.022-14.257s2.057-7.2 3.002-10.5 2.341-7.918 3.102-10.263 2.784-7.969 4.495-12.5 5.576-13.35 8.587-19.6 7.24-14.245 9.397-17.768c2.156-3.522 3.92-6.577 3.92-6.787s2.99-4.815 6.644-10.233c3.655-5.417 10.067-14.086 14.25-19.264s12.106-13.98 17.606-19.558 12.475-12.396 15.5-15.151 10.9-9.029 17.5-13.942 12.9-9.492 14-10.173c1.1-.682 6.05-3.668 11-6.636s13.5-7.64 19-10.383 11.8-5.749 14-6.682c2.2-.932 4.9-2.059 6-2.503l4.885-1.973c1.587-.64 6.762-2.436 11.5-3.99s10.64-3.388 13.115-4.076 5.85-1.68 7.5-2.204c1.65-.523 5.025-1.323 7.5-1.776s9.9-1.86 16.5-3.128c11.11-2.134 14.594-2.305 47-2.305 29.302 0 36.465.286 44 1.757 4.95.966 12.229 2.402 16.176 3.19 3.946.79 9.796 2.152 13 3.028a902 902 0 0 0 8.824 2.37c1.65.428 6.375 1.93 10.5 3.34s11.943 4.42 17.373 6.69 14.656 6.573 20.5 9.563c5.845 2.99 13.102 6.865 16.127 8.61 3.025 1.746 9.1 5.673 13.5 8.726s11.533 8.226 15.85 11.495c4.319 3.268 11.098 9.134 15.065 13.034 5.186 5.099 7.546 8.248 8.399 11.208.652 2.264 1.186 5.671 1.186 7.572s-.694 5.49-1.541 7.978c-.848 2.487-3.365 6.364-5.595 8.616-2.299 2.322-6.038 4.77-8.637 5.656-2.521.859-6.139 1.562-8.04 1.562s-5.177-.516-7.281-1.147c-2.105-.63-6.68-3.442-10.169-6.25l-13.452-10.826c-3.911-3.148-11.538-8.595-16.948-12.106s-13.887-8.448-18.837-10.972-12.15-6.01-15.999-7.747c-3.849-1.736-11.049-4.463-16-6.06a1713 1713 0 0 0-13.501-4.301 164 164 0 0 0-9-2.46c-2.475-.586-7.875-1.72-12-2.521s-12-1.99-17.5-2.643c-6.235-.74-17.908-1.003-31-.7-11.55.266-24.375.985-28.5 1.597s-9.75 1.612-12.5 2.223-10.175 2.465-16.5 4.12-13.975 3.892-17 4.972-6.4 2.357-7.5 2.837l-7 3.062a948 948 0 0 0-11.494 5.154c-3.572 1.633-9.647 4.83-13.5 7.106-3.854 2.276-10.606 6.578-15.006 9.56s-12.5 9.124-18 13.648c-5.5 4.525-13.848 12.215-18.55 17.09-4.703 4.875-11.309 12.277-14.68 16.448-3.37 4.172-9.337 12.497-13.259 18.5s-9.858 16.54-13.19 23.416c-3.334 6.875-6.671 13.85-7.417 15.5-.747 1.65-2.915 7.808-4.818 13.685-1.903 5.876-4.164 13.526-5.025 17-.86 3.473-1.946 8.398-2.411 10.943-.847 4.629-.847 4.629 5.81 11.191 3.94 3.885 7.786 8.868 9.423 12.212 1.522 3.107 3.403 7.746 4.18 10.309.779 2.563 1.415 8.035 1.415 12.16s-.615 9.525-1.366 12-2.322 6.533-3.49 9.019c-1.17 2.485-4.173 6.86-6.676 9.72-2.503 2.862-7.265 6.878-10.583 8.926s-8.34 4.536-11.16 5.53c-3.75 1.32-7.957 1.79-15.665 1.753-8.358-.042-11.782-.515-16.55-2.288" style="display:inline;fill:#000" transform="translate(47.671 59.884)"/></g></svg>