<svg xmlns="http://www.w3.org/2000/svg" width="24" height="24" class="icon" viewBox="0 0 1024 1024"><path d="M693.845 567.168c-39.893 0-75.605 17.664-100.096 45.483l-62.72-44.416c6.656-18.347 10.496-38.016 10.496-58.624 0-20.267-3.669-39.595-10.112-57.686l62.592-43.946a133 133 0 0 0 99.883 45.226c73.6 0 133.504-59.861 133.504-133.504s-59.904-133.504-133.504-133.504a133.632 133.632 0 0 0-127.957 171.435l-62.635 43.947a172.54 172.54 0 0 0-106.752-61.995v-75.477a133.72 133.72 0 0 0 106.027-130.603C502.57 59.861 442.667 0 369.067 0S235.605 59.861 235.605 133.504a133.63 133.63 0 0 0 103.638 130.005v76.459a172.59 172.59 0 0 0-142.55 169.643A172.59 172.59 0 0 0 340.48 679.467v80.725a133.675 133.675 0 0 0-104.832 130.304C235.605 964.139 295.467 1024 369.067 1024S502.57 964.139 502.57 890.496a133.63 133.63 0 0 0-104.832-130.304v-80.725a172.46 172.46 0 0 0 104.96-61.056l63.146 44.714a133 133 0 0 0-5.461 37.547c0 73.6 59.904 133.504 133.504 133.504s133.504-59.861 133.504-133.504-59.947-133.504-133.547-133.504m0-312.15c35.712 0 64.726 29.057 64.726 64.726s-29.014 64.725-64.726 64.725c-35.669 0-64.725-29.056-64.725-64.725s29.056-64.725 64.725-64.725M304.341 133.505c0-35.67 29.014-64.725 64.726-64.725s64.725 29.056 64.725 64.725-29.013 64.725-64.725 64.725-64.726-29.056-64.726-64.725m129.451 756.992c0 35.67-29.013 64.725-64.725 64.725s-64.726-29.056-64.726-64.725 29.014-64.725 64.726-64.725 64.725 29.056 64.725 64.725m-64.725-290.603a90.37 90.37 0 0 1-90.283-90.282c0-49.792 40.49-90.283 90.283-90.283s90.282 40.49 90.282 90.283a90.37 90.37 0 0 1-90.282 90.282m324.778 165.504a64.81 64.81 0 0 1-64.725-64.725c0-35.67 29.013-64.725 64.725-64.725s64.726 29.056 64.726 64.725c0 35.67-29.014 64.725-64.726 64.725"/></svg>