<svg width="1761" height="453" viewBox="0 0 1761 453" fill="none" xmlns="http://www.w3.org/2000/svg">
<path d="M442.411 0H0V244.842C184.052 224.949 441.726 219.976 315.518 289.602C230.036 336.761 288.643 354.16 339.954 369.394C373.348 379.307 403.651 388.304 389.139 403.988C359.584 435.933 418.17 448.641 442.411 452.41V0Z" fill="white"/>
<path d="M699.214 338.625C678.023 338.625 659.325 333.831 643.12 324.243C627.122 314.442 614.553 300.912 605.412 283.654C596.478 266.182 592.011 245.941 592.011 222.929C592.011 200.131 596.478 180.103 605.412 162.844C614.553 145.373 627.122 131.736 643.12 121.935C659.325 112.134 678.023 107.233 699.214 107.233C721.029 107.233 739.934 112.134 755.932 121.935C772.137 131.736 784.706 145.373 793.64 162.844C802.573 180.103 807.04 200.131 807.04 222.929C807.04 245.941 802.573 266.182 793.64 283.654C784.706 300.912 772.137 314.442 755.932 324.243C739.934 333.831 721.029 338.625 699.214 338.625ZM699.526 314.975C715.523 314.975 729.547 311.353 741.597 304.108C753.854 296.651 763.307 286.104 769.955 272.468C776.811 258.618 780.239 242.106 780.239 222.929C780.239 203.753 776.811 187.347 769.955 173.711C763.307 159.861 753.854 149.314 741.597 142.07C729.547 134.826 715.523 131.204 699.526 131.204C683.529 131.204 669.401 134.826 657.143 142.07C645.093 149.314 635.64 159.861 628.784 173.711C622.136 187.347 618.812 203.753 618.812 222.929C618.812 242.106 622.136 258.618 628.784 272.468C635.64 286.104 645.093 296.651 657.143 304.108C669.401 311.353 683.529 314.975 699.526 314.975Z" fill="white"/>
<path d="M842.681 334.79V111.069H880.077V304.748H977.308V334.79H842.681Z" fill="white"/>
<path d="M1064.82 338.625C1051.94 338.625 1041.24 336.388 1032.73 331.914C1024.21 327.439 1017.87 321.473 1013.72 314.016C1009.56 306.559 1007.48 298.462 1007.48 289.726C1007.48 279.499 1009.98 270.657 1014.96 263.199C1020.16 255.742 1027.74 249.989 1037.71 245.941C1047.68 241.679 1059.94 239.549 1074.48 239.549H1114.06C1114.06 231.026 1112.92 223.995 1110.63 218.455C1108.35 212.702 1104.82 208.441 1100.04 205.671C1095.26 202.901 1089.13 201.516 1081.65 201.516C1073.13 201.516 1065.86 203.54 1059.84 207.589C1053.81 211.424 1050.07 217.39 1048.62 225.486H1011.85C1013.09 213.981 1016.83 204.179 1023.06 196.083C1029.3 187.773 1037.5 181.381 1047.68 176.907C1058.07 172.219 1069.39 169.875 1081.65 169.875C1096.4 169.875 1108.97 172.539 1119.36 177.866C1129.75 182.979 1137.64 190.437 1143.04 200.238C1148.65 209.826 1151.46 221.438 1151.46 235.074V334.79H1119.67L1115.93 308.902C1113.85 313.164 1111.15 317.106 1107.83 320.728C1104.71 324.35 1101.08 327.546 1096.92 330.316C1092.77 332.873 1087.99 334.897 1082.59 336.388C1077.39 337.88 1071.47 338.625 1064.82 338.625ZM1073.24 308.263C1079.26 308.263 1084.56 307.198 1089.13 305.067C1093.91 302.723 1097.96 299.527 1101.29 295.479C1104.82 291.218 1107.52 286.53 1109.39 281.417C1111.26 276.303 1112.5 270.87 1113.13 265.117V264.478H1078.54C1071.26 264.478 1065.24 265.436 1060.46 267.354C1055.68 269.059 1052.25 271.615 1050.18 275.025C1048.1 278.434 1047.06 282.375 1047.06 286.85C1047.06 291.324 1048.1 295.16 1050.18 298.356C1052.25 301.552 1055.27 304.002 1059.21 305.706C1063.16 307.411 1067.84 308.263 1073.24 308.263Z" fill="white"/>
<path d="M1292.7 334.79L1223.2 246.58L1285.53 173.711H1330.09L1252.5 262.241V232.517L1339.44 334.79H1292.7ZM1191.42 334.79V104.677H1228.81V334.79H1191.42Z" fill="white"/>
<path d="M1425.65 338.625C1410.07 338.625 1396.36 335.216 1384.51 328.398C1372.67 321.367 1363.43 311.566 1356.78 298.995C1350.13 286.424 1346.81 271.935 1346.81 255.529C1346.81 238.483 1350.03 223.569 1356.47 210.785C1363.11 198 1372.36 187.986 1384.2 180.742C1396.25 173.498 1410.17 169.875 1425.96 169.875C1441.33 169.875 1454.74 173.391 1466.16 180.422C1477.59 187.454 1486.42 196.935 1492.65 208.867C1498.88 220.586 1502 233.796 1502 248.498C1502 250.628 1502 252.972 1502 255.529C1502 258.086 1501.79 260.749 1501.38 263.519H1373.61V238.91H1464.29C1463.88 227.191 1460.03 218.029 1452.76 211.424C1445.49 204.606 1436.45 201.196 1425.65 201.196C1417.96 201.196 1410.9 203.008 1404.46 206.63C1398.02 210.252 1392.93 215.685 1389.19 222.929C1385.45 229.961 1383.58 238.91 1383.58 249.776V259.044C1383.58 269.059 1385.34 277.688 1388.88 284.932C1392.62 292.177 1397.6 297.716 1403.83 301.552C1410.28 305.174 1417.44 306.985 1425.34 306.985C1434.06 306.985 1441.23 305.067 1446.84 301.232C1452.66 297.397 1456.92 292.283 1459.62 285.891H1497.64C1494.73 295.905 1489.95 304.961 1483.3 313.057C1476.65 320.941 1468.45 327.226 1458.68 331.914C1448.92 336.388 1437.91 338.625 1425.65 338.625Z" fill="white"/>
<path d="M1628.49 74.8584V95.2168H1587.77V197.009H1567.41V95.2168H1526.7V74.8584H1628.49ZM1648.85 74.8584H1674.29L1704.83 127.75L1735.37 74.8584H1760.82V197.009H1740.46V106.75L1704.83 168.466L1669.2 106.77V197.009H1648.85V74.8584Z" fill="white"/>
</svg>
