<svg width="1452" height="1126" viewBox="0 0 1452 1126" fill="none" xmlns="http://www.w3.org/2000/svg">
<path d="M995.5 533.763C995.35 533.745 995.177 533.726 994.983 533.702C994.154 533.602 992.931 533.448 991.383 533.232C988.284 532.802 983.893 532.13 978.757 531.17C968.431 529.24 955.316 526.184 943.664 521.674C931.681 517.035 922.647 511.376 918.8 505.039C917.032 502.128 916.351 499.067 916.996 495.547C917.671 491.864 919.899 487.176 924.929 481.428C928.212 477.676 930.443 473.55 930.86 469.052C931.29 464.421 929.715 460.326 927.152 456.919C922.372 450.566 913.457 445.689 903.768 441.574C893.777 437.331 881.623 433.377 869.159 429.445C856.584 425.479 843.648 421.521 831.67 417.192C819.661 412.853 809.013 408.275 800.998 403.203C792.83 398.034 788.455 393.013 787.182 388.22C786.024 383.86 786.993 377.837 794.266 369.298C801.588 360.7 814.615 350.436 835.45 338.282C854.442 327.204 867.161 317.105 873.572 307.692C876.843 302.89 878.778 297.821 878.591 292.617C878.399 287.298 876.025 282.742 872.402 279.022C865.524 271.961 853.401 267.129 838.717 263.609C823.719 260.015 804.848 257.529 783.292 255.947C697.328 249.638 565.379 257.493 455.5 270.02V0H995.5V533.763Z" fill="#193AE6"/>
<path d="M277.329 1017.58C249.732 1017.58 225.483 1011.56 204.584 999.499C183.953 987.174 167.743 970.16 155.954 948.457C144.432 926.486 138.672 901.032 138.672 872.095C138.672 843.426 144.432 818.24 155.954 796.537C167.743 774.566 183.953 757.418 204.584 745.093C225.483 732.768 249.732 726.605 277.329 726.605C305.194 726.605 329.443 732.768 350.074 745.093C370.973 757.418 387.183 774.566 398.704 796.537C410.226 818.24 415.986 843.426 415.986 872.095C415.986 901.032 410.226 926.486 398.704 948.457C387.183 970.16 370.973 987.174 350.074 999.499C329.443 1011.56 305.194 1017.58 277.329 1017.58ZM277.329 987.844C297.96 987.844 316.046 983.289 331.586 974.179C347.394 964.801 359.586 951.538 368.16 934.39C377.001 916.974 381.422 896.209 381.422 872.095C381.422 847.981 377.001 827.35 368.16 810.202C359.586 792.786 347.394 779.523 331.586 770.413C316.046 761.303 297.96 756.748 277.329 756.748C256.698 756.748 238.478 761.303 222.67 770.413C207.13 779.523 194.939 792.786 186.097 810.202C177.523 827.35 173.236 847.981 173.236 872.095C173.236 896.209 177.523 916.974 186.097 934.39C194.939 951.538 207.13 964.801 222.67 974.179C238.478 983.289 256.698 987.844 277.329 987.844ZM458.494 1012.76V731.428H506.722V974.983H632.117V1012.76H458.494ZM744.983 1017.58C728.371 1017.58 714.572 1014.77 703.587 1009.14C692.601 1003.52 684.429 996.016 679.071 986.638C673.712 977.26 671.032 967.079 671.032 956.093C671.032 943.232 674.248 932.113 680.678 922.735C687.377 913.357 697.156 906.123 710.017 901.032C722.878 895.673 738.686 892.994 757.442 892.994H808.484C808.484 882.277 807.01 873.435 804.063 866.468C801.116 859.234 796.561 853.875 790.398 850.392C784.236 846.909 776.332 845.167 766.686 845.167C755.7 845.167 746.323 847.713 738.553 852.804C730.782 857.626 725.959 865.129 724.084 875.31H676.659C678.267 860.842 683.09 848.517 691.128 838.335C699.166 827.885 709.749 819.847 722.878 814.221C736.275 808.326 750.878 805.379 766.686 805.379C785.709 805.379 801.92 808.728 815.316 815.426C828.713 821.857 838.895 831.235 845.861 843.56C853.095 855.617 856.713 870.219 856.713 887.367V1012.76H815.718L810.895 980.207C808.216 985.566 804.733 990.523 800.446 995.078C796.427 999.633 791.738 1003.65 786.379 1007.14C781.02 1010.35 774.858 1012.9 767.892 1014.77C761.193 1016.65 753.557 1017.58 744.983 1017.58ZM755.834 979.404C763.605 979.404 770.437 978.064 776.332 975.385C782.494 972.437 787.719 968.418 792.006 963.327C796.561 957.969 800.044 952.074 802.455 945.644C804.867 939.213 806.474 932.381 807.278 925.146V924.343H762.667C753.289 924.343 745.519 925.548 739.356 927.96C733.194 930.103 728.773 933.319 726.093 937.606C723.414 941.892 722.074 946.849 722.074 952.476C722.074 958.103 723.414 962.926 726.093 966.945C728.773 970.964 732.658 974.045 737.749 976.188C742.839 978.332 748.868 979.404 755.834 979.404ZM1038.86 1012.76L949.239 901.836L1029.62 810.202H1087.09L987.018 921.529V884.152L1099.15 1012.76H1038.86ZM908.244 1012.76V723.39H956.473V1012.76H908.244ZM1210.33 1017.58C1190.23 1017.58 1172.55 1013.3 1157.27 1004.72C1142 995.882 1130.08 983.557 1121.51 967.748C1112.93 951.94 1108.64 933.72 1108.64 913.089C1108.64 891.654 1112.8 872.899 1121.1 856.823C1129.68 840.746 1141.6 828.153 1156.87 819.044C1172.41 809.934 1190.36 805.379 1210.73 805.379C1230.56 805.379 1247.84 809.8 1262.57 818.642C1277.31 827.484 1288.7 839.407 1296.74 854.411C1304.77 869.148 1308.79 885.76 1308.79 904.247C1308.79 906.927 1308.79 909.874 1308.79 913.089C1308.79 916.305 1308.52 919.654 1307.99 923.137H1143.21V892.19H1260.16C1259.63 877.454 1254.67 865.932 1245.29 857.626C1235.91 849.052 1224.26 844.765 1210.33 844.765C1200.41 844.765 1191.3 847.043 1183 851.598C1174.69 856.153 1168.13 862.985 1163.3 872.095C1158.48 880.937 1156.07 892.19 1156.07 905.855V917.51C1156.07 930.103 1158.35 940.955 1162.9 950.065C1167.72 959.174 1174.15 966.141 1182.19 970.964C1190.5 975.519 1199.74 977.796 1209.92 977.796C1221.18 977.796 1230.42 975.385 1237.66 970.562C1245.16 965.739 1250.65 959.308 1254.13 951.27H1303.17C1299.41 963.863 1293.25 975.251 1284.68 985.432C1276.1 995.346 1265.52 1003.25 1252.93 1009.14C1240.33 1014.77 1226.13 1017.58 1210.33 1017.58Z" fill="#193AE6"/>
<path d="M1318.79 613.881V634.239H1278.08V736.031H1257.72V634.239H1217V613.881H1318.79ZM1339.15 613.881H1364.6L1395.14 666.772L1425.67 613.881H1451.12V736.031H1430.76V645.772L1395.14 707.489L1359.51 645.793V736.031H1339.15V613.881Z" fill="#193AE6"/>
</svg>
