<svg xmlns="http://www.w3.org/2000/svg" width="554" height="298" fill="none" viewBox="0 0 554 298"><g clip-path="url(#a)"><rect width="553" height="298" x=".5" fill="#193ae6" rx="8"/><g filter="url(#b)"><ellipse cx="384" cy="230.5" fill="#4664ff" rx="210.5" ry="176.5"/></g><g clip-path="url(#c)"><path fill="#fff" d="M282.119 66.106a7.5 7.5 0 0 0-9.97 0c-18.531 16.47-31.931 33.998-39.833 52.091-7.561 17.311-9.59 34.454-5.877 49.586 5.077 20.652 20.678 36.288 43.195 43.593v15.406a7.51 7.51 0 0 0 7.513 7.513 7.51 7.51 0 0 0 7.513-7.513v-15.406c11.172-3.624 20.652-9.294 27.975-16.617a57.07 57.07 0 0 0 15.22-26.976c3.713-15.132 1.68-32.279-5.877-49.586-7.924-18.088-21.329-35.62-39.859-52.091m31.139 98.102c-3.5 14.257-13.51 25.08-28.638 31.219v-74.724a7.51 7.51 0 0 0-4.638-6.941 7.5 7.5 0 0 0-5.75 0 7.51 7.51 0 0 0-4.638 6.941l.053 74.724c-15.088-6.126-25.124-16.975-28.602-31.254-6.019-24.502 7.433-54.916 36.128-82.312 28.647 27.427 42.104 57.846 36.085 82.347"/></g></g><defs><clipPath id="a"><rect width="553" height="298" x=".5" fill="#fff" rx="8"/></clipPath><clipPath id="c"><path fill="#fff" d="M164 149 277.137 35.863 390.274 149 277.137 262.137z"/></clipPath><filter id="b" width="781" height="713" x="-6.5" y="-126" color-interpolation-filters="sRGB" filterUnits="userSpaceOnUse"><feFlood flood-opacity="0" result="BackgroundImageFix"/><feBlend in="SourceGraphic" in2="BackgroundImageFix" result="shape"/><feGaussianBlur result="effect1_foregroundBlur_1_1350" stdDeviation="90"/></filter></defs></svg>