<svg xmlns="http://www.w3.org/2000/svg" width="16" height="16" fill="none" viewBox="0 0 16 16"><path fill="#407bff" d="M13.118 4.364A7.2 7.2 0 0 0 8 2.25h-.026C3.991 2.264.75 5.548.75 9.57V11A1.25 1.25 0 0 0 2 12.25h12A1.25 1.25 0 0 0 15.25 11V9.5a7.2 7.2 0 0 0-2.133-5.136m.632 6.386H7.958l2.902-4.062a.75.75 0 1 0-1.22-.875L6.114 10.75H2.25V9.57c0-.107 0-.214.009-.32H3.5a.75.75 0 0 0 0-1.5h-.961c.682-2.087 2.5-3.657 4.711-3.95V5a.75.75 0 0 0 1.5 0V3.8a5.75 5.75 0 0 1 4.729 3.95H12.5a.75.75 0 1 0 0 1.5h1.244q.006.124.006.25z"/></svg>