<svg xmlns="http://www.w3.org/2000/svg" width="40" height="40" fill="none" viewBox="0 0 40 40"><path fill="#fff" d="M4.375 10A1.875 1.875 0 0 1 6.25 8.125h27.5a1.875 1.875 0 1 1 0 3.75H6.25A1.875 1.875 0 0 1 4.375 10M6.25 21.875h10a1.875 1.875 0 1 0 0-3.75h-10a1.875 1.875 0 1 0 0 3.75m12.5 6.25H6.25a1.875 1.875 0 1 0 0 3.75h12.5a1.875 1.875 0 1 0 0-3.75m18.827 3.202a1.875 1.875 0 0 1-2.657 0l-2.825-2.825a6.875 6.875 0 1 1 2.657-2.657l2.825 2.824a1.88 1.88 0 0 1 0 2.658m-8.827-5.702a3.125 3.125 0 1 0 0-6.25 3.125 3.125 0 0 0 0 6.25"/></svg>