<svg xmlns="http://www.w3.org/2000/svg" width="72" height="72" fill="none" viewBox="0 0 72 72"><circle cx="36" cy="36" r="36" fill="#333"/><path fill="#193ae6" fill-rule="evenodd" d="M22.667 24.334q-.001.003.005.025.005.028.053.11c.07.116.215.289.485.502.55.433 1.45.897 2.71 1.317 2.503.834 6.067 1.379 10.08 1.379s7.577-.545 10.08-1.379c1.26-.42 2.16-.884 2.71-1.317.27-.213.414-.386.485-.502a.5.5 0 0 0 .053-.11l.005-.025q.001-.001-.005-.026a.5.5 0 0 0-.053-.11c-.07-.115-.215-.289-.485-.502-.55-.433-1.45-.897-2.71-1.317C43.577 21.545 40.013 21 36 21s-7.577.545-10.08 1.38c-1.26.42-2.16.883-2.71 1.317-.27.212-.414.386-.485.5a.5.5 0 0 0-.053.111q-.006.024-.005.026m26.666 4.21c-.668.343-1.41.643-2.2.906C44.209 30.426 40.273 31 36 31s-8.208-.574-11.134-1.55a16 16 0 0 1-2.2-.905V36l.001.003.004.016a.5.5 0 0 0 .05.104c.066.11.203.28.466.492.535.43 1.43.905 2.733 1.34 2.597.865 6.224 1.379 10.08 1.379s7.483-.514 10.08-1.38c1.303-.434 2.198-.908 2.733-1.339.263-.211.4-.381.467-.492a.5.5 0 0 0 .053-.12v-7.458m3.334-4.21c0-1.42-.865-2.508-1.814-3.256-.968-.762-2.265-1.376-3.72-1.861-2.925-.975-6.861-1.55-11.133-1.55s-8.208.575-11.134 1.55c-1.454.485-2.751 1.099-3.719 1.861-.949.748-1.814 1.836-1.814 3.256v23.333c0 1.375.821 2.453 1.764 3.212.958.771 2.26 1.402 3.77 1.905 3.03 1.01 7.033 1.55 11.133 1.55s8.104-.54 11.134-1.55c1.51-.503 2.81-1.134 3.77-1.905.942-.759 1.763-1.837 1.763-3.212zM49.333 40.21a16 16 0 0 1-2.2.907c-3.03 1.01-7.033 1.55-11.133 1.55s-8.104-.54-11.134-1.55a16 16 0 0 1-2.2-.907v7.457l.001.003.004.015a.5.5 0 0 0 .05.105c.066.11.203.28.466.492.535.43 1.43.905 2.733 1.34C28.518 50.486 32.145 51 36 51s7.483-.513 10.08-1.379c1.303-.434 2.198-.908 2.733-1.339.263-.211.4-.382.467-.492a.5.5 0 0 0 .053-.12v-7.46" clip-rule="evenodd"/></svg>