<svg xmlns="http://www.w3.org/2000/svg" width="24" height="24" fill="none" viewBox="0 0 24 24"><rect width="22.75" height="22.75" x=".625" y=".625" fill="#232323" rx="5.375"/><rect width="22.75" height="22.75" x=".625" y=".625" stroke="#303030" stroke-width="1.25" rx="5.375"/><path fill="#595959" d="M18 7a1 1 0 0 0-1-1H7a1 1 0 0 0-1 1v4.365c0 .593.514 1.056 1.105 1.004 4.84-.428 10.63-.418 7.453 1.29-2.318 1.248-.729 1.708.663 2.11.906.263 1.728.5 1.334.916-.45.474-.147.788.322.99.562.241 1.123-.26 1.123-.873z"/></svg>