<svg xmlns="http://www.w3.org/2000/svg" width="72" height="72" fill="none" viewBox="0 0 72 72"><g clip-path="url(#a)"><rect width="72" height="72" fill="#333" rx="36"/><path stroke="#7c91f8" stroke-width="3" d="M-4 20.5h79M18.707 23.156l1.002-1.67a1 1 0 0 1 .857-.486H53.28a1 1 0 0 1 .949.684l.592 1.775a1 1 0 0 1-.193.972l-5.883 6.787a1 1 0 0 0-.244.655v7.682a1 1 0 0 1-.331.743l-4.568 4.11q-.101.092-.174.207l-6.218 9.771a1 1 0 0 1-1.59.13l-7.364-8.231a1 1 0 0 1-.255-.667v-5.132c0-.307-.142-.595-.377-.792-5.175-4.319-8.1-12.05-9.03-15.804a.97.97 0 0 1 .114-.734ZM20.988 18.113l-.416 1.005a1 1 0 0 0 .924 1.382h30.386a1 1 0 0 0 .894-1.447l-.649-1.299a1 1 0 0 0-.369-.403l-4.382-2.708a1 1 0 0 0-.503-.15l-21.446-.483a1 1 0 0 0-.73.292l-3.491 3.486a1 1 0 0 0-.218.325Z"/></g><defs><clipPath id="a"><rect width="72" height="72" fill="#fff" rx="36"/></clipPath></defs></svg>