<svg xmlns="http://www.w3.org/2000/svg" width="201" height="155" fill="none" viewBox="0 0 201 155"><path stroke="#2e2e2e" stroke-linecap="round" stroke-width=".938" d="M73.666 30.02v8.912a3.75 3.75 0 0 1-3.752 3.752H18.32a3.75 3.75 0 0 0-3.752 3.752v8.912M73.668 30.02v8.912a3.75 3.75 0 0 0 3.752 3.752h15.5m0 0v12.664m0-12.664h36.092a3.75 3.75 0 0 1 3.753 3.752v8.912"/><rect width="124.759" height="30.017" x="13.634" fill="#2e2e2e" rx="7.504"/><rect width="28.141" height="30.017" x=".5" y="54.406" fill="#2e2e2e" rx="7.504"/><rect width="29.079" height="30.017" x="118.697" y="54.406" fill="#2e2e2e" rx="7.504"/><path stroke="#2e2e2e" stroke-linecap="round" stroke-width=".938" d="M15.513 84.427v15.261a3.75 3.75 0 0 0 3.752 3.753h25.327a3.75 3.75 0 0 1 3.752 3.752v18.508M93.364 84.427v21.106a3.75 3.75 0 0 0 3.752 3.752h41.274a3.75 3.75 0 0 1 3.752 3.752v14.54"/><path stroke="#2e2e2e" stroke-linecap="round" stroke-width=".938" d="m133.215 84.427-.38 20.871a3.75 3.75 0 0 0 3.717 3.82l45.026.406a3.75 3.75 0 0 1 3.718 3.752v14.301"/><rect width="64.725" height="30.017" x="14.569" y="124.756" fill="#193ae6" rx="7.504"/><rect width="28.141" height="30.017" x="129.009" y="124.756" fill="#2e2e2e" rx="7.504"/><rect width="29.079" height="30.017" x="171.217" y="124.756" fill="#616161" rx="7.504"/><rect width="29.079" height="30.017" x="78.36" y="54.406" fill="#616161" rx="7.504"/></svg>