<svg xmlns="http://www.w3.org/2000/svg" width="146" height="148" fill="none" viewBox="0 0 146 148"><rect width="78.984" height="78.984" x="17.152" y="71.805" fill="#2e2e2e" rx="4.787" transform="rotate(-45 17.152 71.805)"/><rect width="57.443" height="57.443" x="44.277" y="43.082" fill="#555" rx="4.787"/><path fill="#193ae6" fill-rule="evenodd" d="M128.193 15.703a1.197 1.197 0 0 1 0 1.692l-19.849 19.849a1.196 1.196 0 0 1-1.692 0l-1.693-1.693a1.197 1.197 0 0 1 0-1.692l19.849-19.849a1.196 1.196 0 0 1 1.692 0zM14.01 124.11a1.2 1.2 0 0 1 0-1.693l19.849-19.848a1.197 1.197 0 0 1 1.692 0l1.693 1.692a1.197 1.197 0 0 1 0 1.693l-19.849 19.848a1.196 1.196 0 0 1-1.692 0zM36.747 39.638a1.197 1.197 0 0 1-1.693 0L15.206 19.79a1.197 1.197 0 0 1 0-1.693l1.692-1.692a1.197 1.197 0 0 1 1.692 0L38.44 36.253a1.197 1.197 0 0 1 0 1.693zM130.09 125.802a1.195 1.195 0 0 1-1.692 0l-19.849-19.848a1.2 1.2 0 0 1 0-1.693l1.693-1.692a1.197 1.197 0 0 1 1.692 0l19.849 19.848a1.2 1.2 0 0 1 0 1.693z" clip-rule="evenodd"/><circle cx="72.402" cy="6.582" r="6.582" fill="#555"/><circle cx="139.418" cy="71.203" r="6.582" fill="#555"/><circle cx="72.402" cy="140.613" r="6.582" fill="#555"/><circle cx="6.582" cy="71.203" r="6.582" fill="#555"/></svg>