<svg xmlns="http://www.w3.org/2000/svg" width="703" height="250" fill="none" viewBox="0 0 703 250"><g filter="url(#a)"><rect width="703" height="250" fill="url(#b)" fill-opacity=".4" rx="24"/><rect width="702" height="249" x=".5" y=".5" stroke="url(#c)" rx="23.5"/><rect width="79" height="79" x="84" y="55.5" fill="#1d1d1d" rx="7.5"/><rect width="79" height="79" x="84" y="55.5" stroke="#3d3d3d" rx="7.5"/><rect width="32" height="12" x="97.5" y="69" fill="#525252" rx="2"/><rect width="11" height="11" x="138" y="69.5" fill="#193ae6" fill-opacity=".25" stroke="#193ae6" rx="1.5"/><rect width="11" height="11" x="98" y="89.5" fill="#193ae6" fill-opacity=".25" stroke="#193ae6" rx="1.5"/><rect width="31" height="11" x="118" y="89.5" fill="#193ae6" fill-opacity=".25" stroke="#193ae6" rx="1.5"/><rect width="11" height="11" x="98" y="109.5" fill="#193ae6" fill-opacity=".25" stroke="#193ae6" rx="1.5"/><rect width="12" height="12" x="117.5" y="109" fill="#525252" rx="2"/><rect width="12" height="12" x="137.5" y="109" fill="#525252" rx="2"/><rect width="78" height="29" x="84.5" y="196.5" fill="#1f1f1f" rx="14.5"/><rect width="78" height="29" x="84.5" y="196.5" stroke="#3d3d3d" rx="14.5"/><path fill="#fff" d="M100.376 216.168q-1.191 0-2.142-.504-.939-.504-1.344-1.288l1.05-.784q.882 1.358 2.464 1.358.797 0 1.316-.392.518-.406.518-1.092 0-1.147-1.428-1.68l-1.316-.504q-1.176-.434-1.722-1.078-.532-.658-.532-1.666 0-1.204.868-1.918.882-.728 2.24-.728.91 0 1.666.378.755.364 1.232.98l-.952.84q-.826-.98-1.974-.98-.756 0-1.274.392-.519.378-.518.98 0 .602.35.952t1.148.644l1.204.462q1.147.434 1.722 1.12.588.686.588 1.75 0 1.246-.896 2.002-.882.756-2.268.756m7.533-.098q-.966 0-1.554-.546t-.588-1.596v-3.822h-1.484V209h1.484v-1.946h1.204V209h2.016v1.106h-2.016v3.668q0 .659.28.924.28.266.882.266.532 0 .854-.14v1.078a3.4 3.4 0 0 1-1.078.168m2.756-.07v-7h1.204v1.358q.196-.644.756-1.036a2.1 2.1 0 0 1 1.204-.392q.307 0 .546.056v1.246q-.252-.112-.658-.112-.728 0-1.288.63t-.56 1.778V216zm8.101.14q-1.61 0-2.618-1.036t-1.008-2.604q0-1.554 1.022-2.59 1.022-1.05 2.618-1.05 1.413 0 2.366.952.966.938.966 2.562 0 .21-.014.364h-5.74q.028.98.7 1.638.686.658 1.722.658 1.47 0 2.184-1.218l.952.658q-1.023 1.666-3.15 1.666m-2.324-4.382h4.438q-.14-.84-.742-1.33a2.08 2.08 0 0 0-1.4-.504q-.827 0-1.484.504-.645.49-.812 1.33m10.403 4.382a3.22 3.22 0 0 1-2.45-1.064q-.98-1.064-.98-2.576t.98-2.576a3.22 3.22 0 0 1 2.45-1.064 3 3 0 0 1 1.428.35q.672.336 1.036.868V209h1.204v7h-1.204v-1.078q-.364.532-1.036.882a3.1 3.1 0 0 1-1.428.336m.182-1.106q1.035 0 1.708-.728.672-.728.672-1.806t-.672-1.806q-.673-.728-1.708-.728-1.05 0-1.722.728t-.672 1.806.672 1.806 1.722.728m14.908.966v-4.116q0-.869-.364-1.386-.35-.532-1.022-.532-.84 0-1.372.658-.517.658-.546 1.792V216h-1.204v-4.116q0-.882-.364-1.4-.35-.518-1.008-.518-.868 0-1.4.7-.532.686-.532 1.862V216h-1.204v-7h1.204v1.078q.672-1.218 2.114-1.218 1.596 0 2.156 1.498.28-.685.896-1.092a2.5 2.5 0 0 1 1.4-.406q1.134 0 1.792.77t.658 2.072V216zm5.625.14q-.966 0-1.694-.406a2.4 2.4 0 0 1-1.05-1.218l.98-.546q.195.518.686.812.489.294 1.092.294.517 0 .868-.252a.8.8 0 0 0 .35-.686.82.82 0 0 0-.28-.63q-.267-.252-.938-.462l-.7-.224q-1.75-.504-1.75-2.044 0-.869.686-1.386.699-.532 1.722-.532 1.596 0 2.31 1.218l-.896.616q-.574-.798-1.456-.798-.477 0-.826.238a.69.69 0 0 0-.336.602q0 .35.21.602.223.238.784.406l.77.238q1.904.588 1.904 2.058 0 .98-.686 1.54-.673.56-1.75.56"/><rect width="32" height="12" x="325" y="59" fill="#525252" rx="2"/><rect width="11" height="11" x="365.5" y="59.5" fill="#193ae6" fill-opacity=".25" stroke="#193ae6" rx="1.5"/><rect width="11" height="11" x="385.5" y="59.5" fill="#193ae6" fill-opacity=".25" stroke="#193ae6" rx="1.5"/><rect width="12" height="12" x="325" y="79" fill="#525252" rx="2"/><rect width="31" height="11" x="345.5" y="79.5" fill="#193ae6" fill-opacity=".25" stroke="#193ae6" rx="1.5"/><rect width="12" height="12" x="385" y="79" fill="#525252" rx="2"/><rect width="11" height="11" x="325.5" y="99.5" fill="#193ae6" fill-opacity=".25" stroke="#193ae6" rx="1.5"/><rect width="12" height="12" x="345" y="99" fill="#525252" rx="2"/><rect width="11" height="11" x="365.5" y="99.5" fill="#193ae6" fill-opacity=".25" stroke="#193ae6" rx="1.5"/><rect width="12" height="12" x="385" y="99" fill="#525252" rx="2"/><rect width="31" height="11" x="325.5" y="119.5" fill="#193ae6" fill-opacity=".25" stroke="#193ae6" rx="1.5"/><rect width="12" height="12" x="365" y="119" fill="#525252" rx="2"/><rect width="11" height="11" x="385.5" y="119.5" fill="#193ae6" fill-opacity=".25" stroke="#193ae6" rx="1.5"/><rect width="107" height="29" x="307.5" y="196.5" fill="#1f1f1f" rx="14.5"/><rect width="107" height="29" x="307.5" y="196.5" stroke="#3d3d3d" rx="14.5"/><path fill="#fff" d="M320.32 216v-9.94h2.856q2.281 0 3.78 1.414 1.512 1.414 1.512 3.556t-1.512 3.556q-1.499 1.414-3.78 1.414zm1.302-1.218h1.554q1.778 0 2.87-1.05 1.106-1.064 1.106-2.702t-1.106-2.688q-1.092-1.064-2.87-1.064h-1.554zm11.63 1.358q-1.456 0-2.45-1.064-.98-1.064-.98-2.576t.98-2.576q.994-1.064 2.45-1.064a3 3 0 0 1 1.428.35q.672.336 1.036.868V209h1.204v7h-1.204v-1.078q-.364.532-1.036.882a3.1 3.1 0 0 1-1.428.336m.182-1.106q1.036 0 1.708-.728t.672-1.806-.672-1.806-1.708-.728q-1.05 0-1.722.728t-.672 1.806.672 1.806 1.722.728m8.608 1.036q-.966 0-1.554-.546t-.588-1.596v-3.822h-1.484V209h1.484v-1.946h1.204V209h2.016v1.106h-2.016v3.668q0 .659.28.924.28.266.882.266.533 0 .854-.14v1.078a3.4 3.4 0 0 1-1.078.168m5.545.07a3.22 3.22 0 0 1-2.45-1.064q-.98-1.064-.98-2.576t.98-2.576a3.22 3.22 0 0 1 2.45-1.064 3 3 0 0 1 1.428.35q.672.336 1.036.868V209h1.204v7h-1.204v-1.078q-.364.532-1.036.882a3.1 3.1 0 0 1-1.428.336m.182-1.106q1.035 0 1.708-.728.672-.728.672-1.806t-.672-1.806-1.708-.728q-1.05 0-1.722.728t-.672 1.806.672 1.806 1.722.728m12.531 1.106q-1.582 0-2.632-1.05-1.036-1.05-1.036-2.59t1.036-2.59q1.05-1.05 2.632-1.05 1.064 0 1.904.504a3.54 3.54 0 0 1 1.33 1.372l-1.05.588a2.4 2.4 0 0 0-.882-.98q-.56-.364-1.302-.364-1.079 0-1.764.728-.686.728-.686 1.792t.686 1.792 1.764.728q.742 0 1.302-.364.575-.364.882-.98l1.05.588a3.54 3.54 0 0 1-1.33 1.372q-.84.504-1.904.504m6.138-.14h-1.204v-10.5h1.204v4.578q.714-1.218 2.226-1.218 1.19 0 1.918.77t.728 2.058V216h-1.19v-4.13q0-.882-.448-1.386-.448-.518-1.204-.518-.868 0-1.456.686-.574.686-.574 1.876zm9.658.14q-1.148 0-1.862-.77-.714-.784-.714-2.072V209h1.204v4.116q0 .882.42 1.4.434.518 1.162.518.84 0 1.386-.686.56-.7.56-1.876V209h1.204v7h-1.204v-1.078q-.686 1.218-2.156 1.218m5.77-.14v-7h1.204v1.078q.714-1.218 2.226-1.218 1.19 0 1.918.77t.728 2.058V216h-1.19v-4.13q0-.882-.448-1.386-.448-.518-1.204-.518-.868 0-1.456.686-.574.686-.574 1.876V216zm13.382 0-3.794-3.5v3.5h-1.204v-10.5h1.204v6.23l3.052-2.73h1.596l-3.444 3.094 4.214 3.906zm4.693.14q-.966 0-1.694-.406a2.4 2.4 0 0 1-1.05-1.218l.98-.546q.196.518.686.812t1.092.294q.518 0 .868-.252a.8.8 0 0 0 .35-.686.81.81 0 0 0-.28-.63q-.266-.252-.938-.462l-.7-.224q-1.75-.504-1.75-2.044 0-.869.686-1.386.7-.532 1.722-.532 1.596 0 2.31 1.218l-.896.616q-.574-.798-1.456-.798a1.43 1.43 0 0 0-.826.238.69.69 0 0 0-.336.602q0 .35.21.602.224.238.784.406l.77.238q1.904.588 1.904 2.058 0 .98-.686 1.54-.672.56-1.75.56"/><rect width="107" height="29" x="545.5" y="196.5" fill="#1f1f1f" rx="14.5"/><rect width="107" height="29" x="545.5" y="196.5" stroke="#3d3d3d" rx="14.5"/><path fill="#fff" d="M564.597 216v-9.94h2.856q2.281 0 3.78 1.414 1.512 1.414 1.512 3.556t-1.512 3.556q-1.499 1.414-3.78 1.414zm1.302-1.218h1.554q1.778 0 2.87-1.05 1.106-1.064 1.106-2.702t-1.106-2.688q-1.092-1.064-2.87-1.064h-1.554zm11.63 1.358q-1.456 0-2.45-1.064-.98-1.064-.98-2.576t.98-2.576q.994-1.064 2.45-1.064a3 3 0 0 1 1.428.35q.672.336 1.036.868V209h1.204v7h-1.204v-1.078q-.364.532-1.036.882a3.1 3.1 0 0 1-1.428.336m.182-1.106q1.036 0 1.708-.728t.672-1.806-.672-1.806-1.708-.728q-1.05 0-1.722.728t-.672 1.806.672 1.806 1.722.728m8.608 1.036q-.966 0-1.554-.546t-.588-1.596v-3.822h-1.484V209h1.484v-1.946h1.204V209h2.016v1.106h-2.016v3.668q0 .659.28.924.28.266.882.266.533 0 .854-.14v1.078a3.4 3.4 0 0 1-1.078.168m5.545.07a3.22 3.22 0 0 1-2.45-1.064q-.98-1.064-.98-2.576t.98-2.576a3.22 3.22 0 0 1 2.45-1.064 3 3 0 0 1 1.428.35q.672.336 1.036.868V209h1.204v7h-1.204v-1.078q-.364.532-1.036.882a3.1 3.1 0 0 1-1.428.336m.182-1.106q1.036 0 1.708-.728t.672-1.806-.672-1.806-1.708-.728q-1.05 0-1.722.728t-.672 1.806.672 1.806 1.722.728m9.409.966v-10.5h1.204V216zm6.51.14q-1.455 0-2.45-1.064-.98-1.064-.98-2.576t.98-2.576q.995-1.064 2.45-1.064.771 0 1.428.35.673.336 1.036.868V209h1.204v7h-1.204v-1.078q-.363.532-1.036.882a3.1 3.1 0 0 1-1.428.336m.182-1.106q1.036 0 1.708-.728t.672-1.806-.672-1.806-1.708-.728q-1.05 0-1.722.728t-.672 1.806.672 1.806 1.722.728m10.891.966-3.794-3.5v3.5h-1.204v-10.5h1.204v6.23l3.052-2.73h1.596l-3.444 3.094 4.214 3.906zm5.317.14q-1.61 0-2.618-1.036t-1.008-2.604q0-1.554 1.022-2.59 1.023-1.05 2.618-1.05 1.415 0 2.366.952.966.938.966 2.562 0 .21-.014.364h-5.74q.028.98.7 1.638.687.658 1.722.658 1.47 0 2.184-1.218l.952.658q-1.022 1.666-3.15 1.666m-2.324-4.382h4.438q-.14-.84-.742-1.33a2.08 2.08 0 0 0-1.4-.504 2.38 2.38 0 0 0-1.484.504q-.644.49-.812 1.33m9.633 4.382q-.966 0-1.694-.406a2.4 2.4 0 0 1-1.05-1.218l.98-.546q.196.518.686.812t1.092.294q.518 0 .868-.252a.8.8 0 0 0 .35-.686.81.81 0 0 0-.28-.63q-.266-.252-.938-.462l-.7-.224q-1.75-.504-1.75-2.044 0-.869.686-1.386.7-.532 1.722-.532 1.596 0 2.31 1.218l-.896.616q-.574-.798-1.456-.798a1.43 1.43 0 0 0-.826.238.69.69 0 0 0-.336.602q0 .35.21.602.224.238.784.406l.77.238q1.904.588 1.904 2.058 0 .98-.686 1.54-.672.56-1.75.56"/><path fill="url(#d)" fill-rule="evenodd" d="M254.754 98.457v6.848l15.984-10.153L254.754 85v6.523h-35.379v6.934z" clip-rule="evenodd"/><path fill="url(#e)" fill-rule="evenodd" d="M486.629 98.457v6.848l15.984-10.153L486.629 85v6.523H451.25v6.934z" clip-rule="evenodd"/><rect width="79" height="79" x="559.5" y="92.5" fill="#1f1f1f" rx="39.5"/><rect width="79" height="79" x="559.5" y="92.5" stroke="#3d3d3d" rx="39.5"/><g filter="url(#f)"><rect width="48" height="48" x="575" y="108" fill="#292929" rx="24" shape-rendering="crispEdges"/><g clip-path="url(#g)"><mask id="h" width="103" height="24" x="508" y="120" maskUnits="userSpaceOnUse" style="mask-type:luminance"><path fill="#fff" d="M611 120H508v24h103z"/></mask><g mask="url(#h)"><path fill="#287abe" d="M609.097 125.643c.905 1.029 1.306 2.309 1.594 3.6 1.477 6.646-2.451 13.036-8.995 14.467-7.152 1.563-13.227-3.517-14.14-9.881a12.1 12.1 0 0 1 1.317-7.616c.116-.217.191-.477.46-.574l3.377.056-1.151 2.478v.254c.831 2.455 2.382 4.473 3.853 6.537.159.877.041 1.8.425 2.638q1.61 1.849 3.217 3.7c.079.091.174.149.272.014.49-.305.634-.864.904-1.32.616-1.03 1.284-2.033 1.77-3.139l.15-.241c.602-.238.981-.786 1.514-1.12.178-.1.323-.25.418-.433s.134-.39.114-.596c-.031-1.034-.011-2.077-.013-3.107q.363-.364.681-.768c.519-.741 1.336-1.247 1.641-2.152a.27.27 0 0 0 .272-.139c.215-.332-.016-.61-.11-.902-.18-.563-.524-1.069-.56-1.681z"/><path fill="#b8e1f2" d="m592.709 125.696-3.377-.057c.445-1.178 1.326-2.021 2.235-2.797 1.565-1.336 3.361-2.258 5.388-2.63 3.526-.639 6.734.138 9.572 2.373 1.058.831 2.017 1.772 2.57 3.054l-2.995.067-2.45-.031v-.84l1.756-.01.057-.032-.056-.094a2.925 2.925 0 0 0-2.252-.857c-2.414.058-4.831.024-7.246.018-.847 0-1.552.368-2.231.824-.626.028-.637.572-.799.987z"/><path fill="#b6e0f2" d="M591.559 128.424v-.254c1.411-.427 2.707-1.136 4.036-1.759.421-.198 1-.181 1.225-.73.809.035 1.634-.138 2.427.108l.02 5.83h-.125c-1.551-.675-3.091-1.375-4.655-2.013-.971-.392-1.86-1.018-2.928-1.182"/><path fill="#90d4f0" d="M591.559 128.426c1.067.162 1.956.786 2.932 1.185 1.564.638 3.104 1.339 4.654 2.013-.124.592-.699.733-1.062 1.08-.826.795-1.814 1.4-2.602 2.243a.2.2 0 0 1-.068.017c-1.471-2.064-3.021-4.08-3.854-6.538"/><path fill="#4d8ac8" d="M604.186 131.355c0 1.036-.019 2.077.012 3.108a1.06 1.06 0 0 1-.532 1.028c-.532.334-.912.882-1.514 1.121-.642-.831-1.042-1.823-1.618-2.695-.392-.593-.555-1.357-1.225-1.745q0-.196.006-.393l.26-.138c.118.146.282.127.434.113q2.085-.194 4.177-.399"/><path fill="#b6e0f2" d="M595.834 137.605c-.384-.839-.273-1.761-.424-2.639a.2.2 0 0 0 .068-.017c1.226.053 2.451.085 3.668.277q0 1.454-.007 2.908a5.4 5.4 0 0 1-.732-.08c-.861-.136-1.691-.446-2.573-.449"/><path fill="#58afdd" d="M599.141 138.132q0-1.455.006-2.908c.282-1.005.044-2.038.154-3.046.672.387.836 1.153 1.225 1.744.578.874.976 1.86 1.619 2.695l-.15.241-2.738 1.281a1 1 0 0 1-.116-.007"/><path fill="#4d8ac8" d="m603.648 125.68 2.451.03c.035.612.38 1.119.559 1.681.094.294.326.571.111.903a.3.3 0 0 0-.156.03.3.3 0 0 0-.117.108c-.51.097-.953.373-1.414.583-.462.211-.871.562-1.417.547q0-1.927-.007-3.853z"/><path fill="#266fa8" d="M603.662 129.563c.544.016.953-.337 1.417-.546s.904-.487 1.414-.583c-.306.906-1.121 1.411-1.64 2.151q-.319.405-.681.769l-4.179.4c-.153.014-.317.033-.434-.114.962-.452 1.931-.89 2.883-1.365.422-.208.911-.306 1.22-.712"/><path fill="#90d4f0" d="M599.14 138.133q.06.006.121 0l.064 3.184c-.098.139-.192.077-.272-.013a2237 2237 0 0 1-3.217-3.695c.881 0 1.711.313 2.572.449q.364.063.732.075M596.824 125.685c-.23.554-.81.532-1.225.73-1.329.623-2.625 1.332-4.037 1.758l1.154-2.477.168-.022z"/><path fill="#266fa8" d="m599.326 141.313-.064-3.185 2.737-1.28c-.486 1.107-1.154 2.108-1.769 3.139-.264.461-.414 1.02-.904 1.326M606.5 128.436a.291.291 0 0 1 .273-.138.27.27 0 0 1-.273.138"/><path fill="#f4fafd" d="M593.676 124.687c.68-.455 1.384-.831 2.231-.824 2.416 0 4.833.04 7.246-.018a2.94 2.94 0 0 1 2.255.859v.127l-1.77.01h-9.107c-.294 0-.591.018-.855-.154"/><path fill="#e9f6fd" d="M593.679 124.688c.264.171.561.152.855.152h9.107v.84l.012.031-4.399.084c-.801-.245-1.619-.073-2.427-.108l-3.948-.009c.165-.419.174-.963.8-.99M605.41 124.827v-.128l.056.094z"/><path fill="#68c1ea" d="m599.254 125.793 4.407-.082q0 1.927.006 3.853c-.309.406-.796.504-1.214.714-.953.474-1.921.912-2.883 1.365l-.26.138-.037-.156z"/></g></g></g><rect width="79" height="79" x="559.5" y="18.5" fill="#1f1f1f" rx="39.5"/><rect width="79" height="79" x="559.5" y="18.5" stroke="#3d3d3d" rx="39.5"/><g filter="url(#i)"><rect width="48" height="48" x="575" y="34" fill="#292929" rx="24" shape-rendering="crispEdges"/><path fill="#e25444" fill-rule="evenodd" d="m607.045 50.64-4.072 7.407 4.072 7.406 1.668-.89V51.53z" clip-rule="evenodd"/><path fill="#7b1d13" fill-rule="evenodd" d="m607.045 50.64-8.145.891-4.146 6.516 4.146 6.516 8.145.89z" clip-rule="evenodd"/><path fill="#58150d" fill-rule="evenodd" d="m590.61 50.64-1.325.563v13.688l1.325.562 8.292-7.406z" clip-rule="evenodd"/><path fill="#e25444" fill-rule="evenodd" d="m590.594 50.625 8.321 2.208v10.625l-8.321 2z" clip-rule="evenodd"/><path fill="#58150d" fill-rule="evenodd" d="m598.916 54-3.533-.542 3.533-3.833 3.524 3.833z" clip-rule="evenodd"/><path fill="#58150d" fill-rule="evenodd" d="m602.44 53.458-3.528.55-3.529-.55v-3.833M598.916 62.043l-3.533.625 3.533 3.292 3.524-3.292z" clip-rule="evenodd"/><path fill="#7b1d13" fill-rule="evenodd" d="m598.904 46.75-3.533 1.781v4.922l3.544-.953zM598.912 55.207l-3.529.367v4.914l3.529.386zM598.912 63.5l-3.529-.846v4.831l3.529 1.765z" clip-rule="evenodd"/><path fill="#e25444" fill-rule="evenodd" d="m602.443 62.654-3.529.846v5.75l3.529-1.765zM598.914 55.207l3.529.367v4.914l-3.529.386zM598.902 46.75l3.533 1.781v4.922l-3.533-.937z" clip-rule="evenodd"/></g></g><defs><linearGradient id="b" x1=".835" x2="624.523" y1="0" y2="380.129" gradientUnits="userSpaceOnUse"><stop stop-color="#3d3d3d" stop-opacity=".4"/><stop offset="1" stop-color="#292929" stop-opacity=".1"/></linearGradient><linearGradient id="c" x1="0" x2="666.649" y1="0" y2="324.646" gradientUnits="userSpaceOnUse"><stop stop-color="#292929" stop-opacity=".4"/><stop offset="1" stop-color="#3d3d3d" stop-opacity=".15"/></linearGradient><linearGradient id="d" x1="270.965" x2="219.375" y1="94.992" y2="94.992" gradientUnits="userSpaceOnUse"><stop stop-color="#a3a3a3"/><stop offset="1" stop-color="#141414"/></linearGradient><linearGradient id="e" x1="502.84" x2="451.25" y1="94.992" y2="94.992" gradientUnits="userSpaceOnUse"><stop stop-color="#a3a3a3"/><stop offset="1" stop-color="#141414"/></linearGradient><filter id="a" width="791" height="338" x="-44" y="-44" color-interpolation-filters="sRGB" filterUnits="userSpaceOnUse"><feFlood flood-opacity="0" result="BackgroundImageFix"/><feGaussianBlur in="BackgroundImageFix" stdDeviation="22"/><feComposite in2="SourceAlpha" operator="in" result="effect1_backgroundBlur_1060_2853"/><feBlend in="SourceGraphic" in2="effect1_backgroundBlur_1060_2853" result="shape"/></filter><filter id="f" width="96" height="96" x="551" y="84" color-interpolation-filters="sRGB" filterUnits="userSpaceOnUse"><feFlood flood-opacity="0" result="BackgroundImageFix"/><feColorMatrix in="SourceAlpha" result="hardAlpha" values="0 0 0 0 0 0 0 0 0 0 0 0 0 0 0 0 0 0 127 0"/><feOffset/><feGaussianBlur stdDeviation="12"/><feComposite in2="hardAlpha" operator="out"/><feColorMatrix values="0 0 0 0 0 0 0 0 0 0 0 0 0 0 0 0 0 0 0.5 0"/><feBlend in2="BackgroundImageFix" result="effect1_dropShadow_1060_2853"/><feBlend in="SourceGraphic" in2="effect1_dropShadow_1060_2853" result="shape"/></filter><filter id="i" width="96" height="96" x="551" y="10" color-interpolation-filters="sRGB" filterUnits="userSpaceOnUse"><feFlood flood-opacity="0" result="BackgroundImageFix"/><feColorMatrix in="SourceAlpha" result="hardAlpha" values="0 0 0 0 0 0 0 0 0 0 0 0 0 0 0 0 0 0 127 0"/><feOffset/><feGaussianBlur stdDeviation="12"/><feComposite in2="hardAlpha" operator="out"/><feColorMatrix values="0 0 0 0 0 0 0 0 0 0 0 0 0 0 0 0 0 0 0.5 0"/><feBlend in2="BackgroundImageFix" result="effect1_dropShadow_1060_2853"/><feBlend in="SourceGraphic" in2="effect1_dropShadow_1060_2853" result="shape"/></filter><clipPath id="g"><path fill="#fff" d="M587 120h24v24h-24z"/></clipPath></defs></svg>