<svg xmlns="http://www.w3.org/2000/svg" width="516" height="605" fill="none" viewBox="0 0 516 605"><g clip-path="url(#a)"><rect width="1381" height="1000.69" x="12" y="13.5" fill="#fff" rx="38.031"/><path fill="#fff" d="M257.533 2.095V1013.71H12.48V2.095z"/><path stroke="#d9d9d9" stroke-width=".959" d="M257.533 2.095V1013.71H12.48V2.095z"/><rect width="21.818" height="21.818" x="37.443" y="55.245" fill="#193ae6" rx="5.155"/><rect width="21.818" height="21.818" x="37.443" y="55.245" stroke="url(#b)" stroke-width="1.198" rx="5.155"/><path fill="#fff" d="M54.11 61.358a.96.96 0 0 0-.96-.959h-9.59c-.53 0-.958.43-.958.96v4.185a.97.97 0 0 0 1.06.963c4.641-.41 10.194-.4 7.147 1.238-2.224 1.196-.699 1.637.636 2.024.868.251 1.657.48 1.28.877-.432.455-.142.756.308.95.539.232 1.077-.25 1.077-.837z"/><path fill="#193ae6" d="M74.315 72.275q-1.674 0-3.055-.777a5.9 5.9 0 0 1-2.192-2.192q-.794-1.415-.794-3.176 0-1.76.794-3.16a5.73 5.73 0 0 1 2.192-2.192q1.381-.794 3.055-.794 1.693 0 3.073.794a5.64 5.64 0 0 1 2.175 2.175q.794 1.399.794 3.177t-.794 3.176a5.77 5.77 0 0 1-2.175 2.192q-1.38.777-3.073.777m0-1.364q1.26 0 2.262-.587a4.06 4.06 0 0 0 1.588-1.674q.587-1.088.587-2.52 0-1.45-.587-2.52a4.1 4.1 0 0 0-1.57-1.675q-1.002-.587-2.28-.587-1.276 0-2.278.587t-1.588 1.674q-.57 1.071-.57 2.52 0 1.434.57 2.521.585 1.088 1.588 1.674 1.018.588 2.278.587m10.395-.673h3.97v1.916h-6.387V60.105h2.417zm4.885-2.9q0-1.45.57-2.572.586-1.123 1.57-1.726a4.23 4.23 0 0 1 2.227-.605q1.07 0 1.864.432.812.431 1.295 1.088V62.59h2.434v9.563h-2.434v-1.398q-.465.673-1.294 1.122-.812.432-1.882.432a4.1 4.1 0 0 1-2.21-.622q-.985-.621-1.57-1.743-.57-1.14-.57-2.607m7.526.035q0-.88-.345-1.502a2.36 2.36 0 0 0-.932-.967 2.44 2.44 0 0 0-1.26-.345q-.675 0-1.243.328-.57.327-.932.966-.346.623-.346 1.485t.346 1.52q.362.638.932.983.586.345 1.243.345.672 0 1.26-.328a2.5 2.5 0 0 0 .932-.966q.345-.639.345-1.52m10.457 4.781-3.246-4.074v4.074h-2.416V59.38h2.416v7.268l3.211-4.057h3.142l-4.212 4.799 4.246 4.764zm13.309-4.989q0 .518-.069.933h-6.992q.087 1.035.725 1.622.64.587 1.571.587 1.347 0 1.916-1.156h2.607a4.4 4.4 0 0 1-1.588 2.278q-1.175.88-2.883.88-1.381 0-2.486-.603a4.45 4.45 0 0 1-1.709-1.744q-.603-1.122-.604-2.59 0-1.484.604-2.606a4.2 4.2 0 0 1 1.692-1.726q1.087-.605 2.503-.605 1.364 0 2.434.587 1.087.588 1.675 1.675.603 1.07.604 2.468m-2.503-.69q-.018-.931-.673-1.485-.657-.57-1.606-.57-.898 0-1.519.553-.604.536-.742 1.502z"/><path fill="#e9ebfc" d="M36.844 119.244a9.51 9.51 0 0 1 9.508-9.508h180.462a9.51 9.51 0 0 1 9.508 9.508v28.523a9.51 9.51 0 0 1-9.508 9.508H46.352a9.51 9.51 0 0 1-9.508-9.508z"/><g clip-path="url(#c)"><path fill="#193ae6" d="M67.052 133.026h-3.87a3.357 3.357 0 0 0-6.644 0h-3.871a.48.48 0 0 0 0 .959h3.87a3.357 3.357 0 0 0 6.644 0h3.871a.479.479 0 1 0 0-.959m-7.192 2.877a2.39 2.39 0 0 1-2.215-1.48 2.397 2.397 0 1 1 2.215 1.48"/></g><path fill="#203fdd" d="M89.065 135.418q0 .63-.108 1.222-.108.59-.443 1.06-.322.47-.953.752-.618.282-1.652.282-.765 0-1.302-.228a2.5 2.5 0 0 1-.886-.645 2.6 2.6 0 0 1-.51-.98 4.4 4.4 0 0 1-.162-1.222v-.51h1.679v.497q0 .819.268 1.276.282.443 1.048.443.402 0 .657-.121a.95.95 0 0 0 .417-.349q.16-.242.215-.591.053-.35.053-.792v-6.593h1.679zm5.01 3.276q-.834 0-1.491-.269a3.3 3.3 0 0 1-1.101-.765 3.4 3.4 0 0 1-.685-1.155 4.6 4.6 0 0 1-.228-1.477q0-.792.228-1.463.242-.671.685-1.155a3.2 3.2 0 0 1 1.1-.752 3.75 3.75 0 0 1 1.491-.282q.832 0 1.477.282.659.269 1.1.752.458.484.686 1.155.24.67.241 1.463 0 .806-.241 1.477-.229.672-.685 1.155a3.2 3.2 0 0 1-1.101.765q-.645.269-1.477.269m0-1.209q.51 0 .885-.214.376-.216.618-.564a2.4 2.4 0 0 0 .349-.779 3.358 3.358 0 0 0 0-1.786 2.2 2.2 0 0 0-.35-.778 1.9 1.9 0 0 0-.617-.564 1.75 1.75 0 0 0-.886-.215q-.51 0-.886.215-.376.214-.618.564a2.4 2.4 0 0 0-.362.778 3.76 3.76 0 0 0 0 1.786q.12.43.362.779.242.348.618.564.376.214.886.214m4.816-8.566h1.531v3.545h.027q.16-.255.389-.457.228-.201.497-.335.282-.148.577-.215.309-.081.604-.081.82 0 1.423.296.618.282 1.021.792.402.497.604 1.168.201.672.201 1.437 0 .698-.188 1.356a3.4 3.4 0 0 1-.55 1.168q-.363.497-.926.805-.564.296-1.33.296-.349 0-.711-.054a2.452 2.452 0 0 1-1.262-.524 1.7 1.7 0 0 1-.43-.563h-.027v.953h-1.45zm5.344 6.123q0-.47-.121-.913a2.4 2.4 0 0 0-.363-.779 1.8 1.8 0 0 0-.604-.55 1.6 1.6 0 0 0-.832-.215q-.967 0-1.464.671-.483.672-.483 1.786 0 .524.121.98.134.442.389.765.255.322.604.51.363.188.833.188.523 0 .886-.214.363-.215.591-.551.242-.349.335-.779a3.8 3.8 0 0 0 .108-.899m3.978 1.235q.067.672.511.94.443.268 1.06.268.216 0 .484-.026.282-.04.523-.135a.95.95 0 0 0 .39-.268.67.67 0 0 0 .147-.484.68.68 0 0 0-.214-.483 1.4 1.4 0 0 0-.524-.295 4 4 0 0 0-.712-.202 35 35 0 0 1-.819-.174 8 8 0 0 1-.832-.228 2.8 2.8 0 0 1-.712-.363 1.7 1.7 0 0 1-.497-.577q-.187-.363-.187-.886 0-.564.268-.94.282-.39.698-.618.43-.242.94-.336.523-.094.994-.094.537 0 1.02.121.497.108.886.363.403.255.658.671.269.403.336.98h-1.598q-.108-.55-.51-.738a2.04 2.04 0 0 0-.9-.188q-.16 0-.389.027a1.7 1.7 0 0 0-.416.107.8.8 0 0 0-.323.215.5.5 0 0 0-.134.362q0 .282.188.457.201.175.51.295.323.108.725.188.403.08.833.175.415.094.819.228.402.134.711.363.322.228.511.577.201.35.201.859 0 .618-.282 1.047-.282.43-.738.699a3.3 3.3 0 0 1-.994.389 5.04 5.04 0 0 1-2.309-.027 3 3 0 0 1-.967-.443 2.4 2.4 0 0 1-.645-.752q-.228-.456-.241-1.074z"/><path fill="#000" d="M60.34 186.8v4.316a.48.48 0 0 1-.959 0V186.8a.48.48 0 0 1 .96 0m4.316-3.836h-3.638l2.538-2.538a.48.48 0 1 0-.678-.678l-2.538 2.538v-3.638a.48.48 0 0 0-.959 0v3.638l-2.538-2.538a.48.48 0 1 0-.678.678l2.538 2.538h-3.638a.48.48 0 0 0 0 .959h3.638l-2.538 2.538a.48.48 0 1 0 .678.678l3.018-3.017 3.017 3.017a.47.47 0 0 0 .34.141.47.47 0 0 0 .443-.296.48.48 0 0 0-.105-.523l-2.538-2.538h3.638a.479.479 0 1 0 0-.959"/><path fill="#000" fill-opacity=".88" d="M89.467 183.101q-.107-1.034-.751-1.491-.632-.47-1.625-.47a4 4 0 0 0-.792.081q-.39.08-.698.268a1.5 1.5 0 0 0-.484.511q-.174.308-.174.778 0 .444.255.725.269.269.698.443.443.175.993.296.551.107 1.115.241.577.135 1.128.323.55.174.98.483.443.308.698.779.269.47.269 1.181 0 .765-.35 1.316a2.84 2.84 0 0 1-.872.886q-.537.336-1.209.484a5.664 5.664 0 0 1-2.846-.041 3.9 3.9 0 0 1-1.262-.604 3.1 3.1 0 0 1-.86-1.047q-.308-.645-.308-1.517h1.208q0 .604.228 1.047.242.43.618.712.39.28.9.416.51.134 1.047.134.43 0 .86-.081.442-.08.791-.268.35-.201.564-.537.215-.336.215-.859 0-.497-.269-.806a1.8 1.8 0 0 0-.698-.497 4.7 4.7 0 0 0-.98-.322 118 118 0 0 0-1.128-.242 23 23 0 0 1-1.114-.295 4.6 4.6 0 0 1-.994-.443 2.3 2.3 0 0 1-.698-.712q-.255-.442-.255-1.101 0-.724.296-1.248.295-.537.778-.873a3.4 3.4 0 0 1 1.115-.51q.63-.175 1.289-.175.737 0 1.37.175.63.175 1.1.55.483.377.752.953.281.564.309 1.357zm3.806 3.316q0 .63.161 1.128.174.483.47.819.295.321.685.496a2.095 2.095 0 0 0 2.376-.496 2.35 2.35 0 0 0 .457-.819q.174-.497.174-1.128a3.3 3.3 0 0 0-.174-1.115 2.3 2.3 0 0 0-.457-.832 1.95 1.95 0 0 0-.698-.51 2.095 2.095 0 0 0-1.678 0q-.39.174-.685.51a2.5 2.5 0 0 0-.47.832 3.5 3.5 0 0 0-.161 1.115m-1.209 0q0-.766.215-1.423.215-.672.645-1.155a3 3 0 0 1 1.06-.779q.631-.282 1.45-.282.834 0 1.45.282a3 3 0 0 1 1.061.779q.43.483.645 1.155.215.657.215 1.423 0 .765-.215 1.423a3.3 3.3 0 0 1-.645 1.155q-.43.483-1.06.765-.618.269-1.45.269-.82 0-1.45-.269a3.1 3.1 0 0 1-1.061-.765 3.3 3.3 0 0 1-.645-1.155 4.6 4.6 0 0 1-.215-1.423m13.833 3.464h-1.074v-1.101h-.027q-.363.645-.927.953-.564.296-1.329.296-.684 0-1.141-.175a1.9 1.9 0 0 1-.739-.524 2 2 0 0 1-.402-.792 4.6 4.6 0 0 1-.108-1.034v-4.565h1.141v4.7q0 .644.376 1.02.377.376 1.034.376.523 0 .9-.161.389-.162.644-.457.256-.296.376-.684.135-.404.134-.873v-3.921h1.142zm1.673-6.942h1.075v1.464h.026q.417-.846 1.021-1.249t1.53-.376v1.209q-.684 0-1.168.188a1.83 1.83 0 0 0-.778.55 2.3 2.3 0 0 0-.43.886q-.134.51-.134 1.182v3.088h-1.142zm8.988 2.229q-.134-.658-.563-1.02-.43-.363-1.155-.363-.618 0-1.034.229a1.9 1.9 0 0 0-.671.604q-.242.375-.349.872a4.6 4.6 0 0 0-.108 1.007q0 .484.108.94.12.458.362.819.242.35.631.564.39.215.927.215.846 0 1.315-.443.484-.443.591-1.249h1.168q-.187 1.29-.966 1.987-.766.699-2.095.699-.792 0-1.41-.256a2.8 2.8 0 0 1-1.02-.725 3.3 3.3 0 0 1-.618-1.114 4.9 4.9 0 0 1-.201-1.437q0-.778.201-1.45.202-.684.604-1.181.417-.51 1.034-.792.618-.296 1.437-.296.591 0 1.101.148.523.134.913.43.403.295.658.752.255.442.322 1.06zm7.319.578a2.2 2.2 0 0 0-.188-.766 1.75 1.75 0 0 0-.416-.617 1.8 1.8 0 0 0-.618-.417 1.8 1.8 0 0 0-.778-.161 2 2 0 0 0-.806.161 1.8 1.8 0 0 0-.604.417 2 2 0 0 0-.403.631 2.3 2.3 0 0 0-.174.752zm1.101 1.933q-.228 1.168-1.007 1.759t-1.96.591q-.832 0-1.45-.269a2.86 2.86 0 0 1-1.02-.752 3.3 3.3 0 0 1-.631-1.155 5.7 5.7 0 0 1-.229-1.463q0-.792.242-1.45t.671-1.141q.444-.484 1.034-.752a3.2 3.2 0 0 1 1.316-.269q.927 0 1.531.39.617.376.98.966.375.591.51 1.289.148.699.121 1.33h-5.196q-.013.456.107.872.121.403.389.725.269.31.685.497.417.188.98.188.726 0 1.182-.336.47-.335.617-1.02zm1.989.013q.013.377.174.645.162.255.417.416.269.148.59.215.336.067.685.067.268 0 .564-.04t.537-.148a1.04 1.04 0 0 0 .416-.309.87.87 0 0 0 .161-.537q0-.443-.335-.671a2.8 2.8 0 0 0-.846-.363 11 11 0 0 0-1.088-.255 6.6 6.6 0 0 1-1.101-.322 2.34 2.34 0 0 1-.832-.591q-.336-.375-.336-1.047 0-.524.229-.9.241-.375.604-.604.376-.241.832-.349.47-.12.927-.121.59 0 1.087.108.497.094.873.349.389.242.617.671.229.417.269 1.047h-1.141a1.124 1.124 0 0 0-.551-.913 1.6 1.6 0 0 0-.51-.188 2.3 2.3 0 0 0-.55-.067q-.256 0-.524.041-.255.04-.47.147a.87.87 0 0 0-.349.269.64.64 0 0 0-.134.429q0 .296.201.497.215.189.537.322.323.122.725.215.403.08.806.175.43.094.832.228.417.134.725.363.322.214.51.55.202.336.202.832 0 .631-.269 1.048-.255.416-.684.671a2.7 2.7 0 0 1-.954.349 5 5 0 0 1-1.047.108q-.577 0-1.101-.121a2.8 2.8 0 0 1-.926-.39 2.1 2.1 0 0 1-.645-.725q-.242-.456-.268-1.101z"/><path fill="#000" d="M64.174 238.653a1.92 1.92 0 0 0-1.858 1.438h-5.814a1.917 1.917 0 1 1 0-3.836h5.754a2.4 2.4 0 0 0 2.398-2.397 2.4 2.4 0 0 0-2.398-2.398h-5.754a.479.479 0 1 0 0 .959h5.754a1.44 1.44 0 0 1 1.439 1.439 1.44 1.44 0 0 1-1.439 1.438h-5.754a2.875 2.875 0 0 0-2.877 2.877 2.88 2.88 0 0 0 2.877 2.877h5.814a1.91 1.91 0 0 0 1.47 1.399 1.916 1.916 0 0 0 2.11-2.722 1.91 1.91 0 0 0-1.722-1.074m0 2.877a.95.95 0 0 1-.886-.592.96.96 0 1 1 .886.592"/><path fill="#000" fill-opacity=".88" d="M85.198 240.182h2.121q.215 0 .537-.027a3.6 3.6 0 0 0 .685-.161q.363-.135.712-.376.362-.242.644-.658t.456-1.034q.189-.631.189-1.517 0-.86-.175-1.531a2.8 2.8 0 0 0-.55-1.154 2.3 2.3 0 0 0-.98-.725q-.605-.255-1.491-.255h-2.148zm-1.276-8.513h3.29q2.215 0 3.41 1.128t1.195 3.437q0 1.209-.269 2.149-.268.926-.832 1.57a3.64 3.64 0 0 1-1.437.967q-.872.336-2.067.336h-3.29zm14.086 5.452a2.2 2.2 0 0 0-.188-.766 1.75 1.75 0 0 0-.416-.617 1.8 1.8 0 0 0-.618-.417 1.84 1.84 0 0 0-.779-.161q-.443 0-.805.161a1.8 1.8 0 0 0-.604.417 2 2 0 0 0-.403.631 2.3 2.3 0 0 0-.175.752zm1.1 1.933q-.227 1.168-1.006 1.759-.78.591-1.96.591-.833 0-1.45-.269a2.9 2.9 0 0 1-1.02-.752 3.3 3.3 0 0 1-.632-1.155 5.8 5.8 0 0 1-.228-1.463q0-.792.242-1.45.241-.658.67-1.141.443-.484 1.035-.752a3.2 3.2 0 0 1 1.316-.269q.925 0 1.53.39.618.376.98.966.375.591.51 1.289.149.699.121 1.33H94.02q-.014.456.108.872.12.403.389.725.269.31.685.497.416.188.98.188.725 0 1.181-.336.471-.335.618-1.02zm1.989.013q.014.377.175.645.16.255.416.416.269.148.591.215.336.067.685.067.268 0 .564-.04t.537-.148q.255-.108.416-.309a.87.87 0 0 0 .161-.537q0-.443-.336-.671a2.7 2.7 0 0 0-.846-.363 11 11 0 0 0-1.087-.255 6.6 6.6 0 0 1-1.101-.322 2.3 2.3 0 0 1-.832-.591q-.336-.375-.336-1.047 0-.524.228-.9.242-.375.604-.604a2.7 2.7 0 0 1 .833-.349q.47-.12.926-.121.591 0 1.088.108.497.094.872.349.39.242.618.671.228.417.269 1.047H104.4a1.12 1.12 0 0 0-.55-.913 1.6 1.6 0 0 0-.51-.188 2.3 2.3 0 0 0-.551-.067q-.255 0-.523.041a1.6 1.6 0 0 0-.47.147.86.86 0 0 0-.349.269.65.65 0 0 0-.135.429q0 .296.202.497.215.189.537.322.322.122.725.215.403.08.805.175.43.094.833.228.416.134.725.363.323.214.51.55.201.336.201.832 0 .631-.268 1.048-.255.416-.685.671-.416.255-.953.349a5 5 0 0 1-1.047.108q-.577 0-1.101-.121a2.8 2.8 0 0 1-.927-.39 2.1 2.1 0 0 1-.644-.725q-.241-.456-.269-1.101zm7.6-4.753h1.383v1.007h-1.383v4.31q0 .202.027.322a.35.35 0 0 0 .134.188.6.6 0 0 0 .255.094q.174.014.443.014h.524v1.007h-.873q-.443 0-.765-.054a1.2 1.2 0 0 1-.511-.228.97.97 0 0 1-.281-.457q-.094-.295-.094-.778v-4.418h-1.182v-1.007h1.182v-2.081h1.141zm3.859-1.248h-1.141v-1.397h1.141zm-1.141 1.248h1.141v6.942h-1.141zm2.909 0h1.074v1.101h.027q.711-1.262 2.255-1.262.685 0 1.142.188.456.189.738.524.282.336.39.805.12.457.12 1.021v4.565h-1.141v-4.699q0-.645-.376-1.021-.375-.375-1.034-.376-.523 0-.913.161-.375.162-.631.457-.255.296-.389.698-.121.39-.121.859v3.921h-1.141zm13.61 6.915q-.296.175-.819.175-.444 0-.712-.242-.255-.255-.255-.819-.47.564-1.101.819a3.7 3.7 0 0 1-1.343.242q-.47 0-.899-.108a2.1 2.1 0 0 1-.725-.336 1.7 1.7 0 0 1-.497-.59 2.1 2.1 0 0 1-.174-.9q0-.59.201-.967.201-.375.524-.604a2.4 2.4 0 0 1 .751-.362q.43-.121.873-.202.47-.093.886-.134.43-.054.752-.134.323-.094.51-.255.189-.175.188-.497 0-.376-.147-.604a.9.9 0 0 0-.363-.349 1.4 1.4 0 0 0-.497-.161 3.6 3.6 0 0 0-.537-.041q-.725 0-1.208.282-.483.269-.524 1.034h-1.141q.026-.645.269-1.087.242-.444.644-.712.403-.282.913-.403.524-.12 1.114-.121.471 0 .927.067.47.067.846.282.376.202.604.578t.228.98v3.571q0 .404.04.591.054.188.323.188.147 0 .349-.067zm-1.853-3.558a1.5 1.5 0 0 1-.564.242q-.35.067-.738.121a11 11 0 0 0-.766.107 2.7 2.7 0 0 0-.698.188 1.3 1.3 0 0 0-.51.389q-.188.242-.188.672 0 .282.107.483.121.188.296.309.188.12.429.174.242.054.511.054a2.8 2.8 0 0 0 .966-.148q.403-.16.658-.389.256-.242.376-.51.121-.282.121-.524zm4.499-3.357h1.383v1.007h-1.383v4.31q0 .202.027.322a.37.37 0 0 0 .134.188.6.6 0 0 0 .255.094q.175.014.444.014h.523v1.007h-.873a5 5 0 0 1-.765-.054 1.2 1.2 0 0 1-.51-.228 1 1 0 0 1-.282-.457q-.094-.295-.094-.778v-4.418h-1.182v-1.007h1.182v-2.081h1.141zm3.859-1.248h-1.141v-1.397h1.141zm-1.141 1.248h1.141v6.942h-1.141zm3.742 3.478q0 .63.161 1.128.174.483.47.819.295.321.685.496.402.175.845.175.444 0 .833-.175.402-.175.698-.496.295-.336.457-.819.174-.497.174-1.128t-.174-1.115a2.3 2.3 0 0 0-.457-.832 1.95 1.95 0 0 0-.698-.51 2 2 0 0 0-.833-.175 1.98 1.98 0 0 0-1.53.685 2.5 2.5 0 0 0-.47.832 3.5 3.5 0 0 0-.161 1.115m-1.209 0q0-.766.215-1.423a3.15 3.15 0 0 1 .645-1.155 3 3 0 0 1 1.06-.779q.631-.282 1.45-.282.833 0 1.45.282.632.282 1.061.779.43.483.645 1.155.214.657.214 1.423 0 .765-.214 1.423a3.3 3.3 0 0 1-.645 1.155q-.43.483-1.061.765-.617.269-1.45.269-.819 0-1.45-.269a3.1 3.1 0 0 1-1.06-.765 3.3 3.3 0 0 1-.645-1.155 4.6 4.6 0 0 1-.215-1.423m8.086-3.478h1.074v1.101h.027q.711-1.262 2.256-1.262.684 0 1.141.188.456.189.738.524.282.336.39.805.12.457.121 1.021v4.565h-1.142v-4.699q0-.645-.376-1.021-.375-.375-1.033-.376-.525 0-.913.161-.376.162-.632.457-.254.296-.389.698-.12.39-.121.859v3.921h-1.141zm8.159 4.753q.013.377.174.645.161.255.417.416.268.148.59.215.336.067.685.067.269 0 .564-.04.296-.04.537-.148a1.04 1.04 0 0 0 .416-.309.87.87 0 0 0 .161-.537q0-.443-.335-.671a2.8 2.8 0 0 0-.846-.363 11 11 0 0 0-1.088-.255 6.6 6.6 0 0 1-1.101-.322 2.34 2.34 0 0 1-.832-.591q-.336-.375-.336-1.047 0-.524.228-.9.243-.375.605-.604.376-.241.832-.349.47-.12.926-.121.591 0 1.088.108.496.094.873.349.389.242.617.671.229.417.269 1.047h-1.141a1.124 1.124 0 0 0-.551-.913 1.6 1.6 0 0 0-.51-.188 2.3 2.3 0 0 0-.551-.067q-.255 0-.523.041-.255.04-.47.147a.87.87 0 0 0-.349.269.64.64 0 0 0-.134.429q0 .296.201.497.215.189.537.322.323.122.725.215.403.08.806.175.43.094.832.228.416.134.725.363.323.214.51.55.202.336.202.832 0 .631-.269 1.048-.255.416-.685.671-.416.255-.953.349a5 5 0 0 1-1.047.108q-.577 0-1.101-.121a2.8 2.8 0 0 1-.926-.39 2.1 2.1 0 0 1-.645-.725q-.242-.456-.268-1.101z"/><g clip-path="url(#d)"><path fill="#000" d="M325.844 93.329h-5.806a5.037 5.037 0 0 0-8.278-3.085 5.04 5.04 0 0 0-1.688 3.085h-5.806a.716.716 0 0 0-.719.719.72.72 0 0 0 .719.72h5.806a5.036 5.036 0 0 0 9.966 0h5.806a.72.72 0 1 0 0-1.44m-10.789 4.315a3.6 3.6 0 0 1-3.322-2.22 3.598 3.598 0 0 1 4.698-4.699 3.6 3.6 0 0 1 1.614 1.325 3.59 3.59 0 0 1-.447 4.541 3.6 3.6 0 0 1-2.543 1.053"/></g><path fill="#0a0a0a" d="M353.115 97.372q0 .806-.161 1.772a4.6 4.6 0 0 1-.736 1.819q-.576.828-1.657 1.404-1.082.552-2.924.552-1.036 0-2.002-.299a5 5 0 0 1-1.726-.875 4.6 4.6 0 0 1-1.22-1.565q-.46-.967-.461-2.325v-1.427h3.269v.737q0 .598.092 1.105.092.506.322.874.23.346.622.553.414.207 1.058.207.714 0 1.105-.253.391-.254.553-.645.183-.414.207-.874.046-.484.046-.921V86.117h3.613zm5.724-.76q0 .714.138 1.404.138.668.46 1.22.346.53.898.852t1.381.322q.828 0 1.381-.322.575-.322.898-.852.345-.552.483-1.22.138-.69.138-1.404 0-.713-.138-1.403a3.5 3.5 0 0 0-.483-1.22 2.4 2.4 0 0 0-.898-.852q-.553-.345-1.381-.345-.83 0-1.381.345a2.65 2.65 0 0 0-.898.852q-.322.529-.46 1.22-.138.69-.138 1.403m-3.269 0q0-1.426.438-2.577.437-1.174 1.243-1.98a5.36 5.36 0 0 1 1.933-1.266q1.128-.46 2.532-.46t2.532.46a5.3 5.3 0 0 1 1.956 1.266q.805.806 1.243 1.98.438 1.15.437 2.578 0 1.426-.437 2.577a5.7 5.7 0 0 1-1.243 1.98 5.5 5.5 0 0 1-1.956 1.243q-1.128.437-2.532.437t-2.532-.437a5.5 5.5 0 0 1-1.933-1.243 5.7 5.7 0 0 1-1.243-1.98q-.438-1.15-.438-2.578m23.163 0q0-.76-.161-1.45a3.8 3.8 0 0 0-.507-1.22 2.5 2.5 0 0 0-.874-.828q-.507-.322-1.243-.322-.714 0-1.243.322-.53.3-.875.828-.345.53-.506 1.22t-.161 1.45q0 .737.161 1.428.16.69.506 1.22.345.528.875.851.53.299 1.243.299.736 0 1.243-.299.53-.323.874-.852.345-.53.507-1.22.16-.69.161-1.427m-8.724-10.495h3.269V92.1h.046a3.43 3.43 0 0 1 1.611-1.335 5.45 5.45 0 0 1 2.141-.437 4.5 4.5 0 0 1 1.772.368 4.4 4.4 0 0 1 1.565 1.128q.713.76 1.151 1.956.437 1.174.437 2.808 0 1.635-.437 2.832-.437 1.174-1.151 1.933-.69.759-1.565 1.128a4.5 4.5 0 0 1-1.772.368q-1.313 0-2.348-.414a2.98 2.98 0 0 1-1.565-1.404h-.046v1.519h-3.108zm16.603 12.567q0 .53.207.92.23.369.576.622.345.231.782.345a3.9 3.9 0 0 0 1.657.046 2.8 2.8 0 0 0 .691-.253q.322-.184.529-.46.207-.3.207-.737 0-.736-.989-1.105-.967-.367-2.716-.736-.714-.16-1.404-.368a5.4 5.4 0 0 1-1.197-.576 3 3 0 0 1-.852-.897q-.322-.553-.322-1.335 0-1.152.437-1.888a3.3 3.3 0 0 1 1.197-1.15 4.9 4.9 0 0 1 1.657-.599 9.6 9.6 0 0 1 1.888-.184 9.3 9.3 0 0 1 1.864.184q.921.184 1.634.621.714.438 1.174 1.174.483.714.575 1.819H391.1q-.07-.944-.713-1.266-.645-.346-1.519-.346-.277 0-.599.046a1.9 1.9 0 0 0-.598.139 1.2 1.2 0 0 0-.438.345q-.183.207-.184.575 0 .438.323.714.322.276.828.46.53.161 1.197.3.668.137 1.358.299.714.16 1.381.39.69.23 1.22.622.53.368.851.944.323.552.323 1.381 0 1.174-.484 1.979a3.7 3.7 0 0 1-1.22 1.266 4.9 4.9 0 0 1-1.749.668 9.4 9.4 0 0 1-1.979.207 10 10 0 0 1-2.026-.207 5.5 5.5 0 0 1-1.772-.691 4.16 4.16 0 0 1-1.266-1.266q-.483-.805-.529-2.002z"/><path fill="#424242" d="M306.246 129.262h3.249l-1.598-4.471h-.027zm.953-5.626h1.41l3.746 9.587h-1.41l-1.047-2.887h-4.055l-1.074 2.887h-1.303zm9.717 0h1.142v9.587h-1.142zm4.118 1.397h-1.141v-1.397h1.141zm-1.141 1.248h1.141v6.942h-1.141zm3.607 4.753q.013.377.175.645.16.254.416.416.268.147.591.215.335.067.684.067.269 0 .564-.04.296-.041.537-.148.255-.108.417-.309a.87.87 0 0 0 .161-.537q0-.443-.336-.671a2.7 2.7 0 0 0-.846-.363 11 11 0 0 0-1.087-.255 6.7 6.7 0 0 1-1.101-.322 2.3 2.3 0 0 1-.833-.591q-.336-.376-.335-1.047 0-.524.228-.9.241-.376.604-.604.376-.241.832-.349.47-.121.927-.121.59 0 1.087.108.497.094.873.349.39.241.618.671.228.416.268 1.047h-1.141a1.115 1.115 0 0 0-.551-.913 1.6 1.6 0 0 0-.51-.188 2.3 2.3 0 0 0-.55-.067q-.255 0-.524.04-.255.04-.47.148a.9.9 0 0 0-.349.269.65.65 0 0 0-.134.429q0 .296.201.497.215.188.537.322.323.121.725.215.403.08.806.175.43.093.832.228.417.134.725.362.322.216.511.551.201.336.201.832 0 .631-.269 1.048-.255.416-.684.671a2.7 2.7 0 0 1-.954.349 5.2 5.2 0 0 1-2.148-.013 2.8 2.8 0 0 1-.926-.39 2.1 2.1 0 0 1-.645-.725q-.241-.456-.268-1.101zm7.599-4.753h1.383v1.007h-1.383v4.31q0 .201.027.322a.36.36 0 0 0 .135.188.6.6 0 0 0 .255.094q.174.014.443.014h.523v1.007h-.872q-.444 0-.766-.054a1.2 1.2 0 0 1-.51-.228 1 1 0 0 1-.282-.457q-.094-.295-.094-.779v-4.417h-1.181v-1.007h1.181V124.2h1.141zm7.22 3.478q0 .63.162 1.127.175.484.469.819.296.323.685.497a2.1 2.1 0 0 0 2.377-.497q.296-.335.456-.819.175-.497.175-1.127 0-.632-.175-1.115a2.3 2.3 0 0 0-.456-.832 1.95 1.95 0 0 0-.698-.51 2.098 2.098 0 0 0-1.679 0 2 2 0 0 0-.685.51 2.5 2.5 0 0 0-.469.832 3.5 3.5 0 0 0-.162 1.115m-1.208 0q0-.766.215-1.424.215-.67.644-1.154.43-.497 1.061-.779t1.45-.282q.832 0 1.45.282.631.282 1.061.779.43.483.644 1.154.215.658.215 1.424t-.215 1.423a3.3 3.3 0 0 1-.644 1.155q-.43.483-1.061.765-.618.268-1.45.268-.819 0-1.45-.268a3.1 3.1 0 0 1-1.061-.765 3.3 3.3 0 0 1-.644-1.155 4.6 4.6 0 0 1-.215-1.423m8.556-2.471h-1.168v-1.007h1.168v-1.034q0-.846.483-1.275.496-.444 1.437-.443.16 0 .362.027.215.026.376.08v.994a1.2 1.2 0 0 0-.322-.067 2 2 0 0 0-.322-.027q-.417 0-.645.161-.228.16-.228.618v.966h1.342v1.007h-1.342v5.935h-1.141zm13.389 5.908q-.296.174-.819.174-.444 0-.712-.241-.255-.255-.255-.819-.47.564-1.101.819a3.7 3.7 0 0 1-1.343.241q-.47 0-.899-.107a2.1 2.1 0 0 1-.725-.336 1.7 1.7 0 0 1-.497-.59 2.1 2.1 0 0 1-.175-.9q0-.59.202-.967a1.7 1.7 0 0 1 .523-.604q.336-.242.752-.362.43-.121.873-.202.47-.094.886-.134.43-.054.752-.134.322-.094.51-.255.188-.175.188-.497 0-.376-.147-.604a.9.9 0 0 0-.363-.35 1.4 1.4 0 0 0-.497-.161 4 4 0 0 0-.537-.04q-.725 0-1.208.282-.483.269-.524 1.034h-1.141q.027-.645.268-1.088.242-.442.645-.711a2.6 2.6 0 0 1 .913-.403q.523-.121 1.114-.121.47 0 .927.067.47.067.846.282.376.201.604.578.228.375.228.98v3.571q0 .404.04.591.054.188.323.188.147 0 .349-.067zm-1.853-3.558a1.5 1.5 0 0 1-.564.241q-.35.068-.739.121-.375.04-.765.108a2.7 2.7 0 0 0-.698.188 1.3 1.3 0 0 0-.51.389q-.188.242-.188.671 0 .282.107.484.121.188.296.309.188.12.429.174.242.054.51.054.565 0 .967-.148.403-.16.658-.389.255-.242.376-.51.121-.282.121-.524zm2.982-6.002h1.141v9.587h-1.141zm2.976 0h1.142v9.587h-1.142zm9.372 10.513q-.202.51-.403.859a2 2 0 0 1-.43.564q-.228.228-.523.323a1.9 1.9 0 0 1-.658.107q-.202 0-.403-.027a2 2 0 0 1-.389-.094v-1.047q.147.067.335.107.202.054.336.054a.92.92 0 0 0 .577-.175.97.97 0 0 0 .363-.47l.47-1.168-2.753-6.901h1.289l2.028 5.68h.027l1.946-5.68h1.209zm4.82-4.39q0 .63.161 1.127.174.484.47.819.295.323.685.497.402.175.846.175.442 0 .832-.175.403-.174.698-.497a2.3 2.3 0 0 0 .457-.819q.174-.497.174-1.127 0-.632-.174-1.115a2.3 2.3 0 0 0-.457-.832 1.95 1.95 0 0 0-.698-.51 2 2 0 0 0-.832-.175q-.444 0-.846.175a2 2 0 0 0-.685.51 2.5 2.5 0 0 0-.47.832 3.5 3.5 0 0 0-.161 1.115m-1.208 0q0-.766.214-1.424.215-.67.645-1.154.43-.497 1.061-.779.63-.282 1.45-.282.832 0 1.45.282a3 3 0 0 1 1.06.779q.43.483.645 1.154.215.658.215 1.424t-.215 1.423a3.3 3.3 0 0 1-.645 1.155q-.43.483-1.06.765-.618.268-1.45.268-.82 0-1.45-.268a3.1 3.1 0 0 1-1.061-.765 3.3 3.3 0 0 1-.645-1.155 4.6 4.6 0 0 1-.214-1.423m13.832 3.464h-1.074v-1.101h-.027q-.363.644-.927.953-.564.295-1.329.295-.684 0-1.141-.174a1.9 1.9 0 0 1-.739-.524 2 2 0 0 1-.402-.792 4.6 4.6 0 0 1-.108-1.034v-4.565h1.141v4.699q0 .645.376 1.021.377.376 1.034.376.523 0 .9-.161.389-.162.644-.457t.376-.685q.135-.402.134-.872v-3.921h1.142zm1.674-6.942h1.074v1.464h.026q.417-.846 1.021-1.249.605-.403 1.53-.376v1.208q-.684 0-1.168.188a1.85 1.85 0 0 0-.778.551q-.295.363-.43.886a4.7 4.7 0 0 0-.134 1.182v3.088h-1.141zm9.456-1.248h-1.141v-1.397h1.141zm0 9.062q0 .927-.456 1.343-.444.43-1.209.43-.309 0-.577-.054v-.98a.6.6 0 0 0 .121.013.3.3 0 0 0 .094.014h.241q.376 0 .511-.215.134-.201.134-.739v-7.626h1.141zm2.601-4.336q0 .63.161 1.127.174.484.47.819.295.323.684.497a2.1 2.1 0 0 0 2.377-.497q.295-.335.456-.819.175-.497.175-1.127 0-.632-.175-1.115a2.3 2.3 0 0 0-.456-.832 1.95 1.95 0 0 0-.698-.51 2.098 2.098 0 0 0-1.679 0 2 2 0 0 0-.684.51 2.5 2.5 0 0 0-.47.832 3.5 3.5 0 0 0-.161 1.115m-1.209 0q0-.766.215-1.424.215-.67.644-1.154.43-.497 1.061-.779t1.45-.282q.832 0 1.45.282.631.282 1.061.779.43.483.644 1.154.215.658.215 1.424t-.215 1.423a3.3 3.3 0 0 1-.644 1.155q-.43.483-1.061.765-.618.268-1.45.268-.819 0-1.45-.268a3.1 3.1 0 0 1-1.061-.765 3.3 3.3 0 0 1-.644-1.155 4.6 4.6 0 0 1-.215-1.423m8.126-6.123h1.141v3.585h.027q.282-.577.886-.832a3.2 3.2 0 0 1 1.329-.269q.806 0 1.397.295.605.296.993.806.403.496.605 1.155.201.657.201 1.396t-.201 1.396a3.2 3.2 0 0 1-.591 1.155q-.39.483-.994.765-.591.282-1.383.282-.255 0-.577-.053a3.2 3.2 0 0 1-.618-.175 2.7 2.7 0 0 1-.59-.322 2 2 0 0 1-.457-.524h-.027v.927h-1.141zm5.371 6.056q0-.484-.135-.94a2.4 2.4 0 0 0-.389-.833 1.84 1.84 0 0 0-.671-.577 2 2 0 0 0-.954-.215q-.577 0-.98.228a1.94 1.94 0 0 0-.658.605q-.255.362-.376.832a4.3 4.3 0 0 0-.107.953q0 .51.121.994.12.47.376.832.268.363.685.591.416.215 1.007.215.59 0 .98-.228.402-.229.644-.605.242-.375.349-.859.108-.483.108-.993m3.246 1.342q.014.377.174.645.161.254.417.416.268.147.59.215.336.067.685.067.269 0 .564-.04.295-.041.537-.148a1.04 1.04 0 0 0 .416-.309.87.87 0 0 0 .161-.537q0-.443-.335-.671a2.7 2.7 0 0 0-.846-.363 11 11 0 0 0-1.088-.255 6.7 6.7 0 0 1-1.101-.322 2.34 2.34 0 0 1-.832-.591q-.336-.376-.336-1.047 0-.524.228-.9.243-.376.605-.604.375-.241.832-.349.47-.121.926-.121.591 0 1.088.108.497.094.873.349.389.241.617.671.229.416.269 1.047h-1.141a1.124 1.124 0 0 0-.551-.913 1.6 1.6 0 0 0-.51-.188 2.3 2.3 0 0 0-.551-.067q-.255 0-.523.04-.255.04-.47.148a.87.87 0 0 0-.349.269.64.64 0 0 0-.134.429q0 .296.201.497.215.188.537.322.323.121.725.215.403.08.806.175.43.093.832.228.417.134.725.362.322.216.51.551.202.336.202.832 0 .631-.269 1.048-.255.416-.685.671-.416.255-.953.349a5.2 5.2 0 0 1-2.148-.013 2.8 2.8 0 0 1-.927-.39 2.1 2.1 0 0 1-.644-.725q-.242-.456-.269-1.101zm10.45 0q.014.377.174.645.161.254.417.416.268.147.59.215.336.067.685.067.268 0 .564-.04.296-.041.537-.148a1.04 1.04 0 0 0 .416-.309.87.87 0 0 0 .161-.537q0-.443-.335-.671a2.7 2.7 0 0 0-.846-.363 11 11 0 0 0-1.088-.255 6.7 6.7 0 0 1-1.101-.322 2.34 2.34 0 0 1-.832-.591q-.336-.376-.336-1.047 0-.524.228-.9.243-.376.605-.604.376-.241.832-.349.47-.121.927-.121.59 0 1.087.108.497.094.873.349.389.241.617.671.229.416.269 1.047h-1.141a1.124 1.124 0 0 0-.551-.913 1.6 1.6 0 0 0-.51-.188 2.3 2.3 0 0 0-.55-.067 4 4 0 0 0-.524.04q-.255.04-.47.148a.87.87 0 0 0-.349.269.64.64 0 0 0-.134.429q0 .296.201.497.214.188.537.322.323.121.725.215.403.08.806.175.43.093.832.228.416.134.725.362.323.216.51.551.202.336.202.832 0 .631-.269 1.048-.255.416-.685.671-.416.255-.953.349a5.2 5.2 0 0 1-2.148-.013 2.8 2.8 0 0 1-.926-.39 2.1 2.1 0 0 1-.645-.725q-.242-.456-.268-1.101zm7.599-4.753h1.383v1.007h-1.383v4.31q0 .201.027.322a.37.37 0 0 0 .134.188.6.6 0 0 0 .255.094q.175.014.443.014h.524v1.007h-.873a5 5 0 0 1-.765-.054 1.2 1.2 0 0 1-.51-.228.97.97 0 0 1-.282-.457q-.094-.295-.094-.779v-4.417h-1.182v-1.007h1.182V124.2h1.141zm8.8 6.915q-.296.174-.819.174-.442 0-.711-.241-.256-.255-.256-.819-.47.564-1.101.819a3.7 3.7 0 0 1-1.342.241q-.47 0-.9-.107a2.1 2.1 0 0 1-.725-.336 1.7 1.7 0 0 1-.497-.59 2.1 2.1 0 0 1-.174-.9q0-.59.201-.967.202-.376.524-.604.336-.242.752-.362.429-.121.873-.202.47-.094.886-.134a7 7 0 0 0 .752-.134q.321-.094.51-.255.188-.175.188-.497 0-.376-.148-.604a.9.9 0 0 0-.362-.35 1.4 1.4 0 0 0-.497-.161 4 4 0 0 0-.537-.04q-.725 0-1.209.282-.483.269-.523 1.034h-1.142q.027-.645.269-1.088a2 2 0 0 1 .644-.711q.403-.282.913-.403a5 5 0 0 1 1.115-.121q.47 0 .926.067.47.067.846.282.376.201.604.578.228.375.229.98v3.571q0 .404.04.591.054.188.322.188.148 0 .349-.067zm-1.853-3.558a1.5 1.5 0 0 1-.564.241q-.348.068-.738.121-.376.04-.765.108-.39.054-.699.188a1.3 1.3 0 0 0-.51.389q-.188.242-.188.671 0 .282.108.484.12.188.295.309.188.12.43.174t.51.054q.564 0 .967-.148a2.2 2.2 0 0 0 .658-.389q.255-.242.375-.51.121-.282.121-.524zm7.628-1.128q-.135-.659-.564-1.02-.429-.363-1.155-.363-.617 0-1.033.228a1.9 1.9 0 0 0-.672.605q-.241.375-.349.872a4.7 4.7 0 0 0-.107 1.007q0 .483.107.94.122.456.363.819.241.35.631.564.389.215.926.215.846 0 1.316-.443.483-.444.591-1.249h1.168q-.189 1.289-.967 1.987-.765.698-2.094.698-.793 0-1.41-.255a2.8 2.8 0 0 1-1.021-.725 3.3 3.3 0 0 1-.617-1.114 4.9 4.9 0 0 1-.202-1.437q0-.778.202-1.45.2-.684.604-1.181a2.8 2.8 0 0 1 1.034-.793q.618-.294 1.436-.295.591 0 1.101.148.524.134.913.429.403.296.658.752.255.444.322 1.061zm2.566-4.874h1.141v5.68l3.169-3.035h1.53l-2.752 2.524 2.954 4.418h-1.45l-2.377-3.625-1.074.993v2.632h-1.141zm11.715 5.451a2.2 2.2 0 0 0-.188-.765 1.74 1.74 0 0 0-.416-.618 1.76 1.76 0 0 0-.618-.416 1.8 1.8 0 0 0-.778-.161 2 2 0 0 0-.806.161 1.8 1.8 0 0 0-.604.416q-.255.269-.403.631a2.3 2.3 0 0 0-.174.752zm1.101 1.934q-.228 1.168-1.007 1.759-.778.59-1.96.59-.832 0-1.45-.268a2.9 2.9 0 0 1-1.021-.752 3.3 3.3 0 0 1-.631-1.155 5.8 5.8 0 0 1-.228-1.463q0-.793.242-1.45.242-.658.671-1.141.444-.484 1.034-.752a3.2 3.2 0 0 1 1.316-.269q.926 0 1.53.389.618.376.98.967.376.591.511 1.289.147.699.121 1.329h-5.196q-.014.458.107.873.12.403.389.725.269.31.685.497.416.188.98.188.725 0 1.182-.336.47-.336.617-1.02zm2.123-1.209q0 .484.121.954.134.456.389.819.269.362.671.577.417.215.967.215.578 0 .98-.228.403-.23.658-.591.255-.376.363-.846.12-.47.121-.953 0-.51-.121-.98a2.4 2.4 0 0 0-.39-.846 1.84 1.84 0 0 0-.671-.578q-.416-.228-1.007-.228-.578 0-.98.228a1.8 1.8 0 0 0-.645.605q-.241.376-.349.859a4.6 4.6 0 0 0-.107.993m5.37 3.411H473.6v-.94h-.027a1.68 1.68 0 0 1-.886.832q-.605.255-1.329.255-.805 0-1.41-.295a3 3 0 0 1-.993-.792 3.5 3.5 0 0 1-.591-1.155 4.8 4.8 0 0 1-.201-1.396q0-.739.188-1.397.201-.657.59-1.141.403-.497.994-.779.604-.294 1.396-.295.269 0 .578.054.308.053.617.188.309.12.577.335.282.202.47.511h.027v-3.572h1.141zm11.642-.027q-.294.174-.819.174-.443 0-.711-.241-.255-.255-.255-.819a2.8 2.8 0 0 1-1.101.819 3.7 3.7 0 0 1-1.343.241q-.47 0-.899-.107a2.1 2.1 0 0 1-.725-.336 1.7 1.7 0 0 1-.497-.59 2.1 2.1 0 0 1-.175-.9q0-.59.202-.967a1.7 1.7 0 0 1 .523-.604q.336-.242.752-.362.43-.121.873-.202.47-.094.886-.134a7 7 0 0 0 .752-.134q.322-.094.51-.255.188-.175.188-.497 0-.376-.148-.604a.9.9 0 0 0-.362-.35 1.4 1.4 0 0 0-.497-.161 4 4 0 0 0-.537-.04q-.725 0-1.208.282-.484.269-.524 1.034h-1.141q.027-.645.268-1.088.241-.442.645-.711a2.6 2.6 0 0 1 .913-.403q.523-.121 1.114-.121.47 0 .927.067.47.067.845.282.376.201.605.578.228.375.228.98v3.571q0 .404.04.591.054.188.322.188.148 0 .349-.067zm-1.852-3.558a1.5 1.5 0 0 1-.564.241q-.35.068-.739.121-.375.04-.765.108a2.6 2.6 0 0 0-.698.188 1.3 1.3 0 0 0-.51.389q-.188.242-.188.671 0 .282.107.484.121.188.295.309.189.12.43.174.242.054.51.054.564 0 .967-.148.402-.16.658-.389.255-.242.376-.51a1.4 1.4 0 0 0 .121-.524zm4.499-3.357h1.383v1.007h-1.383v4.31q0 .201.027.322a.36.36 0 0 0 .134.188.6.6 0 0 0 .255.094q.174.014.443.014h.524v1.007h-.873a5 5 0 0 1-.765-.054 1.2 1.2 0 0 1-.51-.228.97.97 0 0 1-.282-.457q-.094-.295-.094-.779v-4.417h-1.182v-1.007h1.182V124.2h1.141zm7.22 3.478q0 .63.161 1.127.174.484.47.819.295.323.685.497.402.175.846.175.442 0 .832-.175.403-.174.698-.497a2.3 2.3 0 0 0 .457-.819q.174-.497.174-1.127 0-.632-.174-1.115a2.3 2.3 0 0 0-.457-.832 1.95 1.95 0 0 0-.698-.51 2 2 0 0 0-.832-.175q-.444 0-.846.175a2 2 0 0 0-.685.51 2.5 2.5 0 0 0-.47.832 3.5 3.5 0 0 0-.161 1.115m-1.208 0q0-.766.214-1.424.215-.67.645-1.154.43-.497 1.061-.779.63-.282 1.45-.282.832 0 1.45.282a3 3 0 0 1 1.06.779q.43.483.645 1.154.215.658.215 1.424t-.215 1.423a3.3 3.3 0 0 1-.645 1.155q-.43.483-1.06.765-.618.268-1.45.268-.82 0-1.45-.268a3.1 3.1 0 0 1-1.061-.765 3.3 3.3 0 0 1-.645-1.155 4.6 4.6 0 0 1-.214-1.423m8.085-3.478h1.074v1.101h.027q.712-1.262 2.256-1.262.685 0 1.141.188.457.188.738.524.282.335.39.805.12.457.121 1.021v4.565h-1.142v-4.7q0-.644-.376-1.02-.375-.376-1.033-.376-.524 0-.913.161-.376.162-.631.457t-.39.698q-.12.389-.121.859v3.921h-1.141zm12.281 2.806a2.3 2.3 0 0 0-.188-.765 1.76 1.76 0 0 0-.416-.618 1.76 1.76 0 0 0-.618-.416 1.84 1.84 0 0 0-.779-.161q-.443 0-.805.161a1.8 1.8 0 0 0-.604.416q-.256.269-.403.631a2.3 2.3 0 0 0-.175.752zm1.101 1.934q-.228 1.168-1.007 1.759-.779.59-1.96.59-.833 0-1.45-.268a2.9 2.9 0 0 1-1.021-.752 3.3 3.3 0 0 1-.631-1.155 5.8 5.8 0 0 1-.228-1.463q0-.793.241-1.45.242-.658.672-1.141.443-.484 1.034-.752a3.2 3.2 0 0 1 1.315-.269q.927 0 1.531.389.618.376.98.967.377.591.51 1.289a5.3 5.3 0 0 1 .121 1.329h-5.196q-.014.458.108.873.12.403.389.725.268.31.685.497.416.188.98.188.725 0 1.181-.336.471-.336.618-1.02zm5.067-4.74h1.142v.94h.026a1.68 1.68 0 0 1 .887-.832 3.2 3.2 0 0 1 1.329-.269q.805 0 1.396.295.604.296.994.806.403.496.604 1.155.201.657.201 1.396t-.201 1.396a3.2 3.2 0 0 1-.591 1.155 2.74 2.74 0 0 1-.993.765q-.591.282-1.383.282-.255 0-.578-.053a3 3 0 0 1-.617-.175 2.7 2.7 0 0 1-.591-.322 2 2 0 0 1-.457-.524h-.026v3.572h-1.142zm5.371 3.411q0-.484-.134-.94a2.4 2.4 0 0 0-.39-.833 1.84 1.84 0 0 0-.671-.577 2 2 0 0 0-.953-.215q-.578 0-.98.228a1.9 1.9 0 0 0-.658.605q-.255.362-.376.832a4.24 4.24 0 0 0 .013 1.947q.121.47.376.832.268.363.685.591.416.215 1.007.215.59 0 .98-.228.402-.229.644-.605.242-.375.349-.859.108-.483.108-.993m2.615-6.056h1.141v9.587h-1.141zm9.058 9.56q-.294.174-.819.174-.442 0-.711-.241-.255-.255-.255-.819-.47.564-1.101.819a3.7 3.7 0 0 1-1.343.241q-.47 0-.899-.107a2.1 2.1 0 0 1-.725-.336 1.7 1.7 0 0 1-.497-.59 2.1 2.1 0 0 1-.175-.9q0-.59.202-.967a1.7 1.7 0 0 1 .523-.604q.336-.242.752-.362.43-.121.873-.202.47-.094.886-.134a7 7 0 0 0 .752-.134q.323-.094.51-.255.188-.175.188-.497 0-.376-.148-.604a.9.9 0 0 0-.362-.35 1.4 1.4 0 0 0-.497-.161 4 4 0 0 0-.537-.04q-.725 0-1.208.282-.484.269-.524 1.034h-1.141q.027-.645.268-1.088.241-.442.645-.711a2.6 2.6 0 0 1 .913-.403q.523-.121 1.114-.121.47 0 .927.067.47.067.845.282.376.201.605.578.228.375.228.98v3.571q0 .404.04.591.054.188.322.188.148 0 .349-.067zm-1.852-3.558a1.5 1.5 0 0 1-.564.241q-.35.068-.739.121-.375.04-.765.108a2.6 2.6 0 0 0-.698.188 1.3 1.3 0 0 0-.51.389q-.188.242-.188.671 0 .282.107.484.121.188.295.309.189.12.43.174t.51.054q.564 0 .967-.148.403-.16.658-.389.255-.242.376-.51a1.4 1.4 0 0 0 .121-.524zm7.627-1.128q-.134-.659-.564-1.02-.43-.363-1.154-.363-.618 0-1.034.228a1.9 1.9 0 0 0-.671.605q-.243.375-.35.872a4.7 4.7 0 0 0-.107 1.007q0 .483.107.94.121.456.363.819.241.35.631.564.39.215.926.215.846 0 1.316-.443.483-.444.591-1.249h1.168q-.187 1.289-.967 1.987-.765.698-2.094.698a3.7 3.7 0 0 1-1.41-.255 2.8 2.8 0 0 1-1.02-.725 3.3 3.3 0 0 1-.618-1.114 4.9 4.9 0 0 1-.201-1.437q0-.778.201-1.45.202-.684.604-1.181a2.8 2.8 0 0 1 1.034-.793q.618-.294 1.437-.295.591 0 1.101.148.523.134.913.429.403.296.658.752.255.444.322 1.061zm7.319.577a2.2 2.2 0 0 0-.188-.765 1.74 1.74 0 0 0-.416-.618 1.76 1.76 0 0 0-.618-.416 1.8 1.8 0 0 0-.778-.161 2 2 0 0 0-.806.161 1.8 1.8 0 0 0-.604.416q-.255.269-.403.631a2.3 2.3 0 0 0-.175.752zm1.101 1.934q-.228 1.168-1.007 1.759-.778.59-1.96.59-.832 0-1.45-.268a2.9 2.9 0 0 1-1.021-.752 3.3 3.3 0 0 1-.631-1.155 5.8 5.8 0 0 1-.228-1.463q0-.793.242-1.45.242-.658.671-1.141.443-.484 1.034-.752a3.2 3.2 0 0 1 1.316-.269q.926 0 1.53.389.618.376.98.967.376.591.511 1.289.147.699.121 1.329h-5.197q-.013.458.108.873.12.403.389.725.269.31.685.497.417.188.98.188.724 0 1.182-.336.47-.336.617-1.02zm5.497-3.733h-1.168v-1.007h1.168v-1.034q0-.846.484-1.275.497-.444 1.436-.443.161 0 .363.027.214.026.376.08v.994a1.2 1.2 0 0 0-.323-.067 2 2 0 0 0-.322-.027q-.416 0-.644.161-.228.16-.228.618v.966h1.342v1.007h-1.342v5.935h-1.142zm4.336 2.471q0 .63.161 1.127.174.484.47.819.295.323.684.497a2.1 2.1 0 0 0 2.377-.497q.296-.335.456-.819.175-.497.175-1.127 0-.632-.175-1.115a2.3 2.3 0 0 0-.456-.832 1.95 1.95 0 0 0-.698-.51 2.098 2.098 0 0 0-1.679 0 2 2 0 0 0-.684.51 2.5 2.5 0 0 0-.47.832 3.5 3.5 0 0 0-.161 1.115m-1.209 0q0-.766.215-1.424.215-.67.645-1.154a3 3 0 0 1 1.06-.779q.631-.282 1.45-.282.833 0 1.45.282.632.282 1.061.779.43.483.644 1.154.216.658.215 1.424 0 .765-.215 1.423a3.3 3.3 0 0 1-.644 1.155q-.43.483-1.061.765-.617.268-1.45.268-.819 0-1.45-.268a3.1 3.1 0 0 1-1.06-.765 3.3 3.3 0 0 1-.645-1.155 4.6 4.6 0 0 1-.215-1.423m8.046-3.478h1.074v1.464h.027q.416-.846 1.02-1.249t1.531-.376v1.208q-.685 0-1.169.188a1.85 1.85 0 0 0-.778.551q-.295.363-.43.886a4.7 4.7 0 0 0-.134 1.182v3.088h-1.141zm10.973 7.868a6.5 6.5 0 0 1-.402.859 2 2 0 0 1-.43.564 1.3 1.3 0 0 1-.524.323 1.9 1.9 0 0 1-.658.107q-.201 0-.402-.027a2 2 0 0 1-.39-.094v-1.047q.149.067.336.107.201.054.336.054a.92.92 0 0 0 .577-.175.96.96 0 0 0 .362-.47l.47-1.168-2.752-6.901h1.289l2.027 5.68h.027l1.947-5.68h1.208zm4.82-4.39q0 .63.162 1.127.174.484.469.819.296.323.685.497a2.1 2.1 0 0 0 2.377-.497q.295-.335.456-.819.175-.497.175-1.127 0-.632-.175-1.115a2.3 2.3 0 0 0-.456-.832 1.95 1.95 0 0 0-.698-.51 2.098 2.098 0 0 0-1.679 0 2 2 0 0 0-.685.51 2.5 2.5 0 0 0-.469.832 3.5 3.5 0 0 0-.162 1.115m-1.208 0q0-.766.215-1.424.215-.67.644-1.154.43-.497 1.061-.779t1.45-.282q.832 0 1.45.282.631.282 1.061.779.43.483.644 1.154.215.658.215 1.424t-.215 1.423a3.3 3.3 0 0 1-.644 1.155q-.43.483-1.061.765-.618.268-1.45.268-.819 0-1.45-.268a3.1 3.1 0 0 1-1.061-.765 3.3 3.3 0 0 1-.644-1.155 4.6 4.6 0 0 1-.215-1.423m13.832 3.464h-1.074v-1.101h-.027q-.362.644-.926.953-.564.295-1.329.295-.685 0-1.142-.174-.456-.189-.738-.524a2 2 0 0 1-.403-.792 4.6 4.6 0 0 1-.107-1.034v-4.565h1.141v4.699q0 .645.376 1.021.375.376 1.034.376.524 0 .899-.161.39-.162.645-.457t.376-.685q.134-.402.134-.872v-3.921h1.141zm7.035-6.942h1.383v1.007h-1.383v4.31q0 .201.027.322a.37.37 0 0 0 .134.188.6.6 0 0 0 .256.094q.174.014.443.014h.523v1.007h-.872q-.444 0-.766-.054a1.2 1.2 0 0 1-.51-.228 1 1 0 0 1-.282-.457q-.094-.295-.094-.779v-4.417h-1.181v-1.007h1.181V124.2h1.141zm3.484 3.478q0 .63.161 1.127.174.484.47.819.296.323.684.497a2.1 2.1 0 0 0 2.377-.497q.296-.335.456-.819.175-.497.175-1.127 0-.632-.175-1.115a2.3 2.3 0 0 0-.456-.832 1.95 1.95 0 0 0-.698-.51 2.098 2.098 0 0 0-1.679 0 2 2 0 0 0-.684.51 2.5 2.5 0 0 0-.47.832 3.5 3.5 0 0 0-.161 1.115m-1.209 0q0-.766.215-1.424.214-.67.645-1.154a3 3 0 0 1 1.06-.779q.631-.282 1.45-.282.833 0 1.45.282.632.282 1.061.779.43.483.644 1.154.216.658.215 1.424 0 .765-.215 1.423a3.3 3.3 0 0 1-.644 1.155q-.43.483-1.061.765-.617.268-1.45.268-.819 0-1.45-.268a3.1 3.1 0 0 1-1.06-.765 3.3 3.3 0 0 1-.645-1.155 4.6 4.6 0 0 1-.215-1.423m12.521 1.275q.014.377.174.645.162.254.417.416.269.147.59.215.336.067.685.067.269 0 .564-.04.295-.041.537-.148a1.04 1.04 0 0 0 .416-.309.87.87 0 0 0 .161-.537q0-.443-.335-.671a2.7 2.7 0 0 0-.846-.363 11 11 0 0 0-1.088-.255 6.7 6.7 0 0 1-1.101-.322 2.34 2.34 0 0 1-.832-.591q-.336-.376-.336-1.047 0-.524.229-.9.241-.376.604-.604.375-.241.832-.349.47-.121.927-.121.59 0 1.087.108.496.094.873.349.389.241.617.671.229.416.269 1.047h-1.141a1.124 1.124 0 0 0-.551-.913 1.6 1.6 0 0 0-.51-.188 2.3 2.3 0 0 0-.55-.067q-.255 0-.524.04-.255.04-.47.148a.87.87 0 0 0-.349.269.64.64 0 0 0-.134.429q0 .296.201.497.215.188.537.322.323.121.725.215.403.08.806.175.43.093.832.228.417.134.725.362.322.216.51.551.202.336.202.832 0 .631-.269 1.048-.255.416-.684.671a2.7 2.7 0 0 1-.954.349 5.2 5.2 0 0 1-2.148-.013 2.8 2.8 0 0 1-.926-.39 2.1 2.1 0 0 1-.645-.725q-.241-.456-.268-1.101zm10.835-1.947a2.3 2.3 0 0 0-.188-.765 1.74 1.74 0 0 0-.416-.618 1.76 1.76 0 0 0-.618-.416 1.84 1.84 0 0 0-.779-.161q-.442 0-.805.161a1.8 1.8 0 0 0-.604.416q-.255.269-.403.631a2.3 2.3 0 0 0-.175.752zm1.101 1.934q-.228 1.168-1.007 1.759-.779.59-1.96.59-.833 0-1.45-.268a2.9 2.9 0 0 1-1.021-.752 3.3 3.3 0 0 1-.631-1.155 5.8 5.8 0 0 1-.228-1.463q0-.793.242-1.45.241-.658.671-1.141.443-.484 1.034-.752a3.2 3.2 0 0 1 1.316-.269q.925 0 1.53.389.618.376.98.967.377.591.51 1.289a5.3 5.3 0 0 1 .121 1.329h-5.196q-.013.458.108.873.12.403.389.725.268.31.685.497.416.188.98.188.725 0 1.181-.336.471-.336.618-1.02zm6.11-1.934a2.2 2.2 0 0 0-.188-.765 1.74 1.74 0 0 0-.416-.618 1.8 1.8 0 0 0-.617-.416 1.85 1.85 0 0 0-.779-.161 2 2 0 0 0-.806.161 1.8 1.8 0 0 0-.604.416q-.255.269-.403.631a2.3 2.3 0 0 0-.174.752zm1.101 1.934q-.228 1.168-1.007 1.759-.778.59-1.96.59-.832 0-1.45-.268a2.86 2.86 0 0 1-1.02-.752 3.3 3.3 0 0 1-.631-1.155 5.7 5.7 0 0 1-.229-1.463q0-.793.242-1.45.242-.658.671-1.141.443-.484 1.034-.752a3.2 3.2 0 0 1 1.316-.269q.927 0 1.531.389.617.376.98.967.375.591.51 1.289.148.699.121 1.329h-5.196q-.013.458.107.873.122.403.39.725.269.31.684.497.417.188.98.188.726 0 1.182-.336.47-.336.618-1.02z"/><mask id="e" fill="#fff"><path d="M257.508 168.697H1393v45.017H257.508z"/></mask><path fill="#f0f0f0" d="M1393 213.714v-.959H257.508v1.918H1393z" mask="url(#e)"/><mask id="f" fill="#fff"><path d="M303.539 168.697h69v45.017h-69z"/></mask><path fill="#203fdd" d="M372.539 213.714v-1.918h-69v3.836h69z" mask="url(#f)"/><path fill="#203fdd" d="M307.124 186.62h1.786l3.692 9.586h-1.799l-.9-2.538h-3.826l-.9 2.538h-1.732zm-.591 5.773h2.927l-1.437-4.122h-.04zm11.453-.806q-.094-.644-.524-.966-.416-.336-1.061-.336-.295 0-.631.107a1.4 1.4 0 0 0-.617.376q-.282.268-.47.766-.188.483-.188 1.275 0 .43.094.859.107.43.322.766.228.336.577.55.35.202.846.202.672 0 1.101-.417.444-.415.551-1.168h1.53q-.214 1.356-1.033 2.081-.807.712-2.149.712-.819 0-1.45-.269a3.2 3.2 0 0 1-1.047-.751 3.4 3.4 0 0 1-.658-1.142 4.6 4.6 0 0 1-.215-1.423q0-.779.215-1.463a3.3 3.3 0 0 1 .645-1.182q.43-.51 1.06-.792.645-.295 1.504-.295.604 0 1.141.161.55.147.967.456.43.31.698.779.269.47.322 1.114zm2.076-2.322h1.155v-2.081h1.531v2.081h1.383v1.141h-1.383v3.706q0 .241.013.416a.9.9 0 0 0 .094.295q.081.121.228.188.148.054.403.054h.322q.162-.013.323-.054v1.182l-.497.053a5 5 0 0 1-.497.027q-.605 0-.98-.107a1.45 1.45 0 0 1-.577-.336 1.3 1.3 0 0 1-.282-.564 4.7 4.7 0 0 1-.081-.765v-4.095h-1.155zm5.21-2.645h1.53v1.45h-1.53zm0 2.645h1.53v6.941h-1.53zm2.513 0h1.665l1.759 5.33h.027l1.692-5.33h1.584l-2.484 6.941h-1.718zm12.414 2.859a2.4 2.4 0 0 0-.161-.698 1.6 1.6 0 0 0-.349-.577 1.5 1.5 0 0 0-.537-.403 1.5 1.5 0 0 0-.699-.161q-.402 0-.738.148a1.6 1.6 0 0 0-.564.389 2 2 0 0 0-.376.577 2.2 2.2 0 0 0-.148.725zm-3.572 1.007q0 .404.108.779.12.376.349.658t.577.457q.349.16.833.161.67 0 1.074-.282.416-.296.617-.873h1.45a2.9 2.9 0 0 1-.416 1.007 3 3 0 0 1-.711.752 3 3 0 0 1-.94.443q-.51.16-1.074.161-.82 0-1.45-.269a3.1 3.1 0 0 1-1.074-.751 3.3 3.3 0 0 1-.658-1.155 4.8 4.8 0 0 1-.215-1.477q0-.738.228-1.396.242-.672.671-1.168a3.2 3.2 0 0 1 1.061-.806 3.2 3.2 0 0 1 1.396-.295q.819 0 1.464.349a3.1 3.1 0 0 1 1.087.899q.43.564.618 1.303.201.725.107 1.503zm10.043-6.511h1.531v1.45h-1.531zm0 2.645h1.531v7.532q0 1.034-.457 1.598-.456.563-1.53.563a3.314 3.314 0 0 1-.685-.053v-1.209q.147.027.282.041.134.013.242.013.416 0 .51-.255.107-.255.107-.765zm6.381 7.129a3.9 3.9 0 0 1-1.491-.269 3.3 3.3 0 0 1-1.101-.765 3.4 3.4 0 0 1-.684-1.154 4.5 4.5 0 0 1-.229-1.477q0-.792.229-1.464.241-.67.684-1.155a3.2 3.2 0 0 1 1.101-.751 3.8 3.8 0 0 1 1.491-.282q.833 0 1.476.282.659.268 1.101.751.457.485.685 1.155a4.3 4.3 0 0 1 .242 1.464q0 .805-.242 1.477-.228.67-.685 1.154a3.1 3.1 0 0 1-1.101.765q-.643.27-1.476.269m0-1.208q.51 0 .886-.215.375-.214.617-.564a2.4 2.4 0 0 0 .349-.779 3.4 3.4 0 0 0 0-1.786 2.2 2.2 0 0 0-.349-.778 1.9 1.9 0 0 0-.617-.564 1.76 1.76 0 0 0-.886-.215 1.76 1.76 0 0 0-.887.215q-.375.214-.617.564a2.4 2.4 0 0 0-.363.778 3.8 3.8 0 0 0 0 1.786 2.6 2.6 0 0 0 .363.779q.242.35.617.564.376.215.887.215m4.817-8.566h1.53v3.544h.027a2 2 0 0 1 .389-.456q.229-.202.497-.336a2.4 2.4 0 0 1 .578-.215q.308-.08.604-.08.819 0 1.423.295.618.282 1.02.792.403.497.604 1.168.202.672.202 1.437 0 .697-.188 1.356-.174.658-.551 1.168-.362.497-.926.806-.564.295-1.329.295-.35 0-.712-.054a2.5 2.5 0 0 1-1.262-.523 1.8 1.8 0 0 1-.43-.564h-.026v.953h-1.45zm5.343 6.122q0-.47-.121-.913a2.4 2.4 0 0 0-.362-.779 1.8 1.8 0 0 0-.604-.55 1.6 1.6 0 0 0-.833-.215q-.966 0-1.463.671-.483.672-.484 1.786 0 .524.121.98.135.444.39.765.255.322.604.511.363.188.832.188.524 0 .886-.215.363-.215.591-.551a2.2 2.2 0 0 0 .336-.778q.107-.444.107-.9m3.979 1.235q.067.672.51.94.443.269 1.061.269.214 0 .483-.027.282-.04.524-.134a.95.95 0 0 0 .389-.269.66.66 0 0 0 .148-.483.68.68 0 0 0-.215-.484 1.4 1.4 0 0 0-.524-.295 4 4 0 0 0-.711-.201 33 33 0 0 1-.819-.175 8 8 0 0 1-.833-.228 2.8 2.8 0 0 1-.711-.363 1.7 1.7 0 0 1-.497-.577q-.188-.363-.188-.886 0-.564.269-.94.28-.39.698-.618.429-.242.94-.335.523-.094.993-.094.537 0 1.02.12.497.108.887.363.402.255.658.671.268.404.335.98h-1.598q-.107-.55-.51-.738a2.05 2.05 0 0 0-.899-.188q-.162 0-.39.027a1.7 1.7 0 0 0-.416.107.8.8 0 0 0-.322.215.49.49 0 0 0-.134.363q0 .282.188.456.201.175.51.295.322.108.725.188t.832.175q.417.094.819.228.403.135.712.363.322.228.51.577.201.35.201.859 0 .618-.282 1.048a2.2 2.2 0 0 1-.738.698 3.2 3.2 0 0 1-.994.389 5 5 0 0 1-1.087.121q-.658 0-1.222-.148a3 3 0 0 1-.967-.443 2.4 2.4 0 0 1-.644-.752 2.5 2.5 0 0 1-.242-1.074z"/><path fill="#000" fill-opacity=".88" d="M404.328 186.62h1.275v9.586h-1.275zm3.232 2.645h1.075v1.101h.026q.713-1.263 2.256-1.263.685 0 1.141.188.457.189.739.524t.389.806q.121.456.121 1.02v4.565h-1.141v-4.699q0-.645-.376-1.021t-1.034-.376q-.523 0-.913.162a1.7 1.7 0 0 0-.631.456q-.255.296-.389.698-.121.39-.121.86v3.92h-1.142zm13.61 6.914q-.296.175-.819.175-.442 0-.711-.242-.255-.255-.255-.819a2.8 2.8 0 0 1-1.101.819 3.7 3.7 0 0 1-1.343.242q-.47 0-.9-.108a2.1 2.1 0 0 1-.725-.335 1.7 1.7 0 0 1-.496-.591 2.1 2.1 0 0 1-.175-.9q0-.59.201-.966.202-.376.524-.605a2.5 2.5 0 0 1 .752-.362q.429-.121.873-.201.47-.094.886-.135.43-.054.752-.134.322-.094.51-.255.188-.174.188-.497 0-.375-.148-.604a.9.9 0 0 0-.362-.349 1.4 1.4 0 0 0-.497-.161 3.6 3.6 0 0 0-.537-.041q-.725 0-1.209.282-.483.269-.523 1.034h-1.141q.027-.644.268-1.087a2 2 0 0 1 .645-.712 2.6 2.6 0 0 1 .913-.403q.523-.12 1.114-.121.47 0 .926.068.471.066.846.282.376.2.604.577.23.376.229.98v3.571q0 .403.04.591.054.188.322.188.148 0 .349-.067zm-1.853-3.558a1.5 1.5 0 0 1-.563.242q-.35.067-.739.121-.376.04-.765.107-.39.054-.698.188-.309.134-.511.389-.188.242-.188.672 0 .282.108.483.12.188.295.309.189.122.43.174.242.054.51.054.564 0 .967-.147a2.2 2.2 0 0 0 .658-.39q.255-.241.376-.51.12-.282.12-.524zm7.628-1.128q-.133-.657-.564-1.02t-1.154-.363q-.618 0-1.034.229a1.9 1.9 0 0 0-.672.604 2.6 2.6 0 0 0-.349.873 4.7 4.7 0 0 0-.107 1.007q0 .483.107.939.121.457.363.819.241.35.631.564.389.216.926.215.846 0 1.316-.443.483-.442.591-1.249h1.168q-.188 1.29-.967 1.988-.765.698-2.094.698a3.7 3.7 0 0 1-1.41-.255 2.8 2.8 0 0 1-1.02-.725 3.3 3.3 0 0 1-.618-1.115 4.9 4.9 0 0 1-.201-1.436q0-.78.201-1.45.202-.685.604-1.182.416-.51 1.034-.792.618-.296 1.437-.296.59 0 1.101.148.523.135.913.43.402.295.657.752.255.443.323 1.06zm4.083-2.228h1.383v1.007h-1.383v4.309q0 .202.027.323.04.12.134.188a.6.6 0 0 0 .255.094q.175.013.443.013h.524v1.007h-.873a5 5 0 0 1-.765-.054 1.2 1.2 0 0 1-.51-.228.97.97 0 0 1-.282-.456q-.094-.296-.094-.779v-4.417h-1.182v-1.007h1.182v-2.081h1.141zm3.859-1.249h-1.141v-1.396h1.141zm-1.141 1.249h1.141v6.941h-1.141zm6.038 6.941h-1.222l-2.578-6.941h1.276l1.946 5.786h.027l1.893-5.786h1.195zm8.405-4.135a2.3 2.3 0 0 0-.188-.766 1.8 1.8 0 0 0-.417-.617 1.75 1.75 0 0 0-.617-.416 1.8 1.8 0 0 0-.779-.162q-.443 0-.806.162a1.8 1.8 0 0 0-.604.416 2 2 0 0 0-.402.631 2.3 2.3 0 0 0-.175.752zm1.101 1.933q-.229 1.168-1.007 1.759-.78.591-1.961.591-.832 0-1.45-.269a2.84 2.84 0 0 1-1.02-.752 3.3 3.3 0 0 1-.631-1.154 5.7 5.7 0 0 1-.228-1.464q0-.792.241-1.45a3.5 3.5 0 0 1 .672-1.141q.443-.483 1.033-.752a3.2 3.2 0 0 1 1.316-.269q.927 0 1.531.39.618.375.98.967.376.59.51 1.288.148.699.121 1.33h-5.196q-.013.456.107.872.121.404.39.725.268.31.684.497.417.188.981.188.725 0 1.181-.335.47-.336.618-1.021zm6.235-5.988h-1.141v-1.396h1.141zm0 9.063q0 .926-.456 1.342-.443.43-1.209.43-.309 0-.577-.054v-.98a.6.6 0 0 0 .121.014.3.3 0 0 0 .094.013h.241q.376 0 .511-.215.134-.201.134-.738v-7.626h1.141zm2.601-4.337q0 .631.161 1.128.174.483.47.819.296.322.684.497a2.11 2.11 0 0 0 1.679 0q.402-.175.698-.497a2.3 2.3 0 0 0 .456-.819q.175-.496.175-1.128t-.175-1.114a2.3 2.3 0 0 0-.456-.833 1.95 1.95 0 0 0-.698-.51 2.115 2.115 0 0 0-1.679 0 2 2 0 0 0-.684.51 2.5 2.5 0 0 0-.47.833 3.5 3.5 0 0 0-.161 1.114m-1.209 0q0-.765.215-1.423a3.15 3.15 0 0 1 .645-1.155 3 3 0 0 1 1.06-.779q.631-.282 1.45-.282.833 0 1.45.282.632.282 1.061.779.43.483.644 1.155.216.658.215 1.423 0 .766-.215 1.423a3.3 3.3 0 0 1-.644 1.155q-.43.483-1.061.765-.617.269-1.45.269-.819 0-1.45-.269a3.1 3.1 0 0 1-1.06-.765 3.3 3.3 0 0 1-.645-1.155 4.6 4.6 0 0 1-.215-1.423m8.126-6.122h1.141v3.584h.027q.283-.577.886-.832a3.2 3.2 0 0 1 1.33-.269q.805 0 1.396.296.604.295.993.805.403.498.605 1.155.201.658.201 1.396 0 .739-.201 1.397a3.2 3.2 0 0 1-.591 1.154q-.39.484-.994.766-.59.282-1.383.282a3.5 3.5 0 0 1-.577-.054 3.2 3.2 0 0 1-.618-.175 2.7 2.7 0 0 1-.59-.322 2 2 0 0 1-.457-.523h-.027v.926h-1.141zm5.371 6.055q0-.483-.135-.94a2.4 2.4 0 0 0-.389-.832 1.84 1.84 0 0 0-.671-.578 2 2 0 0 0-.954-.215q-.576 0-.98.229a1.95 1.95 0 0 0-.658.604q-.255.363-.376.832a4.3 4.3 0 0 0-.107.954q0 .51.121.993.12.47.376.833.268.362.685.59.416.216 1.007.215.59 0 .98-.228.402-.228.644-.604t.349-.86q.108-.483.108-.993m3.246 1.343q.013.375.174.644.162.255.417.416.269.148.59.215.336.067.685.067.268 0 .564-.04t.537-.148q.255-.107.416-.309a.87.87 0 0 0 .161-.537q0-.443-.335-.671a2.7 2.7 0 0 0-.846-.362 10 10 0 0 0-1.088-.256 6.6 6.6 0 0 1-1.101-.322 2.34 2.34 0 0 1-.832-.591q-.336-.375-.336-1.047 0-.524.229-.899.241-.376.604-.605.375-.241.832-.349.47-.12.927-.121.59 0 1.087.108.497.094.873.349.389.242.617.671.229.417.269 1.048h-1.141a1.11 1.11 0 0 0-.551-.913 1.6 1.6 0 0 0-.51-.188 2.3 2.3 0 0 0-.55-.068q-.256 0-.524.041-.255.04-.47.147a.9.9 0 0 0-.349.269.65.65 0 0 0-.134.43q0 .295.201.496.214.188.537.323.323.12.725.214.403.08.806.175.43.094.832.228.417.135.725.363.322.214.51.55.202.336.202.833 0 .63-.269 1.047-.255.416-.685.671-.416.255-.953.349a5 5 0 0 1-1.047.108q-.577 0-1.101-.121a2.8 2.8 0 0 1-.926-.389 2.1 2.1 0 0 1-.645-.725q-.242-.458-.268-1.101zM516.514 189.426q-.107-1.034-.752-1.491-.63-.47-1.624-.47a4 4 0 0 0-.792.081q-.39.08-.699.269a1.5 1.5 0 0 0-.483.51q-.174.309-.174.778 0 .444.255.726.268.268.698.443.442.174.993.295.55.107 1.115.242.577.134 1.128.322.55.174.98.483.443.31.698.779.268.47.268 1.181 0 .766-.349 1.316a2.8 2.8 0 0 1-.872.886 3.8 3.8 0 0 1-1.209.484 5.659 5.659 0 0 1-2.846-.041 3.9 3.9 0 0 1-1.262-.604 3.1 3.1 0 0 1-.86-1.047q-.308-.645-.308-1.517h1.208q0 .605.228 1.047.241.43.618.712.389.281.899.416.511.134 1.048.134.43 0 .859-.08.442-.081.792-.269.35-.201.564-.537.215-.336.215-.859 0-.497-.269-.806a1.8 1.8 0 0 0-.698-.497 4.7 4.7 0 0 0-.98-.322q-.55-.12-1.128-.242a21 21 0 0 1-1.114-.295 4.6 4.6 0 0 1-.994-.443 2.3 2.3 0 0 1-.698-.712q-.255-.442-.255-1.101 0-.724.295-1.248.296-.537.779-.873a3.4 3.4 0 0 1 1.115-.51 5.138 5.138 0 0 1 2.658 0q.632.175 1.101.55.483.377.752.954.282.564.309 1.356zm9.123 6.753q-.296.175-.819.175-.444 0-.712-.242-.255-.255-.255-.819-.47.564-1.101.819a3.7 3.7 0 0 1-1.343.242q-.47 0-.899-.108a2.1 2.1 0 0 1-.725-.335 1.7 1.7 0 0 1-.497-.591 2.1 2.1 0 0 1-.175-.9q0-.59.202-.966t.523-.605a2.5 2.5 0 0 1 .752-.362q.43-.121.873-.201a9 9 0 0 1 .886-.135q.43-.054.752-.134.323-.094.51-.255.188-.174.188-.497 0-.375-.147-.604a.9.9 0 0 0-.363-.349 1.4 1.4 0 0 0-.497-.161 3.6 3.6 0 0 0-.537-.041q-.725 0-1.208.282-.483.269-.524 1.034h-1.141q.027-.644.268-1.087.242-.444.645-.712.402-.282.913-.403.523-.12 1.114-.121.47 0 .927.068.47.066.846.282.375.2.604.577t.228.98v3.571q0 .403.04.591.054.188.323.188.147 0 .349-.067zm-1.853-3.558a1.5 1.5 0 0 1-.564.242q-.35.067-.739.121-.375.04-.765.107a2.7 2.7 0 0 0-.698.188q-.309.134-.51.389-.188.242-.188.672 0 .282.107.483.121.188.296.309.188.122.429.174.241.054.51.054.564 0 .967-.147.403-.162.658-.39.255-.241.376-.51.121-.282.121-.524zm6.043 3.585h-1.222l-2.578-6.941h1.276l1.947 5.786h.027l1.893-5.786h1.195zm8.405-4.135a2.3 2.3 0 0 0-.188-.766 1.75 1.75 0 0 0-.416-.617 1.74 1.74 0 0 0-.618-.416 1.8 1.8 0 0 0-.778-.162q-.444 0-.806.162a1.8 1.8 0 0 0-.604.416q-.255.268-.403.631a2.3 2.3 0 0 0-.175.752zm1.101 1.933q-.228 1.168-1.007 1.759t-1.96.591q-.833 0-1.45-.269a2.86 2.86 0 0 1-1.021-.752 3.3 3.3 0 0 1-.631-1.154 5.8 5.8 0 0 1-.228-1.464q0-.792.242-1.45t.671-1.141q.443-.483 1.034-.752a3.2 3.2 0 0 1 1.316-.269q.925 0 1.53.39.618.375.98.967.376.59.511 1.288.147.699.12 1.33h-5.196q-.014.456.108.872.12.404.389.725.268.31.685.497.416.188.98.188.724 0 1.182-.335.47-.336.617-1.021zm2.123-1.208q0 .483.121.953.134.456.389.819.269.363.671.577.417.216.967.215.578 0 .98-.228.403-.228.658-.591.255-.375.363-.846.12-.47.12-.953 0-.51-.12-.98a2.4 2.4 0 0 0-.39-.846 1.8 1.8 0 0 0-.671-.577q-.417-.228-1.007-.229-.578 0-.98.229a1.8 1.8 0 0 0-.645.604 2.6 2.6 0 0 0-.349.859 4.6 4.6 0 0 0-.107.994m5.37 3.41h-1.141v-.94h-.027a1.68 1.68 0 0 1-.886.833q-.605.255-1.329.255-.805 0-1.41-.296a3 3 0 0 1-.993-.792 3.5 3.5 0 0 1-.591-1.154 4.8 4.8 0 0 1-.202-1.397q0-.739.188-1.396.203-.658.591-1.141.403-.498.994-.779.604-.296 1.396-.296.269 0 .577.054.309.054.618.188.309.121.577.336.282.201.47.51h.027v-3.571h1.141zm6.701-8.19h-1.141v-1.396h1.141zm0 9.063q0 .926-.456 1.342-.443.43-1.208.43-.31 0-.578-.054v-.98a.6.6 0 0 0 .121.014.3.3 0 0 0 .094.013h.242q.375 0 .51-.215.134-.201.134-.738v-7.626h1.141zm2.601-4.337q0 .631.161 1.128.174.483.47.819.295.322.685.497a2.1 2.1 0 0 0 1.678 0q.402-.175.698-.497.295-.336.457-.819a3.4 3.4 0 0 0 .174-1.128q0-.631-.174-1.114a2.3 2.3 0 0 0-.457-.833 1.95 1.95 0 0 0-.698-.51 2.107 2.107 0 0 0-1.678 0 2 2 0 0 0-.685.51 2.5 2.5 0 0 0-.47.833 3.5 3.5 0 0 0-.161 1.114m-1.209 0q0-.765.215-1.423.215-.672.645-1.155a3 3 0 0 1 1.06-.779q.631-.282 1.45-.282.833 0 1.451.282a3 3 0 0 1 1.06.779q.43.483.645 1.155.215.658.215 1.423 0 .766-.215 1.423a3.3 3.3 0 0 1-.645 1.155q-.43.483-1.06.765-.618.269-1.451.269-.819 0-1.45-.269a3.1 3.1 0 0 1-1.06-.765 3.3 3.3 0 0 1-.645-1.155 4.6 4.6 0 0 1-.215-1.423m8.126-6.122h1.142v3.584h.026q.282-.577.887-.832a3.2 3.2 0 0 1 1.329-.269q.805 0 1.396.296.604.295.994.805.403.498.604 1.155.201.658.201 1.396 0 .739-.201 1.397a3.2 3.2 0 0 1-.591 1.154 2.7 2.7 0 0 1-.993.766q-.591.282-1.383.282a3.5 3.5 0 0 1-.578-.054 3 3 0 0 1-.617-.175 2.7 2.7 0 0 1-.591-.322 2 2 0 0 1-.457-.523h-.026v.926h-1.142zm5.371 6.055q0-.483-.134-.94a2.4 2.4 0 0 0-.39-.832 1.84 1.84 0 0 0-.671-.578 2 2 0 0 0-.953-.215q-.578 0-.98.229a1.9 1.9 0 0 0-.658.604q-.255.363-.376.832a4.3 4.3 0 0 0-.108.954q0 .51.121.993.121.47.376.833.268.362.685.59.416.216 1.007.215.59 0 .98-.228.402-.228.644-.604a2.6 2.6 0 0 0 .35-.86q.107-.483.107-.993m3.246 1.343q.013.375.175.644.16.255.416.416.269.148.591.215.335.067.684.067.268 0 .564-.04t.537-.148q.255-.107.417-.309a.87.87 0 0 0 .161-.537q0-.443-.336-.671a2.7 2.7 0 0 0-.846-.362 10 10 0 0 0-1.087-.256 6.6 6.6 0 0 1-1.101-.322 2.3 2.3 0 0 1-.833-.591q-.336-.375-.335-1.047 0-.524.228-.899.241-.376.604-.605.376-.241.832-.349a3.7 3.7 0 0 1 .927-.121q.59 0 1.087.108a2.3 2.3 0 0 1 .873.349q.39.242.618.671.228.417.268 1.048h-1.141a1.11 1.11 0 0 0-.551-.913 1.6 1.6 0 0 0-.51-.188 2.3 2.3 0 0 0-.55-.068q-.255 0-.524.041-.255.04-.47.147a.9.9 0 0 0-.349.269.65.65 0 0 0-.134.43q0 .295.201.496.216.188.537.323.323.12.725.214.403.08.806.175.43.094.832.228.417.135.725.363.322.214.511.55.201.336.201.833 0 .63-.269 1.047-.255.416-.684.671a2.7 2.7 0 0 1-.954.349 5 5 0 0 1-1.047.108q-.577 0-1.101-.121a2.8 2.8 0 0 1-.926-.389 2.1 2.1 0 0 1-.645-.725q-.241-.458-.268-1.101z"/><g clip-path="url(#g)"><path fill="#fff" d="M303.547 249.256a5.754 5.754 0 0 1 5.754-5.754h417.177a5.754 5.754 0 0 1 5.754 5.754v23.017a5.754 5.754 0 0 1-5.754 5.754H309.301a5.754 5.754 0 0 1-5.754-5.754z"/><path fill="#000" fill-opacity=".25" d="M316.93 261.657q.045.82.386 1.331.65.957 2.288.957.735 0 1.338-.21 1.167-.406 1.167-1.455 0-.786-.492-1.121-.498-.328-1.56-.57l-1.305-.295q-1.278-.29-1.809-.636-.918-.603-.918-1.803 0-1.299.898-2.131.899-.832 2.544-.832 1.514 0 2.57.734 1.062.728 1.062 2.334h-1.226q-.099-.774-.42-1.187-.597-.754-2.026-.754-1.154 0-1.658.485-.505.486-.505 1.128 0 .708.59 1.036.387.21 1.75.524l1.351.308q.977.223 1.508.61.918.676.918 1.96 0 1.6-1.167 2.288-1.16.689-2.701.689-1.796 0-2.813-.918-1.016-.912-.996-2.472zm10.869-4.071q.748 0 1.449.354.702.348 1.069.905.354.531.472 1.239.105.485.105 1.547h-5.147q.033 1.068.505 1.718.472.642 1.462.642.924 0 1.475-.61a2.06 2.06 0 0 0 .446-.819h1.16q-.045.387-.308.865-.256.472-.577.774a2.75 2.75 0 0 1-1.331.708q-.426.105-.963.105a2.96 2.96 0 0 1-2.223-.951q-.91-.957-.911-2.675 0-1.69.918-2.747.918-1.055 2.399-1.055m1.882 3.107q-.072-.767-.335-1.225-.485-.853-1.619-.853a1.8 1.8 0 0 0-1.363.59q-.551.584-.584 1.488zm3.573 2.203q0 .512.373.807.375.294.885.295.624 0 1.207-.289.983-.478.983-1.567v-.95q-.216.137-.557.229-.34.092-.669.131l-.714.092q-.643.085-.964.269-.544.308-.544.983m2.858-2.386q.406-.053.544-.341.08-.158.079-.452 0-.603-.433-.872-.426-.276-1.226-.276-.924 0-1.311.499-.216.274-.282.819h-1.101q.032-1.298.839-1.803.813-.511 1.881-.511 1.24 0 2.013.472.767.472.767 1.468v4.045q0 .184.072.295.08.112.322.112.078 0 .177-.007.098-.012.209-.033v.872a3 3 0 0 1-.419.099 3 3 0 0 1-.394.019q-.609 0-.885-.432-.144-.23-.203-.649-.36.472-1.036.819-.675.348-1.488.348-.976 0-1.6-.59-.615-.597-.616-1.489 0-.977.61-1.514t1.6-.662zm3.743-2.767h1.122v1.213q.136-.354.675-.859a1.74 1.74 0 0 1 1.239-.511q.033 0 .111.007.079.006.269.026v1.245a2 2 0 0 0-.387-.032q-.891 0-1.37.577-.478.57-.478 1.317v4.039h-1.181zm7.146-.203q1.187 0 1.928.577.747.578.898 1.986h-1.147q-.105-.649-.479-1.075-.374-.432-1.2-.432-1.127 0-1.612 1.101-.315.714-.315 1.763 0 1.056.446 1.777t1.403.721q.734 0 1.16-.446.433-.452.597-1.232h1.147q-.197 1.397-.983 2.045-.787.643-2.013.643-1.377 0-2.196-1.003-.82-1.01-.82-2.518 0-1.848.898-2.878.899-1.029 2.288-1.029m4.006-2.439h1.18v3.593q.42-.531.754-.747.57-.375 1.423-.374 1.527 0 2.071 1.068.295.584.295 1.62v4.504h-1.213v-4.426q0-.772-.196-1.134-.322-.576-1.207-.577a2 2 0 0 0-1.33.505q-.597.505-.597 1.908v3.724h-1.18zm16.095 6.792q0 1.22-.361 1.895-.669 1.232-2.544 1.232-1.082 0-1.848-.583-.767-.59-.767-2.091v-.689h1.226v.689q0 .787.347 1.186.354.393 1.095.393 1.042 0 1.363-.714.198-.44.197-1.659v-6.418h1.292zm4.615 2.111q1.173 0 1.606-.885a4.4 4.4 0 0 0 .439-1.98q0-.983-.314-1.599-.498-.97-1.718-.971-1.082 0-1.573.826-.492.826-.492 1.993 0 1.122.492 1.869.491.747 1.56.747m.046-6.464q1.357 0 2.294.905t.938 2.661q0 1.698-.826 2.806t-2.564 1.108q-1.448 0-2.301-.976-.852-.984-.852-2.636 0-1.77.898-2.819t2.413-1.049m4.55-2.439h1.147v3.495q.387-.506.924-.767.538-.27 1.167-.269 1.311 0 2.124.904.82.898.82 2.656 0 1.665-.807 2.766-.805 1.101-2.235 1.102-.8 0-1.351-.387-.327-.23-.701-.735v.899h-1.088zm3.068 8.844q.957 0 1.429-.76.478-.76.478-2.006 0-1.108-.478-1.836-.472-.728-1.397-.728-.805 0-1.416.597-.603.596-.603 1.967 0 .99.249 1.606.466 1.16 1.738 1.16m5.199-1.383q.051.59.295.905.445.57 1.547.57.655 0 1.154-.282.498-.288.498-.885a.75.75 0 0 0-.4-.688q-.256-.145-1.01-.335l-.937-.236q-.898-.222-1.324-.498-.76-.478-.761-1.324 0-.997.715-1.613.72-.616 1.934-.616 1.586 0 2.288.931.438.59.426 1.272h-1.115a1.37 1.37 0 0 0-.282-.728q-.406-.465-1.409-.466-.67 0-1.016.256a.8.8 0 0 0-.341.675q0 .459.452.735.263.163.774.288l.78.19q1.272.308 1.704.597.689.451.689 1.422 0 .938-.715 1.62-.708.681-2.163.681-1.568 0-2.223-.708-.648-.714-.695-1.763z"/></g><path stroke="#d9d9d9" stroke-width=".959" d="M309.301 243.981h447.866a5.275 5.275 0 0 1 5.274 5.275v23.016a5.275 5.275 0 0 1-5.274 5.276H309.301a5.276 5.276 0 0 1-5.275-5.276v-23.016l.007-.272a5.276 5.276 0 0 1 4.996-4.996z"/><g clip-path="url(#h)"><rect width="1043.42" height="598.433" x="303.547" y="293.371" fill="#fff" rx="7.672"/><mask id="i" fill="#fff"><path d="M303.547 293.371H1346.97v52.689H303.547z"/></mask><path fill="#c4c4c4" d="M1346.97 346.06v-.959H303.547v1.918H1346.97z" mask="url(#i)"/><mask id="j" fill="#fff"><path d="M303.547 293.371H1346.97v52.689H303.547z"/></mask><path fill="#000" fill-opacity=".02" d="M303.547 293.371H1346.97v52.689H303.547z"/><path fill="#f0f0f0" d="M1346.97 293.371h.96v-.959h-.96zm0 52.689v.959h.96v-.959zM303.547 293.371v.959H1346.97v-1.918H303.547zm1043.423 0h-.96v52.689h1.92v-52.689zm0 52.689v-.959H303.547v1.918H1346.97z" mask="url(#j)"/><path fill="#000" fill-opacity=".88" d="M354.721 315.129h1.786l3.692 9.587H358.4l-.9-2.538h-3.826l-.9 2.538h-1.732zm-.591 5.774h2.927l-1.437-4.122h-.04zm11.453-.806q-.094-.645-.524-.967-.416-.335-1.061-.335-.294 0-.631.107a1.4 1.4 0 0 0-.617.376q-.282.269-.47.765-.188.484-.188 1.276 0 .43.094.859.107.43.322.766.228.335.577.55.35.201.846.201.672 0 1.101-.416.444-.416.551-1.168h1.53q-.214 1.356-1.033 2.081-.807.712-2.149.712-.819 0-1.45-.269a3.2 3.2 0 0 1-1.047-.752 3.35 3.35 0 0 1-.658-1.141 4.6 4.6 0 0 1-.215-1.423q0-.778.215-1.464.214-.684.645-1.181.43-.51 1.06-.792.645-.296 1.504-.296.604 0 1.141.162.55.147.967.456.43.308.698.779.269.47.322 1.114zm2.076-2.323h1.155v-2.081h1.531v2.081h1.383v1.142h-1.383v3.705q0 .241.013.417a.9.9 0 0 0 .094.295.54.54 0 0 0 .228.188q.148.054.403.054h.322q.162-.014.323-.054v1.181l-.497.054a5 5 0 0 1-.497.027q-.605 0-.98-.107a1.45 1.45 0 0 1-.577-.336 1.3 1.3 0 0 1-.282-.564 4.7 4.7 0 0 1-.081-.765v-4.095h-1.155zm5.21-2.645h1.53v1.45h-1.53zm0 2.645h1.53v6.942h-1.53zm6.38 7.13q-.832 0-1.49-.269a3.3 3.3 0 0 1-1.101-.765 3.4 3.4 0 0 1-.685-1.155 4.6 4.6 0 0 1-.228-1.477q0-.792.228-1.463a3.4 3.4 0 0 1 .685-1.155 3.2 3.2 0 0 1 1.101-.752 3.75 3.75 0 0 1 1.49-.282q.832 0 1.477.282.659.269 1.101.752.457.483.685 1.155.242.67.242 1.463 0 .806-.242 1.477a3.151 3.151 0 0 1-1.786 1.92q-.645.269-1.477.269m0-1.209q.51 0 .886-.214a1.9 1.9 0 0 0 .618-.564 2.4 2.4 0 0 0 .349-.779 3.4 3.4 0 0 0 0-1.786 2.2 2.2 0 0 0-.349-.778 1.86 1.86 0 0 0-.618-.564 1.75 1.75 0 0 0-.886-.215q-.51 0-.886.215a1.9 1.9 0 0 0-.618.564 2.4 2.4 0 0 0-.362.778 3.781 3.781 0 0 0 0 1.786q.121.43.362.779.242.348.618.564.376.214.886.214m4.777-5.921h1.45v1.021l.027.027q.35-.577.913-.9a2.4 2.4 0 0 1 1.249-.336q1.14 0 1.799.591.657.591.658 1.772v4.767h-1.531v-4.364q-.027-.82-.349-1.181-.323-.376-1.007-.376-.39 0-.698.147-.31.135-.524.39a1.8 1.8 0 0 0-.336.577 2.1 2.1 0 0 0-.12.712v4.095h-1.531zm8.864 4.713q.067.672.511.94.442.268 1.06.268.215 0 .484-.026.282-.04.523-.135a.95.95 0 0 0 .39-.268.67.67 0 0 0 .147-.484.67.67 0 0 0-.215-.483 1.4 1.4 0 0 0-.523-.295 4 4 0 0 0-.712-.202 35 35 0 0 1-.819-.174 8 8 0 0 1-.832-.228 2.8 2.8 0 0 1-.712-.363 1.7 1.7 0 0 1-.497-.577q-.188-.363-.188-.886 0-.565.269-.94.282-.39.698-.618.43-.242.94-.336.523-.094.994-.094.537 0 1.02.121.496.108.886.363.403.255.658.671.269.403.336.98h-1.598q-.108-.55-.51-.738a2.04 2.04 0 0 0-.9-.188q-.16 0-.389.027a1.7 1.7 0 0 0-.416.107.8.8 0 0 0-.323.215.5.5 0 0 0-.134.362q0 .283.188.457.201.175.51.295.323.108.725.188.403.08.833.175.415.094.819.228.402.134.711.363.322.228.51.577.202.35.202.859 0 .618-.282 1.047a2.2 2.2 0 0 1-.739.699 3.3 3.3 0 0 1-.993.389 5.04 5.04 0 0 1-2.309-.027 3 3 0 0 1-.967-.443 2.4 2.4 0 0 1-.645-.752q-.228-.456-.241-1.074zM447.838 321.628q0 .63-.107 1.222-.108.59-.443 1.06-.323.47-.954.752-.617.282-1.651.282-.765 0-1.303-.228a2.5 2.5 0 0 1-.886-.645 2.6 2.6 0 0 1-.51-.98 4.5 4.5 0 0 1-.161-1.222v-.51h1.678v.497q0 .819.269 1.276.282.443 1.047.443.403 0 .658-.121a.94.94 0 0 0 .416-.349q.161-.241.215-.591t.054-.792v-6.593h1.678zm5.01 3.276a3.9 3.9 0 0 1-1.491-.269 3.35 3.35 0 0 1-1.101-.765 3.4 3.4 0 0 1-.685-1.155 4.6 4.6 0 0 1-.228-1.477q0-.792.228-1.463.243-.672.685-1.155a3.2 3.2 0 0 1 1.101-.752 3.8 3.8 0 0 1 1.491-.282q.832 0 1.476.282.659.269 1.101.752.457.483.685 1.155.242.67.242 1.463 0 .806-.242 1.477-.228.672-.685 1.155a3.15 3.15 0 0 1-1.101.765q-.644.269-1.476.269m0-1.209q.51 0 .886-.214.375-.216.617-.564.242-.35.349-.779a3.4 3.4 0 0 0 0-1.786 2.2 2.2 0 0 0-.349-.778 1.749 1.749 0 0 0-1.503-.779 1.75 1.75 0 0 0-1.504.779 2.4 2.4 0 0 0-.363.778 3.8 3.8 0 0 0 0 1.786q.122.43.363.779.242.348.617.564.376.214.887.214m4.817-8.566h1.53v3.545h.027q.16-.255.389-.457a2.3 2.3 0 0 1 .497-.335q.282-.148.577-.215.31-.081.605-.081.819 0 1.423.296.618.282 1.02.792.403.496.604 1.168.202.671.202 1.437 0 .697-.188 1.356-.174.657-.551 1.168-.362.497-.926.805-.564.296-1.329.296-.35 0-.712-.054a2.5 2.5 0 0 1-1.262-.524 1.8 1.8 0 0 1-.43-.563h-.026v.953h-1.45zm5.343 6.123q0-.47-.121-.913a2.4 2.4 0 0 0-.362-.779 1.8 1.8 0 0 0-.604-.55 1.6 1.6 0 0 0-.833-.215q-.966 0-1.463.671-.483.672-.484 1.786 0 .524.121.98.135.443.39.765t.604.51q.363.188.832.188.524 0 .886-.214.363-.216.591-.551.241-.349.336-.779.107-.443.107-.899m6.709-6.123h1.772l4.377 7.063h.027v-7.063h1.598v9.587h-1.773l-4.363-7.049h-.041v7.049h-1.597zm15.355 8.043q0 .282.067.403.081.12.296.12h.161q.093 0 .215-.026v1.06a2 2 0 0 1-.215.054 2 2 0 0 1-.255.067 3 3 0 0 1-.497.054q-.47 0-.779-.188t-.403-.658q-.456.443-1.127.644a4.3 4.3 0 0 1-1.276.202 3 3 0 0 1-.899-.134 2.4 2.4 0 0 1-.766-.363 2 2 0 0 1-.523-.631 2 2 0 0 1-.188-.9q0-.644.228-1.047.241-.402.618-.631a2.8 2.8 0 0 1 .859-.322 9 9 0 0 1 .966-.161q.417-.081.793-.108.375-.04.658-.12.295-.081.456-.242.175-.175.175-.51a.77.77 0 0 0-.148-.484.84.84 0 0 0-.349-.282 1.3 1.3 0 0 0-.457-.134 3 3 0 0 0-.483-.04q-.645 0-1.061.268-.416.269-.47.833h-1.53q.04-.671.322-1.115.282-.442.712-.711.442-.269.993-.376a6 6 0 0 1 1.128-.108q.51 0 1.007.108.496.107.886.349.403.241.645.631.241.376.241.926zm-1.53-1.934q-.35.23-.86.282-.51.04-1.02.135a3 3 0 0 0-.47.12 1.2 1.2 0 0 0-.403.202.9.9 0 0 0-.282.335q-.094.202-.094.497 0 .256.148.43.147.174.349.282.214.094.457.134.255.04.456.04.255 0 .551-.067.295-.067.55-.228.269-.161.443-.403a1.07 1.07 0 0 0 .175-.617zm3.177-3.464h1.45v.967h.04q.175-.255.376-.47.202-.215.443-.362.256-.148.578-.229.322-.094.738-.094.631 0 1.168.282.55.282.779.873a3.1 3.1 0 0 1 .9-.846q.51-.309 1.275-.309 1.101 0 1.705.537.618.538.618 1.8v4.793h-1.531v-4.055q0-.416-.027-.752a1.4 1.4 0 0 0-.161-.591.83.83 0 0 0-.376-.389q-.254-.134-.698-.134-.779 0-1.128.483t-.349 1.37v4.068h-1.53v-4.458q0-.725-.269-1.087-.255-.376-.953-.376-.295 0-.577.121-.269.12-.484.349-.201.228-.335.564a2.2 2.2 0 0 0-.121.765v4.122h-1.531zm16.449 2.86a2.4 2.4 0 0 0-.161-.698 1.6 1.6 0 0 0-.349-.577 1.5 1.5 0 0 0-.537-.403 1.5 1.5 0 0 0-.698-.161q-.403 0-.739.147-.322.135-.564.39a2 2 0 0 0-.376.577 2.2 2.2 0 0 0-.147.725zm-3.571 1.007q0 .403.107.779.121.376.349.658t.577.456q.35.162.833.161.67 0 1.074-.282.416-.294.618-.872h1.45q-.122.564-.417 1.007a3 3 0 0 1-.711.752 3 3 0 0 1-.94.443q-.51.16-1.074.161-.819 0-1.45-.269a3.05 3.05 0 0 1-1.074-.752 3.3 3.3 0 0 1-.658-1.154 4.8 4.8 0 0 1-.215-1.477q0-.738.228-1.397.241-.67.672-1.168.443-.51 1.06-.805a3.2 3.2 0 0 1 1.397-.296 3 3 0 0 1 1.463.349q.658.336 1.088.9t.617 1.302q.202.726.108 1.504z"/><path fill="#fff" d="M303.547 352.83h1043.42v53.706H303.547z"/><mask id="k" fill="#fff"><path d="M303.547 352.83H1346.97v54.689H303.547z"/></mask><path fill="#e5e5e5" d="M1346.97 407.519v-.959H303.547v1.918H1346.97z" mask="url(#k)"/><path fill="#000" d="M374.631 379.803a1.07 1.07 0 0 1-.666.996 1.08 1.08 0 0 1-1.471-.786 1.08 1.08 0 0 1 1.058-1.289 1.076 1.076 0 0 1 1.079 1.079m5.035-1.079c-.214 0-.422.063-.6.181a1.1 1.1 0 0 0-.397.485 1.07 1.07 0 0 0-.061.623 1.082 1.082 0 0 0 1.471.786 1.08 1.08 0 0 0-.413-2.075m-12.228 0a1.08 1.08 0 0 0-.996.666 1.07 1.07 0 0 0 .233 1.175 1.08 1.08 0 0 0 1.526-1.525 1.08 1.08 0 0 0-.763-.316"/><path fill="#000" fill-opacity=".88" d="M441.988 375.662h-3.196v-1.074h7.667v1.074h-3.196v8.513h-1.275zm10.001 8.486q-.296.174-.819.174-.442 0-.711-.241-.256-.255-.256-.819-.47.564-1.101.819a3.7 3.7 0 0 1-1.342.241q-.47 0-.9-.107a2.1 2.1 0 0 1-.725-.336 1.7 1.7 0 0 1-.497-.59 2.1 2.1 0 0 1-.174-.9q0-.59.201-.967.202-.375.524-.604.335-.242.752-.362.429-.121.873-.202.47-.093.886-.134a7 7 0 0 0 .752-.134q.321-.095.51-.255.188-.175.188-.497 0-.376-.148-.604a.9.9 0 0 0-.362-.349 1.4 1.4 0 0 0-.497-.161 3.6 3.6 0 0 0-.537-.041q-.725 0-1.209.282-.483.269-.523 1.034h-1.142q.027-.644.269-1.088a2 2 0 0 1 .644-.711q.403-.282.913-.403.525-.12 1.115-.121.47 0 .926.067.47.067.846.282.376.202.604.578t.229.98v3.571q0 .404.04.591.054.188.322.188.148 0 .349-.067zm-1.853-3.558a1.5 1.5 0 0 1-.564.242q-.348.067-.738.12-.376.04-.765.108-.39.054-.699.188a1.3 1.3 0 0 0-.51.389q-.188.242-.188.672 0 .282.108.483.12.188.295.309.188.12.43.174t.51.054q.564 0 .967-.148a2.2 2.2 0 0 0 .658-.389q.255-.241.375-.51.121-.282.121-.524zm2.956-6.002h1.141v3.585h.027q.282-.577.886-.832a3.2 3.2 0 0 1 1.329-.269q.806 0 1.396.296.604.295.994.805.402.497.604 1.155.201.657.202 1.396 0 .739-.202 1.397a3.2 3.2 0 0 1-.591 1.154q-.388.483-.993.766-.591.281-1.383.281a3.5 3.5 0 0 1-.577-.053 3.2 3.2 0 0 1-.618-.175 2.7 2.7 0 0 1-.591-.322 2 2 0 0 1-.456-.524h-.027v.927h-1.141zm5.37 6.056q0-.484-.134-.94a2.4 2.4 0 0 0-.389-.833 1.84 1.84 0 0 0-.672-.577 2 2 0 0 0-.953-.215q-.578 0-.98.228a1.94 1.94 0 0 0-.658.605q-.255.362-.376.832a4.24 4.24 0 0 0 .013 1.947q.121.47.376.832.269.363.685.591.416.215 1.007.215t.98-.228q.403-.229.645-.604.241-.377.349-.86t.107-.993m2.615-6.056h1.141v9.587h-1.141zm7.73 5.451a2.3 2.3 0 0 0-.188-.765 1.75 1.75 0 0 0-.417-.617 1.8 1.8 0 0 0-.617-.417 1.85 1.85 0 0 0-.779-.161q-.443 0-.806.161a1.8 1.8 0 0 0-.604.417 2 2 0 0 0-.403.631 2.3 2.3 0 0 0-.174.751zm1.101 1.934q-.229 1.168-1.007 1.759-.78.59-1.961.59-.832 0-1.45-.268a2.86 2.86 0 0 1-1.02-.752 3.3 3.3 0 0 1-.631-1.155 5.7 5.7 0 0 1-.228-1.463q0-.792.241-1.45a3.5 3.5 0 0 1 .672-1.141q.443-.484 1.033-.752a3.2 3.2 0 0 1 1.316-.269q.927 0 1.531.39.617.375.98.966.376.591.51 1.289a5.3 5.3 0 0 1 .121 1.329h-5.196q-.013.457.107.873.122.403.39.725.268.31.684.497.417.188.981.188.725 0 1.181-.336.47-.335.618-1.02zm.431 3.195h6.713v.672h-6.713zm7.572-7.935h1.074v1.101h.027q.711-1.262 2.256-1.262.685 0 1.141.188t.738.524.39.805q.12.457.121 1.021v4.565h-1.142v-4.699q0-.645-.376-1.021-.375-.375-1.033-.376-.525 0-.913.161-.376.162-.631.457-.256.295-.39.698-.12.39-.121.859v3.921h-1.141zm13.61 6.915q-.296.174-.819.174-.443 0-.712-.241-.255-.255-.255-.819-.47.564-1.101.819a3.7 3.7 0 0 1-1.342.241q-.471 0-.9-.107a2.1 2.1 0 0 1-.725-.336 1.7 1.7 0 0 1-.497-.59 2.1 2.1 0 0 1-.174-.9q0-.59.201-.967.201-.375.524-.604.336-.242.752-.362a9 9 0 0 1 .872-.202 9 9 0 0 1 .886-.134q.43-.054.752-.134a1.4 1.4 0 0 0 .511-.255q.188-.175.188-.497 0-.376-.148-.604a.9.9 0 0 0-.363-.349 1.4 1.4 0 0 0-.496-.161 3.6 3.6 0 0 0-.538-.041q-.725 0-1.208.282-.483.269-.524 1.034h-1.141q.027-.644.269-1.088a2 2 0 0 1 .644-.711q.403-.282.913-.403.524-.12 1.115-.121.47 0 .926.067.47.067.846.282.376.202.604.578t.228.98v3.571q0 .404.041.591.053.188.322.188.148 0 .349-.067zm-1.853-3.558a1.5 1.5 0 0 1-.564.242q-.35.067-.738.12-.376.04-.766.108a2.7 2.7 0 0 0-.698.188 1.3 1.3 0 0 0-.51.389q-.188.242-.188.672 0 .282.108.483.12.188.295.309.187.12.43.174.242.054.51.054.564 0 .966-.148.403-.16.658-.389.255-.241.376-.51.121-.282.121-.524zm2.915-3.357h1.074v1.021h.027q.779-1.182 2.242-1.182.645 0 1.168.269.524.268.739.913a2.44 2.44 0 0 1 .913-.873 2.6 2.6 0 0 1 1.262-.309q.523 0 .94.121.43.108.725.349.309.242.47.631.174.376.174.913v5.089h-1.141v-4.552q0-.322-.054-.604a1.2 1.2 0 0 0-.201-.483 1 1 0 0 0-.416-.336q-.255-.12-.672-.121-.846 0-1.329.484-.483.483-.483 1.289v4.323h-1.141v-4.552q0-.335-.068-.617a1.2 1.2 0 0 0-.201-.484.9.9 0 0 0-.403-.322q-.241-.12-.631-.121-.496 0-.859.202a2 2 0 0 0-.577.483 2.1 2.1 0 0 0-.323.591 1.7 1.7 0 0 0-.094.497v4.323h-1.141zm16.267 2.806a2.3 2.3 0 0 0-.188-.765 1.75 1.75 0 0 0-.416-.617 1.8 1.8 0 0 0-.618-.417 1.84 1.84 0 0 0-.779-.161q-.443 0-.805.161a1.8 1.8 0 0 0-.605.417 2 2 0 0 0-.402.631 2.3 2.3 0 0 0-.175.751zm1.101 1.934q-.229 1.168-1.007 1.759-.779.59-1.961.59-.832 0-1.45-.268a2.9 2.9 0 0 1-1.02-.752 3.3 3.3 0 0 1-.631-1.155 5.8 5.8 0 0 1-.228-1.463q0-.792.241-1.45a3.5 3.5 0 0 1 .672-1.141q.443-.484 1.034-.752a3.2 3.2 0 0 1 1.315-.269q.927 0 1.531.39.618.375.98.966.377.591.51 1.289a5.3 5.3 0 0 1 .121 1.329h-5.196q-.013.457.107.873.122.403.39.725.268.31.685.497.416.188.98.188.725 0 1.181-.336.47-.335.618-1.02zm.431 3.195h6.713v.672h-6.713zm9.157-7.935h1.382v1.007h-1.382v4.31q0 .202.026.322a.36.36 0 0 0 .135.188.6.6 0 0 0 .255.094q.174.014.443.014h.523v1.007h-.872q-.444 0-.766-.054a1.2 1.2 0 0 1-.51-.228 1 1 0 0 1-.282-.457 2.7 2.7 0 0 1-.094-.778v-4.418h-1.181v-1.007h1.181v-2.081h1.142zm7.47 2.806a2.2 2.2 0 0 0-.188-.765 1.7 1.7 0 0 0-.416-.617 1.8 1.8 0 0 0-.617-.417 1.85 1.85 0 0 0-.779-.161 2 2 0 0 0-.806.161 1.8 1.8 0 0 0-.604.417 2 2 0 0 0-.403.631 2.3 2.3 0 0 0-.174.751zm1.101 1.934q-.228 1.168-1.007 1.759-.778.59-1.96.59-.832 0-1.45-.268a2.86 2.86 0 0 1-1.02-.752 3.3 3.3 0 0 1-.631-1.155 5.7 5.7 0 0 1-.229-1.463q0-.792.242-1.45t.671-1.141q.443-.484 1.034-.752a3.2 3.2 0 0 1 1.316-.269q.927 0 1.531.39.617.375.98.966.375.591.51 1.289.148.699.121 1.329h-5.196q-.013.457.107.873.122.403.39.725.269.31.684.497.417.188.98.188.726 0 1.182-.336.47-.335.618-1.02zm1.989.013q.013.376.174.645.162.255.417.416.269.147.59.215.336.067.685.067.269 0 .564-.04t.537-.148a1.04 1.04 0 0 0 .416-.309.87.87 0 0 0 .162-.537q0-.443-.336-.671a2.8 2.8 0 0 0-.846-.363 11 11 0 0 0-1.088-.255 6.6 6.6 0 0 1-1.101-.322 2.34 2.34 0 0 1-.832-.591q-.336-.376-.336-1.047 0-.524.229-.9.241-.375.604-.604.375-.241.832-.349a3.7 3.7 0 0 1 .927-.121q.59 0 1.087.108.496.094.873.349.39.242.618.671.228.417.268 1.047h-1.141a1.115 1.115 0 0 0-.551-.913 1.6 1.6 0 0 0-.51-.188 2.3 2.3 0 0 0-.55-.067q-.255 0-.524.041-.255.04-.47.147a.9.9 0 0 0-.349.269.65.65 0 0 0-.134.429q0 .296.201.497.215.188.537.322.323.122.725.215.403.08.806.175.43.093.832.228.417.133.725.363.322.214.51.55.202.336.202.832 0 .631-.269 1.048-.255.416-.684.671a2.7 2.7 0 0 1-.954.349 5.2 5.2 0 0 1-2.148-.013 2.8 2.8 0 0 1-.926-.39 2.1 2.1 0 0 1-.645-.725q-.241-.456-.268-1.101zm7.599-4.753h1.383v1.007h-1.383v4.31q0 .202.027.322a.37.37 0 0 0 .134.188.6.6 0 0 0 .255.094q.176.014.444.014h.523v1.007h-.873a5 5 0 0 1-.765-.054 1.2 1.2 0 0 1-.51-.228 1 1 0 0 1-.282-.457q-.094-.295-.094-.778v-4.418h-1.181v-1.007h1.181v-2.081h1.141zm1.792 7.935h6.713v.672h-6.713zm11.493-.993h-1.141v-6.821h-2.471v-.913q.483 0 .94-.067.456-.081.819-.282.376-.202.631-.55t.349-.887h.873z"/><mask id="l" fill="#fff"><path d="M303.547 422.863H1346.97v54.689H303.547z"/></mask><path fill="#e5e5e5" d="M1346.97 477.552v-.959H303.547v1.918H1346.97z" mask="url(#l)"/><path fill="#000" d="M374.631 449.836a1.07 1.07 0 0 1-.666.997 1.08 1.08 0 1 1-.413-2.076 1.08 1.08 0 0 1 1.079 1.079m5.035-1.079a1.077 1.077 0 0 0-.763 1.842 1.08 1.08 0 0 0 1.842-.763 1.08 1.08 0 0 0-1.079-1.079m-12.228 0a1.07 1.07 0 0 0-.996.666 1.07 1.07 0 0 0 .233 1.176 1.08 1.08 0 0 0 1.176.234 1.08 1.08 0 0 0 .666-.997 1.076 1.076 0 0 0-1.079-1.079"/><path fill="#000" fill-opacity=".88" d="M441.988 445.696h-3.196v-1.074h7.667v1.074h-3.196v8.512h-1.275zm10.001 8.485q-.296.175-.819.175-.442 0-.711-.242-.256-.255-.256-.819-.47.564-1.101.819a3.7 3.7 0 0 1-1.342.242q-.47 0-.9-.108a2.1 2.1 0 0 1-.725-.335 1.7 1.7 0 0 1-.497-.591 2.1 2.1 0 0 1-.174-.9q0-.591.201-.966.202-.376.524-.605.335-.242.752-.362.429-.122.873-.201.47-.094.886-.135.43-.053.752-.134.321-.095.51-.255.188-.174.188-.497 0-.376-.148-.604a.9.9 0 0 0-.362-.349 1.4 1.4 0 0 0-.497-.161 3.6 3.6 0 0 0-.537-.041q-.725 0-1.209.282-.483.269-.523 1.034h-1.142q.027-.644.269-1.087.242-.444.644-.712.403-.282.913-.403.525-.12 1.115-.121.47 0 .926.068.47.066.846.282.376.2.604.577.228.375.229.98v3.571q0 .404.04.591.054.188.322.188.148 0 .349-.067zm-1.853-3.558a1.5 1.5 0 0 1-.564.242q-.348.067-.738.121-.376.04-.765.107-.39.054-.699.188-.307.134-.51.389-.188.242-.188.672 0 .282.108.483.12.188.295.309.188.12.43.174t.51.054q.564 0 .967-.148a2.2 2.2 0 0 0 .658-.389q.255-.242.375-.51.121-.282.121-.524zm2.956-6.001h1.141v3.584h.027a1.68 1.68 0 0 1 .886-.832 3.2 3.2 0 0 1 1.329-.269q.806 0 1.396.296.604.295.994.805.402.497.604 1.155t.202 1.396-.202 1.397a3.2 3.2 0 0 1-.591 1.154q-.388.484-.993.766-.591.282-1.383.282a3.5 3.5 0 0 1-.577-.054 3.2 3.2 0 0 1-.618-.175 2.7 2.7 0 0 1-.591-.322 2 2 0 0 1-.456-.523h-.027v.926h-1.141zm5.37 6.055q0-.484-.134-.94a2.4 2.4 0 0 0-.389-.832 1.84 1.84 0 0 0-.672-.578 2 2 0 0 0-.953-.215q-.578 0-.98.229a1.9 1.9 0 0 0-.658.604q-.255.363-.376.832a4.25 4.25 0 0 0 .013 1.947q.121.47.376.833.269.362.685.59.416.215 1.007.215t.98-.228q.403-.228.645-.604a2.6 2.6 0 0 0 .349-.86q.107-.483.107-.993m2.615-6.055h1.141v9.586h-1.141zm7.73 5.451a2.3 2.3 0 0 0-.188-.766 1.8 1.8 0 0 0-.417-.617 1.75 1.75 0 0 0-.617-.416 1.8 1.8 0 0 0-.779-.162q-.443 0-.806.162a1.8 1.8 0 0 0-.604.416 2 2 0 0 0-.403.631 2.3 2.3 0 0 0-.174.752zm1.101 1.933q-.229 1.168-1.007 1.759-.78.591-1.961.591-.832 0-1.45-.269a2.84 2.84 0 0 1-1.02-.752 3.3 3.3 0 0 1-.631-1.154 5.7 5.7 0 0 1-.228-1.464q0-.792.241-1.45a3.5 3.5 0 0 1 .672-1.141q.443-.483 1.033-.752a3.2 3.2 0 0 1 1.316-.269q.927 0 1.531.39.617.375.98.967.376.59.51 1.288.148.699.121 1.33h-5.196q-.013.456.107.872.122.404.39.725.268.31.684.497.417.188.981.188.725 0 1.181-.336.47-.334.618-1.02zm.431 3.196h6.713v.671h-6.713zm7.572-7.935h1.074v1.101h.027q.711-1.263 2.256-1.263.685 0 1.141.188t.738.524.39.806q.12.456.121 1.02v4.565h-1.142v-4.699q0-.645-.376-1.021-.375-.376-1.033-.376-.525 0-.913.162a1.7 1.7 0 0 0-.631.456q-.256.296-.39.698a3 3 0 0 0-.121.86v3.92h-1.141zm13.61 6.914q-.296.175-.819.175-.443 0-.712-.242-.255-.255-.255-.819-.47.564-1.101.819a3.7 3.7 0 0 1-1.342.242q-.471 0-.9-.108a2.1 2.1 0 0 1-.725-.335 1.7 1.7 0 0 1-.497-.591 2.1 2.1 0 0 1-.174-.9q0-.591.201-.966.201-.376.524-.605.336-.242.752-.362.43-.122.872-.201.47-.094.886-.135.43-.053.752-.134a1.4 1.4 0 0 0 .511-.255q.188-.174.188-.497 0-.376-.148-.604a.9.9 0 0 0-.363-.349 1.4 1.4 0 0 0-.496-.161 3.6 3.6 0 0 0-.538-.041q-.725 0-1.208.282-.483.269-.524 1.034h-1.141q.027-.644.269-1.087.242-.444.644-.712.403-.282.913-.403.524-.12 1.115-.121.47 0 .926.068.47.066.846.282.376.2.604.577.228.375.228.98v3.571q0 .404.041.591.053.188.322.188.148 0 .349-.067zm-1.853-3.558a1.5 1.5 0 0 1-.564.242q-.35.067-.738.121-.376.04-.766.107a2.7 2.7 0 0 0-.698.188q-.309.134-.51.389-.188.242-.188.672 0 .282.108.483.12.188.295.309a1.3 1.3 0 0 0 .43.174q.242.054.51.054.564 0 .966-.148.403-.16.658-.389.255-.242.376-.51.121-.282.121-.524zm2.915-3.356h1.074v1.02h.027q.779-1.182 2.242-1.182.645 0 1.168.269.524.268.739.913a2.44 2.44 0 0 1 .913-.873 2.6 2.6 0 0 1 1.262-.309q.523 0 .94.121.43.108.725.349.309.242.47.631.174.376.174.913v5.089h-1.141v-4.552q0-.321-.054-.604a1.2 1.2 0 0 0-.201-.483 1 1 0 0 0-.416-.336q-.255-.12-.672-.121-.846 0-1.329.484-.483.483-.483 1.289v4.323h-1.141v-4.552a2.7 2.7 0 0 0-.068-.617 1.2 1.2 0 0 0-.201-.484.9.9 0 0 0-.403-.322q-.241-.12-.631-.121-.496 0-.859.202a2 2 0 0 0-.577.483 2.1 2.1 0 0 0-.323.591 1.7 1.7 0 0 0-.094.497v4.323h-1.141zm16.267 2.806a2.3 2.3 0 0 0-.188-.766 1.8 1.8 0 0 0-.416-.617 1.75 1.75 0 0 0-.618-.416 1.8 1.8 0 0 0-.779-.162q-.443 0-.805.162a1.8 1.8 0 0 0-.605.416 2 2 0 0 0-.402.631 2.3 2.3 0 0 0-.175.752zm1.101 1.933q-.229 1.168-1.007 1.759-.779.591-1.961.591-.832 0-1.45-.269a2.85 2.85 0 0 1-1.02-.752 3.3 3.3 0 0 1-.631-1.154 5.8 5.8 0 0 1-.228-1.464q0-.792.241-1.45a3.5 3.5 0 0 1 .672-1.141q.443-.483 1.034-.752a3.2 3.2 0 0 1 1.315-.269q.927 0 1.531.39.618.375.98.967.377.59.51 1.288.148.699.121 1.33h-5.196q-.013.456.107.872.122.404.39.725.268.31.685.497.416.188.98.188.725 0 1.181-.336.47-.334.618-1.02zm.431 3.196h6.713v.671h-6.713zm9.157-7.935h1.382v1.007h-1.382v4.309q0 .202.026.323.04.12.135.188a.6.6 0 0 0 .255.094q.174.013.443.013h.523v1.007h-.872q-.444 0-.766-.054a1.2 1.2 0 0 1-.51-.228 1 1 0 0 1-.282-.456 2.7 2.7 0 0 1-.094-.779v-4.417h-1.181v-1.007h1.181v-2.082h1.142zm7.47 2.806a2.2 2.2 0 0 0-.188-.766 1.75 1.75 0 0 0-.416-.617 1.75 1.75 0 0 0-.617-.416 1.8 1.8 0 0 0-.779-.162q-.444 0-.806.162a1.8 1.8 0 0 0-.604.416 2 2 0 0 0-.403.631 2.3 2.3 0 0 0-.174.752zm1.101 1.933q-.228 1.168-1.007 1.759t-1.96.591q-.832 0-1.45-.269a2.84 2.84 0 0 1-1.02-.752 3.3 3.3 0 0 1-.631-1.154 5.7 5.7 0 0 1-.229-1.464q0-.792.242-1.45t.671-1.141q.443-.483 1.034-.752a3.2 3.2 0 0 1 1.316-.269q.927 0 1.531.39.617.375.98.967.375.59.51 1.288.148.699.121 1.33h-5.196q-.013.456.107.872.122.404.39.725.269.31.684.497.417.188.98.188.726 0 1.182-.336.47-.334.618-1.02zm1.989.014q.013.375.174.644.162.255.417.416.269.148.59.215.336.067.685.067.269 0 .564-.04t.537-.148q.255-.107.416-.309a.87.87 0 0 0 .162-.537q0-.443-.336-.671a2.8 2.8 0 0 0-.846-.363 11 11 0 0 0-1.088-.255 6.6 6.6 0 0 1-1.101-.322 2.34 2.34 0 0 1-.832-.591q-.336-.375-.336-1.047 0-.524.229-.899.241-.376.604-.605.375-.241.832-.349a3.7 3.7 0 0 1 .927-.121q.59 0 1.087.108.496.094.873.349.39.242.618.671.228.417.268 1.048h-1.141a1.11 1.11 0 0 0-.551-.913 1.6 1.6 0 0 0-.51-.188 2.3 2.3 0 0 0-.55-.068q-.255 0-.524.041-.255.04-.47.147a.9.9 0 0 0-.349.269.65.65 0 0 0-.134.43q0 .294.201.496.215.188.537.323.323.12.725.214.403.08.806.175.43.095.832.228.417.135.725.363.322.214.51.55.202.335.202.833 0 .63-.269 1.047-.255.416-.684.671a2.7 2.7 0 0 1-.954.349 5 5 0 0 1-1.047.108q-.577 0-1.101-.121a2.8 2.8 0 0 1-.926-.39 2.1 2.1 0 0 1-.645-.725q-.241-.456-.268-1.1zm7.599-4.753h1.383v1.007h-1.383v4.309q0 .202.027.323.04.12.134.188a.6.6 0 0 0 .255.094q.176.013.444.013h.523v1.007h-.873a5 5 0 0 1-.765-.054 1.2 1.2 0 0 1-.51-.228 1 1 0 0 1-.282-.456q-.094-.296-.094-.779v-4.417h-1.181v-1.007h1.181v-2.082h1.141zm1.792 7.935h6.713v.671h-6.713zm11.493-.994h-1.141v-6.821h-2.471v-.913q.483 0 .94-.067.456-.08.819-.282a1.85 1.85 0 0 0 .631-.55q.255-.35.349-.886h.873z"/><mask id="m" fill="#fff"><path d="M303.547 492.896H1346.97v54.689H303.547z"/></mask><path fill="#e5e5e5" d="M1346.97 547.585v-.959H303.547v1.918H1346.97z" mask="url(#m)"/><path fill="#000" d="M374.631 519.869a1.07 1.07 0 0 1-.666.997 1.08 1.08 0 1 1-.413-2.076 1.08 1.08 0 0 1 1.079 1.079m5.035-1.079a1.077 1.077 0 0 0-.763 1.842 1.08 1.08 0 0 0 1.842-.763 1.08 1.08 0 0 0-1.079-1.079m-12.228 0a1.07 1.07 0 0 0-.996.666 1.07 1.07 0 0 0 .233 1.176 1.08 1.08 0 0 0 1.176.234 1.08 1.08 0 0 0 .666-.997 1.076 1.076 0 0 0-1.079-1.079"/><path fill="#000" fill-opacity=".88" d="M441.988 515.729h-3.196v-1.074h7.667v1.074h-3.196v8.512h-1.275zm10.001 8.485q-.296.175-.819.175-.442 0-.711-.242-.256-.255-.256-.819-.47.564-1.101.819a3.7 3.7 0 0 1-1.342.242q-.47 0-.9-.108a2.1 2.1 0 0 1-.725-.335 1.7 1.7 0 0 1-.497-.591 2.1 2.1 0 0 1-.174-.899q0-.591.201-.967.202-.376.524-.604.335-.242.752-.363.429-.12.873-.201.47-.095.886-.135a6 6 0 0 0 .752-.134q.321-.094.51-.255.188-.174.188-.497 0-.375-.148-.604a.9.9 0 0 0-.362-.349 1.4 1.4 0 0 0-.497-.161 3.6 3.6 0 0 0-.537-.04q-.725 0-1.209.282-.483.268-.523 1.033h-1.142q.027-.644.269-1.087.242-.444.644-.712.403-.282.913-.403.525-.12 1.115-.12.47 0 .926.067.47.067.846.282.376.2.604.577t.229.98v3.572q0 .402.04.59.054.188.322.188.148 0 .349-.067zm-1.853-3.558a1.5 1.5 0 0 1-.564.242q-.348.067-.738.121-.376.04-.765.107-.39.054-.699.188-.307.135-.51.39-.188.242-.188.671 0 .282.108.483.12.189.295.309.188.121.43.175t.51.053q.564 0 .967-.147.402-.162.658-.39.255-.242.375-.51.121-.281.121-.524zm2.956-6.001h1.141v3.585h.027q.282-.578.886-.833a3.2 3.2 0 0 1 1.329-.268q.806 0 1.396.295.604.295.994.806.402.497.604 1.154.201.658.202 1.397 0 .738-.202 1.396a3.2 3.2 0 0 1-.591 1.155q-.388.483-.993.765-.591.282-1.383.282a3.5 3.5 0 0 1-.577-.054 3.3 3.3 0 0 1-.618-.174 2.7 2.7 0 0 1-.591-.323 2 2 0 0 1-.456-.523h-.027v.926h-1.141zm5.37 6.055q0-.483-.134-.94a2.4 2.4 0 0 0-.389-.832 1.84 1.84 0 0 0-.672-.578 2 2 0 0 0-.953-.214q-.578 0-.98.228a1.9 1.9 0 0 0-.658.604q-.255.363-.376.833a4.24 4.24 0 0 0 .013 1.946q.121.47.376.833.269.361.685.591.416.214 1.007.214t.98-.228q.403-.228.645-.604.241-.376.349-.859.107-.484.107-.994m2.615-6.055h1.141v9.586h-1.141zm7.73 5.451a2.2 2.2 0 0 0-.188-.765 1.8 1.8 0 0 0-.417-.618 1.75 1.75 0 0 0-.617-.416 1.8 1.8 0 0 0-.779-.161q-.443 0-.806.161a1.8 1.8 0 0 0-.604.416 2 2 0 0 0-.403.631 2.3 2.3 0 0 0-.174.752zm1.101 1.933q-.229 1.168-1.007 1.759-.78.591-1.961.591-.832 0-1.45-.269a2.84 2.84 0 0 1-1.02-.752 3.3 3.3 0 0 1-.631-1.154 5.7 5.7 0 0 1-.228-1.464q0-.792.241-1.45a3.5 3.5 0 0 1 .672-1.141q.443-.483 1.033-.752a3.2 3.2 0 0 1 1.316-.268q.927 0 1.531.389.617.376.98.967.376.59.51 1.289.148.698.121 1.329h-5.196q-.013.456.107.873.122.402.39.725.268.308.684.496t.981.188q.725 0 1.181-.335.47-.336.618-1.021zm.431 3.196h6.713v.671h-6.713zm7.572-7.935h1.074v1.101h.027q.711-1.263 2.256-1.262.685 0 1.141.188.456.187.738.523t.39.806q.12.456.121 1.02v4.565h-1.142v-4.699q0-.645-.376-1.02-.375-.376-1.033-.376-.525 0-.913.161a1.7 1.7 0 0 0-.631.456q-.256.296-.39.698a3 3 0 0 0-.121.86v3.92h-1.141zm13.61 6.914q-.296.175-.819.175-.443 0-.712-.242-.255-.255-.255-.819-.47.564-1.101.819a3.7 3.7 0 0 1-1.342.242q-.471 0-.9-.108a2.1 2.1 0 0 1-.725-.335 1.7 1.7 0 0 1-.497-.591 2.1 2.1 0 0 1-.174-.899q0-.591.201-.967t.524-.604q.336-.242.752-.363.43-.12.872-.201.47-.095.886-.135a6 6 0 0 0 .752-.134q.322-.094.511-.255.188-.174.188-.497 0-.375-.148-.604a.9.9 0 0 0-.363-.349 1.4 1.4 0 0 0-.496-.161 3.6 3.6 0 0 0-.538-.04q-.725 0-1.208.282-.483.268-.524 1.033h-1.141q.027-.644.269-1.087.242-.444.644-.712.403-.282.913-.403.524-.12 1.115-.12.47 0 .926.067.47.067.846.282.376.2.604.577t.228.98v3.572q0 .402.041.59.053.188.322.188.148 0 .349-.067zm-1.853-3.558a1.5 1.5 0 0 1-.564.242q-.35.067-.738.121a13 13 0 0 0-.766.107 2.7 2.7 0 0 0-.698.188 1.3 1.3 0 0 0-.51.39q-.188.242-.188.671 0 .282.108.483.12.189.295.309a1.3 1.3 0 0 0 .43.175q.242.053.51.053.564 0 .966-.147.403-.162.658-.39.255-.242.376-.51.121-.281.121-.524zm2.915-3.356h1.074v1.02h.027q.779-1.182 2.242-1.181.645 0 1.168.268.524.269.739.913a2.44 2.44 0 0 1 .913-.873 2.64 2.64 0 0 1 1.262-.308q.523 0 .94.12.43.107.725.35.309.241.47.631.174.375.174.913v5.088h-1.141v-4.551q0-.323-.054-.605a1.2 1.2 0 0 0-.201-.483 1 1 0 0 0-.416-.336q-.255-.12-.672-.12-.846 0-1.329.483t-.483 1.289v4.323h-1.141v-4.551q0-.336-.068-.618a1.2 1.2 0 0 0-.201-.483.9.9 0 0 0-.403-.323q-.241-.12-.631-.12-.496 0-.859.201a2 2 0 0 0-.577.483 2.1 2.1 0 0 0-.323.591 1.7 1.7 0 0 0-.094.497v4.323h-1.141zm16.267 2.806a2.2 2.2 0 0 0-.188-.765 1.76 1.76 0 0 0-.416-.618 1.75 1.75 0 0 0-.618-.416 1.8 1.8 0 0 0-.779-.161 1.95 1.95 0 0 0-1.41.577 2 2 0 0 0-.402.631 2.3 2.3 0 0 0-.175.752zm1.101 1.933q-.229 1.168-1.007 1.759-.779.591-1.961.591-.832 0-1.45-.269a2.85 2.85 0 0 1-1.02-.752 3.3 3.3 0 0 1-.631-1.154 5.8 5.8 0 0 1-.228-1.464q0-.792.241-1.45a3.5 3.5 0 0 1 .672-1.141q.443-.483 1.034-.752a3.2 3.2 0 0 1 1.315-.268q.927 0 1.531.389.618.376.98.967.377.59.51 1.289.148.698.121 1.329h-5.196q-.013.456.107.873.122.402.39.725.268.308.685.496.416.188.98.188.725 0 1.181-.335.47-.336.618-1.021zm.431 3.196h6.713v.671h-6.713zm9.157-7.935h1.382v1.007h-1.382v4.31q0 .2.026.322.04.12.135.188a.6.6 0 0 0 .255.094q.174.013.443.013h.523v1.007h-.872a5 5 0 0 1-.766-.053 1.2 1.2 0 0 1-.51-.229.97.97 0 0 1-.282-.456 2.7 2.7 0 0 1-.094-.779v-4.417h-1.181V517.3h1.181v-2.081h1.142zm7.47 2.806a2.2 2.2 0 0 0-.188-.765 1.74 1.74 0 0 0-.416-.618 1.75 1.75 0 0 0-.617-.416 1.8 1.8 0 0 0-.779-.161q-.444 0-.806.161a1.8 1.8 0 0 0-.604.416 2 2 0 0 0-.403.631 2.3 2.3 0 0 0-.174.752zm1.101 1.933q-.228 1.168-1.007 1.759t-1.96.591q-.832 0-1.45-.269a2.84 2.84 0 0 1-1.02-.752 3.3 3.3 0 0 1-.631-1.154 5.7 5.7 0 0 1-.229-1.464q0-.792.242-1.45t.671-1.141q.443-.483 1.034-.752a3.2 3.2 0 0 1 1.316-.268q.927 0 1.531.389.617.376.98.967.375.59.51 1.289.148.698.121 1.329h-5.196q-.013.456.107.873.122.402.39.725.269.308.684.496.417.188.98.188.726 0 1.182-.335.47-.336.618-1.021zm1.989.014q.013.375.174.644.162.255.417.416.269.148.59.215.336.067.685.067.269 0 .564-.04t.537-.148a1.03 1.03 0 0 0 .416-.308.87.87 0 0 0 .162-.537q0-.444-.336-.672a2.7 2.7 0 0 0-.846-.362 10 10 0 0 0-1.088-.255 6.6 6.6 0 0 1-1.101-.323 2.35 2.35 0 0 1-.832-.59q-.336-.376-.336-1.048 0-.524.229-.899.241-.376.604-.604.375-.243.832-.35.47-.12.927-.12.59 0 1.087.107.496.094.873.349.39.242.618.671.228.417.268 1.048h-1.141a1.11 1.11 0 0 0-.551-.913 1.6 1.6 0 0 0-.51-.188 2.3 2.3 0 0 0-.55-.067q-.255 0-.524.04-.255.04-.47.148a.9.9 0 0 0-.349.268.65.65 0 0 0-.134.43q0 .295.201.497.215.187.537.322.323.12.725.215.403.08.806.174.43.095.832.228.417.135.725.363.322.215.51.55.202.336.202.833 0 .632-.269 1.047-.255.417-.684.671a2.7 2.7 0 0 1-.954.349 5 5 0 0 1-1.047.108q-.577 0-1.101-.121a2.8 2.8 0 0 1-.926-.389 2.1 2.1 0 0 1-.645-.725q-.241-.457-.268-1.101zm7.599-4.753h1.383v1.007h-1.383v4.31q0 .2.027.322.04.12.134.188a.6.6 0 0 0 .255.094q.176.013.444.013h.523v1.007h-.873q-.442 0-.765-.053a1.2 1.2 0 0 1-.51-.229.97.97 0 0 1-.282-.456q-.094-.296-.094-.779v-4.417h-1.181V517.3h1.181v-2.081h1.141zm1.792 7.935h6.713v.671h-6.713zm11.493-.994h-1.141v-6.82h-2.471v-.913q.483 0 .94-.068a2.6 2.6 0 0 0 .819-.281q.376-.202.631-.551t.349-.886h.873z"/><mask id="n" fill="#fff"><path d="M303.547 562.93H1346.97v54.689H303.547z"/></mask><path fill="#e5e5e5" d="M1346.97 617.619v-.959H303.547v1.918H1346.97z" mask="url(#n)"/><path fill="#000" d="M374.631 589.902a1.077 1.077 0 0 1-1.842.763 1.08 1.08 0 0 1 .763-1.842 1.08 1.08 0 0 1 1.079 1.079m5.035-1.079a1.09 1.09 0 0 0-.997.666 1.07 1.07 0 0 0 .234 1.176 1.07 1.07 0 0 0 1.176.234 1.09 1.09 0 0 0 .666-.997 1.08 1.08 0 0 0-1.079-1.079m-12.228 0a1.082 1.082 0 0 0-1.058 1.29 1.08 1.08 0 0 0 1.471.786 1.08 1.08 0 0 0-.413-2.076"/><path fill="#000" fill-opacity=".88" d="M441.988 585.762h-3.196v-1.074h7.667v1.074h-3.196v8.512h-1.275zm10.001 8.486q-.296.174-.819.174-.442 0-.711-.242-.256-.255-.256-.819-.47.564-1.101.819a3.6 3.6 0 0 1-1.342.242q-.47 0-.9-.107a2.1 2.1 0 0 1-.725-.336 1.7 1.7 0 0 1-.497-.591 2.1 2.1 0 0 1-.174-.899q0-.59.201-.967.202-.376.524-.604a2.5 2.5 0 0 1 .752-.363q.429-.12.873-.201.47-.095.886-.134.43-.054.752-.135.321-.093.51-.255.188-.174.188-.496 0-.377-.148-.605a.9.9 0 0 0-.362-.349 1.4 1.4 0 0 0-.497-.161 3.6 3.6 0 0 0-.537-.04q-.725 0-1.209.282-.483.268-.523 1.034h-1.142q.027-.645.269-1.088.242-.442.644-.712.403-.281.913-.402a5 5 0 0 1 1.115-.121q.47 0 .926.067.47.067.846.282.376.202.604.577.228.377.229.98v3.572q0 .402.04.591.054.188.322.188.148 0 .349-.068zm-1.853-3.558a1.5 1.5 0 0 1-.564.241q-.348.067-.738.121-.376.04-.765.107-.39.054-.699.188-.307.135-.51.39-.188.242-.188.671 0 .282.108.483.12.189.295.309.188.121.43.175t.51.054q.564 0 .967-.148a2.2 2.2 0 0 0 .658-.39q.255-.241.375-.51.121-.282.121-.523zm2.956-6.002h1.141v3.585h.027q.282-.578.886-.833a3.2 3.2 0 0 1 1.329-.268q.806 0 1.396.295.604.296.994.806.402.497.604 1.154.201.659.202 1.397 0 .738-.202 1.396a3.2 3.2 0 0 1-.591 1.155q-.388.483-.993.765-.591.282-1.383.282a3.5 3.5 0 0 1-.577-.054 3 3 0 0 1-.618-.174 2.8 2.8 0 0 1-.591-.322 2 2 0 0 1-.456-.524h-.027v.926h-1.141zm5.37 6.055q0-.483-.134-.94a2.4 2.4 0 0 0-.389-.832 1.83 1.83 0 0 0-.672-.577q-.402-.216-.953-.215-.578 0-.98.228a1.94 1.94 0 0 0-.658.604q-.255.362-.376.833a4.24 4.24 0 0 0 .013 1.947q.121.47.376.832.269.363.685.591.416.215 1.007.215t.98-.229q.403-.228.645-.604.241-.376.349-.859.107-.484.107-.994m2.615-6.055h1.141v9.586h-1.141zm7.73 5.451a2.3 2.3 0 0 0-.188-.765 1.8 1.8 0 0 0-.417-.618 1.75 1.75 0 0 0-.617-.416 1.85 1.85 0 0 0-.779-.161q-.443 0-.806.161a1.8 1.8 0 0 0-.604.416q-.255.269-.403.631a2.3 2.3 0 0 0-.174.752zm1.101 1.933q-.229 1.169-1.007 1.759-.78.591-1.961.591-.832 0-1.45-.268a2.86 2.86 0 0 1-1.02-.752 3.3 3.3 0 0 1-.631-1.155 5.7 5.7 0 0 1-.228-1.463q0-.793.241-1.45.241-.659.672-1.142.443-.483 1.033-.752a3.2 3.2 0 0 1 1.316-.268q.927 0 1.531.389.617.376.98.967.376.59.51 1.289.148.697.121 1.329h-5.196q-.013.456.107.873.122.402.39.725.268.308.684.497.417.188.981.188.725 0 1.181-.336.47-.336.618-1.021zm.431 3.196h6.713v.671h-6.713zm7.572-7.935h1.074v1.101h.027q.711-1.262 2.256-1.262.685 0 1.141.188t.738.523.39.806q.12.457.121 1.02v4.565h-1.142v-4.699q0-.644-.376-1.02-.375-.376-1.033-.376-.525 0-.913.161-.376.161-.631.456-.256.295-.39.699-.12.389-.121.859v3.92h-1.141zm13.61 6.915q-.296.174-.819.174-.443 0-.712-.242-.255-.255-.255-.819-.47.564-1.101.819a3.6 3.6 0 0 1-1.342.242q-.471 0-.9-.107a2.1 2.1 0 0 1-.725-.336 1.7 1.7 0 0 1-.497-.591 2.1 2.1 0 0 1-.174-.899q0-.59.201-.967.201-.376.524-.604a2.5 2.5 0 0 1 .752-.363q.43-.12.872-.201.47-.095.886-.134.43-.054.752-.135.322-.093.511-.255.188-.174.188-.496 0-.377-.148-.605a.9.9 0 0 0-.363-.349 1.4 1.4 0 0 0-.496-.161 3.6 3.6 0 0 0-.538-.04q-.725 0-1.208.282-.483.268-.524 1.034h-1.141q.027-.645.269-1.088.242-.442.644-.712.403-.281.913-.402a5 5 0 0 1 1.115-.121q.47 0 .926.067.47.067.846.282.376.202.604.577.228.377.228.98v3.572q0 .402.041.591.053.188.322.188.148 0 .349-.068zm-1.853-3.558a1.5 1.5 0 0 1-.564.241q-.35.067-.738.121a13 13 0 0 0-.766.107 2.7 2.7 0 0 0-.698.188 1.3 1.3 0 0 0-.51.39q-.188.242-.188.671 0 .282.108.483.12.189.295.309a1.3 1.3 0 0 0 .43.175q.242.054.51.054.564 0 .966-.148.403-.161.658-.39.255-.241.376-.51.121-.282.121-.523zm2.915-3.357h1.074v1.02h.027q.779-1.18 2.242-1.181.645 0 1.168.268.524.269.739.913.35-.564.913-.872a2.6 2.6 0 0 1 1.262-.309q.523 0 .94.121.43.107.725.349.309.241.47.631.174.375.174.913v5.088h-1.141v-4.551q0-.322-.054-.604a1.2 1.2 0 0 0-.201-.484 1 1 0 0 0-.416-.335q-.255-.121-.672-.121-.846 0-1.329.483t-.483 1.289v4.323h-1.141v-4.551q0-.336-.068-.618a1.2 1.2 0 0 0-.201-.483.9.9 0 0 0-.403-.322q-.241-.121-.631-.121-.496 0-.859.201a2 2 0 0 0-.577.484 2.1 2.1 0 0 0-.323.59 1.7 1.7 0 0 0-.094.497v4.323h-1.141zm16.267 2.806a2.3 2.3 0 0 0-.188-.765 1.76 1.76 0 0 0-.416-.618 1.75 1.75 0 0 0-.618-.416 1.84 1.84 0 0 0-.779-.161q-.443 0-.805.161a1.8 1.8 0 0 0-.605.416q-.255.269-.402.631a2.3 2.3 0 0 0-.175.752zm1.101 1.933q-.229 1.169-1.007 1.759-.779.591-1.961.591-.832 0-1.45-.268a2.9 2.9 0 0 1-1.02-.752 3.3 3.3 0 0 1-.631-1.155 5.8 5.8 0 0 1-.228-1.463q0-.793.241-1.45.241-.659.672-1.142.443-.483 1.034-.752a3.2 3.2 0 0 1 1.315-.268q.927 0 1.531.389.618.376.98.967.377.59.51 1.289.148.697.121 1.329h-5.196q-.013.456.107.873.122.402.39.725.268.308.685.497.416.188.98.188.725 0 1.181-.336.47-.336.618-1.021zm.431 3.196h6.713v.671h-6.713zm9.157-7.935h1.382v1.007h-1.382v4.31q0 .2.026.322a.37.37 0 0 0 .135.188.6.6 0 0 0 .255.094q.174.013.443.013h.523v1.007h-.872q-.444 0-.766-.053a1.2 1.2 0 0 1-.51-.229.97.97 0 0 1-.282-.456 2.7 2.7 0 0 1-.094-.779v-4.417h-1.181v-1.007h1.181v-2.081h1.142zm7.47 2.806a2.2 2.2 0 0 0-.188-.765 1.74 1.74 0 0 0-.416-.618 1.75 1.75 0 0 0-.617-.416 1.85 1.85 0 0 0-.779-.161 2 2 0 0 0-.806.161 1.8 1.8 0 0 0-.604.416q-.255.269-.403.631a2.3 2.3 0 0 0-.174.752zm1.101 1.933q-.228 1.169-1.007 1.759-.778.591-1.96.591-.832 0-1.45-.268a2.86 2.86 0 0 1-1.02-.752 3.3 3.3 0 0 1-.631-1.155 5.7 5.7 0 0 1-.229-1.463q0-.793.242-1.45a3.5 3.5 0 0 1 .671-1.142q.443-.483 1.034-.752a3.2 3.2 0 0 1 1.316-.268q.927 0 1.531.389.617.376.98.967.375.59.51 1.289.148.697.121 1.329h-5.196q-.013.456.107.873.122.402.39.725.269.308.684.497.417.188.98.188.726 0 1.182-.336.47-.336.618-1.021zm1.989.014q.013.376.174.644.162.255.417.417.269.147.59.214.336.068.685.068.269 0 .564-.041.295-.04.537-.147a1.04 1.04 0 0 0 .416-.309.87.87 0 0 0 .162-.537q0-.443-.336-.672a2.7 2.7 0 0 0-.846-.362 10 10 0 0 0-1.088-.255 6.7 6.7 0 0 1-1.101-.322 2.4 2.4 0 0 1-.832-.591q-.336-.376-.336-1.047 0-.524.229-.9.241-.376.604-.604.375-.242.832-.349.47-.121.927-.121.59 0 1.087.107.496.094.873.349.39.241.618.672.228.416.268 1.047h-1.141a1.11 1.11 0 0 0-.551-.913 1.6 1.6 0 0 0-.51-.188 2.3 2.3 0 0 0-.55-.067q-.255 0-.524.04-.255.04-.47.148a.9.9 0 0 0-.349.268.65.65 0 0 0-.134.43q0 .295.201.497.215.187.537.322.323.121.725.215.403.081.806.174.43.094.832.229.417.134.725.362.322.215.51.551.202.335.202.832 0 .632-.269 1.047-.255.417-.684.672a2.7 2.7 0 0 1-.954.349 5.2 5.2 0 0 1-1.047.107q-.577 0-1.101-.121a2.8 2.8 0 0 1-.926-.389 2.1 2.1 0 0 1-.645-.725q-.241-.456-.268-1.101zm7.599-4.753h1.383v1.007h-1.383v4.31q0 .2.027.322a.37.37 0 0 0 .134.188.6.6 0 0 0 .255.094q.176.013.444.013h.523v1.007h-.873a5 5 0 0 1-.765-.053 1.2 1.2 0 0 1-.51-.229.97.97 0 0 1-.282-.456q-.094-.296-.094-.779v-4.417h-1.181v-1.007h1.181v-2.081h1.141zm1.792 7.935h6.713v.671h-6.713zm11.493-.994h-1.141v-6.82h-2.471v-.913q.483 0 .94-.067.456-.081.819-.282.376-.202.631-.551t.349-.886h.873z"/></g><rect width="1042.46" height="597.474" x="304.026" y="293.851" stroke="#e5e5e5" stroke-width=".959" rx="7.193"/></g><g filter="url(#o)"><path stroke="url(#p)" stroke-width="2" d="M562 14H56c-23.196 0-42 18.804-42 42v660"/></g><g filter="url(#q)"><path stroke="url(#r)" stroke-width="6" d="M560 12H54c-23.196 0-42 18.804-42 42v660"/></g><g filter="url(#s)"><path stroke="url(#t)" d="M562 14H56c-23.196 0-42 18.804-42 42v660"/></g><defs><clipPath id="a"><rect width="1381" height="1000.69" x="12" y="13.5" fill="#fff" rx="38.031"/></clipPath><clipPath id="c"><path fill="#fff" d="M52.188 125.833H67.53v15.344H52.187z"/></clipPath><clipPath id="d"><path fill="#fff" d="M303.547 82.542h23.017v23.017h-23.017z"/></clipPath><clipPath id="g"><path fill="#fff" d="M303.547 249.256a5.754 5.754 0 0 1 5.754-5.754h447.866a5.754 5.754 0 0 1 5.754 5.754v23.017a5.754 5.754 0 0 1-5.754 5.754H309.301a5.754 5.754 0 0 1-5.754-5.754z"/></clipPath><clipPath id="h"><rect width="1043.42" height="598.433" x="303.547" y="293.371" fill="#fff" rx="7.672"/></clipPath><linearGradient id="b" x1="55.545" x2="28.212" y1="53.207" y2="80.06" gradientUnits="userSpaceOnUse"><stop stop-color="#193ae6"/><stop offset="1" stop-color="#576bd3"/></linearGradient><linearGradient id="p" x1="532.5" x2="13.5" y1="-40" y2="636.5" gradientUnits="userSpaceOnUse"><stop stop-color="#fff"/><stop offset=".487" stop-color="#0053fa"/><stop offset="1" stop-color="#fff"/></linearGradient><linearGradient id="r" x1="383" x2="40.5" y1="11.5" y2="538" gradientUnits="userSpaceOnUse"><stop stop-color="#fff"/><stop offset=".505" stop-color="#8599ff"/><stop offset="1" stop-color="#fff"/></linearGradient><linearGradient id="t" x1="385" x2="42.5" y1="13.5" y2="540" gradientUnits="userSpaceOnUse"><stop stop-color="#fff"/><stop offset=".505" stop-color="#193ae6"/><stop offset="1" stop-color="#fff"/></linearGradient><filter id="o" width="557" height="711" x="9" y="9" color-interpolation-filters="sRGB" filterUnits="userSpaceOnUse"><feFlood flood-opacity="0" result="BackgroundImageFix"/><feBlend in="SourceGraphic" in2="BackgroundImageFix" result="shape"/><feGaussianBlur result="effect1_foregroundBlur_994_2580" stdDeviation="2"/></filter><filter id="q" width="569" height="723" x="0" y="0" color-interpolation-filters="sRGB" filterUnits="userSpaceOnUse"><feFlood flood-opacity="0" result="BackgroundImageFix"/><feBlend in="SourceGraphic" in2="BackgroundImageFix" result="shape"/><feGaussianBlur result="effect1_foregroundBlur_994_2580" stdDeviation="4.5"/></filter><filter id="s" width="550.5" height="704.5" x="12.5" y="12.5" color-interpolation-filters="sRGB" filterUnits="userSpaceOnUse"><feFlood flood-opacity="0" result="BackgroundImageFix"/><feBlend in="SourceGraphic" in2="BackgroundImageFix" result="shape"/><feGaussianBlur result="effect1_foregroundBlur_994_2580" stdDeviation=".5"/></filter></defs></svg>