<svg xmlns="http://www.w3.org/2000/svg" width="203" height="361" fill="none" viewBox="0 0 203 361"><g clip-path="url(#a)"><path fill="#e5eaff" d="M0 41.462C0 18.586 18.545.042 41.42.042h120.16c22.876 0 41.42 18.545 41.42 41.42v277.16c0 22.876-18.544 41.42-41.42 41.42H41.42c-22.876 0-41.42-18.544-41.42-41.42z"/><g filter="url(#b)"><circle cx="102" cy="433.042" r="194" fill="#193ae6" fill-opacity=".2"/></g><g filter="url(#c)"><circle cx="102" cy="433.042" r="153" fill="#193ae6" fill-opacity=".2"/></g><g filter="url(#d)"><circle cx="102" cy="433.042" r="107" fill="#193ae6" fill-opacity=".2"/></g><path fill="#193ae6" d="M62.747 166.577q-4.929 0-7.833-2.751-2.904-2.79-2.904-8.024v-6.267q0-5.235 2.904-7.986 2.904-2.79 7.833-2.789t7.833 2.789q2.942 2.751 2.942 7.986v6.267q0 5.234-2.942 8.024-2.904 2.751-7.833 2.751m0-3.706q3.172 0 4.891-1.835 1.72-1.872 1.72-5.082v-6.572q0-3.21-1.72-5.044-1.72-1.872-4.89-1.872-3.096 0-4.854 1.872-1.758 1.834-1.757 5.044v6.572q0 3.21 1.757 5.082 1.758 1.835 4.853 1.835m13.75 3.171v-26.747h4.127v23.002H93.5v3.745zm24.835.535q-2.025 0-3.63-.688-1.566-.687-2.522-2.025-.917-1.337-.917-3.248 0-1.948.917-3.21.955-1.299 2.56-1.948 1.644-.65 3.707-.65h5.731v-1.223q0-1.643-.993-2.636-.994-.994-3.057-.994-2.025 0-3.095.956-1.07.954-1.414 2.483l-3.668-1.184a7.9 7.9 0 0 1 1.452-2.751q1.032-1.261 2.713-2.026t4.05-.764q3.669 0 5.77 1.873t2.101 5.311v7.757q0 1.146 1.07 1.146h1.605v3.286h-2.942q-1.338 0-2.178-.688t-.841-1.872v-.115h-.573q-.305.573-.917 1.338-.61.764-1.796 1.337-1.184.535-3.133.535m.573-3.248q2.369 0 3.821-1.337 1.452-1.376 1.452-3.745v-.382h-5.502q-1.567 0-2.522.688-.955.65-.955 1.948 0 1.3.993 2.064.994.764 2.713.764m13.723 2.713v-26.747h3.936v15.246h.611l7.413-7.337h5.235l-9.514 9.133 9.82 9.705h-5.197l-7.757-7.833h-.611v7.833zm26.689.535q-2.866 0-5.006-1.185a8.8 8.8 0 0 1-3.362-3.4q-1.185-2.217-1.185-5.121v-.458q0-2.942 1.185-5.12 1.184-2.216 3.286-3.401 2.139-1.223 4.929-1.223 2.713 0 4.738 1.223 2.064 1.185 3.21 3.324 1.146 2.14 1.146 5.006v1.49h-14.482q.077 2.484 1.643 3.974 1.605 1.452 3.974 1.452 2.217 0 3.325-.993a6.9 6.9 0 0 0 1.757-2.293l3.248 1.681q-.535 1.07-1.566 2.255-.995 1.184-2.637 1.987-1.643.802-4.203.802m-5.502-11.884h10.431q-.153-2.139-1.528-3.324-1.376-1.223-3.592-1.223t-3.63 1.223q-1.376 1.185-1.681 3.324"/><path fill="#363636" d="M29.607 195.042v-11.2h3.248l2.448 10.048h.256l2.448-10.048h3.248v11.2h-1.68v-9.984h-.256l-2.432 9.984h-2.912l-2.432-9.984h-.256v9.984zm15.68.224a3.8 3.8 0 0 1-1.52-.288 2.5 2.5 0 0 1-1.056-.848q-.384-.56-.384-1.36 0-.816.384-1.344a2.4 2.4 0 0 1 1.072-.816 4.2 4.2 0 0 1 1.552-.272h2.4v-.512q0-.689-.416-1.104t-1.28-.416q-.847 0-1.296.4a1.9 1.9 0 0 0-.592 1.04l-1.536-.496q.192-.64.608-1.152a3.1 3.1 0 0 1 1.136-.848q.705-.32 1.696-.32 1.537 0 2.416.784.88.784.88 2.224v3.248q0 .48.448.48h.672v1.376H49.24q-.56 0-.912-.288t-.352-.784v-.048h-.24q-.127.24-.384.56-.255.32-.752.56-.496.224-1.312.224m.24-1.36q.993 0 1.6-.56.608-.576.608-1.568v-.16h-2.304q-.656 0-1.056.288-.4.272-.4.816.001.544.416.864.416.32 1.136.32m5.747 1.136v-7.888h1.616v1.184h.256q.224-.48.8-.896t1.712-.416q.895 0 1.584.4.704.4 1.104 1.136.4.72.4 1.744v4.736h-1.648v-4.608q0-1.024-.512-1.504-.511-.496-1.408-.496-1.024 0-1.648.672-.608.672-.608 1.952v3.984zm11.492.224a3.8 3.8 0 0 1-1.52-.288 2.5 2.5 0 0 1-1.056-.848q-.384-.56-.384-1.36 0-.816.384-1.344a2.4 2.4 0 0 1 1.072-.816 4.2 4.2 0 0 1 1.552-.272h2.4v-.512q-.001-.689-.416-1.104-.416-.416-1.28-.416-.849 0-1.296.4a1.9 1.9 0 0 0-.592 1.04l-1.536-.496q.191-.64.608-1.152a3.1 3.1 0 0 1 1.136-.848q.703-.32 1.696-.32 1.536 0 2.416.784t.88 2.224v3.248q0 .48.448.48h.672v1.376h-1.232q-.561 0-.912-.288-.352-.288-.352-.784v-.048h-.24q-.129.24-.384.56-.257.32-.752.56-.496.224-1.312.224m.24-1.36q.99 0 1.6-.56.608-.576.608-1.568v-.16H62.91q-.657 0-1.056.288-.4.272-.4.816t.416.864 1.136.32m5.174-2.768v-.24q0-1.248.496-2.128.513-.88 1.344-1.36a3.6 3.6 0 0 1 1.824-.48q1.152 0 1.76.432.624.432.912.928h.256v-1.136h1.6v9.504q0 .72-.432 1.152-.415.432-1.152.432h-5.312v-1.44h4.8q.465 0 .464-.48v-2.512h-.256a3 3 0 0 1-.496.592q-.32.304-.848.496-.51.192-1.296.192a3.8 3.8 0 0 1-1.84-.464 3.54 3.54 0 0 1-1.328-1.36q-.496-.896-.496-2.128m4.112 2.512q1.073 0 1.76-.672.704-.688.704-1.888v-.144q0-1.232-.688-1.888-.687-.672-1.776-.672-1.056 0-1.76.672-.687.656-.688 1.888v.144q0 1.2.688 1.888.704.672 1.76.672m9.323 1.616q-1.2 0-2.096-.496a3.7 3.7 0 0 1-1.408-1.424q-.495-.928-.496-2.144v-.192q0-1.232.496-2.144.496-.928 1.376-1.424.895-.512 2.064-.512 1.135 0 1.984.512a3.45 3.45 0 0 1 1.344 1.392q.48.896.48 2.096v.624h-6.064q.031 1.04.688 1.664.671.608 1.664.608.927 0 1.392-.416.48-.415.736-.96l1.36.704q-.224.448-.656.944-.416.496-1.104.832t-1.76.336m-2.304-4.976h4.368q-.064-.896-.64-1.392-.576-.512-1.504-.512-.929 0-1.52.512-.576.496-.704 1.392m10.496 4.976q-.977 0-1.808-.48a3.6 3.6 0 0 1-1.344-1.376q-.496-.912-.496-2.192v-.24q0-1.264.496-2.176.495-.912 1.328-1.392a3.6 3.6 0 0 1 1.824-.48q.768 0 1.28.192.528.192.864.496.335.288.512.608h.256v-4.384h1.648v11.2H92.75v-1.12h-.256q-.304.512-.928.928-.609.416-1.76.416m.464-1.44q1.07 0 1.76-.688.704-.689.704-1.968v-.144q0-1.264-.688-1.952-.69-.688-1.776-.688-1.056 0-1.76.688-.689.688-.688 1.952v.144q0 1.28.688 1.968.704.688 1.76.688m8.952 1.216v-11.2h1.728v9.632h5.392v1.568zm10.399.224a3.8 3.8 0 0 1-1.52-.288 2.5 2.5 0 0 1-1.056-.848q-.384-.56-.384-1.36 0-.816.384-1.344a2.4 2.4 0 0 1 1.072-.816 4.2 4.2 0 0 1 1.552-.272h2.4v-.512q0-.689-.416-1.104t-1.28-.416q-.849 0-1.296.4a1.9 1.9 0 0 0-.592 1.04l-1.536-.496q.192-.64.608-1.152a3.1 3.1 0 0 1 1.136-.848q.703-.32 1.696-.32 1.536 0 2.416.784t.88 2.224v3.248q0 .48.448.48h.672v1.376h-1.232q-.561 0-.912-.288-.352-.288-.352-.784v-.048h-.24q-.129.24-.384.56-.257.32-.752.56-.496.224-1.312.224m.24-1.36q.991 0 1.6-.56.608-.576.608-1.568v-.16h-2.304q-.657 0-1.056.288-.4.272-.4.816t.416.864 1.136.32m5.746 1.136v-11.2h1.648v6.384h.256l3.104-3.072h2.192l-3.984 3.824 4.112 4.064h-2.176l-3.248-3.28h-.256v3.28zm11.176.224q-1.2 0-2.096-.496a3.7 3.7 0 0 1-1.408-1.424q-.496-.928-.496-2.144v-.192q0-1.232.496-2.144a3.47 3.47 0 0 1 1.376-1.424q.895-.512 2.064-.512 1.135 0 1.984.512a3.45 3.45 0 0 1 1.344 1.392q.48.896.48 2.096v.624h-6.064q.031 1.04.688 1.664.671.608 1.664.608.927 0 1.392-.416.48-.415.736-.96l1.36.704a4.6 4.6 0 0 1-.656.944q-.417.496-1.104.832-.689.336-1.76.336m-2.304-4.976h4.368q-.064-.896-.64-1.392-.577-.512-1.504-.512-.929 0-1.52.512-.576.496-.704 1.392m7.231 4.752v-11.2h1.648v4.432h.256q.16-.304.448-.592.304-.288.784-.464.496-.192 1.248-.192.897 0 1.584.4.705.4 1.104 1.136.4.72.4 1.744v4.736h-1.648v-4.608q0-1.024-.512-1.504-.511-.496-1.408-.496-1.023 0-1.648.672-.608.672-.608 1.952v3.984zm12.74.224q-1.184 0-2.112-.48a3.66 3.66 0 0 1-1.44-1.408q-.528-.912-.528-2.16v-.24q0-1.248.528-2.144a3.66 3.66 0 0 1 1.44-1.408q.928-.496 2.112-.496 1.183 0 2.112.496.928.496 1.456 1.408.528.896.528 2.144v.24q0 1.248-.528 2.16a3.63 3.63 0 0 1-1.456 1.408q-.929.48-2.112.48m0-1.472q1.088 0 1.76-.688.688-.704.688-1.936v-.144q0-1.232-.672-1.92-.672-.704-1.776-.704-1.072 0-1.76.704-.672.689-.672 1.92v.144q0 1.232.672 1.936.688.688 1.76.688m8.372 1.392q-.897 0-1.6-.4a2.8 2.8 0 0 1-1.104-1.136q-.4-.736-.4-1.76v-4.736h1.648v4.624q0 1.024.512 1.52.512.48 1.424.48 1.007 0 1.616-.672.624-.689.624-1.968v-3.984h1.648v7.888h-1.616v-1.184h-.256q-.225.48-.8.912-.576.416-1.696.416m9.236.08q-1.504 0-2.496-.672t-1.216-2.032l1.536-.368q.128.656.432 1.04t.752.544q.464.16.992.16.785 0 1.2-.304.432-.304.432-.784t-.4-.704-1.184-.368l-.544-.096a7 7 0 0 1-1.456-.416q-.656-.272-1.04-.752t-.384-1.232q0-1.12.832-1.728.832-.624 2.208-.624 1.328 0 2.176.608.864.592 1.12 1.616l-1.536.432q-.144-.72-.608-1.008-.464-.304-1.152-.304-.672 0-1.056.256a.77.77 0 0 0-.384.688q0 .48.368.704.384.223 1.024.336l.56.096a9 9 0 0 1 1.552.4q.703.256 1.104.736.416.48.416 1.28 0 1.184-.88 1.84t-2.368.656m7.99 0q-1.2 0-2.096-.496a3.7 3.7 0 0 1-1.408-1.424q-.496-.928-.496-2.144v-.192q0-1.232.496-2.144a3.5 3.5 0 0 1 1.376-1.424q.897-.512 2.064-.512 1.137 0 1.984.512a3.45 3.45 0 0 1 1.344 1.392q.48.896.48 2.096v.624h-6.064q.033 1.04.688 1.664.672.608 1.664.608.928 0 1.392-.416.48-.415.736-.96l1.36.704a4.6 4.6 0 0 1-.656.944q-.415.496-1.104.832-.687.336-1.76.336m-2.304-4.976h4.368q-.064-.896-.64-1.392-.576-.512-1.504-.512-.927 0-1.52.512-.575.496-.704 1.392"/></g><defs><filter id="b" width="420" height="420" x="-108" y="223.042" color-interpolation-filters="sRGB" filterUnits="userSpaceOnUse"><feFlood flood-opacity="0" result="BackgroundImageFix"/><feBlend in="SourceGraphic" in2="BackgroundImageFix" result="shape"/><feGaussianBlur result="effect1_foregroundBlur_1128_2603" stdDeviation="8"/></filter><filter id="c" width="338" height="338" x="-67" y="264.042" color-interpolation-filters="sRGB" filterUnits="userSpaceOnUse"><feFlood flood-opacity="0" result="BackgroundImageFix"/><feBlend in="SourceGraphic" in2="BackgroundImageFix" result="shape"/><feGaussianBlur result="effect1_foregroundBlur_1128_2603" stdDeviation="8"/></filter><filter id="d" width="246" height="246" x="-21" y="310.042" color-interpolation-filters="sRGB" filterUnits="userSpaceOnUse"><feFlood flood-opacity="0" result="BackgroundImageFix"/><feBlend in="SourceGraphic" in2="BackgroundImageFix" result="shape"/><feGaussianBlur result="effect1_foregroundBlur_1128_2603" stdDeviation="8"/></filter><clipPath id="a"><path fill="#fff" d="M0 41.462C0 18.586 18.545.042 41.42.042h120.16c22.876 0 41.42 18.545 41.42 41.42v277.16c0 22.876-18.544 41.42-41.42 41.42H41.42c-22.876 0-41.42-18.544-41.42-41.42z"/></clipPath></defs></svg>