<svg xmlns="http://www.w3.org/2000/svg" width="32" height="32" fill="none" viewBox="0 0 32 32"><g clip-path="url(#a)"><path fill="#857f07" fill-rule="evenodd" d="M29.47 24.929c-1.74-.048-3.09.13-4.222.606-.326.13-.849.13-.892.54.175.173.195.455.348.693.261.433.719 1.016 1.132 1.319l1.393.995c.848.519 1.806.822 2.633 1.34.479.304.957.693 1.436 1.018.244.173.392.454.697.562v-.065c-.152-.194-.196-.475-.348-.693l-.654-.626a10.3 10.3 0 0 0-2.263-2.185c-.697-.476-2.22-1.124-2.502-1.924l-.043-.049c.478-.048 1.044-.216 1.501-.346.74-.194 1.415-.152 2.176-.346l1.045-.303v-.194c-.392-.389-.675-.908-1.088-1.276-1.11-.951-2.329-1.882-3.591-2.66-.675-.432-1.546-.714-2.264-1.081-.262-.13-.696-.195-.848-.411-.393-.475-.61-1.103-.893-1.666l-1.784-3.763c-.392-.844-.632-1.687-1.11-2.466-2.242-3.676-4.68-5.904-8.423-8.089-.805-.454-1.763-.65-2.78-.887l-1.633-.087c-.349-.151-.696-.562-1.001-.757-1.24-.779-4.44-2.466-5.355-.243-.587 1.406.871 2.79 1.366 3.504.37.498.849 1.06 1.11 1.622.147.368.196.757.349 1.147.347.951.674 2.011 1.131 2.899.244.454.5.93.805 1.34.174.243.48.347.544.736-.305.433-.326 1.081-.5 1.623-.784 2.444-.479 5.472.63 7.271.35.54 1.171 1.73 2.287 1.276.979-.39.76-1.622 1.043-2.703.066-.26.022-.433.153-.606v.048l.892 1.795c.675 1.06 1.85 2.163 2.83 2.9.521.388.935 1.06 1.588 1.297v-.066h-.043c-.131-.194-.327-.28-.501-.432-.392-.39-.827-.865-1.132-1.298-.914-1.21-1.718-2.552-2.437-3.936-.349-.67-.654-1.406-.935-2.076-.132-.26-.132-.65-.35-.779-.326.475-.804.887-1.045 1.47-.413.93-.456 2.077-.608 3.267-.088.022-.05 0-.088.048-.696-.172-.936-.887-1.197-1.492-.652-1.536-.762-4.001-.196-5.775.152-.454.806-1.882.545-2.314-.132-.411-.566-.649-.806-.973a8.7 8.7 0 0 1-.783-1.385C4.267 9.083 4.006 7.742 3.44 6.53c-.262-.562-.718-1.147-1.089-1.665-.413-.584-.87-.996-1.196-1.687-.109-.243-.261-.628-.087-.887.043-.173.13-.243.304-.282.283-.242 1.089.065 1.372.194.804.325 1.479.628 2.154 1.081.305.217.631.628 1.023.736h.458c.696.151 1.479.049 2.131.243 1.154.368 2.198.908 3.135 1.493a19.23 19.23 0 0 1 6.79 7.397c.26.497.37.952.61 1.47.457 1.061 1.023 2.142 1.479 3.181.457 1.017.892 2.055 1.545 2.899.327.454 1.632.692 2.22.93.435.194 1.11.368 1.502.606.74.454 1.48.973 2.175 1.47.348.26 1.437.8 1.502 1.232zM7.276 6.134c-.3-.003-.6.033-.892.108v.048h.043c.175.346.48.585.697.887l.5 1.039.044-.049c.305-.216.457-.562.457-1.08-.13-.152-.152-.304-.26-.455-.131-.216-.414-.325-.589-.497z" clip-rule="evenodd"/></g><defs><clipPath id="a"><path fill="#fff" d="M0 0h32v32H0z"/></clipPath></defs></svg>