<svg width="953" height="500" viewBox="0 0 953 500" fill="none" xmlns="http://www.w3.org/2000/svg">
<g filter="url(#filter0_f_5_472)">
<path d="M290.5 303.464C290.5 362.559 219.094 410.464 160 410.464C100.906 410.464 34 350.559 34 291.464C34 232.37 100.906 196.464 160 196.464C219.094 196.464 290.5 244.37 290.5 303.464Z" fill="url(#paint0_linear_5_472)"/>
</g>
<path d="M190 291.773C301.125 288.855 572.504 226.51 769.02 0.464355M190 291.773C384.26 286.355 808.624 248.014 952 137.992M190 291.773C394.286 315.111 832.687 352.785 952 316.778M190 291.773C362.536 392.626 756.487 506.066 952 498.064" stroke="url(#paint1_linear_5_472)" stroke-width="1.41589"/>
<path d="M190 291.773C301.125 288.855 572.504 226.51 769.02 0.464355M190 291.773C384.26 286.355 808.624 248.014 952 137.992M190 291.773C394.286 315.111 832.687 352.785 952 316.778M190 291.773C362.536 392.626 756.487 506.066 952 498.064" stroke="url(#paint2_linear_5_472)" stroke-width="1.41589"/>
<path d="M190 291.773C301.125 288.855 572.504 226.51 769.02 0.464355M190 291.773C384.26 286.355 808.624 248.014 952 137.992M190 291.773C394.286 315.111 832.687 352.785 952 316.778M190 291.773C362.536 392.626 756.487 506.066 952 498.064" stroke="url(#paint3_linear_5_472)" stroke-width="1.41589"/>
<g filter="url(#filter1_d_5_472)">
<rect x="535.422" y="195.886" width="96.5781" height="96.5781" rx="32.9403" fill="white"/>
<rect x="536.334" y="196.799" width="94.7534" height="94.7534" rx="32.0279" stroke="white" stroke-width="1.82467"/>
<g clip-path="url(#clip0_5_472)">
<mask id="mask0_5_472" style="mask-type:luminance" maskUnits="userSpaceOnUse" x="387" y="218" width="223" height="52">
<path d="M609.24 218.946H387.212V269.81H609.24V218.946Z" fill="white"/>
</mask>
<g mask="url(#mask0_5_472)">
<path d="M605.121 230.907C607.073 233.087 607.938 235.801 608.558 238.536C611.742 252.622 603.276 266.165 589.169 269.196C573.752 272.509 560.655 261.743 558.689 248.256C557.818 242.71 558.816 237.032 561.527 232.116C561.776 231.655 561.94 231.103 562.519 230.898L569.799 231.018L567.316 236.268C567.316 236.448 567.316 236.628 567.316 236.808C569.109 242.011 572.452 246.287 575.623 250.662C575.964 252.519 575.712 254.477 576.539 256.252C578.852 258.864 581.163 261.477 583.474 264.093C583.644 264.287 583.849 264.41 584.06 264.122C585.117 263.477 585.425 262.291 586.009 261.326C587.335 259.143 588.777 257.018 589.824 254.673L590.146 254.163C591.444 253.658 592.263 252.496 593.41 251.789C593.794 251.578 594.107 251.259 594.311 250.871C594.516 250.483 594.601 250.044 594.557 249.608C594.49 247.416 594.533 245.207 594.53 243.023C595.051 242.509 595.54 241.965 595.998 241.395C597.116 239.825 598.877 238.754 599.534 236.835C599.65 236.85 599.768 236.83 599.873 236.777C599.977 236.725 600.063 236.643 600.121 236.541C600.585 235.837 600.086 235.247 599.884 234.628C599.496 233.436 598.754 232.362 598.678 231.065L605.121 230.907Z" fill="#287ABE"/>
<path d="M569.823 231.019L562.543 230.898C563.503 228.401 565.401 226.614 567.361 224.971C570.735 222.139 574.606 220.184 578.976 219.395C586.576 218.042 593.49 219.689 599.609 224.425C601.888 226.186 603.957 228.181 605.148 230.898L598.693 231.039L593.411 230.975V229.193L597.196 229.173L597.319 229.105L597.199 228.906C596.562 228.281 595.801 227.797 594.964 227.484C594.128 227.171 593.236 227.037 592.345 227.089C587.14 227.213 581.931 227.139 576.725 227.128C574.899 227.128 573.38 227.908 571.916 228.874C570.566 228.932 570.542 230.085 570.193 230.966L569.823 231.019Z" fill="#B8E1F2"/>
<path d="M567.321 236.803C567.321 236.623 567.321 236.443 567.321 236.263C570.364 235.36 573.159 233.857 576.022 232.537C576.929 232.117 578.179 232.152 578.664 230.99C580.406 231.063 582.184 230.697 583.895 231.219C583.909 235.327 583.923 239.445 583.937 243.573H583.667C580.324 242.144 577.005 240.659 573.633 239.306C571.541 238.476 569.625 237.15 567.321 236.803Z" fill="#B6E0F2"/>
<path d="M567.321 236.803C569.622 237.147 571.538 238.47 573.642 239.315C577.014 240.668 580.333 242.153 583.675 243.582C583.408 244.835 582.168 245.134 581.386 245.871C579.605 247.555 577.475 248.838 575.776 250.625C575.73 250.646 575.68 250.658 575.63 250.66C572.46 246.285 569.117 242.012 567.321 236.803Z" fill="#90D4F0"/>
<path d="M594.549 243.012C594.549 245.207 594.509 247.414 594.576 249.597C594.62 250.033 594.535 250.472 594.33 250.86C594.126 251.248 593.813 251.567 593.429 251.778C592.282 252.485 591.463 253.647 590.165 254.152C588.781 252.391 587.918 250.29 586.676 248.441C585.832 247.185 585.482 245.565 584.036 244.744C584.036 244.466 584.041 244.188 584.051 243.91L584.611 243.617C584.864 243.928 585.218 243.887 585.546 243.857C588.542 243.583 591.543 243.302 594.549 243.012Z" fill="#4D8AC8"/>
<path d="M576.544 256.257C575.717 254.478 575.958 252.524 575.631 250.664C575.683 250.661 575.733 250.649 575.778 250.628C578.42 250.74 581.06 250.807 583.684 251.215C583.684 253.269 583.679 255.324 583.669 257.378C583.14 257.357 582.612 257.3 582.091 257.208C580.236 256.92 578.446 256.263 576.544 256.257Z" fill="#B6E0F2"/>
<path d="M583.68 257.376C583.68 255.321 583.684 253.267 583.693 251.213C584.301 249.083 583.788 246.894 584.026 244.757C585.475 245.579 585.827 247.202 586.666 248.455C587.911 250.306 588.77 252.396 590.156 254.165L589.833 254.676L583.931 257.39C583.847 257.394 583.763 257.389 583.68 257.376Z" fill="#58AFDD"/>
<path d="M593.384 230.982L598.666 231.046C598.742 232.344 599.484 233.418 599.872 234.609C600.074 235.231 600.573 235.818 600.11 236.522C599.994 236.513 599.879 236.535 599.775 236.587C599.672 236.639 599.584 236.718 599.522 236.816C598.422 237.021 597.468 237.605 596.473 238.051C595.479 238.497 594.596 239.243 593.418 239.21C593.418 236.487 593.414 233.765 593.404 231.044L593.384 230.982Z" fill="#4D8AC8"/>
<path d="M593.436 239.216C594.611 239.249 595.491 238.5 596.491 238.057C597.492 237.614 598.44 237.027 599.54 236.822C598.88 238.744 597.122 239.812 596.004 241.382C595.546 241.952 595.057 242.496 594.537 243.011C591.534 243.294 588.531 243.577 585.528 243.859C585.199 243.888 584.844 243.929 584.592 243.618C586.666 242.658 588.756 241.731 590.807 240.725C591.716 240.284 592.77 240.076 593.436 239.216Z" fill="#266FA8"/>
<path d="M583.677 257.373C583.763 257.382 583.85 257.382 583.937 257.373C583.984 259.619 584.031 261.869 584.075 264.122C583.864 264.416 583.662 264.284 583.488 264.093C581.174 261.485 578.863 258.875 576.554 256.264C578.453 256.264 580.243 256.927 582.098 257.215C582.619 257.303 583.147 257.356 583.677 257.373Z" fill="#90D4F0"/>
<path d="M578.685 230.995C578.188 232.169 576.938 232.122 576.043 232.541C573.18 233.862 570.385 235.364 567.343 236.268L569.828 231.018L570.192 230.971L578.685 230.995Z" fill="#90D4F0"/>
<path d="M584.069 264.113C584.025 261.867 583.978 259.618 583.931 257.364L589.833 254.649C588.785 256.997 587.344 259.119 586.018 261.302C585.449 262.279 585.126 263.465 584.069 264.113Z" fill="#266FA8"/>
<path d="M599.535 236.827C599.598 236.729 599.685 236.65 599.788 236.598C599.892 236.546 600.007 236.524 600.123 236.533C600.066 236.635 599.979 236.717 599.874 236.77C599.769 236.822 599.651 236.842 599.535 236.827Z" fill="#266FA8"/>
<path d="M571.901 228.879C573.368 227.914 574.885 227.119 576.71 227.133C581.919 227.133 587.128 227.219 592.33 227.095C593.222 227.042 594.116 227.177 594.953 227.49C595.791 227.803 596.552 228.289 597.19 228.915C597.19 229.005 597.19 229.095 597.19 229.185L593.375 229.205H573.743C573.11 229.205 572.47 229.243 571.901 228.879Z" fill="#F4FAFD"/>
<path d="M571.887 228.881C572.456 229.245 573.096 229.204 573.73 229.204H593.361V230.985L593.385 231.049L583.903 231.229C582.178 230.709 580.414 231.073 578.672 231L570.162 230.979C570.516 230.093 570.537 228.94 571.887 228.881Z" fill="#E9F6FD"/>
<path d="M597.188 229.172C597.188 229.082 597.188 228.992 597.188 228.902L597.307 229.101L597.188 229.172Z" fill="#E9F6FD"/>
<path d="M583.921 231.228L593.42 231.055C593.42 233.778 593.425 236.501 593.434 239.222C592.768 240.082 591.718 240.29 590.818 240.733C588.763 241.74 586.676 242.667 584.602 243.627L584.042 243.92L583.962 243.588L583.921 231.228Z" fill="#68C1EA"/>
</g>
</g>
</g>
<g filter="url(#filter2_d_5_472)">
<rect x="416.719" y="305.464" width="61.4219" height="61.4219" rx="18.0954" fill="white"/>
<rect x="417.22" y="305.966" width="60.4195" height="60.4195" rx="17.5942" stroke="white" stroke-width="1.00237"/>
<g clip-path="url(#clip1_5_472)">
<path d="M447.561 342.654L438.219 344.905V327.857L447.561 330.039V342.654Z" fill="#E05243"/>
<path d="M447.29 342.723L456.359 344.905V327.857L447.29 330.039V342.723Z" fill="#8C3123"/>
<path d="M447.29 323.289V329.903L451.245 330.858V325.266L447.29 323.289ZM456.359 327.857V344.905L458.132 344.019V328.676L456.359 327.857ZM447.29 333.108V339.723L451.245 339.177V333.585L447.29 333.108ZM451.245 341.905L447.29 342.859V349.474L451.245 347.496V341.905Z" fill="#E05243"/>
<path d="M447.29 349.474V342.86L443.335 341.905V347.497L447.29 349.474ZM438.22 344.905V327.858L436.447 328.744V344.087L438.22 344.905ZM447.29 339.655V333.04L443.335 333.586V339.177L447.29 339.655ZM443.335 330.858L447.29 329.903V323.289L443.335 325.266V330.858Z" fill="#8C3123"/>
<path d="M451.241 330.856L447.286 331.606L443.331 330.856L447.286 329.833L451.241 330.856Z" fill="#5E1F18"/>
<path d="M451.241 341.904L447.286 341.154L443.331 341.904L447.286 342.995L451.241 341.904Z" fill="#F2B0A9"/>
</g>
</g>
<circle cx="160" cy="303.464" r="107" fill="white"/>
<path d="M104.309 320.133C100.106 320.133 96.7633 318.987 94.2798 316.694C91.7964 314.37 90.5546 311.059 90.5546 306.76V298.737C90.5546 294.439 91.7964 291.143 94.2798 288.851C96.7633 286.527 100.106 285.365 104.309 285.365C108.512 285.365 111.855 286.527 114.339 288.851C116.822 291.143 118.064 294.439 118.064 298.737V306.76C118.064 311.059 116.822 314.37 114.339 316.694C111.855 318.987 108.512 320.133 104.309 320.133ZM104.309 314.497C106.665 314.497 108.496 313.813 109.801 312.444C111.107 311.075 111.76 309.244 111.76 306.952V298.546C111.76 296.254 111.107 294.423 109.801 293.054C108.496 291.685 106.665 291 104.309 291C101.985 291 100.154 291.685 98.8169 293.054C97.5115 294.423 96.8588 296.254 96.8588 298.546V306.952C96.8588 309.244 97.5115 311.075 98.8169 312.444C100.154 313.813 101.985 314.497 104.309 314.497ZM124.549 319.464V286.033H130.853V313.733H146.136V319.464H124.549ZM158.935 320.133C157.247 320.133 155.735 319.846 154.397 319.273C153.06 318.668 151.994 317.809 151.198 316.694C150.433 315.548 150.051 314.163 150.051 312.539C150.051 310.916 150.433 309.562 151.198 308.48C151.994 307.365 153.076 306.538 154.445 305.996C155.846 305.423 157.438 305.137 159.221 305.137H165.716V303.799C165.716 302.685 165.366 301.778 164.666 301.077C163.965 300.345 162.851 299.979 161.322 299.979C159.826 299.979 158.712 300.329 157.979 301.029C157.247 301.698 156.769 302.574 156.547 303.656L151.007 301.794C151.389 300.584 151.994 299.485 152.821 298.498C153.681 297.479 154.811 296.667 156.212 296.063C157.645 295.426 159.38 295.107 161.418 295.107C164.538 295.107 167.006 295.887 168.821 297.448C170.635 299.008 171.543 301.268 171.543 304.229V313.065C171.543 314.02 171.989 314.497 172.88 314.497H174.79V319.464H170.779C169.601 319.464 168.63 319.178 167.865 318.605C167.101 318.032 166.719 317.267 166.719 316.312V316.265H165.812C165.684 316.647 165.398 317.156 164.952 317.793C164.506 318.398 163.806 318.939 162.851 319.417C161.896 319.894 160.59 320.133 158.935 320.133ZM159.985 315.262C161.673 315.262 163.042 314.8 164.093 313.877C165.175 312.921 165.716 311.664 165.716 310.104V309.626H159.651C158.537 309.626 157.661 309.865 157.024 310.342C156.387 310.82 156.069 311.489 156.069 312.348C156.069 313.208 156.403 313.908 157.072 314.45C157.741 314.991 158.712 315.262 159.985 315.262ZM180.145 319.464V286.033H186.163V304.516H187.023L194.855 295.776H202.688L191.751 307.238L203.07 319.464H195.333L187.023 310.056H186.163V319.464H180.145ZM217.406 320.133C215.05 320.133 212.964 319.639 211.15 318.652C209.367 317.634 207.966 316.217 206.947 314.402C205.96 312.555 205.466 310.39 205.466 307.907V307.334C205.466 304.85 205.96 302.701 206.947 300.886C207.934 299.039 209.319 297.623 211.102 296.636C212.885 295.617 214.954 295.107 217.31 295.107C219.635 295.107 221.657 295.633 223.376 296.683C225.095 297.702 226.432 299.135 227.388 300.982C228.343 302.797 228.82 304.914 228.82 307.334V309.387H211.579C211.643 311.011 212.248 312.332 213.394 313.351C214.54 314.37 215.941 314.88 217.597 314.88C219.284 314.88 220.526 314.513 221.322 313.781C222.118 313.049 222.723 312.237 223.137 311.345L228.056 313.924C227.61 314.752 226.958 315.66 226.098 316.647C225.27 317.602 224.156 318.43 222.755 319.13C221.354 319.799 219.571 320.133 217.406 320.133ZM211.627 304.898H222.707C222.58 303.529 222.023 302.43 221.036 301.603C220.08 300.775 218.823 300.361 217.263 300.361C215.639 300.361 214.349 300.775 213.394 301.603C212.439 302.43 211.85 303.529 211.627 304.898Z" fill="url(#paint4_linear_5_472)"/>
<defs>
<filter id="filter0_f_5_472" x="0" y="162.464" width="324.5" height="282" filterUnits="userSpaceOnUse" color-interpolation-filters="sRGB">
<feFlood flood-opacity="0" result="BackgroundImageFix"/>
<feBlend mode="normal" in="SourceGraphic" in2="BackgroundImageFix" result="shape"/>
<feGaussianBlur stdDeviation="17" result="effect1_foregroundBlur_5_472"/>
</filter>
<filter id="filter1_d_5_472" x="513.526" y="173.99" width="140.37" height="140.37" filterUnits="userSpaceOnUse" color-interpolation-filters="sRGB">
<feFlood flood-opacity="0" result="BackgroundImageFix"/>
<feColorMatrix in="SourceAlpha" type="matrix" values="0 0 0 0 0 0 0 0 0 0 0 0 0 0 0 0 0 0 127 0" result="hardAlpha"/>
<feOffset/>
<feGaussianBlur stdDeviation="10.948"/>
<feComposite in2="hardAlpha" operator="out"/>
<feColorMatrix type="matrix" values="0 0 0 0 0 0 0 0 0 0 0 0 0 0 0 0 0 0 0.08 0"/>
<feBlend mode="normal" in2="BackgroundImageFix" result="effect1_dropShadow_5_472"/>
<feBlend mode="normal" in="SourceGraphic" in2="effect1_dropShadow_5_472" result="shape"/>
</filter>
<filter id="filter2_d_5_472" x="404.69" y="293.436" width="85.4787" height="85.4787" filterUnits="userSpaceOnUse" color-interpolation-filters="sRGB">
<feFlood flood-opacity="0" result="BackgroundImageFix"/>
<feColorMatrix in="SourceAlpha" type="matrix" values="0 0 0 0 0 0 0 0 0 0 0 0 0 0 0 0 0 0 127 0" result="hardAlpha"/>
<feOffset/>
<feGaussianBlur stdDeviation="6.0142"/>
<feComposite in2="hardAlpha" operator="out"/>
<feColorMatrix type="matrix" values="0 0 0 0 0 0 0 0 0 0 0 0 0 0 0 0 0 0 0.08 0"/>
<feBlend mode="normal" in2="BackgroundImageFix" result="effect1_dropShadow_5_472"/>
<feBlend mode="normal" in="SourceGraphic" in2="effect1_dropShadow_5_472" result="shape"/>
</filter>
<linearGradient id="paint0_linear_5_472" x1="39" y1="270.964" x2="277" y2="334.464" gradientUnits="userSpaceOnUse">
<stop stop-color="#009FEE" stop-opacity="0.2"/>
<stop offset="1" stop-color="#2A4AF0" stop-opacity="0.25"/>
</linearGradient>
<linearGradient id="paint1_linear_5_472" x1="190" y1="340.464" x2="1024.5" y2="259.464" gradientUnits="userSpaceOnUse">
<stop stop-color="#E0E0E0"/>
<stop offset="1" stop-color="white"/>
</linearGradient>
<linearGradient id="paint2_linear_5_472" x1="259" y1="297.464" x2="596" y2="284.464" gradientUnits="userSpaceOnUse">
<stop stop-color="#193AE6"/>
<stop offset="1" stop-color="white" stop-opacity="0"/>
</linearGradient>
<linearGradient id="paint3_linear_5_472" x1="263.5" y1="309.464" x2="333" y2="302.964" gradientUnits="userSpaceOnUse">
<stop stop-color="#009FEE"/>
<stop offset="1" stop-color="white" stop-opacity="0"/>
</linearGradient>
<linearGradient id="paint4_linear_5_472" x1="167.267" y1="279.429" x2="210.196" y2="390.483" gradientUnits="userSpaceOnUse">
<stop stop-color="#203FDD"/>
<stop offset="1" stop-color="#009FEE"/>
</linearGradient>
<clipPath id="clip0_5_472">
<rect width="51.5421" height="51.5421" fill="white" transform="translate(557.691 218.946)"/>
</clipPath>
<clipPath id="clip1_5_472">
<rect width="34.9138" height="34.9138" fill="white" transform="translate(429.835 318.923)"/>
</clipPath>
</defs>
</svg>
