<svg xmlns="http://www.w3.org/2000/svg" width="307" height="267" fill="none" viewBox="0 0 307 267"><g filter="url(#a)"><rect width="265" height="159" x="8.5" y="4" fill="#fff" rx="19.026"/><path fill="#000" d="M34.577 27.28a.425.425 0 0 1-.425.425h-3.397a.425.425 0 0 1 0-.85h3.397a.425.425 0 0 1 .425.425m-.425 1.274h-3.397a.425.425 0 0 0 0 .85h3.397a.424.424 0 1 0 0-.85m2.548-4.671v8.493a.85.85 0 0 1-.85.85h-8.493a.85.85 0 0 1-.85-.85v-8.493a.85.85 0 0 1 .85-.85h8.494a.85.85 0 0 1 .85.85m-9.343 8.493h1.274v-8.493h-1.274zm8.494 0v-8.493h-6.37v8.493zM49.895 26.334a2.8 2.8 0 0 0-.24-.62 1.655 1.655 0 0 0-.957-.805q-.315-.119-.739-.119-.62 0-1.076.25-.446.25-.728.675a3 3 0 0 0-.424.945 4.55 4.55 0 0 0 0 2.175q.14.533.424.957.282.412.728.663.456.25 1.076.25.457 0 .805-.152.348-.164.598-.435.25-.283.391-.653.141-.369.185-.793h1.326q-.043.696-.304 1.272a3.1 3.1 0 0 1-.685 1q-.435.413-1.022.641a3.5 3.5 0 0 1-1.294.229q-.87 0-1.565-.316a3.5 3.5 0 0 1-1.163-.88q-.48-.555-.74-1.294a4.9 4.9 0 0 1-.25-1.576q0-.826.25-1.566.26-.74.74-1.294.478-.555 1.163-.88a3.64 3.64 0 0 1 1.565-.326q.653 0 1.229.184.576.174 1.011.522.445.337.718.826.27.49.337 1.12zm7.139 4.045q0 .228.054.326.065.098.24.098h.13q.076 0 .174-.022v.859a2 2 0 0 1-.174.043 2.233 2.233 0 0 1-.609.098q-.381 0-.63-.152-.25-.153-.327-.533-.369.36-.913.522-.533.163-1.033.163-.38 0-.728-.109a2 2 0 0 1-.62-.293 1.6 1.6 0 0 1-.424-.511 1.66 1.66 0 0 1-.152-.728q0-.522.185-.849a1.5 1.5 0 0 1 .5-.51q.315-.185.696-.261a7 7 0 0 1 .782-.13q.337-.066.642-.088.304-.032.533-.098a.8.8 0 0 0 .37-.195q.14-.142.14-.413 0-.24-.119-.392a.67.67 0 0 0-.283-.228 1 1 0 0 0-.37-.109 2.5 2.5 0 0 0-.39-.033q-.523 0-.86.218t-.38.674h-1.24q.034-.544.261-.902a1.8 1.8 0 0 1 .577-.577q.358-.217.804-.304t.913-.087q.414 0 .816.087t.717.283q.327.195.522.51.196.305.196.75zm-1.24-1.566q-.282.185-.695.228a8 8 0 0 0-.827.11 2.3 2.3 0 0 0-.38.097 1 1 0 0 0-.326.163.7.7 0 0 0-.229.272.95.95 0 0 0-.076.402q0 .207.12.348t.283.228q.174.076.37.109.206.033.369.033.207 0 .446-.055t.445-.184q.218-.13.36-.327a.86.86 0 0 0 .14-.5zm2.606-2.805h1.174v.761h.022q.261-.489.728-.696a2.4 2.4 0 0 1 1.012-.217q.663 0 1.152.24.5.227.826.64.326.403.49.946.162.544.162 1.164 0 .565-.152 1.098-.141.532-.446.946a2.26 2.26 0 0 1-.75.652q-.456.24-1.076.24-.271 0-.544-.055a2.2 2.2 0 0 1-.521-.152 2.3 2.3 0 0 1-.468-.272 1.7 1.7 0 0 1-.348-.402h-.022v2.804H58.4zm4.327 2.816q0-.38-.098-.74a2 2 0 0 0-.293-.63 1.44 1.44 0 0 0-.49-.446 1.3 1.3 0 0 0-.674-.174q-.782 0-1.185.544-.39.543-.391 1.446 0 .424.098.794.108.358.315.62.206.26.49.412.293.153.673.153.424 0 .718-.174t.478-.446q.195-.283.272-.63a3 3 0 0 0 .087-.729m1.721-2.816h.935v-1.685h1.24v1.685h1.12v.924h-1.12v3q0 .197.01.338.022.141.077.24a.43.43 0 0 0 .184.151q.12.045.327.044h.26q.132-.01.262-.044v.957l-.403.044q-.195.021-.402.021-.489 0-.794-.087a1.2 1.2 0 0 1-.467-.271 1.04 1.04 0 0 1-.228-.457 4 4 0 0 1-.066-.62v-3.316h-.935zm9.122 5.62h-1.218v-.782h-.022q-.228.424-.684.685-.447.25-.914.25-1.108 0-1.609-.543-.489-.555-.489-1.664v-3.566h1.24v3.447q0 .738.282 1.043.283.305.794.305.39 0 .652-.12.26-.12.424-.315.163-.207.228-.49.076-.282.076-.608v-3.262h1.24zm1.307-5.62h1.163v1.087h.022q.054-.228.207-.445a2.2 2.2 0 0 1 .38-.392 2 2 0 0 1 .5-.293 1.5 1.5 0 0 1 .555-.109q.217 0 .293.01l.174.023v1.195a3 3 0 0 0-.272-.032 1.6 1.6 0 0 0-.26-.022q-.315 0-.599.13-.27.12-.478.37-.207.24-.326.598-.12.36-.12.826v2.675h-1.24zm7.49 2.316a1.9 1.9 0 0 0-.13-.566 1.3 1.3 0 0 0-.283-.467 1.2 1.2 0 0 0-.435-.326 1.2 1.2 0 0 0-.565-.13q-.326 0-.598.119a1.3 1.3 0 0 0-.456.315q-.185.196-.305.468a1.7 1.7 0 0 0-.12.587zm-2.892.815q0 .327.087.63.099.305.283.534.185.228.468.37.282.13.674.13.543 0 .87-.229.335-.24.5-.706h1.174a2.3 2.3 0 0 1-.337.815q-.24.36-.577.609-.337.24-.76.359a2.9 2.9 0 0 1-.87.13q-.663 0-1.174-.217a2.5 2.5 0 0 1-.87-.61 2.7 2.7 0 0 1-.533-.934 3.9 3.9 0 0 1-.174-1.196q0-.599.185-1.13.196-.544.543-.947.36-.412.86-.652t1.13-.239q.663 0 1.185.283.533.271.88.728.35.457.5 1.055.164.587.088 1.217zm8.132-5.273h1.24v1.175h-1.24zm0 2.142h1.24v5.62h-1.24zm2.59 0h1.174v.826l.022.022q.283-.468.74-.728a1.94 1.94 0 0 1 1.01-.272q.925 0 1.457.478.533.48.533 1.435v3.86h-1.24v-3.533q-.021-.664-.282-.957-.261-.305-.816-.305-.315 0-.565.12a1.14 1.14 0 0 0-.424.315q-.173.196-.272.468a1.7 1.7 0 0 0-.097.576v3.316h-1.24zm5.688 0h.925v-.467q0-.533.13-.86a1.2 1.2 0 0 1 .348-.51q.217-.185.49-.24.282-.065.586-.065.598 0 .87.076v.968a1.4 1.4 0 0 0-.26-.043 2 2 0 0 0-.316-.022.8.8 0 0 0-.435.12q-.174.12-.174.467v.576h1.055v.924h-1.055v4.697h-1.24v-4.697h-.924zm6.561 5.773q-.674 0-1.207-.217a2.7 2.7 0 0 1-.891-.62 2.7 2.7 0 0 1-.555-.935 3.7 3.7 0 0 1-.185-1.196q0-.64.185-1.185.195-.543.555-.935a2.6 2.6 0 0 1 .891-.609 3 3 0 0 1 1.207-.228q.674 0 1.196.228.532.217.891.61.37.39.555.934.195.544.195 1.185 0 .653-.195 1.196a2.553 2.553 0 0 1-1.446 1.555 3.1 3.1 0 0 1-1.196.217m0-.978a1.42 1.42 0 0 0 1.218-.63 1.9 1.9 0 0 0 .282-.631q.098-.36.098-.729 0-.36-.098-.717a1.8 1.8 0 0 0-.282-.631 1.42 1.42 0 0 0-1.218-.63 1.42 1.42 0 0 0-1.218.63q-.195.272-.293.63a3.04 3.04 0 0 0 0 1.447 2.1 2.1 0 0 0 .293.63q.196.282.5.457.304.174.718.174m3.868-4.795h1.163v1.087h.022q.054-.228.206-.445.163-.218.381-.392a2 2 0 0 1 .5-.293 1.5 1.5 0 0 1 .554-.109q.218 0 .294.01l.174.023v1.195a3 3 0 0 0-.272-.032 1.6 1.6 0 0 0-.261-.022q-.315 0-.598.13-.271.12-.478.37-.207.24-.326.598-.12.36-.12.826v2.675h-1.239zm3.822 0h1.174v.783h.033q.14-.207.304-.38.163-.175.359-.294a1.8 1.8 0 0 1 .467-.185q.261-.075.598-.076.511 0 .946.228.445.228.631.707.315-.435.728-.685.414-.25 1.033-.25.89 0 1.381.435.5.434.5 1.457v3.88h-1.24v-3.282q0-.337-.021-.61a1.2 1.2 0 0 0-.131-.478.68.68 0 0 0-.304-.315q-.207-.108-.566-.109-.63 0-.913.392-.283.39-.283 1.109v3.294h-1.239v-3.61q0-.586-.217-.88-.207-.305-.772-.305-.24 0-.468.098-.217.099-.391.283a1.6 1.6 0 0 0-.272.457 1.8 1.8 0 0 0-.098.62v3.337h-1.239zm14.167 4.37q0 .23.054.327.066.098.24.098h.13a1 1 0 0 0 .174-.022v.859a2 2 0 0 1-.174.043 2 2 0 0 1-.206.055 2.3 2.3 0 0 1-.403.043q-.38 0-.63-.152-.25-.153-.326-.533-.37.36-.914.522a3.5 3.5 0 0 1-1.032.163 2.4 2.4 0 0 1-.729-.109 2 2 0 0 1-.62-.293 1.6 1.6 0 0 1-.424-.511 1.7 1.7 0 0 1-.152-.728q0-.522.185-.849.195-.325.5-.51.315-.185.696-.261.392-.087.783-.13.336-.066.641-.088.305-.032.533-.098a.8.8 0 0 0 .369-.195q.142-.142.142-.413 0-.24-.12-.392a.67.67 0 0 0-.282-.228 1 1 0 0 0-.37-.109 2.5 2.5 0 0 0-.391-.033q-.523 0-.859.218-.338.218-.381.674h-1.239q.032-.544.261-.902.228-.36.576-.577.359-.217.804-.304.447-.087.914-.087.413 0 .815.087t.718.283q.326.195.521.51.196.305.196.75zm-1.239-1.565q-.284.185-.696.228a8 8 0 0 0-.826.11 2.3 2.3 0 0 0-.381.097 1 1 0 0 0-.326.163.7.7 0 0 0-.228.272.94.94 0 0 0-.076.402q0 .207.119.348.12.141.283.228.174.076.369.109.207.033.37.033.207 0 .446-.055t.446-.184q.217-.13.358-.327a.86.86 0 0 0 .142-.5zm2.007-2.805h.935v-1.685h1.24v1.685h1.12v.924h-1.12v3q0 .197.011.338a.7.7 0 0 0 .076.24.43.43 0 0 0 .185.151 1 1 0 0 0 .326.044h.261q.13-.01.261-.044v.957l-.403.044q-.195.021-.402.021-.49 0-.794-.087a1.2 1.2 0 0 1-.467-.271 1.04 1.04 0 0 1-.228-.457 4 4 0 0 1-.066-.62v-3.316h-.935zm4.219-2.142h1.239v1.175h-1.239zm0 2.142h1.239v5.62h-1.239zm5.166 5.773q-.674 0-1.207-.217a2.7 2.7 0 0 1-.891-.62 2.8 2.8 0 0 1-.555-.935 3.7 3.7 0 0 1-.184-1.196q0-.64.184-1.185a2.8 2.8 0 0 1 .555-.935 2.6 2.6 0 0 1 .891-.609 3 3 0 0 1 1.207-.228q.674 0 1.196.228.532.217.891.61.37.39.555.934.196.544.196 1.185 0 .653-.196 1.196a2.553 2.553 0 0 1-1.446 1.555 3.1 3.1 0 0 1-1.196.217m0-.978a1.42 1.42 0 0 0 1.218-.63 1.9 1.9 0 0 0 .282-.631 2.7 2.7 0 0 0 0-1.446 1.8 1.8 0 0 0-.282-.631 1.422 1.422 0 0 0-1.218-.63 1.42 1.42 0 0 0-1.218.63q-.195.272-.293.63a3.04 3.04 0 0 0 0 1.447 2.1 2.1 0 0 0 .293.63q.197.282.501.457.304.174.717.174m3.868-4.795h1.174v.826l.022.022q.282-.468.739-.728a1.94 1.94 0 0 1 1.011-.272q.924 0 1.457.478.533.48.533 1.435v3.86h-1.24v-3.533q-.021-.664-.282-.957-.261-.305-.816-.305-.315 0-.565.12a1.14 1.14 0 0 0-.424.315q-.174.196-.272.468a1.7 1.7 0 0 0-.098.576v3.316h-1.239z"/><path fill="#575757" d="M30.322 53.753q-.151-.723-.675-1.084-.514-.362-1.227-.362-.609 0-1.047.228a2.1 2.1 0 0 0-.713.619 2.7 2.7 0 0 0-.41.875q-.133.495-.133 1.027 0 .58.134 1.104.133.514.409.904.284.38.723.608.437.23 1.046.229.447 0 .79-.143a1.83 1.83 0 0 0 .999-1.037q.143-.36.17-.78h.904q-.132 1.284-.884 1.998-.751.713-2.055.713-.789 0-1.38-.266a2.76 2.76 0 0 1-.98-.752 3.3 3.3 0 0 1-.589-1.122 5 5 0 0 1-.19-1.39q0-.741.209-1.388.21-.656.609-1.142a2.9 2.9 0 0 1 1.008-.76q.609-.286 1.39-.286.531 0 1.007.143.476.142.847.418t.618.695q.248.41.324.951zm2.546 2.293q0 .447.115.799.123.343.333.58.209.229.485.352a1.49 1.49 0 0 0 1.683-.352 1.7 1.7 0 0 0 .324-.58q.123-.352.124-.8a2.3 2.3 0 0 0-.124-.789 1.65 1.65 0 0 0-.324-.59 1.4 1.4 0 0 0-.494-.361 1.492 1.492 0 0 0-1.19 0 1.4 1.4 0 0 0-.484.361q-.21.239-.333.59a2.5 2.5 0 0 0-.114.79m-.856 0q0-.543.153-1.009a2.2 2.2 0 0 1 .456-.818q.305-.351.752-.552.447-.2 1.027-.2.59 0 1.028.2.446.201.751.552.304.342.457.818.152.466.152 1.009 0 .541-.152 1.008-.153.466-.457.818a2.2 2.2 0 0 1-.751.542q-.438.19-1.028.19-.581 0-1.027-.19a2.2 2.2 0 0 1-.752-.542 2.35 2.35 0 0 1-.456-.818 3.2 3.2 0 0 1-.153-1.008m5.73-2.464h.76v.78h.02q.503-.894 1.597-.894.486 0 .809.133t.523.37q.2.24.276.572.086.323.086.723V58.5h-.809v-3.33q0-.456-.266-.723-.267-.266-.733-.266-.37 0-.647.114a1.2 1.2 0 0 0-.447.324q-.18.21-.276.494a2 2 0 0 0-.085.61V58.5h-.809zm5.285 0h.761v.78h.02q.503-.894 1.597-.894.486 0 .809.133t.523.37q.2.24.276.572.086.323.086.723V58.5h-.809v-3.33q0-.456-.266-.723-.267-.266-.733-.266-.37 0-.647.114a1.2 1.2 0 0 0-.447.324q-.18.21-.276.494a2 2 0 0 0-.085.61V58.5h-.809zm8.701 1.988a1.6 1.6 0 0 0-.133-.542 1.2 1.2 0 0 0-.295-.438 1.2 1.2 0 0 0-.437-.295 1.3 1.3 0 0 0-.552-.114q-.315 0-.571.114-.248.105-.428.295a1.4 1.4 0 0 0-.285.447q-.105.248-.124.533zm.78 1.37q-.162.828-.713 1.246-.552.42-1.39.419a2.6 2.6 0 0 1-1.026-.19 2 2 0 0 1-.723-.533 2.3 2.3 0 0 1-.448-.818 4 4 0 0 1-.161-1.037q0-.561.17-1.028a2.5 2.5 0 0 1 .477-.808q.314-.343.732-.533.428-.19.932-.19.657 0 1.085.276.437.266.694.684.266.42.362.914.105.495.085.941h-3.681q-.01.324.076.619.086.285.276.514.19.218.485.352t.694.133q.514 0 .838-.238.332-.238.437-.723zm4.253-1.779q-.094-.466-.4-.723-.303-.257-.817-.257-.438 0-.733.162-.294.162-.475.428a1.9 1.9 0 0 0-.248.618q-.075.343-.076.714 0 .342.076.666.086.323.257.58.171.247.447.4.276.152.657.152.6 0 .932-.314.342-.314.419-.885h.827q-.133.913-.685 1.408-.542.495-1.484.495-.561 0-.999-.181a2 2 0 0 1-.723-.514 2.3 2.3 0 0 1-.437-.79 3.5 3.5 0 0 1-.143-1.017q0-.552.143-1.028.143-.484.428-.837.295-.36.732-.561.438-.21 1.018-.21.42 0 .78.105.371.096.647.305.285.21.466.532.18.314.229.752zm2.893-1.58h.98v.714h-.98v3.054q0 .142.02.228.027.086.095.133a.4.4 0 0 0 .18.067q.124.01.314.01h.371v.713h-.618q-.315 0-.542-.038a.86.86 0 0 1-.362-.162.7.7 0 0 1-.2-.323 1.9 1.9 0 0 1-.066-.552v-3.13h-.837v-.713h.837v-1.475h.808zm2.468 2.465q0 .447.114.799.124.343.333.58.21.229.485.352a1.49 1.49 0 0 0 1.684-.352q.21-.237.324-.58.123-.352.123-.8a2.3 2.3 0 0 0-.123-.789 1.7 1.7 0 0 0-.324-.59 1.4 1.4 0 0 0-.494-.361 1.493 1.493 0 0 0-1.19 0 1.4 1.4 0 0 0-.485.361 1.8 1.8 0 0 0-.333.59 2.5 2.5 0 0 0-.114.79m-.856 0q0-.543.152-1.009.153-.476.457-.818.304-.351.752-.552.446-.2 1.027-.2.59 0 1.027.2.447.201.752.552.305.342.456.818.153.466.153 1.009 0 .541-.153 1.008-.151.466-.456.818a2.2 2.2 0 0 1-.752.542 2.6 2.6 0 0 1-1.027.19q-.58 0-1.028-.19a2.2 2.2 0 0 1-.751-.542 2.4 2.4 0 0 1-.457-.818 3.2 3.2 0 0 1-.152-1.008m5.7-2.464h.761v1.037h.02q.294-.6.722-.885t1.085-.266v.856q-.486 0-.828.133a1.3 1.3 0 0 0-.552.39q-.208.256-.304.628-.095.36-.095.837V58.5h-.809z"/><rect width="185.179" height="20.744" x="25.305" y="68.436" stroke="#193ae6" rx="3.577"/><g clip-path="url(#b)"><path fill="#13aa52" d="M38.397 84.243a5.436 5.436 0 1 0 0-10.872 5.436 5.436 0 0 0 0 10.872"/><path fill="#fff" d="M39.851 78.142c-.343-1.515-1.155-2.013-1.242-2.204-.096-.134-.192-.373-.192-.373l-.008-.018c-.01.134-.014.186-.142.322-.196.153-1.205 1-1.287 2.721-.077 1.606 1.16 2.563 1.327 2.685l.02.013c0 .007.052.381.089.778h.13q.048-.42.139-.834l.01-.007a2 2 0 0 0 .214-.174l.008-.007a3.08 3.08 0 0 0 .988-2.3 3.7 3.7 0 0 0-.054-.602m-1.45 2.226s0-2.252.075-2.251c.058 0 .133 2.904.133 2.904-.103-.012-.207-.478-.207-.653"/></g><path fill="#000" fill-opacity=".88" d="M50.027 75.515h1.236l2.14 5.707 2.15-5.707h1.237v6.792h-.856v-5.651h-.019l-2.121 5.65h-.77l-2.122-5.65h-.02v5.65h-.855zm8.724 4.337q0 .447.114.8.123.342.333.58.21.228.485.352a1.49 1.49 0 0 0 1.684-.352q.21-.238.323-.58.124-.353.124-.8a2.3 2.3 0 0 0-.124-.79 1.65 1.65 0 0 0-.323-.589 1.4 1.4 0 0 0-.495-.361 1.49 1.49 0 0 0-1.19 0 1.4 1.4 0 0 0-.484.361q-.21.238-.333.59a2.5 2.5 0 0 0-.114.79m-.856 0q0-.541.152-1.008.152-.476.457-.818.303-.353.751-.552.447-.2 1.027-.2.59 0 1.028.2.447.2.751.552.304.342.457.818.152.466.152 1.008 0 .543-.152 1.009-.153.465-.457.818a2.2 2.2 0 0 1-.751.542 2.6 2.6 0 0 1-1.028.19q-.58 0-1.027-.19a2.2 2.2 0 0 1-.751-.542 2.4 2.4 0 0 1-.457-.818 3.2 3.2 0 0 1-.152-1.009m5.728-2.464h.762v.78h.018q.505-.894 1.599-.894.485 0 .808.133.324.135.523.371.201.24.276.571.086.324.086.723v3.235h-.809v-3.33q0-.456-.266-.723-.267-.266-.733-.266-.371 0-.646.114a1.2 1.2 0 0 0-.448.323q-.18.21-.275.495a2 2 0 0 0-.086.609v2.778h-.809zm9.53 4.5q0 1.208-.553 1.807-.551.6-1.731.6-.342 0-.704-.076a2.2 2.2 0 0 1-.647-.248 1.5 1.5 0 0 1-.475-.447 1.27 1.27 0 0 1-.21-.675h.809q.009.22.133.37.134.153.314.248.19.096.409.133.218.048.419.048.399 0 .675-.143.276-.132.457-.38.18-.238.256-.58a3 3 0 0 0 .086-.752v-.324h-.019q-.21.457-.637.676-.42.21-.894.21-.552 0-.961-.2a2 2 0 0 1-.685-.533 2.4 2.4 0 0 1-.419-.79 3.4 3.4 0 0 1-.133-.96q0-.438.114-.895.114-.466.38-.837a2 2 0 0 1 .705-.618q.437-.248 1.075-.248.465 0 .856.21.39.2.609.609h.01v-.705h.76zm-2.265-.238q.399 0 .675-.162.286-.171.457-.437.171-.276.247-.618.087-.343.086-.685 0-.323-.076-.638a1.7 1.7 0 0 0-.247-.56 1.2 1.2 0 0 0-.428-.41 1.3 1.3 0 0 0-.647-.152q-.39 0-.666.152a1.3 1.3 0 0 0-.457.39q-.171.248-.257.57-.076.324-.076.676 0 .333.067.666.066.333.228.609.161.266.428.438.267.16.666.161m4.074-1.798q0 .447.114.8.123.342.333.58.21.228.485.352a1.49 1.49 0 0 0 1.684-.352 1.7 1.7 0 0 0 .323-.58q.124-.353.124-.8a2.3 2.3 0 0 0-.124-.79 1.65 1.65 0 0 0-.323-.589 1.4 1.4 0 0 0-.495-.361 1.49 1.49 0 0 0-1.19 0 1.4 1.4 0 0 0-.484.361q-.21.238-.333.59a2.5 2.5 0 0 0-.114.79m-.856 0q0-.541.152-1.008a2.2 2.2 0 0 1 .456-.818q.305-.353.752-.552t1.027-.2q.59 0 1.028.2.447.2.751.552.304.342.457.818.152.466.152 1.008 0 .543-.152 1.009-.153.465-.457.818a2.2 2.2 0 0 1-.751.542 2.6 2.6 0 0 1-1.028.19q-.581 0-1.027-.19a2.2 2.2 0 0 1-.752-.542 2.35 2.35 0 0 1-.456-.818 3.2 3.2 0 0 1-.152-1.009m9.413 1.694h1.503q.152 0 .38-.02.229-.027.486-.114.256-.095.504-.266.256-.171.456-.466.2-.294.324-.733.132-.447.133-1.075 0-.608-.124-1.084a2 2 0 0 0-.39-.818q-.266-.343-.694-.514-.429-.18-1.056-.18h-1.522zm-.904-6.032h2.33q1.57 0 2.417.8.847.798.847 2.435 0 .855-.19 1.522a2.9 2.9 0 0 1-.59 1.113 2.6 2.6 0 0 1-1.018.685q-.618.237-1.465.238h-2.331zm7.602 2.92h1.807q.771 0 1.104-.265.342-.276.342-.819 0-.36-.114-.57a.8.8 0 0 0-.314-.324 1.2 1.2 0 0 0-.466-.142 4 4 0 0 0-.552-.038h-1.807zm-.904-2.92h2.464q.219 0 .466.01.257 0 .504.028.247.02.457.067.22.048.37.143.334.2.562.552.238.352.238.865 0 .543-.266.942-.258.39-.743.58v.02q.63.132.961.57.333.438.333 1.066 0 .37-.133.722a1.8 1.8 0 0 1-.4.628 2 2 0 0 1-.646.438 2.25 2.25 0 0 1-.885.162h-3.282zm.904 6.032h2.264q.6 0 .932-.324.343-.323.343-.894a1.1 1.1 0 0 0-.124-.552.9.9 0 0 0-.333-.342 1.2 1.2 0 0 0-.466-.181 2.6 2.6 0 0 0-.552-.057h-2.064z"/><g clip-path="url(#c)"><path fill="#193ae6" d="m198.976 76.499 3.204 4.102q.012.017.015.037a.1.1 0 0 1-.007.04.074.074 0 0 1-.066.04h-.703a.15.15 0 0 1-.115-.055l-2.558-3.276-2.558 3.276a.14.14 0 0 1-.115.056h-.703a.072.072 0 0 1-.057-.118l3.204-4.102a.29.29 0 0 1 .229-.112.3.3 0 0 1 .23.112"/></g><path fill="#575757" d="M25.537 104.759h.961l3.577 5.508h.019v-5.508h.856v6.792h-.99l-3.548-5.451h-.019v5.451h-.856zm11.099 6.773q-.21.123-.58.123a.73.73 0 0 1-.505-.171q-.18-.18-.18-.58-.334.4-.78.58a2.6 2.6 0 0 1-.952.171q-.333 0-.637-.076a1.5 1.5 0 0 1-.514-.238 1.2 1.2 0 0 1-.352-.418 1.5 1.5 0 0 1-.124-.637q0-.419.143-.685t.371-.428q.238-.172.533-.257.305-.086.618-.143a6 6 0 0 1 .628-.095 5 5 0 0 0 .533-.095 1 1 0 0 0 .361-.181q.133-.123.133-.352a.8.8 0 0 0-.104-.428.64.64 0 0 0-.257-.247 1 1 0 0 0-.352-.115 2.6 2.6 0 0 0-.38-.028q-.514 0-.857.2-.343.19-.37.732h-.81q.02-.456.19-.77.172-.315.457-.505.285-.2.647-.285.371-.086.79-.086.332 0 .656.048.333.047.6.2a1.1 1.1 0 0 1 .428.409q.162.266.161.694v2.531q0 .285.029.418.038.133.228.133a.8.8 0 0 0 .248-.047zm-1.313-2.521a1.1 1.1 0 0 1-.4.171q-.247.047-.523.086a8 8 0 0 0-.542.076q-.276.038-.495.133a.9.9 0 0 0-.361.276q-.135.171-.134.475 0 .2.077.343a.8.8 0 0 0 .209.219q.133.085.304.123t.362.038q.4 0 .685-.104.285-.114.466-.276.181-.171.266-.362a.9.9 0 0 0 .086-.371zm2.065-2.378h.761v.723h.02q.551-.838 1.588-.838.456 0 .827.191.371.19.524.647.247-.4.647-.619.408-.219.894-.219.37 0 .666.086.305.076.513.247.219.172.333.448.124.266.124.646v3.606h-.809v-3.225q0-.228-.038-.428a.84.84 0 0 0-.142-.343.7.7 0 0 0-.295-.237 1.1 1.1 0 0 0-.476-.086q-.6 0-.942.342-.342.343-.342.914v3.063h-.809v-3.225q0-.238-.047-.438a.8.8 0 0 0-.143-.342.63.63 0 0 0-.285-.228 1 1 0 0 0-.447-.086q-.352 0-.61.143a1.5 1.5 0 0 0-.408.342 1.5 1.5 0 0 0-.229.419 1.2 1.2 0 0 0-.066.352v3.063h-.809zm11.525 1.988a1.6 1.6 0 0 0-.133-.542 1.2 1.2 0 0 0-.295-.438 1.2 1.2 0 0 0-.437-.295 1.3 1.3 0 0 0-.552-.114q-.315 0-.57.114-.249.105-.429.295t-.285.447a1.6 1.6 0 0 0-.124.533zm.78 1.37q-.16.827-.713 1.246-.551.418-1.389.418-.59 0-1.027-.19a2 2 0 0 1-.723-.533 2.3 2.3 0 0 1-.447-.818 4 4 0 0 1-.162-1.037q0-.56.171-1.027t.476-.809a2.25 2.25 0 0 1 .732-.532q.428-.19.933-.191.656 0 1.084.276.438.267.694.685a2.6 2.6 0 0 1 .362.914q.104.494.086.941h-3.682q-.01.324.076.619.086.285.276.513.19.22.485.352.295.133.695.133.513 0 .837-.237.332-.239.437-.723zm4.152-.895q0 .448.114.8.124.342.333.58.21.228.485.352a1.5 1.5 0 0 0 1.19 0q.285-.124.494-.352.21-.238.324-.58.123-.352.123-.8 0-.447-.123-.789a1.65 1.65 0 0 0-.324-.59 1.4 1.4 0 0 0-.495-.361 1.482 1.482 0 0 0-1.19 0 1.4 1.4 0 0 0-.484.361 1.8 1.8 0 0 0-.333.59 2.5 2.5 0 0 0-.114.789m-.856 0q0-.542.152-1.008.153-.476.457-.818.304-.352.751-.552t1.028-.2q.59 0 1.027.2.447.2.752.552.304.342.456.818.153.466.152 1.008 0 .543-.152 1.009a2.4 2.4 0 0 1-.456.818 2.2 2.2 0 0 1-.752.542q-.438.19-1.027.19-.58 0-1.028-.19a2.2 2.2 0 0 1-.751-.542 2.35 2.35 0 0 1-.457-.818 3.2 3.2 0 0 1-.152-1.009m6.062-1.75h-.828v-.713h.828v-.733q0-.599.342-.904.352-.313 1.018-.313.114 0 .257.019a1.3 1.3 0 0 1 .266.057v.704a.8.8 0 0 0-.228-.048 1.5 1.5 0 0 0-.229-.019q-.294 0-.456.114t-.162.438v.685h.951v.713h-.95v4.205h-.81zm7.06 4.861a5 5 0 0 1-.285.609 1.5 1.5 0 0 1-.305.4.9.9 0 0 1-.37.228 1.3 1.3 0 0 1-.467.076q-.142 0-.285-.019a1.4 1.4 0 0 1-.276-.067v-.742q.106.048.238.076a1 1 0 0 0 .238.038.66.66 0 0 0 .409-.123.7.7 0 0 0 .257-.333l.332-.828-1.95-4.889h.914l1.436 4.024h.02l1.378-4.024h.857zm3.415-3.111q0 .448.115.8.123.342.332.58.21.228.486.352a1.5 1.5 0 0 0 1.189 0q.285-.124.494-.352.21-.238.324-.58.123-.352.123-.8 0-.447-.123-.789a1.65 1.65 0 0 0-.324-.59 1.4 1.4 0 0 0-.494-.361 1.482 1.482 0 0 0-1.19 0 1.4 1.4 0 0 0-.485.361 1.8 1.8 0 0 0-.332.59 2.5 2.5 0 0 0-.115.789m-.856 0q0-.542.152-1.008.153-.476.457-.818.304-.352.752-.552.447-.2 1.027-.2.59 0 1.027.2.447.2.752.552.305.342.456.818.153.466.153 1.008 0 .543-.153 1.009a2.4 2.4 0 0 1-.456.818 2.2 2.2 0 0 1-.752.542q-.437.19-1.027.19-.58 0-1.028-.19a2.2 2.2 0 0 1-.751-.542 2.35 2.35 0 0 1-.457-.818 3.2 3.2 0 0 1-.152-1.009m9.8 2.455h-.76v-.78h-.02q-.256.456-.656.675-.399.21-.942.209-.485 0-.808-.123a1.34 1.34 0 0 1-.524-.371 1.4 1.4 0 0 1-.285-.562 3.3 3.3 0 0 1-.076-.732v-3.234h.808v3.329q0 .458.267.723.266.266.732.266.371 0 .638-.114a1.2 1.2 0 0 0 .456-.323q.18-.21.267-.485.095-.286.095-.619v-2.777h.808zm1.186-4.918h.761v1.037h.02q.294-.6.722-.885.429-.285 1.085-.267v.857q-.486 0-.828.133a1.3 1.3 0 0 0-.551.39q-.21.256-.305.628-.095.361-.095.837v2.188h-.809zM85.995 110a.94.94 0 0 0 .124.457.94.94 0 0 0 .295.295q.19.104.418.152.238.047.485.047.19 0 .4-.028.21-.029.38-.105a.7.7 0 0 0 .295-.219.6.6 0 0 0 .114-.38.54.54 0 0 0-.237-.476 2 2 0 0 0-.6-.257 7 7 0 0 0-.77-.18 4.6 4.6 0 0 1-.78-.229 1.7 1.7 0 0 1-.59-.418q-.238-.267-.238-.742 0-.371.162-.637.171-.267.428-.429.266-.17.59-.247.332-.086.656-.086.42 0 .77.077.352.066.619.247.276.171.438.476.16.294.19.742h-.809a.79.79 0 0 0-.39-.647 1.1 1.1 0 0 0-.361-.133 1.6 1.6 0 0 0-.39-.048q-.181 0-.371.028-.18.03-.333.105a.6.6 0 0 0-.248.19.46.46 0 0 0-.095.305q0 .209.143.352.152.134.38.228.23.086.514.152.285.057.57.124.306.066.59.162.296.095.514.257.229.152.362.39.143.238.143.589 0 .447-.19.742-.181.295-.486.476a1.9 1.9 0 0 1-.675.247 3.7 3.7 0 0 1-1.522-.009 2 2 0 0 1-.657-.276 1.5 1.5 0 0 1-.456-.514 1.8 1.8 0 0 1-.19-.78zm4.852-.904q0 .448.114.8.123.342.333.58.209.228.485.352a1.5 1.5 0 0 0 1.189 0q.285-.124.495-.352.21-.238.323-.58.124-.352.124-.8 0-.447-.124-.789a1.7 1.7 0 0 0-.323-.59 1.4 1.4 0 0 0-.495-.361 1.483 1.483 0 0 0-1.19 0 1.4 1.4 0 0 0-.484.361q-.21.238-.333.59a2.5 2.5 0 0 0-.114.789m-.857 0q0-.542.153-1.008.151-.476.456-.818.305-.352.752-.552t1.027-.2q.59 0 1.028.2.447.2.751.552.304.342.457.818.152.466.152 1.008 0 .543-.152 1.009a2.35 2.35 0 0 1-.457.818 2.2 2.2 0 0 1-.751.542q-.438.19-1.028.19-.581 0-1.027-.19a2.2 2.2 0 0 1-.752-.542 2.4 2.4 0 0 1-.456-.818 3.2 3.2 0 0 1-.153-1.009m9.8 2.455h-.76v-.78h-.02q-.256.456-.656.675-.399.21-.942.209-.485 0-.808-.123a1.34 1.34 0 0 1-.523-.371 1.4 1.4 0 0 1-.286-.562 3.3 3.3 0 0 1-.076-.732v-3.234h.809v3.329q0 .458.266.723.267.266.733.266.371 0 .637-.114a1.2 1.2 0 0 0 .457-.323q.18-.21.266-.485.095-.286.095-.619v-2.777h.809zm1.187-4.918h.761v1.037h.019q.294-.6.723-.885.427-.285 1.084-.267v.857q-.484 0-.828.133a1.3 1.3 0 0 0-.551.39 1.6 1.6 0 0 0-.305.628q-.095.361-.095.837v2.188h-.808zm6.368 1.579q-.096-.467-.4-.723-.304-.257-.818-.257-.438 0-.732.162a1.3 1.3 0 0 0-.476.428 1.8 1.8 0 0 0-.247.618 3.3 3.3 0 0 0-.076.714q0 .342.076.665.085.324.256.581.172.248.448.399.275.153.656.152.6 0 .932-.313.343-.315.419-.885h.827q-.132.913-.685 1.408-.542.495-1.484.494a2.6 2.6 0 0 1-.998-.18 2 2 0 0 1-.723-.514 2.3 2.3 0 0 1-.438-.79 3.5 3.5 0 0 1-.143-1.017q0-.552.143-1.028.143-.484.428-.837.295-.361.733-.561.437-.21 1.018-.21.418 0 .78.105.371.096.646.305.286.209.467.532.18.315.228.752zm5.185.409a1.6 1.6 0 0 0-.133-.542 1.2 1.2 0 0 0-.295-.438 1.2 1.2 0 0 0-.437-.295 1.3 1.3 0 0 0-.552-.114q-.314 0-.571.114-.247.105-.428.295-.18.19-.285.447-.105.248-.124.533zm.78 1.37q-.16.827-.713 1.246-.552.418-1.389.418-.59 0-1.027-.19a2 2 0 0 1-.723-.533 2.3 2.3 0 0 1-.447-.818 4 4 0 0 1-.162-1.037q0-.56.171-1.027t.476-.809q.314-.342.732-.532.428-.19.932-.191.657 0 1.085.276.438.267.694.685.267.419.362.914.105.494.085.941h-3.681q-.01.324.076.619.085.285.276.513.19.22.485.352.295.133.695.133.513 0 .837-.237.332-.239.437-.723z"/><path fill="#fff" d="M28.882 121.326h216.077a3.737 3.737 0 0 1 3.736 3.737v13.59a3.737 3.737 0 0 1-3.736 3.738H28.882a3.74 3.74 0 0 1-3.738-3.738v-13.59a3.737 3.737 0 0 1 3.738-3.737"/><path stroke="#d9d9d9" stroke-width=".679" d="M28.882 121.326h216.077a3.737 3.737 0 0 1 3.736 3.737v13.59a3.737 3.737 0 0 1-3.736 3.738H28.882a3.74 3.74 0 0 1-3.738-3.738v-13.59a3.737 3.737 0 0 1 3.738-3.737Z"/><path fill="#000" fill-opacity=".25" d="M37.632 130.553q-.077-.732-.533-1.055-.447-.333-1.151-.333-.285 0-.561.057a1.5 1.5 0 0 0-.495.19q-.21.133-.342.361a1.1 1.1 0 0 0-.124.552q0 .314.18.514.19.19.495.314.315.123.704.209.39.076.79.171.41.096.799.229.39.123.694.342.314.219.495.552.19.333.19.837 0 .542-.247.932a2 2 0 0 1-.618.628q-.381.238-.857.342-.465.115-.932.115a4 4 0 0 1-1.084-.143 2.8 2.8 0 0 1-.894-.428 2.2 2.2 0 0 1-.61-.742q-.218-.457-.218-1.075h.856q0 .428.162.742a1.6 1.6 0 0 0 .437.504q.276.2.638.295.36.095.742.095.305 0 .609-.057.314-.057.56-.19.249-.143.4-.381.153-.237.153-.609 0-.351-.19-.57a1.26 1.26 0 0 0-.495-.352 3.3 3.3 0 0 0-.695-.229q-.39-.085-.799-.171-.4-.095-.79-.209a3.3 3.3 0 0 1-.703-.314 1.6 1.6 0 0 1-.495-.504q-.18-.315-.18-.78a1.77 1.77 0 0 1 .76-1.503q.352-.248.79-.362.447-.123.913-.123.523 0 .97.123.447.124.78.39.343.267.533.676.2.399.219.96zm2.696 2.35q0 .447.114.799.124.342.333.58a1.45 1.45 0 0 0 1.085.476q.314 0 .59-.124.284-.123.494-.352.21-.237.323-.58a2.4 2.4 0 0 0 .124-.799q0-.447-.123-.789a1.6 1.6 0 0 0-.324-.59 1.432 1.432 0 0 0-1.084-.485q-.315 0-.6.123a1.4 1.4 0 0 0-.485.362 1.8 1.8 0 0 0-.333.59 2.5 2.5 0 0 0-.114.789m-.856 0q0-.542.152-1.008.152-.476.457-.818.304-.353.751-.552t1.028-.2q.59 0 1.027.2.447.2.752.552.304.342.456.818.153.466.152 1.008 0 .543-.152 1.008a2.4 2.4 0 0 1-.456.819 2.2 2.2 0 0 1-.752.542q-.438.19-1.027.19-.58 0-1.028-.19a2.2 2.2 0 0 1-.751-.542 2.4 2.4 0 0 1-.457-.819 3.2 3.2 0 0 1-.152-1.008m9.8 2.454h-.76v-.78h-.02q-.257.457-.656.676a2 2 0 0 1-.942.209q-.485 0-.809-.124a1.3 1.3 0 0 1-.523-.371 1.4 1.4 0 0 1-.285-.561 3.3 3.3 0 0 1-.076-.732v-3.235h.808v3.33q0 .456.267.723.266.266.732.266.371 0 .637-.114a1.2 1.2 0 0 0 .457-.323q.181-.21.266-.486.096-.285.096-.618v-2.778h.808zm1.186-4.918h.761v1.037h.02q.294-.599.722-.885.428-.285 1.084-.266v.856q-.485 0-.827.133a1.3 1.3 0 0 0-.552.39q-.209.258-.304.628-.095.362-.095.837v2.188h-.809zm6.368 1.579q-.094-.465-.4-.723-.303-.256-.817-.256-.438 0-.733.161a1.35 1.35 0 0 0-.475.428 1.9 1.9 0 0 0-.248.619q-.075.342-.076.713 0 .342.076.666.086.324.257.58a1.3 1.3 0 0 0 .447.4q.276.152.657.152.599 0 .932-.314.342-.314.418-.885h.828q-.133.914-.685 1.408-.542.495-1.484.495-.561 0-.999-.181a2 2 0 0 1-.723-.513 2.3 2.3 0 0 1-.437-.79 3.5 3.5 0 0 1-.143-1.018q0-.552.143-1.027.142-.486.428-.837.294-.361.732-.562a2.34 2.34 0 0 1 1.018-.209q.42 0 .78.105.37.095.647.304.285.21.466.533.18.314.228.751zm5.186.409a1.6 1.6 0 0 0-.133-.542 1.2 1.2 0 0 0-.295-.437 1.24 1.24 0 0 0-.438-.295 1.3 1.3 0 0 0-.552-.114q-.314 0-.57.114-.248.105-.428.295-.181.19-.286.447-.104.247-.124.532zm.78 1.37q-.162.828-.714 1.246-.55.42-1.389.419-.59 0-1.027-.19a2 2 0 0 1-.723-.533 2.3 2.3 0 0 1-.447-.818 4 4 0 0 1-.162-1.037q0-.562.172-1.027.17-.467.475-.809.315-.342.733-.533.428-.19.932-.19.657 0 1.084.276.438.267.695.685.266.418.361.913.105.495.086.942h-3.682q-.009.324.077.618.086.286.275.514.19.219.486.352.294.133.694.133.513 0 .837-.238.333-.237.438-.723zm3.685-5.232h.961l3.577 5.508h.019v-5.508h.856v6.792h-.99l-3.547-5.45h-.02v5.45h-.856zm11.099 6.773q-.21.124-.58.124-.315 0-.505-.171-.18-.181-.18-.58a2 2 0 0 1-.78.58 2.6 2.6 0 0 1-.952.171q-.333 0-.637-.076a1.5 1.5 0 0 1-.514-.238 1.2 1.2 0 0 1-.352-.418 1.5 1.5 0 0 1-.123-.638q0-.418.142-.685.143-.266.371-.428.238-.171.533-.257.305-.085.618-.142.333-.067.628-.095.304-.039.533-.096a1 1 0 0 0 .361-.18.46.46 0 0 0 .133-.352.78.78 0 0 0-.104-.428.64.64 0 0 0-.257-.248 1 1 0 0 0-.352-.114 2.6 2.6 0 0 0-.38-.028q-.514 0-.857.199-.343.19-.37.733h-.81q.02-.457.191-.771.17-.314.457-.504.285-.2.646-.285a3.5 3.5 0 0 1 .79-.086q.332 0 .656.048.333.047.6.199.266.144.428.41t.162.694v2.53q0 .286.028.419.039.133.228.133a.8.8 0 0 0 .248-.047zm-1.313-2.521a1 1 0 0 1-.4.172q-.246.047-.523.085a9 9 0 0 0-.542.076q-.276.038-.495.134a.9.9 0 0 0-.361.275q-.133.172-.133.476 0 .2.076.343a.8.8 0 0 0 .21.218q.133.086.303.124.172.038.362.038.4 0 .685-.105.285-.114.466-.275.181-.172.266-.362a.95.95 0 0 0 .086-.371zm2.065-2.378h.761v.723h.02q.551-.837 1.588-.837.456 0 .828.19.37.19.523.647a1.73 1.73 0 0 1 .647-.618q.408-.219.894-.219.371 0 .666.086.304.076.514.247.218.171.332.447.124.266.124.647v3.605h-.808v-3.224q0-.229-.038-.429a.8.8 0 0 0-.143-.342.7.7 0 0 0-.295-.238 1.1 1.1 0 0 0-.476-.085q-.6 0-.942.342-.342.343-.342.913v3.063h-.809v-3.224q0-.239-.047-.438a.8.8 0 0 0-.143-.342.64.64 0 0 0-.285-.229 1 1 0 0 0-.447-.085q-.352 0-.61.142-.246.143-.408.343a1.5 1.5 0 0 0-.228.418q-.067.21-.067.352v3.063h-.809zm11.525 1.988a1.6 1.6 0 0 0-.133-.542 1.2 1.2 0 0 0-.295-.437 1.24 1.24 0 0 0-.437-.295 1.3 1.3 0 0 0-.552-.114q-.315 0-.57.114-.248.105-.429.295-.18.19-.285.447-.105.247-.124.532zm.78 1.37q-.16.828-.713 1.246-.551.42-1.389.419-.59 0-1.027-.19a2 2 0 0 1-.723-.533 2.3 2.3 0 0 1-.447-.818 4 4 0 0 1-.162-1.037q0-.562.171-1.027.171-.467.476-.809.314-.342.732-.533.428-.19.933-.19.656 0 1.084.276.438.267.695.685.266.418.361.913.105.495.086.942h-3.682q-.008.324.076.618.086.286.276.514.19.219.485.352t.695.133q.513 0 .837-.238.333-.237.437-.723z"/></g><g filter="url(#d)"><path fill="#fff" d="M144.5 112c0-8.837 7.163-16 16-16h122c8.837 0 16 7.163 16 16v127c0 8.837-7.163 16-16 16h-122c-8.837 0-16-7.163-16-16z"/><path fill="#575757" d="M164.41 116.95q-.08-.77-.56-1.11-.47-.35-1.21-.35-.3 0-.59.06t-.52.2q-.22.14-.36.38-.13.23-.13.58 0 .33.19.54.2.2.52.33.33.13.74.22.41.08.83.18.43.1.84.24.41.13.73.36.33.23.52.58.2.35.2.88 0 .57-.26.98a2.1 2.1 0 0 1-.65.66 2.8 2.8 0 0 1-.9.36q-.49.12-.98.12-.6 0-1.14-.15-.53-.15-.94-.45a2.3 2.3 0 0 1-.64-.78q-.23-.48-.23-1.13h.9q0 .45.17.78.18.32.46.53.29.21.67.31t.78.1q.32 0 .64-.06.33-.06.59-.2.26-.15.42-.4t.16-.64q0-.37-.2-.6a1.34 1.34 0 0 0-.52-.37q-.32-.15-.73-.24a84 84 0 0 0-.84-.18q-.42-.1-.83-.22a3.5 3.5 0 0 1-.74-.33 1.7 1.7 0 0 1-.52-.53q-.19-.33-.19-.82 0-.54.22-.93.22-.4.58-.65.37-.26.83-.38.47-.13.96-.13.55 0 1.02.13t.82.41q.36.28.56.71.21.42.23 1.01zm5.804 1.97q-.02-.3-.14-.57a1.3 1.3 0 0 0-.31-.46 1.3 1.3 0 0 0-.46-.31 1.4 1.4 0 0 0-.58-.12q-.33 0-.6.12a1.3 1.3 0 0 0-.45.31q-.189.2-.3.47-.11.26-.13.56zm.82 1.44q-.17.87-.75 1.31t-1.46.44a2.7 2.7 0 0 1-1.08-.2q-.45-.2-.76-.56a2.5 2.5 0 0 1-.47-.86 4.3 4.3 0 0 1-.17-1.09q0-.59.18-1.08t.5-.85q.33-.36.77-.56.45-.2.98-.2.69 0 1.14.29.46.28.73.72.28.44.38.96.111.52.09.99h-3.87q-.01.34.08.65.09.3.29.54.201.23.51.37.31.14.73.14.54 0 .88-.25.35-.25.46-.76zm1.011-5.5h.85V122h-.85zm5.757 4.06q-.02-.3-.14-.57a1.3 1.3 0 0 0-.31-.46 1.3 1.3 0 0 0-.46-.31 1.4 1.4 0 0 0-.58-.12q-.33 0-.6.12a1.3 1.3 0 0 0-.45.31q-.189.2-.3.47-.11.26-.13.56zm.82 1.44q-.17.87-.75 1.31t-1.46.44a2.7 2.7 0 0 1-1.08-.2q-.45-.2-.76-.56a2.5 2.5 0 0 1-.47-.86 4.3 4.3 0 0 1-.17-1.09q0-.59.18-1.08t.5-.85q.33-.36.77-.56.45-.2.98-.2.69 0 1.14.29.46.28.73.72.28.44.38.96.111.52.09.99h-3.87q-.01.34.08.65.09.3.29.54.201.23.51.37.31.14.73.14.54 0 .88-.25.35-.25.46-.76zm4.471-1.87q-.099-.49-.42-.76t-.86-.27q-.46 0-.77.17a1.4 1.4 0 0 0-.5.45q-.18.28-.26.65-.08.36-.08.75 0 .36.08.7.09.34.27.61.18.26.47.42.291.16.69.16.63 0 .98-.33.36-.33.44-.93h.87q-.14.96-.72 1.48-.57.52-1.56.52-.59 0-1.05-.19a2.1 2.1 0 0 1-.76-.54q-.3-.35-.46-.83-.15-.49-.15-1.07t.15-1.08q.15-.51.45-.88a2.1 2.1 0 0 1 .77-.59q.46-.22 1.07-.22.44 0 .82.11.39.1.68.32.3.22.49.56.19.33.24.79zm3.041-1.66h1.03v.75h-1.03v3.21q0 .15.02.24.03.09.1.14t.19.07q.13.01.33.01h.39v.75h-.65q-.33 0-.57-.04a.9.9 0 0 1-.38-.17.73.73 0 0 1-.21-.34 2 2 0 0 1-.07-.58v-3.29h-.88v-.75h.88v-1.55h.85zm9.918.18q-.16-.76-.71-1.14-.54-.38-1.29-.38-.64 0-1.1.24-.45.24-.75.65a2.8 2.8 0 0 0-.43.92q-.14.52-.14 1.08 0 .61.14 1.16.14.54.43.95.3.4.76.64t1.1.24q.47 0 .83-.15a1.92 1.92 0 0 0 1.05-1.09q.15-.38.18-.82h.95q-.14 1.35-.93 2.1t-2.16.75q-.83 0-1.45-.28a2.9 2.9 0 0 1-1.03-.79 3.4 3.4 0 0 1-.62-1.18q-.2-.68-.2-1.46t.22-1.46q.22-.69.64-1.2.43-.51 1.06-.8.64-.3 1.46-.3.56 0 1.06.15t.89.44.65.73q.26.43.34 1zm2.677 2.41q0 .47.12.84.13.36.35.61.219.24.51.37a1.56 1.56 0 0 0 1.77-.37q.22-.25.34-.61.13-.37.13-.84t-.13-.83a1.75 1.75 0 0 0-.34-.62 1.5 1.5 0 0 0-.52-.38q-.29-.13-.62-.13t-.63.13a1.5 1.5 0 0 0-.51.38 1.8 1.8 0 0 0-.35.62q-.12.36-.12.83m-.9 0q0-.57.16-1.06a2.3 2.3 0 0 1 .48-.86 2.2 2.2 0 0 1 .79-.58q.47-.21 1.08-.21.62 0 1.08.21.47.21.79.58.32.36.48.86.16.49.16 1.06t-.16 1.06a2.5 2.5 0 0 1-.48.86 2.3 2.3 0 0 1-.79.57 2.7 2.7 0 0 1-1.08.2q-.61 0-1.08-.2a2.3 2.3 0 0 1-.79-.57 2.45 2.45 0 0 1-.48-.86 3.4 3.4 0 0 1-.16-1.06m6.022-2.59h.8v.82h.02q.53-.94 1.68-.94.51 0 .85.14t.55.39.29.6q.09.34.09.76v3.4h-.85v-3.5q0-.48-.28-.76t-.77-.28q-.39 0-.68.12a1.3 1.3 0 0 0-.47.34q-.19.22-.29.52-.09.29-.09.64V122h-.85zm5.557 0h.8v.82h.02q.53-.94 1.68-.94.51 0 .85.14t.55.39.29.6q.09.34.09.76v3.4h-.85v-3.5q0-.48-.28-.76t-.77-.28q-.39 0-.68.12-.28.12-.47.34t-.29.52q-.09.29-.09.64V122h-.85zm9.146 2.09q-.02-.3-.14-.57a1.3 1.3 0 0 0-.31-.46 1.3 1.3 0 0 0-.46-.31 1.4 1.4 0 0 0-.58-.12q-.33 0-.6.12a1.3 1.3 0 0 0-.45.31q-.189.2-.3.47-.11.26-.13.56zm.82 1.44q-.17.87-.75 1.31t-1.46.44a2.7 2.7 0 0 1-1.08-.2q-.45-.2-.76-.56a2.5 2.5 0 0 1-.47-.86 4.3 4.3 0 0 1-.17-1.09q0-.59.18-1.08t.5-.85q.33-.36.77-.56.45-.2.98-.2.69 0 1.14.29.46.28.73.72.28.44.38.96.111.52.09.99h-3.87q-.01.34.08.65.09.3.29.54.201.23.51.37.31.14.73.14.54 0 .88-.25.35-.25.46-.76zm4.471-1.87q-.099-.49-.42-.76t-.86-.27q-.46 0-.77.17a1.4 1.4 0 0 0-.5.45q-.18.28-.26.65-.08.36-.08.75 0 .36.08.7.09.34.27.61.18.26.47.42.291.16.69.16.63 0 .98-.33.36-.33.44-.93h.87q-.14.96-.72 1.48-.57.52-1.56.52-.59 0-1.05-.19a2.1 2.1 0 0 1-.76-.54q-.3-.35-.46-.83-.15-.49-.15-1.07t.15-1.08q.15-.51.45-.88a2.1 2.1 0 0 1 .77-.59q.46-.22 1.07-.22.44 0 .82.11.39.1.68.32.3.22.49.56.19.33.24.79zm3.041-1.66h1.03v.75h-1.03v3.21q0 .15.02.24.03.09.1.14t.19.07q.13.01.33.01h.39v.75h-.65q-.33 0-.57-.04a.9.9 0 0 1-.38-.17.73.73 0 0 1-.21-.34 2 2 0 0 1-.07-.58v-3.29h-.88v-.75h.88v-1.55h.85zm2.595 2.59q0 .47.12.84.13.36.35.61.219.24.51.37a1.56 1.56 0 0 0 1.77-.37q.22-.25.34-.61.13-.37.13-.84t-.13-.83a1.75 1.75 0 0 0-.34-.62 1.5 1.5 0 0 0-.52-.38q-.29-.13-.62-.13t-.63.13a1.5 1.5 0 0 0-.51.38 1.8 1.8 0 0 0-.35.62q-.12.36-.12.83m-.9 0q0-.57.16-1.06a2.3 2.3 0 0 1 .48-.86 2.2 2.2 0 0 1 .79-.58q.47-.21 1.08-.21.62 0 1.08.21.47.21.79.58.32.36.48.86.16.49.16 1.06t-.16 1.06a2.5 2.5 0 0 1-.48.86 2.3 2.3 0 0 1-.79.57 2.7 2.7 0 0 1-1.08.2q-.61 0-1.08-.2a2.3 2.3 0 0 1-.79-.57 2.45 2.45 0 0 1-.48-.86 3.4 3.4 0 0 1-.16-1.06m5.992-2.59h.8v1.09h.02q.31-.63.76-.93t1.14-.28v.9q-.51 0-.87.14a1.37 1.37 0 0 0-.58.41q-.22.27-.32.66a3.5 3.5 0 0 0-.1.88v2.3h-.85z"/><g clip-path="url(#e)"><path fill="#13aa52" d="M165.5 150.5a6 6 0 1 0 0-12 6 6 0 0 0 0 12"/><path fill="#fff" d="M167.103 143.767c-.379-1.673-1.275-2.223-1.372-2.433a2.6 2.6 0 0 1-.212-.412l-.008-.02c-.011.149-.016.206-.156.355-.217.17-1.331 1.104-1.422 3.005-.084 1.772 1.281 2.828 1.465 2.963l.021.015v-.002c.001.009.059.422.099.86h.145q.051-.465.152-.921l.012-.007q.123-.089.236-.193l.008-.008a3.4 3.4 0 0 0 1.091-2.537 4 4 0 0 0-.059-.665m-1.6 2.457s0-2.486.082-2.485c.064 0 .147 3.206.147 3.206-.114-.014-.229-.528-.229-.721"/></g><path fill="#000" fill-opacity=".88" d="M180.3 140.86h1.3l2.25 6 2.26-6h1.3V148h-.9v-5.94h-.02l-2.23 5.94h-.81l-2.23-5.94h-.02V148h-.9zm9.171 4.56q0 .47.12.84.13.36.35.61.22.24.51.37a1.56 1.56 0 0 0 1.77-.37q.22-.25.34-.61a2.5 2.5 0 0 0 .13-.84q0-.47-.13-.83a1.7 1.7 0 0 0-.34-.62 1.5 1.5 0 0 0-.52-.38q-.29-.13-.62-.13t-.63.13a1.5 1.5 0 0 0-.51.38 1.9 1.9 0 0 0-.35.62q-.12.36-.12.83m-.9 0q0-.57.16-1.06a2.4 2.4 0 0 1 .48-.86q.32-.37.79-.58t1.08-.21q.62 0 1.08.21.47.21.79.58.32.36.48.86.16.49.16 1.06t-.16 1.06a2.5 2.5 0 0 1-.48.86q-.32.36-.79.57a2.7 2.7 0 0 1-1.08.2q-.61 0-1.08-.2a2.3 2.3 0 0 1-.79-.57 2.5 2.5 0 0 1-.48-.86 3.4 3.4 0 0 1-.16-1.06m6.022-2.59h.8v.82h.02q.53-.94 1.68-.94.51 0 .85.14t.55.39.29.6q.09.34.09.76v3.4h-.85v-3.5q0-.48-.28-.76t-.77-.28q-.39 0-.68.12a1.3 1.3 0 0 0-.47.34q-.19.22-.29.52-.09.29-.09.64V148h-.85zm10.017 4.73q0 1.27-.58 1.9t-1.82.63q-.36 0-.74-.08a2.3 2.3 0 0 1-.68-.26q-.3-.18-.5-.47a1.33 1.33 0 0 1-.22-.71h.85a.64.64 0 0 0 .14.39q.14.16.33.26.2.1.43.14.23.05.44.05.42 0 .71-.15.29-.14.48-.4a1.6 1.6 0 0 0 .27-.61q.09-.36.09-.79v-.34h-.02q-.22.48-.67.71-.44.22-.94.22-.58 0-1.01-.21a2.1 2.1 0 0 1-.72-.56 2.5 2.5 0 0 1-.44-.83 3.6 3.6 0 0 1-.14-1.01q0-.46.12-.94.12-.49.4-.88.28-.4.74-.65.46-.26 1.13-.26.489 0 .9.22.41.21.64.64h.01v-.74h.8zm-2.38-.25q.42 0 .71-.17.3-.18.48-.46.18-.29.26-.65.09-.36.09-.72 0-.34-.08-.67a1.8 1.8 0 0 0-.26-.59 1.3 1.3 0 0 0-.45-.43 1.35 1.35 0 0 0-.68-.16 1.42 1.42 0 0 0-1.18.57 1.9 1.9 0 0 0-.27.6q-.08.34-.08.71 0 .35.07.7.069.35.24.64.17.28.45.46.28.17.7.17m4.282-1.89q0 .47.12.84.13.36.35.61.22.24.51.37a1.56 1.56 0 0 0 1.77-.37q.22-.25.34-.61a2.5 2.5 0 0 0 .13-.84q0-.47-.13-.83a1.7 1.7 0 0 0-.34-.62 1.5 1.5 0 0 0-.52-.38q-.29-.13-.62-.13t-.63.13a1.5 1.5 0 0 0-.51.38 1.9 1.9 0 0 0-.35.62q-.12.36-.12.83m-.9 0q0-.57.16-1.06a2.4 2.4 0 0 1 .48-.86q.32-.37.79-.58t1.08-.21q.62 0 1.08.21.47.21.79.58.32.36.48.86.16.49.16 1.06t-.16 1.06a2.5 2.5 0 0 1-.48.86q-.32.36-.79.57a2.7 2.7 0 0 1-1.08.2q-.61 0-1.08-.2a2.3 2.3 0 0 1-.79-.57 2.5 2.5 0 0 1-.48-.86 3.4 3.4 0 0 1-.16-1.06m9.895 1.78h1.58q.16 0 .4-.02.24-.03.51-.12.27-.1.53-.28.27-.18.48-.49t.34-.77q.14-.47.14-1.13 0-.64-.13-1.14a2.06 2.06 0 0 0-.41-.86q-.28-.36-.73-.54-.45-.19-1.11-.19h-1.6zm-.95-6.34h2.45q1.65 0 2.54.84t.89 2.56q0 .9-.2 1.6-.2.69-.62 1.17-.42.47-1.07.72t-1.54.25h-2.45zm7.991 3.07h1.9q.81 0 1.16-.28.36-.29.36-.86 0-.38-.12-.6a.85.85 0 0 0-.33-.34q-.21-.12-.49-.15a4 4 0 0 0-.58-.04h-1.9zm-.95-3.07h2.59q.23 0 .49.01.27 0 .53.03.261.02.48.07.231.05.39.15.35.21.59.58.25.37.25.91 0 .57-.28.99-.27.41-.78.61v.02q.66.14 1.01.6t.35 1.12q0 .39-.14.76a1.9 1.9 0 0 1-.42.66q-.27.28-.68.46-.399.17-.93.17h-3.45zm.95 6.34h2.38q.63 0 .98-.34.36-.34.36-.94 0-.35-.13-.58a.95.95 0 0 0-.35-.36 1.3 1.3 0 0 0-.49-.19q-.28-.06-.58-.06h-2.17z"/><path fill="#000" d="M171.468 172.725a.61.61 0 0 0-.505-.407 1.1 1.1 0 0 0-.403.023 3.6 3.6 0 0 1-.622.081 12 12 0 0 0 1.269-3.018c.421-1.63.196-2.372-.067-2.708-.696-.889-1.711-1.367-2.935-1.381a5.2 5.2 0 0 0-1.526.214 5.6 5.6 0 0 0-.893-.082q-.885-.014-1.554.383a7 7 0 0 0-1.098-.276c-1.073-.176-1.938-.039-2.571.408-.766.542-1.121 1.482-1.055 2.795.021.417.254 1.686.621 2.889.211.692.436 1.266.669 1.707.33.626.684.994 1.08 1.126.222.075.626.126 1.051-.227q.08.099.221.19c.121.076.269.139.417.176.533.133 1.032.099 1.458-.087l.006.21.01.294c.025.628.068 1.117.194 1.459l.027.078c.063.193.168.517.437.771.279.263.616.343.924.343.155 0 .302-.02.432-.048.461-.099.985-.249 1.364-.789.359-.51.533-1.279.564-2.49l.012-.098.007-.064.085.007.022.002c.47.021 1.044-.078 1.397-.242.279-.13 1.173-.602.962-1.239"/><path fill="#336791" d="M170.661 172.849c-1.397.289-1.494-.184-1.494-.184 1.476-2.19 2.093-4.969 1.56-5.649-1.452-1.855-3.965-.978-4.007-.955l-.014.002a5 5 0 0 0-.932-.097c-.632-.01-1.112.166-1.476.442 0 0-4.484-1.847-4.275 2.323.044.888 1.271 6.714 2.735 4.954.535-.644 1.052-1.188 1.052-1.188.257.171.564.258.887.227l.025-.022a1 1 0 0 0 .01.251c-.377.421-.267.495-1.02.65-.763.158-.315.438-.023.511.355.088 1.176.214 1.73-.562l-.022.088c.148.119.252.77.234 1.361-.017.59-.029.996.088 1.312s.232 1.03 1.223.817c.828-.177 1.257-.637 1.317-1.404.042-.545.138-.465.144-.952l.077-.231c.089-.739.014-.978.524-.867l.124.011c.376.017.867-.06 1.156-.195.621-.288.989-.769.377-.643"/><path fill="#fff" d="M164.563 169.127c-.126-.018-.24-.002-.298.042a.1.1 0 0 0-.045.073c-.008.052.029.109.051.139a.4.4 0 0 0 .247.154l.04.003c.152 0 .291-.119.303-.207.015-.11-.144-.183-.298-.204m4.171.003c-.012-.086-.165-.11-.31-.09s-.286.086-.274.172c.009.067.13.181.274.181q.018 0 .036-.002a.36.36 0 0 0 .2-.109c.05-.054.08-.113.074-.152"/><path fill="#fff" d="M171.129 172.814q-.08-.242-.509-.154c-.846.174-1.149.053-1.249-.02a11.6 11.6 0 0 0 1.491-3.343 6.3 6.3 0 0 0 .22-1.437q.01-.67-.225-.971c-.629-.805-1.554-1.236-2.672-1.248-.77-.009-1.419.188-1.545.243a4 4 0 0 0-.87-.111c-.577-.01-1.076.129-1.489.41a6.7 6.7 0 0 0-1.211-.317c-.981-.158-1.76-.038-2.316.356-.664.47-.97 1.31-.911 2.498.02.399.248 1.628.607 2.805.473 1.549.987 2.425 1.527 2.606a.7.7 0 0 0 .217.036c.197 0 .439-.089.691-.392q.46-.552.952-1.077c.212.114.446.178.685.184l.001.019-.12.149c-.166.21-.2.254-.733.364-.151.031-.554.114-.56.396-.006.308.476.438.531.451q.287.072.552.072c.427 0 .804-.141 1.105-.413-.01 1.099.036 2.182.168 2.512.108.27.372.93 1.206.93q.183.001.405-.046c.87-.187 1.248-.571 1.394-1.419.079-.453.213-1.536.276-2.116.133.041.305.061.49.06.387 0 .833-.082 1.113-.212.315-.146.882-.504.779-.815m-2.072-3.923a4 4 0 0 1-.052.489c-.026.175-.054.356-.061.575a4 4 0 0 0 .045.649c.052.434.106.88-.101 1.32a2 2 0 0 1-.092-.189 3 3 0 0 0-.159-.3c-.3-.54-1.004-1.802-.644-2.318.107-.153.38-.311 1.064-.226m-.829-2.903c1.002.022 1.795.397 2.357 1.114.43.551-.044 3.055-1.417 5.215l-.041-.053-.018-.022c.355-.585.286-1.165.224-1.679-.025-.211-.049-.41-.043-.597.006-.198.032-.368.058-.533.031-.202.063-.412.054-.659q.01-.039.006-.093c-.023-.237-.293-.947-.845-1.589a3.8 3.8 0 0 0-1.343-1.009 4.5 4.5 0 0 1 1.008-.095m-5.609 7.566c-.278.333-.469.269-.532.248-.41-.137-.886-1.004-1.306-2.378-.363-1.19-.575-2.386-.592-2.722-.053-1.061.204-1.8.764-2.197.912-.647 2.411-.26 3.013-.064l-.026.026c-.988.998-.965 2.703-.962 2.808q0 .059.008.175c.017.287.048.821-.036 1.425a1.8 1.8 0 0 0 .598 1.625c-.17.181-.538.583-.929 1.054m1.056-1.409a1.46 1.46 0 0 1-.382-1.222 7.4 7.4 0 0 0 .038-1.493l-.006-.108c.145-.128.814-.486 1.291-.377.218.05.351.198.406.453.285 1.321.037 1.871-.162 2.313a4 4 0 0 0-.112.267l-.026.069a5 5 0 0 0-.163.489 1.23 1.23 0 0 1-.884-.392zm.05 1.78a.8.8 0 0 1-.231-.099 1 1 0 0 1 .246-.073c.627-.129.723-.22.935-.489.048-.061.103-.131.179-.216.114-.127.165-.105.259-.066.077.031.151.127.181.232.014.049.03.143-.022.217-.442.618-1.085.61-1.547.494m3.28 3.052c-.767.165-1.039-.227-1.217-.674-.116-.288-.173-1.59-.132-3.028a.923.923 0 0 0-.029-.157.7.7 0 0 0-.381-.456c-.07-.029-.197-.082-.351-.043.033-.134.09-.287.151-.451l.026-.07q.045-.117.104-.245c.208-.462.494-1.096.184-2.528-.116-.536-.503-.798-1.09-.737a2.5 2.5 0 0 0-.93.31c.044-.54.214-1.55.847-2.189.399-.402.93-.601 1.578-.59 1.275.021 2.093.675 2.554 1.221.398.47.613.943.699 1.198-.646-.065-1.086.062-1.309.381-.484.693.266 2.038.626 2.684.066.119.123.221.141.265.118.284.269.474.38.613q.053.064.093.119c-.196.057-.548.187-.516.839a48 48 0 0 1-.303 2.399c-.123.715-.386.981-1.125 1.139m3.2-3.662c-.201.093-.536.163-.854.178-.351.016-.53-.04-.572-.074-.02-.406.131-.448.291-.493l.074-.023.048.036c.282.186.786.206 1.498.06l.007-.002c-.095.09-.26.21-.492.318"/><path fill="#000" fill-opacity=".88" d="M181.23 171.28h1.86q.81.01 1.18-.33.38-.34.38-.98t-.38-.97q-.37-.34-1.18-.34h-1.86zm-.95-3.42h3.13q1.08 0 1.63.56.56.55.56 1.55t-.56 1.56q-.55.56-1.63.55h-2.18V175h-.95zm6.964 4.56q0 .47.12.84.13.36.35.61.22.24.51.37a1.56 1.56 0 0 0 1.77-.37q.22-.25.34-.61a2.5 2.5 0 0 0 .13-.84q0-.47-.13-.83a1.7 1.7 0 0 0-.34-.62 1.45 1.45 0 0 0-.52-.38q-.29-.13-.62-.13t-.63.13a1.5 1.5 0 0 0-.51.38 1.9 1.9 0 0 0-.35.62q-.12.36-.12.83m-.9 0q0-.57.16-1.06a2.4 2.4 0 0 1 .48-.86q.32-.37.79-.58t1.08-.21q.621 0 1.08.21.47.21.79.58.321.36.48.86.16.49.16 1.06t-.16 1.06a2.45 2.45 0 0 1-.48.86q-.32.36-.79.57-.459.2-1.08.2-.609 0-1.08-.2a2.3 2.3 0 0 1-.79-.57 2.5 2.5 0 0 1-.48-.86 3.4 3.4 0 0 1-.16-1.06m6.543.95q.01.28.13.48.12.19.31.31.2.11.44.16.249.05.51.05.2 0 .42-.03t.4-.11a.8.8 0 0 0 .31-.23q.12-.16.12-.4a.57.57 0 0 0-.25-.5 2 2 0 0 0-.63-.27 8 8 0 0 0-.81-.19 5 5 0 0 1-.82-.24 1.7 1.7 0 0 1-.62-.44q-.25-.28-.25-.78 0-.39.17-.67.18-.28.45-.45.28-.18.62-.26.35-.09.69-.09.44 0 .81.08.37.07.65.26.29.18.46.5.17.31.2.78h-.85a.84.84 0 0 0-.41-.68 1.2 1.2 0 0 0-.38-.14 1.7 1.7 0 0 0-.41-.05q-.19 0-.39.03-.19.03-.35.11a.64.64 0 0 0-.26.2.48.48 0 0 0-.1.32q0 .22.15.37.16.14.4.24.24.09.54.16.3.06.6.13.32.07.62.17.309.1.54.27a1.19 1.19 0 0 1 .53 1.03q0 .47-.2.78a1.5 1.5 0 0 1-.51.5 2 2 0 0 1-.71.26q-.39.08-.78.08-.43 0-.82-.09t-.69-.29q-.3-.21-.48-.54-.18-.34-.2-.82zm5.66-3.54h1.03v.75h-1.03v3.21q0 .15.02.24.03.09.1.14a.45.45 0 0 0 .19.07q.129.01.33.01h.39v.75h-.65q-.33 0-.57-.04a.9.9 0 0 1-.38-.17.7.7 0 0 1-.21-.34 2 2 0 0 1-.07-.58v-3.29h-.88v-.75h.88v-1.55h.85zm6.434 4.73q0 1.27-.58 1.9t-1.82.63q-.36 0-.74-.08a2.3 2.3 0 0 1-.68-.26q-.3-.18-.5-.47a1.34 1.34 0 0 1-.22-.71h.85a.65.65 0 0 0 .14.39q.14.16.33.26.2.1.43.14.23.05.44.05.42 0 .71-.15.29-.14.48-.4.19-.25.27-.61.09-.36.09-.79v-.34h-.02q-.22.48-.67.71-.44.22-.94.22-.58 0-1.01-.21a2.1 2.1 0 0 1-.72-.56 2.6 2.6 0 0 1-.44-.83 3.6 3.6 0 0 1-.14-1.01q0-.46.12-.94.12-.49.4-.88.28-.4.74-.65.46-.26 1.13-.26.49 0 .9.22.41.21.64.64h.01v-.74h.8zm-2.38-.25q.42 0 .71-.17.3-.18.48-.46.18-.29.26-.65.09-.36.09-.72 0-.34-.08-.67a1.7 1.7 0 0 0-.26-.59 1.26 1.26 0 0 0-.45-.43 1.35 1.35 0 0 0-.68-.16q-.41 0-.7.16-.29.15-.48.41a1.9 1.9 0 0 0-.27.6q-.08.34-.08.71 0 .35.07.7t.24.64q.17.28.45.46.28.17.7.17m3.632-4.48h.8v1.09h.02q.31-.63.76-.93t1.14-.28v.9q-.51 0-.87.14a1.37 1.37 0 0 0-.58.41q-.22.27-.32.66a3.5 3.5 0 0 0-.1.88v2.3h-.85zm6.774 2.09q-.02-.3-.14-.57a1.3 1.3 0 0 0-.31-.46 1.3 1.3 0 0 0-.46-.31 1.4 1.4 0 0 0-.58-.12q-.33 0-.6.12a1.3 1.3 0 0 0-.45.31q-.189.2-.3.47-.11.26-.13.56zm.82 1.44q-.17.87-.75 1.31t-1.46.44a2.7 2.7 0 0 1-1.08-.2q-.45-.2-.76-.56a2.5 2.5 0 0 1-.47-.86 4.3 4.3 0 0 1-.17-1.09q0-.59.18-1.08t.5-.85q.33-.36.77-.56.45-.2.98-.2.69 0 1.14.29.46.28.73.72.28.44.38.96.111.52.09.99h-3.87q-.01.34.08.65.09.3.29.54.201.23.51.37.31.14.73.14.54 0 .88-.25.35-.25.46-.76zm1.481.01q.01.28.13.48.12.19.31.31.2.11.44.16.25.05.51.05.201 0 .42-.03.22-.03.4-.11a.77.77 0 0 0 .31-.23q.12-.16.12-.4a.56.56 0 0 0-.25-.5 2 2 0 0 0-.63-.27 8 8 0 0 0-.81-.19 5 5 0 0 1-.82-.24 1.76 1.76 0 0 1-.62-.44q-.25-.28-.25-.78 0-.39.17-.67.18-.28.45-.45.28-.18.62-.26.351-.09.69-.09.441 0 .81.08.37.07.65.26.29.18.46.5.17.31.2.78h-.85a.83.83 0 0 0-.41-.68 1.2 1.2 0 0 0-.38-.14 1.7 1.7 0 0 0-.41-.05q-.189 0-.39.03-.19.03-.35.11a.66.66 0 0 0-.26.2.5.5 0 0 0-.1.32q0 .22.15.37.16.14.4.24.24.09.54.16.3.06.6.13.32.07.62.17.31.1.54.27.24.16.38.41.15.25.15.62 0 .47-.2.78a1.45 1.45 0 0 1-.51.5 2 2 0 0 1-.71.26q-.39.08-.78.08-.43 0-.82-.09t-.69-.29q-.3-.21-.48-.54-.18-.34-.2-.82z"/><g clip-path="url(#f)"><path fill="#857f07" fill-rule="evenodd" d="M170.551 201.849c-.652-.018-1.159.049-1.583.227-.122.049-.318.049-.334.203.065.065.073.17.13.26.098.162.27.381.424.494l.523.373c.318.195.677.309.987.503.18.114.359.26.539.382.091.065.147.17.261.21v-.024c-.057-.073-.074-.178-.13-.26l-.246-.235a3.9 3.9 0 0 0-.848-.819c-.261-.178-.833-.422-.939-.722l-.016-.018c.18-.018.392-.081.563-.13.278-.072.531-.056.816-.129l.392-.114v-.073c-.147-.146-.253-.34-.408-.478a11 11 0 0 0-1.347-.998c-.253-.162-.579-.267-.848-.405-.099-.049-.262-.073-.319-.154-.147-.178-.228-.414-.334-.625l-.67-1.411c-.146-.316-.236-.633-.416-.925-.84-1.378-1.755-2.214-3.158-3.033-.302-.17-.661-.244-1.043-.333l-.612-.032c-.131-.057-.261-.211-.376-.284-.465-.292-1.665-.925-2.007-.091-.221.527.326 1.046.512 1.314.139.186.318.397.416.608.055.138.073.284.131.43.13.357.253.754.424 1.087.091.17.187.349.302.503.065.091.179.13.204.276-.115.162-.122.405-.188.608-.294.917-.179 2.052.237 2.727.131.203.439.649.857.478.367-.146.285-.608.391-1.013.025-.098.009-.163.057-.228v.018l.335.674c.253.397.694.811 1.061 1.087.196.146.351.397.596.486v-.024h-.016c-.049-.073-.123-.106-.188-.162a4 4 0 0 1-.425-.487 10.5 10.5 0 0 1-.913-1.476 10 10 0 0 1-.351-.779c-.05-.097-.05-.243-.131-.292-.123.179-.302.333-.392.552-.155.349-.171.779-.228 1.225-.033.008-.019 0-.033.018-.261-.065-.351-.333-.449-.56-.245-.576-.286-1.5-.074-2.165.058-.171.303-.706.205-.868-.05-.154-.212-.243-.302-.365a3.3 3.3 0 0 1-.294-.519c-.196-.455-.294-.957-.506-1.412-.098-.21-.269-.43-.408-.624-.155-.219-.326-.373-.449-.633-.041-.091-.098-.235-.032-.332.016-.065.049-.091.113-.106.107-.091.409.025.515.073.302.122.555.235.808.405.114.081.237.236.383.276h.172c.261.057.555.018.799.091.433.138.825.341 1.176.56a7.2 7.2 0 0 1 2.546 2.774c.098.187.139.357.229.552.171.397.383.803.554 1.192.172.381.335.771.58 1.087.123.171.612.26.832.349.164.073.416.138.564.227.277.17.554.365.815.552.131.097.539.3.563.461zm-8.322-7.048a1.3 1.3 0 0 0-.335.04v.019h.016c.066.129.18.219.261.332l.188.39.016-.019c.115-.081.172-.21.172-.405-.049-.057-.057-.114-.098-.17-.049-.081-.155-.122-.22-.187" clip-rule="evenodd"/></g><path fill="#000" fill-opacity=".88" d="M180.3 194.86h1.3l2.25 6 2.26-6h1.3V202h-.9v-5.94h-.02l-2.23 5.94h-.81l-2.23-5.94h-.02V202h-.9zm10.581 7.83q-.15.38-.3.64a1.5 1.5 0 0 1-.32.42.96.96 0 0 1-.39.24q-.21.08-.49.08-.15 0-.3-.02a1.4 1.4 0 0 1-.29-.07v-.78q.11.05.25.08.15.04.25.04a.7.7 0 0 0 .43-.13q.18-.12.27-.35l.35-.87-2.05-5.14h.96l1.51 4.23h.02l1.45-4.23h.9zm10.023-5.74q-.08-.77-.56-1.11-.47-.35-1.21-.35-.3 0-.59.06t-.52.2q-.22.14-.36.38-.13.23-.13.58 0 .33.19.54.2.2.52.33.33.13.74.22.41.08.83.18.43.1.84.24.41.13.73.36.33.23.52.58.2.35.2.88 0 .57-.26.98a2.1 2.1 0 0 1-.65.66 2.8 2.8 0 0 1-.9.36q-.49.12-.98.12-.6 0-1.14-.15-.53-.15-.94-.45a2.3 2.3 0 0 1-.64-.78q-.23-.48-.23-1.13h.9q0 .45.17.78.18.32.46.53.29.21.67.31t.78.1q.32 0 .64-.06.33-.06.59-.2.26-.15.42-.4t.16-.64q0-.37-.2-.6a1.34 1.34 0 0 0-.52-.37q-.32-.15-.73-.24a84 84 0 0 0-.84-.18q-.42-.1-.83-.22a3.5 3.5 0 0 1-.74-.33 1.7 1.7 0 0 1-.52-.53q-.19-.33-.19-.82 0-.54.22-.93.22-.4.58-.65.37-.26.83-.38.47-.13.96-.13.55 0 1.02.13t.82.41q.36.28.56.71.21.42.23 1.01zm6.075 3.01.95.76q.42-.42.62-1.02.2-.61.2-1.27 0-.54-.14-1.06a2.9 2.9 0 0 0-.44-.95q-.3-.42-.77-.67-.47-.26-1.12-.26t-1.12.26a2.2 2.2 0 0 0-.77.67q-.3.42-.44.95-.14.52-.14 1.06t.14 1.07q.14.52.44.94t.77.68q.47.25 1.12.25.51 0 .99-.2l-.79-.63zm2.1 2.65-1.09-.87q-.72.42-1.71.42-.85 0-1.49-.3a3.1 3.1 0 0 1-1.07-.83 3.6 3.6 0 0 1-.65-1.19 4.8 4.8 0 0 1-.21-1.41q0-.73.21-1.4a3.6 3.6 0 0 1 .65-1.2 3.1 3.1 0 0 1 1.07-.83q.64-.31 1.49-.31t1.49.31 1.07.83.64 1.2q.22.67.22 1.4 0 .82-.27 1.56t-.81 1.28l.94.74zm1.777-7.75h.95v6.34h3.78v.8h-4.73z"/><g clip-path="url(#g)"><path fill="#fff" d="M159.5 218.5h9.625v14H159.5z"/><path fill="#168f98" d="M162.078 219.57a.74.74 0 0 0-.81-.16.7.7 0 0 0-.238.16h-.004a.72.72 0 0 0-.218.522.72.72 0 0 0 .216.521l.003.004a.726.726 0 0 0 .523.213.75.75 0 0 0 .526-.213l.001-.004a.72.72 0 0 0 .213-.521.73.73 0 0 0-.216-.522h.004m-.526 10.101a.75.75 0 0 0 .526-.215l.001-.004a.72.72 0 0 0 .213-.519.73.73 0 0 0-.213-.523h-.001a.745.745 0 0 0-.81-.161.7.7 0 0 0-.238.161h-.004a.74.74 0 0 0 0 1.042l.004.004a.73.73 0 0 0 .522.215m4.04-2.236a.73.73 0 0 0 .452-.342l.014-.026a.73.73 0 0 0 .058-.535.72.72 0 0 0-.345-.448l-.011-.007a.74.74 0 0 0-.552-.066.741.741 0 0 0-.526.904.75.75 0 0 0 .346.449h.001c.177.102.378.12.564.07zm-3.282-3.676a1.072 1.072 0 0 0-1.519 1.513 1.074 1.074 0 0 0 1.831-.759 1.06 1.06 0 0 0-.314-.755zm-.425-1.258c.424.07.815.271 1.115.573h.002q.072.072.136.15l.74-.426a1.581 1.581 0 0 1 .721-1.871l.013-.008c.18-.102.378-.168.585-.194a1.6 1.6 0 0 1 1.585.781v.001c.221.379.265.814.16 1.206a1.58 1.58 0 0 1-.745.966l-.101.06h-.01a1.615 1.615 0 0 1-1.878-.372l-.739.424a2.047 2.047 0 0 1 0 1.443l.739.424a1.6 1.6 0 0 1 .775-.473 1.59 1.59 0 0 1 1.214.16l.025.011v.002a1.587 1.587 0 0 1 .56 2.159l-.013.027h-.002c-.211.352-.554.61-.955.72a1.62 1.62 0 0 1-1.215-.159v-.003a1.586 1.586 0 0 1-.721-1.87l-.74-.425q-.064.077-.136.147l-.002.002a2.03 2.03 0 0 1-1.116.57v.851c.304.064.582.215.799.432l.001.002a1.58 1.58 0 0 1 0 2.246l-.001.004a1.61 1.61 0 0 1-2.261-.002h-.001v-.005a1.576 1.576 0 0 1 0-2.245v-.003h.001c.216-.218.494-.369.798-.431v-.851a2 2 0 0 1-1.111-.57l-.003-.003a2.03 2.03 0 0 1-.604-1.44c0-.562.231-1.07.601-1.439h.003c.299-.302.69-.503 1.114-.573v-.848a1.63 1.63 0 0 1-.798-.432h-.001v-.003a1.58 1.58 0 0 1 0-2.248l.003-.001a1.59 1.59 0 0 1 1.128-.467c.441 0 .84.178 1.131.467v.001h.001a1.584 1.584 0 0 1 0 2.248l-.001.002a1.6 1.6 0 0 1-.798.433v.848zm4.159-.565-.007-.01a.74.74 0 0 0-.735-.354.8.8 0 0 0-.275.093h.001a.734.734 0 0 0-.272 1.009l.004.005c.102.174.265.29.448.337.182.052.386.03.562-.072l.009-.005a.737.737 0 0 0 .265-1.003m3.285.249h.826v2.509l1.192-1.311h.993l-1.438 1.519 1.439 1.923h-.946l-1.242-1.72v1.72h-.826v-4.643m3.968 2.936c0 .427.309 1.048 1.053 1.048.46 0 .763-.239.921-.551a1.2 1.2 0 0 0 .132-.486 1.1 1.1 0 0 0-.095-.485 1.015 1.015 0 0 0-.964-.607c-.668 0-1.047.539-1.047 1.072v.009m2.926 1.707h-.827v-.496c-.22.401-.681.602-1.166.602-1.11 0-1.76-.86-1.76-1.832 0-1.085.788-1.825 1.76-1.825.63 0 1.015.332 1.166.609v-.503h.827zm.936-2.811h-.426v-.633h.426v-.195c0-1.023.782-1.085 1.375-1.092v.633c-.209 0-.549 0-.549.484v.169h.549v.634h-.549v2.811h-.826zm1.939-1.832h.826v2.51l1.192-1.311h.993l-1.438 1.519 1.441 1.925h-.946l-1.243-1.72v1.72h-.825zm3.968 2.936c0 .427.309 1.048 1.053 1.048.46 0 .763-.239.923-.551.082-.152.118-.315.133-.486a1.1 1.1 0 0 0-.096-.485c-.142-.325-.466-.607-.964-.607-.668 0-1.047.539-1.047 1.072v.006zm2.923 1.707h-.826v-.496c-.221.401-.681.602-1.166.602-1.11 0-1.759-.86-1.759-1.832 0-1.085.787-1.825 1.759-1.825.63 0 1.015.332 1.166.609v-.503h.826z"/></g><path fill="#000" fill-opacity=".88" d="M177.905 221.86h.95v3.56l3.62-3.56h1.23l-3.01 2.88 3.13 4.26h-1.2l-2.58-3.61-1.19 1.11v2.5h-.95zm11.11 7.12q-.22.13-.61.13-.33 0-.53-.18-.19-.19-.19-.61-.35.42-.82.61-.46.18-1 .18a2.8 2.8 0 0 1-.67-.08 1.5 1.5 0 0 1-.54-.25 1.25 1.25 0 0 1-.37-.44 1.6 1.6 0 0 1-.13-.67q0-.44.15-.72t.39-.45q.25-.18.56-.27.32-.09.65-.15.35-.07.66-.1.32-.04.56-.1.24-.07.38-.19a.48.48 0 0 0 .14-.37.8.8 0 0 0-.11-.45.7.7 0 0 0-.27-.26q-.16-.09-.37-.12a3 3 0 0 0-.4-.03q-.54 0-.9.21-.36.2-.39.77h-.85q.02-.48.2-.81t.48-.53q.3-.21.68-.3.39-.09.83-.09.35 0 .69.05.35.05.63.21.28.15.45.43t.17.73v2.66q0 .3.03.44.04.14.24.14.11 0 .26-.05zm-1.38-2.65q-.16.12-.42.18-.26.05-.55.09-.28.03-.57.08a2 2 0 0 0-.52.14 1 1 0 0 0-.38.29q-.14.18-.14.5 0 .21.08.36.09.14.22.23.14.09.32.13t.38.04q.42 0 .72-.11.3-.12.49-.29.19-.18.28-.38.09-.21.09-.39zm2.521-1.75h-.87v-.75h.87v-.77q0-.63.36-.95.37-.33 1.07-.33a2.1 2.1 0 0 1 .55.08v.74a1 1 0 0 0-.24-.05 2 2 0 0 0-.24-.02q-.31 0-.48.12t-.17.46v.72h1v.75h-1V229h-.85zm2.659-2.72h.85v4.23l2.36-2.26h1.14l-2.05 1.88 2.2 3.29h-1.08l-1.77-2.7-.8.74V229h-.85zm9.716 7.12q-.22.13-.61.13-.33 0-.53-.18-.19-.19-.19-.61a2.1 2.1 0 0 1-.82.61q-.46.18-1 .18-.35 0-.67-.08a1.5 1.5 0 0 1-.54-.25 1.24 1.24 0 0 1-.37-.44 1.6 1.6 0 0 1-.13-.67q0-.44.15-.72t.39-.45q.25-.18.56-.27.32-.09.65-.15.35-.07.66-.1.32-.04.56-.1.24-.07.38-.19a.48.48 0 0 0 .14-.37.8.8 0 0 0-.11-.45.7.7 0 0 0-.27-.26q-.16-.09-.37-.12a3 3 0 0 0-.4-.03q-.54 0-.9.21-.36.2-.39.77h-.85q.02-.48.2-.81t.48-.53q.3-.21.68-.3.39-.09.83-.09.35 0 .69.05.35.05.63.21.279.15.45.43t.17.73v2.66q0 .3.03.44.039.14.24.14.11 0 .26-.05zm-1.38-2.65q-.16.12-.42.18-.26.05-.55.09-.28.03-.57.08a2 2 0 0 0-.52.14.96.96 0 0 0-.38.29q-.14.18-.14.5 0 .21.08.36.09.14.22.23.14.09.32.13t.38.04q.42 0 .72-.11.3-.12.49-.29.19-.18.28-.38.09-.21.09-.39z"/></g><defs><clipPath id="b"><path fill="#fff" d="M32.96 73.371h10.873v10.872H32.96z"/></clipPath><clipPath id="c"><path fill="#fff" d="M202.828 82.885V74.73h-8.154v8.154z"/></clipPath><clipPath id="e"><path fill="#fff" d="M159.5 138.5h12v12h-12z"/></clipPath><clipPath id="f"><path fill="#fff" d="M159.5 192.5h12v12h-12z"/></clipPath><clipPath id="g"><path fill="#fff" d="M159.5 218.5h9.625v14H159.5z"/></clipPath><filter id="a" width="281" height="175" x=".5" y="0" color-interpolation-filters="sRGB" filterUnits="userSpaceOnUse"><feFlood flood-opacity="0" result="BackgroundImageFix"/><feColorMatrix in="SourceAlpha" result="hardAlpha" values="0 0 0 0 0 0 0 0 0 0 0 0 0 0 0 0 0 0 127 0"/><feOffset dy="4"/><feGaussianBlur stdDeviation="4"/><feComposite in2="hardAlpha" operator="out"/><feColorMatrix values="0 0 0 0 0 0 0 0 0 0 0 0 0 0 0 0 0 0 0.05 0"/><feBlend in2="BackgroundImageFix" result="effect1_dropShadow_1122_5936"/><feBlend in="SourceGraphic" in2="effect1_dropShadow_1122_5936" result="shape"/></filter><filter id="d" width="170" height="175" x="136.5" y="92" color-interpolation-filters="sRGB" filterUnits="userSpaceOnUse"><feFlood flood-opacity="0" result="BackgroundImageFix"/><feColorMatrix in="SourceAlpha" result="hardAlpha" values="0 0 0 0 0 0 0 0 0 0 0 0 0 0 0 0 0 0 127 0"/><feOffset dy="4"/><feGaussianBlur stdDeviation="4"/><feComposite in2="hardAlpha" operator="out"/><feColorMatrix values="0 0 0 0 0 0 0 0 0 0 0 0 0 0 0 0 0 0 0.05 0"/><feBlend in2="BackgroundImageFix" result="effect1_dropShadow_1122_5936"/><feBlend in="SourceGraphic" in2="effect1_dropShadow_1122_5936" result="shape"/></filter></defs></svg>