<svg xmlns="http://www.w3.org/2000/svg" width="14" height="16" fill="none" viewBox="0 0 14 16"><path fill="#000" d="M13 1H.997C.447 1 0 1.453 0 2.01v11.98C0 14.548.447 15 .997 15H13c.55 0 1-.453 1-1.01V2.01C14 1.452 13.55 1 13 1M4.231 13H2.156V6.319h2.078V13zM3.194 5.406a1.204 1.204 0 1 1 0-2.407 1.204 1.204 0 0 1 0 2.407M12.009 13H9.934V9.75c0-.775-.015-1.772-1.078-1.772-1.081 0-1.247.844-1.247 1.716V13H5.534V6.319h1.991v.912h.028c.278-.525.956-1.078 1.966-1.078 2.1 0 2.49 1.385 2.49 3.185z"/></svg>