<svg xmlns="http://www.w3.org/2000/svg" width="20" height="18" fill="none" viewBox="0 0 20 18"><g clip-path="url(#a)"><path fill="#569cd6" d="m19.739 6.161-5 4.722c-.527.498-1.406.129-1.406-.606V7.78c-5.02.033-7.137 1.219-5.721 5.95.156.52-.446.922-.868.601-1.353-1.028-2.577-2.994-2.577-4.978 0-4.998 4.083-5.99 9.166-6.018v-2.5c0-.735.88-1.103 1.406-.606l5 4.722a.834.834 0 0 1 0 1.211m-6.406 7.003v2.392H2.223V4.444H3.99a.42.42 0 0 0 .3-.128 6.8 6.8 0 0 1 1.772-1.308c.386-.201.243-.786-.193-.786H1.667C.747 2.222 0 2.968 0 3.89V16.11c0 .92.746 1.667 1.667 1.667h12.222c.92 0 1.667-.746 1.667-1.667v-3.083a.417.417 0 0 0-.556-.393c-.38.135-.788.175-1.187.117a.417.417 0 0 0-.48.412"/></g><defs><clipPath id="a"><path fill="#fff" d="M0 0h20v18H0z"/></clipPath></defs></svg>