<svg xmlns="http://www.w3.org/2000/svg" width="554" height="298" fill="none" viewBox="0 0 554 298"><g clip-path="url(#a)"><rect width="553" height="298" x=".5" fill="#22e2c9" rx="8"/><g filter="url(#b)"><ellipse cx="384" cy="230.5" fill="#5afce6" rx="210.5" ry="176.5"/></g><path fill="#fff" d="M327 91.5H227a12.5 12.5 0 0 0-12.5 12.5v35c0 33.931 16.45 54.513 30.25 65.806 14.819 12.119 29.65 16.25 30.275 16.432a7.6 7.6 0 0 0 3.95 0c.625-.176 15.456-4.313 30.275-16.432 13.8-11.293 30.25-31.875 30.25-65.806v-35A12.5 12.5 0 0 0 327 91.5m-97.5 15h95V139a74.7 74.7 0 0 1-4.375 26.025l-38.819-27.169a7.5 7.5 0 0 0-8.6 0l-38.831 27.169A74.7 74.7 0 0 1 229.5 139zm70.681 86.344A78.9 78.9 0 0 1 277 206.113a78.9 78.9 0 0 1-23.181-13.269 68.2 68.2 0 0 1-13.069-14.325L277 153.156l36.25 25.363a68.2 68.2 0 0 1-13.069 14.325"/></g><defs><clipPath id="a"><rect width="553" height="298" x=".5" fill="#fff" rx="8"/></clipPath><filter id="b" width="781" height="713" x="-6.5" y="-126" color-interpolation-filters="sRGB" filterUnits="userSpaceOnUse"><feFlood flood-opacity="0" result="BackgroundImageFix"/><feBlend in="SourceGraphic" in2="BackgroundImageFix" result="shape"/><feGaussianBlur result="effect1_foregroundBlur_1_1367" stdDeviation="90"/></filter></defs></svg>