<svg xmlns="http://www.w3.org/2000/svg" width="17" height="17" fill="none" viewBox="0 0 17 17"><g clip-path="url(#a)"><path fill="#407bff" d="M6.5 7.96a2.25 2.25 0 1 0 0 4.5 2.25 2.25 0 0 0 0-4.5m0 3a.75.75 0 1 1 0-1.5.75.75 0 0 1 0 1.5m8.031-3.28a.75.75 0 0 1 0 1.063l-3 3a.751.751 0 1 1-1.062-1.063l3-3a.75.75 0 0 1 1.063 0m-2.25-1.25a.75.75 0 0 1 0 1.063l-1.25 1.25A.751.751 0 0 1 9.97 7.68l1.25-1.25a.75.75 0 0 1 1.063 0m2.75-1.687-1 1A.751.751 0 0 1 12.97 4.68l1-1a.751.751 0 0 1 1.063 1.063M7.97 5.68l4.5-4.5a.751.751 0 0 1 1.063 1.063l-4.5 4.5A.751.751 0 1 1 7.968 5.68m1.89 6.829a.75.75 0 0 1 0 1.062 4.75 4.75 0 0 1-6.717-6.72L8.313 1.68a.751.751 0 0 1 1.063 1.063l-5.173 5.17a3.25 3.25 0 0 0 4.596 4.596.75.75 0 0 1 1.06 0"/></g><defs><clipPath id="a"><path fill="#fff" d="M.5.21h16v16H.5z"/></clipPath></defs></svg>