<svg xmlns="http://www.w3.org/2000/svg" width="132" height="117" fill="none" viewBox="0 0 132 117"><g opacity=".33"><rect width="33.999" height="33.999" x="97.341" y="9.239" fill="#1f1f1f" rx="9.338"/><rect width="33.999" height="33.999" x="97.341" y="9.239" stroke="#333" stroke-width=".479" rx="9.338"/></g><g opacity=".33"><rect width="26.44" height="26.44" x="9.757" y="16.707" fill="#1f1f1f" rx="7.262"/><rect width="26.44" height="26.44" x="9.757" y="16.707" stroke="#333" stroke-width=".372" rx="7.262"/></g><g filter="url(#a)"><rect width="74.139" height="74.139" x="28.719" y="21.308" fill="#1f1f1f" rx="20.594"/><rect width="73.11" height="73.11" x="29.234" y="21.823" stroke="#333" stroke-width="1.03" rx="20.079"/><path fill="#cacaca" d="M65.833 46.869a8.087 8.087 0 0 1 8.078 8.478 6.932 6.932 0 0 1-2.301 13.472H60.056a6.932 6.932 0 0 1-2.302-13.472q-.009-.195-.009-.391a8.087 8.087 0 0 1 8.087-8.087m0 2.31a5.776 5.776 0 0 0-5.77 6.058l.082 1.718-1.623.572a4.623 4.623 0 0 0 1.535 8.982h11.552a4.621 4.621 0 1 0-4.385-6.083l-2.192-.731a6.935 6.935 0 0 1 6.577-4.74 5.776 5.776 0 0 0-5.776-5.776"/></g><g opacity=".33"><rect width="33.999" height="33.999" x=".239" y="81.724" fill="#1f1f1f" rx="9.338"/><rect width="33.999" height="33.999" x=".239" y="81.724" stroke="#333" stroke-width=".479" rx="9.338"/></g><g opacity=".33"><rect width="26.44" height="26.44" x="97.007" y="80.448" fill="#1f1f1f" rx="7.262"/><rect width="26.44" height="26.44" x="97.007" y="80.448" stroke="#333" stroke-width=".372" rx="7.262"/></g><defs><filter id="a" width="115.328" height="115.328" x="8.124" y=".714" color-interpolation-filters="sRGB" filterUnits="userSpaceOnUse"><feFlood flood-opacity="0" result="BackgroundImageFix"/><feColorMatrix in="SourceAlpha" result="hardAlpha" values="0 0 0 0 0 0 0 0 0 0 0 0 0 0 0 0 0 0 127 0"/><feOffset/><feGaussianBlur stdDeviation="10.297"/><feComposite in2="hardAlpha" operator="out"/><feColorMatrix values="0 0 0 0 0.619694 0 0 0 0 0.619694 0 0 0 0 0.619694 0 0 0 0.25 0"/><feBlend in2="BackgroundImageFix" result="effect1_dropShadow_163_171"/><feBlend in="SourceGraphic" in2="effect1_dropShadow_163_171" result="shape"/></filter></defs></svg>