<svg xmlns="http://www.w3.org/2000/svg" width="648" height="643" fill="none" viewBox="0 0 648 643"><g clip-path="url(#a)"><rect width="648" height="643" fill="#292929" rx="24"/><g stroke="#fff" opacity=".05"><path d="M673.08-126.399s391.13 501.93 26.367 654.137-86.382 541.392-934.035 389.75C-1082.24 765.85-108.653 1582.8-108.653 1582.8"/><path d="M303.088-369.629s391.13 501.929 26.367 654.136-86.382 541.389-934.035 389.751c-847.65-151.639 125.935 665.312 125.935 665.312"/><path d="M669.685-128.622s391.135 501.93 26.368 654.137C331.289 677.722 609.67 1066.9-237.982 915.266c-847.648-151.639 125.935 665.314 125.935 665.314"/><path d="M665.736-131.219s391.134 501.93 26.367 654.137c-364.763 152.206-86.382 541.392-934.035 389.75-847.648-151.639 125.936 665.312 125.936 665.312"/><path d="M661.228-134.196s391.132 501.93 26.368 654.137-86.383 541.389-934.035 389.75c-847.651-151.638 125.935 665.319 125.935 665.319"/><path d="M656.119-137.543s391.131 501.929 26.367 654.136-86.382 541.387-934.035 389.751C-1099.2 754.705-125.614 1571.66-125.614 1571.66"/><path d="M650.47-141.27s391.13 501.93 26.368 654.137c-364.764 152.207-86.383 541.393-934.035 389.75-847.653-151.638 125.935 665.313 125.935 665.313"/><path d="M644.224-145.368s391.136 501.93 26.368 654.137c-364.764 152.207-86.383 541.391-934.035 389.75-847.657-151.638 125.935 665.311 125.935 665.311"/><path d="M637.431-149.84s391.129 501.929 26.368 654.136c-364.764 152.207-86.383 541.394-934.035 389.751-847.654-151.639 125.935 665.313 125.935 665.313"/><path d="M630.06-154.688s391.13 501.93 26.368 654.137c-364.764 152.207-86.383 541.391-934.035 389.75-847.653-151.638 125.935 665.311 125.935 665.311"/><path d="M622.095-159.914s391.135 501.929 26.368 654.136C283.699 646.429 562.08 1035.61-285.572 883.973c-847.648-151.639 125.935 665.317 125.935 665.317"/><path d="M613.592-165.504s391.128 501.929 26.367 654.136c-364.763 152.207-86.383 541.388-934.035 389.751C-1141.73 726.744-168.141 1543.7-168.141 1543.7"/><path d="M604.506-171.485s391.13 501.93 26.367 654.137-86.382 541.388-934.035 389.75c-847.648-151.638 125.935 665.318 125.935 665.318"/><path d="M594.834-177.829s391.13 501.93 26.367 654.137-86.382 541.392-934.035 389.75C-1160.49 714.42-186.899 1531.37-186.899 1531.37"/><path d="M584.619-184.543s391.131 501.929 26.367 654.136-86.382 541.387-934.035 389.751C-1170.7 707.705-197.114 1524.66-197.114 1524.66"/><path d="M573.83-191.649s391.131 501.93 26.367 654.137-86.382 541.392-934.035 389.75C-1181.49 700.6-207.903 1517.55-207.903 1517.55"/><path d="M562.459-199.114s391.13 501.93 26.367 654.137-86.382 541.389-934.035 389.75c-847.651-151.638 125.935 665.317 125.935 665.317"/><path d="M550.533-206.957S941.664 294.972 576.9 447.179 490.518 988.568-357.135 836.93c-847.655-151.639 125.936 665.31 125.936 665.31"/><path d="M538.021-215.18s391.131 501.93 26.368 654.137c-364.764 152.207-86.383 541.388-934.035 389.75-847.654-151.639 125.935 665.313 125.935 665.313"/><path d="M524.947-223.782s391.131 501.93 26.367 654.137-86.382 541.389-934.035 389.75c-847.649-151.638 125.936 665.315 125.936 665.315"/><path d="M511.299-232.75s391.13 501.929 26.367 654.136-86.383 541.389-934.035 389.751 125.935 665.313 125.935 665.313"/><path d="M497.088-242.09s391.13 501.929 26.367 654.136-86.382 541.389-934.035 389.751c-847.65-151.639 125.935 665.313 125.935 665.313"/><path d="M482.299-251.817s391.13 501.93 26.367 654.137-86.383 541.389-934.035 389.75c-847.651-151.638 125.935 665.31 125.935 665.31"/><path d="M466.943-261.918s391.131 501.929 26.367 654.136-86.382 541.389-934.035 389.751C-1288.38 630.33-314.789 1447.28-314.789 1447.28"/><path d="M451.025-272.379s391.131 501.929 26.367 654.136-86.382 541.389-934.035 389.751C-1304.3 619.869-330.707 1436.82-330.707 1436.82"/><path d="M434.537-283.231s391.131 501.93 26.367 654.137-86.382 541.389-934.035 389.75c-847.649-151.638 125.935 665.314 125.935 665.314"/><path d="M417.451-294.45s391.131 501.93 26.367 654.137-86.382 541.389-934.035 389.75c-847.653-151.638 125.936 665.313 125.936 665.313"/><path d="M399.822-306.036s391.131 501.93 26.367 654.137-86.382 541.389-934.035 389.75C-1355.5 586.213-381.91 1403.17-381.91 1403.17"/><path d="M381.615-318.012s391.131 501.93 26.367 654.137-86.382 541.388-934.035 389.75c-847.657-151.639 125.936 665.315 125.936 665.315"/><path d="M362.838-330.352s391.13 501.93 26.367 654.137-86.382 541.388-934.035 389.75c-847.65-151.638 125.935 665.315 125.935 665.315"/><path d="M343.482-343.071s391.131 501.93 26.368 654.137C5.086 463.273 283.467 852.455-564.185 700.816-1411.84 549.178-438.25 1366.13-438.25 1366.13"/><path d="M323.556-356.168s391.131 501.929 26.368 654.136C-14.84 450.175 263.541 839.357-584.111 687.719-1431.76 536.08-458.176 1353.03-458.176 1353.03"/></g><rect width="90" height="30" x="24" y="24" fill="#1f1f1f" rx="15"/><path fill="#fff" d="M41.958 44.168q-2.142 0-3.64-1.484-1.498-1.499-1.498-3.654t1.498-3.64q1.498-1.498 3.64-1.498 1.413 0 2.562.644a4.96 4.96 0 0 1 1.834 1.764l-1.092.658a3.9 3.9 0 0 0-1.386-1.344 3.8 3.8 0 0 0-1.918-.49q-1.624 0-2.73 1.134-1.092 1.134-1.092 2.772t1.092 2.772q1.106 1.134 2.73 1.134 1.063 0 1.918-.49a3.9 3.9 0 0 0 1.386-1.344l1.092.658a4.96 4.96 0 0 1-1.834 1.764q-1.149.644-2.562.644M48.214 44v-9.94h2.856q2.282 0 3.78 1.414 1.512 1.414 1.512 3.556t-1.512 3.556Q53.352 44 51.07 44zm1.302-1.218h1.554q1.778 0 2.87-1.05 1.106-1.064 1.106-2.702t-1.106-2.688q-1.092-1.064-2.87-1.064h-1.554zm13.38 1.386q-2.142 0-3.64-1.484-1.498-1.499-1.498-3.654t1.498-3.64q1.498-1.498 3.64-1.498 1.414 0 2.562.644a4.96 4.96 0 0 1 1.834 1.764l-1.092.658a3.9 3.9 0 0 0-1.386-1.344 3.8 3.8 0 0 0-1.918-.49q-1.624 0-2.73 1.134-1.092 1.134-1.092 2.772t1.092 2.772q1.105 1.134 2.73 1.134 1.065 0 1.918-.49a3.9 3.9 0 0 0 1.386-1.344l1.092.658a4.96 4.96 0 0 1-1.834 1.764q-1.148.644-2.562.644M74.6 44.14q-.966 0-1.694-.406a2.4 2.4 0 0 1-1.05-1.218l.98-.546q.196.518.686.812t1.092.294q.519 0 .868-.252a.8.8 0 0 0 .35-.686.81.81 0 0 0-.28-.63q-.266-.252-.938-.462l-.7-.224q-1.75-.504-1.75-2.044 0-.868.686-1.386.7-.532 1.722-.532 1.596 0 2.31 1.218l-.896.616q-.573-.798-1.456-.798-.476 0-.826.238-.336.225-.336.602 0 .35.21.602.224.238.784.406l.77.238q1.904.588 1.904 2.058 0 .98-.686 1.54-.672.56-1.75.56m6.109 2.786h-1.344l1.526-3.29L77.826 37h1.33l2.408 5.32L83.958 37h1.344zM86.644 44v-7h1.204v1.078q.714-1.218 2.226-1.218 1.19 0 1.918.77t.728 2.058V44h-1.19v-4.13q0-.882-.448-1.386-.448-.518-1.204-.518-.868 0-1.456.686-.574.686-.574 1.876V44zm11.506.14q-1.582 0-2.632-1.05-1.036-1.05-1.036-2.59t1.036-2.59q1.05-1.05 2.632-1.05 1.064 0 1.904.504.855.504 1.33 1.372l-1.05.588a2.4 2.4 0 0 0-.882-.98q-.56-.364-1.302-.364-1.077 0-1.764.728-.686.728-.686 1.792t.686 1.792 1.764.728q.742 0 1.302-.364.575-.365.882-.98l1.05.588a3.54 3.54 0 0 1-1.33 1.372q-.84.504-1.904.504"/><path fill="#3552e9" d="M49.392 116.848V124h-23.52v-2.448q0-1.392.288-2.688.288-1.344.672-2.304.384-1.008 1.2-2.064a45 45 0 0 1 1.392-1.728q.576-.672 1.728-1.584 1.152-.96 1.776-1.392.624-.48 1.968-1.392 1.344-.96 1.872-1.344 5.136-3.648 5.136-6.528 0-1.776-1.056-2.88-1.008-1.152-2.976-1.152-2.064 0-3.36 1.248-1.248 1.248-1.248 3.024h-7.248q0-4.992 3.408-8.208 3.456-3.216 8.688-3.216 4.608 0 7.824 2.832 3.216 2.784 3.216 7.824 0 2.928-1.008 5.232t-2.352 3.696-3.648 3.12q-.096.048-1.92 1.248-1.776 1.152-2.736 1.968t-1.392 1.584zM62.839 124h-8.208l15.264-27.072H54.343V89.92h24.144v6.288zm36.229 0-5.088-6.528L88.89 124h-8.687l9.216-11.616L80.3 100h8.544l5.088 7.008L99.019 100h8.64l-9.12 12.384L107.709 124z"/><path fill="#a3a3a3" d="M25.504 156v-11.36h6.608v1.408h-5.12v3.44h4.048v1.408h-4.048V156zm11.139.16q-1.665 0-2.8-1.216-1.12-1.216-1.12-2.944t1.12-2.944q1.135-1.216 2.8-1.216.879 0 1.632.4.768.384 1.184.992V148h1.376v8h-1.376v-1.232q-.416.607-1.184 1.008a3.54 3.54 0 0 1-1.632.384m.208-1.264q1.184 0 1.952-.832.768-.833.768-2.064t-.768-2.064q-.768-.832-1.952-.832-1.2 0-1.968.832-.768.833-.768 2.064t.768 2.064q.768.832 1.968.832M46 156.16q-1.104 0-1.936-.464a2.75 2.75 0 0 1-1.2-1.392l1.12-.624q.224.592.784.928t1.248.336q.591 0 .992-.288a.92.92 0 0 0 .4-.784.93.93 0 0 0-.32-.72q-.304-.288-1.072-.528l-.8-.256q-2-.576-2-2.336 0-.992.784-1.584.8-.608 1.968-.608 1.824 0 2.64 1.392l-1.024.704q-.656-.912-1.664-.912a1.64 1.64 0 0 0-.944.272q-.384.256-.384.688 0 .4.24.688.256.272.896.464l.88.272q2.176.672 2.176 2.352 0 1.12-.784 1.76-.768.64-2 .64m7.973-.08q-1.104 0-1.776-.624t-.672-1.824v-4.368H49.83V148h1.696v-2.224h1.376V148h2.304v1.264h-2.304v4.192q0 .751.32 1.056.32.304 1.008.304.607 0 .976-.16v1.232a3.9 3.9 0 0 1-1.232.192m6.56.08q-1.84 0-2.992-1.184T56.39 152q0-1.776 1.168-2.96 1.168-1.2 2.992-1.2 1.617 0 2.704 1.088 1.104 1.072 1.104 2.928 0 .24-.016.416h-6.56q.032 1.12.8 1.872.785.752 1.968.752 1.68 0 2.496-1.392l1.088.752q-1.168 1.904-3.6 1.904m-2.656-5.008h5.072q-.16-.96-.848-1.52-.672-.576-1.6-.576-.945 0-1.696.576-.736.56-.928 1.52M66.471 156v-8h1.376v1.552q.224-.736.864-1.184.656-.448 1.376-.448.353 0 .624.064v1.424q-.288-.128-.752-.128-.832 0-1.472.72t-.64 2.032V156zm11.025-10.416a.93.93 0 0 1-.688.272 1 1 0 0 1-.705-.272.96.96 0 0 1-.287-.704q0-.4.287-.688a.96.96 0 0 1 .705-.288q.415 0 .688.288a.97.97 0 0 1 .272.688q0 .416-.272.704M76.104 156v-8h1.376v8zm4.144 0v-8h1.376v1.232q.816-1.392 2.544-1.392 1.36 0 2.192.88t.832 2.352V156h-1.36v-4.72q0-1.008-.512-1.584-.512-.592-1.376-.592-.992 0-1.664.784-.656.784-.656 2.144V156zm13.15.16q-1.808 0-3.008-1.2-1.184-1.2-1.184-2.96t1.184-2.96q1.2-1.2 3.008-1.2 1.215 0 2.176.576.975.576 1.52 1.568l-1.2.672a2.77 2.77 0 0 0-1.008-1.12q-.64-.416-1.488-.416-1.233 0-2.016.832-.784.832-.784 2.048t.784 2.048 2.016.832q.847 0 1.488-.416a2.77 2.77 0 0 0 1.008-1.12l1.2.672a4.05 4.05 0 0 1-1.52 1.568q-.96.576-2.176.576m5.639-.16v-8h1.376v1.552q.223-.736.864-1.184.656-.448 1.376-.448.351 0 .624.064v1.424q-.288-.128-.752-.128-.833 0-1.472.72-.64.72-.64 2.032V156zm9.258.16q-1.84 0-2.992-1.184T104.151 152q0-1.776 1.168-2.96 1.168-1.2 2.992-1.2 1.615 0 2.704 1.088 1.104 1.072 1.104 2.928 0 .24-.016.416h-6.56q.032 1.12.8 1.872.783.752 1.968.752 1.68 0 2.496-1.392l1.088.752q-1.168 1.904-3.6 1.904m-2.656-5.008h5.072q-.16-.96-.848-1.52a2.38 2.38 0 0 0-1.6-.576q-.945 0-1.696.576-.736.56-.928 1.52M124.536 156v-4.704q0-.991-.416-1.584-.4-.608-1.168-.608-.96 0-1.568.752-.593.752-.624 2.048V156h-1.376v-4.704q0-1.008-.416-1.6-.4-.592-1.152-.592-.993 0-1.6.8-.609.784-.608 2.128V156h-1.376v-8h1.376v1.232q.768-1.392 2.416-1.392 1.824 0 2.464 1.712a2.66 2.66 0 0 1 1.024-1.248 2.84 2.84 0 0 1 1.6-.464q1.296 0 2.048.88t.752 2.368V156zm7.532.16q-1.84 0-2.992-1.184T127.924 152q0-1.776 1.168-2.96 1.168-1.2 2.992-1.2 1.616 0 2.704 1.088 1.104 1.072 1.104 2.928 0 .24-.016.416h-6.56q.032 1.12.8 1.872.785.752 1.968.752 1.68 0 2.496-1.392l1.088.752q-1.168 1.904-3.6 1.904m-2.656-5.008h5.072q-.16-.96-.848-1.52-.672-.576-1.6-.576-.944 0-1.696.576-.736.56-.928 1.52m8.593 4.848v-8h1.376v1.232q.816-1.392 2.544-1.392 1.36 0 2.192.88t.832 2.352V156h-1.36v-4.72q0-1.008-.512-1.584-.513-.592-1.376-.592-.993 0-1.664.784-.656.784-.656 2.144V156zm12.592.08q-1.104 0-1.776-.624t-.672-1.824v-4.368h-1.696V148h1.696v-2.224h1.376V148h2.304v1.264h-2.304v4.192q0 .751.32 1.056.32.304 1.008.304.608 0 .976-.16v1.232a3.9 3.9 0 0 1-1.232.192m6.336.08q-1.663 0-2.8-1.216-1.12-1.216-1.12-2.944t1.12-2.944q1.137-1.216 2.8-1.216.88 0 1.632.4.768.384 1.184.992V148h1.376v8h-1.376v-1.232q-.416.607-1.184 1.008a3.54 3.54 0 0 1-1.632.384m.208-1.264q1.184 0 1.952-.832.768-.833.768-2.064t-.768-2.064q-.768-.832-1.952-.832-1.2 0-1.968.832-.768.833-.768 2.064t.768 2.064q.768.832 1.968.832m6.734 1.104v-12h1.376v12zm10.58.16q-1.104 0-1.936-.464a2.74 2.74 0 0 1-1.2-1.392l1.12-.624a1.8 1.8 0 0 0 .784.928q.56.336 1.248.336.592 0 .992-.288a.91.91 0 0 0 .4-.784.93.93 0 0 0-.32-.72q-.304-.288-1.072-.528l-.8-.256q-2-.576-2-2.336 0-.992.784-1.584.8-.608 1.968-.608 1.824 0 2.64 1.392l-1.024.704q-.656-.912-1.664-.912a1.64 1.64 0 0 0-.944.272q-.384.256-.384.688 0 .4.24.688.256.272.896.464l.88.272q2.176.672 2.176 2.352 0 1.12-.784 1.76-.768.64-2 .64m6.981 3.184H179.9l1.744-3.76L178.14 148h1.52l2.752 6.08 2.736-6.08h1.536zm6.783-3.344v-8h1.376v1.232q.816-1.392 2.544-1.392 1.36 0 2.192.88.831.88.832 2.352V156h-1.36v-4.72q0-1.008-.512-1.584-.512-.592-1.376-.592-.992 0-1.664.784-.656.784-.656 2.144V156zm13.149.16q-1.808 0-3.008-1.2-1.184-1.2-1.184-2.96t1.184-2.96q1.2-1.2 3.008-1.2 1.216 0 2.176.576a4.05 4.05 0 0 1 1.52 1.568l-1.2.672a2.76 2.76 0 0 0-1.008-1.12q-.639-.416-1.488-.416-1.231 0-2.016.832-.783.832-.784 2.048 0 1.216.784 2.048.785.832 2.016.832.849 0 1.488-.416a2.76 2.76 0 0 0 1.008-1.12l1.2.672a4.05 4.05 0 0 1-1.52 1.568q-.96.576-2.176.576m12.497-.08q-1.104 0-1.776-.624t-.672-1.824v-4.368h-1.696V148h1.696v-2.224h1.376V148h2.304v1.264h-2.304v4.192q0 .751.32 1.056.32.304 1.008.304.608 0 .976-.16v1.232a3.9 3.9 0 0 1-1.232.192m4.526-.08h-1.376v-12h1.376v5.232q.816-1.392 2.544-1.392 1.36 0 2.192.88.831.88.832 2.352V156h-1.36v-4.72q0-1.008-.512-1.584-.513-.592-1.376-.592-.993 0-1.664.784-.656.784-.656 2.144zm11.502.16q-1.665 0-2.8-1.216-1.12-1.216-1.12-2.944t1.12-2.944q1.135-1.216 2.8-1.216.879 0 1.632.4.768.384 1.184.992V148h1.376v8h-1.376v-1.232q-.416.607-1.184 1.008a3.54 3.54 0 0 1-1.632.384m.208-1.264q1.184 0 1.952-.832.768-.833.768-2.064t-.768-2.064q-.768-.832-1.952-.832-1.2 0-1.968.832-.768.833-.768 2.064t.768 2.064q.768.832 1.968.832m6.734 1.104v-8h1.376v1.232q.816-1.392 2.544-1.392 1.36 0 2.192.88t.832 2.352V156h-1.36v-4.72q0-1.008-.512-1.584-.513-.592-1.376-.592-.993 0-1.664.784-.656.784-.656 2.144V156zM24.096 180l5.024-11.36h1.232l5.04 11.36H33.84l-1.472-3.312h-5.296L25.632 180zm5.616-9.344-2.048 4.688h4.112zm8.62-1.072a.93.93 0 0 1-.688.272 1 1 0 0 1-.704-.272.96.96 0 0 1-.288-.704q0-.4.288-.688a.96.96 0 0 1 .704-.288q.417 0 .688.288a.97.97 0 0 1 .272.688q0 .416-.272.704M36.94 180v-8h1.376v8zm4.145 0v-8h1.376v1.552q.224-.736.864-1.184.656-.448 1.376-.448.351 0 .624.064v1.424q-.288-.128-.752-.128-.833 0-1.472.72-.64.72-.64 2.032V180zm10.211.16a3.6 3.6 0 0 1-1.648-.384q-.751-.4-1.168-1.008V180h-1.376v-12h1.376v5.232q.417-.608 1.168-.992a3.5 3.5 0 0 1 1.648-.4q1.665 0 2.784 1.216 1.136 1.216 1.136 2.944t-1.136 2.944q-1.119 1.216-2.784 1.216m-2.16-2.096q.768.832 1.952.832 1.185 0 1.952-.832.768-.833.768-2.064t-.768-2.064q-.768-.832-1.952-.832t-1.952.832q-.768.833-.768 2.064t.768 2.064m10.178 5.28h-1.536l1.744-3.76L56.018 172h1.52l2.752 6.08 2.736-6.08h1.536zm9.886-3.264q-1.104 0-1.776-.624t-.672-1.824v-4.368h-1.696V172h1.696v-2.224h1.376V172h2.304v1.264h-2.304v4.192q0 .751.32 1.056.32.304 1.008.304.607 0 .976-.16v1.232a3.9 3.9 0 0 1-1.232.192m6.56.08q-1.84 0-2.992-1.184T71.616 176q0-1.776 1.168-2.96 1.168-1.2 2.992-1.2 1.617 0 2.704 1.088 1.104 1.072 1.104 2.928 0 .24-.016.416h-6.56q.032 1.12.8 1.872.785.752 1.968.752 1.68 0 2.496-1.392l1.088.752q-1.167 1.904-3.6 1.904m-2.656-5.008h5.072q-.16-.96-.848-1.52-.672-.576-1.6-.576-.943 0-1.696.576-.735.56-.928 1.52"/><path fill="#3552e9" d="M462.392 116.848V124h-23.52v-2.448q0-1.392.288-2.688.288-1.344.672-2.304.384-1.008 1.2-2.064a45 45 0 0 1 1.392-1.728q.576-.672 1.728-1.584 1.152-.96 1.776-1.392.624-.48 1.968-1.392 1.344-.96 1.872-1.344 5.136-3.648 5.136-6.528 0-1.776-1.056-2.88-1.008-1.152-2.976-1.152-2.064 0-3.36 1.248-1.248 1.248-1.248 3.024h-7.248q0-4.992 3.408-8.208 3.456-3.216 8.688-3.216 4.608 0 7.824 2.832 3.216 2.784 3.216 7.824 0 2.928-1.008 5.232t-2.352 3.696-3.648 3.12q-.096.048-1.92 1.248-1.776 1.152-2.736 1.968t-1.392 1.584zm18.487 7.68q-5.712 0-9.312-3.84t-3.6-9.792v-7.92q0-5.952 3.6-9.792t9.312-3.84q5.664 0 9.264 3.84t3.6 9.792v7.92q0 5.952-3.6 9.792t-9.264 3.84m0-7.152q2.544 0 4.08-1.728t1.536-4.752v-7.92q0-3.024-1.536-4.752t-4.08-1.728q-2.592 0-4.128 1.728t-1.536 4.752v7.92q0 3.024 1.536 4.752t4.128 1.728M515.958 124l-5.088-6.528-5.088 6.528h-8.688l9.216-11.616L497.19 100h8.544l5.088 7.008L515.91 100h8.64l-9.12 12.384L524.598 124z"/><path fill="#a3a3a3" d="M438.504 156v-11.36h6.608v1.408h-5.12v3.44h4.048v1.408h-4.048V156zm11.139.16q-1.665 0-2.8-1.216-1.12-1.216-1.12-2.944t1.12-2.944q1.135-1.216 2.8-1.216.879 0 1.632.4.767.384 1.184.992V148h1.376v8h-1.376v-1.232q-.417.607-1.184 1.008a3.54 3.54 0 0 1-1.632.384m.208-1.264q1.184 0 1.952-.832.768-.833.768-2.064t-.768-2.064q-.768-.832-1.952-.832-1.2 0-1.968.832-.768.833-.768 2.064t.768 2.064q.768.832 1.968.832m9.15 1.264q-1.104 0-1.936-.464a2.74 2.74 0 0 1-1.2-1.392l1.12-.624q.223.592.784.928.56.336 1.248.336.591 0 .992-.288a.92.92 0 0 0 .4-.784.93.93 0 0 0-.32-.72q-.304-.288-1.072-.528l-.8-.256q-2-.576-2-2.336 0-.992.784-1.584.8-.608 1.968-.608 1.824 0 2.64 1.392l-1.024.704q-.656-.912-1.664-.912-.545 0-.944.272-.384.256-.384.688 0 .4.24.688.255.272.896.464l.88.272q2.175.672 2.176 2.352 0 1.12-.784 1.76-.768.64-2 .64m7.973-.08q-1.104 0-1.776-.624t-.672-1.824v-4.368h-1.696V148h1.696v-2.224h1.376V148h2.304v1.264h-2.304v4.192q0 .751.32 1.056.32.304 1.008.304.607 0 .976-.16v1.232a3.9 3.9 0 0 1-1.232.192m6.56.08q-1.84 0-2.992-1.184T469.39 152q0-1.776 1.168-2.96 1.168-1.2 2.992-1.2 1.616 0 2.704 1.088 1.104 1.072 1.104 2.928 0 .24-.016.416h-6.56q.032 1.12.8 1.872.784.752 1.968.752 1.68 0 2.496-1.392l1.088.752q-1.168 1.904-3.6 1.904m-2.656-5.008h5.072q-.16-.96-.848-1.52-.672-.576-1.6-.576-.944 0-1.696.576-.736.56-.928 1.52m8.593 4.848v-8h1.376v1.552q.223-.736.864-1.184.656-.448 1.376-.448.352 0 .624.064v1.424q-.288-.128-.752-.128-.832 0-1.472.72t-.64 2.032V156zm11.024-10.416a.93.93 0 0 1-.688.272 1 1 0 0 1-.704-.272.96.96 0 0 1-.288-.704q0-.4.288-.688a.96.96 0 0 1 .704-.288q.417 0 .688.288a.96.96 0 0 1 .272.688q0 .416-.272.704M489.103 156v-8h1.376v8zm4.145 0v-8h1.376v1.232q.816-1.392 2.544-1.392 1.36 0 2.192.88t.832 2.352V156h-1.36v-4.72q0-1.008-.512-1.584-.512-.592-1.376-.592-.992 0-1.664.784-.656.784-.656 2.144V156zm13.15.16q-1.809 0-3.008-1.2-1.184-1.2-1.184-2.96t1.184-2.96q1.2-1.2 3.008-1.2 1.216 0 2.176.576a4.06 4.06 0 0 1 1.52 1.568l-1.2.672a2.77 2.77 0 0 0-1.008-1.12q-.64-.416-1.488-.416-1.233 0-2.016.832-.784.832-.784 2.048t.784 2.048 2.016.832q.847 0 1.488-.416a2.77 2.77 0 0 0 1.008-1.12l1.2.672a4.06 4.06 0 0 1-1.52 1.568q-.96.576-2.176.576m5.639-.16v-8h1.376v1.552q.224-.736.864-1.184.656-.448 1.376-.448.351 0 .624.064v1.424q-.288-.128-.752-.128-.833 0-1.472.72-.64.72-.64 2.032V156zm9.258.16q-1.84 0-2.992-1.184T517.151 152q0-1.776 1.168-2.96 1.168-1.2 2.992-1.2 1.615 0 2.704 1.088 1.104 1.072 1.104 2.928 0 .24-.016.416h-6.56q.032 1.12.8 1.872.783.752 1.968.752 1.68 0 2.496-1.392l1.088.752q-1.168 1.904-3.6 1.904m-2.656-5.008h5.072q-.16-.96-.848-1.52a2.38 2.38 0 0 0-1.6-.576q-.945 0-1.696.576-.736.56-.928 1.52M537.536 156v-4.704q0-.991-.416-1.584-.4-.608-1.168-.608-.96 0-1.568.752-.592.752-.624 2.048V156h-1.376v-4.704q0-1.008-.416-1.6-.4-.592-1.152-.592-.993 0-1.6.8-.608.784-.608 2.128V156h-1.376v-8h1.376v1.232q.768-1.392 2.416-1.392 1.824 0 2.464 1.712a2.66 2.66 0 0 1 1.024-1.248 2.84 2.84 0 0 1 1.6-.464q1.296 0 2.048.88t.752 2.368V156zm7.532.16q-1.84 0-2.992-1.184T540.924 152q0-1.776 1.168-2.96 1.168-1.2 2.992-1.2 1.616 0 2.704 1.088 1.104 1.072 1.104 2.928 0 .24-.016.416h-6.56q.032 1.12.8 1.872.784.752 1.968.752 1.68 0 2.496-1.392l1.088.752q-1.169 1.904-3.6 1.904m-2.656-5.008h5.072q-.16-.96-.848-1.52-.672-.576-1.6-.576-.944 0-1.696.576-.736.56-.928 1.52m8.593 4.848v-8h1.376v1.232q.816-1.392 2.544-1.392 1.36 0 2.192.88t.832 2.352V156h-1.36v-4.72q0-1.008-.512-1.584-.513-.592-1.376-.592-.993 0-1.664.784-.657.784-.656 2.144V156zm12.592.08q-1.104 0-1.776-.624t-.672-1.824v-4.368h-1.696V148h1.696v-2.224h1.376V148h2.304v1.264h-2.304v4.192q0 .751.32 1.056.32.304 1.008.304.608 0 .976-.16v1.232a3.9 3.9 0 0 1-1.232.192m6.336.08q-1.663 0-2.8-1.216-1.12-1.216-1.12-2.944t1.12-2.944q1.137-1.216 2.8-1.216.88 0 1.632.4.768.384 1.184.992V148h1.376v8h-1.376v-1.232q-.416.607-1.184 1.008a3.54 3.54 0 0 1-1.632.384m.208-1.264q1.184 0 1.952-.832.768-.833.768-2.064t-.768-2.064q-.768-.832-1.952-.832-1.2 0-1.968.832-.768.833-.768 2.064t.768 2.064q.768.832 1.968.832m6.734 1.104v-12h1.376v12zm10.58.16q-1.104 0-1.936-.464a2.74 2.74 0 0 1-1.2-1.392l1.12-.624a1.8 1.8 0 0 0 .784.928q.56.336 1.248.336.592 0 .992-.288a.91.91 0 0 0 .4-.784.93.93 0 0 0-.32-.72q-.304-.288-1.072-.528l-.8-.256q-2-.576-2-2.336 0-.992.784-1.584.8-.608 1.968-.608 1.824 0 2.64 1.392l-1.024.704q-.656-.912-1.664-.912a1.64 1.64 0 0 0-.944.272q-.384.256-.384.688 0 .4.24.688.256.272.896.464l.88.272q2.176.672 2.176 2.352 0 1.12-.784 1.76-.768.64-2 .64m6.981 3.184H592.9l1.744-3.76L591.14 148h1.52l2.752 6.08 2.736-6.08h1.536zm6.783-3.344v-8h1.376v1.232q.816-1.392 2.544-1.392 1.36 0 2.192.88t.832 2.352V156h-1.36v-4.72q0-1.008-.512-1.584-.512-.592-1.376-.592-.993 0-1.664.784-.657.784-.656 2.144V156zm13.149.16q-1.808 0-3.008-1.2-1.184-1.2-1.184-2.96t1.184-2.96q1.2-1.2 3.008-1.2 1.216 0 2.176.576a4.05 4.05 0 0 1 1.52 1.568l-1.2.672a2.76 2.76 0 0 0-1.008-1.12q-.639-.416-1.488-.416-1.231 0-2.016.832t-.784 2.048q0 1.216.784 2.048.785.832 2.016.832.849 0 1.488-.416a2.76 2.76 0 0 0 1.008-1.12l1.2.672a4.05 4.05 0 0 1-1.52 1.568q-.96.576-2.176.576m-172.504 24q-1.808 0-3.008-1.2-1.184-1.2-1.184-2.96t1.184-2.96q1.2-1.2 3.008-1.2 1.216 0 2.176.576a4.05 4.05 0 0 1 1.52 1.568l-1.2.672a2.77 2.77 0 0 0-1.008-1.12q-.64-.416-1.488-.416-1.232 0-2.016.832t-.784 2.048.784 2.048 2.016.832q.847 0 1.488-.416a2.77 2.77 0 0 0 1.008-1.12l1.2.672a4.05 4.05 0 0 1-1.52 1.568q-.96.576-2.176.576m9.191 0q-1.808 0-3.008-1.2-1.184-1.216-1.184-2.96t1.184-2.944q1.2-1.216 3.008-1.216 1.793 0 2.976 1.216 1.2 1.2 1.2 2.944t-1.2 2.96q-1.183 1.2-2.976 1.2m-2.016-2.112q.785.832 2.016.832 1.232 0 2-.832t.768-2.048-.768-2.048-2-.832q-1.231 0-2.016.832-.768.832-.768 2.048t.768 2.048M467.67 180v-4.704q0-.991-.416-1.584-.4-.608-1.168-.608-.96 0-1.568.752-.593.752-.624 2.048V180h-1.376v-4.704q0-1.008-.416-1.6-.4-.592-1.152-.592-.992 0-1.6.8-.608.784-.608 2.128V180h-1.376v-8h1.376v1.232q.768-1.392 2.416-1.392 1.824 0 2.464 1.712a2.67 2.67 0 0 1 1.024-1.248 2.84 2.84 0 0 1 1.6-.464q1.296 0 2.048.88t.752 2.368V180zm5.388 3.344h-1.376V172h1.376v1.232q.417-.608 1.168-.992a3.5 3.5 0 0 1 1.648-.4q1.665 0 2.784 1.216 1.136 1.216 1.136 2.944t-1.136 2.944q-1.119 1.216-2.784 1.216a3.64 3.64 0 0 1-1.648-.384q-.751-.4-1.168-1.008zm.656-5.28q.768.832 1.952.832 1.185 0 1.952-.832.768-.833.768-2.064t-.768-2.064q-.767-.832-1.952-.832-1.184 0-1.952.832-.768.833-.768 2.064t.768 2.064m11.518 2.096q-1.664 0-2.8-1.216-1.12-1.216-1.12-2.944t1.12-2.944q1.136-1.216 2.8-1.216.88 0 1.632.4.768.384 1.184.992V172h1.376v8h-1.376v-1.232q-.416.607-1.184 1.008a3.54 3.54 0 0 1-1.632.384m.208-1.264q1.184 0 1.952-.832.768-.833.768-2.064t-.768-2.064q-.768-.832-1.952-.832-1.2 0-1.968.832-.768.833-.768 2.064t.768 2.064q.768.832 1.968.832m6.734 1.104v-8h1.376v1.552q.224-.736.864-1.184.656-.448 1.376-.448.353 0 .624.064v1.424q-.288-.128-.752-.128-.832 0-1.472.72t-.64 2.032V180zm9.258.16q-1.84 0-2.992-1.184T497.288 176q0-1.776 1.168-2.96 1.168-1.2 2.992-1.2 1.617 0 2.704 1.088 1.104 1.072 1.104 2.928 0 .24-.016.416h-6.56q.032 1.12.8 1.872.784.752 1.968.752 1.68 0 2.496-1.392l1.088.752q-1.167 1.904-3.6 1.904m-2.656-5.008h5.072q-.16-.96-.848-1.52-.672-.576-1.6-.576a2.72 2.72 0 0 0-1.696.576q-.736.56-.928 1.52m11.889 5.008q-1.664 0-2.8-1.216-1.12-1.216-1.12-2.944t1.12-2.944q1.136-1.216 2.8-1.216.88 0 1.632.4.768.384 1.184.992V168h1.376v12h-1.376v-1.232q-.416.607-1.184 1.008a3.54 3.54 0 0 1-1.632.384m.208-1.264q1.184 0 1.952-.832.768-.833.768-2.064t-.768-2.064q-.768-.832-1.952-.832-1.2 0-1.968.832-.768.833-.768 2.064t.768 2.064q.768.832 1.968.832m13.592 1.184q-1.104 0-1.776-.624t-.672-1.824v-4.368h-1.696V172h1.696v-2.224h1.376V172h2.304v1.264h-2.304v4.192q0 .751.32 1.056.32.304 1.008.304.608 0 .976-.16v1.232a3.9 3.9 0 0 1-1.232.192m6.592.08q-1.808 0-3.008-1.2-1.184-1.216-1.184-2.96t1.184-2.944q1.2-1.216 3.008-1.216 1.793 0 2.976 1.216 1.2 1.2 1.2 2.944t-1.2 2.96q-1.183 1.2-2.976 1.2m-2.016-2.112q.785.832 2.016.832 1.233 0 2-.832.768-.832.768-2.048t-.768-2.048-2-.832-2.016.832q-.768.832-.768 2.048t.768 2.048M541.596 180v-11.36h3.264q2.608 0 4.32 1.616 1.728 1.616 1.728 4.064t-1.728 4.064Q547.468 180 544.86 180zm1.488-1.392h1.776q2.032 0 3.28-1.2 1.264-1.216 1.264-3.088t-1.264-3.072q-1.248-1.216-3.28-1.216h-1.776zm13.515 1.552q-1.84 0-2.992-1.184T552.455 176q0-1.776 1.168-2.96 1.168-1.2 2.992-1.2 1.616 0 2.704 1.088 1.104 1.072 1.104 2.928 0 .24-.016.416h-6.56q.032 1.12.8 1.872.785.752 1.968.752 1.68 0 2.496-1.392l1.088.752q-1.169 1.904-3.6 1.904m-2.656-5.008h5.072q-.16-.96-.848-1.52-.672-.576-1.6-.576-.944 0-1.696.576-.736.56-.928 1.52m12.785 5.008a3.6 3.6 0 0 1-1.648-.384q-.752-.4-1.168-1.008V180h-1.376v-12h1.376v5.232q.416-.608 1.168-.992a3.5 3.5 0 0 1 1.648-.4q1.663 0 2.784 1.216 1.136 1.216 1.136 2.944t-1.136 2.944q-1.12 1.216-2.784 1.216m-2.16-2.096q.768.832 1.952.832t1.952-.832q.768-.833.768-2.064t-.768-2.064q-.768-.832-1.952-.832t-1.952.832q-.768.833-.768 2.064t.768 2.064m11.726 2.096q-1.84 0-2.992-1.184T572.15 176q0-1.776 1.168-2.96 1.168-1.2 2.992-1.2 1.616 0 2.704 1.088 1.104 1.072 1.104 2.928 0 .24-.016.416h-6.56q.032 1.12.8 1.872.785.752 1.968.752 1.68 0 2.496-1.392l1.088.752q-1.168 1.904-3.6 1.904m-2.656-5.008h5.072q-.16-.96-.848-1.52-.672-.576-1.6-.576-.944 0-1.696.576-.736.56-.928 1.52m7.937 4.848v-1.088l4.576-5.648h-4.512V172h6.288v1.104l-4.576 5.632h4.72V180zm9.958-10.416a.93.93 0 0 1-.688.272 1 1 0 0 1-.704-.272.96.96 0 0 1-.288-.704q0-.4.288-.688a.96.96 0 0 1 .704-.288q.416 0 .688.288a.97.97 0 0 1 .272.688 1 1 0 0 1-.272.704M590.141 180v-8h1.376v8zm6.976.16q-1.312 0-2.128-.88-.816-.896-.816-2.368V172h1.376v4.704q0 1.008.48 1.6.497.592 1.328.592.96 0 1.584-.784.64-.8.64-2.144V172h1.376v8h-1.376v-1.232q-.784 1.392-2.464 1.392m16.898-.16v-4.704q0-.991-.416-1.584-.4-.608-1.168-.608-.96 0-1.568.752-.592.752-.624 2.048V180h-1.376v-4.704q0-1.008-.416-1.6-.4-.592-1.152-.592-.992 0-1.6.8-.608.784-.608 2.128V180h-1.376v-8h1.376v1.232q.768-1.392 2.416-1.392 1.824 0 2.464 1.712a2.67 2.67 0 0 1 1.024-1.248 2.84 2.84 0 0 1 1.6-.464q1.296 0 2.048.88t.752 2.368V180z"/><rect width="595" height="360" x="24.5" y="234.5" fill="#1f1f1f" rx="11.5"/><rect width="595" height="360" x="24.5" y="234.5" stroke="#3d3d3d" rx="11.5"/><path fill="#1f1f1f" d="M150 260h443a8 8 0 0 1 8 8v269H150z"/><path fill="#193ae6" fill-opacity=".3" d="M197 279a4 4 0 0 1 4 4v32a4 4 0 0 1-4 4h-56v-40z"/><path fill="#193ae6" d="M197 279a4 4 0 0 1 4 4v32a4 4 0 0 1-4 4h-4v-40z"/><path fill="#353347" fill-opacity=".5" d="M297 343a4 4 0 0 1 4 4v32a4 4 0 0 1-4 4H141v-40z"/><path fill="#353347" d="M297 343a4 4 0 0 1 4 4v32a4 4 0 0 1-4 4h-4v-40z"/><path fill="#353347" fill-opacity=".5" d="M495 407a4 4 0 0 1 4 4v32a4 4 0 0 1-4 4H141v-40z"/><path fill="#353347" d="M495 407a4 4 0 0 1 4 4v32a4 4 0 0 1-4 4h-4v-40z"/><path fill="#353347" fill-opacity=".5" d="M495 471a4 4 0 0 1 4 4v32a4 4 0 0 1-4 4H141v-40z"/><path fill="#353347" d="M495 471a4 4 0 0 1 4 4v32a4 4 0 0 1-4 4h-4v-40z"/><path stroke="#47455f" d="M141.5 258v277M141 534.5h451"/><path fill="#fff" d="M283.592 565.192q-2.448 0-4.16-1.696-1.712-1.712-1.712-4.176t1.712-4.16q1.712-1.712 4.16-1.712 1.615 0 2.928.736a5.7 5.7 0 0 1 2.096 2.016l-1.248.752a4.45 4.45 0 0 0-1.584-1.536q-.976-.56-2.192-.56-1.856 0-3.12 1.296-1.248 1.296-1.248 3.168t1.248 3.168q1.264 1.296 3.12 1.296 1.216 0 2.192-.56a4.45 4.45 0 0 0 1.584-1.536l1.248.752a5.7 5.7 0 0 1-2.096 2.016q-1.312.736-2.928.736m7.15-.192v-11.36h3.264q2.608 0 4.32 1.616 1.728 1.616 1.728 4.064t-1.728 4.064q-1.712 1.616-4.32 1.616zm1.488-1.392h1.776q2.032 0 3.28-1.2 1.264-1.216 1.264-3.088t-1.264-3.072q-1.248-1.216-3.28-1.216h-1.776zm15.291 1.584q-2.447 0-4.16-1.696-1.712-1.712-1.712-4.176t1.712-4.16q1.712-1.712 4.16-1.712 1.617 0 2.928.736a5.67 5.67 0 0 1 2.096 2.016l-1.248.752a4.45 4.45 0 0 0-1.584-1.536q-.975-.56-2.192-.56-1.856 0-3.12 1.296-1.248 1.296-1.248 3.168t1.248 3.168q1.264 1.296 3.12 1.296 1.217 0 2.192-.56a4.45 4.45 0 0 0 1.584-1.536l1.248.752a5.67 5.67 0 0 1-2.096 2.016q-1.311.736-2.928.736m13.378-.032q-1.104 0-1.936-.464a2.74 2.74 0 0 1-1.2-1.392l1.12-.624a1.8 1.8 0 0 0 .784.928q.56.336 1.248.336.592 0 .992-.288a.91.91 0 0 0 .4-.784.93.93 0 0 0-.32-.72q-.304-.288-1.072-.528l-.8-.256q-2-.576-2-2.336 0-.991.784-1.584.8-.608 1.968-.608 1.824 0 2.64 1.392l-1.024.704q-.656-.912-1.664-.912a1.64 1.64 0 0 0-.944.272q-.384.256-.384.688 0 .4.24.688.256.272.896.464l.88.272q2.176.672 2.176 2.352 0 1.12-.784 1.76-.768.64-2 .64m6.981 3.184h-1.536l1.744-3.76-3.504-7.584h1.52l2.752 6.08 2.736-6.08h1.536zm6.782-3.344v-8h1.376v1.232q.816-1.392 2.544-1.392 1.36 0 2.192.88t.832 2.352V565h-1.36v-4.72q0-1.008-.512-1.584-.512-.592-1.376-.592-.992 0-1.664.784-.656.784-.656 2.144V565zm13.15.16q-1.808 0-3.008-1.2-1.184-1.2-1.184-2.96t1.184-2.96q1.2-1.2 3.008-1.2 1.216 0 2.176.576a4.05 4.05 0 0 1 1.52 1.568l-1.2.672a2.77 2.77 0 0 0-1.008-1.12q-.64-.416-1.488-.416-1.231 0-2.016.832t-.784 2.048q0 1.216.784 2.048.785.832 2.016.832.847 0 1.488-.416a2.77 2.77 0 0 0 1.008-1.12l1.2.672a4.05 4.05 0 0 1-1.52 1.568q-.96.576-2.176.576m12.497-.08q-1.104 0-1.776-.624t-.672-1.824v-4.368h-1.696V557h1.696v-2.224h1.376V557h2.304v1.264h-2.304v4.192q0 .751.32 1.056.32.304 1.008.304.607 0 .976-.16v1.232a3.9 3.9 0 0 1-1.232.192m4.541-10.496a.93.93 0 0 1-.688.272 1 1 0 0 1-.704-.272.96.96 0 0 1-.288-.704q0-.4.288-.688a.96.96 0 0 1 .704-.288q.417 0 .688.288a.96.96 0 0 1 .272.688q0 .416-.272.704M363.458 565v-8h1.376v8zm14.449 0v-4.704q0-.991-.416-1.584-.4-.608-1.168-.608-.96 0-1.568.752-.593.752-.624 2.048V565h-1.376v-4.704q0-1.008-.416-1.6-.4-.592-1.152-.592-.992 0-1.6.8-.608.784-.608 2.128V565h-1.376v-8h1.376v1.232q.768-1.392 2.416-1.392 1.824 0 2.464 1.712a2.67 2.67 0 0 1 1.024-1.248 2.84 2.84 0 0 1 1.6-.464q1.296 0 2.048.88t.752 2.368V565zm7.532.16q-1.84 0-2.992-1.184T381.295 561q0-1.776 1.168-2.96 1.168-1.2 2.992-1.2 1.616 0 2.704 1.088 1.104 1.073 1.104 2.928 0 .24-.016.416h-6.56q.032 1.12.8 1.872.785.752 1.968.752 1.68 0 2.496-1.392l1.088.752q-1.168 1.904-3.6 1.904m-2.656-5.008h5.072q-.16-.96-.848-1.52-.672-.576-1.6-.576-.944 0-1.696.576-.736.56-.928 1.52m15.236 7.408h-1.12q-2.048-3.727-2.048-7.68t2.048-7.68h1.12q-1.936 3.76-1.936 7.68t1.936 7.68m3.335-12.976a.94.94 0 0 1-.688.272.99.99 0 0 1-.704-.272.96.96 0 0 1-.288-.704q0-.4.288-.688a.96.96 0 0 1 .704-.288q.415 0 .688.288a.97.97 0 0 1 .272.688 1 1 0 0 1-.272.704M399.962 565v-8h1.376v8zm4.144 0v-8h1.376v1.232q.816-1.392 2.544-1.392 1.36 0 2.192.88t.832 2.352V565h-1.36v-4.72q0-1.008-.512-1.584-.512-.592-1.376-.592-.992 0-1.664.784-.656.784-.656 2.144V565zm23.905 0v-4.704q0-.991-.416-1.584-.4-.608-1.168-.608-.96 0-1.568.752-.591.752-.624 2.048V565h-1.376v-4.704q0-1.008-.416-1.6-.399-.592-1.152-.592-.991 0-1.6.8-.608.784-.608 2.128V565h-1.376v-8h1.376v1.232q.768-1.392 2.416-1.392 1.825 0 2.464 1.712a2.67 2.67 0 0 1 1.024-1.248 2.85 2.85 0 0 1 1.6-.464q1.296 0 2.048.88.753.88.752 2.368V565zm5.404-10.416a.93.93 0 0 1-.688.272 1 1 0 0 1-.704-.272.96.96 0 0 1-.288-.704q0-.4.288-.688a.96.96 0 0 1 .704-.288q.417 0 .688.288a.96.96 0 0 1 .272.688q0 .416-.272.704M432.023 565v-8h1.376v8zm4.145 0v-8h1.376v1.232q.816-1.392 2.544-1.392 1.36 0 2.192.88t.832 2.352V565h-1.36v-4.72q0-1.008-.512-1.584-.512-.592-1.376-.592-.992 0-1.664.784-.656.784-.656 2.144V565zm11.998.16q-1.105 0-1.936-.464a2.74 2.74 0 0 1-1.2-1.392l1.12-.624q.223.592.784.928.56.336 1.248.336.591 0 .992-.288a.92.92 0 0 0 .4-.784.93.93 0 0 0-.32-.72q-.304-.288-1.072-.528l-.8-.256q-2-.576-2-2.336 0-.991.784-1.584.8-.608 1.968-.608 1.824 0 2.64 1.392l-1.024.704q-.656-.912-1.664-.912-.545 0-.944.272-.384.256-.384.688 0 .4.24.688.255.272.896.464l.88.272q2.175.672 2.176 2.352 0 1.12-.784 1.76-.768.64-2 .64m4.86 2.4h-1.12q1.936-3.76 1.936-7.68t-1.936-7.68h1.12q2.048 3.727 2.048 7.68t-2.048 7.68M213.354 304.14q-1.554 0-2.534-1.036-.98-1.05-.98-2.702v-2.772q0-1.652.98-2.688.994-1.05 2.534-1.05t2.534 1.05.994 2.688v2.772q0 1.652-.994 2.702-.994 1.036-2.534 1.036m0-1.176q1.036 0 1.68-.686t.644-1.876v-2.772q0-1.19-.644-1.876t-1.68-.686q-1.022 0-1.666.686t-.644 1.876v2.772q0 1.19.644 1.876t1.666.686M231.53 304v-4.116q0-.869-.364-1.386-.35-.532-1.022-.532-.84 0-1.372.658-.519.658-.546 1.792V304h-1.204v-4.116q0-.882-.364-1.4-.351-.518-1.008-.518-.869 0-1.4.7-.532.686-.532 1.862V304h-1.204v-7h1.204v1.078q.672-1.218 2.114-1.218 1.596 0 2.156 1.498.28-.686.896-1.092.615-.406 1.4-.406 1.134 0 1.792.77.657.77.658 2.072V304zm4.728-9.114a.81.81 0 0 1-.602.238.86.86 0 0 1-.616-.238.84.84 0 0 1-.252-.616q0-.35.252-.602a.84.84 0 0 1 .616-.252q.365 0 .602.252a.85.85 0 0 1 .238.602.86.86 0 0 1-.238.616M235.04 304v-7h1.204v7zm3.627 0v-7h1.204v1.078q.714-1.218 2.226-1.218 1.19 0 1.918.77t.728 2.058V304h-1.19v-4.13q0-.882-.448-1.386-.448-.518-1.204-.518-.868 0-1.456.686-.574.686-.574 1.876V304zm17.893-1.162V304h-6.44v-.476q0-.518.154-.98a4.3 4.3 0 0 1 .364-.798q.195-.322.616-.714.42-.406.658-.588.237-.196.798-.588.56-.406.742-.532.993-.728 1.372-1.218.392-.504.392-1.316 0-.784-.504-1.246-.504-.476-1.316-.476-.855 0-1.456.518-.602.518-.602 1.442h-1.232q0-1.4.924-2.268.938-.868 2.352-.868 1.315 0 2.184.756.882.756.882 2.156 0 1.064-.518 1.82-.519.742-1.778 1.652l-.672.476q-.435.294-.672.476a9 9 0 0 0-.532.448q-.28.252-.448.546a2.2 2.2 0 0 0-.224.616zm4.824 1.302q-1.455 0-2.408-.882-.938-.882-.938-2.24 0-1.82 1.568-2.59-1.022-.727-1.022-1.974 0-1.12.784-1.834.798-.728 2.016-.728 1.233 0 2.002.728.784.714.784 1.834 0 1.26-1.008 1.974 1.554.77 1.554 2.59 0 1.358-.938 2.24-.924.882-2.394.882m0-1.148q.98 0 1.54-.56.574-.56.574-1.414 0-.868-.574-1.428-.56-.56-1.54-.56-.952 0-1.54.574-.588.56-.588 1.414 0 .84.588 1.414.589.56 1.54.56m0-5.04q.729 0 1.162-.42.435-.433.434-1.05 0-.643-.434-1.05-.42-.406-1.162-.406-.714 0-1.162.42a1.34 1.34 0 0 0-.448 1.036q0 .602.448 1.036t1.162.434m6.626 5.852a.97.97 0 0 1-.728.308q-.433 0-.742-.308a1.04 1.04 0 0 1-.294-.742q0-.42.308-.728a.98.98 0 0 1 .728-.322q.42 0 .728.322a1 1 0 0 1 .308.728q0 .434-.308.742m5.334.336q-1.485 0-2.52-.896-1.023-.91-1.022-2.268h1.218a1.98 1.98 0 0 0 .714 1.442q.657.546 1.61.546.867 0 1.442-.476.574-.476.574-1.316 0-.895-.588-1.344-.574-.448-1.582-.448h-.742v-1.106h.798q.798 0 1.302-.448.517-.448.532-1.162a1.45 1.45 0 0 0-.518-1.148q-.504-.448-1.274-.448-.882 0-1.484.518t-.602 1.442h-1.232q0-1.428.952-2.282.951-.854 2.366-.854 1.302 0 2.156.756.868.743.868 1.974-.014.714-.392 1.288-.364.575-.952.882.756.308 1.19.952.434.63.434 1.47 0 1.302-.91 2.114t-2.338.812m10.868 0q-.966 0-1.694-.406a2.4 2.4 0 0 1-1.05-1.218l.98-.546q.195.518.686.812.489.294 1.092.294.517 0 .868-.252a.8.8 0 0 0 .35-.686.82.82 0 0 0-.28-.63q-.267-.252-.938-.462l-.7-.224q-1.75-.504-1.75-2.044 0-.869.686-1.386.699-.532 1.722-.532 1.596 0 2.31 1.218l-.896.616q-.574-.798-1.456-.798-.477 0-.826.238a.69.69 0 0 0-.336.602q0 .35.21.602.223.238.784.406l.77.238q1.904.588 1.904 2.058 0 .98-.686 1.54-.673.56-1.75.56m7.409 0q-1.61 0-2.618-1.036t-1.008-2.604q0-1.554 1.022-2.59 1.022-1.05 2.618-1.05 1.413 0 2.366.952.966.938.966 2.562 0 .21-.014.364h-5.74q.027.98.7 1.638.686.658 1.722.658 1.47 0 2.184-1.218l.952.658q-1.023 1.666-3.15 1.666m-2.324-4.382h4.438q-.14-.84-.742-1.33a2.08 2.08 0 0 0-1.4-.504q-.827 0-1.484.504-.644.49-.812 1.33m10.64 4.382q-1.582 0-2.632-1.05-1.036-1.05-1.036-2.59t1.036-2.59q1.05-1.05 2.632-1.05 1.065 0 1.904.504.855.504 1.33 1.372l-1.05.588a2.4 2.4 0 0 0-.882-.98q-.56-.364-1.302-.364-1.077 0-1.764.728-.686.728-.686 1.792t.686 1.792q.687.728 1.764.728.742 0 1.302-.364.575-.364.882-.98l1.05.588a3.54 3.54 0 0 1-1.33 1.372q-.84.504-1.904.504"/><path fill="#a3a3a3" d="M313.158 368.14q-1.483 0-2.52-.896-1.022-.91-1.022-2.268h1.218a1.98 1.98 0 0 0 .714 1.442q.658.546 1.61.546.868 0 1.442-.476t.574-1.316q0-.895-.588-1.344-.574-.448-1.582-.448h-.742v-1.106h.798q.798 0 1.302-.448.518-.448.532-1.162a1.45 1.45 0 0 0-.518-1.148q-.504-.448-1.274-.448-.882 0-1.484.518t-.602 1.442h-1.232q0-1.428.952-2.282t2.366-.854q1.302 0 2.156.756.868.743.868 1.974-.014.714-.392 1.288-.364.575-.952.882.756.308 1.19.952.434.63.434 1.47 0 1.302-.91 2.114t-2.338.812m17.77-.14v-4.116q0-.869-.364-1.386-.35-.532-1.022-.532-.84 0-1.372.658-.518.658-.546 1.792V368h-1.204v-4.116q0-.882-.364-1.4-.35-.518-1.008-.518-.868 0-1.4.7-.532.686-.532 1.862V368h-1.204v-7h1.204v1.078q.672-1.218 2.114-1.218 1.596 0 2.156 1.498.28-.686.896-1.092a2.5 2.5 0 0 1 1.4-.406q1.134 0 1.792.77t.658 2.072V368zm4.729-9.114a.82.82 0 0 1-.602.238.86.86 0 0 1-.616-.238.84.84 0 0 1-.252-.616q0-.35.252-.602a.84.84 0 0 1 .616-.252q.363 0 .602.252a.85.85 0 0 1 .238.602q0 .364-.238.616M334.439 368v-7h1.204v7zm3.626 0v-7h1.204v1.078q.714-1.218 2.226-1.218 1.19 0 1.918.77t.728 2.058V368h-1.19v-4.13q0-.882-.448-1.386-.448-.518-1.204-.518-.868 0-1.456.686-.574.686-.574 1.876V368zm12.797 0v-8.75h-1.918l.98-1.19h2.142V368zm7.017.14q-1.554 0-2.534-1.036-.98-1.05-.98-2.702v-2.772q0-1.652.98-2.688.994-1.05 2.534-1.05t2.534 1.05.994 2.688v2.772q0 1.652-.994 2.702-.994 1.036-2.534 1.036m0-1.176q1.036 0 1.68-.686t.644-1.876v-2.772q0-1.19-.644-1.876-.643-.686-1.68-.686-1.022 0-1.666.686t-.644 1.876v2.772q0 1.19.644 1.876t1.666.686m11.274 1.176q-.966 0-1.694-.406a2.4 2.4 0 0 1-1.05-1.218l.98-.546q.195.518.686.812.489.294 1.092.294.517 0 .868-.252a.8.8 0 0 0 .35-.686.82.82 0 0 0-.28-.63q-.267-.252-.938-.462l-.7-.224q-1.75-.504-1.75-2.044 0-.869.686-1.386.699-.532 1.722-.532 1.596 0 2.31 1.218l-.896.616q-.574-.798-1.456-.798-.477 0-.826.238a.69.69 0 0 0-.336.602q0 .35.21.602.223.238.784.406l.77.238q1.904.588 1.904 2.058 0 .98-.686 1.54-.672.56-1.75.56m7.408 0q-1.61 0-2.618-1.036t-1.008-2.604q0-1.554 1.022-2.59 1.022-1.05 2.618-1.05 1.415 0 2.366.952.966.938.966 2.562 0 .21-.014.364h-5.74q.028.98.7 1.638.687.658 1.722.658 1.47 0 2.184-1.218l.952.658q-1.021 1.666-3.15 1.666m-2.324-4.382h4.438q-.14-.84-.742-1.33a2.08 2.08 0 0 0-1.4-.504 2.38 2.38 0 0 0-1.484.504q-.644.49-.812 1.33m10.641 4.382q-1.582 0-2.632-1.05-1.036-1.05-1.036-2.59t1.036-2.59q1.05-1.05 2.632-1.05 1.064 0 1.904.504a3.54 3.54 0 0 1 1.33 1.372l-1.05.588a2.4 2.4 0 0 0-.882-.98q-.56-.364-1.302-.364-1.079 0-1.764.728-.686.728-.686 1.792t.686 1.792 1.764.728q.742 0 1.302-.364.575-.364.882-.98l1.05.588a3.54 3.54 0 0 1-1.33 1.372q-.84.504-1.904.504M509.03 432v-8.75h-1.918l.98-1.19h2.142V432zm9.789-1.162V432h-6.44v-.476q0-.518.154-.98a4.3 4.3 0 0 1 .364-.798q.196-.322.616-.714.42-.406.658-.588.237-.196.798-.588.56-.406.742-.532.994-.728 1.372-1.218.392-.504.392-1.316 0-.784-.504-1.246-.504-.476-1.316-.476-.855 0-1.456.518-.603.518-.602 1.442h-1.232q0-1.4.924-2.268.938-.868 2.352-.868 1.315 0 2.184.756.882.756.882 2.156 0 1.064-.518 1.82-.518.742-1.778 1.652l-.672.476q-.435.294-.672.476a9 9 0 0 0-.532.448q-.28.252-.448.546a2.2 2.2 0 0 0-.224.616zM533.306 432v-4.116q0-.869-.364-1.386-.35-.532-1.022-.532-.84 0-1.372.658-.518.658-.546 1.792V432h-1.204v-4.116q0-.882-.364-1.4-.35-.518-1.008-.518-.867 0-1.4.7-.532.686-.532 1.862V432h-1.204v-7h1.204v1.078q.672-1.218 2.114-1.218 1.596 0 2.156 1.498.28-.686.896-1.092a2.5 2.5 0 0 1 1.4-.406q1.135 0 1.792.77.658.77.658 2.072V432zm4.729-9.114a.82.82 0 0 1-.602.238.86.86 0 0 1-.616-.238.84.84 0 0 1-.252-.616q0-.35.252-.602a.84.84 0 0 1 .616-.252q.364 0 .602.252a.85.85 0 0 1 .238.602.86.86 0 0 1-.238.616M536.817 432v-7h1.204v7zm3.626 0v-7h1.204v1.078q.714-1.218 2.226-1.218 1.19 0 1.918.77t.728 2.058V432h-1.19v-4.13q0-.882-.448-1.386-.448-.518-1.204-.518-.867 0-1.456.686-.573.686-.574 1.876V432zm16.297 0v-2.702h-5.292v-.966l5.446-6.272h1.05v6.104h1.372v1.134h-1.372V432zm-3.724-3.836h3.724v-4.284zM565.521 432v-2.702h-5.292v-.966l5.446-6.272h1.05v6.104h1.372v1.134h-1.372V432zm-3.724-3.836h3.724v-4.284zm13.74 3.976q-.966 0-1.694-.406a2.4 2.4 0 0 1-1.05-1.218l.98-.546q.195.518.686.812.489.294 1.092.294.517 0 .868-.252a.8.8 0 0 0 .35-.686.82.82 0 0 0-.28-.63q-.267-.252-.938-.462l-.7-.224q-1.75-.504-1.75-2.044 0-.869.686-1.386.699-.532 1.722-.532 1.596 0 2.31 1.218l-.896.616q-.574-.798-1.456-.798-.477 0-.826.238a.69.69 0 0 0-.336.602q0 .35.21.602.223.238.784.406l.77.238q1.904.588 1.904 2.058 0 .98-.686 1.54-.673.56-1.75.56m7.408 0q-1.61 0-2.618-1.036t-1.008-2.604q0-1.554 1.022-2.59 1.022-1.05 2.618-1.05 1.415 0 2.366.952.966.938.966 2.562 0 .21-.014.364h-5.74q.028.98.7 1.638.687.658 1.722.658 1.47 0 2.184-1.218l.952.658q-1.022 1.666-3.15 1.666m-2.324-4.382h4.438q-.14-.84-.742-1.33a2.08 2.08 0 0 0-1.4-.504 2.38 2.38 0 0 0-1.484.504q-.644.49-.812 1.33m10.641 4.382q-1.582 0-2.632-1.05-1.036-1.05-1.036-2.59t1.036-2.59q1.05-1.05 2.632-1.05 1.065 0 1.904.504.855.504 1.33 1.372l-1.05.588a2.4 2.4 0 0 0-.882-.98q-.56-.364-1.302-.364-1.077 0-1.764.728-.686.728-.686 1.792t.686 1.792 1.764.728q.743 0 1.302-.364.575-.364.882-.98l1.05.588a3.54 3.54 0 0 1-1.33 1.372q-.84.504-1.904.504M509.03 496v-8.75h-1.918l.98-1.19h2.142V496zm9.789-1.162V496h-6.44v-.476q0-.518.154-.98a4.3 4.3 0 0 1 .364-.798q.196-.322.616-.714.42-.406.658-.588.237-.196.798-.588.56-.406.742-.532.994-.728 1.372-1.218.392-.504.392-1.316 0-.784-.504-1.246-.504-.476-1.316-.476-.855 0-1.456.518-.603.518-.602 1.442h-1.232q0-1.4.924-2.268.938-.868 2.352-.868 1.315 0 2.184.756.882.756.882 2.156 0 1.064-.518 1.82-.518.742-1.778 1.652l-.672.476q-.435.294-.672.476a9 9 0 0 0-.532.448q-.28.252-.448.546a2.2 2.2 0 0 0-.224.616zM533.306 496v-4.116q0-.869-.364-1.386-.35-.532-1.022-.532-.84 0-1.372.658-.518.658-.546 1.792V496h-1.204v-4.116q0-.882-.364-1.4-.35-.518-1.008-.518-.867 0-1.4.7-.532.686-.532 1.862V496h-1.204v-7h1.204v1.078q.672-1.218 2.114-1.218 1.596 0 2.156 1.498.28-.686.896-1.092a2.5 2.5 0 0 1 1.4-.406q1.135 0 1.792.77.658.77.658 2.072V496zm4.729-9.114a.82.82 0 0 1-.602.238.86.86 0 0 1-.616-.238.84.84 0 0 1-.252-.616q0-.35.252-.602a.84.84 0 0 1 .616-.252q.364 0 .602.252a.85.85 0 0 1 .238.602.86.86 0 0 1-.238.616M536.817 496v-7h1.204v7zm3.626 0v-7h1.204v1.078q.714-1.218 2.226-1.218 1.19 0 1.918.77t.728 2.058V496h-1.19v-4.13q0-.882-.448-1.386-.448-.518-1.204-.518-.867 0-1.456.686-.573.686-.574 1.876V496zm16.297 0v-2.702h-5.292v-.966l5.446-6.272h1.05v6.104h1.372v1.134h-1.372V496zm-3.724-3.836h3.724v-4.284zM565.521 496v-2.702h-5.292v-.966l5.446-6.272h1.05v6.104h1.372v1.134h-1.372V496zm-3.724-3.836h3.724v-4.284zm13.74 3.976q-.966 0-1.694-.406a2.4 2.4 0 0 1-1.05-1.218l.98-.546q.195.518.686.812.489.294 1.092.294.517 0 .868-.252a.8.8 0 0 0 .35-.686.82.82 0 0 0-.28-.63q-.267-.252-.938-.462l-.7-.224q-1.75-.504-1.75-2.044 0-.869.686-1.386.699-.532 1.722-.532 1.596 0 2.31 1.218l-.896.616q-.574-.798-1.456-.798-.477 0-.826.238a.69.69 0 0 0-.336.602q0 .35.21.602.223.238.784.406l.77.238q1.904.588 1.904 2.058 0 .98-.686 1.54-.673.56-1.75.56m7.408 0q-1.61 0-2.618-1.036t-1.008-2.604q0-1.554 1.022-2.59 1.022-1.05 2.618-1.05 1.415 0 2.366.952.966.938.966 2.562 0 .21-.014.364h-5.74q.028.98.7 1.638.687.658 1.722.658 1.47 0 2.184-1.218l.952.658q-1.022 1.666-3.15 1.666m-2.324-4.382h4.438q-.14-.84-.742-1.33a2.08 2.08 0 0 0-1.4-.504 2.38 2.38 0 0 0-1.484.504q-.644.49-.812 1.33m10.641 4.382q-1.582 0-2.632-1.05-1.036-1.05-1.036-2.59t1.036-2.59q1.05-1.05 2.632-1.05 1.065 0 1.904.504.855.504 1.33 1.372l-1.05.588a2.4 2.4 0 0 0-.882-.98q-.56-.364-1.302-.364-1.077 0-1.764.728-.686.728-.686 1.792t.686 1.792 1.764.728q.743 0 1.302-.364.575-.364.882-.98l1.05.588a3.54 3.54 0 0 1-1.33 1.372q-.84.504-1.904.504"/><path fill="#fff" d="m68.096 497 5.024-11.36h1.232l5.04 11.36H77.84l-1.472-3.312h-5.296L69.632 497zm5.616-9.344-2.048 4.688h4.112zm8.62-1.072a.93.93 0 0 1-.688.272 1 1 0 0 1-.704-.272.96.96 0 0 1-.288-.704q0-.4.288-.688a.96.96 0 0 1 .704-.288q.417 0 .688.288a.97.97 0 0 1 .272.688q0 .416-.272.704M80.94 497v-8h1.376v8zm4.145 0v-8h1.376v1.552q.224-.736.864-1.184.656-.448 1.376-.448.351 0 .624.064v1.424q-.288-.128-.752-.128-.833 0-1.472.72-.64.72-.64 2.032V497zm10.211.16a3.6 3.6 0 0 1-1.648-.384q-.751-.4-1.168-1.008V497h-1.376v-12h1.376v5.232q.416-.608 1.168-.992a3.5 3.5 0 0 1 1.648-.4q1.664 0 2.784 1.216 1.136 1.216 1.136 2.944t-1.136 2.944q-1.119 1.216-2.784 1.216m-2.16-2.096q.768.832 1.952.832 1.185 0 1.952-.832.768-.832.768-2.064t-.768-2.064-1.952-.832-1.952.832-.768 2.064.768 2.064m10.178 5.28h-1.536l1.744-3.76-3.504-7.584h1.52l2.752 6.08 2.736-6.08h1.536zm9.886-3.264q-1.104 0-1.776-.624t-.672-1.824v-4.368h-1.696V489h1.696v-2.224h1.376V489h2.304v1.264h-2.304v4.192q0 .752.32 1.056t1.008.304q.608 0 .976-.16v1.232a3.9 3.9 0 0 1-1.232.192m6.56.08q-1.84 0-2.992-1.184T115.616 493q0-1.776 1.168-2.96 1.168-1.2 2.992-1.2 1.617 0 2.704 1.088 1.104 1.072 1.104 2.928 0 .24-.016.416h-6.56q.033 1.12.8 1.872.784.752 1.968.752 1.68 0 2.496-1.392l1.088.752q-1.167 1.904-3.6 1.904m-2.656-5.008h5.072q-.16-.96-.848-1.52-.672-.576-1.6-.576a2.72 2.72 0 0 0-1.696.576q-.735.56-.928 1.52M49.504 433v-11.36h3.264q2.608 0 4.32 1.616 1.728 1.616 1.728 4.064t-1.728 4.064Q55.376 433 52.768 433zm1.488-1.392h1.776q2.032 0 3.28-1.2 1.264-1.216 1.264-3.088t-1.264-3.072q-1.248-1.216-3.28-1.216h-1.776zm13.515 1.552q-1.84 0-2.992-1.184T60.363 429q0-1.776 1.168-2.96 1.168-1.2 2.992-1.2 1.617 0 2.704 1.088 1.104 1.072 1.104 2.928 0 .24-.016.416h-6.56q.032 1.12.8 1.872.785.752 1.968.752 1.68 0 2.496-1.392l1.088.752q-1.167 1.904-3.6 1.904m-2.656-5.008h5.072q-.16-.96-.848-1.52-.672-.576-1.6-.576-.944 0-1.696.576-.735.56-.928 1.52m12.785 5.008a3.6 3.6 0 0 1-1.648-.384q-.751-.4-1.168-1.008V433h-1.376v-12h1.376v5.232q.417-.608 1.168-.992a3.5 3.5 0 0 1 1.648-.4q1.665 0 2.784 1.216 1.136 1.216 1.136 2.944t-1.136 2.944q-1.119 1.216-2.784 1.216m-2.16-2.096q.768.832 1.952.832 1.185 0 1.952-.832.768-.832.768-2.064t-.768-2.064-1.952-.832q-1.185 0-1.952.832-.768.832-.768 2.064t.768 2.064m11.726 2.096q-1.84 0-2.992-1.184T80.058 429q0-1.776 1.168-2.96 1.168-1.2 2.992-1.2 1.617 0 2.704 1.088 1.104 1.072 1.104 2.928 0 .24-.016.416h-6.56q.032 1.12.8 1.872.785.752 1.968.752 1.68 0 2.496-1.392l1.088.752q-1.167 1.904-3.6 1.904m-2.656-5.008h5.072q-.16-.96-.848-1.52-.672-.576-1.6-.576-.944 0-1.696.576-.735.56-.928 1.52M89.483 433v-1.088l4.576-5.648h-4.512V425h6.288v1.104l-4.576 5.632h4.72V433zm9.958-10.416a.93.93 0 0 1-.688.272 1 1 0 0 1-.704-.272.96.96 0 0 1-.288-.704q0-.4.288-.688a.96.96 0 0 1 .704-.288q.417 0 .688.288a.97.97 0 0 1 .272.688q0 .416-.272.704M98.05 433v-8h1.376v8zm6.976.16q-1.311 0-2.128-.88-.816-.896-.816-2.368V425h1.376v4.704q0 1.008.48 1.6.497.592 1.328.592.96 0 1.584-.784.64-.8.64-2.144V425h1.376v8h-1.376v-1.232q-.783 1.392-2.464 1.392m16.898-.16v-4.704q0-.992-.416-1.584-.4-.608-1.168-.608-.96 0-1.568.752-.592.752-.624 2.048V433h-1.376v-4.704q0-1.008-.416-1.6-.4-.592-1.152-.592-.992 0-1.6.8-.608.784-.608 2.128V433h-1.376v-8h1.376v1.232q.768-1.392 2.416-1.392 1.824 0 2.464 1.712a2.67 2.67 0 0 1 1.024-1.248 2.84 2.84 0 0 1 1.6-.464q1.296 0 2.048.88t.752 2.368V433zM63.504 369v-11.36h6.608v1.408h-5.12v3.44h4.048v1.408h-4.048V369zm9.828-10.416a.93.93 0 0 1-.688.272 1 1 0 0 1-.704-.272.96.96 0 0 1-.288-.704q0-.4.288-.688a.96.96 0 0 1 .704-.288q.417 0 .688.288a.97.97 0 0 1 .272.688q0 .416-.272.704M71.94 369v-8h1.376v8zm6.64 0-3.695-8h1.536l2.736 6.064L81.893 361h1.536l-3.696 8zm9.747.16q-1.84 0-2.992-1.184T84.183 365q0-1.776 1.168-2.96 1.168-1.2 2.992-1.2 1.617 0 2.704 1.088 1.104 1.072 1.104 2.928 0 .24-.016.416h-6.56q.032 1.12.8 1.872.784.752 1.968.752 1.68 0 2.496-1.392l1.088.752q-1.167 1.904-3.6 1.904m-2.656-5.008h5.072q-.16-.96-.848-1.52-.672-.576-1.6-.576-.944 0-1.696.576-.735.56-.928 1.52m11.588 4.928q-1.104 0-1.776-.624t-.672-1.824v-4.368h-1.696V361h1.696v-2.224h1.376V361h2.304v1.264h-2.304v4.192q0 .752.32 1.056t1.008.304q.607 0 .976-.16v1.232a3.9 3.9 0 0 1-1.232.192m3.149-.08v-8h1.376v1.552q.225-.736.864-1.184.656-.448 1.376-.448.352 0 .624.064v1.424q-.287-.128-.752-.128-.831 0-1.472.72-.64.72-.64 2.032V369zm9.05.16q-1.663 0-2.8-1.216-1.12-1.216-1.12-2.944t1.12-2.944q1.137-1.216 2.8-1.216.88 0 1.632.4.768.384 1.184.992V361h1.376v8h-1.376v-1.232q-.416.607-1.184 1.008a3.54 3.54 0 0 1-1.632.384m.208-1.264q1.185 0 1.952-.832.768-.832.768-2.064t-.768-2.064-1.952-.832q-1.2 0-1.968.832T106.93 365t.768 2.064 1.968.832M116.4 369v-8h1.376v1.232q.816-1.392 2.544-1.392 1.36 0 2.192.88t.832 2.352V369h-1.36v-4.72q0-1.008-.512-1.584-.512-.592-1.376-.592-.992 0-1.664.784-.656.784-.656 2.144V369zM81.592 303.784q1.872 0 3.12-1.296 1.264-1.296 1.264-3.168t-1.264-3.168q-1.248-1.296-3.12-1.296-1.855 0-3.12 1.296-1.248 1.296-1.248 3.168t1.248 3.168q1.264 1.296 3.12 1.296m0 1.408q-2.448 0-4.16-1.696-1.712-1.712-1.712-4.176t1.712-4.16q1.712-1.712 4.16-1.712 2.465 0 4.16 1.712 1.712 1.696 1.712 4.16t-1.712 4.176q-1.695 1.696-4.16 1.696m8.275-.192v-11.36h1.488v9.952h5.488V305zm11.779.16q-1.663 0-2.8-1.216-1.12-1.216-1.12-2.944t1.12-2.944q1.137-1.216 2.8-1.216.88 0 1.632.4.768.384 1.184.992V297h1.376v8h-1.376v-1.232q-.416.607-1.184 1.008a3.54 3.54 0 0 1-1.632.384m.208-1.264q1.185 0 1.952-.832.768-.833.768-2.064t-.768-2.064q-.767-.832-1.952-.832-1.2 0-1.968.832-.768.833-.768 2.064t.768 2.064q.768.832 1.968.832M114.3 305l-4.336-4v4h-1.376v-12h1.376v7.12l3.488-3.12h1.824l-3.936 3.536 4.816 4.464zm6.078.16q-1.84 0-2.992-1.184T116.234 301q0-1.776 1.168-2.96 1.168-1.2 2.992-1.2 1.616 0 2.704 1.088 1.104 1.072 1.104 2.928 0 .24-.016.416h-6.56q.032 1.12.8 1.872.784.752 1.968.752 1.68 0 2.496-1.392l1.088.752q-1.169 1.904-3.6 1.904m-2.656-5.008h5.072q-.16-.96-.848-1.52-.672-.576-1.6-.576-.944 0-1.696.576-.736.56-.928 1.52"/></g><defs><clipPath id="a"><rect width="648" height="643" fill="#fff" rx="24"/></clipPath></defs></svg>