<svg xmlns="http://www.w3.org/2000/svg" width="121" height="36" fill="none" viewBox="0 0 121 36"><path fill="#fff" d="M35.895 0H.549v19.483c14.704-1.583 35.29-1.979 25.208 3.562-6.83 3.752-2.148 5.137 1.952 6.35 2.668.788 5.089 1.504 3.93 2.752-2.362 2.542 2.319 3.553 4.256 3.853zM56.412 26.946q-2.54 0-4.482-1.145-1.917-1.17-3.013-3.23-1.07-2.084-1.07-4.832 0-2.721 1.07-4.78 1.096-2.086 3.013-3.256 1.942-1.17 4.481-1.17 2.615 0 4.532 1.17 1.941 1.17 3.013 3.255 1.07 2.06 1.07 4.781 0 2.747-1.07 4.832-1.072 2.06-3.013 3.23-1.917 1.145-4.532 1.145m.024-1.882q1.918 0 3.362-.865 1.469-.89 2.265-2.518.822-1.653.822-3.942t-.822-3.916q-.796-1.653-2.265-2.518-1.445-.865-3.362-.865-1.916 0-3.386.865-1.444.865-2.265 2.518-.797 1.627-.797 3.916t.797 3.942q.821 1.628 2.265 2.518 1.47.864 3.386.865M67.874 26.64V8.839h2.987V24.25h7.768v2.39zM85.621 26.946q-1.544 0-2.564-.534t-1.519-1.424a3.9 3.9 0 0 1-.498-1.933q0-1.221.598-2.111.622-.89 1.817-1.373 1.195-.51 2.938-.51h3.162q0-1.016-.274-1.678-.274-.686-.846-1.017-.573-.33-1.47-.33-1.02 0-1.742.483-.722.458-.896 1.424h-2.938q.15-1.374.896-2.34.747-.992 1.967-1.526a6.54 6.54 0 0 1 2.714-.56q1.768 0 3.012.636 1.245.61 1.893 1.78.672 1.146.672 2.773v7.935h-2.54l-.299-2.06q-.248.508-.647.94a4.3 4.3 0 0 1-.871.764 4.4 4.4 0 0 1-1.146.483 5.2 5.2 0 0 1-1.419.178m.672-2.416q.723 0 1.27-.255.573-.279.971-.763a3.8 3.8 0 0 0 .648-1.119q.224-.61.298-1.297v-.05h-2.763q-.871 0-1.444.228-.573.204-.822.61a1.77 1.77 0 0 0-.249.942q0 .534.25.915.248.383.721.585.474.204 1.12.204M103.827 26.64l-5.552-7.019 4.979-5.798h3.561l-6.2 7.044v-2.365l6.947 8.139zm-8.092 0V8.33h2.988v18.31zM114.449 26.946q-1.867 0-3.287-.814a5.84 5.84 0 0 1-2.215-2.34q-.797-1.5-.797-3.459 0-2.034.772-3.56a5.97 5.97 0 0 1 2.216-2.39q1.443-.865 3.336-.865 1.842 0 3.212.839a5.73 5.73 0 0 1 2.116 2.263q.747 1.4.747 3.154v.56q0 .305-.05.635h-10.208v-1.958h7.245q-.05-1.4-.921-2.187-.872-.814-2.166-.814-.921 0-1.693.432t-1.22 1.297q-.448.84-.448 2.137v.737q0 1.196.423 2.06.448.865 1.195 1.323a3.45 3.45 0 0 0 1.718.432q1.046 0 1.718-.458a2.7 2.7 0 0 0 1.021-1.22h3.037a6 6 0 0 1-1.145 2.161 5.8 5.8 0 0 1-1.967 1.5q-1.17.535-2.639.535"/></svg>