<svg xmlns="http://www.w3.org/2000/svg" width="72" height="72" fill="none" viewBox="0 0 72 72"><circle cx="36" cy="36" r="36" fill="#333"/><path fill="#7c91f8" fill-rule="evenodd" d="M22.664 16.333c0-.92.746-1.667 1.667-1.667h23.333a1.667 1.667 0 0 1 0 3.333h-1.667v5.287a5 5 0 0 1-1.464 3.535L38.354 33l6.178 6.178a5 5 0 0 1 1.465 3.535V48h1.667a1.667 1.667 0 0 1 0 3.334H24.331a1.667 1.667 0 0 1 0-3.334h1.666v-5.286c0-1.326.528-2.598 1.465-3.535l6.178-6.179-6.178-6.178a5 5 0 0 1-1.465-3.535V18h-1.666c-.92 0-1.667-.746-1.667-1.666m6.667 1.666v5.287c0 .441.176.866.488 1.178l6.178 6.178 6.179-6.178c.312-.312.488-.736.488-1.178v-5.287zm6.666 17.357-6.178 6.179a1.67 1.67 0 0 0-.488 1.178v5.286h13.333v-5.286c0-.442-.176-.866-.488-1.178z" clip-rule="evenodd"/></svg>