<svg xmlns="http://www.w3.org/2000/svg" width="170" height="170" fill="none" viewBox="0 0 170 170"><g filter="url(#a)"><rect width="108.42" height="108.42" x="30.789" y="30.79" fill="#1f1f1f" rx="30.117"/><path fill="#fff" d="M84.793 64.79c-11.05 0-20 8.95-20 20 0 8.85 5.725 16.325 13.675 18.975 1 .175 1.375-.425 1.375-.95 0-.475-.025-2.05-.025-3.725-5.025.925-6.325-1.225-6.725-2.35-.225-.575-1.2-2.35-2.05-2.825-.7-.375-1.7-1.3-.025-1.325 1.575-.025 2.7 1.45 3.075 2.05 1.8 3.025 4.675 2.175 5.825 1.65.175-1.3.7-2.175 1.275-2.675-4.45-.5-9.1-2.225-9.1-9.875 0-2.175.775-3.975 2.05-5.375-.2-.5-.9-2.55.2-5.3 0 0 1.675-.525 5.5 2.05 1.6-.45 3.3-.675 5-.675s3.4.225 5 .675c3.825-2.6 5.5-2.05 5.5-2.05 1.1 2.75.4 4.8.2 5.3 1.275 1.4 2.05 3.175 2.05 5.375 0 7.675-4.675 9.375-9.125 9.875.725.625 1.35 1.825 1.35 3.7 0 2.675-.025 4.825-.025 5.5 0 .525.375 1.15 1.375.95a20.03 20.03 0 0 0 13.625-18.975c0-11.05-8.95-20-20-20"/></g><defs><filter id="a" width="168.653" height="168.653" x=".672" y=".673" color-interpolation-filters="sRGB" filterUnits="userSpaceOnUse"><feFlood flood-opacity="0" result="BackgroundImageFix"/><feColorMatrix in="SourceAlpha" result="hardAlpha" values="0 0 0 0 0 0 0 0 0 0 0 0 0 0 0 0 0 0 127 0"/><feOffset/><feGaussianBlur stdDeviation="15.058"/><feComposite in2="hardAlpha" operator="out"/><feColorMatrix values="0 0 0 0 0.864583 0 0 0 0 0.864583 0 0 0 0 0.864583 0 0 0 1 0"/><feBlend in2="BackgroundImageFix" result="effect1_dropShadow_849_160"/><feBlend in="SourceGraphic" in2="effect1_dropShadow_849_160" result="shape"/></filter></defs></svg>