<svg xmlns="http://www.w3.org/2000/svg" width="72" height="72" fill="none" viewBox="0 0 72 72"><circle cx="36" cy="36" r="36" fill="#333"/><path fill="#7c91f8" fill-rule="evenodd" d="M22.664 19c0-.92.746-1.666 1.667-1.666h5a1.667 1.667 0 1 1 0 3.333h-3.334v26.667h3.334a1.667 1.667 0 1 1 0 3.333h-5c-.92 0-1.667-.746-1.667-1.666zm18.333 0c0-.92.747-1.666 1.667-1.666h5c.92 0 1.667.746 1.667 1.667v30c0 .92-.747 1.666-1.667 1.666h-5a1.667 1.667 0 1 1 0-3.333h3.333V20.667h-3.333c-.92 0-1.667-.746-1.667-1.666" clip-rule="evenodd"/></svg>