<svg xmlns="http://www.w3.org/2000/svg" width="72" height="72" fill="none" viewBox="0 0 72 72"><circle cx="36" cy="36" r="36" fill="#333"/><path fill="#193ae6" fill-rule="evenodd" d="M22.667 21c-.913 0-1.667.754-1.667 1.667v16.667c0 .912.754 1.666 1.667 1.666a1.667 1.667 0 1 1 0 3.334 5.01 5.01 0 0 1-5-5V22.667c0-2.754 2.246-5 5-5h16.666c2.754 0 5 2.246 5 5a1.667 1.667 0 1 1-3.333 0c0-.913-.754-1.667-1.667-1.667zm10 10c-.92 0-1.667.747-1.667 1.667v16.667c0 .92.746 1.666 1.667 1.666h16.666c.92 0 1.667-.746 1.667-1.666V32.667c0-.92-.746-1.667-1.667-1.667zm-5 1.667a5 5 0 0 1 5-5h16.666a5 5 0 0 1 5 5v16.667a5 5 0 0 1-5 5H32.667a5 5 0 0 1-5-5z" clip-rule="evenodd"/></svg>