<svg xmlns="http://www.w3.org/2000/svg" width="280" height="120" fill="none" viewBox="0 0 280 120"><circle cx="60" cy="60" r="22" fill="#10aa50"/><path fill="#fff" d="M60 82V38c6 6 9 14 9 22s-3 16-9 22"/><path stroke="#fff" d="M60 38c-6 6-9 14-9 22s3 16 9 22"/><circle cx="120" cy="60" r="22" fill="#336791"/><path stroke="#fff" d="M110 60c0-5.5 4.5-10 10-10s10 4.5 10 10-4.5 10-10 10M120 70v8M115 75h10"/><circle cx="180" cy="60" r="22" fill="#4479a1"/><rect width="20" height="20" x="170" y="50" stroke="#fff" rx="2"/><path stroke="#fff" d="M175 55h10M175 60h10M175 65h10"/><circle cx="240" cy="60" r="22" fill="#f97316"/><path stroke="#fff" d="M230 50h10l10 10v10h-20z"/><path stroke="#fff" d="M240 50v10h10"/></svg>