<svg xmlns="http://www.w3.org/2000/svg" width="24" height="24" fill="none" viewBox="0 0 24 24"><g clip-path="url(#a)"><path fill="url(#b)" d="M12.004.182c-4.935 0-6.378.005-6.659.028-1.013.084-1.643.244-2.33.585-.528.263-.946.568-1.357.995Q.534 2.957.288 4.665c-.08.552-.103.665-.108 3.488v3.841c0 4.931.006 6.373.03 6.653.081.985.236 1.605.563 2.284A4.98 4.98 0 0 0 4 23.567c.488.125 1.026.195 1.717.227.292.013 3.276.022 6.261.022s5.971-.004 6.257-.018c.8-.038 1.264-.1 1.778-.233a4.95 4.95 0 0 0 3.227-2.642c.32-.661.483-1.305.557-2.24.016-.203.023-3.45.023-6.692s-.008-6.484-.023-6.687c-.075-.95-.238-1.587-.569-2.262a4.7 4.7 0 0 0-1.012-1.386C21.434.909 20.478.454 19.338.29c-.552-.08-.662-.103-3.487-.108z"/><path fill="url(#c)" d="M12.004.182c-4.935 0-6.378.005-6.659.028-1.013.084-1.643.244-2.33.585-.528.263-.946.568-1.357.995Q.534 2.957.288 4.665c-.08.552-.103.665-.108 3.488v3.841c0 4.931.006 6.373.03 6.653.081.985.236 1.605.563 2.284A4.98 4.98 0 0 0 4 23.567c.488.125 1.026.195 1.717.227.292.013 3.276.022 6.261.022s5.971-.004 6.257-.018c.8-.038 1.264-.1 1.778-.233a4.95 4.95 0 0 0 3.227-2.642c.32-.661.483-1.305.557-2.24.016-.203.023-3.45.023-6.692s-.008-6.484-.023-6.687c-.075-.95-.238-1.587-.569-2.262a4.7 4.7 0 0 0-1.012-1.386C21.434.909 20.478.454 19.338.29c-.552-.08-.662-.103-3.487-.108z"/><path fill="#fff" d="M12.001 3.273c-2.37 0-2.667.01-3.598.053-.93.043-1.563.19-2.118.406a4.3 4.3 0 0 0-1.546 1.006A4.3 4.3 0 0 0 3.73 6.284c-.216.555-.363 1.19-.405 2.118-.042.93-.053 1.229-.053 3.599s.011 2.666.053 3.597c.043.93.19 1.564.406 2.118.223.575.52 1.061 1.006 1.546.485.486.972.785 1.546 1.008.555.216 1.19.363 2.118.405.93.043 1.228.053 3.598.053s2.667-.01 3.598-.053c.929-.042 1.564-.19 2.119-.405a4.3 4.3 0 0 0 1.545-1.008 4.3 4.3 0 0 0 1.007-1.545c.215-.555.362-1.19.406-2.118.041-.931.052-1.228.052-3.598s-.01-2.668-.053-3.599c-.043-.929-.19-1.563-.405-2.118a4.3 4.3 0 0 0-1.007-1.546 4.3 4.3 0 0 0-1.546-1.006c-.556-.216-1.19-.363-2.12-.406-.93-.042-1.227-.053-3.598-.053zm-.783 1.573h.783c2.33 0 2.607.009 3.527.05.85.04 1.312.181 1.62.3.407.16.698.348 1.003.654.305.305.494.596.653 1.003.12.308.262.77.3 1.62.042.92.051 1.197.051 3.526s-.009 2.605-.05 3.525c-.04.851-.182 1.313-.301 1.62a2.7 2.7 0 0 1-.653 1.003 2.7 2.7 0 0 1-1.003.652c-.307.12-.77.262-1.62.301-.92.042-1.197.051-3.527.051s-2.606-.009-3.526-.05c-.851-.04-1.313-.182-1.62-.302a2.7 2.7 0 0 1-1.004-.652 2.7 2.7 0 0 1-.653-1.004c-.12-.307-.262-.769-.301-1.62-.042-.92-.05-1.196-.05-3.527 0-2.33.008-2.605.05-3.525.039-.85.181-1.313.3-1.62.159-.408.348-.698.654-1.004a2.7 2.7 0 0 1 1.003-.653c.308-.12.77-.262 1.62-.3.806-.037 1.118-.048 2.744-.05zm5.442 1.45a1.047 1.047 0 1 0 0 2.094 1.047 1.047 0 0 0 0-2.095M12 7.518a4.482 4.482 0 1 0 0 8.964 4.482 4.482 0 0 0 0-8.964m0 1.573a2.91 2.91 0 1 1 0 5.818 2.91 2.91 0 0 1 0-5.818"/></g><defs><radialGradient id="b" cx="0" cy="0" r="1" gradientTransform="matrix(0 -23.4234 21.7909 0 6.46 25.636)" gradientUnits="userSpaceOnUse"><stop stop-color="#fd5"/><stop offset=".1" stop-color="#fd5"/><stop offset=".5" stop-color="#ff543e"/><stop offset="1" stop-color="#c837ab"/></radialGradient><radialGradient id="c" cx="0" cy="0" r="1" gradientTransform="rotate(78.678 -3.04 -1.364)scale(10.4705 43.1693)" gradientUnits="userSpaceOnUse"><stop stop-color="#3771c8"/><stop offset=".128" stop-color="#3771c8"/><stop offset="1" stop-color="#60f" stop-opacity="0"/></radialGradient><clipPath id="a"><path fill="#fff" d="M0 0h24v24H0z"/></clipPath></defs></svg>