<svg xmlns="http://www.w3.org/2000/svg" width="24" height="24" fill="none" viewBox="0 0 24 24"><g fill-rule="evenodd" clip-path="url(#a)" clip-rule="evenodd"><path fill="#0077b5" d="M0 12C0 5.373 5.373 0 12 0s12 5.373 12 12-5.373 12-12 12S0 18.627 0 12"/><path fill="#fff" d="M8.482 9.939v8.171h-2.72V9.939zm.18-2.528c0 .785-.592 1.413-1.54 1.413h-.017c-.913 0-1.503-.628-1.503-1.413C5.602 6.61 6.21 6 7.14 6s1.504.61 1.522 1.411m9.628 6.014v4.685h-2.72v-4.371c0-1.098-.394-1.848-1.378-1.848-.752 0-1.2.505-1.396.994-.072.174-.09.418-.09.662v4.563h-2.72s.037-7.404 0-8.17h2.72v1.157c.362-.557 1.008-1.35 2.452-1.35 1.79 0 3.132 1.168 3.132 3.678"/></g><defs><clipPath id="a"><path fill="#fff" d="M0 0h24v24H0z"/></clipPath></defs></svg>