<svg xmlns="http://www.w3.org/2000/svg" width="34" height="24" fill="none" viewBox="0 0 34 24"><g clip-path="url(#a)"><g clip-path="url(#b)"><path fill="red" d="M33.29 3.748A4.28 4.28 0 0 0 30.282.717C27.633 0 17 0 17 0S6.367 0 3.717.717A4.28 4.28 0 0 0 .71 3.747C0 6.42 0 12 0 12s0 5.58.71 8.252a4.28 4.28 0 0 0 3.007 3.031C6.367 24 17 24 17 24s10.633 0 13.283-.717a4.28 4.28 0 0 0 3.006-3.03C34 17.578 34 12 34 12s-.003-5.58-.71-8.252"/><path fill="#fff" d="M13.594 17.142 22.427 12l-8.833-5.143z"/></g></g><defs><clipPath id="a"><path fill="#fff" d="M0 0h34v24H0z"/></clipPath><clipPath id="b"><path fill="#fff" d="M0 0h34v24H0z"/></clipPath></defs></svg>