<svg xmlns="http://www.w3.org/2000/svg" width="373" height="184" fill="none" viewBox="0 0 373 184"><path fill="#e5f6ff" d="M.25 24c0-13.255 10.745-24 24-24h324c13.255 0 24 10.745 24 24v136c0 13.255-10.745 24-24 24h-324c-13.255 0-24-10.745-24-24z"/><path fill="#009fee" d="m205.501 91.627 7.847-7.85a13.87 13.87 0 0 0 4.195-9.85 13.875 13.875 0 0 0-8.609-12.931 13.88 13.88 0 0 0-10.706.07 13.9 13.9 0 0 0-4.504 3.086l-7.851 7.847-7.85-7.847a13.89 13.89 0 0 0-9.851-4.195 13.88 13.88 0 0 0-9.904 4.065 13.876 13.876 0 0 0 .13 19.754l7.847 7.851-7.847 7.85a13.87 13.87 0 0 0-4.195 9.851 13.88 13.88 0 0 0 13.969 13.969 13.9 13.9 0 0 0 9.851-4.195l7.85-7.847 7.851 7.847a13.897 13.897 0 0 0 9.85 4.195 13.88 13.88 0 0 0 13.969-13.969 13.872 13.872 0 0 0-4.195-9.85zm-6.425-22.123a6.306 6.306 0 0 1 8.998-.078 6.31 6.31 0 0 1-.078 8.998l-7.851 7.841-8.91-8.91zm-4.283 22.123-8.92 8.92-8.92-8.92 8.92-8.92zM163.75 78.424a6.3 6.3 0 0 1-1.925-4.483 6.32 6.32 0 0 1 1.847-4.515 6.32 6.32 0 0 1 4.516-1.847 6.3 6.3 0 0 1 4.482 1.925l7.841 7.85-8.91 8.911zm8.92 35.326a6.31 6.31 0 0 1-10.333-6.873 6.3 6.3 0 0 1 1.413-2.047l7.851-7.841 8.91 8.91zm35.326 0a6.31 6.31 0 0 1-8.92 0l-7.841-7.851 8.91-8.91 7.851 7.85a6.31 6.31 0 0 1 0 8.92z"/></svg>