<svg xmlns="http://www.w3.org/2000/svg" width="373" height="184" fill="none" viewBox="0 0 373 184"><path fill="#eafbf1" d="M.25 24c0-13.255 10.745-24 24-24h324c13.255 0 24 10.745 24 24v136c0 13.255-10.745 24-24 24h-324c-13.255 0-24-10.745-24-24z"/><mask id="a" width="88" height="105" x="142" y="40" maskUnits="userSpaceOnUse" style="mask-type:luminance"><path fill="#fff" d="m186.12 40-43.87 52.45 43.87 52.448 43.871-52.449z"/></mask><g mask="url(#a)"><path fill="#389e0d" d="M188.198 53.88c-.538-.567-1.234-.88-1.955-.88s-1.417.313-1.955.88c-7.269 7.648-12.525 15.785-15.625 24.185-2.966 8.037-3.762 15.996-2.305 23.021 1.991 9.588 8.111 16.847 16.943 20.239v7.152c0 .459.076.912.224 1.336a3.6 3.6 0 0 0 .639 1.131c.274.324.599.581.956.756.358.175.741.265 1.128.265.782 0 1.532-.367 2.084-1.021a3.6 3.6 0 0 0 .639-1.131 4 4 0 0 0 .224-1.336v-7.152c4.382-1.683 8.101-4.315 10.974-7.715 2.927-3.443 4.993-7.778 5.97-12.524 1.456-7.025.659-14.986-2.306-23.021-3.108-8.398-8.366-16.537-15.635-24.184m12.215 45.546c-1.373 6.619-5.299 11.644-11.234 14.494V79.228c0-.457-.076-.911-.224-1.334a3.6 3.6 0 0 0-.638-1.132 3 3 0 0 0-.957-.756 2.55 2.55 0 0 0-1.128-.266c-.386 0-.77.09-1.127.266a3 3 0 0 0-.956.756 3.6 3.6 0 0 0-.639 1.132 4 4 0 0 0-.225 1.334l.021 34.692c-5.918-2.844-9.855-7.881-11.219-14.51-2.361-11.376 2.916-25.496 14.171-38.215 11.237 12.734 16.516 26.856 14.155 38.231"/></g></svg>