<svg xmlns="http://www.w3.org/2000/svg" width="14" height="14" fill="none" viewBox="0 0 14 14"><path fill="#1d1d1d" d="M8.922 7h1.4a.22.22 0 0 0 .219-.219c0-.022 0-.065-.022-.087L8.113.13C8.069.066 8.003 0 7.916 0h-1.4a.22.22 0 0 0-.22.219c0 .022 0 .044.023.065l2.428 6.607c.022.065.087.109.175.109M8.683 14h1.4a.22.22 0 0 0 .219-.219c0-.022 0-.043-.022-.065L5.292.13C5.27.066 5.182 0 5.095 0h-1.4a.22.22 0 0 0-.218.219c0 .022 0 .044.021.065L8.486 13.87c.022.087.11.131.197.131M5.905 14h1.4c.11 0 .197-.088.218-.197 0-.022 0-.066-.021-.087L5.073 7.13C5.052 7.044 4.964 7 4.877 7H3.455c-.11 0-.197.11-.197.219 0 .022 0 .043.022.065l2.406 6.585c.066.087.131.131.219.131M9.1.284l1.138 3.085c.021.087.109.131.196.131h1.379a.22.22 0 0 0 .218-.219c0-.022 0-.044-.022-.065L10.872.13A.19.19 0 0 0 10.697 0h-1.4a.22.22 0 0 0-.219.219c0 .022 0 .044.022.065M3.325 14h1.4a.22.22 0 0 0 .219-.219c0-.022 0-.043-.022-.065L3.784 10.63c-.021-.087-.109-.131-.196-.131h-1.4a.22.22 0 0 0-.22.219c0 .022 0 .043.023.065l1.137 3.085c.022.087.11.131.197.131"/></svg>