<svg xmlns="http://www.w3.org/2000/svg" width="21" height="21" fill="none" viewBox="0 0 21 21"><rect width="18.358" height="18.358" x="1.321" y="1.321" fill="#193ae6" rx="4.337"/><rect width="18.358" height="18.358" x="1.321" y="1.321" stroke="url(#a)" stroke-width="1.008" rx="4.337"/><path fill="#fff" d="M15.342 6.465a.807.807 0 0 0-.807-.807h-8.07a.807.807 0 0 0-.807.807v3.522c0 .48.415.852.892.81 3.906-.345 8.578-.337 6.014 1.042-1.87 1.006-.588 1.378.535 1.703.731.211 1.394.403 1.077.738-.363.383-.119.636.26.799.453.195.906-.21.906-.704z"/><defs><linearGradient id="a" x1="16.552" x2="-6.446" y1="-.394" y2="22.201" gradientUnits="userSpaceOnUse"><stop stop-color="#193ae6"/><stop offset="1" stop-color="#576bd3"/></linearGradient></defs></svg>