<svg xmlns="http://www.w3.org/2000/svg" width="32" height="32" fill="none" viewBox="0 0 32 32"><path fill="#000" d="M28.433 18.648c-.155-.47-.56-.797-1.086-.875a2.5 2.5 0 0 0-.867.048c-.585.12-1.02.166-1.336.175 1.196-2.018 2.168-4.32 2.728-6.487.905-3.504.421-5.1-.144-5.822-1.496-1.912-3.678-2.938-6.31-2.97a11.2 11.2 0 0 0-3.28.46A12 12 0 0 0 16.218 3c-1.266-.02-2.385.256-3.341.823a15 15 0 0 0-2.36-.592c-2.307-.379-4.167-.083-5.527.877-1.647 1.164-2.41 3.185-2.27 6.009.045.896.547 3.623 1.336 6.21.454 1.486.938 2.72 1.438 3.67.71 1.344 1.47 2.136 2.322 2.42.478.16 1.347.271 2.26-.49.116.141.27.28.475.41.26.164.579.298.896.377 1.146.287 2.219.215 3.134-.186l.014.453c.006.217.012.431.02.63.054 1.352.146 2.402.419 3.137.015.04.035.102.056.168.136.415.363 1.112.94 1.657.6.565 1.323.738 1.986.738.333 0 .65-.043.928-.103.992-.212 2.119-.536 2.934-1.697.77-1.097 1.145-2.749 1.213-5.352l.024-.211.017-.138.181.016.047.003c1.01.046 2.245-.168 3.004-.52.6-.278 2.52-1.293 2.068-2.662"/><path fill="#336791" d="M26.696 18.914c-3.004.62-3.21-.398-3.21-.398 3.171-4.706 4.497-10.68 3.353-12.142-3.121-3.988-8.525-2.102-8.615-2.053l-.03.005a10.7 10.7 0 0 0-2.003-.209c-1.36-.022-2.39.357-3.173.95 0 0-9.64-3.971-9.191 4.994.095 1.908 2.734 14.432 5.88 10.649 1.15-1.383 2.262-2.553 2.262-2.553a2.92 2.92 0 0 0 1.906.487l.053-.046c-.016.172-.009.34.022.539-.81.905-.572 1.064-2.193 1.398-1.64.338-.677.94-.048 1.097.763.19 2.527.46 3.719-1.208l-.048.19c.318.255.54 1.655.503 2.925s-.062 2.141.188 2.822c.25.68.5 2.212 2.63 1.756 1.78-.382 2.703-1.37 2.832-3.02.09-1.172.297-.998.31-2.046l.165-.497c.19-1.589.03-2.101 1.127-1.863l.267.023c.807.037 1.863-.13 2.483-.418 1.336-.62 2.128-1.654.811-1.382"/><path fill="#fff" d="M13.588 10.914c-.27-.038-.516-.003-.64.09a.24.24 0 0 0-.097.157c-.016.112.063.235.11.299.137.18.335.304.532.331a1 1 0 0 0 .085.006c.328 0 .626-.255.652-.444.033-.236-.31-.393-.642-.44m8.968.007c-.026-.185-.355-.237-.667-.194s-.614.184-.59.37c.021.144.281.39.59.39a1 1 0 0 0 .078-.006.76.76 0 0 0 .428-.234c.11-.115.173-.243.161-.326"/><path fill="#fff" d="M27.705 18.84c-.114-.347-.483-.458-1.096-.332-1.818.376-2.47.116-2.684-.042 1.414-2.153 2.577-4.757 3.204-7.185.298-1.15.462-2.22.475-3.09.015-.956-.148-1.659-.484-2.088-1.353-1.73-3.34-2.657-5.745-2.683-1.654-.018-3.05.405-3.321.524a8.3 8.3 0 0 0-1.87-.24c-1.24-.02-2.314.277-3.202.883a14.3 14.3 0 0 0-2.602-.683c-2.109-.34-3.784-.082-4.98.765-1.426 1.01-2.085 2.817-1.957 5.37.043.858.532 3.5 1.304 6.03 1.017 3.33 2.122 5.214 3.284 5.602.136.046.293.077.466.077.424 0 .944-.19 1.485-.841a54 54 0 0 1 2.046-2.316c.457.245.96.382 1.473.396q0 .02.003.04-.132.159-.26.32c-.355.453-.43.547-1.574.782-.326.068-1.191.246-1.204.852-.014.663 1.023.941 1.14.97q.619.155 1.187.155c.92 0 1.729-.303 2.375-.887-.02 2.362.079 4.69.363 5.399.232.58.8 2 2.592 2q.394.002.87-.1c1.872-.4 2.684-1.228 2.998-3.05.169-.975.457-3.301.593-4.549.286.09.655.13 1.054.13.831 0 1.79-.177 2.392-.456.676-.314 1.896-1.084 1.675-1.753m-4.455-8.433a7.6 7.6 0 0 1-.11 1.052 10 10 0 0 0-.133 1.235c-.015.459.042.935.097 1.397.112.93.227 1.89-.217 2.836a4 4 0 0 1-.197-.405 8 8 0 0 0-.342-.647c-.646-1.16-2.16-3.874-1.385-4.982.23-.33.817-.668 2.287-.486m-1.782-6.24c2.155.047 3.86.853 5.066 2.395.926 1.183-.093 6.566-3.044 11.21l-.09-.114-.037-.046c.762-1.26.613-2.506.48-3.61-.054-.453-.105-.882-.092-1.284.013-.426.07-.792.124-1.145.067-.436.135-.887.116-1.418a.6.6 0 0 0 .013-.2c-.048-.51-.63-2.035-1.816-3.415-.649-.755-1.594-1.6-2.886-2.17a9.7 9.7 0 0 1 2.166-.204M9.409 20.43c-.596.716-1.007.58-1.142.534-.882-.294-1.906-2.158-2.808-5.113-.78-2.558-1.236-5.13-1.273-5.85-.114-2.281.44-3.87 1.644-4.725 1.96-1.39 5.182-.558 6.477-.136l-.056.054c-2.125 2.146-2.075 5.813-2.07 6.037q.001.127.017.377c.037.617.105 1.764-.077 3.064-.169 1.208.204 2.39 1.021 3.243q.127.131.265.25a55 55 0 0 0-1.998 2.265m2.27-3.03c-.658-.688-.958-1.644-.82-2.625.191-1.373.12-2.569.082-3.211q-.008-.137-.012-.23c.31-.276 1.749-1.047 2.774-.812.468.107.754.426.872.974.614 2.84.082 4.022-.346 4.973a9 9 0 0 0-.243.573l-.055.148c-.14.374-.27.722-.35 1.053-.701-.002-1.383-.302-1.901-.843m.108 3.829a1.7 1.7 0 0 1-.496-.214c.09-.042.25-.1.529-.158 1.347-.277 1.555-.473 2.01-1.05.104-.132.222-.282.385-.464.244-.273.355-.227.558-.143.163.067.323.273.387.499.03.106.065.309-.047.466-.95 1.33-2.332 1.312-3.325 1.064m7.05 6.56c-1.647.354-2.23-.487-2.615-1.449-.248-.62-.37-3.419-.284-6.51a.4.4 0 0 0-.016-.118 2 2 0 0 0-.046-.218c-.129-.45-.442-.826-.819-.982-.15-.062-.423-.176-.753-.091.07-.29.192-.617.324-.971l.056-.15c.062-.167.14-.341.223-.525.448-.995 1.061-2.358.396-5.436-.25-1.153-1.082-1.716-2.344-1.585-.756.078-1.449.384-1.794.559a6 6 0 0 0-.206.109c.097-1.162.46-3.333 1.823-4.706.857-.865 1.999-1.292 3.39-1.269 2.742.045 4.5 1.452 5.492 2.624.855 1.01 1.318 2.028 1.502 2.577-1.389-.141-2.334.133-2.813.818-1.042 1.49.57 4.38 1.345 5.77.142.255.265.475.303.569.253.611.58 1.02.818 1.317.073.092.144.18.198.258-.42.121-1.177.401-1.108 1.802-.055.704-.45 3.995-.651 5.158-.265 1.536-.83 2.109-2.42 2.45m6.88-7.872c-.43.2-1.15.35-1.834.382-.756.035-1.14-.085-1.231-.159-.043-.873.282-.964.626-1.06q.082-.022.158-.048.048.037.104.076c.608.4 1.69.444 3.22.128l.017-.003c-.207.193-.56.452-1.06.684"/></svg>