<svg xmlns="http://www.w3.org/2000/svg" width="445" height="290" fill="none" viewBox="0 0 445 290"><rect width="244.331" height="19.762" x=".625" y="4.223" fill="#d1d8fa" rx="5.39" transform="rotate(-.947 .625 4.223)"/><rect width="244.331" height="19.762" x="1.203" y="37.307" fill="#a3b1f5" rx="5.39" transform="rotate(2.076 1.203 37.307)"/><rect width="244.331" height="19.762" x=".375" y="90.129" fill="#7589f0" rx="5.39" transform="rotate(-4.155 .375 90.129)"/><rect width="244.331" height="19.762" x=".766" y="120.773" fill="#4d69f5" rx="5.39"/><rect width="244.331" height="14.372" x=".766" y="147.723" fill="#7589f0" rx="5.39"/><rect width="244.331" height="10.779" x=".766" y="169.281" fill="#a3b1f5" rx="5.39"/><rect width="370" height="254.428" x="167.5" y="35" fill="#fff" rx="12"/><path fill="#000" d="M201.067 65.399a.55.55 0 0 1-.547.546h-4.373a.55.55 0 0 1-.547-.546.545.545 0 0 1 .547-.547h4.373a.55.55 0 0 1 .547.546m-.547 1.64h-4.373a.55.55 0 0 0-.547.546.545.545 0 0 0 .547.547h4.373a.55.55 0 0 0 .547-.547.55.55 0 0 0-.547-.546m3.28-6.014v10.934a1.094 1.094 0 0 1-1.093 1.093h-10.934a1.093 1.093 0 0 1-1.093-1.093V61.025a1.093 1.093 0 0 1 1.093-1.093h10.934a1.093 1.093 0 0 1 1.093 1.093m-12.027 10.934h1.64V61.025h-1.64zm10.934 0V61.025h-8.2v10.934zM220.794 65.177a3.6 3.6 0 0 0-.308-.798 2.127 2.127 0 0 0-1.232-1.036 2.7 2.7 0 0 0-.951-.154q-.798 0-1.386.322a2.7 2.7 0 0 0-.938.868q-.363.531-.545 1.217a5.9 5.9 0 0 0-.168 1.4q0 .713.168 1.4a4.1 4.1 0 0 0 .545 1.231q.365.533.938.854.588.321 1.386.322.587 0 1.035-.196.448-.21.77-.56.323-.364.504-.84t.238-1.021h1.707a4.6 4.6 0 0 1-.392 1.637 4 4 0 0 1-.881 1.288q-.56.532-1.316.825a4.6 4.6 0 0 1-1.665.294q-1.12 0-2.016-.406a4.5 4.5 0 0 1-1.497-1.133 5.1 5.1 0 0 1-.952-1.666 6.3 6.3 0 0 1-.322-2.03q0-1.062.322-2.014.336-.952.952-1.666t1.497-1.133q.895-.42 2.016-.42.84 0 1.581.238.742.224 1.302.671.573.434.923 1.064t.434 1.442zm9.19 5.206q0 .294.07.42.084.126.308.126h.168q.098 0 .224-.028v1.105a2 2 0 0 1-.224.056 2 2 0 0 1-.266.07 3 3 0 0 1-.518.056q-.49 0-.811-.196-.322-.195-.42-.686a2.8 2.8 0 0 1-1.176.672q-.685.21-1.33.21a3.1 3.1 0 0 1-.937-.14 2.5 2.5 0 0 1-.798-.378 2.1 2.1 0 0 1-.546-.657 2.14 2.14 0 0 1-.196-.938q0-.672.238-1.092.252-.42.644-.658.406-.237.896-.335.504-.112 1.007-.168.435-.084.826-.112.392-.042.686-.126.308-.084.476-.252.182-.182.182-.532a.8.8 0 0 0-.154-.504.87.87 0 0 0-.364-.294 1.3 1.3 0 0 0-.476-.14 3 3 0 0 0-.504-.042q-.672 0-1.105.28-.435.28-.49.868h-1.596q.042-.7.336-1.162t.742-.742a3.1 3.1 0 0 1 1.036-.391 6 6 0 0 1 1.175-.112q.532 0 1.05.112t.923.364q.42.251.672.657.252.393.252.966zm-1.595-2.016a2 2 0 0 1-.896.294q-.532.042-1.064.14-.252.042-.489.126a1.3 1.3 0 0 0-.42.21.9.9 0 0 0-.294.35 1.2 1.2 0 0 0-.098.518q0 .265.154.448.153.181.364.294.224.098.475.14.267.042.476.041.267 0 .574-.07.308-.069.574-.237.28-.168.462-.42.182-.266.182-.644zm3.354-3.61h1.511v.98h.028q.336-.631.938-.896.602-.28 1.302-.28.853 0 1.483.308.644.292 1.064.825.42.518.63 1.218.209.7.209 1.497 0 .729-.196 1.414a3.6 3.6 0 0 1-.573 1.218 2.9 2.9 0 0 1-.966.84q-.588.306-1.386.307-.35 0-.699-.07a2.8 2.8 0 0 1-.672-.196 3 3 0 0 1-.602-.35 2.2 2.2 0 0 1-.448-.517h-.028v3.61h-1.595zm5.57 3.624a3.6 3.6 0 0 0-.126-.951 2.5 2.5 0 0 0-.378-.812 1.85 1.85 0 0 0-.63-.574 1.67 1.67 0 0 0-.867-.224q-1.008 0-1.526.7-.504.7-.504 1.861 0 .546.126 1.022.14.462.406.798t.63.532q.378.195.868.195.546 0 .923-.223.379-.224.616-.574.252-.364.35-.812.112-.462.112-.938m2.216-3.624h1.203v-2.17h1.596v2.17h1.441v1.19h-1.441v3.862q0 .252.014.434a.9.9 0 0 0 .098.308.55.55 0 0 0 .238.196q.153.056.42.056h.335a2 2 0 0 0 .336-.056v1.231l-.517.056a5 5 0 0 1-.518.028q-.63 0-1.022-.112a1.5 1.5 0 0 1-.602-.35 1.35 1.35 0 0 1-.294-.587 5 5 0 0 1-.084-.798v-4.269h-1.203zm11.742 7.235h-1.568v-1.008h-.028a2.2 2.2 0 0 1-.881.882 2.4 2.4 0 0 1-1.176.322q-1.427 0-2.071-.7-.63-.714-.63-2.14v-4.591h1.596v4.436q0 .952.363 1.344.365.39 1.022.391.504 0 .84-.153.336-.154.546-.406a1.6 1.6 0 0 0 .294-.63q.097-.364.097-.784v-4.198h1.596zm1.682-7.235h1.498v1.4h.028q.07-.295.266-.575.21-.28.49-.503.294-.24.643-.378a1.9 1.9 0 0 1 .714-.14q.28 0 .378.014l.224.028v1.54a4 4 0 0 0-.35-.043 2 2 0 0 0-.336-.028q-.406 0-.769.168a1.66 1.66 0 0 0-.616.476 2.2 2.2 0 0 0-.42.77 3.4 3.4 0 0 0-.154 1.063v3.443h-1.596zm9.643 2.98a2.5 2.5 0 0 0-.168-.727 1.7 1.7 0 0 0-.364-.602 1.6 1.6 0 0 0-.56-.42 1.55 1.55 0 0 0-.727-.168q-.42 0-.77.154-.336.14-.588.406a2.1 2.1 0 0 0-.392.602 2.3 2.3 0 0 0-.154.756zm-3.723 1.05q0 .42.112.812.126.392.364.686.238.293.602.476.364.168.868.168.699 0 1.119-.294.434-.309.644-.91h1.511a3 3 0 0 1-.433 1.05q-.309.461-.742.783-.434.309-.98.462a3.7 3.7 0 0 1-1.119.168q-.854 0-1.512-.28a3.2 3.2 0 0 1-1.12-.784 3.5 3.5 0 0 1-.685-1.203 5 5 0 0 1-.224-1.54 4.4 4.4 0 0 1 .238-1.455q.252-.7.699-1.218a3.4 3.4 0 0 1 1.106-.84 3.3 3.3 0 0 1 1.456-.307 3.15 3.15 0 0 1 1.525.364q.685.35 1.134.937t.643 1.358q.21.756.112 1.567zM269.341 62h1.596v1.511h-1.596zm0 2.757h1.596v7.235h-1.596zm3.334 0h1.512v1.063l.028.028q.364-.6.951-.937.588-.35 1.302-.35 1.19 0 1.875.615.687.617.686 1.848v4.968h-1.595v-4.548q-.028-.855-.364-1.232-.336-.392-1.05-.392-.405 0-.728.154a1.5 1.5 0 0 0-.545.406q-.224.252-.35.602t-.126.742v4.268h-1.596zm7.323 0h1.189v-.602q0-.686.168-1.106.168-.433.448-.658a1.4 1.4 0 0 1 .63-.307q.365-.084.756-.084.77 0 1.119.097v1.246a2 2 0 0 0-.335-.056 2.5 2.5 0 0 0-.406-.028q-.323 0-.56.154-.224.154-.224.602v.742h1.357v1.19h-1.357v6.045h-1.596v-6.046h-1.189zm8.445 7.431q-.867 0-1.553-.28a3.5 3.5 0 0 1-1.148-.797 3.5 3.5 0 0 1-.714-1.204 4.8 4.8 0 0 1-.238-1.54q0-.826.238-1.525.252-.7.714-1.204.476-.504 1.148-.783.686-.294 1.553-.294.868 0 1.54.294a3.14 3.14 0 0 1 1.147.783q.476.504.714 1.204.252.7.252 1.525 0 .84-.252 1.54a3.289 3.289 0 0 1-1.861 2.001q-.672.28-1.54.28m0-1.26q.532 0 .924-.223a1.95 1.95 0 0 0 .644-.588q.251-.364.363-.812.126-.462.126-.938 0-.462-.126-.923a2.3 2.3 0 0 0-.363-.812 1.95 1.95 0 0 0-.644-.588 1.83 1.83 0 0 0-.924-.224q-.531 0-.924.224-.391.224-.643.588a2.5 2.5 0 0 0-.378.812 3.9 3.9 0 0 0 0 1.861q.126.449.378.812t.643.588q.393.224.924.224m4.979-6.171h1.498v1.4h.028q.07-.295.266-.575.21-.28.489-.503a2.5 2.5 0 0 1 .644-.378q.35-.14.714-.14a3.3 3.3 0 0 1 .602.042v1.54a4 4 0 0 0-.35-.043 2 2 0 0 0-.336-.028q-.406 0-.77.168a1.7 1.7 0 0 0-.616.476 2.2 2.2 0 0 0-.419.77 3.4 3.4 0 0 0-.154 1.063v3.443h-1.596zm4.92 0h1.512v1.007h.042q.182-.265.392-.49t.462-.377q.265-.154.601-.238.336-.099.77-.098.659 0 1.218.294.574.293.811.91.407-.561.938-.882.532-.322 1.33-.322 1.147 0 1.777.56.644.56.644 1.875v4.996h-1.596v-4.226q0-.434-.028-.784a1.5 1.5 0 0 0-.168-.616.86.86 0 0 0-.391-.406q-.267-.14-.728-.14-.812 0-1.176.504t-.364 1.428v4.24h-1.595v-4.646q0-.756-.28-1.134-.265-.392-.994-.392-.308 0-.601.126a1.6 1.6 0 0 0-.504.364q-.21.239-.35.588-.126.35-.126.798v4.296h-1.596zm18.238 5.626q0 .294.07.42.084.126.308.126h.168q.098 0 .224-.028v1.105a2 2 0 0 1-.224.056 2 2 0 0 1-.266.07 3 3 0 0 1-.518.056q-.49 0-.812-.196-.321-.195-.42-.686a2.8 2.8 0 0 1-1.175.672q-.686.21-1.33.21a3.1 3.1 0 0 1-.937-.14 2.5 2.5 0 0 1-.798-.378 2.1 2.1 0 0 1-.546-.657 2.1 2.1 0 0 1-.196-.938q0-.672.238-1.092.252-.42.644-.658.406-.237.895-.335.504-.112 1.008-.168.434-.084.826-.112.392-.042.686-.126.308-.084.475-.252.183-.182.182-.532a.8.8 0 0 0-.154-.504.86.86 0 0 0-.363-.294 1.3 1.3 0 0 0-.476-.14 3 3 0 0 0-.504-.042q-.671 0-1.106.28-.433.28-.49.868h-1.595q.042-.7.336-1.162t.742-.742a3.1 3.1 0 0 1 1.035-.391 6 6 0 0 1 1.176-.112q.531 0 1.05.112.518.112.923.364.42.251.672.657.252.393.252.966zm-1.596-2.016a2 2 0 0 1-.895.294q-.532.042-1.064.14-.252.042-.49.126a1.3 1.3 0 0 0-.42.21.9.9 0 0 0-.293.35 1.2 1.2 0 0 0-.098.518q0 .265.153.448.154.181.364.294.224.098.476.14.266.042.476.041.266 0 .574-.07.307-.069.574-.237.28-.168.461-.42.183-.266.182-.644zm2.585-3.61h1.203v-2.17h1.596v2.17h1.441v1.19h-1.441v3.862q0 .252.014.434a.9.9 0 0 0 .098.308.55.55 0 0 0 .238.196q.153.056.42.056h.336q.168-.015.335-.056v1.231l-.517.056a5 5 0 0 1-.518.028q-.63 0-1.022-.112a1.5 1.5 0 0 1-.602-.35 1.35 1.35 0 0 1-.294-.587 5 5 0 0 1-.084-.798v-4.269h-1.203zm5.43-2.757h1.596v1.511h-1.596zm0 2.757h1.596v7.235h-1.596zm6.651 7.431a4.1 4.1 0 0 1-1.554-.28 3.5 3.5 0 0 1-1.147-.797 3.5 3.5 0 0 1-.714-1.204 4.8 4.8 0 0 1-.238-1.54 4.7 4.7 0 0 1 .238-1.525q.252-.7.714-1.204.476-.504 1.147-.783.686-.294 1.554-.294.867 0 1.539.294.687.279 1.148.783.476.504.714 1.204.252.7.252 1.525 0 .84-.252 1.54a3.284 3.284 0 0 1-1.862 2.001q-.672.28-1.539.28m0-1.26q.531 0 .924-.223.391-.225.643-.588.253-.364.364-.812.126-.462.126-.938 0-.462-.126-.923a2.3 2.3 0 0 0-.364-.812 1.95 1.95 0 0 0-.643-.588 1.84 1.84 0 0 0-.924-.224 1.83 1.83 0 0 0-.924.224 1.95 1.95 0 0 0-.644.588 2.5 2.5 0 0 0-.377.812 3.9 3.9 0 0 0 0 1.861q.125.449.377.812t.644.588q.392.224.924.224m4.979-6.171h1.511v1.063l.028.028q.364-.6.952-.937.588-.35 1.302-.35 1.19 0 1.875.615.686.617.686 1.848v4.968h-1.596v-4.548q-.028-.855-.363-1.232-.336-.392-1.05-.392-.406 0-.728.154a1.5 1.5 0 0 0-.546.406 1.8 1.8 0 0 0-.35.602q-.126.35-.126.742v4.268h-1.595z"/><rect width="13.121" height="13.121" x="188.93" y="101.428" fill="#fff" rx="6.56"/><rect width="13.121" height="13.121" x="188.93" y="101.428" stroke="#203fdd" stroke-width=".875" rx="6.56"/><rect width="6.998" height="6.998" x="191.992" y="104.488" fill="#203fdd" rx="3.499"/><path fill="#000" fill-opacity=".88" d="M215.497 105.802q-.098-.943-.686-1.359-.575-.429-1.481-.429-.368 0-.723.074-.355.073-.637.245a1.35 1.35 0 0 0-.441.465q-.159.282-.159.71 0 .404.233.662.244.245.637.404.404.16.906.269.502.098 1.016.22.526.123 1.029.294.502.16.894.441.404.282.637.711.245.427.245 1.077 0 .698-.319 1.2a2.6 2.6 0 0 1-.796.808 3.4 3.4 0 0 1-1.102.441q-.6.147-1.2.147-.735 0-1.396-.183a3.6 3.6 0 0 1-1.151-.551 2.8 2.8 0 0 1-.784-.956q-.282-.588-.282-1.383h1.103q0 .55.208.955.22.391.563.649.355.257.821.379.465.123.955.123.392 0 .783-.074.405-.073.723-.245.319-.183.514-.489.196-.306.196-.784 0-.453-.245-.735a1.6 1.6 0 0 0-.636-.453 4.3 4.3 0 0 0-.894-.294q-.503-.11-1.029-.22a21 21 0 0 1-1.016-.27 4.2 4.2 0 0 1-.907-.404 2.1 2.1 0 0 1-.636-.649q-.233-.404-.233-1.004 0-.661.269-1.139.27-.49.711-.796a3.1 3.1 0 0 1 1.016-.465 4.4 4.4 0 0 1 1.176-.159q.673 0 1.249.159.575.159 1.004.502.44.342.686.869.257.514.281 1.237zm7.108 2.413a2 2 0 0 0-.171-.698 1.6 1.6 0 0 0-.38-.564 1.6 1.6 0 0 0-.563-.379 1.7 1.7 0 0 0-.711-.147q-.404 0-.734.147a1.6 1.6 0 0 0-.551.379 1.8 1.8 0 0 0-.368.576q-.135.318-.159.686zm1.004 1.763q-.209 1.065-.918 1.604-.711.539-1.788.539-.759 0-1.323-.245a2.6 2.6 0 0 1-.93-.686 3 3 0 0 1-.576-1.053 5.3 5.3 0 0 1-.208-1.335q0-.722.22-1.322t.613-1.041q.403-.441.943-.686a2.9 2.9 0 0 1 1.2-.245q.844 0 1.396.355.562.344.894.882.342.539.465 1.176.135.636.11 1.212h-4.739q-.012.417.098.796.11.367.355.661.245.282.625.453t.894.172q.66 0 1.077-.306.429-.306.564-.931zm2.622-4.323h1.261v.919h-1.261v3.931q0 .183.025.293a.33.33 0 0 0 .122.172.6.6 0 0 0 .233.086q.16.012.404.012h.477v.918h-.795q-.405 0-.699-.049a1.1 1.1 0 0 1-.465-.208.9.9 0 0 1-.257-.416 2.4 2.4 0 0 1-.086-.71v-4.029h-1.077v-.919h1.077v-1.898h1.041zm11.067 6.331h-.979v-1.004h-.025q-.33.588-.845.87-.514.269-1.212.269-.624 0-1.041-.159a1.7 1.7 0 0 1-.674-.478 1.85 1.85 0 0 1-.367-.722 4.3 4.3 0 0 1-.098-.943v-4.164h1.041v4.286q0 .588.343.931t.943.343q.478 0 .82-.147.356-.147.588-.416.233-.27.343-.625.123-.367.122-.796v-3.576h1.041zm1.6-6.331h1.041v.857h.025a1.53 1.53 0 0 1 .808-.759 3 3 0 0 1 1.212-.245q.735 0 1.274.27.55.269.906.734.368.453.551 1.054.184.6.184 1.273 0 .674-.184 1.274-.171.6-.539 1.053a2.5 2.5 0 0 1-.906.698q-.538.257-1.261.257-.233 0-.527-.049a3 3 0 0 1-.563-.159 2.5 2.5 0 0 1-.539-.294 1.8 1.8 0 0 1-.416-.478h-.025v3.258h-1.041zm4.899 3.111q0-.441-.123-.858a2.2 2.2 0 0 0-.355-.759 1.7 1.7 0 0 0-.612-.526 1.8 1.8 0 0 0-.87-.196q-.527 0-.893.208a1.8 1.8 0 0 0-.601.551q-.232.33-.342.759a3.86 3.86 0 0 0 .012 1.776q.11.429.343.759.245.331.624.539.38.196.919.196.538 0 .894-.208.367-.209.587-.551.221-.343.319-.784t.098-.906m11.341 3.196q-.27.159-.747.159-.405 0-.649-.22-.234-.234-.233-.747a2.56 2.56 0 0 1-1.004.747q-.564.22-1.225.22a3.4 3.4 0 0 1-.82-.098 1.9 1.9 0 0 1-.662-.306 1.55 1.55 0 0 1-.453-.539 1.9 1.9 0 0 1-.159-.82q0-.54.184-.882.183-.343.477-.551.307-.22.686-.331.392-.11.796-.183.429-.086.808-.123.393-.049.686-.122.294-.087.466-.233.171-.159.171-.453 0-.343-.135-.551a.83.83 0 0 0-.33-.319 1.3 1.3 0 0 0-.453-.147 3.4 3.4 0 0 0-.49-.036q-.662 0-1.102.257-.442.244-.478.943h-1.041q.024-.588.245-.992.22-.405.588-.649.367-.257.832-.368.478-.11 1.017-.11.428 0 .845.061.429.061.771.258.344.183.551.526.209.343.209.894v3.258q0 .367.036.538.05.172.294.172.135 0 .319-.061zm-1.69-3.245a1.4 1.4 0 0 1-.515.22q-.318.062-.673.11-.343.037-.698.098-.355.05-.637.172t-.465.355q-.172.22-.172.612 0 .258.098.441.111.171.27.282.171.11.392.159.22.05.465.049.514 0 .882-.135a2 2 0 0 0 .6-.355q.233-.22.342-.465.111-.258.111-.478zm6.067-3.062h.979v1.004h.025q.649-1.15 2.057-1.151.624 0 1.041.172t.674.477q.256.306.355.735.11.417.11.931v4.163h-1.041V107.7q0-.588-.343-.93t-.943-.343a2.2 2.2 0 0 0-.833.147q-.342.146-.575.416t-.355.637a2.6 2.6 0 0 0-.11.784v3.575h-1.041zm11.201 2.56a2 2 0 0 0-.172-.698 1.6 1.6 0 0 0-.38-.564 1.6 1.6 0 0 0-.563-.379 1.7 1.7 0 0 0-.71-.147q-.404 0-.735.147a1.6 1.6 0 0 0-.551.379 1.8 1.8 0 0 0-.367.576q-.135.318-.16.686zm1.004 1.763q-.208 1.065-.919 1.604-.71.539-1.788.539-.76 0-1.322-.245a2.6 2.6 0 0 1-.931-.686 3 3 0 0 1-.575-1.053 5.3 5.3 0 0 1-.209-1.335q0-.722.221-1.322.22-.6.612-1.041.404-.441.943-.686a2.9 2.9 0 0 1 1.2-.245q.845 0 1.396.355.564.344.894.882.344.539.465 1.176.135.636.111 1.212h-4.74q-.012.417.098.796.11.367.356.661.245.282.624.453.38.172.894.172.661 0 1.078-.306.428-.306.563-.931zm7.446 2.008h-1.102l-1.285-5.033h-.025l-1.274 5.033h-1.126l-2.033-6.331h1.151l1.433 5.18h.024l1.274-5.18h1.139l1.322 5.18h.025l1.42-5.18h1.078zm7.056-1.996q.012.344.159.588a1.2 1.2 0 0 0 .38.38q.244.134.538.196.307.06.625.061.245 0 .514-.037.27-.036.49-.135a.95.95 0 0 0 .38-.281.8.8 0 0 0 .147-.49q0-.405-.306-.612a2.5 2.5 0 0 0-.772-.331 10 10 0 0 0-.992-.233 6 6 0 0 1-1.004-.294 2.1 2.1 0 0 1-.759-.538q-.306-.343-.306-.956 0-.477.208-.82.22-.343.551-.551a2.4 2.4 0 0 1 .759-.319q.428-.11.845-.11.539 0 .992.098.453.086.796.319.355.22.563.612.209.38.245.955h-1.041a1.01 1.01 0 0 0-.502-.833 1.5 1.5 0 0 0-.465-.171 2 2 0 0 0-.502-.061q-.233 0-.478.036-.233.037-.428.135a.8.8 0 0 0-.319.245.6.6 0 0 0-.122.392q0 .27.183.453.196.171.49.294.294.11.661.196.368.074.735.159.392.086.759.208.38.123.662.331.294.196.465.502.184.306.184.759 0 .576-.245.955a1.8 1.8 0 0 1-.625.613 2.5 2.5 0 0 1-.869.318 4.8 4.8 0 0 1-.955.098q-.527 0-1.004-.11a2.5 2.5 0 0 1-.845-.355 1.9 1.9 0 0 1-.588-.662q-.22-.416-.245-1.004zm6.245-1.163q0 .575.147 1.029.159.44.429.747.268.293.624.453a1.92 1.92 0 0 0 1.531 0q.367-.16.637-.453.269-.308.416-.747a3.1 3.1 0 0 0 .159-1.029q0-.576-.159-1.017a2.1 2.1 0 0 0-.416-.759 1.8 1.8 0 0 0-.637-.465 1.923 1.923 0 0 0-1.531 0 1.8 1.8 0 0 0-.624.465q-.27.306-.429.759a3.2 3.2 0 0 0-.147 1.017m-1.102 0q0-.698.196-1.298.196-.612.588-1.053.391-.453.967-.711a3.2 3.2 0 0 1 1.323-.257q.76 0 1.322.257.576.258.968.711.392.441.587 1.053.196.6.196 1.298t-.196 1.298q-.195.6-.587 1.053a2.8 2.8 0 0 1-.968.698q-.563.245-1.322.245a3.4 3.4 0 0 1-1.323-.245 2.8 2.8 0 0 1-.967-.698 3 3 0 0 1-.588-1.053 4.2 4.2 0 0 1-.196-1.298m12.616 3.159h-.98v-1.004h-.024q-.331.588-.845.87-.514.269-1.213.269-.624 0-1.04-.159a1.7 1.7 0 0 1-.674-.478 1.8 1.8 0 0 1-.367-.722 4.2 4.2 0 0 1-.098-.943v-4.164h1.041v4.286q0 .588.342.931.343.343.943.343.478 0 .821-.147.356-.147.588-.416a1.7 1.7 0 0 0 .343-.625 2.5 2.5 0 0 0 .122-.796v-3.576h1.041zm1.527-6.331h.979v1.335h.025q.38-.771.93-1.139.552-.367 1.396-.343v1.102q-.624 0-1.065.172a1.67 1.67 0 0 0-.71.502q-.27.33-.392.808a4.2 4.2 0 0 0-.123 1.078v2.816h-1.04zm8.197 2.033q-.122-.6-.514-.931-.392-.33-1.053-.33-.564 0-.943.208a1.7 1.7 0 0 0-.612.551 2.4 2.4 0 0 0-.319.796 4.2 4.2 0 0 0-.098.918q0 .441.098.858.11.416.331.747.22.318.575.514.356.196.845.196.773 0 1.2-.404.441-.405.539-1.139h1.066q-.172 1.176-.882 1.812-.698.637-1.91.637-.723 0-1.286-.233a2.54 2.54 0 0 1-.931-.661 3 3 0 0 1-.563-1.016 4.4 4.4 0 0 1-.184-1.311q0-.71.184-1.322.183-.625.551-1.078.38-.465.943-.722.563-.27 1.31-.27.539 0 1.004.135.478.122.833.392.367.269.6.686.232.403.294.967zm6.676.527a2 2 0 0 0-.172-.698 1.6 1.6 0 0 0-.379-.564 1.6 1.6 0 0 0-.564-.379 1.7 1.7 0 0 0-.71-.147q-.404 0-.735.147a1.6 1.6 0 0 0-.551.379 1.8 1.8 0 0 0-.367.576q-.135.318-.159.686zm1.004 1.763q-.208 1.065-.919 1.604-.71.539-1.788.539-.76 0-1.322-.245a2.6 2.6 0 0 1-.931-.686 3 3 0 0 1-.575-1.053 5.3 5.3 0 0 1-.209-1.335q0-.722.221-1.322.22-.6.612-1.041.405-.441.943-.686a2.9 2.9 0 0 1 1.2-.245q.846 0 1.396.355.564.344.894.882.343.539.466 1.176.134.636.11 1.212h-4.739q-.013.417.098.796.11.367.355.661.245.282.624.453.38.172.894.172.661 0 1.078-.306.428-.306.563-.931z"/><rect width="13.121" height="13.121" x="343.914" y="101.428" fill="#fff" rx="6.56"/><rect width="13.121" height="13.121" x="343.914" y="101.428" stroke="#d9d9d9" stroke-width=".875" rx="6.56"/><path fill="#000" fill-opacity=".88" d="M372.404 108.827q0 1.677-.894 2.523-.894.832-2.547.832-1.69 0-2.645-.796-.943-.809-.943-2.559v-5.584h1.163v5.584q0 1.176.625 1.788.624.6 1.8.6 1.114 0 1.69-.6.588-.612.588-1.788v-5.584h1.163zm2.323 1.163q.012.344.159.588.147.233.38.38.245.134.538.196.307.06.625.061.245 0 .514-.037.27-.036.49-.135a.95.95 0 0 0 .38-.281.8.8 0 0 0 .147-.49q0-.405-.306-.612a2.5 2.5 0 0 0-.772-.331 10 10 0 0 0-.992-.233 6 6 0 0 1-1.004-.294 2.1 2.1 0 0 1-.759-.538q-.306-.343-.306-.956 0-.477.208-.82.22-.343.551-.551a2.4 2.4 0 0 1 .759-.319 3.4 3.4 0 0 1 .845-.11q.539 0 .992.098.453.086.796.319.356.22.563.612.209.38.245.955h-1.041a1.01 1.01 0 0 0-.502-.833 1.5 1.5 0 0 0-.465-.171 2 2 0 0 0-.502-.061q-.232 0-.478.036-.233.037-.428.135a.8.8 0 0 0-.319.245.6.6 0 0 0-.122.392q0 .27.183.453.196.171.49.294.294.11.662.196.367.074.734.159.393.086.76.208.38.123.661.331.294.196.465.502.184.306.184.759 0 .576-.245.955a1.8 1.8 0 0 1-.625.613 2.5 2.5 0 0 1-.869.318 4.8 4.8 0 0 1-.955.098q-.527 0-1.004-.11a2.6 2.6 0 0 1-.845-.355 1.9 1.9 0 0 1-.588-.662q-.22-.416-.245-1.004zm9.882-1.775a2 2 0 0 0-.171-.698 1.6 1.6 0 0 0-.38-.564 1.6 1.6 0 0 0-.563-.379 1.7 1.7 0 0 0-.71-.147q-.405 0-.735.147a1.6 1.6 0 0 0-.551.379 1.8 1.8 0 0 0-.368.576 2.1 2.1 0 0 0-.159.686zm1.004 1.763q-.207 1.065-.918 1.604-.71.539-1.788.539-.76 0-1.322-.245a2.6 2.6 0 0 1-.931-.686 3 3 0 0 1-.576-1.053 5.3 5.3 0 0 1-.208-1.335q0-.722.221-1.322.22-.6.612-1.041.404-.441.943-.686a2.9 2.9 0 0 1 1.2-.245q.845 0 1.396.355.563.344.894.882.343.539.465 1.176.135.636.11 1.212h-4.739q-.012.417.098.796.11.367.355.661.246.282.625.453.38.172.894.172.661 0 1.077-.306.429-.306.564-.931zm10.194 1.984q-.268.159-.747.159-.403 0-.649-.22-.232-.234-.232-.747a2.55 2.55 0 0 1-1.005.747q-.563.22-1.224.22-.429 0-.821-.098a1.9 1.9 0 0 1-.661-.306 1.5 1.5 0 0 1-.453-.539 1.9 1.9 0 0 1-.159-.82q0-.54.183-.882.184-.343.478-.551.306-.22.686-.331.391-.11.796-.183.429-.086.808-.123.392-.049.686-.122a1.25 1.25 0 0 0 .465-.233q.171-.159.172-.453 0-.343-.135-.551a.83.83 0 0 0-.331-.319 1.3 1.3 0 0 0-.453-.147 3.4 3.4 0 0 0-.49-.036q-.661 0-1.102.257-.441.244-.477.943h-1.041q.024-.588.245-.992.22-.405.587-.649.368-.257.833-.368.478-.11 1.017-.11.428 0 .844.061.429.061.772.258.343.183.551.526t.208.894v3.258q0 .367.037.538.05.172.294.172.135 0 .318-.061zm-1.69-3.245q-.196.147-.514.22-.318.062-.674.11-.342.037-.698.098-.355.05-.636.172t-.466.355q-.171.22-.171.612 0 .258.098.441a1 1 0 0 0 .269.282q.172.11.392.159.22.05.465.049.514 0 .882-.135.368-.147.6-.355.233-.22.343-.465.11-.258.11-.478zm2.659-3.062h.98v1.004h.024q.65-1.15 2.057-1.151.625 0 1.041.172.417.171.674.477t.355.735q.11.417.11.931v4.163h-1.041V107.7q0-.588-.343-.93-.342-.343-.942-.343-.478 0-.833.147a1.55 1.55 0 0 0-.576.416q-.232.27-.355.637-.11.355-.11.784v3.575h-1.041zm14.609 2.56a2 2 0 0 0-.171-.698 1.6 1.6 0 0 0-.38-.564 1.6 1.6 0 0 0-.563-.379 1.7 1.7 0 0 0-.71-.147q-.405 0-.735.147a1.6 1.6 0 0 0-.551.379 1.8 1.8 0 0 0-.368.576 2.1 2.1 0 0 0-.159.686zm1.004 1.763q-.208 1.065-.918 1.604t-1.788.539q-.759 0-1.323-.245a2.6 2.6 0 0 1-.93-.686 3 3 0 0 1-.576-1.053 5.3 5.3 0 0 1-.208-1.335q0-.722.22-1.322t.613-1.041q.403-.441.943-.686a2.9 2.9 0 0 1 1.2-.245q.844 0 1.396.355.562.344.894.882.342.539.465 1.176.135.636.11 1.212h-4.739q-.012.417.098.796.11.367.355.661.245.282.625.453t.894.172q.661 0 1.077-.306.429-.306.564-.931zm2.879-1.323-2.204-3h1.335l1.518 2.217 1.58-2.217h1.249l-2.18 2.915 2.45 3.416h-1.335l-1.764-2.62-1.763 2.62h-1.261zm5.739-4.139h-1.041v-1.273h1.041zm-1.041 1.139h1.041v6.331h-1.041zm3.29 4.335q.012.344.159.588.147.233.38.38.245.134.539.196.306.06.624.061.245 0 .514-.037.27-.036.49-.135a.95.95 0 0 0 .38-.281.8.8 0 0 0 .147-.49q0-.405-.306-.612a2.5 2.5 0 0 0-.772-.331 10 10 0 0 0-.992-.233 6 6 0 0 1-1.004-.294 2.1 2.1 0 0 1-.759-.538q-.306-.343-.306-.956 0-.477.208-.82.22-.343.551-.551a2.4 2.4 0 0 1 .759-.319 3.4 3.4 0 0 1 .845-.11q.539 0 .992.098.453.086.796.319.356.22.563.612.209.38.245.955h-1.041a1.01 1.01 0 0 0-.502-.833 1.5 1.5 0 0 0-.465-.171 2 2 0 0 0-.502-.061q-.232 0-.478.036-.233.037-.428.135a.8.8 0 0 0-.319.245.6.6 0 0 0-.122.392q0 .27.184.453.195.171.489.294.294.11.662.196.367.074.734.159.393.086.76.208.38.123.661.331.294.196.465.502.184.306.184.759 0 .576-.245.955a1.8 1.8 0 0 1-.625.613 2.5 2.5 0 0 1-.869.318 4.8 4.8 0 0 1-.955.098q-.527 0-1.004-.11a2.6 2.6 0 0 1-.845-.355 1.9 1.9 0 0 1-.588-.662q-.22-.416-.245-1.004zm6.931-4.335h1.261v.919h-1.261v3.931q0 .183.025.293a.33.33 0 0 0 .122.172.6.6 0 0 0 .233.086q.159.012.404.012h.477v.918h-.796q-.404 0-.698-.049a1.1 1.1 0 0 1-.465-.208.9.9 0 0 1-.257-.416 2.4 2.4 0 0 1-.086-.71v-4.029h-1.077v-.919h1.077v-1.898h1.041zm3.52-1.139h-1.041v-1.273h1.041zm-1.041 1.139h1.041v6.331h-1.041zm2.653 0h.98v1.004h.025q.648-1.15 2.057-1.151.624 0 1.041.172t.673.477q.258.306.355.735.111.417.111.931v4.163h-1.041V107.7q0-.588-.343-.93t-.943-.343a2.2 2.2 0 0 0-.833.147q-.342.146-.575.416t-.355.637a2.6 2.6 0 0 0-.111.784v3.575h-1.041zm12.267 5.793q0 1.555-.711 2.326-.71.772-2.228.772-.44 0-.907-.098a2.9 2.9 0 0 1-.832-.319 2 2 0 0 1-.613-.575 1.64 1.64 0 0 1-.269-.87h1.041a.8.8 0 0 0 .171.478q.172.196.404.318.245.123.527.172.281.061.539.061.515 0 .869-.184.356-.17.588-.49.232-.306.331-.747.11-.44.11-.967v-.416h-.025a1.77 1.77 0 0 1-.82.869q-.539.27-1.151.27-.71 0-1.237-.258a2.6 2.6 0 0 1-.882-.685 3.1 3.1 0 0 1-.538-1.017 4.4 4.4 0 0 1-.172-1.237q0-.563.147-1.151.147-.6.49-1.077.343-.49.906-.796.564-.32 1.384-.319.6 0 1.102.27.502.257.784.783h.012v-.906h.98zm-2.915-.307q.514 0 .87-.208.366-.22.587-.563a2.6 2.6 0 0 0 .319-.796q.11-.441.11-.882 0-.416-.098-.82a2.1 2.1 0 0 0-.318-.723 1.55 1.55 0 0 0-.551-.526q-.344-.196-.833-.196-.503 0-.857.196a1.65 1.65 0 0 0-.588.502 2.3 2.3 0 0 0-.331.734 3.8 3.8 0 0 0-.098.87q0 .428.086.857t.294.784q.208.342.551.563.343.208.857.208m8.53-1.151q.012.344.159.588.147.233.38.38.245.134.538.196.307.06.625.061.245 0 .514-.037.27-.036.49-.135a.95.95 0 0 0 .38-.281.8.8 0 0 0 .147-.49q0-.405-.306-.612a2.5 2.5 0 0 0-.772-.331 10 10 0 0 0-.992-.233 6 6 0 0 1-1.004-.294 2.1 2.1 0 0 1-.759-.538q-.306-.343-.306-.956 0-.477.208-.82.22-.343.551-.551a2.4 2.4 0 0 1 .759-.319 3.4 3.4 0 0 1 .845-.11q.539 0 .992.098.453.086.796.319.356.22.563.612.209.38.245.955h-1.041a1.01 1.01 0 0 0-.502-.833 1.5 1.5 0 0 0-.465-.171 2 2 0 0 0-.502-.061q-.232 0-.478.036-.233.037-.428.135a.8.8 0 0 0-.319.245.6.6 0 0 0-.122.392q0 .27.183.453.196.171.49.294.294.11.662.196.366.074.734.159.393.086.76.208.38.123.661.331.294.196.465.502.184.306.184.759 0 .576-.245.955a1.8 1.8 0 0 1-.625.613 2.5 2.5 0 0 1-.869.318 4.8 4.8 0 0 1-.955.098q-.527 0-1.004-.11a2.6 2.6 0 0 1-.845-.355 1.9 1.9 0 0 1-.588-.662q-.22-.416-.245-1.004zm6.245-1.163q0 .575.147 1.029.159.44.429.747.27.293.624.453a1.92 1.92 0 0 0 1.531 0q.367-.16.637-.453.269-.308.416-.747a3.1 3.1 0 0 0 .159-1.029q0-.576-.159-1.017a2.1 2.1 0 0 0-.416-.759 1.8 1.8 0 0 0-.637-.465 1.923 1.923 0 0 0-1.531 0 1.8 1.8 0 0 0-.624.465q-.27.306-.429.759a3.2 3.2 0 0 0-.147 1.017m-1.102 0q0-.698.196-1.298.196-.612.588-1.053.392-.453.967-.711a3.2 3.2 0 0 1 1.323-.257q.76 0 1.322.257.576.258.968.711.392.441.588 1.053.196.6.196 1.298t-.196 1.298-.588 1.053a2.8 2.8 0 0 1-.968.698q-.563.245-1.322.245a3.4 3.4 0 0 1-1.323-.245 2.8 2.8 0 0 1-.967-.698 3 3 0 0 1-.588-1.053 4.2 4.2 0 0 1-.196-1.298m12.616 3.159h-.98v-1.004h-.024q-.331.588-.845.87-.515.269-1.212.269-.625 0-1.041-.159a1.7 1.7 0 0 1-.674-.478 1.8 1.8 0 0 1-.367-.722 4.2 4.2 0 0 1-.098-.943v-4.164h1.041v4.286q0 .588.343.931.342.343.943.343.477 0 .82-.147.356-.147.588-.416a1.7 1.7 0 0 0 .343-.625 2.5 2.5 0 0 0 .122-.796v-3.576h1.041zm1.527-6.331h.979v1.335h.025q.38-.771.93-1.139.552-.367 1.397-.343v1.102q-.625 0-1.066.172a1.67 1.67 0 0 0-.71.502q-.27.33-.392.808-.123.466-.122 1.078v2.816h-1.041zm8.197 2.033q-.122-.6-.514-.931-.392-.33-1.053-.33-.564 0-.943.208a1.7 1.7 0 0 0-.612.551 2.4 2.4 0 0 0-.319.796 4.2 4.2 0 0 0-.098.918q0 .441.098.858.11.416.331.747.22.318.575.514.356.196.845.196.772 0 1.201-.404.44-.405.538-1.139h1.066q-.172 1.176-.882 1.812-.698.637-1.91.637-.723 0-1.286-.233a2.55 2.55 0 0 1-.931-.661 3 3 0 0 1-.563-1.016 4.4 4.4 0 0 1-.184-1.311q0-.71.184-1.322.183-.625.551-1.078.38-.465.943-.722.563-.27 1.31-.27.539 0 1.004.135.478.122.833.392.367.269.6.686.232.403.294.967zm6.676.527a2 2 0 0 0-.172-.698 1.6 1.6 0 0 0-.379-.564 1.6 1.6 0 0 0-.564-.379 1.7 1.7 0 0 0-.71-.147q-.404 0-.735.147a1.6 1.6 0 0 0-.551.379 1.8 1.8 0 0 0-.367.576q-.135.318-.159.686zm1.004 1.763q-.208 1.065-.919 1.604-.71.539-1.787.539-.76 0-1.323-.245a2.6 2.6 0 0 1-.931-.686 3 3 0 0 1-.575-1.053 5.2 5.2 0 0 1-.208-1.335q0-.722.22-1.322t.612-1.041q.405-.441.943-.686a2.9 2.9 0 0 1 1.2-.245q.846 0 1.396.355.564.344.894.882.343.539.466 1.176.134.636.11 1.212h-4.739q-.012.417.098.796.11.367.355.661.245.282.624.453.38.172.894.172.661 0 1.078-.306.429-.306.563-.931z"/><path fill="#575757" d="M195.595 146.868q-.196-.931-.87-1.396-.661-.465-1.579-.466-.785 0-1.347.294a2.7 2.7 0 0 0-.919.796 3.4 3.4 0 0 0-.526 1.127 5 5 0 0 0-.172 1.323q0 .747.172 1.42.17.662.526 1.163.367.49.931.784.563.294 1.347.294.576 0 1.016-.184a2.4 2.4 0 0 0 .772-.526q.33-.343.514-.808.184-.466.221-1.005h1.163q-.171 1.654-1.139 2.572t-2.645.918q-1.017 0-1.776-.342a3.56 3.56 0 0 1-1.261-.968 4.2 4.2 0 0 1-.759-1.445 6.3 6.3 0 0 1-.245-1.788q0-.956.269-1.788.27-.845.784-1.469a3.7 3.7 0 0 1 1.298-.98q.783-.367 1.788-.367.686 0 1.298.183.612.185 1.09.539t.796.894q.318.526.416 1.225zm3.278 2.951q0 .576.147 1.029.16.441.428.747.27.294.625.453a1.92 1.92 0 0 0 1.531 0q.367-.159.636-.453.27-.306.417-.747.159-.453.159-1.029t-.159-1.016a2.1 2.1 0 0 0-.417-.76 1.8 1.8 0 0 0-.636-.465 1.921 1.921 0 0 0-1.531 0 1.8 1.8 0 0 0-.625.465 2.3 2.3 0 0 0-.428.76 3.2 3.2 0 0 0-.147 1.016m-1.102 0q0-.698.196-1.298.195-.612.587-1.053.393-.453.968-.71.575-.258 1.322-.258.76 0 1.323.258.576.257.967.71.392.441.588 1.053.196.6.196 1.298t-.196 1.298a3 3 0 0 1-.588 1.053 2.8 2.8 0 0 1-.967.698q-.563.245-1.323.245-.747 0-1.322-.245a2.8 2.8 0 0 1-.968-.698 3 3 0 0 1-.587-1.053 4.2 4.2 0 0 1-.196-1.298m7.374-3.172h.98v1.005h.024q.65-1.152 2.058-1.152.624 0 1.041.172t.673.477q.258.307.355.735.111.417.111.931v4.164h-1.041v-4.287q0-.587-.343-.93t-.943-.343q-.478 0-.833.147-.342.147-.575.416a1.9 1.9 0 0 0-.356.637q-.11.355-.11.784v3.576h-1.041zm6.805 0h.98v1.005h.024q.65-1.152 2.057-1.152.626 0 1.041.172.417.171.674.477.257.307.355.735.11.417.11.931v4.164h-1.041v-4.287q0-.587-.343-.93t-.943-.343q-.478 0-.832.147a1.6 1.6 0 0 0-.576.416q-.232.27-.355.637-.11.355-.11.784v3.576h-1.041zm11.201 2.56a2 2 0 0 0-.172-.698 1.6 1.6 0 0 0-.379-.564 1.6 1.6 0 0 0-.564-.379 1.7 1.7 0 0 0-.71-.147q-.404 0-.735.147a1.6 1.6 0 0 0-.551.379 1.9 1.9 0 0 0-.367.576q-.135.318-.159.686zm1.004 1.763q-.208 1.065-.919 1.604-.71.54-1.787.539-.76 0-1.323-.245a2.6 2.6 0 0 1-.931-.685 3 3 0 0 1-.575-1.054 5.2 5.2 0 0 1-.208-1.334q0-.723.22-1.323t.612-1.041q.405-.44.943-.686a2.9 2.9 0 0 1 1.2-.245q.846 0 1.396.356.564.342.894.881.343.539.466 1.176.134.637.11 1.212h-4.739q-.012.417.098.796.11.368.355.661.245.282.624.454.38.171.894.171.661 0 1.078-.306.429-.306.563-.931zm5.475-2.29q-.122-.6-.514-.93-.391-.331-1.053-.331-.564 0-.943.208a1.75 1.75 0 0 0-.613.551 2.4 2.4 0 0 0-.318.796q-.098.44-.098.919 0 .44.098.857.11.416.331.747.22.318.575.514.356.196.845.196.772 0 1.2-.404.441-.404.539-1.139h1.066q-.173 1.176-.882 1.812-.698.637-1.911.637-.722 0-1.285-.232a2.55 2.55 0 0 1-.931-.662 3 3 0 0 1-.563-1.016 4.4 4.4 0 0 1-.184-1.31q0-.711.184-1.323.183-.625.551-1.078.38-.465.943-.722.563-.27 1.31-.27.539 0 1.004.135.478.123.833.392.368.27.6.686.233.404.294.967zm3.724-2.033h1.262v.919h-1.262v3.931q0 .183.025.294.036.11.122.171t.233.086q.16.012.404.012h.478v.919h-.796a4.4 4.4 0 0 1-.698-.049 1.1 1.1 0 0 1-.466-.209.9.9 0 0 1-.257-.416 2.4 2.4 0 0 1-.086-.71v-4.029h-1.077v-.919h1.077v-1.898h1.041zm3.177 3.172q0 .576.147 1.029.159.441.429.747.27.294.624.453a1.92 1.92 0 0 0 1.531 0q.367-.159.637-.453.269-.306.416-.747.159-.453.159-1.029t-.159-1.016a2.15 2.15 0 0 0-.416-.76 1.8 1.8 0 0 0-.637-.465 1.923 1.923 0 0 0-1.531 0 1.8 1.8 0 0 0-.624.465q-.27.307-.429.76a3.2 3.2 0 0 0-.147 1.016m-1.102 0q0-.698.196-1.298.197-.612.588-1.053.392-.453.967-.71.576-.258 1.323-.258.76 0 1.322.258.575.257.968.71.392.441.588 1.053.195.6.195 1.298t-.195 1.298q-.196.6-.588 1.053a2.8 2.8 0 0 1-.968.698q-.563.245-1.322.245-.747 0-1.323-.245a2.8 2.8 0 0 1-.967-.698 3 3 0 0 1-.588-1.053 4.2 4.2 0 0 1-.196-1.298m7.338-3.172h.98v1.335h.024q.38-.771.931-1.139.551-.367 1.396-.343v1.103q-.625 0-1.066.171-.44.171-.71.502t-.392.808q-.122.466-.122 1.078v2.817h-1.041z"/><path fill="#000" fill-opacity=".88" d="M252.368 148.007h-1.359v-1.36h1.359zm-1.359 3.612h1.359v1.36h-1.359z"/><rect width="199.433" height="27.116" x="188.93" y="166.414" stroke="#e3e3e3" stroke-width=".875" rx="4.811"/><g clip-path="url(#a)"><path fill="#13aa52" d="M205.99 186.97a6.997 6.997 0 0 0 6.997-6.998 6.998 6.998 0 1 0-6.997 6.998"/><path fill="#fff" d="M207.857 179.12c-.442-1.951-1.487-2.592-1.599-2.837-.123-.173-.248-.48-.248-.48l-.009-.024c-.013.173-.019.24-.183.414-.253.198-1.552 1.288-1.657 3.504-.099 2.067 1.493 3.299 1.708 3.456l.025.017v-.001c.001.01.068.492.115 1.002h.169q.058-.542.177-1.073l.014-.009a3 3 0 0 0 .275-.225l.01-.009a3.97 3.97 0 0 0 1.272-2.959 5 5 0 0 0-.069-.776m-1.866 2.866s0-2.899.096-2.899c.074 0 .171 3.74.171 3.74-.133-.016-.267-.616-.267-.841"/></g><path fill="#000" fill-opacity=".88" d="M220.964 175.229h1.592l2.755 7.348 2.768-7.348h1.592v8.744h-1.102v-7.274h-.025l-2.731 7.274h-.992l-2.73-7.274h-.025v7.274h-1.102zm11.231 5.584q0 .576.147 1.029.16.441.428.747.27.294.625.453a1.92 1.92 0 0 0 1.53 0q.368-.159.637-.453.27-.306.417-.747.159-.453.159-1.029a3 3 0 0 0-.159-1.016 2.1 2.1 0 0 0-.417-.759 1.8 1.8 0 0 0-.637-.466 1.921 1.921 0 0 0-1.53 0 1.8 1.8 0 0 0-.625.466 2.3 2.3 0 0 0-.428.759 3.2 3.2 0 0 0-.147 1.016m-1.102 0q0-.698.195-1.298.197-.612.588-1.053.393-.453.968-.71t1.322-.257q.759 0 1.323.257.575.257.967.71.391.441.588 1.053.196.6.196 1.298t-.196 1.298-.588 1.053a2.8 2.8 0 0 1-.967.698q-.564.246-1.323.245-.747 0-1.322-.245a2.8 2.8 0 0 1-.968-.698 3 3 0 0 1-.588-1.053q-.195-.6-.195-1.298m7.374-3.171h.98v1.004h.024q.65-1.151 2.058-1.151.624 0 1.041.171t.673.478q.258.306.355.734.11.417.11.931v4.164h-1.04v-4.286q0-.588-.343-.931t-.943-.343q-.478 0-.833.147-.343.147-.576.416-.232.27-.355.637-.11.355-.11.784v3.576h-1.041zm12.266 5.792q0 1.555-.71 2.327-.71.771-2.229.771-.44 0-.906-.098a2.8 2.8 0 0 1-.832-.318 2 2 0 0 1-.613-.576 1.64 1.64 0 0 1-.269-.869h1.041a.8.8 0 0 0 .171.477q.171.196.404.319.245.121.527.171.281.061.539.061.514 0 .869-.183.355-.172.588-.49.232-.306.331-.747.11-.441.11-.968v-.416h-.025a1.77 1.77 0 0 1-.82.869q-.539.27-1.151.27-.71 0-1.237-.257a2.6 2.6 0 0 1-.882-.686 3.1 3.1 0 0 1-.539-1.016 4.4 4.4 0 0 1-.171-1.237q0-.564.147-1.151.147-.6.49-1.078.342-.49.906-.796.563-.318 1.384-.318.6 0 1.102.269.502.257.784.784h.012v-.906h.979zm-2.914-.306q.515 0 .869-.208.368-.22.588-.564a2.6 2.6 0 0 0 .319-.796q.11-.441.11-.881 0-.417-.098-.821a2.1 2.1 0 0 0-.319-.722 1.54 1.54 0 0 0-.551-.527q-.343-.196-.832-.196-.502 0-.858.196-.354.184-.587.502a2.3 2.3 0 0 0-.331.735 3.8 3.8 0 0 0-.098.869q0 .43.086.857.085.429.294.784.207.344.551.564.342.208.857.208m5.244-2.315q0 .576.147 1.029.16.441.428.747.27.294.625.453a1.92 1.92 0 0 0 1.531 0q.368-.159.636-.453.27-.306.417-.747.159-.453.159-1.029a3 3 0 0 0-.159-1.016 2.1 2.1 0 0 0-.417-.759 1.8 1.8 0 0 0-.636-.466 1.921 1.921 0 0 0-1.531 0 1.8 1.8 0 0 0-.625.466 2.3 2.3 0 0 0-.428.759 3.2 3.2 0 0 0-.147 1.016m-1.102 0q0-.698.196-1.298.195-.612.587-1.053.393-.453.968-.71t1.322-.257q.76 0 1.323.257.576.257.967.71.393.441.588 1.053.196.6.196 1.298t-.196 1.298q-.195.6-.588 1.053a2.8 2.8 0 0 1-.967.698q-.563.246-1.323.245-.746 0-1.322-.245a2.8 2.8 0 0 1-.968-.698 3 3 0 0 1-.587-1.053 4.1 4.1 0 0 1-.196-1.298m12.117 2.18h1.935q.196 0 .49-.025a3.3 3.3 0 0 0 .625-.146q.33-.123.649-.343.33-.22.588-.6t.416-.943q.171-.576.171-1.384 0-.784-.159-1.396a2.5 2.5 0 0 0-.502-1.053 2.1 2.1 0 0 0-.894-.662q-.55-.232-1.359-.232h-1.96zm-1.163-7.764h3q2.02 0 3.111 1.029 1.09 1.029 1.09 3.135 0 1.102-.245 1.959a3.7 3.7 0 0 1-.759 1.433q-.515.575-1.311.882-.795.306-1.886.306h-3zm9.786 3.76h2.327q.991 0 1.42-.343.441-.355.441-1.053 0-.466-.147-.735a1.05 1.05 0 0 0-.404-.417 1.5 1.5 0 0 0-.6-.183 5 5 0 0 0-.71-.049h-2.327zm-1.164-3.76h3.172q.282 0 .6.012.331 0 .649.037.318.024.588.086.282.061.478.184.428.257.722.71.306.453.306 1.114 0 .698-.343 1.212-.33.502-.955.747v.025q.808.171 1.237.735.429.563.429 1.371 0 .478-.172.931a2.4 2.4 0 0 1-.514.808 2.6 2.6 0 0 1-.833.563 2.9 2.9 0 0 1-1.139.209h-4.225zm1.164 7.764h2.914q.773 0 1.2-.416.441-.417.441-1.151 0-.429-.159-.711a1.2 1.2 0 0 0-.429-.441 1.6 1.6 0 0 0-.6-.232 3.4 3.4 0 0 0-.71-.074h-2.657zM373.347 182.944l4.125-5.281a.1.1 0 0 0 .02-.048.092.092 0 0 0-.044-.089.1.1 0 0 0-.05-.014h-.905a.19.19 0 0 0-.148.071l-3.293 4.218-3.293-4.218a.18.18 0 0 0-.147-.071h-.906a.094.094 0 0 0-.074.151l4.125 5.281a.374.374 0 0 0 .59 0"/><path fill="#575757" d="M189.435 219.46h1.237l4.604 7.09h.025v-7.09h1.102v8.743h-1.274l-4.567-7.017h-.025v7.017h-1.102zm14.287 8.719q-.268.159-.747.159-.404 0-.649-.221-.233-.232-.233-.747-.428.514-1.004.747a3.3 3.3 0 0 1-1.224.221q-.43 0-.821-.098a1.9 1.9 0 0 1-.661-.306 1.54 1.54 0 0 1-.453-.539 1.9 1.9 0 0 1-.159-.821q0-.539.183-.881.184-.344.478-.551.306-.221.686-.331a9 9 0 0 1 .796-.184q.428-.086.808-.122.392-.05.686-.123.294-.085.465-.232.171-.159.171-.453 0-.344-.134-.551a.83.83 0 0 0-.331-.319 1.3 1.3 0 0 0-.453-.147 3.4 3.4 0 0 0-.49-.036q-.661 0-1.102.257-.44.244-.478.943h-1.04q.025-.588.244-.992.22-.405.588-.649.368-.257.833-.368.477-.11 1.016-.11.43 0 .845.061.429.062.772.257.342.184.551.527.208.344.208.894v3.257q0 .368.037.539.048.171.294.172.135 0 .318-.062zm-1.69-3.246q-.196.147-.514.221-.318.061-.674.11-.342.037-.698.098-.355.05-.636.172t-.466.355q-.171.22-.171.612a.9.9 0 0 0 .098.441 1 1 0 0 0 .269.281q.171.11.392.16.22.049.465.049.514 0 .882-.135.367-.147.6-.355.233-.22.343-.466.11-.257.11-.477zm2.659-3.061h.98v.931h.024q.71-1.078 2.045-1.078a2.3 2.3 0 0 1 1.065.245q.478.245.674.833.318-.515.833-.796a2.4 2.4 0 0 1 1.151-.282q.477 0 .857.11.392.099.661.319.282.22.429.575.159.343.159.833v4.641h-1.041v-4.151q0-.294-.049-.551a1.1 1.1 0 0 0-.183-.441.9.9 0 0 0-.38-.306q-.233-.11-.612-.11-.772 0-1.213.44-.441.441-.441 1.176v3.943h-1.04v-4.151a2.4 2.4 0 0 0-.062-.564 1.1 1.1 0 0 0-.183-.44.8.8 0 0 0-.368-.294q-.22-.11-.575-.11-.453 0-.784.183-.318.184-.527.441-.195.257-.293.539-.086.269-.086.453v3.943h-1.041zm14.836 2.559a2 2 0 0 0-.171-.698 1.6 1.6 0 0 0-.38-.563 1.6 1.6 0 0 0-.563-.38 1.7 1.7 0 0 0-.71-.146q-.405 0-.735.146-.318.135-.551.38a1.8 1.8 0 0 0-.368.576q-.133.318-.159.685zm1.004 1.764q-.208 1.065-.918 1.604t-1.788.539q-.759 0-1.323-.245a2.6 2.6 0 0 1-.93-.686 3 3 0 0 1-.576-1.053 5.3 5.3 0 0 1-.208-1.335q0-.722.221-1.322.22-.6.612-1.041.404-.441.943-.686a2.9 2.9 0 0 1 1.2-.245q.844 0 1.396.355.563.344.894.882.343.539.465 1.175.135.637.11 1.213h-4.739q-.012.416.098.796.11.367.355.661.246.282.625.453.38.171.894.172.662 0 1.077-.307.429-.306.564-.93zm5.345-1.151q0 .575.147 1.028.16.441.428.747.27.294.625.453a1.9 1.9 0 0 0 1.531 0q.368-.159.636-.453.27-.306.417-.747.159-.453.159-1.028 0-.576-.159-1.017a2.1 2.1 0 0 0-.417-.759 1.8 1.8 0 0 0-.636-.465 1.921 1.921 0 0 0-1.531 0 1.8 1.8 0 0 0-.625.465 2.3 2.3 0 0 0-.428.759 3.2 3.2 0 0 0-.147 1.017m-1.102 0q0-.698.196-1.298.195-.613.587-1.054.393-.452.968-.71a3.2 3.2 0 0 1 1.322-.257q.76 0 1.323.257.576.257.967.71.393.44.588 1.054.196.6.196 1.298t-.196 1.298q-.195.6-.588 1.053a2.8 2.8 0 0 1-.967.698q-.563.245-1.323.245-.746 0-1.322-.245a2.8 2.8 0 0 1-.968-.698 3 3 0 0 1-.587-1.053 4.2 4.2 0 0 1-.196-1.298m7.803-2.254h-1.065v-.918h1.065v-.943q0-.771.441-1.163.453-.404 1.31-.404.147 0 .331.024.196.024.343.074v.906a1 1 0 0 0-.294-.061 2 2 0 0 0-.294-.025q-.38 0-.588.147t-.208.563v.882h1.224v.918h-1.224v5.413h-1.041zm9.089 6.258q-.184.466-.367.784a1.9 1.9 0 0 1-.392.514 1.2 1.2 0 0 1-.478.294 1.7 1.7 0 0 1-.6.098q-.184 0-.367-.024a1.8 1.8 0 0 1-.355-.086v-.955q.135.06.306.098.183.049.306.049a.84.84 0 0 0 .527-.16.88.88 0 0 0 .33-.428l.429-1.066-2.511-6.294h1.176l1.849 5.18h.025l1.775-5.18h1.102zm4.396-4.004q0 .575.147 1.028.159.441.429.747.27.294.624.453a1.91 1.91 0 0 0 2.168-.453 2.1 2.1 0 0 0 .416-.747q.16-.453.16-1.028a3 3 0 0 0-.16-1.017 2.1 2.1 0 0 0-.416-.759 1.8 1.8 0 0 0-.637-.465 1.926 1.926 0 0 0-1.531 0 1.8 1.8 0 0 0-.624.465q-.27.306-.429.759a3.2 3.2 0 0 0-.147 1.017m-1.102 0q0-.698.196-1.298.197-.613.588-1.054.392-.452.967-.71a3.2 3.2 0 0 1 1.323-.257q.759 0 1.323.257.575.257.967.71.392.44.588 1.054.196.6.196 1.298t-.196 1.298-.588 1.053a2.8 2.8 0 0 1-.967.698q-.564.245-1.323.245a3.4 3.4 0 0 1-1.323-.245 2.8 2.8 0 0 1-.967-.698 3 3 0 0 1-.588-1.053q-.196-.6-.196-1.298m12.616 3.159h-.979v-1.004h-.025q-.33.588-.845.869-.514.27-1.212.27-.625 0-1.041-.159a1.7 1.7 0 0 1-.674-.478 1.8 1.8 0 0 1-.367-.722 4.3 4.3 0 0 1-.098-.943v-4.164h1.041v4.286q0 .588.343.931.343.342.943.343.478 0 .82-.147.355-.147.588-.417.232-.269.343-.624a2.5 2.5 0 0 0 .122-.796v-3.576h1.041zm1.527-6.331h.979v1.335h.025q.38-.772.931-1.139.55-.367 1.396-.343v1.102q-.625 0-1.066.172-.44.17-.71.502-.27.33-.392.808-.122.465-.122 1.078v2.816h-1.041zm8.16 4.335q.012.344.159.588.147.233.379.379.246.136.539.196.306.062.625.062.244 0 .514-.037a1.8 1.8 0 0 0 .49-.135.95.95 0 0 0 .38-.281.8.8 0 0 0 .146-.49q0-.405-.306-.613a2.5 2.5 0 0 0-.771-.33 9 9 0 0 0-.992-.233 6 6 0 0 1-1.004-.294 2.1 2.1 0 0 1-.759-.539q-.307-.343-.307-.955 0-.478.209-.82.22-.344.551-.551a2.4 2.4 0 0 1 .759-.319q.428-.11.845-.11.539 0 .992.098.453.085.796.318.354.22.563.613.208.38.245.955h-1.041a1.023 1.023 0 0 0-.502-.833 1.5 1.5 0 0 0-.465-.171 2 2 0 0 0-.502-.061q-.234 0-.478.036-.232.037-.429.135a.8.8 0 0 0-.318.245.6.6 0 0 0-.123.392q0 .269.184.453.196.171.49.294.294.11.661.196.368.074.735.159.392.085.759.208.38.123.662.331.294.196.465.502.184.306.184.759 0 .576-.245.955a1.8 1.8 0 0 1-.625.612 2.4 2.4 0 0 1-.869.319 4.8 4.8 0 0 1-.955.098q-.527 0-1.005-.11a2.5 2.5 0 0 1-.845-.356 1.9 1.9 0 0 1-.587-.661q-.22-.416-.245-1.004zm6.245-1.163q0 .575.147 1.028.159.441.429.747.268.294.624.453a1.9 1.9 0 0 0 1.531 0q.367-.159.637-.453.269-.306.416-.747.159-.453.159-1.028 0-.576-.159-1.017a2.1 2.1 0 0 0-.416-.759 1.8 1.8 0 0 0-.637-.465 1.923 1.923 0 0 0-1.531 0 1.8 1.8 0 0 0-.624.465q-.27.306-.429.759a3.2 3.2 0 0 0-.147 1.017m-1.102 0q0-.698.196-1.298.195-.613.588-1.054.391-.452.967-.71a3.2 3.2 0 0 1 1.323-.257q.76 0 1.322.257.576.257.968.71.392.44.587 1.054.196.6.196 1.298t-.196 1.298-.587 1.053a2.8 2.8 0 0 1-.968.698q-.563.245-1.322.245a3.4 3.4 0 0 1-1.323-.245 2.8 2.8 0 0 1-.967-.698 3 3 0 0 1-.588-1.053 4.2 4.2 0 0 1-.196-1.298m12.616 3.159h-.98v-1.004h-.024q-.332.588-.845.869-.514.27-1.213.27-.624 0-1.041-.159a1.7 1.7 0 0 1-.673-.478 1.84 1.84 0 0 1-.368-.722 4.3 4.3 0 0 1-.097-.943v-4.164h1.04v4.286q0 .588.343.931.343.342.943.343.478 0 .821-.147a1.54 1.54 0 0 0 .587-.417q.234-.269.343-.624.123-.367.123-.796v-3.576h1.041zm1.526-6.331h.98v1.335h.025q.38-.772.93-1.139.552-.367 1.396-.343v1.102q-.624 0-1.065.172a1.67 1.67 0 0 0-.71.502q-.27.33-.392.808-.123.465-.123 1.078v2.816h-1.041zm8.198 2.033q-.123-.6-.514-.931-.392-.33-1.053-.33-.564 0-.943.208a1.7 1.7 0 0 0-.613.551 2.4 2.4 0 0 0-.318.796 4.2 4.2 0 0 0-.098.918q0 .441.098.857.11.417.331.747.22.319.575.515.356.195.845.196.772 0 1.2-.404.441-.405.539-1.139h1.065q-.171 1.175-.881 1.812-.698.637-1.911.637-.722 0-1.285-.233a2.54 2.54 0 0 1-.931-.661 3 3 0 0 1-.563-1.017 4.4 4.4 0 0 1-.184-1.31q0-.71.184-1.322.183-.625.551-1.078.38-.465.943-.723.563-.269 1.31-.269.539 0 1.004.135.477.122.833.392.368.269.6.685.232.405.294.968zm6.675.526a2 2 0 0 0-.171-.698 1.6 1.6 0 0 0-.38-.563 1.6 1.6 0 0 0-.563-.38 1.7 1.7 0 0 0-.71-.146q-.405 0-.735.146-.318.135-.551.38a1.8 1.8 0 0 0-.367.576q-.135.318-.16.685zm1.005 1.764q-.208 1.065-.919 1.604-.71.539-1.788.539-.76 0-1.322-.245a2.6 2.6 0 0 1-.931-.686 3 3 0 0 1-.576-1.053 5.3 5.3 0 0 1-.208-1.335q0-.722.221-1.322.22-.6.612-1.041.404-.441.943-.686a2.9 2.9 0 0 1 1.2-.245q.845 0 1.396.355.564.344.894.882.344.539.465 1.175.135.637.111 1.213h-4.74q-.012.416.098.796.11.367.356.661.244.282.624.453t.894.172q.661 0 1.078-.307.428-.306.563-.93z"/><path fill="#000" fill-opacity=".88" d="M309.368 223.231h-1.359v-1.359h1.359zm-1.359 3.613h1.359v1.359h-1.359z"/><path fill="#fff" d="M193.74 241.639h260.662a4.81 4.81 0 0 1 4.811 4.81v17.494a4.81 4.81 0 0 1-4.811 4.811H193.74a4.81 4.81 0 0 1-4.81-4.811v-17.494a4.81 4.81 0 0 1 4.81-4.81"/><path stroke="#d9d9d9" stroke-width=".875" d="M193.74 241.639h260.662a4.81 4.81 0 0 1 4.811 4.81v17.494a4.81 4.81 0 0 1-4.811 4.811H193.74a4.81 4.81 0 0 1-4.81-4.811v-17.494a4.81 4.81 0 0 1 4.81-4.81Z"/><path fill="#000" fill-opacity=".25" d="M199.947 250.454h6.038v.979h-4.874v2.78h4.543v.98h-4.543v3.025h4.91v.979h-6.074zm7.315 2.412h.98v1.004h.024q.65-1.15 2.058-1.151.624 0 1.041.172t.673.477q.257.306.355.735.11.417.11.931v4.163h-1.041v-4.286q0-.588-.342-.93-.343-.343-.943-.343-.478 0-.833.147-.343.147-.576.416-.232.27-.355.637-.11.355-.11.783v3.576h-1.041zm8.25 0h1.261v.919h-1.261v3.931q0 .183.024.293a.34.34 0 0 0 .123.172.6.6 0 0 0 .232.086q.16.012.404.012h.478v.918h-.796q-.404 0-.698-.049a1.1 1.1 0 0 1-.465-.208.9.9 0 0 1-.257-.416 2.4 2.4 0 0 1-.086-.711v-4.028h-1.078v-.919h1.078v-1.898h1.041zm6.814 2.56a2 2 0 0 0-.172-.698 1.6 1.6 0 0 0-.379-.564 1.6 1.6 0 0 0-.564-.379 1.7 1.7 0 0 0-.71-.147q-.403 0-.735.147a1.6 1.6 0 0 0-.551.379 1.8 1.8 0 0 0-.367.576q-.135.318-.159.686zm1.004 1.763q-.208 1.065-.919 1.604-.71.539-1.787.539-.76 0-1.323-.245a2.6 2.6 0 0 1-.931-.686 3 3 0 0 1-.575-1.053 5.2 5.2 0 0 1-.208-1.335q0-.722.22-1.322t.612-1.041q.405-.441.943-.686a2.9 2.9 0 0 1 1.2-.245q.846 0 1.396.355.564.344.894.882.343.538.466 1.176.134.636.11 1.212h-4.739q-.013.417.098.796.11.367.355.661.245.282.624.453.38.172.894.172.661 0 1.078-.306.429-.307.563-.931zm1.14-4.323h.98v1.335h.024q.38-.771.931-1.139.551-.367 1.396-.343v1.102q-.625 0-1.065.172a1.7 1.7 0 0 0-.711.502q-.269.33-.392.808-.122.465-.122 1.078v2.816h-1.041zm8.968 0h1.261v.919h-1.261v3.931q0 .183.025.293a.33.33 0 0 0 .122.172.6.6 0 0 0 .233.086q.16.012.404.012h.477v.918h-.796q-.404 0-.698-.049a1.1 1.1 0 0 1-.465-.208.9.9 0 0 1-.257-.416 2.4 2.4 0 0 1-.086-.711v-4.028h-1.077v-.919h1.077v-1.898h1.041zm2.418-2.412h1.041v3.343h.024q.123-.294.343-.49.22-.208.49-.331.282-.134.575-.196.307-.06.588-.061.625 0 1.041.172.417.171.674.477.256.306.355.735.11.417.11.931v4.163h-1.041v-4.286q0-.588-.343-.93t-.943-.343q-.477 0-.832.147a1.55 1.55 0 0 0-.576.416q-.232.27-.355.637-.11.355-.11.783v3.576h-1.041zm11.201 4.972a2 2 0 0 0-.172-.698 1.6 1.6 0 0 0-.379-.564 1.6 1.6 0 0 0-.564-.379 1.7 1.7 0 0 0-.71-.147q-.403 0-.735.147a1.6 1.6 0 0 0-.551.379 1.8 1.8 0 0 0-.367.576q-.135.318-.159.686zm1.004 1.763q-.208 1.065-.919 1.604-.71.539-1.788.539-.76 0-1.322-.245a2.6 2.6 0 0 1-.931-.686 3 3 0 0 1-.575-1.053 5.3 5.3 0 0 1-.209-1.335q0-.722.221-1.322.22-.6.612-1.041.405-.441.943-.686a2.9 2.9 0 0 1 1.2-.245q.846 0 1.396.355.564.344.894.882.343.538.466 1.176.134.636.11 1.212h-4.739q-.013.417.098.796.11.367.355.661.245.282.624.453.38.172.894.172.661 0 1.078-.306.429-.307.563-.931zm4.585-4.323h.98v1.004h.024q.65-1.15 2.057-1.151.625 0 1.041.172t.674.477q.257.306.355.735.11.417.11.931v4.163h-1.041v-4.286q0-.588-.343-.93-.342-.343-.942-.343-.478 0-.833.147a1.55 1.55 0 0 0-.576.416q-.232.27-.355.637-.11.355-.11.783v3.576h-1.041zm12.413 6.307q-.268.159-.747.159-.404 0-.649-.22-.233-.234-.233-.747-.428.513-1.004.747-.562.22-1.224.22-.428 0-.821-.098a1.9 1.9 0 0 1-.661-.306 1.54 1.54 0 0 1-.453-.539 1.9 1.9 0 0 1-.159-.82q0-.54.183-.882.184-.343.478-.551.306-.22.686-.331a9 9 0 0 1 .796-.184q.428-.085.808-.122.392-.049.686-.122a1.25 1.25 0 0 0 .465-.233q.171-.159.172-.453 0-.343-.135-.551a.83.83 0 0 0-.331-.319 1.3 1.3 0 0 0-.453-.147 3.4 3.4 0 0 0-.49-.036q-.661 0-1.102.257-.441.244-.477.943h-1.041q.024-.588.245-.992.22-.405.587-.649.368-.257.833-.368.477-.11 1.016-.11.43 0 .845.061.429.061.772.258.343.183.551.526t.208.894v3.258q0 .366.037.538.05.172.294.172.135 0 .318-.061zm-1.69-3.245q-.196.147-.514.22-.318.062-.674.11-.342.037-.698.098-.355.05-.636.172t-.466.355q-.171.22-.171.612 0 .257.098.441a1 1 0 0 0 .269.282q.172.11.392.159.22.048.465.049.515 0 .882-.135.368-.147.6-.355.233-.22.343-.465.11-.258.11-.478zm2.659-3.062h.98v.931h.024q.71-1.078 2.045-1.078.588 0 1.066.245.477.245.673.833.318-.514.833-.796a2.4 2.4 0 0 1 1.151-.282q.477 0 .857.11.392.099.661.319.282.22.429.575.159.344.159.833v4.641h-1.041v-4.151q0-.294-.049-.551a1.1 1.1 0 0 0-.183-.441.9.9 0 0 0-.38-.306q-.232-.11-.612-.11-.772 0-1.213.44-.44.441-.44 1.176v3.943h-1.041v-4.151q0-.306-.062-.563a1.06 1.06 0 0 0-.183-.441.8.8 0 0 0-.368-.294q-.22-.11-.575-.11-.454 0-.784.183-.318.184-.527.441-.195.257-.293.539-.087.27-.086.453v3.943h-1.041zm14.836 2.56a2 2 0 0 0-.171-.698 1.6 1.6 0 0 0-.38-.564 1.6 1.6 0 0 0-.563-.379 1.7 1.7 0 0 0-.71-.147q-.405 0-.735.147a1.6 1.6 0 0 0-.551.379 1.8 1.8 0 0 0-.368.576 2.1 2.1 0 0 0-.159.686zm1.004 1.763q-.207 1.065-.918 1.604-.71.539-1.788.539-.76 0-1.322-.245a2.6 2.6 0 0 1-.931-.686 3 3 0 0 1-.576-1.053 5.3 5.3 0 0 1-.208-1.335q0-.722.221-1.322.22-.6.612-1.041.404-.441.943-.686a2.9 2.9 0 0 1 1.2-.245q.845 0 1.396.355.562.344.894.882.343.538.465 1.176.135.636.11 1.212h-4.739q-.012.417.098.796.11.367.355.661.246.282.625.453.38.172.894.172.661 0 1.077-.306.429-.307.564-.931zm5.345-1.151q0 .576.147 1.028.16.441.428.747.27.294.625.454a1.92 1.92 0 0 0 1.531 0q.367-.16.637-.454.269-.306.416-.747a3.1 3.1 0 0 0 .159-1.028q0-.576-.159-1.017a2.1 2.1 0 0 0-.416-.759 1.8 1.8 0 0 0-.637-.465 1.921 1.921 0 0 0-1.531 0 1.8 1.8 0 0 0-.625.465 2.3 2.3 0 0 0-.428.759 3.2 3.2 0 0 0-.147 1.017m-1.102 0q0-.698.196-1.298.195-.612.588-1.053.391-.453.967-.711a3.2 3.2 0 0 1 1.322-.257q.76 0 1.323.257.576.258.967.711.393.441.588 1.053.196.6.196 1.298t-.196 1.298-.588 1.053a2.8 2.8 0 0 1-.967.698q-.562.245-1.323.245-.746 0-1.322-.245a2.8 2.8 0 0 1-.967-.698 3 3 0 0 1-.588-1.053 4.2 4.2 0 0 1-.196-1.298m7.803-2.253h-1.065v-.919h1.065v-.943q0-.771.441-1.163.453-.405 1.31-.404.147 0 .331.024.196.025.343.074v.906a1 1 0 0 0-.294-.061 2 2 0 0 0-.294-.025q-.38 0-.588.147t-.208.563v.882h1.225v.919h-1.225v5.412h-1.041zm9.089 6.257q-.184.465-.367.784a1.8 1.8 0 0 1-.392.514 1.2 1.2 0 0 1-.478.294 1.7 1.7 0 0 1-.6.098q-.184 0-.367-.024a1.8 1.8 0 0 1-.355-.086v-.955q.135.061.306.098.183.048.306.049a.85.85 0 0 0 .527-.159.9.9 0 0 0 .33-.429l.429-1.065-2.51-6.295h1.175l1.849 5.18h.025l1.775-5.18h1.103zm4.396-4.004q0 .576.147 1.028.16.441.429.747.27.294.625.454a1.92 1.92 0 0 0 2.167-.454 2.1 2.1 0 0 0 .416-.747q.16-.453.16-1.028 0-.576-.16-1.017a2.1 2.1 0 0 0-.416-.759 1.8 1.8 0 0 0-.637-.465 1.918 1.918 0 0 0-1.53 0 1.8 1.8 0 0 0-.625.465q-.27.306-.429.759a3.2 3.2 0 0 0-.147 1.017m-1.102 0q0-.698.196-1.298.196-.612.588-1.053.392-.453.967-.711a3.2 3.2 0 0 1 1.323-.257q.759 0 1.323.257.575.258.967.711.392.441.588 1.053.196.6.196 1.298t-.196 1.298q-.197.6-.588 1.053a2.8 2.8 0 0 1-.967.698q-.564.245-1.323.245a3.4 3.4 0 0 1-1.323-.245 2.8 2.8 0 0 1-.967-.698 3 3 0 0 1-.588-1.053q-.196-.6-.196-1.298m12.616 3.159h-.979v-1.004h-.025q-.33.588-.845.87-.515.269-1.212.269-.625 0-1.041-.159a1.7 1.7 0 0 1-.674-.478 1.8 1.8 0 0 1-.367-.722 4.3 4.3 0 0 1-.098-.943v-4.164h1.041v4.286q0 .588.343.931t.943.343q.477 0 .82-.147.356-.147.588-.417.232-.268.343-.624.122-.367.122-.796v-3.576h1.041zm1.527-6.331h.98v1.335h.024q.38-.771.931-1.139.55-.367 1.396-.343v1.102q-.625 0-1.066.172-.44.17-.71.502-.27.33-.392.808-.122.465-.122 1.078v2.816h-1.041zm8.16 4.335q.012.344.159.588.147.233.379.38.246.134.539.196.307.06.625.061.245 0 .514-.037.27-.036.49-.135a.95.95 0 0 0 .38-.281.8.8 0 0 0 .147-.49q0-.405-.307-.612a2.5 2.5 0 0 0-.771-.331 10 10 0 0 0-.992-.233 6 6 0 0 1-1.004-.294 2.1 2.1 0 0 1-.759-.538q-.307-.343-.307-.956 0-.478.209-.82.22-.343.551-.551a2.4 2.4 0 0 1 .759-.319q.428-.11.845-.11.539 0 .992.098.453.085.796.319.355.22.563.612.209.38.245.955h-1.041a1.01 1.01 0 0 0-.502-.833 1.5 1.5 0 0 0-.465-.171 2 2 0 0 0-.502-.061q-.234 0-.478.036-.232.037-.429.135a.8.8 0 0 0-.318.245.6.6 0 0 0-.122.392q0 .27.183.453.196.171.49.294.294.11.661.196.368.074.735.159.392.086.759.208.38.123.662.331.294.196.465.502.184.306.184.759 0 .576-.245.955a1.8 1.8 0 0 1-.625.613 2.5 2.5 0 0 1-.869.318 4.8 4.8 0 0 1-.955.098q-.526 0-1.005-.11a2.6 2.6 0 0 1-.845-.355 1.9 1.9 0 0 1-.587-.662q-.22-.416-.245-1.004zm6.245-1.163q0 .576.147 1.028.159.441.429.747.268.294.624.454a1.92 1.92 0 0 0 1.531 0q.367-.16.637-.454.269-.306.416-.747a3.1 3.1 0 0 0 .159-1.028q0-.576-.159-1.017a2.1 2.1 0 0 0-.416-.759 1.8 1.8 0 0 0-.637-.465 1.923 1.923 0 0 0-1.531 0 1.8 1.8 0 0 0-.624.465q-.27.306-.429.759a3.2 3.2 0 0 0-.147 1.017m-1.102 0q0-.698.196-1.298.195-.612.588-1.053.391-.453.967-.711a3.2 3.2 0 0 1 1.323-.257q.76 0 1.322.257.576.258.968.711.392.441.587 1.053.196.6.196 1.298t-.196 1.298-.587 1.053a2.8 2.8 0 0 1-.968.698q-.563.245-1.322.245a3.4 3.4 0 0 1-1.323-.245 2.8 2.8 0 0 1-.967-.698 3 3 0 0 1-.588-1.053 4.2 4.2 0 0 1-.196-1.298m12.616 3.159h-.98v-1.004h-.024q-.331.588-.845.87-.514.269-1.213.269-.624 0-1.041-.159a1.7 1.7 0 0 1-.673-.478 1.8 1.8 0 0 1-.367-.722 4.2 4.2 0 0 1-.098-.943v-4.164h1.04v4.286q0 .588.343.931t.943.343q.478 0 .821-.147.355-.147.588-.417a1.7 1.7 0 0 0 .342-.624q.123-.367.123-.796v-3.576h1.041zm1.526-6.331h.98v1.335h.025q.38-.771.93-1.139.552-.367 1.396-.343v1.102q-.624 0-1.065.172a1.67 1.67 0 0 0-.71.502q-.27.33-.392.808a4.2 4.2 0 0 0-.123 1.078v2.816h-1.041zm8.198 2.033q-.122-.6-.514-.931-.392-.33-1.053-.33-.564 0-.943.208a1.74 1.74 0 0 0-.613.551 2.4 2.4 0 0 0-.318.796 4.2 4.2 0 0 0-.098.918q0 .441.098.858.11.416.331.747.22.318.575.514.356.196.845.196.772 0 1.2-.404.441-.404.539-1.139h1.066q-.173 1.176-.882 1.812-.697.637-1.911.637-.722 0-1.285-.233a2.54 2.54 0 0 1-.931-.661 3 3 0 0 1-.563-1.016 4.4 4.4 0 0 1-.184-1.311q0-.71.184-1.322.183-.625.551-1.078.38-.465.943-.722.563-.27 1.31-.27.539 0 1.004.135.478.122.833.392.368.269.6.686.233.403.294.967zm6.676.527a2 2 0 0 0-.172-.698 1.6 1.6 0 0 0-.38-.564 1.6 1.6 0 0 0-.563-.379 1.7 1.7 0 0 0-.71-.147q-.404 0-.735.147a1.6 1.6 0 0 0-.551.379 1.8 1.8 0 0 0-.367.576q-.135.318-.16.686zm1.004 1.763q-.208 1.065-.919 1.604-.71.539-1.788.539-.76 0-1.322-.245a2.6 2.6 0 0 1-.931-.686 3 3 0 0 1-.575-1.053 5.3 5.3 0 0 1-.209-1.335q0-.722.221-1.322.22-.6.612-1.041.404-.441.943-.686a2.9 2.9 0 0 1 1.2-.245q.845 0 1.396.355.564.344.894.882.343.538.465 1.176.135.636.111 1.212h-4.74q-.012.417.098.796.11.367.356.661.244.282.624.453t.894.172q.661 0 1.078-.306.428-.307.563-.931z"/><defs><clipPath id="a"><path fill="#fff" d="M198.992 172.975h13.995v13.995h-13.995z"/></clipPath></defs></svg>