<svg xmlns="http://www.w3.org/2000/svg" width="24" height="24" fill="none" viewBox="0 0 24 24"><g clip-path="url(#a)"><path fill="#e01e5a" d="M5.137 15.118a2.49 2.49 0 0 1-2.494 2.494 2.49 2.49 0 0 1-2.495-2.494 2.49 2.49 0 0 1 2.495-2.495h2.494zm1.248 0a2.49 2.49 0 0 1 2.494-2.495 2.49 2.49 0 0 1 2.495 2.495v6.236a2.49 2.49 0 0 1-2.495 2.494 2.49 2.49 0 0 1-2.494-2.494z"/><path fill="#36c5f0" d="M8.882 5.102a2.49 2.49 0 0 1-2.494-2.494A2.49 2.49 0 0 1 8.882.113a2.49 2.49 0 0 1 2.495 2.495v2.494zm0 1.266a2.49 2.49 0 0 1 2.495 2.495 2.49 2.49 0 0 1-2.495 2.494H2.627A2.49 2.49 0 0 1 .133 8.863a2.49 2.49 0 0 1 2.494-2.495z"/><path fill="#2eb67d" d="M18.877 8.863a2.49 2.49 0 0 1 2.494-2.495 2.49 2.49 0 0 1 2.495 2.495 2.49 2.49 0 0 1-2.495 2.494h-2.494zm-1.247 0a2.49 2.49 0 0 1-2.495 2.494 2.49 2.49 0 0 1-2.494-2.494V2.608A2.49 2.49 0 0 1 15.135.113a2.49 2.49 0 0 1 2.495 2.495z"/><path fill="#ecb22e" d="M15.135 18.86a2.49 2.49 0 0 1 2.495 2.494 2.49 2.49 0 0 1-2.495 2.494 2.49 2.49 0 0 1-2.494-2.494v-2.495zm0-1.248a2.49 2.49 0 0 1-2.494-2.494 2.49 2.49 0 0 1 2.494-2.495h6.255a2.49 2.49 0 0 1 2.495 2.495 2.49 2.49 0 0 1-2.495 2.494z"/></g><defs><clipPath id="a"><path fill="#fff" d="M0 0h24v24H0z"/></clipPath></defs></svg>