<svg xmlns="http://www.w3.org/2000/svg" width="24" fill="none" viewBox="0 0 27 28"><path fill="#615eff" fill-rule="evenodd" d="M9.46 3.902C12.314.697 17.038-.243 20.922 1.607c5.16 2.458 7.043 8.72 4.233 13.55l-6.32 10.856a2.66 2.66 0 0 1-1.616 1.23 2.68 2.68 0 0 1-2.018-.263l7.651-13.144c2.038-3.506.675-8.05-3.066-9.84-2.807-1.342-6.239-.672-8.312 1.637a7 7 0 0 0-1.808 4.606A7 7 0 0 0 12 15.544L7.533 23.23a2.65 2.65 0 0 1-1.616 1.231 2.68 2.68 0 0 1-2.019-.264l4.85-8.345a9.6 9.6 0 0 1-1.475-3.298l-2.971 5.124a2.66 2.66 0 0 1-1.616 1.23 2.68 2.68 0 0 1-2.02-.263L8.352 5.428a10 10 0 0 1 1.11-1.526m8.87 4.207c1.85 1.062 2.49 3.422 1.419 5.26L12.38 26.01a2.66 2.66 0 0 1-1.616 1.23 2.68 2.68 0 0 1-2.019-.263l6.842-11.77a3.9 3.9 0 0 1-1.516-.68 3.9 3.9 0 0 1-1.09-1.247 3.83 3.83 0 0 1 .7-4.6 3.88 3.88 0 0 1 3.064-1.074c.559.051 1.1.223 1.585.502m-2.68 2.376a1.201 1.201 0 0 0 .35 2.101 1.22 1.22 0 0 0 1.304-.347 1.204 1.204 0 0 0-.755-1.993 1.23 1.23 0 0 0-.9.24" clip-rule="evenodd"/></svg>