<svg xmlns="http://www.w3.org/2000/svg" width="32" class="icon" viewBox="0 0 2586 1024"><path fill="#00acd7" d="M192.027 345.304c-4.958 0-6.144-2.48-3.719-6.198l26.031-33.415c2.426-3.719 8.624-6.198 13.582-6.198h442.26c4.958 0 6.198 3.773 3.773 7.438l-21.02 32.175c-2.532 3.772-8.73 7.437-12.449 7.437zM4.958 459.29c-4.958 0-6.144-2.48-3.665-6.144l25.978-33.469c2.479-3.772 8.623-6.198 13.635-6.198h564.87c4.905 0 7.384 3.773 6.145 7.384l-9.917 29.75c-1.24 5.012-6.198 7.491-11.156 7.491zm299.763 113.987c-4.905 0-6.144-3.772-3.665-7.437l17.3-30.99c2.48-3.718 7.492-7.383 12.396-7.383H578.56c4.958 0 7.384 3.665 7.384 8.623l-2.426 29.75c0 4.958-4.958 8.623-8.73 8.623l-270.013-1.186zm1285.928-250.233c-78.04 19.833-131.287 34.654-208.141 54.488-18.594 4.958-19.78 6.198-35.948-12.396-18.54-21.02-32.175-34.708-58.206-47.05-78.04-38.373-153.6-27.325-224.202 18.593-84.238 54.434-127.57 135.007-126.384 235.359 1.294 99.058 69.417 180.87 167.236 194.452 84.291 11.156 154.893-18.54 210.62-81.758 11.157-13.636 21.02-28.51 33.47-45.81h-239.078c-26.031 0-32.175-16.115-23.552-37.134 16.06-38.481 45.81-102.832 63.165-135.06a33.42 33.42 0 0 1 30.99-19.834h450.936c-2.479 33.469-2.479 66.884-7.437 100.352-13.635 89.196-47.104 170.954-101.646 242.796-89.141 117.706-205.608 190.787-353.01 210.62-121.425 16.061-234.173-7.437-333.285-81.758-91.621-69.416-143.684-161.091-157.265-275.025-16.168-135.06 23.498-256.377 105.256-362.98 87.957-115.228 204.423-188.255 346.867-214.34 116.466-21.019 227.975-7.384 328.327 60.74 65.643 43.33 112.747 102.83 143.683 174.618 7.438 11.21 2.425 17.354-12.396 21.127"/><path fill="#00acd7" d="M2295.539 507.635c-1.24-16.115-1.24-28.565-3.665-40.907-22.313-122.61-135.114-191.973-252.767-164.756-115.227 25.977-189.547 99.167-216.764 215.58-22.367 96.632 24.737 194.505 113.933 234.172 68.123 29.696 136.246 25.977 201.89-7.492 97.927-50.822 151.229-130.048 157.373-236.597M2000.734 1008.1c-112.747-2.48-215.579-34.654-302.35-108.975-73.027-63.219-118.945-143.737-133.766-239.131-22.312-139.965 16.115-263.869 100.406-374.083 90.328-118.946 199.41-180.871 346.813-206.956 126.329-22.259 245.275-9.863 353.064 63.272 97.873 66.937 158.558 157.373 174.727 276.265 21.019 167.235-27.325 303.48-142.498 419.947-81.758 82.998-182.056 135.06-297.337 158.559-33.415 6.198-66.83 7.491-99.059 11.156"/></svg>