<svg width="1761" height="530" viewBox="0 0 1761 530" fill="none" xmlns="http://www.w3.org/2000/svg">
<path d="M442.411 38.7949H0V283.637C184.052 263.744 441.726 258.771 315.518 328.397C230.036 375.556 288.643 392.955 339.954 408.189C373.348 418.102 403.651 427.099 389.139 442.783C359.584 474.728 418.17 487.436 442.411 491.205V38.7949Z" fill="#193AE6"/>
<path d="M699.214 377.42C678.023 377.42 659.325 372.626 643.12 363.038C627.122 353.237 614.553 339.707 605.412 322.449C596.478 304.977 592.011 284.736 592.011 261.724C592.011 238.926 596.478 218.898 605.412 201.639C614.553 184.168 627.122 170.531 643.12 160.73C659.325 150.929 678.023 146.028 699.214 146.028C721.029 146.028 739.934 150.929 755.932 160.73C772.137 170.531 784.706 184.168 793.64 201.639C802.573 218.898 807.04 238.926 807.04 261.724C807.04 284.736 802.573 304.977 793.64 322.449C784.706 339.707 772.137 353.237 755.932 363.038C739.934 372.626 721.029 377.42 699.214 377.42ZM699.526 353.77C715.523 353.77 729.547 350.148 741.597 342.903C753.854 335.446 763.307 324.899 769.955 311.263C776.811 297.413 780.239 280.9 780.239 261.724C780.239 242.548 776.811 226.142 769.955 212.506C763.307 198.656 753.854 188.109 741.597 180.865C729.547 173.621 715.523 169.999 699.526 169.999C683.529 169.999 669.401 173.621 657.143 180.865C645.093 188.109 635.64 198.656 628.784 212.506C622.136 226.142 618.812 242.548 618.812 261.724C618.812 280.9 622.136 297.413 628.784 311.263C635.64 324.899 645.093 335.446 657.143 342.903C669.401 350.148 683.529 353.77 699.526 353.77Z" fill="#193AE6"/>
<path d="M842.681 373.585V149.864H880.077V343.543H977.308V373.585H842.681Z" fill="#193AE6"/>
<path d="M1064.82 377.42C1051.94 377.42 1041.24 375.183 1032.73 370.709C1024.21 366.234 1017.87 360.268 1013.72 352.811C1009.56 345.354 1007.48 337.257 1007.48 328.521C1007.48 318.294 1009.98 309.452 1014.96 301.994C1020.16 294.537 1027.74 288.784 1037.71 284.736C1047.68 280.474 1059.94 278.344 1074.48 278.344H1114.06C1114.06 269.821 1112.92 262.79 1110.63 257.25C1108.35 251.497 1104.82 247.236 1100.04 244.466C1095.26 241.696 1089.13 240.311 1081.65 240.311C1073.13 240.311 1065.86 242.335 1059.84 246.383C1053.81 250.219 1050.07 256.185 1048.62 264.281H1011.85C1013.09 252.775 1016.83 242.974 1023.06 234.878C1029.3 226.568 1037.5 220.176 1047.68 215.702C1058.07 211.014 1069.39 208.67 1081.65 208.67C1096.4 208.67 1108.97 211.334 1119.36 216.66C1129.75 221.774 1137.64 229.231 1143.04 239.033C1148.65 248.621 1151.46 260.233 1151.46 273.869V373.585H1119.67L1115.93 347.697C1113.85 351.959 1111.15 355.9 1107.83 359.523C1104.71 363.145 1101.08 366.341 1096.92 369.111C1092.77 371.668 1087.99 373.692 1082.59 375.183C1077.39 376.675 1071.47 377.42 1064.82 377.42ZM1073.24 347.058C1079.26 347.058 1084.56 345.993 1089.13 343.862C1093.91 341.518 1097.96 338.322 1101.29 334.274C1104.82 330.013 1107.52 325.325 1109.39 320.212C1111.26 315.098 1112.5 309.665 1113.13 303.912V303.273H1078.54C1071.26 303.273 1065.24 304.231 1060.46 306.149C1055.68 307.854 1052.25 310.41 1050.18 313.82C1048.1 317.229 1047.06 321.17 1047.06 325.645C1047.06 330.119 1048.1 333.954 1050.18 337.15C1052.25 340.346 1055.27 342.797 1059.21 344.501C1063.16 346.206 1067.84 347.058 1073.24 347.058Z" fill="#193AE6"/>
<path d="M1292.7 373.585L1223.2 285.375L1285.53 212.506H1330.09L1252.5 301.035V271.312L1339.44 373.585H1292.7ZM1191.42 373.585V143.472H1228.81V373.585H1191.42Z" fill="#193AE6"/>
<path d="M1425.65 377.42C1410.07 377.42 1396.36 374.011 1384.51 367.193C1372.67 360.162 1363.43 350.361 1356.78 337.79C1350.13 325.219 1346.81 310.73 1346.81 294.324C1346.81 277.278 1350.03 262.364 1356.47 249.579C1363.11 236.795 1372.36 226.781 1384.2 219.537C1396.25 212.293 1410.17 208.67 1425.96 208.67C1441.33 208.67 1454.74 212.186 1466.16 219.217C1477.59 226.248 1486.42 235.73 1492.65 247.662C1498.88 259.381 1502 272.591 1502 287.293C1502 289.423 1502 291.767 1502 294.324C1502 296.881 1501.79 299.544 1501.38 302.314H1373.61V277.704H1464.29C1463.88 265.986 1460.03 256.824 1452.76 250.219C1445.49 243.4 1436.45 239.991 1425.65 239.991C1417.96 239.991 1410.9 241.802 1404.46 245.425C1398.02 249.047 1392.93 254.48 1389.19 261.724C1385.45 268.756 1383.58 277.704 1383.58 288.571V297.839C1383.58 307.854 1385.34 316.483 1388.88 323.727C1392.62 330.971 1397.6 336.511 1403.83 340.346C1410.28 343.969 1417.44 345.78 1425.34 345.78C1434.06 345.78 1441.23 343.862 1446.84 340.027C1452.66 336.192 1456.92 331.078 1459.62 324.686H1497.64C1494.73 334.7 1489.95 343.756 1483.3 351.852C1476.65 359.736 1468.45 366.021 1458.68 370.709C1448.92 375.183 1437.91 377.42 1425.65 377.42Z" fill="#193AE6"/>
<path d="M1628.49 74.6533V95.0118H1587.77V196.804H1567.41V95.0118H1526.7V74.6533H1628.49ZM1648.85 74.6533H1674.29L1704.83 127.545L1735.37 74.6533H1760.82V196.804H1740.46V106.545L1704.83 168.261L1669.2 106.565V196.804H1648.85V74.6533Z" fill="#193AE6"/>
</svg>
