<svg xmlns="http://www.w3.org/2000/svg" width="18" height="18" class="icon" viewBox="0 0 1024 1024"><path fill="currentColor" d="M252.24 630.2c0 51.8-42.32 94.12-94.12 94.12S64 682 64 630.2s42.32-94.12 94.12-94.12h94.12zm47.44 0c0-51.8 42.32-94.12 94.12-94.12s94.12 42.32 94.12 94.12v235.68c0 51.8-42.32 94.12-94.12 94.12s-94.12-42.32-94.12-94.12zm94.12-377.96c-51.8 0-94.12-42.32-94.12-94.12S342 64 393.8 64s94.12 42.32 94.12 94.12v94.12zm0 47.44c51.8 0 94.12 42.32 94.12 94.12s-42.32 94.12-94.12 94.12H158.12c-51.8 0-94.12-42.32-94.12-94.12s42.32-94.12 94.12-94.12zm377.96 94.12c0-51.8 42.32-94.12 94.12-94.12S960 342 960 393.8s-42.32 94.12-94.12 94.12h-94.12zm-47.44 0c0 51.8-42.32 94.12-94.12 94.12s-94.12-42.32-94.12-94.12V158.12c0-51.8 42.32-94.12 94.12-94.12s94.12 42.32 94.12 94.12zM630.2 771.76c51.8 0 94.12 42.32 94.12 94.12S682 960 630.2 960s-94.12-42.32-94.12-94.12v-94.12zm0-47.44c-51.8 0-94.12-42.32-94.12-94.12s42.32-94.12 94.12-94.12h235.68c51.8 0 94.12 42.32 94.12 94.12s-42.32 94.12-94.12 94.12z"/></svg>