<svg xmlns="http://www.w3.org/2000/svg" width="16" height="12" fill="none" viewBox="0 0 16 12"><path fill="#000" d="M15.697 3.963a.188.188 0 0 1 .303.146V10.5a1.5 1.5 0 0 1-1.5 1.5h-13A1.5 1.5 0 0 1 0 10.5V4.113c0-.157.178-.244.303-.147.7.543 1.628 1.234 4.816 3.55.66.48 1.772 1.493 2.881 1.487 1.116.01 2.25-1.025 2.884-1.487 3.188-2.316 4.113-3.01 4.813-3.553M8 8c.725.012 1.769-.912 2.294-1.294 4.147-3.01 4.462-3.272 5.419-4.022a.75.75 0 0 0 .287-.59V1.5A1.5 1.5 0 0 0 14.5 0h-13A1.5 1.5 0 0 0 0 1.5v.594c0 .231.106.447.288.59.956.747 1.271 1.013 5.418 4.022C6.231 7.087 7.275 8.012 8 8"/></svg>