<svg xmlns="http://www.w3.org/2000/svg" width="20" height="20" fill="none" viewBox="0 0 20 20"><path fill="#569cd6" d="M17.5 7.5V3.018c0-.332-.132-.65-.366-.884L15.366.366A1.25 1.25 0 0 0 14.482 0H3.75C3.06 0 2.5.56 2.5 1.25V7.5A2.5 2.5 0 0 0 0 10v4.375c0 .345.28.625.625.625H2.5v3.75c0 .69.56 1.25 1.25 1.25h12.5c.69 0 1.25-.56 1.25-1.25V15h1.875c.345 0 .625-.28.625-.625V10a2.5 2.5 0 0 0-2.5-2.5m-2.5 10H5v-3.75h10zm0-8.75H5V2.5h7.5v1.875c0 .345.28.625.625.625H15zm1.875 2.813a.938.938 0 1 1 0-1.876.938.938 0 0 1 0 1.876"/></svg>