<svg xmlns="http://www.w3.org/2000/svg" width="359" height="361" fill="none" viewBox="0 0 359 361"><rect width="359" height="360" y=".042" fill="url(#a)" rx="41.42"/><g clip-path="url(#b)"><rect width="348.62" height="289.942" x="6.75" y="64.325" fill="#fff" rx="36.818"/><path stroke="#d5f6e3" stroke-width="1.574" d="M181.645 292.644c47.379 0 85.787 38.408 85.788 85.787s-38.409 85.788-85.788 85.788-85.788-38.409-85.788-85.788 38.409-85.787 85.788-85.787Z"/><circle cx="181.653" cy="378.426" r="170.788" stroke="#d5f6e3" stroke-width="1.574"/><circle cx="181.653" cy="378.428" r="255.788" stroke="#d5f6e3" stroke-width="1.574"/><g filter="url(#c)"><rect width="64" height="64" x="63" y="172" fill="#fff" rx="16"/><rect width="62.493" height="62.493" x="63.753" y="172.753" stroke="#fff" stroke-width="1.507" rx="15.247"/><g clip-path="url(#d)"><path fill="#13aa52" d="M95 220.001c8.837 0 16-7.163 16-16s-7.163-16-16-16-16 7.164-16 16 7.163 16 16 16"/><path fill="#fff" d="M99.28 202.049c-1.01-4.46-3.398-5.927-3.656-6.487-.28-.396-.566-1.099-.566-1.099l-.02-.053c-.03.395-.045.548-.418.947-.58.452-3.549 2.944-3.79 8.011-.225 4.727 3.414 7.543 3.906 7.902l.056.04v-.004c.003.024.156 1.125.264 2.292h.385q.136-1.238.407-2.454l.03-.02q.33-.238.63-.514l.022-.021a9.07 9.07 0 0 0 2.909-6.766 11 11 0 0 0-.158-1.774m-4.265 6.552s0-6.628.219-6.627c.17 0 .391 8.55.391 8.55-.304-.036-.61-1.407-.61-1.923"/></g></g><g filter="url(#e)"><rect width="64" height="64" x="162" y="259" fill="#fff" rx="16"/><rect width="63.327" height="63.327" x="162.337" y="259.337" stroke="#fff" stroke-width=".673" rx="15.663"/><g clip-path="url(#f)"><path fill="#857f07" fill-rule="evenodd" d="M207.47 299.929c-1.74-.048-3.09.13-4.222.606-.326.131-.849.131-.892.541.175.172.196.454.348.692.261.433.719 1.016 1.132 1.319l1.393.995c.848.519 1.806.822 2.633 1.341.479.303.957.692 1.436 1.017.244.173.392.455.697.562v-.065c-.153-.194-.196-.475-.348-.693l-.654-.626a10.2 10.2 0 0 0-2.263-2.185c-.697-.476-2.22-1.124-2.502-1.924l-.043-.049c.478-.048 1.044-.216 1.501-.346.741-.194 1.415-.151 2.176-.346l1.045-.303v-.194c-.392-.389-.675-.908-1.088-1.276-1.11-.951-2.329-1.882-3.591-2.66-.675-.432-1.546-.714-2.264-1.081-.262-.13-.696-.195-.848-.411-.393-.475-.61-1.103-.893-1.666l-1.784-3.763c-.392-.843-.632-1.687-1.11-2.465-2.242-3.677-4.68-5.905-8.423-8.09-.805-.454-1.763-.649-2.781-.887l-1.632-.087c-.349-.151-.696-.562-1.001-.757-1.241-.779-4.44-2.466-5.355-.243-.587 1.406.871 2.79 1.366 3.504.371.498.849 1.06 1.111 1.622.146.368.195.757.348 1.147.347.951.674 2.011 1.131 2.899.244.454.5.93.805 1.341.174.242.479.346.544.735-.305.433-.326 1.081-.5 1.623-.784 2.444-.479 5.472.631 7.271.349.541 1.17 1.731 2.286 1.276.979-.389.76-1.622 1.043-2.703.066-.26.022-.433.153-.606v.048l.892 1.795c.675 1.06 1.85 2.163 2.829 2.899.522.389.936 1.06 1.589 1.298v-.066h-.043c-.131-.194-.327-.281-.501-.432-.392-.389-.827-.865-1.132-1.298-.914-1.211-1.718-2.552-2.437-3.936-.349-.67-.654-1.406-.935-2.076-.132-.26-.132-.65-.349-.779-.327.475-.805.887-1.046 1.471-.413.93-.456 2.076-.608 3.266-.088.022-.049 0-.088.048-.696-.172-.936-.887-1.197-1.492-.652-1.536-.762-4.001-.196-5.775.152-.454.806-1.882.545-2.314-.132-.411-.566-.649-.806-.973a9 9 0 0 1-.783-1.384c-.522-1.212-.783-2.553-1.349-3.764-.262-.562-.718-1.147-1.089-1.665-.413-.584-.869-.996-1.196-1.687-.109-.243-.261-.628-.087-.887.043-.173.131-.243.304-.282.283-.242 1.089.065 1.372.194.804.325 1.479.628 2.154 1.081.305.217.631.628 1.023.736h.458c.696.151 1.479.049 2.131.243 1.154.368 2.198.908 3.135 1.493a19.24 19.24 0 0 1 6.79 7.397c.261.498.369.952.609 1.471.458 1.06 1.024 2.141 1.48 3.18.457 1.016.893 2.055 1.545 2.899.327.454 1.632.692 2.22.93.435.194 1.109.368 1.502.606.739.454 1.479.973 2.176 1.47.347.259 1.436.8 1.501 1.232zm-22.194-18.795q-.453-.005-.892.108v.048h.043c.174.346.479.584.697.887l.501 1.039.043-.049c.305-.216.457-.562.457-1.081-.13-.151-.152-.303-.261-.454-.13-.216-.413-.325-.588-.497z" clip-rule="evenodd"/></g></g><g filter="url(#g)"><rect width="64" height="64" x="262" y="109" fill="#fff" rx="16"/><rect width="63.143" height="63.143" x="262.428" y="109.428" stroke="#fff" stroke-width=".857" rx="15.572"/><path fill="#000" d="M306.433 143.648c-.155-.47-.561-.797-1.086-.875-.248-.037-.531-.021-.867.048a7.7 7.7 0 0 1-1.336.175c1.196-2.018 2.168-4.32 2.728-6.487.905-3.504.421-5.1-.144-5.822-1.496-1.912-3.678-2.938-6.31-2.97a11.2 11.2 0 0 0-3.281.46 12 12 0 0 0-1.918-.176c-1.266-.02-2.385.256-3.341.823a15 15 0 0 0-2.36-.592c-2.307-.379-4.167-.083-5.527.877-1.647 1.164-2.411 3.185-2.269 6.009.044.896.546 3.623 1.335 6.21.454 1.486.938 2.721 1.438 3.669.71 1.345 1.47 2.137 2.322 2.422.478.159 1.347.27 2.26-.49.115.14.27.279.475.409.26.164.578.298.896.377 1.146.287 2.219.215 3.134-.186l.014.453c.006.217.012.431.02.631.054 1.351.146 2.401.419 3.136.015.041.035.102.056.168.136.415.363 1.112.941 1.657.598.565 1.322.738 1.985.738.333 0 .65-.043.928-.103.992-.212 2.119-.536 2.934-1.697.77-1.097 1.145-2.749 1.213-5.352l.024-.211.016-.138.182.016.047.003c1.01.046 2.245-.168 3.004-.52.6-.278 2.521-1.293 2.068-2.662"/><path fill="#336791" d="M304.696 143.914c-3.004.62-3.21-.397-3.21-.397 3.171-4.707 4.497-10.681 3.353-12.143-3.121-3.988-8.525-2.102-8.615-2.053l-.029.005a10.7 10.7 0 0 0-2.004-.209c-1.36-.022-2.391.357-3.173.95 0 0-9.64-3.971-9.191 4.994.095 1.908 2.734 14.432 5.88 10.649 1.151-1.383 2.262-2.553 2.262-2.553a2.92 2.92 0 0 0 1.906.487l.053-.046a2.1 2.1 0 0 0 .022.539c-.811.905-.573 1.064-2.193 1.398-1.64.338-.677.94-.048 1.097.763.19 2.527.461 3.719-1.208l-.048.19c.318.255.541 1.655.504 2.925s-.063 2.141.187 2.822c.251.681.5 2.212 2.631 1.756 1.78-.382 2.702-1.37 2.831-3.019.091-1.173.297-.999.31-2.047l.165-.497c.191-1.589.03-2.102 1.127-1.863l.267.023c.807.037 1.863-.129 2.484-.418 1.335-.619 2.127-1.654.81-1.382"/><path fill="#fff" d="M291.588 135.914c-.271-.038-.516-.003-.64.091a.23.23 0 0 0-.097.156c-.016.112.063.235.111.299.136.18.334.304.531.331a1 1 0 0 0 .085.006c.328 0 .626-.255.652-.444.033-.236-.31-.393-.642-.439m8.968.007c-.026-.185-.355-.237-.667-.194s-.614.184-.589.37c.02.144.28.39.588.39a1 1 0 0 0 .079-.006.75.75 0 0 0 .428-.234c.11-.115.173-.243.161-.326"/><path fill="#fff" d="M305.705 143.84c-.114-.347-.483-.458-1.096-.332-1.818.376-2.47.116-2.684-.042 1.414-2.153 2.577-4.757 3.204-7.185.298-1.151.462-2.219.475-3.09.015-.956-.148-1.659-.484-2.088-1.353-1.729-3.34-2.657-5.745-2.683-1.654-.018-3.051.405-3.321.524a8.3 8.3 0 0 0-1.869-.24c-1.242-.02-2.314.277-3.203.883a14.3 14.3 0 0 0-2.602-.683c-2.109-.339-3.784-.082-4.979.765-1.427 1.011-2.086 2.817-1.958 5.37.043.858.532 3.5 1.304 6.03 1.017 3.329 2.122 5.214 3.284 5.602.136.046.293.077.466.077.424 0 .944-.191 1.485-.841a54 54 0 0 1 2.046-2.316c.457.245.959.382 1.473.396l.003.04a13 13 0 0 0-.259.321c-.356.452-.43.546-1.575.781-.326.068-1.191.246-1.204.852-.014.663 1.023.941 1.141.971q.618.154 1.186.154c.919 0 1.729-.303 2.375-.887-.02 2.362.079 4.69.363 5.399.232.58.799 1.999 2.592 1.999.263 0 .552-.03.871-.099 1.871-.401 2.683-1.228 2.997-3.051.169-.974.457-3.3.593-4.548.286.089.655.13 1.054.13.831 0 1.791-.177 2.393-.456.675-.314 1.895-1.084 1.674-1.753m-4.455-8.433a7.5 7.5 0 0 1-.111 1.052 10 10 0 0 0-.132 1.235c-.015.459.042.935.097 1.397.112.931.227 1.89-.217 2.836a4 4 0 0 1-.197-.405c-.056-.134-.176-.349-.342-.647-.646-1.159-2.16-3.874-1.385-4.981.231-.33.817-.669 2.287-.487m-1.782-6.241c2.155.048 3.859.854 5.066 2.396.926 1.183-.093 6.566-3.044 11.209l-.09-.113-.037-.046c.762-1.26.613-2.506.481-3.61-.055-.454-.106-.882-.093-1.284.013-.426.07-.792.124-1.145.067-.436.135-.887.116-1.418a.6.6 0 0 0 .013-.2c-.048-.51-.63-2.035-1.816-3.415-.649-.755-1.595-1.6-2.886-2.17a9.7 9.7 0 0 1 2.166-.204m-12.059 16.265c-.596.716-1.007.579-1.143.534-.881-.294-1.905-2.158-2.807-5.114-.78-2.557-1.236-5.129-1.273-5.85-.114-2.28.439-3.87 1.644-4.724 1.96-1.39 5.182-.558 6.477-.136l-.056.054c-2.125 2.146-2.075 5.813-2.07 6.037 0 .086.007.209.017.377.037.617.105 1.764-.077 3.064-.169 1.208.204 2.39 1.021 3.243q.127.132.265.25a55 55 0 0 0-1.998 2.265m2.271-3.03c-.659-.688-.959-1.644-.822-2.625.192-1.373.122-2.569.083-3.211q-.008-.137-.012-.231c.31-.275 1.749-1.046 2.774-.811.468.107.754.426.872.974.614 2.839.081 4.022-.346 4.973a9 9 0 0 0-.243.573l-.055.148c-.14.374-.27.722-.35 1.053-.701-.002-1.383-.302-1.901-.843m.108 3.829a1.7 1.7 0 0 1-.497-.214c.09-.042.251-.1.529-.158 1.347-.277 1.555-.473 2.01-1.049.104-.133.222-.283.385-.465v-.001c.244-.272.355-.226.557-.142.164.068.324.273.388.499.031.106.065.309-.047.466-.949 1.329-2.332 1.312-3.325 1.064m7.05 6.56c-1.648.353-2.232-.487-2.616-1.449-.248-.62-.37-3.419-.284-6.51a.4.4 0 0 0-.016-.118 1.5 1.5 0 0 0-.046-.218c-.129-.45-.442-.826-.819-.982-.149-.062-.423-.175-.753-.091.07-.29.192-.617.324-.971l.056-.149c.062-.168.141-.342.223-.526.448-.995 1.061-2.358.396-5.436-.249-1.153-1.082-1.716-2.344-1.585-.757.078-1.449.384-1.794.559a6 6 0 0 0-.206.109c.097-1.162.461-3.333 1.823-4.706.857-.865 1.999-1.292 3.39-1.269 2.742.045 4.5 1.452 5.492 2.624.855 1.01 1.318 2.028 1.502 2.577-1.389-.141-2.334.133-2.813.818-1.042 1.49.57 4.381 1.345 5.77.142.255.265.475.303.569.253.611.579 1.02.818 1.317.073.092.144.18.198.258-.421.121-1.177.401-1.108 1.802-.055.704-.45 3.995-.651 5.158-.265 1.536-.83 2.109-2.42 2.449m6.879-7.872c-.43.2-1.15.35-1.834.382-.756.035-1.141-.085-1.231-.159-.042-.873.282-.964.626-1.061q.081-.022.158-.047.047.038.104.076c.608.401 1.691.444 3.22.128l.017-.003a4.1 4.1 0 0 1-1.06.684"/></g><path fill="url(#h)" d="M9 145h344v328H9z"/></g><path fill="#363636" d="M145.125 39.29q-1.636 0-2.899-.58a4.6 4.6 0 0 1-1.988-1.698q-.705-1.14-.705-2.755v-.517h2.216v.517q0 1.532.912 2.3.931.765 2.464.765 1.554 0 2.34-.642a2.12 2.12 0 0 0 .787-1.698q0-.683-.372-1.118-.373-.435-1.057-.683a12 12 0 0 0-1.636-.498l-.766-.186q-1.388-.33-2.423-.808-1.015-.497-1.574-1.304-.56-.809-.559-2.071 0-1.284.621-2.196.642-.911 1.76-1.408 1.119-.497 2.631-.497t2.692.518q1.201.518 1.885 1.532t.683 2.548v.745h-2.216v-.745q0-.933-.394-1.512-.372-.58-1.056-.85-.683-.269-1.594-.269-1.326 0-2.071.56-.726.539-.725 1.511 0 .663.31 1.098.332.414.953.683t1.553.477l.767.186q1.407.311 2.485.808 1.077.476 1.698 1.305.621.828.621 2.133t-.662 2.278q-.642.974-1.844 1.532-1.2.54-2.837.539m12.538 0q-1.533 0-2.734-.621a4.73 4.73 0 0 1-1.864-1.823q-.684-1.18-.684-2.796v-.31q0-1.615.684-2.776a4.73 4.73 0 0 1 1.864-1.822q1.201-.642 2.734-.642 1.531 0 2.733.642a4.7 4.7 0 0 1 1.885 1.823q.683 1.16.683 2.775v.31q0 1.616-.683 2.796a4.7 4.7 0 0 1-1.885 1.823q-1.201.62-2.733.62m0-1.905q1.407 0 2.278-.89.89-.912.89-2.507v-.186q0-1.595-.87-2.485-.87-.912-2.298-.912-1.388 0-2.279.912-.869.89-.869 2.485v.186q0 1.595.869 2.506.89.89 2.279.89m11.871 1.801q-1.16 0-2.071-.517a3.67 3.67 0 0 1-1.429-1.47q-.518-.954-.518-2.279v-6.13h2.134v5.985q0 1.326.662 1.968.663.62 1.844.62 1.304 0 2.091-.869.808-.891.808-2.547V28.79h2.133V39h-2.092v-1.532h-.331q-.29.62-1.035 1.18-.746.538-2.196.538m8.807-.186V28.79h2.092v1.201h.331q.249-.642.787-.932.56-.31 1.367-.31h1.222v1.925h-1.305q-1.035 0-1.698.58-.663.56-.662 1.74V39zm12.388.29q-1.47 0-2.672-.621a4.7 4.7 0 0 1-1.884-1.802q-.684-1.18-.684-2.837v-.27q0-1.656.684-2.816a4.7 4.7 0 0 1 1.884-1.802q1.202-.642 2.672-.642t2.506.538q1.035.54 1.657 1.43.642.89.828 1.967l-2.071.435a3.4 3.4 0 0 0-.435-1.243 2.4 2.4 0 0 0-.932-.89q-.6-.332-1.512-.332-.89 0-1.615.415a2.83 2.83 0 0 0-1.118 1.16q-.415.744-.415 1.822v.186q0 1.077.415 1.843.414.767 1.118 1.16a3.3 3.3 0 0 0 1.615.394q1.346 0 2.051-.684.704-.705.89-1.78l2.071.475a5.4 5.4 0 0 1-.89 1.947 4.5 4.5 0 0 1-1.657 1.43q-1.036.517-2.506.517m12.194 0q-1.554 0-2.713-.642a4.8 4.8 0 0 1-1.823-1.843q-.642-1.201-.642-2.775v-.249q0-1.595.642-2.775a4.5 4.5 0 0 1 1.782-1.843q1.16-.663 2.671-.663 1.47 0 2.568.663a4.46 4.46 0 0 1 1.74 1.802q.621 1.16.621 2.713v.807h-7.849q.041 1.347.891 2.154.869.787 2.153.787 1.202 0 1.802-.538a3.75 3.75 0 0 0 .953-1.243l1.76.911a6 6 0 0 1-.849 1.222q-.538.642-1.429 1.077-.89.435-2.278.435m-2.982-6.44h5.654q-.084-1.161-.829-1.803-.745-.663-1.947-.662-1.2 0-1.967.662-.746.642-.911 1.802m14.579 6.44q-1.946 0-3.23-.87t-1.574-2.63l1.988-.476q.166.849.559 1.346t.973.704q.602.207 1.284.207 1.016 0 1.554-.393.558-.394.559-1.015 0-.621-.518-.911-.517-.291-1.533-.477l-.704-.124a9 9 0 0 1-1.884-.539q-.85-.352-1.346-.973-.498-.621-.497-1.595 0-1.45 1.076-2.236 1.077-.808 2.858-.808 1.719 0 2.817.787a3.47 3.47 0 0 1 1.45 2.092l-1.988.559q-.187-.931-.787-1.305-.601-.393-1.492-.393-.869 0-1.366.331a.99.99 0 0 0-.497.89q0 .622.476.912.497.29 1.325.435l.725.124q1.098.186 2.009.518.912.33 1.429.952.539.622.539 1.657 0 1.533-1.14 2.382t-3.065.849"/><defs><clipPath id="b"><rect width="348.62" height="289.942" x="6.75" y="64.325" fill="#fff" rx="36.818"/></clipPath><clipPath id="d"><path fill="#fff" d="M79 188h32v32H79z"/></clipPath><clipPath id="f"><path fill="#fff" d="M178 275h32v32h-32z"/></clipPath><filter id="c" width="100.165" height="100.165" x="44.917" y="153.917" color-interpolation-filters="sRGB" filterUnits="userSpaceOnUse"><feFlood flood-opacity="0" result="BackgroundImageFix"/><feColorMatrix in="SourceAlpha" result="hardAlpha" values="0 0 0 0 0 0 0 0 0 0 0 0 0 0 0 0 0 0 127 0"/><feOffset/><feGaussianBlur stdDeviation="9.041"/><feComposite in2="hardAlpha" operator="out"/><feColorMatrix values="0 0 0 0 0 0 0 0 0 0 0 0 0 0 0 0 0 0 0.08 0"/><feBlend in2="BackgroundImageFix" result="effect1_dropShadow_1_3364"/><feBlend in="SourceGraphic" in2="effect1_dropShadow_1_3364" result="shape"/></filter><filter id="e" width="80.157" height="80.157" x="153.922" y="250.922" color-interpolation-filters="sRGB" filterUnits="userSpaceOnUse"><feFlood flood-opacity="0" result="BackgroundImageFix"/><feColorMatrix in="SourceAlpha" result="hardAlpha" values="0 0 0 0 0 0 0 0 0 0 0 0 0 0 0 0 0 0 127 0"/><feOffset/><feGaussianBlur stdDeviation="4.039"/><feComposite in2="hardAlpha" operator="out"/><feColorMatrix values="0 0 0 0 0 0 0 0 0 0 0 0 0 0 0 0 0 0 0.08 0"/><feBlend in2="BackgroundImageFix" result="effect1_dropShadow_1_3364"/><feBlend in="SourceGraphic" in2="effect1_dropShadow_1_3364" result="shape"/></filter><filter id="g" width="84.563" height="84.563" x="251.718" y="98.718" color-interpolation-filters="sRGB" filterUnits="userSpaceOnUse"><feFlood flood-opacity="0" result="BackgroundImageFix"/><feColorMatrix in="SourceAlpha" result="hardAlpha" values="0 0 0 0 0 0 0 0 0 0 0 0 0 0 0 0 0 0 127 0"/><feOffset/><feGaussianBlur stdDeviation="5.141"/><feComposite in2="hardAlpha" operator="out"/><feColorMatrix values="0 0 0 0 0 0 0 0 0 0 0 0 0 0 0 0 0 0 0.08 0"/><feBlend in2="BackgroundImageFix" result="effect1_dropShadow_1_3364"/><feBlend in="SourceGraphic" in2="effect1_dropShadow_1_3364" result="shape"/></filter><radialGradient id="a" cx="0" cy="0" r="1" gradientTransform="matrix(0 386 -384.928 0 180 40.5)" gradientUnits="userSpaceOnUse"><stop stop-color="#e5f5ff" stop-opacity=".7"/><stop offset="1" stop-color="#95dbff" stop-opacity=".5"/></radialGradient><linearGradient id="h" x1="181.575" x2="181.575" y1="262.298" y2="389.914" gradientUnits="userSpaceOnUse"><stop stop-color="#fff" stop-opacity="0"/><stop offset="1" stop-color="#fff"/></linearGradient></defs></svg>