<svg xmlns="http://www.w3.org/2000/svg" width="1440" height="715" fill="none" viewBox="0 0 1440 715"><path fill="#fff" d="M0 0h1441v715H0z"/><path fill="#193ae6" d="M141.76 59V44.552h-5.16V42.2h12.912v2.352h-5.16V59zm10.173 0V42.2h2.472v6.648h.384q.24-.456.672-.888.456-.432 1.176-.696.744-.288 1.872-.288 1.344 0 2.376.6 1.056.6 1.656 1.704.6 1.08.6 2.616V59h-2.472v-6.912q0-1.536-.768-2.256-.768-.744-2.112-.744-1.536 0-2.472 1.008-.912 1.008-.912 2.928V59zm20.19.336q-1.8 0-3.144-.744a5.53 5.53 0 0 1-2.112-2.136q-.744-1.392-.744-3.216v-.288q0-1.848.744-3.216.744-1.392 2.064-2.136 1.344-.768 3.096-.768 1.704 0 2.976.768a5.17 5.17 0 0 1 2.016 2.088q.72 1.344.72 3.144v.936h-9.096q.048 1.56 1.032 2.496 1.008.912 2.496.912 1.392 0 2.088-.624a4.3 4.3 0 0 0 1.104-1.44l2.04 1.056q-.336.672-.984 1.416-.624.744-1.656 1.248t-2.64.504m-3.456-7.464h6.552q-.096-1.344-.96-2.088-.864-.768-2.256-.768t-2.28.768q-.864.744-1.056 2.088m24.405 7.464q-3.096 0-4.92-1.728-1.824-1.752-1.824-5.04v-3.936q0-3.288 1.824-5.016 1.824-1.752 4.92-1.752t4.92 1.752q1.848 1.728 1.848 5.016v3.936q0 3.288-1.848 5.04-1.824 1.728-4.92 1.728m0-2.328q1.992 0 3.072-1.152 1.08-1.176 1.08-3.192v-4.128q0-2.016-1.08-3.168-1.08-1.176-3.072-1.176-1.944 0-3.048 1.176-1.104 1.152-1.104 3.168v4.128q0 2.016 1.104 3.192 1.104 1.152 3.048 1.152M202.98 59V42.2h2.472V59zm9.813.336q-1.272 0-2.28-.432a3.76 3.76 0 0 1-1.584-1.272q-.576-.84-.576-2.04 0-1.224.576-2.016.6-.816 1.608-1.224 1.032-.408 2.328-.408h3.6v-.768q0-1.032-.624-1.656t-1.92-.624q-1.272 0-1.944.6t-.888 1.56l-2.304-.744q.288-.96.912-1.728.648-.792 1.704-1.272t2.544-.48q2.304 0 3.624 1.176t1.32 3.336v4.872q0 .72.672.72h1.008V59h-1.848q-.84 0-1.368-.432t-.528-1.176v-.072h-.36q-.192.36-.576.84t-1.128.84q-.744.336-1.968.336m.36-2.04q1.488 0 2.4-.84.912-.864.912-2.352v-.24h-3.456q-.984 0-1.584.432-.6.408-.6 1.224t.624 1.296 1.704.48M222.972 59V42.2h2.472v9.576h.384l4.656-4.608h3.288l-5.976 5.736L233.964 59H230.7l-4.872-4.92h-.384V59zm17.964.336q-1.8 0-3.144-.744a5.53 5.53 0 0 1-2.112-2.136q-.744-1.392-.744-3.216v-.288q0-1.848.744-3.216.744-1.392 2.064-2.136 1.344-.768 3.096-.768 1.704 0 2.976.768a5.17 5.17 0 0 1 2.016 2.088q.72 1.344.72 3.144v.936h-9.096q.048 1.56 1.032 2.496 1.008.912 2.496.912 1.392 0 2.088-.624a4.3 4.3 0 0 0 1.104-1.44l2.04 1.056q-.336.672-.984 1.416-.624.744-1.656 1.248t-2.64.504m-3.456-7.464h6.552q-.096-1.344-.96-2.088-.864-.768-2.256-.768t-2.28.768q-.864.744-1.056 2.088M255.572 59V42.2h10.584v2.352h-7.992v4.824h7.32v2.352h-7.32v4.92h8.112V59zm12.471 0 4.512-5.976-4.416-5.856h2.904l3.096 4.248h.384l3.096-4.248h2.928l-4.44 5.856L280.619 59h-2.952l-3.144-4.344h-.384L270.995 59zm15.234 4.8V47.168h2.424v1.704h.384q.456-.792 1.368-1.416.936-.624 2.664-.624 1.488 0 2.712.72 1.248.72 1.992 2.088.768 1.344.768 3.264v.36q0 1.92-.744 3.288-.744 1.344-1.992 2.064t-2.736.72q-1.152 0-1.944-.288t-1.272-.72a4.5 4.5 0 0 1-.768-.936h-.384V63.8zm6.12-6.624q1.632 0 2.664-1.032t1.032-2.952v-.216q0-1.896-1.056-2.928-1.032-1.032-2.64-1.032-1.584 0-2.64 1.032-1.032 1.032-1.032 2.928v.216q0 1.92 1.032 2.952 1.056 1.032 2.64 1.032m14.679 2.16q-1.8 0-3.144-.744a5.53 5.53 0 0 1-2.112-2.136q-.744-1.392-.744-3.216v-.288q0-1.848.744-3.216.744-1.392 2.064-2.136 1.344-.768 3.096-.768 1.704 0 2.976.768a5.17 5.17 0 0 1 2.016 2.088q.72 1.344.72 3.144v.936h-9.096q.048 1.56 1.032 2.496 1.008.912 2.496.912 1.392 0 2.088-.624a4.3 4.3 0 0 0 1.104-1.44l2.04 1.056q-.336.672-.984 1.416-.624.744-1.656 1.248t-2.64.504m-3.456-7.464h6.552q-.096-1.344-.96-2.088-.864-.768-2.256-.768t-2.28.768q-.864.744-1.056 2.088M312.668 59V47.168h2.424v1.392h.384q.288-.744.912-1.08.648-.36 1.584-.36h1.416v2.232h-1.512q-1.2 0-1.968.672-.768.648-.768 2.016V59zm9.281 0V47.168h2.472V59zm1.248-13.44a1.76 1.76 0 0 1-1.224-.456q-.48-.48-.48-1.224t.48-1.2a1.7 1.7 0 0 1 1.224-.48q.744 0 1.224.48.48.456.48 1.2t-.48 1.224q-.48.456-1.224.456m10.317 13.776q-1.8 0-3.144-.744a5.53 5.53 0 0 1-2.112-2.136q-.744-1.392-.744-3.216v-.288q0-1.848.744-3.216.744-1.392 2.064-2.136 1.344-.768 3.096-.768 1.704 0 2.976.768a5.17 5.17 0 0 1 2.016 2.088q.72 1.344.72 3.144v.936h-9.096q.048 1.56 1.032 2.496 1.008.912 2.496.912 1.392 0 2.088-.624a4.3 4.3 0 0 0 1.104-1.44l2.04 1.056q-.336.672-.984 1.416-.624.744-1.656 1.248t-2.64.504m-3.456-7.464h6.552q-.096-1.344-.96-2.088-.864-.768-2.256-.768t-2.28.768q-.864.744-1.056 2.088M342.105 59V47.168h2.424v1.776h.384q.336-.72 1.2-1.344t2.568-.624q1.344 0 2.376.6 1.056.6 1.656 1.704.6 1.08.6 2.616V59h-2.472v-6.912q0-1.536-.768-2.256-.768-.744-2.112-.744-1.536 0-2.472 1.008-.912 1.008-.912 2.928V59zm20.262.336q-1.704 0-3.096-.72a5.5 5.5 0 0 1-2.184-2.088q-.792-1.368-.792-3.288v-.312q0-1.92.792-3.264a5.5 5.5 0 0 1 2.184-2.088q1.392-.744 3.096-.744t2.904.624 1.92 1.656q.744 1.032.96 2.28l-2.4.504a4 4 0 0 0-.504-1.44 2.8 2.8 0 0 0-1.08-1.032q-.696-.384-1.752-.384-1.032 0-1.872.48-.816.456-1.296 1.344-.48.864-.48 2.112v.216q0 1.248.48 2.136t1.296 1.344a3.86 3.86 0 0 0 1.872.456q1.56 0 2.376-.792.816-.816 1.032-2.064l2.4.552a6.3 6.3 0 0 1-1.032 2.256q-.72 1.032-1.92 1.656-1.2.6-2.904.6m14.131 0q-1.8 0-3.144-.744a5.53 5.53 0 0 1-2.112-2.136q-.744-1.392-.744-3.216v-.288q0-1.848.744-3.216.744-1.392 2.064-2.136 1.344-.768 3.096-.768 1.704 0 2.976.768a5.17 5.17 0 0 1 2.016 2.088q.72 1.344.72 3.144v.936h-9.096q.048 1.56 1.032 2.496 1.008.912 2.496.912 1.392 0 2.088-.624a4.3 4.3 0 0 0 1.104-1.44l2.04 1.056q-.336.672-.984 1.416-.624.744-1.656 1.248t-2.64.504m-3.456-7.464h6.552q-.096-1.344-.96-2.088-.864-.768-2.256-.768t-2.28.768q-.864.744-1.056 2.088"/><path fill="#333" d="M140.672 135V90.2h27.648v6.272h-20.736V109.4h19.072v6.272h-19.072V135zm40.659.896q-3.392 0-6.08-1.152-2.624-1.152-4.224-3.392-1.536-2.24-1.536-5.44 0-3.264 1.536-5.376 1.6-2.177 4.288-3.264 2.752-1.088 6.208-1.088h9.6v-2.048q0-2.752-1.664-4.416t-5.12-1.664q-3.392 0-5.184 1.6t-2.368 4.16l-6.144-1.984a13.3 13.3 0 0 1 2.432-4.608q1.728-2.112 4.544-3.392t6.784-1.28q6.144 0 9.664 3.136t3.52 8.896v12.992q0 1.92 1.792 1.92h2.688V135h-4.928q-2.24 0-3.648-1.152t-1.408-3.136v-.192h-.96q-.512.96-1.536 2.24t-3.008 2.24q-1.984.896-5.248.896m.96-5.44q3.968 0 6.4-2.24 2.432-2.304 2.432-6.272v-.64h-9.216q-2.624 0-4.224 1.152-1.6 1.087-1.6 3.264t1.664 3.456q1.664 1.28 4.544 1.28m35.664 5.44q-6.016 0-9.985-2.688-3.967-2.688-4.864-8.128l6.144-1.472q.513 2.624 1.728 4.16a6.6 6.6 0 0 0 3.008 2.176q1.856.64 3.969.64 3.135 0 4.799-1.216 1.729-1.216 1.729-3.136t-1.601-2.816q-1.6-.896-4.736-1.472l-2.176-.384q-3.2-.576-5.824-1.664t-4.16-3.008-1.536-4.928q0-4.48 3.328-6.912 3.328-2.496 8.832-2.496 5.313 0 8.704 2.432 3.456 2.368 4.481 6.464l-6.145 1.728q-.576-2.88-2.431-4.032-1.857-1.216-4.609-1.216-2.688 0-4.224 1.024-1.536.96-1.536 2.752 0 1.92 1.472 2.816 1.536.896 4.096 1.344l2.24.384q3.393.576 6.208 1.6 2.817 1.024 4.416 2.944 1.665 1.92 1.665 5.12 0 4.736-3.52 7.36t-9.472 2.624m28.649-.896q-2.88 0-4.608-1.728-1.664-1.728-1.664-4.608v-19.648h-8.704v-5.568h8.704V93.016h6.592v10.432h9.408v5.568h-9.408v18.496q0 1.92 1.792 1.92h6.592V135zm38.009 0q-3.84 0-6.848-1.408-2.944-1.408-4.672-4.096-1.664-2.688-1.664-6.464 0-2.816 1.024-4.864t2.752-3.392q1.792-1.408 3.84-2.048v-.832q-3.072-.96-5.184-3.328t-2.112-6.4q0-3.904 1.728-6.528a11.15 11.15 0 0 1 4.736-4.032q2.944-1.408 6.656-1.408h7.552v5.568h-6.464q-3.2 0-5.376 1.728-2.176 1.664-2.176 5.184 0 2.432 1.024 3.968a7.04 7.04 0 0 0 2.752 2.24q1.728.704 3.776.704h7.488v-6.336h6.592v6.336h6.08v5.568h-6.08V135zm1.088-5.568h7.744V115.16h-7.744q-3.2 0-5.44 1.792-2.24 1.728-2.24 5.376t2.304 5.376 5.376 1.728M321.96 135V90.2h28.224v6.272h-21.312v12.864h19.52v6.272h-19.52v13.12h21.632V135zm59.173 0v-25.984h-7.04v-5.568h7.04v-6.912q0-2.88 1.664-4.608 1.728-1.728 4.672-1.728h7.68v5.568h-5.568q-1.856 0-1.856 1.92v5.76h14.144v5.568h-14.144V135zm-20.736 0v-25.984h-8.832v-5.568h8.832v-6.912q0-2.88 1.728-4.608t4.608-1.728h8.128v5.568h-6.016q-1.856 0-1.856 1.92v5.76h7.104v5.568h-7.104V135zm41.472 0v-31.552h6.592V135zm3.328-35.648q-1.92 0-3.264-1.216-1.28-1.28-1.28-3.264 0-2.047 1.28-3.264 1.344-1.215 3.264-1.216t3.2 1.216q1.28 1.216 1.28 3.264 0 1.984-1.28 3.264-1.28 1.215-3.2 1.216m24.461 36.544q-4.545 0-8.256-1.92-3.649-1.92-5.824-5.568-2.112-3.648-2.112-8.768v-.832q0-5.12 2.112-8.704 2.175-3.648 5.824-5.568 3.711-1.984 8.256-1.984 4.543 0 7.744 1.664t5.12 4.416a14.5 14.5 0 0 1 2.56 6.08l-6.4 1.344q-.321-2.112-1.344-3.84t-2.88-2.752-4.672-1.024q-2.752 0-4.992 1.28-2.177 1.216-3.456 3.584-1.28 2.304-1.28 5.632v.576q0 3.328 1.28 5.696t3.456 3.584q2.24 1.216 4.992 1.216 4.16 0 6.336-2.112 2.175-2.176 2.752-5.504l6.4 1.472a16.8 16.8 0 0 1-2.752 6.016q-1.92 2.752-5.12 4.416-3.2 1.6-7.744 1.6m20.019-.896v-31.552h6.592V135zm3.328-35.84q-1.92 0-3.264-1.216-1.28-1.28-1.28-3.264 0-1.985 1.28-3.2 1.344-1.28 3.264-1.28 1.983 0 3.264 1.28 1.28 1.215 1.28 3.2 0 1.984-1.28 3.264-1.281 1.216-3.264 1.216m24.31 36.736q-4.8 0-8.384-1.984-3.583-2.048-5.632-5.696-1.983-3.712-1.984-8.576v-.768q0-4.928 1.984-8.576 1.985-3.712 5.504-5.696 3.585-2.048 8.256-2.048 4.545 0 7.936 2.048 3.456 1.984 5.376 5.568t1.92 8.384v2.496h-24.256q.129 4.16 2.752 6.656 2.688 2.432 6.656 2.432 3.713 0 5.568-1.664 1.92-1.663 2.944-3.84l5.44 2.816q-.896 1.792-2.624 3.776-1.663 1.984-4.416 3.328-2.751 1.344-7.04 1.344m-9.216-19.904h17.472q-.255-3.584-2.56-5.568-2.304-2.048-6.016-2.048-3.711 0-6.08 2.048-2.303 1.984-2.816 5.568M497.027 135v-31.552h6.464v4.736h1.024q.896-1.92 3.2-3.584t6.848-1.664q3.584 0 6.336 1.6 2.816 1.6 4.416 4.544 1.6 2.88 1.6 6.976V135h-6.592v-18.432q0-4.096-2.048-6.016-2.049-1.984-5.632-1.984-4.096 0-6.592 2.688-2.433 2.688-2.432 7.808V135zm47.139 0q-2.88 0-4.608-1.728-1.664-1.728-1.664-4.608v-19.648h-8.704v-5.568h8.704V93.016h6.592v10.432h9.408v5.568h-9.408v18.496q0 1.92 1.792 1.92h6.592V135zM151.36 212v-38.528H137.6V167.2h34.432v6.272h-13.76V212zm23.929 0v-44.8h6.592v17.728h1.024q.64-1.216 1.792-2.368 1.216-1.152 3.136-1.856 1.985-.768 4.992-.768 3.584 0 6.336 1.6 2.815 1.6 4.416 4.544 1.6 2.88 1.6 6.976V212h-6.592v-18.432q0-4.096-2.048-6.016-2.048-1.984-5.632-1.984-4.096 0-6.592 2.688-2.432 2.688-2.432 7.808V212zm45.967.896q-3.392 0-6.08-1.152-2.624-1.152-4.224-3.392-1.536-2.24-1.536-5.44 0-3.264 1.536-5.376 1.6-2.177 4.288-3.264 2.752-1.088 6.208-1.088h9.6v-2.048q0-2.752-1.664-4.416t-5.12-1.664q-3.392 0-5.184 1.6t-2.368 4.16l-6.144-1.984a13.3 13.3 0 0 1 2.432-4.608q1.728-2.112 4.544-3.392t6.784-1.28q6.144 0 9.664 3.136t3.52 8.896v12.992q0 1.92 1.792 1.92h2.688V212h-4.928q-2.24 0-3.648-1.152t-1.408-3.136v-.192h-.96q-.512.96-1.536 2.24t-3.008 2.24q-1.984.896-5.248.896m.96-5.44q3.968 0 6.4-2.24 2.432-2.304 2.432-6.272v-.64h-9.216q-2.623 0-4.224 1.152-1.6 1.087-1.6 3.264t1.664 3.456q1.664 1.28 4.544 1.28M254.854 212q-2.88 0-4.608-1.728-1.664-1.728-1.664-4.608v-19.648h-8.704v-5.568h8.704v-10.432h6.592v10.432h9.408v5.568h-9.408v18.496q0 1.92 1.792 1.92h6.592V212zm27.385 0v-31.552h6.592V212zm3.328-35.84q-1.92 0-3.264-1.216-1.28-1.28-1.28-3.264t1.28-3.2q1.344-1.28 3.264-1.28 1.984 0 3.264 1.28 1.28 1.216 1.28 3.2t-1.28 3.264q-1.28 1.216-3.264 1.216m22.775 36.736q-6.016 0-9.984-2.688t-4.864-8.128l6.144-1.472q.512 2.624 1.728 4.16t3.008 2.176q1.856.64 3.968.64 3.136 0 4.8-1.216 1.728-1.216 1.728-3.136t-1.6-2.816-4.736-1.472l-2.176-.384q-3.2-.576-5.824-1.664t-4.16-3.008-1.536-4.928q0-4.48 3.328-6.912 3.329-2.496 8.832-2.496 5.312 0 8.704 2.432 3.456 2.368 4.48 6.464l-6.144 1.728q-.576-2.88-2.432-4.032-1.856-1.216-4.608-1.216-2.688 0-4.224 1.024-1.536.96-1.536 2.752 0 1.92 1.472 2.816 1.536.895 4.096 1.344l2.24.384q3.392.576 6.208 1.6 2.815 1.024 4.416 2.944 1.664 1.92 1.664 5.12 0 4.736-3.52 7.36t-9.472 2.624m47.249 0q-8.256 0-13.12-4.608-4.863-4.673-4.864-13.44v-10.496q0-8.768 4.864-13.376 4.864-4.672 13.12-4.672t13.12 4.672q4.928 4.608 4.928 13.376v10.496q0 8.767-4.928 13.44-4.864 4.608-13.12 4.608m0-6.208q5.312 0 8.192-3.072 2.88-3.136 2.88-8.512v-11.008q0-5.376-2.88-8.448-2.88-3.136-8.192-3.136-5.184 0-8.128 3.136-2.943 3.072-2.944 8.448v11.008q0 5.376 2.944 8.512 2.944 3.072 8.128 3.072M378.814 212v-44.8h6.592V212zm22.967.896q-3.392 0-6.08-1.152-2.624-1.152-4.224-3.392-1.536-2.24-1.536-5.44 0-3.264 1.536-5.376 1.6-2.177 4.288-3.264 2.752-1.088 6.208-1.088h9.6v-2.048q0-2.752-1.664-4.416t-5.12-1.664q-3.392 0-5.184 1.6t-2.368 4.16l-6.144-1.984a13.3 13.3 0 0 1 2.432-4.608q1.728-2.112 4.544-3.392t6.784-1.28q6.144 0 9.664 3.136t3.52 8.896v12.992q0 1.92 1.792 1.92h2.688V212h-4.928q-2.24 0-3.648-1.152t-1.408-3.136v-.192h-.96q-.512.96-1.536 2.24t-3.008 2.24q-1.984.896-5.248.896m.96-5.44q3.968 0 6.4-2.24 2.432-2.304 2.432-6.272v-.64h-9.216q-2.623 0-4.224 1.152-1.6 1.087-1.6 3.264t1.664 3.456q1.664 1.28 4.544 1.28M425.726 212v-44.8h6.592v25.536h1.024l12.416-12.288h8.768l-15.936 15.296L455.038 212h-8.704l-12.992-13.12h-1.024V212zm44.702.896q-4.8 0-8.384-1.984-3.584-2.048-5.632-5.696-1.984-3.712-1.984-8.576v-.768q0-4.928 1.984-8.576 1.984-3.712 5.504-5.696 3.584-2.048 8.256-2.048 4.544 0 7.936 2.048 3.456 1.984 5.376 5.568t1.92 8.384v2.496h-24.256q.128 4.16 2.752 6.656 2.688 2.432 6.656 2.432 3.713 0 5.568-1.664 1.92-1.664 2.944-3.84l5.44 2.816q-.896 1.792-2.624 3.776-1.663 1.984-4.416 3.328-2.752 1.344-7.04 1.344m-9.216-19.904h17.472q-.256-3.583-2.56-5.568-2.304-2.048-6.016-2.048t-6.08 2.048q-2.304 1.984-2.816 5.568"/><path stroke="#e5e5e5" stroke-width="3.037" d="M143.594 297.264v288.547"/><circle cx="143.593" cy="291.5" r="6.075" fill="#fff" stroke="#203fdd" stroke-width="3.037"/><path fill="#8a8a8a" d="M163.176 293.663q0 .747.255 1.275.256.529.711.875.456.328 1.039.492a5.5 5.5 0 0 0 1.294.146q.747 0 1.276-.164.528-.182.856-.456.328-.273.474-.619.146-.365.146-.729 0-.747-.347-1.094a1.8 1.8 0 0 0-.729-.51 14 14 0 0 0-1.622-.474q-.91-.237-2.259-.601-.838-.219-1.404-.565a3.5 3.5 0 0 1-.874-.802 2.9 2.9 0 0 1-.474-.929 4 4 0 0 1-.128-1.003q0-.984.401-1.695.42-.728 1.094-1.202a4.6 4.6 0 0 1 1.531-.693 6.5 6.5 0 0 1 1.731-.237q1.02 0 1.913.274.911.255 1.586.783.692.53 1.093 1.312.401.766.401 1.786h-2.278q-.091-1.257-.856-1.767-.767-.53-1.95-.529-.402 0-.82.091-.42.073-.766.274a1.7 1.7 0 0 0-.583.51q-.219.328-.219.82 0 .693.419 1.093.438.383 1.13.584.073.017.565.164a90 90 0 0 1 2.333.619q.601.145.857.219.637.2 1.111.547.474.346.784.801.328.438.474.948.164.51.164 1.021 0 1.093-.456 1.877-.438.765-1.166 1.257a5 5 0 0 1-1.659.711 7.6 7.6 0 0 1-1.895.237 7.8 7.8 0 0 1-2.096-.274 4.9 4.9 0 0 1-1.713-.838 4.1 4.1 0 0 1-1.166-1.44q-.438-.892-.456-2.095zm9.084-5.085h1.567v-2.825h2.078v2.825h1.877v1.549h-1.877v5.03q0 .328.018.565.036.237.127.401a.73.73 0 0 0 .31.255q.2.073.547.073h.437a2.7 2.7 0 0 0 .438-.073v1.604q-.346.036-.675.073a6 6 0 0 1-.674.036q-.82 0-1.33-.146a2 2 0 0 1-.784-.455 1.76 1.76 0 0 1-.383-.766 6.4 6.4 0 0 1-.109-1.038v-5.559h-1.567zm13.486 3.882a3.2 3.2 0 0 0-.219-.948 2.2 2.2 0 0 0-.474-.783 2.06 2.06 0 0 0-.729-.547 2 2 0 0 0-.947-.219q-.547 0-1.003.201a2.2 2.2 0 0 0-.765.528 2.7 2.7 0 0 0-.51.784 2.9 2.9 0 0 0-.201.984zm-4.848 1.367q0 .546.146 1.057.163.51.474.893.31.382.783.619.474.219 1.13.219.912 0 1.458-.383.565-.4.839-1.184h1.968q-.165.765-.565 1.367-.401.6-.966 1.02a4.1 4.1 0 0 1-1.276.601 4.8 4.8 0 0 1-1.458.219q-1.112 0-1.968-.364a4.2 4.2 0 0 1-1.458-1.021 4.5 4.5 0 0 1-.893-1.567 6.6 6.6 0 0 1-.291-2.005q0-1.002.309-1.895a5 5 0 0 1 .912-1.586 4.4 4.4 0 0 1 1.439-1.093q.839-.4 1.896-.401 1.112 0 1.986.474a4.3 4.3 0 0 1 1.476 1.221q.583.765.838 1.768.274.984.146 2.041zm8.559-5.249h1.969v1.276h.036q.438-.82 1.221-1.166a4 4 0 0 1 1.695-.365q1.112 0 1.932.401.837.383 1.385 1.075.546.674.82 1.586.273.91.273 1.95 0 .947-.255 1.84a4.7 4.7 0 0 1-.747 1.586 3.8 3.8 0 0 1-1.258 1.093q-.765.4-1.804.401-.455 0-.911-.091a3.7 3.7 0 0 1-.875-.255 4 4 0 0 1-.784-.456 2.8 2.8 0 0 1-.583-.674h-.036v4.702h-2.078zm7.253 4.72q0-.638-.164-1.239a3.3 3.3 0 0 0-.492-1.057 2.4 2.4 0 0 0-.82-.747 2.17 2.17 0 0 0-1.13-.292q-1.311 0-1.986.911-.656.912-.656 2.424 0 .71.164 1.331.182.6.528 1.038t.821.693q.492.255 1.129.255.711 0 1.203-.292.492-.291.802-.747.328-.474.456-1.057.145-.601.145-1.221m9.197-8.31h2.278V298h-2.278z"/><circle cx="143.593" cy="390.214" r="6.075" fill="#fff" stroke="#e5e5e5" stroke-width="3.037"/><path fill="#8a8a8a" d="M163.176 392.378q0 .747.255 1.275.256.529.711.875.456.328 1.039.492a5.5 5.5 0 0 0 1.294.146q.747 0 1.276-.164.528-.183.856-.456a1.6 1.6 0 0 0 .474-.619q.146-.365.146-.729 0-.748-.347-1.094a1.8 1.8 0 0 0-.729-.51 14 14 0 0 0-1.622-.474q-.91-.237-2.259-.601-.838-.219-1.404-.565a3.5 3.5 0 0 1-.874-.802 2.9 2.9 0 0 1-.474-.93 4 4 0 0 1-.128-1.002q0-.984.401-1.695.42-.729 1.094-1.203a4.6 4.6 0 0 1 1.531-.692 6.5 6.5 0 0 1 1.731-.237q1.02 0 1.913.273a4.5 4.5 0 0 1 1.586.784q.692.529 1.093 1.312.401.766.401 1.786h-2.278q-.091-1.257-.856-1.768-.767-.528-1.95-.528-.402 0-.82.091-.42.073-.766.273a1.7 1.7 0 0 0-.583.511q-.219.328-.219.82 0 .692.419 1.093.438.383 1.13.583.073.019.565.164a91 91 0 0 1 2.333.62q.601.146.857.219.637.2 1.111.546t.784.802q.328.438.474.948.164.51.164 1.02 0 1.094-.456 1.878-.438.765-1.166 1.257a5 5 0 0 1-1.659.711 7.6 7.6 0 0 1-1.895.237 7.8 7.8 0 0 1-2.096-.274 4.9 4.9 0 0 1-1.713-.838 4.1 4.1 0 0 1-1.166-1.44q-.438-.893-.456-2.095zm9.084-5.085h1.567v-2.825h2.078v2.825h1.877v1.549h-1.877v5.03q0 .328.018.565.036.236.127.401a.73.73 0 0 0 .31.255q.2.073.547.073h.437a3 3 0 0 0 .438-.073v1.604q-.346.036-.675.073a6 6 0 0 1-.674.036q-.82 0-1.33-.146a2 2 0 0 1-.784-.455 1.76 1.76 0 0 1-.383-.766 6.4 6.4 0 0 1-.109-1.039v-5.558h-1.567zm13.486 3.882a3.2 3.2 0 0 0-.219-.948 2.2 2.2 0 0 0-.474-.784 2.05 2.05 0 0 0-.729-.546 2 2 0 0 0-.947-.219q-.547 0-1.003.201a2.2 2.2 0 0 0-.765.528 2.7 2.7 0 0 0-.51.784 2.9 2.9 0 0 0-.201.984zm-4.848 1.367q0 .546.146 1.057.163.51.474.893.31.382.783.619.474.219 1.13.219.912 0 1.458-.383.565-.4.839-1.184h1.968q-.165.765-.565 1.366a4.1 4.1 0 0 1-.966 1.021 4.1 4.1 0 0 1-1.276.601 4.8 4.8 0 0 1-1.458.219q-1.112 0-1.968-.365a4.15 4.15 0 0 1-1.458-1.02 4.5 4.5 0 0 1-.893-1.567 6.6 6.6 0 0 1-.291-2.005q0-1.002.309-1.895a5 5 0 0 1 .912-1.586 4.4 4.4 0 0 1 1.439-1.093q.839-.4 1.896-.401 1.112 0 1.986.474a4.25 4.25 0 0 1 1.476 1.221q.583.765.838 1.767a5.2 5.2 0 0 1 .146 2.042zm8.559-5.249h1.969v1.276h.036q.438-.82 1.221-1.167a4 4 0 0 1 1.695-.364q1.112 0 1.932.401.837.382 1.385 1.075.546.675.82 1.586.273.91.273 1.949a6.7 6.7 0 0 1-.255 1.841 4.7 4.7 0 0 1-.747 1.586 3.8 3.8 0 0 1-1.258 1.093q-.765.4-1.804.401-.455 0-.911-.091a3.7 3.7 0 0 1-.875-.255 4 4 0 0 1-.784-.456 2.8 2.8 0 0 1-.583-.674h-.036v4.702h-2.078zm7.253 4.72q0-.637-.164-1.239a3.3 3.3 0 0 0-.492-1.057 2.4 2.4 0 0 0-.82-.747 2.17 2.17 0 0 0-1.13-.292q-1.311 0-1.986.911-.656.912-.656 2.424 0 .71.164 1.33.182.602.528 1.039.347.438.821.693.492.255 1.129.255.711 0 1.203-.292.492-.291.802-.747.328-.474.456-1.057.145-.601.145-1.221m9.197-8.31h2.278v13.012h-2.278zm5.072 0h2.278v13.012h-2.278z"/><circle cx="143.593" cy="488.923" r="6.075" fill="#fff" stroke="#e5e5e5" stroke-width="3.037"/><path fill="#8a8a8a" d="M163.176 491.087q0 .747.255 1.275.256.529.711.875.456.328 1.039.492a5.5 5.5 0 0 0 1.294.146q.747 0 1.276-.164.528-.183.856-.456a1.6 1.6 0 0 0 .474-.619q.146-.364.146-.729 0-.748-.347-1.094a1.8 1.8 0 0 0-.729-.51 14 14 0 0 0-1.622-.474q-.91-.237-2.259-.601-.838-.219-1.404-.565a3.5 3.5 0 0 1-.874-.802 2.9 2.9 0 0 1-.474-.93 4 4 0 0 1-.128-1.002q0-.984.401-1.695.42-.729 1.094-1.203a4.6 4.6 0 0 1 1.531-.692 6.5 6.5 0 0 1 1.731-.237q1.02 0 1.913.273a4.5 4.5 0 0 1 1.586.784q.692.529 1.093 1.312.401.765.401 1.786h-2.278q-.091-1.257-.856-1.768-.767-.528-1.95-.528-.402 0-.82.091-.42.073-.766.273a1.7 1.7 0 0 0-.583.511q-.219.328-.219.82 0 .692.419 1.093.438.383 1.13.583.073.019.565.164a91 91 0 0 1 2.333.62q.601.145.857.219.637.2 1.111.546t.784.802q.328.438.474.948.164.51.164 1.02 0 1.093-.456 1.878-.438.765-1.166 1.257a5 5 0 0 1-1.659.711 7.6 7.6 0 0 1-1.895.237 7.8 7.8 0 0 1-2.096-.274 4.9 4.9 0 0 1-1.713-.838 4.1 4.1 0 0 1-1.166-1.44q-.438-.893-.456-2.095zm9.084-5.085h1.567v-2.825h2.078v2.825h1.877v1.549h-1.877v5.03q0 .328.018.565.036.237.127.401a.73.73 0 0 0 .31.255q.2.072.547.073h.437a3 3 0 0 0 .438-.073v1.604q-.346.036-.675.073a6 6 0 0 1-.674.036q-.82 0-1.33-.146a2 2 0 0 1-.784-.455 1.76 1.76 0 0 1-.383-.766 6.4 6.4 0 0 1-.109-1.039v-5.558h-1.567zm13.486 3.882a3.2 3.2 0 0 0-.219-.948 2.2 2.2 0 0 0-.474-.784 2.05 2.05 0 0 0-.729-.546 2 2 0 0 0-.947-.219q-.547 0-1.003.2a2.2 2.2 0 0 0-.765.529 2.7 2.7 0 0 0-.51.784 2.9 2.9 0 0 0-.201.984zm-4.848 1.367q0 .546.146 1.057.163.51.474.892.31.383.783.62.474.219 1.13.219.912 0 1.458-.383.565-.4.839-1.184h1.968q-.165.765-.565 1.366a4.1 4.1 0 0 1-.966 1.021 4.1 4.1 0 0 1-1.276.601 4.8 4.8 0 0 1-1.458.219q-1.112 0-1.968-.365a4.2 4.2 0 0 1-1.458-1.02 4.5 4.5 0 0 1-.893-1.567 6.6 6.6 0 0 1-.291-2.005q0-1.002.309-1.895a5 5 0 0 1 .912-1.586 4.4 4.4 0 0 1 1.439-1.093q.839-.4 1.896-.401 1.112 0 1.986.474a4.25 4.25 0 0 1 1.476 1.221q.583.765.838 1.767.274.984.146 2.042zm8.559-5.249h1.969v1.276h.036q.438-.82 1.221-1.167a4 4 0 0 1 1.695-.364q1.112 0 1.932.401.837.382 1.385 1.075.546.675.82 1.586.273.91.273 1.949a6.7 6.7 0 0 1-.255 1.841 4.7 4.7 0 0 1-.747 1.586 3.8 3.8 0 0 1-1.258 1.093q-.765.4-1.804.401-.455 0-.911-.091a3.7 3.7 0 0 1-.875-.255 4 4 0 0 1-.784-.456 2.8 2.8 0 0 1-.583-.674h-.036v4.702h-2.078zm7.253 4.72q0-.638-.164-1.239a3.3 3.3 0 0 0-.492-1.057 2.4 2.4 0 0 0-.82-.747 2.17 2.17 0 0 0-1.13-.292q-1.311 0-1.986.911-.656.912-.656 2.424 0 .71.164 1.33.182.602.528 1.039.347.438.821.693.492.255 1.129.255.711 0 1.203-.292.492-.291.802-.747.328-.474.456-1.057.145-.601.145-1.221m9.197-8.31h2.278v13.012h-2.278zm5.072 0h2.278v13.012h-2.278zm5.072 0h2.278v13.012h-2.278z"/><circle cx="143.593" cy="587.638" r="6.075" fill="#fff" stroke="#e5e5e5" stroke-width="3.037"/><path fill="#8a8a8a" d="M163.176 589.801q0 .748.255 1.276.256.528.711.875.456.327 1.039.492a5.5 5.5 0 0 0 1.294.146q.747 0 1.276-.164.528-.183.856-.456t.474-.62q.146-.365.146-.729 0-.747-.347-1.093a1.8 1.8 0 0 0-.729-.51 14 14 0 0 0-1.622-.474q-.91-.237-2.259-.602-.838-.218-1.404-.564a3.5 3.5 0 0 1-.874-.802 2.9 2.9 0 0 1-.474-.93 4 4 0 0 1-.128-1.002q0-.984.401-1.695.42-.729 1.094-1.203a4.6 4.6 0 0 1 1.531-.692 6.5 6.5 0 0 1 1.731-.237q1.02 0 1.913.273.911.256 1.586.784.692.528 1.093 1.312.401.766.401 1.786h-2.278q-.091-1.257-.856-1.768-.767-.528-1.95-.528-.402 0-.82.091-.42.073-.766.273a1.7 1.7 0 0 0-.583.511q-.219.327-.219.82 0 .692.419 1.093.438.383 1.13.583.073.018.565.164.51.127 1.13.292.62.163 1.203.328.601.145.857.219.637.2 1.111.546t.784.802q.328.438.474.948.164.51.164 1.02 0 1.094-.456 1.877-.438.766-1.166 1.258a5 5 0 0 1-1.659.711 7.6 7.6 0 0 1-1.895.236 7.8 7.8 0 0 1-2.096-.273 4.9 4.9 0 0 1-1.713-.838 4.1 4.1 0 0 1-1.166-1.44q-.438-.893-.456-2.096zm9.084-5.084h1.567v-2.825h2.078v2.825h1.877v1.549h-1.877v5.03q0 .327.018.565.036.237.127.401a.73.73 0 0 0 .31.255q.2.072.547.073h.437q.219-.02.438-.073v1.603l-.675.073a6 6 0 0 1-.674.037q-.82 0-1.33-.146a1.96 1.96 0 0 1-.784-.456 1.75 1.75 0 0 1-.383-.765 6.4 6.4 0 0 1-.109-1.039v-5.558h-1.567zm13.486 3.882a3.2 3.2 0 0 0-.219-.948 2.2 2.2 0 0 0-.474-.784 2.04 2.04 0 0 0-.729-.546 2 2 0 0 0-.947-.219q-.547 0-1.003.2a2.2 2.2 0 0 0-.765.529q-.31.328-.51.783a2.9 2.9 0 0 0-.201.985zm-4.848 1.366q0 .547.146 1.057.163.511.474.893.31.383.783.62.474.219 1.13.219.912 0 1.458-.383.565-.4.839-1.185h1.968q-.165.766-.565 1.367a4.1 4.1 0 0 1-.966 1.021 4.1 4.1 0 0 1-1.276.601 4.8 4.8 0 0 1-1.458.219q-1.112 0-1.968-.365a4.2 4.2 0 0 1-1.458-1.02 4.5 4.5 0 0 1-.893-1.567 6.6 6.6 0 0 1-.291-2.005q0-1.002.309-1.895a5 5 0 0 1 .912-1.586q.601-.693 1.439-1.093.839-.401 1.896-.401 1.112 0 1.986.474a4.25 4.25 0 0 1 1.476 1.221q.583.765.838 1.767.274.984.146 2.041zm8.559-5.248h1.969v1.276h.036q.438-.82 1.221-1.167a4 4 0 0 1 1.695-.364q1.112 0 1.932.401.837.382 1.385 1.075.546.674.82 1.585.273.912.273 1.95a6.7 6.7 0 0 1-.255 1.841 4.7 4.7 0 0 1-.747 1.585q-.492.674-1.258 1.094-.765.4-1.804.401a4.7 4.7 0 0 1-.911-.091 3.7 3.7 0 0 1-.875-.255 4 4 0 0 1-.784-.456 2.8 2.8 0 0 1-.583-.674h-.036v4.701h-2.078zm7.253 4.72q0-.637-.164-1.239a3.2 3.2 0 0 0-.492-1.057 2.4 2.4 0 0 0-.82-.748 2.2 2.2 0 0 0-1.13-.291q-1.311 0-1.986.911-.656.911-.656 2.424 0 .71.164 1.33.182.601.528 1.039t.821.693q.492.255 1.129.255.711 0 1.203-.292.492-.291.802-.747.328-.474.456-1.057.145-.601.145-1.221m9.197-8.31h2.278v13.012h-2.278zm3.596 0h2.369l3.262 10.296h.037l3.335-10.296h2.314l-4.446 13.012h-2.533z"/><path fill="#000" d="M164.55 330.616q0 1.103.377 1.881.375.78 1.048 1.29.671.484 1.531.726a8 8 0 0 0 1.908.215q1.103 0 1.881-.242.78-.269 1.263-.672.484-.403.699-.914.215-.537.215-1.074 0-1.102-.511-1.613a2.7 2.7 0 0 0-1.075-.752 21 21 0 0 0-2.391-.699q-1.344-.349-3.332-.887-1.236-.322-2.069-.833-.807-.537-1.29-1.182a4.3 4.3 0 0 1-.699-1.37 6 6 0 0 1-.188-1.478q0-1.452.591-2.499a5.5 5.5 0 0 1 1.612-1.774 6.8 6.8 0 0 1 2.258-1.021 9.5 9.5 0 0 1 2.552-.349q1.505 0 2.822.403 1.344.377 2.338 1.155a5.6 5.6 0 0 1 1.612 1.935q.591 1.128.591 2.633h-3.359q-.133-1.854-1.263-2.606-1.128-.78-2.875-.779-.591 0-1.209.134a3.4 3.4 0 0 0-1.129.403q-.51.269-.86.752-.322.484-.322 1.21 0 1.02.618 1.612.645.564 1.666.86.107.026.833.242.753.187 1.666.43.913.242 1.774.483a38 38 0 0 1 1.263.323 5.6 5.6 0 0 1 1.639.806q.698.51 1.155 1.182.485.645.699 1.398.242.752.242 1.504 0 1.613-.672 2.768a5.5 5.5 0 0 1-1.72 1.854 7.3 7.3 0 0 1-2.445 1.048q-1.37.35-2.795.35-1.64 0-3.09-.404-1.45-.402-2.526-1.236a6.1 6.1 0 0 1-1.72-2.122q-.645-1.317-.672-3.091zm21.16 6.772q-1.666 0-2.983-.538a6.7 6.7 0 0 1-2.203-1.531 6.8 6.8 0 0 1-1.371-2.311q-.456-1.344-.456-2.956 0-1.585.456-2.929a6.8 6.8 0 0 1 1.371-2.311 6.35 6.35 0 0 1 2.203-1.505q1.317-.564 2.983-.564t2.956.564q1.317.538 2.203 1.505a6.25 6.25 0 0 1 1.371 2.311q.483 1.344.484 2.929 0 1.612-.484 2.956a6.25 6.25 0 0 1-1.371 2.311q-.886.967-2.203 1.531-1.29.538-2.956.538m0-2.419q1.021 0 1.774-.429a3.75 3.75 0 0 0 1.236-1.129q.483-.699.698-1.559a6.692 6.692 0 0 0 0-3.574 4.4 4.4 0 0 0-.698-1.558 3.75 3.75 0 0 0-1.236-1.129q-.753-.43-1.774-.43-1.022 0-1.773.43a3.74 3.74 0 0 0-1.237 1.129 4.8 4.8 0 0 0-.725 1.558 7.5 7.5 0 0 0 0 3.574 5.2 5.2 0 0 0 .725 1.559q.484.699 1.237 1.129.752.429 1.773.429m21.76 2.043h-3.01v-1.935h-.053q-.565 1.048-1.693 1.693-1.102.618-2.258.618-2.74 0-3.977-1.344-1.209-1.37-1.209-4.111v-8.814h3.064v8.518q0 1.828.698 2.58.699.752 1.962.752.967 0 1.612-.295.645-.296 1.048-.779.404-.511.564-1.21.189-.698.189-1.504v-8.062h3.063zm3.23-13.893h2.876v2.687h.053q.135-.564.511-1.101.403-.538.94-.968a4.8 4.8 0 0 1 1.236-.725 3.7 3.7 0 0 1 1.371-.269q.537 0 .725.027l.43.054v2.955a8 8 0 0 0-.671-.08 4 4 0 0 0-.645-.054q-.78 0-1.478.323a3.2 3.2 0 0 0-1.183.913q-.51.591-.806 1.478-.295.887-.295 2.042v6.611H210.7zm18.353 4.649q-.188-1.29-1.048-1.935-.833-.672-2.123-.672-.591 0-1.263.215-.671.189-1.236.753-.564.538-.94 1.531-.376.967-.376 2.553 0 .86.188 1.72.214.86.645 1.532.456.672 1.155 1.101.699.403 1.693.403 1.344 0 2.203-.833.888-.833 1.102-2.337h3.064q-.43 2.713-2.07 4.165-1.612 1.424-4.299 1.424-1.64 0-2.902-.538a6.4 6.4 0 0 1-2.096-1.504 6.7 6.7 0 0 1-1.317-2.284 9.2 9.2 0 0 1-.43-2.849q0-1.558.43-2.929t1.29-2.364a5.85 5.85 0 0 1 2.123-1.586q1.29-.591 3.009-.591 1.21 0 2.285.322a5.7 5.7 0 0 1 1.934.914 4.9 4.9 0 0 1 1.398 1.559q.537.94.645 2.23zm15.093 1.075a4.7 4.7 0 0 0-.323-1.398 3.3 3.3 0 0 0-.698-1.155 3.04 3.04 0 0 0-1.075-.806 3 3 0 0 0-1.397-.323 3.6 3.6 0 0 0-1.478.296q-.645.269-1.129.779a4 4 0 0 0-.752 1.156 4.3 4.3 0 0 0-.296 1.451zm-7.148 2.015q0 .807.215 1.559.242.752.699 1.316t1.155.914q.699.322 1.666.322 1.344 0 2.15-.564.833-.591 1.236-1.746h2.902a5.8 5.8 0 0 1-.833 2.015 6 6 0 0 1-1.424 1.505 6 6 0 0 1-1.881.886 7.1 7.1 0 0 1-2.15.323q-1.64 0-2.902-.538a6.1 6.1 0 0 1-2.15-1.504q-.86-.968-1.316-2.311-.43-1.344-.43-2.956 0-1.478.457-2.795a7.3 7.3 0 0 1 1.343-2.338 6.5 6.5 0 0 1 2.123-1.612q1.236-.591 2.795-.591 1.638 0 2.929.699a6.3 6.3 0 0 1 2.176 1.8 7.15 7.15 0 0 1 1.236 2.607q.404 1.45.215 3.009zM162.347 416.544h7.954q2.204 0 3.816.753 1.612.752 2.633 2.069 1.021 1.29 1.505 3.036.51 1.748.51 3.735 0 1.989-.51 3.735-.484 1.747-1.505 3.064-1.021 1.29-2.633 2.042t-3.816.752h-7.954zm3.359 16.446h3.305q1.962 0 3.198-.511 1.263-.537 1.961-1.451a5.1 5.1 0 0 0 .968-2.177q.268-1.262.268-2.714 0-1.45-.268-2.687-.242-1.263-.968-2.176-.698-.94-1.961-1.451-1.236-.538-3.198-.538h-3.305zm25.143-5.428a4.7 4.7 0 0 0-.322-1.398 3.3 3.3 0 0 0-.699-1.155 3 3 0 0 0-1.075-.806 3 3 0 0 0-1.397-.323 3.6 3.6 0 0 0-1.478.296q-.645.269-1.129.779a4 4 0 0 0-.752 1.155 4.3 4.3 0 0 0-.296 1.452zm-7.148 2.015q0 .806.215 1.558.242.753.699 1.317t1.155.914q.699.322 1.666.322 1.344 0 2.15-.564.833-.59 1.236-1.747h2.902a5.8 5.8 0 0 1-.833 2.016 6 6 0 0 1-1.424 1.504 6 6 0 0 1-1.881.887 7.1 7.1 0 0 1-2.15.323q-1.639 0-2.902-.538a6.1 6.1 0 0 1-2.15-1.505q-.86-.967-1.316-2.311-.43-1.343-.43-2.955 0-1.478.457-2.795a7.3 7.3 0 0 1 1.343-2.338 6.5 6.5 0 0 1 2.123-1.612q1.236-.591 2.795-.591 1.639 0 2.929.698a6.3 6.3 0 0 1 2.176 1.801 7.1 7.1 0 0 1 1.236 2.606 7.7 7.7 0 0 1 .215 3.01zm14.851 1.693q.135 1.344 1.021 1.881.887.537 2.123.537.43 0 .967-.054a4.7 4.7 0 0 0 1.048-.268q.485-.189.78-.538.322-.375.295-.967-.027-.591-.43-.967t-1.048-.592a8.6 8.6 0 0 0-1.424-.403 68 68 0 0 1-1.639-.349 16 16 0 0 1-1.666-.457 5.6 5.6 0 0 1-1.424-.725 3.44 3.44 0 0 1-.994-1.156q-.377-.725-.377-1.773 0-1.13.538-1.881.564-.78 1.397-1.236a6 6 0 0 1 1.881-.672 11 11 0 0 1 1.989-.188q1.074 0 2.042.242a5.2 5.2 0 0 1 1.773.725q.807.51 1.317 1.344.537.806.672 1.961h-3.198q-.215-1.101-1.021-1.478-.78-.375-1.8-.376-.323 0-.78.054a3.4 3.4 0 0 0-.833.215 1.6 1.6 0 0 0-.645.43q-.268.269-.268.725 0 .565.376.914.403.35 1.021.591.645.215 1.451.376.807.161 1.666.35.833.188 1.639.456a5.1 5.1 0 0 1 1.424.726q.645.458 1.022 1.155.402.7.403 1.72 0 1.236-.565 2.096a4.4 4.4 0 0 1-1.478 1.398 6.5 6.5 0 0 1-1.988.779q-1.102.242-2.177.242a9.6 9.6 0 0 1-2.445-.296 6 6 0 0 1-1.935-.887 4.7 4.7 0 0 1-1.29-1.504q-.456-.915-.483-2.15zm10.226-9.432h2.311v-4.165h3.063v4.165h2.768v2.284h-2.768v7.417q0 .483.027.833.054.348.188.591.162.241.457.376.296.108.806.107h.645q.323-.026.645-.107v2.365q-.51.053-.994.107a9 9 0 0 1-.994.054q-1.209 0-1.962-.215-.726-.241-1.155-.672a2.6 2.6 0 0 1-.565-1.129 9.4 9.4 0 0 1-.161-1.531v-8.196h-2.311zm10.427-5.294h3.063v2.902h-3.063zm0 5.294h3.063v13.892h-3.063zm6.401 0h2.902v2.042l.054.054a5 5 0 0 1 1.827-1.801 4.8 4.8 0 0 1 2.499-.671q2.284 0 3.601 1.182 1.316 1.183 1.316 3.547v9.539h-3.063v-8.733q-.054-1.64-.699-2.364-.645-.753-2.015-.753-.78 0-1.397.296a2.8 2.8 0 0 0-1.048.779 3.5 3.5 0 0 0-.672 1.155 4.2 4.2 0 0 0-.242 1.425v8.195h-3.063zm27.065 10.802q0 .564.135.806.16.242.591.242h.322q.189 0 .43-.054v2.123a4 4 0 0 1-.43.108 4 4 0 0 1-.51.134 5.6 5.6 0 0 1-.995.108q-.94 0-1.558-.377-.618-.375-.806-1.316-.914.887-2.258 1.29a8.7 8.7 0 0 1-2.552.403q-.94 0-1.801-.269a4.8 4.8 0 0 1-1.531-.726q-.645-.51-1.048-1.263-.377-.779-.377-1.8 0-1.29.457-2.096a3.65 3.65 0 0 1 1.236-1.263 5.5 5.5 0 0 1 1.72-.645q.968-.215 1.935-.322a13 13 0 0 1 1.585-.215 8 8 0 0 0 1.317-.242q.591-.162.914-.484.349-.35.349-1.021 0-.59-.296-.967a1.67 1.67 0 0 0-.698-.565 2.5 2.5 0 0 0-.914-.268 6 6 0 0 0-.967-.081q-1.29 0-2.123.538-.833.537-.941 1.666h-3.063q.081-1.344.645-2.231a4.5 4.5 0 0 1 1.424-1.424 6 6 0 0 1 1.989-.752 11.7 11.7 0 0 1 2.257-.215q1.02 0 2.015.215a5.6 5.6 0 0 1 1.774.698q.806.485 1.289 1.263.484.753.484 1.854zm-3.063-3.869q-.699.456-1.72.564-1.021.08-2.042.269a5.6 5.6 0 0 0-.941.242 2.4 2.4 0 0 0-.806.403 1.74 1.74 0 0 0-.564.671q-.188.404-.188.995 0 .51.295.86.296.349.699.564.43.188.914.269.51.08.913.08.511 0 1.102-.134a3.5 3.5 0 0 0 1.102-.457q.537-.323.886-.806.35-.51.35-1.236zm4.962-6.933h2.311v-4.165h3.063v4.165h2.768v2.284h-2.768v7.417q0 .483.027.833.054.348.188.591.162.241.457.376.296.108.806.107h.645q.322-.026.645-.107v2.365q-.51.053-.994.107a9 9 0 0 1-.994.054q-1.21 0-1.962-.215-.726-.241-1.156-.672a2.6 2.6 0 0 1-.564-1.129 9.4 9.4 0 0 1-.161-1.531v-8.196h-2.311zm10.426-5.294h3.064v2.902h-3.064zm0 5.294h3.064v13.892h-3.064zm12.77 14.269q-1.666 0-2.983-.538a6.7 6.7 0 0 1-2.203-1.531 6.8 6.8 0 0 1-1.371-2.311q-.456-1.344-.456-2.956 0-1.586.456-2.929a6.8 6.8 0 0 1 1.371-2.311 6.3 6.3 0 0 1 2.203-1.505q1.317-.564 2.983-.564t2.956.564q1.317.537 2.203 1.505a6.25 6.25 0 0 1 1.371 2.311q.483 1.343.483 2.929 0 1.612-.483 2.956a6.3 6.3 0 0 1-1.371 2.311q-.886.966-2.203 1.531-1.29.538-2.956.538m0-2.419q1.021 0 1.774-.43a3.75 3.75 0 0 0 1.236-1.128q.483-.7.698-1.559a6.728 6.728 0 0 0 0-3.574 4.4 4.4 0 0 0-.698-1.558 3.75 3.75 0 0 0-1.236-1.129q-.753-.43-1.774-.43t-1.774.43a3.75 3.75 0 0 0-1.236 1.129 4.8 4.8 0 0 0-.725 1.558 7.5 7.5 0 0 0 0 3.574q.242.86.725 1.559.485.698 1.236 1.128.753.43 1.774.43m9.56-11.85h2.902v2.042l.054.054a5.04 5.04 0 0 1 1.827-1.801 4.8 4.8 0 0 1 2.499-.671q2.284 0 3.601 1.182 1.317 1.183 1.317 3.547v9.539h-3.064v-8.733q-.053-1.64-.698-2.364-.645-.753-2.016-.753a3.2 3.2 0 0 0-1.397.296 2.8 2.8 0 0 0-1.048.779 3.5 3.5 0 0 0-.672 1.155 4.2 4.2 0 0 0-.241 1.425v8.195h-3.064zM164.55 528.048q0 1.101.377 1.881.375.779 1.048 1.29.671.483 1.531.725a8 8 0 0 0 1.908.215q1.103 0 1.881-.242.78-.269 1.263-.671.484-.404.699-.914.215-.537.215-1.075 0-1.102-.511-1.612a2.7 2.7 0 0 0-1.075-.753q-1.02-.375-2.391-.698a376 376 0 0 1-3.332-.887q-1.236-.323-2.069-.833-.807-.537-1.29-1.182a4.3 4.3 0 0 1-.699-1.371 6 6 0 0 1-.188-1.478q0-1.45.591-2.499a5.5 5.5 0 0 1 1.612-1.773 6.8 6.8 0 0 1 2.258-1.021 9.5 9.5 0 0 1 2.552-.35q1.505 0 2.822.403 1.344.376 2.338 1.156a5.6 5.6 0 0 1 1.612 1.935q.591 1.128.591 2.633h-3.359q-.133-1.854-1.263-2.607-1.128-.779-2.875-.779-.591 0-1.209.135a3.4 3.4 0 0 0-1.129.403q-.51.269-.86.752-.322.484-.322 1.209 0 1.021.618 1.613.645.564 1.666.859.107.027.833.242a138 138 0 0 1 3.44.914q.887.215 1.263.322a5.6 5.6 0 0 1 1.639.806q.698.511 1.155 1.183.485.645.699 1.397.242.753.242 1.505 0 1.612-.672 2.768a5.5 5.5 0 0 1-1.72 1.854 7.3 7.3 0 0 1-2.445 1.048q-1.37.35-2.795.349-1.64 0-3.09-.403-1.45-.404-2.526-1.236a6.1 6.1 0 0 1-1.72-2.123q-.645-1.317-.672-3.09zm24.17-2.848q-.189-1.29-1.048-1.935-.834-.672-2.123-.672-.591 0-1.263.215-.672.188-1.236.752-.564.538-.941 1.532-.376.967-.376 2.553 0 .86.188 1.72.214.86.645 1.531.457.672 1.156 1.102.698.403 1.692.403 1.344 0 2.204-.833.886-.833 1.102-2.338h3.063q-.43 2.715-2.069 4.165-1.612 1.425-4.3 1.425-1.639 0-2.902-.538a6.4 6.4 0 0 1-2.096-1.505 6.7 6.7 0 0 1-1.316-2.284 9.1 9.1 0 0 1-.43-2.848q0-1.559.43-2.929t1.289-2.365a5.86 5.86 0 0 1 2.123-1.585q1.29-.591 3.01-.591a8 8 0 0 1 2.284.322 5.7 5.7 0 0 1 1.935.914 4.9 4.9 0 0 1 1.397 1.558q.537.94.645 2.231zm5.553-9.943h3.063v7.121h.054q.565-.94 1.666-1.559a4.96 4.96 0 0 1 2.499-.644q2.284 0 3.601 1.182 1.317 1.183 1.317 3.547v9.539h-3.064v-8.733q-.053-1.64-.698-2.365-.645-.752-2.016-.752a3.2 3.2 0 0 0-1.397.296 2.8 2.8 0 0 0-1.048.779 3.5 3.5 0 0 0-.672 1.155 4.2 4.2 0 0 0-.242 1.425v8.195h-3.063zm24.97 11.017a4.7 4.7 0 0 0-.323-1.397 3.3 3.3 0 0 0-.699-1.155 3 3 0 0 0-1.074-.807 3 3 0 0 0-1.398-.322q-.806 0-1.478.296-.645.269-1.128.779a4 4 0 0 0-.753 1.155 4.3 4.3 0 0 0-.295 1.451zm-7.148 2.016q0 .806.215 1.558.242.753.698 1.317.457.564 1.156.914.699.322 1.666.322 1.343 0 2.15-.564.833-.591 1.236-1.747h2.902a5.8 5.8 0 0 1-.833 2.016 6 6 0 0 1-1.424 1.504 6.1 6.1 0 0 1-1.881.887 7.1 7.1 0 0 1-2.15.323q-1.64 0-2.902-.538a6.1 6.1 0 0 1-2.15-1.505q-.86-.967-1.317-2.311-.43-1.343-.43-2.955 0-1.479.457-2.795a7.3 7.3 0 0 1 1.344-2.338 6.5 6.5 0 0 1 2.123-1.612q1.236-.591 2.794-.591 1.64 0 2.929.698a6.3 6.3 0 0 1 2.177 1.801 7.2 7.2 0 0 1 1.236 2.606 7.7 7.7 0 0 1 .215 3.01zm12.54-7.739h2.902v1.935h.08q.35-.511.753-.941t.887-.726a4.4 4.4 0 0 1 1.155-.456q.645-.188 1.478-.188 1.263 0 2.338.564 1.102.564 1.558 1.747.78-1.075 1.801-1.693t2.553-.618q2.203 0 3.412 1.074 1.236 1.075 1.236 3.601v9.593h-3.063v-8.115q0-.833-.054-1.505-.054-.698-.322-1.182-.242-.51-.753-.779-.51-.269-1.397-.269-1.558 0-2.257.967-.699.968-.699 2.741v8.142h-3.063v-8.921q0-1.45-.538-2.177-.51-.752-1.907-.752-.592 0-1.156.242a3 3 0 0 0-.967.699q-.403.456-.672 1.128a4.5 4.5 0 0 0-.242 1.532v8.249h-3.063zm35.016 10.802q0 .564.135.806.16.243.591.242h.322q.189 0 .43-.054v2.123q-.16.054-.43.108a4 4 0 0 1-.51.134 5.5 5.5 0 0 1-.994.108q-.94 0-1.559-.377-.618-.375-.806-1.316-.914.887-2.257 1.289a8.7 8.7 0 0 1-2.553.404q-.94 0-1.8-.269a4.8 4.8 0 0 1-1.532-.726 4 4 0 0 1-1.048-1.263q-.376-.779-.376-1.8 0-1.29.456-2.096a3.64 3.64 0 0 1 1.237-1.263 5.5 5.5 0 0 1 1.719-.645q.967-.215 1.935-.322a13 13 0 0 1 1.586-.215q.752-.081 1.316-.242.591-.162.914-.484.35-.35.349-1.021 0-.591-.295-.967a1.67 1.67 0 0 0-.699-.565 2.5 2.5 0 0 0-.914-.268 6 6 0 0 0-.967-.081q-1.29 0-2.123.537-.833.538-.94 1.666h-3.064q.081-1.343.645-2.23a4.5 4.5 0 0 1 1.424-1.424 6 6 0 0 1 1.989-.752 11.7 11.7 0 0 1 2.257-.215q1.022 0 2.015.215a5.6 5.6 0 0 1 1.774.698q.805.485 1.29 1.263.483.753.483 1.854zm-3.063-3.869q-.699.456-1.72.564-1.02.08-2.042.269a5.5 5.5 0 0 0-.94.241q-.458.135-.807.404a1.75 1.75 0 0 0-.564.671q-.188.403-.188.995 0 .51.296.859.296.35.698.565.43.188.914.269.51.08.914.08.51 0 1.101-.134a3.5 3.5 0 0 0 1.102-.457q.537-.323.887-.806.35-.511.349-1.236zM172.692 626.974q0 1.263-.215 2.445a5.2 5.2 0 0 1-.886 2.123q-.645.94-1.908 1.505-1.236.564-3.305.564-1.531 0-2.607-.457-1.075-.483-1.773-1.29a5.25 5.25 0 0 1-1.022-1.961 9 9 0 0 1-.322-2.445v-1.022h3.359v.995q0 1.638.537 2.552.565.888 2.096.887.807 0 1.317-.242.537-.242.833-.698.322-.484.43-1.183.108-.698.108-1.585v-13.194h3.358zm10.026 6.556q-1.665 0-2.982-.537a6.7 6.7 0 0 1-2.204-1.532 6.8 6.8 0 0 1-1.37-2.311q-.457-1.343-.457-2.955 0-1.586.457-2.929a6.8 6.8 0 0 1 1.37-2.311 6.3 6.3 0 0 1 2.204-1.505q1.317-.564 2.982-.564t2.956.564q1.317.537 2.204 1.505a6.2 6.2 0 0 1 1.37 2.311q.484 1.343.484 2.929 0 1.612-.484 2.955a6.2 6.2 0 0 1-1.37 2.311q-.887.968-2.204 1.532-1.29.537-2.956.537m0-2.418q1.021 0 1.774-.43a3.74 3.74 0 0 0 1.236-1.128q.484-.7.699-1.559a6.722 6.722 0 0 0 0-3.574 4.4 4.4 0 0 0-.699-1.558 3.7 3.7 0 0 0-1.236-1.129q-.753-.43-1.774-.43t-1.773.43a3.7 3.7 0 0 0-1.236 1.129 4.8 4.8 0 0 0-.726 1.558 7.5 7.5 0 0 0 0 3.574q.242.86.726 1.559a3.74 3.74 0 0 0 1.236 1.128q.753.43 1.773.43m9.641-17.144h3.064v7.094h.053q.322-.51.78-.914a4.6 4.6 0 0 1 .994-.671 4.7 4.7 0 0 1 1.155-.43 4.8 4.8 0 0 1 1.21-.161q1.639 0 2.848.591a5.4 5.4 0 0 1 2.042 1.585q.807.994 1.209 2.338a10 10 0 0 1 .403 2.875q0 1.398-.376 2.714a6.9 6.9 0 0 1-1.101 2.338 5.6 5.6 0 0 1-1.855 1.612q-1.128.591-2.66.591a10 10 0 0 1-1.424-.107 4.97 4.97 0 0 1-2.526-1.048 3.5 3.5 0 0 1-.86-1.129h-.054v1.908h-2.902zm10.695 12.253q0-.94-.242-1.827a4.8 4.8 0 0 0-.725-1.558 3.6 3.6 0 0 0-1.209-1.102q-.726-.43-1.666-.43-1.935 0-2.929 1.344-.968 1.343-.968 3.573 0 1.048.242 1.962.269.887.779 1.532.512.645 1.209 1.021.726.376 1.667.376 1.047 0 1.773-.43a3.7 3.7 0 0 0 1.182-1.102q.484-.698.672-1.558a7.6 7.6 0 0 0 .215-1.801m26.513-6.153a6.8 6.8 0 0 0-.591-1.532 4.2 4.2 0 0 0-.968-1.209q-.591-.51-1.397-.779-.78-.296-1.827-.296-1.531 0-2.661.618a5.2 5.2 0 0 0-1.8 1.666 7.5 7.5 0 0 0-1.048 2.338 11.3 11.3 0 0 0-.322 2.687q0 1.371.322 2.687a7.9 7.9 0 0 0 1.048 2.365 5.3 5.3 0 0 0 1.8 1.639q1.13.618 2.661.618 1.128 0 1.988-.376a4.7 4.7 0 0 0 1.478-1.075 5.2 5.2 0 0 0 .968-1.612 7.7 7.7 0 0 0 .456-1.962h3.279q-.108 1.72-.753 3.144a7.7 7.7 0 0 1-1.693 2.472 7.6 7.6 0 0 1-2.526 1.586q-1.45.564-3.197.564-2.15 0-3.87-.779a8.7 8.7 0 0 1-2.875-2.177q-1.182-1.37-1.827-3.197a12.1 12.1 0 0 1-.618-3.897q0-2.042.618-3.869.645-1.828 1.827-3.198a8.7 8.7 0 0 1 2.875-2.177q1.72-.806 3.87-.806 1.613 0 3.036.457 1.425.43 2.499 1.29a6.5 6.5 0 0 1 1.774 2.042q.672 1.21.833 2.768zm12.379 13.462q-1.666 0-2.983-.537a6.7 6.7 0 0 1-2.203-1.532 6.8 6.8 0 0 1-1.371-2.311q-.456-1.343-.456-2.955 0-1.586.456-2.929a6.8 6.8 0 0 1 1.371-2.311 6.3 6.3 0 0 1 2.203-1.505q1.317-.564 2.983-.564t2.956.564q1.317.537 2.203 1.505a6.25 6.25 0 0 1 1.371 2.311q.483 1.343.484 2.929 0 1.612-.484 2.955a6.25 6.25 0 0 1-1.371 2.311q-.886.968-2.203 1.532-1.29.537-2.956.537m0-2.418q1.021 0 1.774-.43a3.76 3.76 0 0 0 1.236-1.128q.483-.7.698-1.559a6.8 6.8 0 0 0 .242-1.8q0-.888-.242-1.774a4.4 4.4 0 0 0-.698-1.558 3.75 3.75 0 0 0-1.236-1.129q-.753-.43-1.774-.43-1.022 0-1.773.43a3.74 3.74 0 0 0-1.237 1.129 4.8 4.8 0 0 0-.725 1.558 7.5 7.5 0 0 0 0 3.574q.242.86.725 1.559.484.698 1.237 1.128.752.43 1.773.43m9.56-11.85h2.902v2.042l.054.054a5 5 0 0 1 1.827-1.801 4.8 4.8 0 0 1 2.499-.671q2.284 0 3.601 1.182t1.317 3.547v9.539h-3.063v-8.733q-.054-1.64-.699-2.365-.645-.752-2.015-.752-.78 0-1.398.296a2.8 2.8 0 0 0-1.048.779 3.5 3.5 0 0 0-.672 1.155 4.2 4.2 0 0 0-.241 1.424v8.196h-3.064zm23.976-5.294h3.063v2.902h-3.063zm-9.916 5.294h2.284v-1.156q0-1.317.322-2.123.323-.832.86-1.263a2.66 2.66 0 0 1 1.21-.591 6.5 6.5 0 0 1 1.451-.161q1.477 0 2.149.188v2.392a3.4 3.4 0 0 0-.645-.108 5 5 0 0 0-.779-.054q-.618 0-1.075.296-.43.295-.43 1.156v1.424h2.607v2.284h-2.607v11.608h-3.063v-11.608h-2.284zm9.916 0h3.063v13.892h-3.063zm19.23 13.167q0 3.144-1.773 4.675-1.746 1.559-5.052 1.559a11 11 0 0 1-2.123-.215 6.4 6.4 0 0 1-1.934-.726 4.7 4.7 0 0 1-1.452-1.343q-.591-.833-.698-2.042h3.063q.135.645.457 1.048.323.402.752.618.457.241.995.295a7.6 7.6 0 0 0 1.128.081q1.854 0 2.714-.914t.86-2.633v-2.123h-.054a4.63 4.63 0 0 1-1.773 1.8 4.65 4.65 0 0 1-2.392.645q-1.666 0-2.848-.564a5.8 5.8 0 0 1-1.935-1.585 6.9 6.9 0 0 1-1.102-2.338 11 11 0 0 1-.349-2.822q0-1.397.43-2.66a6.6 6.6 0 0 1 1.236-2.204 5.9 5.9 0 0 1 1.962-1.531q1.182-.564 2.66-.564 1.317 0 2.418.564 1.102.537 1.693 1.72h.054v-1.908h3.063zm-6.798-1.693q1.021 0 1.72-.403a3.4 3.4 0 0 0 1.155-1.102q.457-.699.645-1.558a7.5 7.5 0 0 0 .215-1.774q0-.886-.215-1.72a4.5 4.5 0 0 0-.672-1.478 3.04 3.04 0 0 0-1.155-1.021q-.699-.376-1.693-.376-1.021 0-1.72.43a3.4 3.4 0 0 0-1.128 1.129 4.6 4.6 0 0 0-.618 1.558 8 8 0 0 0-.189 1.72q0 .86.215 1.693.216.806.645 1.451.457.645 1.129 1.048.699.403 1.666.403"/><rect width="645" height="645" x="661" y="35" fill="#f2f2f2" rx="40"/><g filter="url(#a)"><rect width="311.033" height="293.646" x="828" y="210.984" fill="#fff" rx="27.697"/><path fill="#000" d="M865.403 247.421a.62.62 0 0 1-.618.618h-4.946a.616.616 0 0 1-.619-.618.62.62 0 0 1 .619-.619h4.946a.62.62 0 0 1 .618.619m-.618 1.854h-4.946a.62.62 0 0 0-.437.182.617.617 0 0 0 .437 1.055h4.946a.618.618 0 1 0 0-1.237m3.709-6.8v12.365a1.235 1.235 0 0 1-1.236 1.236h-12.365a1.24 1.24 0 0 1-1.237-1.236v-12.365c0-.328.131-.643.362-.875.232-.231.547-.362.875-.362h12.365a1.24 1.24 0 0 1 1.236 1.237m-13.601 12.365h1.854v-12.365h-1.854zm12.365 0v-12.365h-9.274v12.365zM887.707 246.948a4 4 0 0 0-.349-.902 2.5 2.5 0 0 0-.569-.712 2.4 2.4 0 0 0-.823-.459 3 3 0 0 0-1.077-.174q-.901 0-1.567.364-.649.364-1.06.981a4.4 4.4 0 0 0-.617 1.377 6.6 6.6 0 0 0-.19 1.583q0 .807.19 1.583.206.776.617 1.392.412.602 1.06.966.666.364 1.567.364.665 0 1.171-.222.507-.237.871-.633a3.1 3.1 0 0 0 .57-.949 4.5 4.5 0 0 0 .269-1.156h1.931a5.2 5.2 0 0 1-.443 1.852 4.5 4.5 0 0 1-.998 1.456 4.5 4.5 0 0 1-1.487.934 5.2 5.2 0 0 1-1.884.332q-1.266 0-2.279-.459a5.1 5.1 0 0 1-1.693-1.282 5.8 5.8 0 0 1-1.077-1.883 7.1 7.1 0 0 1-.364-2.295q0-1.203.364-2.279a5.8 5.8 0 0 1 1.077-1.884 5.1 5.1 0 0 1 1.693-1.282q1.013-.474 2.279-.474.95 0 1.789.269.839.254 1.472.759.648.491 1.044 1.203t.491 1.63zm10.393 5.888q0 .333.079.475.094.142.348.142h.19q.11 0 .253-.031v1.25a2 2 0 0 1-.253.063 3 3 0 0 1-.301.08 3.4 3.4 0 0 1-.585.063q-.555 0-.918-.222-.364-.221-.475-.775a3.2 3.2 0 0 1-1.329.759 5.1 5.1 0 0 1-1.504.238q-.554 0-1.06-.158a2.9 2.9 0 0 1-.903-.428 2.3 2.3 0 0 1-.617-.744 2.4 2.4 0 0 1-.221-1.06q0-.76.269-1.235.285-.474.728-.743.459-.27 1.013-.38.569-.127 1.139-.19.49-.096.934-.127.443-.047.775-.142a1.2 1.2 0 0 0 .539-.285q.205-.206.205-.602 0-.348-.174-.569a.97.97 0 0 0-.411-.333 1.5 1.5 0 0 0-.538-.158 3.6 3.6 0 0 0-.57-.047q-.76 0-1.25.316-.492.317-.554.981h-1.805q.048-.79.38-1.313t.839-.839a3.6 3.6 0 0 1 1.171-.443 7 7 0 0 1 1.33-.127q.601 0 1.187.127.585.126 1.044.411.475.285.76.744.285.444.285 1.092zm-1.804-2.279q-.412.269-1.013.332-.601.048-1.203.159-.285.047-.554.142-.27.08-.475.238a1 1 0 0 0-.332.395 1.4 1.4 0 0 0-.111.586q0 .3.174.506t.411.333q.254.11.539.158.3.048.538.047.3 0 .649-.079.348-.079.649-.269.316-.19.522-.475.206-.3.206-.728zm3.793-4.083h1.709v1.108h.032q.38-.713 1.06-1.013a3.45 3.45 0 0 1 1.472-.317q.966 0 1.678.348.727.333 1.203.934.475.585.712 1.377.237.791.237 1.694 0 .822-.221 1.598a4.1 4.1 0 0 1-.649 1.377q-.428.585-1.092.95-.666.348-1.567.348a4 4 0 0 1-.792-.079 3.307 3.307 0 0 1-1.44-.618 2.4 2.4 0 0 1-.506-.585h-.032v4.083h-1.804zm6.299 4.099a4 4 0 0 0-.143-1.076 2.8 2.8 0 0 0-.427-.918 2.1 2.1 0 0 0-.712-.649 1.9 1.9 0 0 0-.981-.253q-1.14 0-1.726.791-.569.79-.569 2.105 0 .617.142 1.155.159.522.459.902t.712.602q.427.222.982.221.616 0 1.044-.253a2.2 2.2 0 0 0 .697-.649q.285-.411.395-.918.127-.522.127-1.06m2.506-4.099h1.361v-2.454h1.804v2.454h1.63v1.345h-1.63v4.368q0 .285.016.491.032.205.111.348a.63.63 0 0 0 .269.222q.174.063.475.063h.38q.19-.017.379-.063v1.392l-.585.064a5 5 0 0 1-.586.031q-.713 0-1.155-.126a1.7 1.7 0 0 1-.681-.396 1.5 1.5 0 0 1-.332-.665 5.4 5.4 0 0 1-.095-.902v-4.827h-1.361zm13.279 8.182H920.4v-1.139h-.031a2.5 2.5 0 0 1-.998.997 2.7 2.7 0 0 1-1.329.364q-1.614 0-2.342-.792-.713-.807-.713-2.421v-5.191h1.805v5.017q0 1.076.411 1.519.412.444 1.156.443.569 0 .949-.174t.617-.459q.238-.3.333-.712.111-.411.111-.886v-4.748h1.804zm1.903-8.182h1.693v1.582h.032a1.9 1.9 0 0 1 .3-.649q.238-.317.554-.569.333-.27.728-.428.396-.158.808-.158a3.6 3.6 0 0 1 .68.048v1.741a4 4 0 0 0-.396-.048 2.3 2.3 0 0 0-.379-.032q-.46 0-.871.19a1.9 1.9 0 0 0-.696.538 2.6 2.6 0 0 0-.475.871 3.8 3.8 0 0 0-.174 1.203v3.893h-1.804zm10.904 3.371a2.7 2.7 0 0 0-.19-.823 1.9 1.9 0 0 0-.411-.681q-.253-.3-.633-.475a1.76 1.76 0 0 0-.823-.189 2.1 2.1 0 0 0-.871.174 1.9 1.9 0 0 0-.665.459q-.269.284-.443.68a2.5 2.5 0 0 0-.174.855zm-4.21 1.187q0 .474.127.918.143.443.411.775.27.333.681.538.411.19.981.19.792 0 1.266-.332.49-.348.728-1.029h1.71a3.4 3.4 0 0 1-.491 1.187 3.6 3.6 0 0 1-.839.887 3.6 3.6 0 0 1-1.108.522q-.601.19-1.266.19-.966 0-1.709-.317a3.6 3.6 0 0 1-1.266-.886 3.9 3.9 0 0 1-.776-1.361 5.7 5.7 0 0 1-.253-1.741q0-.87.269-1.646a4.3 4.3 0 0 1 .791-1.377 3.8 3.8 0 0 1 1.251-.95q.728-.348 1.646-.348.965 0 1.725.412.775.395 1.282 1.06.506.665.728 1.535.237.855.126 1.773zm11.839-7.676h1.804v1.709h-1.804zm0 3.118h1.804v8.182h-1.804zm3.77 0h1.709v1.203l.032.031a2.95 2.95 0 0 1 1.076-1.06 2.8 2.8 0 0 1 1.472-.396q1.346 0 2.121.696.775.697.775 2.09v5.618h-1.804v-5.144q-.031-.964-.412-1.392-.379-.444-1.187-.443-.459 0-.823.174a1.66 1.66 0 0 0-.617.459q-.254.284-.396.68a2.5 2.5 0 0 0-.142.839v4.827h-1.804zm8.281 0h1.345v-.681q0-.776.19-1.25.19-.49.506-.744.317-.27.713-.348.411-.095.854-.095.871 0 1.267.111v1.408a2 2 0 0 0-.38-.063 3 3 0 0 0-.459-.032q-.365 0-.633.174-.254.174-.254.681v.839h1.536v1.345h-1.536v6.837h-1.804v-6.837h-1.345zm9.55 8.404q-.98 0-1.757-.317a3.9 3.9 0 0 1-1.297-.902 4 4 0 0 1-.808-1.361 5.4 5.4 0 0 1-.269-1.741q0-.934.269-1.725.285-.791.808-1.361.537-.57 1.297-.887.776-.332 1.757-.332t1.741.332q.776.317 1.298.887.539.57.807 1.361.285.791.285 1.725 0 .95-.285 1.741a3.71 3.71 0 0 1-2.105 2.263q-.76.317-1.741.317m0-1.425q.601 0 1.045-.253t.728-.665.411-.918q.143-.522.143-1.06 0-.522-.143-1.045a2.6 2.6 0 0 0-.411-.918 2.2 2.2 0 0 0-.728-.664q-.444-.253-1.045-.253-.602 0-1.044.253a2.2 2.2 0 0 0-.728.664q-.285.396-.428.918a4.45 4.45 0 0 0 0 2.105q.143.507.428.918t.728.665q.442.253 1.044.253m5.631-6.979h1.694v1.582h.031q.08-.332.301-.649a3.1 3.1 0 0 1 1.282-.997q.396-.158.807-.158.317 0 .428.016l.253.032v1.741a4 4 0 0 0-.396-.048 2.3 2.3 0 0 0-.38-.032q-.459 0-.87.19a1.9 1.9 0 0 0-.697.538q-.3.35-.474.871a3.8 3.8 0 0 0-.175 1.203v3.893h-1.804zm5.564 0h1.71v1.139h.047q.206-.3.443-.554.238-.253.523-.427.3-.174.68-.269.38-.111.871-.111.744 0 1.377.332.648.333.918 1.029a3.65 3.65 0 0 1 1.06-.997q.601-.364 1.504-.364 1.297 0 2.01.633.728.633.728 2.121v5.65h-1.805v-4.78q0-.49-.031-.886a1.7 1.7 0 0 0-.19-.696.98.98 0 0 0-.443-.459q-.301-.159-.823-.158-.918 0-1.33.569-.411.57-.411 1.615v4.795h-1.805v-5.254q0-.855-.316-1.282-.301-.444-1.124-.443-.348 0-.68.142a1.8 1.8 0 0 0-.57.411 2.3 2.3 0 0 0-.396.665 2.7 2.7 0 0 0-.142.902v4.859h-1.805zm20.625 6.362q0 .333.079.475.095.142.348.142h.19q.11 0 .253-.031v1.25a2 2 0 0 1-.253.063 3 3 0 0 1-.301.08 3.4 3.4 0 0 1-.585.063q-.553 0-.918-.222-.364-.221-.475-.775a3.2 3.2 0 0 1-1.329.759 5.1 5.1 0 0 1-1.504.238q-.554 0-1.06-.158a2.9 2.9 0 0 1-.903-.428 2.3 2.3 0 0 1-.617-.744 2.4 2.4 0 0 1-.221-1.06q0-.76.269-1.235.285-.474.728-.743.458-.27 1.013-.38.57-.127 1.139-.19.491-.096.934-.127a4.6 4.6 0 0 0 .776-.142q.348-.096.538-.285.205-.206.205-.602 0-.348-.174-.569a.97.97 0 0 0-.411-.333 1.5 1.5 0 0 0-.538-.158 3.6 3.6 0 0 0-.57-.047q-.76 0-1.25.316-.491.317-.554.981h-1.805q.048-.79.38-1.313t.839-.839a3.6 3.6 0 0 1 1.171-.443 7 7 0 0 1 1.33-.127q.601 0 1.187.127.585.126 1.044.411.475.285.76.744.285.444.285 1.092zm-1.804-2.279q-.412.269-1.013.332-.601.048-1.203.159-.285.047-.554.142a1.4 1.4 0 0 0-.475.238 1 1 0 0 0-.332.395 1.4 1.4 0 0 0-.111.586q0 .3.174.506a1.4 1.4 0 0 0 .412.333q.253.11.538.158.3.048.538.047.3 0 .649-.079.348-.079.649-.269.317-.19.522-.475.206-.3.206-.728zm2.922-4.083h1.361v-2.454h1.801v2.454h1.63v1.345h-1.63v4.368c0 .19.01.354.02.491.02.137.06.253.11.348a.6.6 0 0 0 .27.222c.12.042.27.063.47.063h.38c.13-.011.26-.032.38-.063v1.392l-.58.064c-.19.021-.39.031-.59.031q-.707 0-1.153-.126a1.7 1.7 0 0 1-.68-.396 1.5 1.5 0 0 1-.333-.665 5.6 5.6 0 0 1-.095-.902v-4.827h-1.361zm6.142-3.118h1.8v1.709h-1.8zm0 3.118h1.8v8.182h-1.8zm7.52 8.404c-.65 0-1.24-.106-1.76-.317-.5-.221-.94-.522-1.29-.902a4 4 0 0 1-.81-1.361 5.4 5.4 0 0 1-.27-1.741q0-.934.27-1.725.285-.791.81-1.361c.35-.38.79-.676 1.29-.887.52-.221 1.11-.332 1.76-.332s1.24.111 1.74.332c.52.211.95.507 1.3.887q.54.57.81 1.361c.19.527.28 1.103.28 1.725 0 .633-.09 1.213-.28 1.741q-.27.791-.81 1.361c-.35.38-.78.681-1.3.902-.5.211-1.09.317-1.74.317m0-1.425q.6 0 1.05-.253.435-.253.72-.665c.19-.274.33-.58.41-.918q.15-.522.15-1.06 0-.522-.15-1.045a2.5 2.5 0 0 0-.41-.918 2.2 2.2 0 0 0-.72-.664q-.45-.253-1.05-.253c-.4 0-.75.084-1.04.253-.3.169-.54.39-.73.664-.19.264-.33.57-.43.918-.08.349-.13.697-.13 1.045 0 .359.05.712.13 1.06.1.338.24.644.43.918.19.275.43.496.73.665.29.169.64.253 1.04.253m5.63-6.979h1.71v1.203l.03.031q.42-.68 1.08-1.06.66-.396 1.47-.396c.9 0 1.6.232 2.12.696q.78.697.78 2.09v5.618h-1.81v-5.144c-.02-.643-.16-1.107-.41-1.392-.25-.296-.65-.443-1.19-.443-.3 0-.58.058-.82.174-.24.105-.45.258-.62.459q-.255.284-.39.68c-.1.264-.14.544-.14.839v4.827h-1.81z"/><path fill="#575757" d="M859.212 285.316q-.222-1.053-.983-1.579-.748-.526-1.787-.526-.886 0-1.523.332a3.05 3.05 0 0 0-1.039.901 3.8 3.8 0 0 0-.595 1.274q-.194.72-.194 1.495 0 .846.194 1.607.193.748.595 1.315.416.555 1.053.887.636.332 1.523.332.651 0 1.149-.208a2.65 2.65 0 0 0 1.455-1.509q.207-.527.249-1.136h1.315q-.193 1.87-1.287 2.908-1.095 1.04-2.992 1.039-1.149 0-2.008-.388a4 4 0 0 1-1.426-1.094 4.75 4.75 0 0 1-.859-1.634 7.2 7.2 0 0 1-.277-2.022q0-1.08.305-2.022a4.9 4.9 0 0 1 .886-1.661 4.2 4.2 0 0 1 1.468-1.108q.886-.416 2.022-.416.775 0 1.468.208.692.207 1.233.609.54.402.9 1.011.36.596.471 1.385zm3.707 3.338q0 .65.166 1.163.18.498.485.845.304.332.706.512a2.17 2.17 0 0 0 1.731 0q.416-.18.72-.512a2.4 2.4 0 0 0 .471-.845q.18-.512.18-1.163 0-.65-.18-1.15a2.4 2.4 0 0 0-.471-.858 2 2 0 0 0-.72-.527 2.173 2.173 0 0 0-1.731 0q-.402.18-.706.527-.305.346-.485.858a3.6 3.6 0 0 0-.166 1.15m-1.246 0q0-.79.221-1.468.222-.693.665-1.191.443-.513 1.094-.804.65-.29 1.496-.29.858 0 1.495.29.651.291 1.094.804.444.498.665 1.191.222.678.222 1.468a4.7 4.7 0 0 1-.222 1.468 3.4 3.4 0 0 1-.665 1.191q-.443.498-1.094.789-.637.277-1.495.277-.846 0-1.496-.277a3.2 3.2 0 0 1-1.094-.789 3.4 3.4 0 0 1-.665-1.191 4.7 4.7 0 0 1-.221-1.468m8.34-3.587h1.107v1.135h.028q.734-1.3 2.327-1.301.706 0 1.177.193.471.195.762.541.29.345.401.831.125.47.125 1.052v4.709h-1.177v-4.847q0-.665-.388-1.053t-1.066-.388q-.54 0-.942.166a1.76 1.76 0 0 0-.651.471 2.1 2.1 0 0 0-.402.72 3 3 0 0 0-.124.887v4.044h-1.177zm7.695 0h1.108v1.135h.027q.734-1.3 2.327-1.301.706 0 1.177.193.471.195.762.541.29.345.401.831.125.47.125 1.052v4.709h-1.177v-4.847q0-.665-.388-1.053t-1.066-.388q-.54 0-.942.166a1.8 1.8 0 0 0-.651.471 2.1 2.1 0 0 0-.401.72 3 3 0 0 0-.125.887v4.044h-1.177zm12.667 2.894a2.3 2.3 0 0 0-.194-.789 1.8 1.8 0 0 0-.43-.637 1.8 1.8 0 0 0-.637-.43 1.9 1.9 0 0 0-.803-.166q-.456 0-.831.166-.36.153-.623.43a2 2 0 0 0-.415.651q-.153.36-.18.775zm1.135 1.994q-.236 1.205-1.038 1.815-.804.609-2.022.609-.859 0-1.496-.277a2.95 2.95 0 0 1-1.052-.776 3.35 3.35 0 0 1-.651-1.191 6 6 0 0 1-.236-1.509q0-.817.249-1.496.25-.678.693-1.177.457-.499 1.066-.775a3.3 3.3 0 0 1 1.357-.277q.956 0 1.579.401.637.388 1.011.997.388.61.526 1.33.152.72.125 1.371h-5.359q-.015.471.11.9.125.415.402.748.277.318.706.512t1.011.194q.748 0 1.219-.346.484-.346.637-1.053zm6.192-2.589q-.138-.68-.582-1.053-.442-.374-1.191-.374-.636 0-1.066.236a1.95 1.95 0 0 0-.692.623 2.7 2.7 0 0 0-.36.9 4.8 4.8 0 0 0-.111 1.039q0 .498.111.969.124.471.374.845.25.36.65.582.402.22.956.221.873 0 1.357-.457.5-.457.61-1.288h1.204q-.193 1.33-.997 2.05-.789.72-2.16.72-.818 0-1.454-.263a2.9 2.9 0 0 1-1.053-.748 3.4 3.4 0 0 1-.637-1.149 5 5 0 0 1-.208-1.482q0-.803.208-1.496.208-.706.623-1.219.43-.526 1.067-.817.636-.304 1.482-.304.609 0 1.135.152.54.138.942.443.416.305.678.776.264.456.333 1.094zm4.212-2.299h1.426v1.038h-1.426v4.446q0 .207.027.332a.38.38 0 0 0 .139.194.6.6 0 0 0 .263.097q.18.014.457.014h.54v1.039h-.9q-.457 0-.789-.056a1.25 1.25 0 0 1-.527-.235 1 1 0 0 1-.291-.471q-.096-.305-.097-.803v-4.557h-1.218v-1.038h1.218v-2.147h1.178zm3.592 3.587q0 .65.167 1.163.18.498.484.845.305.332.707.512a2.17 2.17 0 0 0 2.451-.512 2.4 2.4 0 0 0 .471-.845q.18-.512.18-1.163 0-.65-.18-1.15a2.4 2.4 0 0 0-.471-.858 2 2 0 0 0-.72-.527 2.168 2.168 0 0 0-1.731 0q-.402.18-.707.527a2.6 2.6 0 0 0-.484.858 3.6 3.6 0 0 0-.167 1.15m-1.246 0q0-.79.222-1.468.221-.693.664-1.191.443-.513 1.094-.804.651-.29 1.496-.29.858 0 1.496.29.65.291 1.094.804.443.498.664 1.191.222.678.222 1.468a4.7 4.7 0 0 1-.222 1.468 3.4 3.4 0 0 1-.664 1.191q-.443.498-1.094.789-.638.277-1.496.277-.845 0-1.496-.277a3.2 3.2 0 0 1-1.094-.789 3.4 3.4 0 0 1-.664-1.191 4.7 4.7 0 0 1-.222-1.468m8.298-3.587h1.108v1.509h.028q.429-.872 1.053-1.288t1.578-.387v1.246q-.706 0-1.205.194-.498.193-.803.568a2.34 2.34 0 0 0-.443.914 4.8 4.8 0 0 0-.138 1.218v3.186h-1.178z"/><rect width="152.336" height="30.665" x="851.674" y="306.635" stroke="#e3e3e3" stroke-width=".989" rx="5.441"/><g clip-path="url(#b)"><path fill="#13aa52" d="M870.96 329.882a7.914 7.914 0 1 0 0-15.827 7.914 7.914 0 0 0 0 15.827"/><path fill="#fff" d="M873.075 320.999c-.499-2.206-1.681-2.932-1.808-3.209a3.3 3.3 0 0 1-.28-.543l-.01-.026c-.015.195-.022.271-.207.468-.286.224-1.755 1.456-1.874 3.962-.112 2.338 1.688 3.731 1.932 3.908l.027.02v-.002c.002.012.078.557.131 1.134h.19q.067-.612.201-1.214l.016-.01a3 3 0 0 0 .311-.254l.011-.01a4.48 4.48 0 0 0 1.438-3.347 5 5 0 0 0-.078-.877m-2.11 3.241s0-3.279.109-3.278c.084 0 .193 4.229.193 4.229-.15-.018-.302-.696-.302-.951"/></g><path fill="#000" fill-opacity=".88" d="M887.897 317.079h1.8l3.116 8.309 3.13-8.309h1.8v9.888h-1.246v-8.226h-.028l-3.088 8.226h-1.122l-3.088-8.226h-.028v8.226h-1.246zm12.701 6.315q0 .651.166 1.163.18.498.484.845.305.332.707.512a2.17 2.17 0 0 0 2.451-.512 2.4 2.4 0 0 0 .471-.845q.18-.512.18-1.163 0-.65-.18-1.15a2.4 2.4 0 0 0-.471-.858 2 2 0 0 0-.72-.526 2.1 2.1 0 0 0-.859-.181q-.457 0-.872.181-.402.18-.707.526a2.6 2.6 0 0 0-.484.858 3.6 3.6 0 0 0-.166 1.15m-1.247 0q0-.79.222-1.468.221-.693.664-1.191a3.1 3.1 0 0 1 1.094-.803q.651-.291 1.496-.291.859 0 1.496.291.65.29 1.094.803.443.498.665 1.191.22.679.221 1.468 0 .789-.221 1.468-.222.678-.665 1.191-.443.498-1.094.789-.637.277-1.496.277-.845 0-1.496-.277a3.2 3.2 0 0 1-1.094-.789 3.4 3.4 0 0 1-.664-1.191 4.7 4.7 0 0 1-.222-1.468m8.34-3.587h1.108v1.136h.028q.734-1.302 2.326-1.302.706 0 1.177.194t.762.54.402.831q.124.47.124 1.052v4.709h-1.177v-4.847q0-.664-.388-1.053-.388-.387-1.066-.388-.54 0-.942.167-.387.165-.651.471a2.1 2.1 0 0 0-.401.72 3 3 0 0 0-.125.886v4.044h-1.177zm13.872 6.55q0 1.76-.803 2.632-.804.872-2.521.872-.498 0-1.025-.111a3.2 3.2 0 0 1-.941-.36 2.2 2.2 0 0 1-.693-.651q-.276-.4-.304-.983h1.177a.9.9 0 0 0 .194.54q.193.222.457.36.276.139.595.194.318.069.609.069.582 0 .984-.207.401-.195.664-.554.264-.347.374-.845.125-.498.125-1.094v-.471h-.028a2 2 0 0 1-.928.983q-.61.305-1.301.305-.804 0-1.399-.291a3 3 0 0 1-.997-.775 3.5 3.5 0 0 1-.61-1.15 5 5 0 0 1-.193-1.398q0-.638.166-1.302.166-.68.554-1.219.388-.553 1.024-.9.638-.36 1.565-.36.679 0 1.247.305.568.29.886.886h.014v-1.025h1.108zm-3.296-.346q.582 0 .983-.235a2 2 0 0 0 .665-.637q.249-.402.36-.9a4 4 0 0 0 .125-.998q0-.47-.111-.927a2.4 2.4 0 0 0-.36-.817 1.75 1.75 0 0 0-.624-.596q-.387-.222-.941-.222-.568 0-.97.222a1.9 1.9 0 0 0-.664.568q-.25.36-.374.831a4.3 4.3 0 0 0-.111.983q0 .485.097.969.096.486.332.887.236.388.623.637.388.235.97.235m5.93-2.617q0 .651.166 1.163.18.498.485.845.305.332.706.512a2.17 2.17 0 0 0 1.731 0q.416-.18.72-.512.306-.347.471-.845.18-.512.18-1.163 0-.65-.18-1.15a2.4 2.4 0 0 0-.471-.858 2 2 0 0 0-.72-.526 2.157 2.157 0 0 0-1.731 0q-.401.18-.706.526a2.6 2.6 0 0 0-.485.858 3.6 3.6 0 0 0-.166 1.15m-1.246 0q0-.79.221-1.468a3.3 3.3 0 0 1 .665-1.191q.443-.512 1.094-.803t1.496-.291q.859 0 1.495.291.651.29 1.094.803.444.498.665 1.191.222.679.222 1.468a4.7 4.7 0 0 1-.222 1.468 3.4 3.4 0 0 1-.665 1.191q-.443.498-1.094.789-.636.277-1.495.277-.845 0-1.496-.277a3.2 3.2 0 0 1-1.094-.789 3.4 3.4 0 0 1-.665-1.191 4.7 4.7 0 0 1-.221-1.468m13.704 2.465h2.188q.22 0 .554-.028.332-.041.706-.166.374-.138.734-.388.374-.249.665-.678a3.7 3.7 0 0 0 .47-1.067q.194-.65.194-1.565 0-.886-.18-1.578a2.86 2.86 0 0 0-.568-1.191 2.36 2.36 0 0 0-1.01-.748q-.624-.263-1.538-.263h-2.215zm-1.316-8.78h3.393q2.285 0 3.517 1.163 1.233 1.163 1.233 3.545 0 1.247-.277 2.216-.277.955-.859 1.62a3.75 3.75 0 0 1-1.481.998q-.9.346-2.133.346h-3.393zm11.066 4.251h2.632q1.122 0 1.606-.387.5-.402.499-1.191 0-.526-.166-.831a1.2 1.2 0 0 0-.458-.471 1.7 1.7 0 0 0-.678-.208 5.5 5.5 0 0 0-.803-.055h-2.632zm-1.315-4.251h3.587q.318 0 .678.014.374 0 .734.041.36.028.665.097a1.7 1.7 0 0 1 .54.208q.485.291.817.803.346.513.346 1.26 0 .79-.387 1.371-.375.568-1.081.845v.028q.915.193 1.399.831.485.636.485 1.551 0 .54-.194 1.052a2.6 2.6 0 0 1-.582.914 2.9 2.9 0 0 1-.941.637q-.555.236-1.288.236h-4.778zm1.315 8.78h3.296q.872 0 1.358-.471.498-.471.498-1.302 0-.485-.18-.803a1.33 1.33 0 0 0-.485-.499 1.8 1.8 0 0 0-.678-.263 4 4 0 0 0-.803-.083h-3.006zM987.031 325.333l4.665-5.973a.1.1 0 0 0 .012-.111.1.1 0 0 0-.039-.044.1.1 0 0 0-.056-.016h-1.024a.21.21 0 0 0-.167.081l-3.724 4.77-3.724-4.77a.21.21 0 0 0-.167-.081h-1.024a.106.106 0 0 0-.084.171l4.665 5.973a.43.43 0 0 0 .334.163.42.42 0 0 0 .333-.163"/><path fill="#575757" d="M852.246 366.85h1.399l5.207 8.019h.028v-8.019h1.246v9.888h-1.44l-5.166-7.935h-.028v7.935h-1.246zm16.157 9.861q-.305.18-.845.18-.456 0-.734-.25-.263-.263-.263-.844a2.9 2.9 0 0 1-1.135.844q-.638.25-1.385.25-.485 0-.928-.111a2.2 2.2 0 0 1-.748-.346 1.74 1.74 0 0 1-.512-.61q-.18-.387-.18-.928 0-.609.207-.997.208-.387.54-.623.347-.25.776-.374.442-.124.9-.208.485-.096.914-.138.444-.055.776-.139.332-.096.526-.263.194-.18.194-.512 0-.388-.153-.623a.94.94 0 0 0-.373-.36 1.5 1.5 0 0 0-.513-.166 4 4 0 0 0-.554-.042q-.747 0-1.246.291-.5.277-.54 1.066h-1.177q.027-.664.277-1.122.249-.456.664-.734a2.7 2.7 0 0 1 .942-.415q.54-.125 1.149-.125.486 0 .956.07.485.07.872.29.389.208.624.596.235.387.235 1.011v3.684q0 .415.042.609.055.194.332.194.153 0 .36-.069zm-1.911-3.67q-.222.166-.582.249-.36.07-.761.125-.388.04-.79.11a2.8 2.8 0 0 0-.72.194 1.34 1.34 0 0 0-.526.402q-.194.25-.194.692 0 .29.111.499.124.194.304.318.194.125.444.18.249.056.526.056.582 0 .997-.153.415-.165.679-.401a1.7 1.7 0 0 0 .387-.526q.125-.291.125-.54zm3.007-3.462h1.107v1.052h.028q.804-1.219 2.313-1.219.665 0 1.205.277t.761.942q.36-.582.942-.9a2.7 2.7 0 0 1 1.302-.319q.54 0 .969.125.444.111.748.36.319.249.485.651.18.387.18.942v5.248h-1.177v-4.694q0-.333-.056-.624a1.2 1.2 0 0 0-.207-.498 1 1 0 0 0-.43-.346q-.263-.125-.692-.125-.873 0-1.371.499-.5.498-.499 1.329v4.459h-1.177v-4.694q0-.347-.069-.637a1.2 1.2 0 0 0-.208-.499.9.9 0 0 0-.415-.332q-.249-.125-.651-.125-.513 0-.886.208a2.1 2.1 0 0 0-.596.498 2.2 2.2 0 0 0-.332.61 1.7 1.7 0 0 0-.097.512v4.459h-1.177zm16.778 2.894a2.3 2.3 0 0 0-.194-.789 1.8 1.8 0 0 0-.429-.638 1.8 1.8 0 0 0-.637-.429 1.9 1.9 0 0 0-.804-.166q-.456 0-.831.166-.36.153-.623.429a2.1 2.1 0 0 0-.415.651q-.153.36-.18.776zm1.135 1.994q-.236 1.205-1.038 1.814-.804.61-2.022.61-.859 0-1.496-.277a3 3 0 0 1-1.052-.776 3.4 3.4 0 0 1-.651-1.191 6 6 0 0 1-.236-1.509q0-.818.25-1.496.25-.679.692-1.177a3.3 3.3 0 0 1 1.066-.776 3.3 3.3 0 0 1 1.358-.277q.956 0 1.578.402.637.387 1.011.997.388.609.527 1.33.152.72.124 1.371h-5.359q-.014.47.111.9.125.415.401.748.277.318.706.512.43.194 1.011.194.748 0 1.219-.346.485-.346.637-1.053zm6.044-1.302q0 .651.167 1.164.18.498.484.844.305.333.707.513a2.17 2.17 0 0 0 2.451-.513q.305-.346.471-.844.18-.513.18-1.164t-.18-1.149a2.4 2.4 0 0 0-.471-.859 2 2 0 0 0-.72-.526 2.168 2.168 0 0 0-1.731 0q-.402.18-.707.526a2.6 2.6 0 0 0-.484.859 3.6 3.6 0 0 0-.167 1.149m-1.246 0a4.7 4.7 0 0 1 .222-1.468 3.3 3.3 0 0 1 .664-1.191q.444-.512 1.094-.803t1.496-.291q.858 0 1.496.291.65.291 1.094.803.443.5.664 1.191a4.7 4.7 0 0 1 .222 1.468 4.7 4.7 0 0 1-.222 1.468q-.221.68-.664 1.191-.443.5-1.094.79-.638.276-1.496.277-.845 0-1.496-.277a3.2 3.2 0 0 1-1.094-.79 3.4 3.4 0 0 1-.664-1.191 4.7 4.7 0 0 1-.222-1.468m8.825-2.548h-1.205v-1.038h1.205v-1.067q0-.872.498-1.315.513-.457 1.482-.457.166 0 .374.027.222.028.388.083v1.025a1.3 1.3 0 0 0-.333-.069 2 2 0 0 0-.332-.028q-.43 0-.665.166t-.235.637v.998h1.385v1.038h-1.385v6.121h-1.177zm10.278 7.077a7 7 0 0 1-.415.886q-.194.36-.443.582a1.3 1.3 0 0 1-.54.332q-.29.111-.679.111-.207 0-.415-.028a2 2 0 0 1-.402-.097v-1.08q.153.069.346.111.208.055.346.055.361 0 .596-.18.25-.166.374-.484l.485-1.205-2.839-7.118h1.329l2.091 5.858h.028l2.008-5.858h1.246zm4.972-4.529q0 .651.166 1.164.18.498.485.844.305.333.706.513a2.17 2.17 0 0 0 1.731 0q.415-.18.721-.513.305-.346.47-.844.18-.513.18-1.164t-.18-1.149a2.4 2.4 0 0 0-.47-.859 2 2 0 0 0-.721-.526 2.173 2.173 0 0 0-1.731 0q-.401.18-.706.526a2.6 2.6 0 0 0-.485.859q-.165.498-.166 1.149m-1.246 0q0-.789.221-1.468.222-.692.665-1.191.443-.512 1.094-.803t1.496-.291q.858 0 1.495.291.651.291 1.094.803.444.5.665 1.191a4.7 4.7 0 0 1 .222 1.468 4.7 4.7 0 0 1-.222 1.468q-.222.68-.665 1.191-.443.5-1.094.79-.637.276-1.495.277-.845 0-1.496-.277a3.2 3.2 0 0 1-1.094-.79 3.4 3.4 0 0 1-.665-1.191 4.7 4.7 0 0 1-.221-1.468m14.267 3.573h-1.108v-1.135h-.028q-.373.665-.955.983-.582.305-1.371.305-.706 0-1.177-.18a1.94 1.94 0 0 1-.762-.541 2.1 2.1 0 0 1-.416-.817 5 5 0 0 1-.11-1.066v-4.708h1.177v4.847q0 .665.388 1.052.388.388 1.066.388.54 0 .928-.166a1.75 1.75 0 0 0 .665-.471q.262-.305.387-.707.14-.415.139-.9v-4.043h1.177zm1.726-7.159h1.108v1.509h.028q.43-.873 1.052-1.288.624-.415 1.579-.388v1.247q-.706 0-1.205.194-.498.193-.803.567a2.35 2.35 0 0 0-.443.914 4.8 4.8 0 0 0-.138 1.219v3.185h-1.178zm9.228 4.902q.014.387.18.665.167.263.429.429.277.152.61.222.346.069.706.069.278 0 .582-.042.305-.04.554-.152.262-.11.429-.319a.9.9 0 0 0 .166-.554q0-.456-.346-.692a2.8 2.8 0 0 0-.872-.374 11 11 0 0 0-1.122-.263 7 7 0 0 1-1.136-.332 2.4 2.4 0 0 1-.858-.61q-.347-.387-.347-1.08 0-.54.236-.928.25-.387.623-.623.388-.249.859-.36.484-.125.955-.125.609 0 1.122.111.512.097.9.36.402.249.637.693.235.429.277 1.08h-1.177a1.16 1.16 0 0 0-.568-.942 1.6 1.6 0 0 0-.526-.194 2.3 2.3 0 0 0-.568-.069q-.263 0-.54.042a1.6 1.6 0 0 0-.485.152.9.9 0 0 0-.36.277.67.67 0 0 0-.138.443q0 .305.207.512.222.194.554.333.333.125.748.221.415.084.831.18.444.097.859.236.429.138.748.374.332.221.526.568.208.346.208.858 0 .651-.277 1.08a2.03 2.03 0 0 1-.707.693 2.8 2.8 0 0 1-.983.36q-.54.111-1.08.111-.596 0-1.136-.125a2.9 2.9 0 0 1-.955-.402 2.2 2.2 0 0 1-.665-.747q-.25-.471-.277-1.136zm7.063-1.316q0 .651.166 1.164.18.498.485.844.304.333.706.513a2.17 2.17 0 0 0 1.731 0q.416-.18.72-.513.305-.346.471-.844.18-.513.18-1.164t-.18-1.149a2.4 2.4 0 0 0-.471-.859 2 2 0 0 0-.72-.526 2.173 2.173 0 0 0-1.731 0q-.402.18-.706.526a2.6 2.6 0 0 0-.485.859 3.6 3.6 0 0 0-.166 1.149m-1.246 0a4.7 4.7 0 0 1 .221-1.468q.222-.692.665-1.191.443-.512 1.094-.803.65-.291 1.496-.291.859 0 1.495.291.651.291 1.094.803.444.5.665 1.191a4.7 4.7 0 0 1 .222 1.468 4.7 4.7 0 0 1-.222 1.468q-.222.68-.665 1.191-.443.5-1.094.79-.636.276-1.495.277-.846 0-1.496-.277a3.2 3.2 0 0 1-1.094-.79 3.4 3.4 0 0 1-.665-1.191 4.7 4.7 0 0 1-.221-1.468m14.267 3.573h-1.108v-1.135h-.028q-.374.665-.955.983-.582.305-1.371.305-.707 0-1.178-.18a1.95 1.95 0 0 1-.761-.541 2.1 2.1 0 0 1-.416-.817 4.8 4.8 0 0 1-.11-1.066v-4.708h1.177v4.847q0 .665.387 1.052.388.388 1.067.388.54 0 .928-.166.401-.166.664-.471.264-.305.388-.707.139-.415.139-.9v-4.043h1.177zm1.726-7.159h1.108v1.509h.028q.43-.873 1.052-1.288.624-.415 1.579-.388v1.247q-.706 0-1.205.194-.498.193-.803.567a2.35 2.35 0 0 0-.443.914 4.8 4.8 0 0 0-.139 1.219v3.185h-1.177zm9.271 2.298q-.138-.678-.582-1.052-.442-.374-1.191-.374-.637 0-1.066.235a1.96 1.96 0 0 0-.692.624 2.7 2.7 0 0 0-.361.9 4.8 4.8 0 0 0-.11 1.038q0 .5.11.97.125.47.374.845.25.36.651.581.402.222.956.222.872 0 1.357-.457.498-.457.609-1.288h1.205q-.193 1.329-.997 2.049-.789.721-2.16.721-.818 0-1.454-.264a2.9 2.9 0 0 1-1.053-.747 3.4 3.4 0 0 1-.637-1.15 5 5 0 0 1-.208-1.482q0-.803.208-1.495.208-.706.623-1.219a2.9 2.9 0 0 1 1.067-.817q.636-.305 1.481-.305.61 0 1.136.153.54.138.942.443.416.304.678.775.263.458.333 1.094zm7.549.596a2.3 2.3 0 0 0-.194-.789 1.8 1.8 0 0 0-.429-.638 1.8 1.8 0 0 0-.637-.429 1.9 1.9 0 0 0-.803-.166q-.457 0-.831.166a1.9 1.9 0 0 0-.624.429 2.1 2.1 0 0 0-.415.651q-.153.36-.18.776zm1.136 1.994q-.236 1.205-1.039 1.814-.804.61-2.022.61-.858 0-1.496-.277a3 3 0 0 1-1.052-.776 3.4 3.4 0 0 1-.651-1.191 6 6 0 0 1-.235-1.509q0-.818.249-1.496.25-.679.692-1.177.457-.499 1.067-.776a3.3 3.3 0 0 1 1.357-.277q.955 0 1.579.402.636.387 1.01.997.388.609.527 1.33.152.72.124 1.371h-5.359q-.014.47.111.9.125.415.401.748.277.318.707.512t1.011.194q.747 0 1.218-.346.485-.346.637-1.053z"/><path fill="#fff" d="M857.115 391.146h250.865c3.01 0 5.44 2.437 5.44 5.442v19.783a5.437 5.437 0 0 1-5.44 5.441H857.115a5.44 5.44 0 0 1-5.441-5.441v-19.783a5.44 5.44 0 0 1 5.441-5.442"/><path stroke="#d9d9d9" stroke-width=".989" d="M857.115 391.146h250.865c3.01 0 5.44 2.437 5.44 5.442v19.783a5.437 5.437 0 0 1-5.44 5.441H857.115a5.44 5.44 0 0 1-5.441-5.441v-19.783a5.44 5.44 0 0 1 5.441-5.442Z"/><path fill="#000" fill-opacity=".25" d="M869.847 404.485q-.111-1.066-.776-1.537-.65-.485-1.676-.485-.415 0-.817.083a2.3 2.3 0 0 0-.72.277 1.5 1.5 0 0 0-.498.526q-.18.319-.18.804 0 .457.263.747.276.277.72.457.457.18 1.025.305.567.111 1.149.249.596.139 1.163.333.569.18 1.011.498.457.319.72.803.277.486.277 1.219 0 .79-.36 1.357-.346.554-.9.914a3.9 3.9 0 0 1-1.246.499 5.852 5.852 0 0 1-2.936-.042 4 4 0 0 1-1.302-.623 3.2 3.2 0 0 1-.886-1.08q-.32-.665-.319-1.565h1.247q0 .624.235 1.08.25.443.637.734.402.29.928.43.526.138 1.08.138.444 0 .887-.083.457-.083.817-.277.36-.208.581-.554.222-.346.222-.886 0-.513-.277-.831a1.86 1.86 0 0 0-.72-.513 5 5 0 0 0-1.011-.332q-.569-.125-1.164-.249-.58-.139-1.149-.305a4.7 4.7 0 0 1-1.025-.457 2.4 2.4 0 0 1-.72-.734q-.263-.457-.263-1.136 0-.747.305-1.287.304-.555.803-.901.512-.36 1.149-.526.65-.18 1.33-.18.762 0 1.412.18.651.18 1.136.568.498.387.775.983.292.582.319 1.399zm3.925 3.421q0 .65.166 1.163.18.498.485.845.304.332.706.512a2.17 2.17 0 0 0 1.731 0q.416-.18.72-.512a2.4 2.4 0 0 0 .471-.845q.18-.513.18-1.163 0-.651-.18-1.15a2.4 2.4 0 0 0-.471-.859 2 2 0 0 0-.72-.526 2.172 2.172 0 0 0-1.731 0q-.402.18-.706.526a2.6 2.6 0 0 0-.485.859 3.6 3.6 0 0 0-.166 1.15m-1.247 0q0-.79.222-1.468.222-.693.665-1.191.443-.513 1.094-.804.65-.29 1.495-.29.859 0 1.496.29.651.291 1.094.804.444.498.665 1.191.222.678.221 1.468a4.7 4.7 0 0 1-.221 1.468 3.4 3.4 0 0 1-.665 1.191q-.443.498-1.094.789-.637.277-1.496.277-.844 0-1.495-.277a3.2 3.2 0 0 1-1.094-.789 3.4 3.4 0 0 1-.665-1.191 4.7 4.7 0 0 1-.222-1.468m14.268 3.573h-1.108v-1.136h-.028q-.374.665-.956.983-.58.305-1.371.305-.706 0-1.177-.18a1.9 1.9 0 0 1-.761-.54 2.1 2.1 0 0 1-.416-.817 4.8 4.8 0 0 1-.111-1.067v-4.708h1.178v4.847q0 .665.387 1.052.388.388 1.067.388.54 0 .928-.166.401-.166.664-.471.264-.305.388-.706.138-.415.138-.9v-4.044h1.178zm1.726-7.16h1.108v1.509h.028q.43-.872 1.052-1.288.624-.415 1.579-.387v1.246q-.707 0-1.205.194-.498.193-.803.568a2.34 2.34 0 0 0-.443.914q-.14.526-.139 1.218v3.186h-1.177zm9.271 2.299q-.139-.68-.582-1.053-.442-.374-1.191-.374-.637 0-1.066.236a1.97 1.97 0 0 0-.693.623 2.7 2.7 0 0 0-.36.9q-.11.498-.11 1.039 0 .498.11.969.125.471.374.845.249.36.651.581.402.222.956.222.872 0 1.357-.457.498-.457.609-1.288h1.205q-.194 1.33-.997 2.05-.789.72-2.16.72-.817 0-1.455-.263a2.9 2.9 0 0 1-1.052-.748 3.4 3.4 0 0 1-.637-1.15 5 5 0 0 1-.208-1.481q0-.803.208-1.496.207-.706.623-1.219a2.9 2.9 0 0 1 1.066-.817q.637-.304 1.482-.304.61 0 1.136.152.54.138.942.443.415.305.678.776.264.456.332 1.094zm7.549.595a2.3 2.3 0 0 0-.194-.789 1.8 1.8 0 0 0-.429-.637 1.8 1.8 0 0 0-.637-.43 1.9 1.9 0 0 0-.804-.166q-.456 0-.831.166-.36.153-.623.43a2 2 0 0 0-.415.651q-.153.36-.18.775zm1.135 1.994q-.236 1.205-1.038 1.815-.804.609-2.022.609-.859 0-1.496-.277a2.95 2.95 0 0 1-1.052-.776 3.4 3.4 0 0 1-.651-1.191 6 6 0 0 1-.236-1.509q0-.817.25-1.496t.692-1.177q.457-.499 1.066-.775a3.3 3.3 0 0 1 1.358-.277q.956 0 1.578.401.637.388 1.011.997.388.61.527 1.33.152.72.124 1.371h-5.359a2.9 2.9 0 0 0 .111.9q.125.415.401.748.277.318.706.512.43.194 1.011.194.748 0 1.219-.346.485-.346.637-1.053zm5.366-7.616h1.399l5.207 8.018h.027v-8.018h1.247v9.888h-1.441l-5.165-7.936h-.028v7.936h-1.246zm16.157 9.86q-.305.18-.845.18-.457 0-.734-.249-.263-.264-.263-.845a2.9 2.9 0 0 1-1.136.845 3.8 3.8 0 0 1-1.385.249q-.484 0-.927-.111a2.1 2.1 0 0 1-.748-.346 1.74 1.74 0 0 1-.513-.609 2.2 2.2 0 0 1-.18-.928q0-.61.208-.997.208-.388.54-.624.347-.249.776-.374.442-.125.9-.207a9 9 0 0 1 .914-.139q.443-.055.775-.138.333-.098.527-.263.194-.18.194-.513 0-.387-.153-.623a.93.93 0 0 0-.374-.36 1.4 1.4 0 0 0-.512-.166 4 4 0 0 0-.554-.042q-.748 0-1.246.291-.5.277-.541 1.066h-1.177q.028-.665.277-1.121a2 2 0 0 1 .665-.734q.415-.291.942-.416.54-.124 1.149-.124.485 0 .956.069.485.069.872.291.388.208.623.595.236.389.236 1.011v3.684q0 .416.041.609.056.194.333.194.151 0 .36-.069zm-1.911-3.67a1.5 1.5 0 0 1-.582.249q-.36.07-.762.125-.387.041-.789.111a2.8 2.8 0 0 0-.72.193 1.35 1.35 0 0 0-.526.402q-.194.249-.194.693 0 .29.111.498.124.194.304.319.194.125.443.18.25.055.527.055.581 0 .997-.152a2.3 2.3 0 0 0 .678-.402q.264-.25.388-.526.125-.291.125-.54zm3.006-3.462h1.108v1.052h.028q.802-1.218 2.313-1.218a2.6 2.6 0 0 1 1.205.277q.54.276.761.941.36-.582.942-.9a2.7 2.7 0 0 1 1.302-.318q.54 0 .969.124.444.111.748.36.318.249.485.651.18.389.18.942v5.249h-1.177v-4.695q0-.333-.056-.623a1.2 1.2 0 0 0-.208-.499 1 1 0 0 0-.429-.346q-.263-.125-.692-.125-.873 0-1.371.499-.5.498-.499 1.329v4.46h-1.177v-4.695q0-.346-.069-.637a1.2 1.2 0 0 0-.208-.499.93.93 0 0 0-.415-.332q-.25-.125-.651-.125-.512 0-.887.208-.36.208-.595.498a2.2 2.2 0 0 0-.333.61 1.8 1.8 0 0 0-.096.512v4.46h-1.178zm16.779 2.894a2.3 2.3 0 0 0-.194-.789 1.8 1.8 0 0 0-.43-.637 1.8 1.8 0 0 0-.637-.43 1.9 1.9 0 0 0-.803-.166q-.457 0-.831.166-.36.153-.623.43a2 2 0 0 0-.415.651q-.153.36-.18.775zm1.135 1.994q-.236 1.205-1.038 1.815-.804.609-2.022.609-.859 0-1.496-.277a3 3 0 0 1-1.053-.776 3.4 3.4 0 0 1-.65-1.191 6 6 0 0 1-.236-1.509q0-.817.249-1.496.25-.679.693-1.177.457-.499 1.066-.775a3.3 3.3 0 0 1 1.357-.277q.956 0 1.579.401.637.388 1.011.997.388.61.526 1.33.152.72.125 1.371h-5.359q-.015.471.11.9.125.415.402.748.277.318.706.512t1.011.194q.748 0 1.219-.346.484-.346.637-1.053z"/><g filter="url(#c)"><path fill="#203fdd" d="M851.18 454.218c0-3.1 2.512-5.613 5.612-5.613h110.484c3.1 0 5.612 2.513 5.612 5.613v23.549c0 3.1-2.512 5.612-5.612 5.612H856.792a5.61 5.61 0 0 1-5.612-5.612z" shape-rendering="crispEdges"/><path fill="#f0f0f0" d="M875.343 464.847a3 3 0 0 0-.255-.66 1.756 1.756 0 0 0-1.02-.858 2.2 2.2 0 0 0-.788-.128q-.661 0-1.148.267a2.2 2.2 0 0 0-.776.719 3.2 3.2 0 0 0-.452 1.008 4.8 4.8 0 0 0-.139 1.159q0 .591.139 1.159.15.569.452 1.02.301.441.776.707.487.267 1.148.267.486 0 .858-.162.37-.174.637-.464.267-.302.417-.695.152-.394.197-.847h1.415q-.047.742-.325 1.357a3.3 3.3 0 0 1-.73 1.066 3.3 3.3 0 0 1-1.09.684 3.8 3.8 0 0 1-1.379.243q-.928 0-1.669-.336a3.75 3.75 0 0 1-1.241-.939 4.3 4.3 0 0 1-.788-1.379 5.2 5.2 0 0 1-.266-1.681q0-.881.266-1.669.279-.789.788-1.379.51-.592 1.241-.939.741-.348 1.669-.348.695 0 1.31.197.614.186 1.078.556.474.36.765.881.29.522.359 1.194zm5.34 5.807q-.718 0-1.287-.231a2.9 2.9 0 0 1-.95-.661 2.9 2.9 0 0 1-.591-.997 3.9 3.9 0 0 1-.197-1.275q0-.684.197-1.263a2.9 2.9 0 0 1 .591-.997q.394-.418.95-.649a3.2 3.2 0 0 1 1.287-.244q.718 0 1.275.244.568.231.95.649.394.417.592.997.208.579.208 1.263 0 .696-.208 1.275a2.732 2.732 0 0 1-1.542 1.658 3.3 3.3 0 0 1-1.275.231m0-1.043q.441 0 .765-.185.324-.186.533-.487.209-.302.302-.672.104-.382.104-.777 0-.383-.104-.765a1.9 1.9 0 0 0-.302-.672 1.51 1.51 0 0 0-1.298-.673 1.51 1.51 0 0 0-1.298.673 2.1 2.1 0 0 0-.313.672 3.2 3.2 0 0 0 0 1.542q.104.37.313.672.209.301.533.487.324.185.765.185m4.124-5.112h1.252v.881l.023.024q.302-.5.788-.777.487-.29 1.078-.29.986 0 1.553.51.568.51.568 1.53v4.115h-1.321v-3.767q-.024-.706-.301-1.02-.279-.325-.87-.325-.336 0-.603.128a1.2 1.2 0 0 0-.452.336 1.5 1.5 0 0 0-.289.498q-.105.29-.105.615v3.535h-1.321zm6.656 0h1.252v.881l.023.024q.301-.5.788-.777.487-.29 1.078-.29.986 0 1.553.51.568.51.568 1.53v4.115h-1.321v-3.767q-.023-.706-.302-1.02-.278-.325-.869-.325-.336 0-.603.128a1.2 1.2 0 0 0-.452.336 1.5 1.5 0 0 0-.289.498q-.105.29-.105.615v3.535h-1.321zm10.771 2.469a2 2 0 0 0-.139-.602q-.105-.29-.302-.499a1.3 1.3 0 0 0-.463-.347 1.3 1.3 0 0 0-.603-.14q-.348 0-.638.128a1.4 1.4 0 0 0-.487.336 1.7 1.7 0 0 0-.324.498q-.116.29-.128.626zm-3.084.87q0 .348.093.672.105.325.301.568.198.243.499.394.301.14.719.139.579 0 .927-.243.359-.255.533-.754h1.252a2.5 2.5 0 0 1-.974 1.519q-.359.255-.811.382a3 3 0 0 1-.927.139 3.2 3.2 0 0 1-1.252-.231 2.65 2.65 0 0 1-.928-.649 2.9 2.9 0 0 1-.568-.997 4.2 4.2 0 0 1-.185-1.275q0-.637.197-1.206.208-.579.58-1.008.382-.441.915-.696.534-.255 1.206-.255.707 0 1.263.302.569.29.939.776.37.488.533 1.125.174.626.093 1.298zm9.455-1.333q-.081-.556-.452-.835-.36-.29-.916-.29-.255 0-.545.093a1.2 1.2 0 0 0-.533.325q-.243.231-.405.66-.163.418-.163 1.102 0 .37.081.741.093.372.279.661.197.29.498.475.301.174.73.174.58 0 .951-.359.382-.36.475-1.009h1.321q-.185 1.172-.892 1.797-.696.615-1.855.614-.706 0-1.252-.231a2.8 2.8 0 0 1-.904-.649 2.9 2.9 0 0 1-.568-.986 4 4 0 0 1-.185-1.228q0-.673.185-1.264t.557-1.02q.37-.441.915-.684.557-.255 1.299-.255.521 0 .985.139.476.128.834.394.372.267.603.673.232.405.278.962zm1.793-2.006h.997v-1.796h1.321v1.796h1.194v.986h-1.194v3.199q0 .209.012.359a.7.7 0 0 0 .081.255q.07.105.197.163.128.045.348.046h.278q.138-.012.278-.046v1.02l-.429.046a4 4 0 0 1-.429.023q-.522 0-.846-.093a1.24 1.24 0 0 1-.498-.289 1.1 1.1 0 0 1-.244-.487 4 4 0 0 1-.069-.661v-3.535h-.997zm8.825 3.234q0 .476.162.812t.452.556q.29.209.661.313.382.093.823.093.475 0 .811-.104.336-.116.545-.29.208-.174.301-.394.093-.232.093-.464 0-.476-.22-.695a1.16 1.16 0 0 0-.464-.325 9 9 0 0 0-1.032-.301q-.579-.151-1.437-.383a3.3 3.3 0 0 1-.893-.359 2.3 2.3 0 0 1-.556-.51 1.9 1.9 0 0 1-.301-.591 2.5 2.5 0 0 1-.081-.638q0-.626.255-1.078.266-.464.695-.765a2.9 2.9 0 0 1 .974-.44q.545-.151 1.101-.151.649 0 1.217.174.58.162 1.008.498.441.336.696.835.255.486.255 1.136h-1.449q-.058-.8-.545-1.125-.487-.336-1.24-.336a2.5 2.5 0 0 0-.522.058 1.5 1.5 0 0 0-.486.174 1.06 1.06 0 0 0-.371.325.9.9 0 0 0-.14.521q0 .441.267.696.278.243.719.371.046.01.359.104a65 65 0 0 1 1.484.394q.382.093.545.139.405.127.707.348t.498.51q.209.278.301.603.105.324.105.649 0 .695-.29 1.194a2.4 2.4 0 0 1-.742.799 3.2 3.2 0 0 1-1.055.453q-.591.15-1.205.15-.708 0-1.333-.174a3.1 3.1 0 0 1-1.09-.533 2.6 2.6 0 0 1-.742-.916q-.278-.567-.289-1.333zm9.127 2.921q-.719 0-1.287-.231a2.9 2.9 0 0 1-.95-.661 2.9 2.9 0 0 1-.591-.997 3.9 3.9 0 0 1-.197-1.275q0-.684.197-1.263a2.9 2.9 0 0 1 .591-.997q.394-.418.95-.649a3.2 3.2 0 0 1 1.287-.244q.719 0 1.275.244.568.231.95.649.394.417.592.997.208.579.208 1.263 0 .696-.208 1.275a2.732 2.732 0 0 1-1.542 1.658 3.3 3.3 0 0 1-1.275.231m0-1.043q.441 0 .765-.185.324-.186.533-.487.209-.302.302-.672.104-.382.104-.777 0-.383-.104-.765a1.9 1.9 0 0 0-.302-.672 1.51 1.51 0 0 0-1.298-.673 1.51 1.51 0 0 0-1.298.673 2.1 2.1 0 0 0-.313.672 3.2 3.2 0 0 0 0 1.542q.104.37.313.672.209.301.533.487.324.185.765.185m9.386.881h-1.298v-.834h-.023a1.85 1.85 0 0 1-.73.73 1.97 1.97 0 0 1-.974.266q-1.182 0-1.716-.579-.52-.59-.521-1.774v-3.802h1.321v3.675q0 .787.302 1.113.302.324.846.324.417 0 .695-.127.279-.127.452-.336.174-.22.244-.522.081-.301.081-.649v-3.478h1.321zm1.394-5.993h1.24v1.16h.023a1.4 1.4 0 0 1 .22-.476q.174-.231.406-.417.243-.197.533-.313t.592-.116q.231 0 .312.012l.186.023v1.275a4 4 0 0 0-.29-.035 2 2 0 0 0-.278-.023q-.336 0-.638.139a1.4 1.4 0 0 0-.51.394 1.9 1.9 0 0 0-.347.638 2.8 2.8 0 0 0-.128.881v2.851h-1.321zm7.916 2.006q-.08-.556-.452-.835-.359-.29-.915-.29-.255 0-.545.093a1.2 1.2 0 0 0-.533.325q-.244.231-.406.66-.162.418-.162 1.102 0 .37.081.741.092.372.278.661.197.29.498.475.302.174.731.174.58 0 .95-.359.383-.36.475-1.009h1.322q-.186 1.172-.893 1.797-.695.615-1.854.614a3.2 3.2 0 0 1-1.252-.231 2.8 2.8 0 0 1-.904-.649 2.9 2.9 0 0 1-.568-.986 3.9 3.9 0 0 1-.186-1.228q0-.673.186-1.264a2.8 2.8 0 0 1 .556-1.02 2.5 2.5 0 0 1 .916-.684q.557-.255 1.298-.255.522 0 .985.139.475.128.835.394.37.267.603.673.231.405.278.962zm6.511.463a2 2 0 0 0-.139-.602q-.105-.29-.302-.499a1.3 1.3 0 0 0-.463-.347 1.3 1.3 0 0 0-.603-.14 1.6 1.6 0 0 0-.638.128 1.4 1.4 0 0 0-.486.336q-.198.209-.325.498-.116.29-.127.626zm-3.083.87q0 .348.092.672.105.325.302.568t.498.394q.302.14.719.139.579 0 .927-.243.36-.255.533-.754h1.252a2.5 2.5 0 0 1-.359.87q-.255.382-.615.649-.359.255-.811.382a3 3 0 0 1-.927.139 3.2 3.2 0 0 1-1.252-.231 2.65 2.65 0 0 1-.927-.649 2.9 2.9 0 0 1-.568-.997 4.2 4.2 0 0 1-.186-1.275q0-.637.197-1.206.209-.579.58-1.008a2.8 2.8 0 0 1 .916-.696q.533-.255 1.205-.255.707 0 1.263.302.568.29.939.776.371.488.534 1.125.173.626.092 1.298z"/></g></g><path fill="#000" d="m982.623 492.34-1.189 1.189a1.12 1.12 0 0 1-.797.331 1.13 1.13 0 0 1-.797-.331l-5.304-5.303-1.802 4.703-.013.03a1.49 1.49 0 0 1-1.369.9h-.073a1.49 1.49 0 0 1-1.351-1.032l-4.901-15.007a1.5 1.5 0 0 1 1.074-1.92c.269-.064.55-.052.813.034l15.007 4.9a1.5 1.5 0 0 1 1.023 1.351 1.51 1.51 0 0 1-.891 1.443l-.031.012-4.702 1.806 5.303 5.303a1.125 1.125 0 0 1 0 1.591"/><defs><filter id="a" width="354.174" height="336.789" x="806.429" y="189.413" color-interpolation-filters="sRGB" filterUnits="userSpaceOnUse"><feFlood flood-opacity="0" result="BackgroundImageFix"/><feColorMatrix in="SourceAlpha" result="hardAlpha" values="0 0 0 0 0 0 0 0 0 0 0 0 0 0 0 0 0 0 127 0"/><feOffset/><feGaussianBlur stdDeviation="10.786"/><feComposite in2="hardAlpha" operator="out"/><feColorMatrix values="0 0 0 0 0.0121371 0 0 0 0 0.0316655 0 0 0 0 0.131197 0 0 0 0.12 0"/><feBlend in2="BackgroundImageFix" result="effect1_dropShadow_1085_2347"/><feBlend in="SourceGraphic" in2="effect1_dropShadow_1085_2347" result="shape"/></filter><filter id="c" width="121.711" height="36.176" x="851.18" y="448.605" color-interpolation-filters="sRGB" filterUnits="userSpaceOnUse"><feFlood flood-opacity="0" result="BackgroundImageFix"/><feColorMatrix in="SourceAlpha" result="hardAlpha" values="0 0 0 0 0 0 0 0 0 0 0 0 0 0 0 0 0 0 127 0"/><feOffset dy="1.403"/><feComposite in2="hardAlpha" operator="out"/><feColorMatrix values="0 0 0 0 0.0196078 0 0 0 0 0.568627 0 0 0 0 1 0 0 0 0.01 0"/><feBlend in2="BackgroundImageFix" result="effect1_dropShadow_1085_2347"/><feBlend in="SourceGraphic" in2="effect1_dropShadow_1085_2347" result="shape"/></filter><clipPath id="b"><path fill="#fff" d="M863.047 314.055h15.827v15.827h-15.827z"/></clipPath></defs></svg>