<svg xmlns="http://www.w3.org/2000/svg" width="354" height="218" fill="none" viewBox="0 0 354 218"><path fill="#f3f3f3" d="M0 24C0 10.745 10.745 0 24 0h306c13.255 0 24 10.745 24 24v170c0 13.255-10.745 24-24 24H24c-13.255 0-24-10.745-24-24z"/><g filter="url(#a)"><rect width="142" height="144" x="15" y="40" fill="#fff" rx="12" shape-rendering="crispEdges"/><rect width="141.143" height="143.143" x="15.428" y="40.428" stroke="#fff" stroke-width=".857" rx="11.572" shape-rendering="crispEdges"/><path fill="#000" d="M68.09 62.354q-1.02 0-1.741-.371a3.9 3.9 0 0 1-1.22-1l.906-.847q.43.523.94.79.524.267 1.186.267.778 0 1.172-.349.395-.348.395-.94 0-.477-.278-.755-.279-.279-.987-.418l-.72-.128q-1.185-.22-1.777-.778-.593-.558-.593-1.533 0-.535.198-.964.21-.441.569-.732.372-.301.894-.464a4 4 0 0 1 1.173-.163q.918 0 1.591.325.674.314 1.15.918l-.918.813a2.4 2.4 0 0 0-.766-.65q-.453-.244-1.127-.244-.696 0-1.08.278-.383.279-.383.813 0 .51.313.767.315.243.976.371l.72.151q1.22.232 1.777.79.57.558.569 1.533 0 .57-.197 1.034a2.2 2.2 0 0 1-.581.801 2.7 2.7 0 0 1-.918.511 4.1 4.1 0 0 1-1.242.174m6.756 0q-.65 0-1.162-.22a2.3 2.3 0 0 1-.859-.628 2.9 2.9 0 0 1-.534-.998 4.4 4.4 0 0 1-.186-1.313q0-.72.186-1.3.186-.592.534-1 .348-.416.86-.638.51-.22 1.16-.22.907 0 1.487.406.582.405.848 1.08l-1.045.488a1.26 1.26 0 0 0-.453-.662q-.314-.256-.836-.256-.697 0-1.057.442-.348.43-.348 1.126v1.08q0 .697.348 1.138.36.43 1.057.43.557 0 .882-.267a1.9 1.9 0 0 0 .535-.732l.964.511q-.303.744-.906 1.138-.604.396-1.475.395m3.586-8.733h1.266v3.554h.058q.197-.489.592-.813.406-.326 1.103-.326.93 0 1.44.616.523.605.523 1.73v3.833h-1.266v-3.682q0-1.405-1.138-1.405a1.8 1.8 0 0 0-.488.07q-.232.057-.418.186a1 1 0 0 0-.302.325.95.95 0 0 0-.104.453v4.053h-1.266zm9.106 8.733q-.65 0-1.162-.22a2.44 2.44 0 0 1-.87-.628 3 3 0 0 1-.558-.998 4.4 4.4 0 0 1-.186-1.313q0-.72.186-1.3.197-.592.557-1 .36-.416.871-.638.51-.22 1.162-.22.66 0 1.161.232.51.232.848.65.336.407.5.952.173.546.173 1.173v.477h-4.146v.197q0 .697.407 1.15.418.441 1.184.441.558 0 .941-.244.383-.243.65-.662l.744.732q-.337.557-.976.894-.639.325-1.486.325m0-5.33q-.325 0-.604.116a1.4 1.4 0 0 0-.465.325q-.185.21-.29.5t-.105.638v.081h2.81v-.116q0-.696-.36-1.115-.36-.43-.986-.43m4.084 5.19v-6.038h1.266v.999h.058q.092-.232.22-.442.14-.21.325-.36.198-.162.453-.244a1.9 1.9 0 0 1 .616-.093q.615 0 1.091.302.477.302.697.93h.035q.163-.512.627-.871.465-.36 1.197-.36.905 0 1.405.615.5.605.499 1.73v3.833h-1.266v-3.682q0-.697-.267-1.045-.266-.36-.848-.36-.243 0-.464.07-.22.057-.395.186a1 1 0 0 0-.267.325.95.95 0 0 0-.105.453v4.053h-1.266v-3.682q0-1.405-1.103-1.405-.233 0-.464.07a1.2 1.2 0 0 0-.395.186.95.95 0 0 0-.279.325.95.95 0 0 0-.105.453v4.053zm14.666 0q-.5 0-.767-.278a1.3 1.3 0 0 1-.325-.731h-.058q-.174.568-.639.859-.465.29-1.126.29-.941 0-1.452-.488-.5-.487-.499-1.312 0-.906.65-1.359.662-.453 1.928-.453h1.091v-.51q0-.558-.302-.86-.301-.302-.94-.302-.534 0-.871.232a2.1 2.1 0 0 0-.569.593l-.755-.686q.302-.51.848-.836.545-.337 1.428-.337 1.173 0 1.8.546t.627 1.568v3.031h.639v1.034zm-2.555-.824q.592 0 .975-.255.383-.267.383-.709v-.87h-1.068q-1.312 0-1.312.812v.21q0 .405.267.615.279.197.755.197"/><rect width="113.957" height="28.598" x="29.019" y="77.013" fill="#fff" rx="2.54"/><rect width="113.957" height="28.598" x="29.019" y="77.013" stroke="#d6d6d6" stroke-width=".726" rx="2.54"/><path fill="#000" d="M36.603 94.313v-6.606h1.019v6.606zm4.349.132q-.576 0-1.066-.283a2.14 2.14 0 0 1-.793-.812q-.292-.538-.292-1.293v-.141q0-.746.292-1.284a2.06 2.06 0 0 1 1.859-1.104q.453 0 .755.114a1.53 1.53 0 0 1 .811.65h.151v-2.585h.972v6.606h-.953v-.661h-.15q-.18.302-.548.547-.36.246-1.038.246m.274-.85q.632 0 1.038-.405.415-.406.415-1.161v-.085q0-.745-.406-1.151-.406-.405-1.047-.406-.623 0-1.038.406-.406.405-.406 1.151v.085q0 .755.406 1.16.414.406 1.038.406"/><rect width="22.71" height="17.71" x="113.367" y="82.457" fill="#e5f6ff" rx="2.903"/><path fill="#009fee" d="M118.125 93.813v-.668h.69v-3.731h-.69v-.668h2.207v.668h-.697v3.73h.697v.668zm4.965-2.802-.559-1.075h-.022v3.876h-.783v-5.066h.914l1.655 2.802.559 1.074h.022v-3.876h.784v5.067h-.915zm6.06-1.539v4.34h-.82v-4.34h-1.51v-.726h3.84v.726z"/><rect width="113.957" height="28.598" x="29.019" y="111.418" fill="#fff" rx="2.54"/><rect width="113.957" height="28.598" x="29.019" y="111.418" stroke="#d6d6d6" stroke-width=".726" rx="2.54"/><path fill="#000" d="M39.056 128.849q-1.208 0-1.915-.679-.708-.69-.708-1.982v-1.548q0-1.292.708-1.972.707-.688 1.915-.688 1.19 0 1.83.66.652.66.652 1.802v.057h-1.01v-.085q0-.67-.368-1.095-.358-.424-1.104-.424-.754 0-1.18.462-.423.453-.424 1.265v1.585q0 .802.425 1.264.424.463 1.18.463.744 0 1.103-.425.369-.434.368-1.095v-.16h1.01v.132q0 1.142-.651 1.802-.642.661-1.83.661m5.818 0q-.698 0-1.245-.283a2.15 2.15 0 0 1-.85-.831q-.31-.538-.31-1.273v-.142q0-.736.31-1.264.312-.538.85-.831a2.6 2.6 0 0 1 1.245-.292q.698 0 1.246.292.547.292.858.831.312.528.312 1.264v.142q0 .736-.312 1.273a2.14 2.14 0 0 1-.858.831q-.547.283-1.246.283m0-.868q.642 0 1.038-.406.406-.415.406-1.142v-.085q0-.726-.396-1.132-.397-.415-1.048-.415-.632 0-1.038.415-.396.406-.396 1.132v.085q0 .727.396 1.142.406.406 1.038.406m5.532.868q-.887 0-1.472-.396-.586-.397-.717-1.199l.906-.217q.075.387.254.614.18.226.444.32.273.095.585.095.462 0 .708-.18a.54.54 0 0 0 .254-.462.44.44 0 0 0-.236-.415q-.236-.133-.698-.217l-.32-.057a4 4 0 0 1-.86-.245 1.5 1.5 0 0 1-.613-.444q-.226-.282-.226-.726 0-.66.49-1.019.492-.368 1.303-.368.783 0 1.283.358.51.35.66.953l-.905.255q-.085-.425-.359-.594a1.2 1.2 0 0 0-.68-.18q-.395 0-.622.151a.45.45 0 0 0-.227.406q0 .283.218.415.226.132.603.198l.33.057q.502.085.916.236.416.151.651.434.245.283.245.755 0 .698-.519 1.085t-1.396.387m4.696-.132q-.425 0-.68-.255-.245-.255-.245-.679v-2.897h-1.283v-.821h1.283v-1.538h.972v1.538h1.387v.821h-1.387v2.727q0 .283.264.283h.972v.821z"/><rect width="31.71" height="17.71" x="104.367" y="116.861" fill="#e5f6ff" rx="2.903"/><path fill="#009fee" d="M109.343 128.217v-5.067h3.165v.726h-2.345v1.408h2.083v.726h-2.083v2.207zm4.502 0v-5.067h.821v4.341h2.061v.726zm5.796.087q-.493 0-.9-.167a1.95 1.95 0 0 1-.689-.501 2.4 2.4 0 0 1-.443-.82 3.8 3.8 0 0 1-.152-1.132q0-.639.152-1.125.16-.494.443-.821.29-.333.689-.5.406-.175.9-.175t.893.175q.407.167.69.5.29.327.443.821.159.486.159 1.125 0 .638-.159 1.132-.153.487-.443.82a1.9 1.9 0 0 1-.69.501 2.3 2.3 0 0 1-.893.167m0-.733q.291 0 .53-.102a1.1 1.1 0 0 0 .414-.29q.174-.196.269-.472.094-.276.094-.624v-.799q0-.348-.094-.624a1.3 1.3 0 0 0-.269-.464 1.06 1.06 0 0 0-.414-.298 1.3 1.3 0 0 0-.53-.102 1.4 1.4 0 0 0-.537.102 1.15 1.15 0 0 0-.413.298q-.168.188-.262.464a1.9 1.9 0 0 0-.094.624v.799q0 .348.094.624t.262.472q.174.189.413.29.24.102.537.102m6.58.646-.458-1.372h-1.894l-.443 1.372h-.835l1.728-5.067h1.031l1.727 5.067zm-1.387-4.312h-.036l-.733 2.236h1.495zm4.796-.029v4.341h-.82v-4.341h-1.51v-.726h3.84v.726z"/><rect width="113.957" height="28.598" x="29.019" y="145.822" fill="#fff" rx="2.54"/><rect width="113.957" height="28.598" x="29.019" y="145.822" stroke="#d6d6d6" stroke-width=".726" rx="2.54"/><path fill="#000" d="M36.631 165.008v-6.539h.953v.67h.151q.18-.31.538-.557.367-.245 1.047-.245a2.06 2.06 0 0 1 1.85 1.104q.302.528.302 1.283v.142q0 .754-.293 1.293a2.07 2.07 0 0 1-1.859 1.094q-.452 0-.764-.113a1.5 1.5 0 0 1-.5-.283 1.8 1.8 0 0 1-.302-.368h-.15v2.519zm2.406-2.604q.642 0 1.048-.406.405-.405.405-1.16v-.085q0-.745-.415-1.152-.405-.405-1.038-.405-.622 0-1.038.405-.405.406-.405 1.152v.085q0 .755.405 1.16.416.406 1.038.406m5.083.849q-.5 0-.897-.17a1.5 1.5 0 0 1-.622-.5 1.4 1.4 0 0 1-.227-.802q0-.482.227-.792.236-.321.632-.482.405-.16.915-.16h1.415v-.302q0-.406-.245-.651t-.755-.245q-.5 0-.764.235a1.13 1.13 0 0 0-.35.614l-.905-.293a2 2 0 0 1 .359-.679q.255-.311.67-.5t1-.189q.906 0 1.425.462.519.463.519 1.312v1.916q0 .282.264.283h.396v.811h-.727q-.33 0-.537-.17a.56.56 0 0 1-.208-.462v-.028h-.142q-.075.141-.226.33a1.25 1.25 0 0 1-.443.33q-.292.132-.774.132m.141-.802q.585 0 .944-.33.358-.34.358-.925v-.094h-1.358q-.387 0-.623.17-.236.16-.236.481t.245.509.67.189m4.28 2.557v-.849h2.594q.264 0 .264-.283v-1.434h-.15a1.3 1.3 0 0 1-.265.368 1.3 1.3 0 0 1-.462.283q-.292.113-.736.113-.529 0-.944-.236a1.66 1.66 0 0 1-.651-.67q-.236-.434-.236-1.028v-2.803h.972v2.727q0 .605.302.897.301.282.84.283.594 0 .953-.397.368-.396.368-1.151v-2.359h.972v5.605q0 .425-.255.68-.245.254-.68.254zm5.21-.547v-.878h4.51v.878zm7.824-1.208q-.576 0-1.067-.283a2.14 2.14 0 0 1-.792-.811q-.293-.538-.293-1.293v-.142q0-.745.293-1.283a2.06 2.06 0 0 1 1.859-1.104q.452 0 .755.113.31.113.51.293.197.17.301.358h.151v-2.585h.972v6.605h-.953v-.66h-.151q-.18.301-.547.547-.36.245-1.038.245m.273-.849q.633 0 1.038-.406.415-.405.415-1.16v-.085q0-.745-.405-1.152-.406-.405-1.048-.405-.622 0-1.038.405-.405.406-.405 1.152v.085q0 .755.405 1.16.415.406 1.038.406m5.29.849q-.5 0-.896-.17a1.5 1.5 0 0 1-.623-.5 1.4 1.4 0 0 1-.226-.802q0-.482.226-.792.236-.321.632-.482.405-.16.916-.16h1.415v-.302q0-.406-.245-.651-.246-.245-.755-.245-.5 0-.764.235a1.13 1.13 0 0 0-.35.614l-.905-.293q.113-.377.358-.679a1.8 1.8 0 0 1 .67-.5q.415-.189 1-.189.907 0 1.425.462.52.463.52 1.312v1.916q0 .282.263.283h.397v.811h-.727q-.33 0-.538-.17a.56.56 0 0 1-.207-.462v-.028h-.142q-.076.141-.226.33a1.25 1.25 0 0 1-.444.33q-.293.132-.774.132m.142-.802q.584 0 .944-.33.358-.34.358-.925v-.094h-1.359q-.386 0-.623.17-.235.16-.235.481t.245.509q.245.189.67.189m5.284.67q-.425 0-.68-.255-.245-.255-.245-.679v-2.897h-1.283v-.821h1.283v-1.538h.972v1.538h1.387v.821h-1.387v2.727q0 .283.264.283h.972v.821zm4.543.132q-.708 0-1.237-.292a2.2 2.2 0 0 1-.83-.84q-.293-.547-.293-1.265v-.113q0-.727.293-1.264.292-.548.811-.84a2.4 2.4 0 0 1 1.218-.302q.669 0 1.17.302.51.293.792.821.284.528.283 1.236v.368h-3.576q.02.614.406.981.396.359.981.359.548 0 .821-.245.284-.246.434-.567l.802.416a2.7 2.7 0 0 1-.386.556 1.95 1.95 0 0 1-.652.491q-.405.198-1.038.198m-1.36-2.934h2.577q-.037-.529-.378-.821-.34-.303-.887-.302-.546 0-.896.302-.34.292-.415.821"/><rect width="27.71" height="17.71" x="108.367" y="151.266" fill="#e5f6ff" rx="2.903"/><path fill="#009fee" d="M113.343 157.555h1.793q.486 0 .878.159.399.16.675.479.283.313.436.792.152.471.152 1.103 0 .631-.152 1.11a2.2 2.2 0 0 1-.436.792 1.75 1.75 0 0 1-.675.471q-.392.16-.878.16h-1.793zm1.793 4.34q.566 0 .914-.355.35-.357.349-1.046v-.813q0-.689-.349-1.045-.348-.355-.914-.355h-.973v3.614zm6.519.726-.457-1.372h-1.895l-.442 1.372h-.835l1.727-5.066h1.031l1.728 5.066zm-1.386-4.311h-.036l-.734 2.235h1.496zm4.795-.029v4.34h-.82v-4.34h-1.51v-.726h3.84v.726zm2.672 4.34v-5.066h3.245v.726h-2.424v1.408h2.199v.726h-2.199v1.48h2.424v.726z"/></g><g filter="url(#b)"><rect width="142" height="144" x="196" y="40" fill="#fff" rx="12" shape-rendering="crispEdges"/><rect width="141.143" height="143.143" x="196.428" y="40.428" stroke="#fff" stroke-width=".857" rx="11.572" shape-rendering="crispEdges"/><path fill="#000" d="M249.093 62.354q-1.022 0-1.742-.371a3.9 3.9 0 0 1-1.219-1l.905-.847q.43.523.941.79.523.267 1.185.267.777 0 1.173-.349.395-.348.395-.94 0-.477-.279-.755-.279-.279-.987-.418l-.72-.128q-1.185-.22-1.777-.778-.593-.558-.593-1.533 0-.535.198-.964a2.05 2.05 0 0 1 .569-.732q.372-.301.894-.464.523-.162 1.173-.163.918 0 1.591.325.673.314 1.15.918l-.918.813a2.4 2.4 0 0 0-.766-.65q-.452-.244-1.127-.244-.696 0-1.08.278-.383.279-.383.813 0 .51.314.767.313.243.975.371l.72.151q1.22.232 1.777.79.57.558.569 1.533 0 .57-.197 1.034a2.2 2.2 0 0 1-.581.801 2.7 2.7 0 0 1-.917.511 4.1 4.1 0 0 1-1.243.174m6.755 0q-.651 0-1.161-.22a2.34 2.34 0 0 1-.86-.628 2.95 2.95 0 0 1-.534-.998 4.4 4.4 0 0 1-.186-1.313q0-.72.186-1.3.186-.592.534-1a2.3 2.3 0 0 1 .86-.638q.51-.22 1.161-.22.906 0 1.487.406.58.405.847 1.08l-1.045.488a1.26 1.26 0 0 0-.453-.662q-.314-.256-.836-.256-.697 0-1.057.442-.348.43-.348 1.126v1.08q0 .697.348 1.138.36.43 1.057.43.558 0 .883-.267a1.94 1.94 0 0 0 .534-.732l.964.511q-.302.744-.906 1.138-.604.396-1.475.395m3.586-8.733h1.266v3.554h.058a2 2 0 0 1 .592-.813q.407-.326 1.103-.326.93 0 1.44.616.523.605.523 1.73v3.833h-1.266v-3.682q0-1.405-1.138-1.405-.243 0-.488.07-.232.057-.418.186a1 1 0 0 0-.302.325.96.96 0 0 0-.104.453v4.053h-1.266zm9.106 8.733q-.65 0-1.162-.22a2.44 2.44 0 0 1-.871-.628 3 3 0 0 1-.557-.998 4.4 4.4 0 0 1-.186-1.313q0-.72.186-1.3.197-.592.557-1 .36-.416.871-.638.511-.22 1.162-.22.661 0 1.161.232.511.232.848.65.337.407.499.952.175.546.175 1.173v.477h-4.147v.197q0 .697.407 1.15.419.441 1.185.441.557 0 .94-.244a2.1 2.1 0 0 0 .651-.662l.743.732q-.337.557-.976.894-.639.325-1.486.325m0-5.33q-.325 0-.604.116a1.4 1.4 0 0 0-.465.325q-.186.21-.29.5-.105.29-.105.638v.081h2.811v-.116q0-.696-.36-1.115-.36-.43-.987-.43m4.084 5.19v-6.038h1.266v.999h.058q.093-.232.22-.442.14-.21.326-.36.196-.162.453-.244.267-.093.615-.093.615 0 1.092.302.475.302.697.93h.034q.163-.512.627-.871.465-.36 1.197-.36.906 0 1.405.615.5.605.499 1.73v3.833h-1.266v-3.682q0-.697-.267-1.045-.267-.36-.847-.36-.244 0-.465.07-.22.057-.395.186a1 1 0 0 0-.267.325.95.95 0 0 0-.105.453v4.053h-1.265v-3.682q0-1.405-1.104-1.405-.232 0-.464.07-.22.057-.395.186a.95.95 0 0 0-.279.325.96.96 0 0 0-.104.453v4.053zm14.666 0q-.5 0-.767-.278a1.3 1.3 0 0 1-.325-.731h-.058q-.174.568-.639.859-.464.29-1.126.29-.94 0-1.452-.488-.5-.487-.499-1.312 0-.906.65-1.359.662-.453 1.928-.453h1.092v-.51q0-.558-.302-.86t-.941-.302q-.534 0-.871.232a2.1 2.1 0 0 0-.569.593l-.755-.686q.302-.51.848-.836.546-.337 1.428-.337 1.173 0 1.8.546t.627 1.568v3.031h.639v1.034zm-2.555-.824q.592 0 .975-.255.384-.267.384-.709v-.87h-1.069q-1.312 0-1.312.812v.21q0 .405.267.615.279.197.755.197"/><rect width="117.274" height="28.598" x="208.363" y="77.013" fill="#fff" rx="2.54"/><rect width="117.274" height="28.598" x="208.363" y="77.013" stroke="#d6d6d6" stroke-width=".726" rx="2.54"/><path fill="#000" d="M215.947 94.313v-6.606h1.019v6.606zm4.349.132a2.1 2.1 0 0 1-1.859-1.095q-.293-.538-.293-1.293v-.141q0-.746.293-1.284a2.06 2.06 0 0 1 1.859-1.104q.453 0 .755.114a1.53 1.53 0 0 1 .811.65h.151v-2.585h.972v6.606h-.953v-.661h-.151a1.75 1.75 0 0 1-.547.547q-.359.246-1.038.246m.273-.85q.633 0 1.038-.405.416-.406.416-1.161v-.085q0-.745-.406-1.151-.406-.405-1.048-.406-.622 0-1.038.406-.405.405-.405 1.151v.085q0 .755.405 1.16.415.406 1.038.406"/><rect width="36.71" height="17.71" x="282.031" y="82.457" fill="#e5f6ff" rx="2.903"/><path fill="#009fee" d="M287.007 88.746h2.243q.631 0 .987.356.363.356.363.95 0 .284-.08.487-.08.196-.203.327a.9.9 0 0 1-.283.188 1.3 1.3 0 0 1-.312.073v.043q.152.008.334.073.188.066.348.21.16.139.269.363.108.219.108.538 0 .304-.101.573a1.318 1.318 0 0 1-.682.777 1.25 1.25 0 0 1-.523.108h-2.468zm.82 4.362h1.408q.32 0 .501-.166.182-.167.182-.48v-.246q0-.312-.182-.48-.182-.166-.501-.166h-1.408zm0-2.22h1.27q.306 0 .472-.153.168-.16.167-.45v-.232q0-.29-.167-.443-.166-.16-.472-.16h-1.27zm4.11 2.924v-.667h.689v-3.731h-.689v-.668h2.206v.668h-.696v3.73h.696v.668zm6.859-.769h-.029q-.08.37-.435.617-.349.24-.929.24-.45 0-.835-.167a1.9 1.9 0 0 1-.668-.501 2.5 2.5 0 0 1-.435-.82 3.8 3.8 0 0 1-.153-1.133q0-.63.16-1.117.159-.494.45-.828.29-.334.697-.5a2.3 2.3 0 0 1 .907-.175q.682 0 1.154.305.472.297.733.835l-.668.391a1.28 1.28 0 0 0-.45-.573q-.304-.225-.769-.225-.603 0-.973.385-.363.385-.363 1.089v.827q0 .704.363 1.089.37.385.973.385.24 0 .457-.059.218-.065.378-.181a.9.9 0 0 0 .261-.298.85.85 0 0 0 .102-.42v-.393h-1.046v-.704h1.837v2.7h-.719zm2.004.77v-.668h.69v-3.731h-.69v-.668h2.207v.668h-.697v3.73h.697v.668zm4.965-2.802-.559-1.075h-.022v3.876h-.784v-5.066h.915l1.655 2.802.559 1.074h.021v-3.876h.784v5.067h-.914zm6.06-1.539v4.34h-.82v-4.34h-1.51v-.726h3.839v.726z"/><rect width="117.274" height="28.598" x="208.363" y="111.418" fill="#fff" rx="2.54"/><rect width="117.274" height="28.598" x="208.363" y="111.418" stroke="#d6d6d6" stroke-width=".726" rx="2.54"/><path fill="#000" d="M218.4 128.849q-1.208 0-1.916-.679-.707-.69-.707-1.982v-1.548q0-1.292.707-1.972.708-.688 1.916-.688 1.19 0 1.831.66.651.66.651 1.802v.057h-1.01v-.085q0-.67-.368-1.095-.358-.424-1.104-.424-.754 0-1.18.462-.424.453-.424 1.265v1.585q0 .802.424 1.264.426.463 1.18.463.746 0 1.104-.425.368-.434.368-1.095v-.16h1.01v.132q0 1.142-.651 1.802-.642.661-1.831.661m5.818 0q-.699 0-1.246-.283a2.16 2.16 0 0 1-.849-.831q-.31-.538-.311-1.273v-.142q0-.736.311-1.264a2.16 2.16 0 0 1 .849-.831q.547-.292 1.246-.292.698 0 1.246.292.547.292.858.831.312.528.312 1.264v.142q0 .736-.312 1.273a2.14 2.14 0 0 1-.858.831 2.7 2.7 0 0 1-1.246.283m0-.868q.642 0 1.038-.406.405-.415.406-1.142v-.085q0-.726-.397-1.132-.396-.415-1.047-.415-.631 0-1.038.415-.396.406-.396 1.132v.085q0 .727.396 1.142.406.406 1.038.406m5.532.868q-.888 0-1.472-.396-.585-.397-.717-1.199l.905-.217q.076.387.255.614.18.226.444.32.273.095.585.095.462 0 .707-.18a.54.54 0 0 0 .255-.462.44.44 0 0 0-.236-.415q-.236-.133-.698-.217l-.321-.057a4 4 0 0 1-.859-.245 1.5 1.5 0 0 1-.613-.444q-.226-.282-.226-.726 0-.66.49-1.019.491-.368 1.303-.368.782 0 1.283.358.51.35.66.953l-.906.255q-.084-.425-.358-.594a1.2 1.2 0 0 0-.679-.18q-.397 0-.623.151a.45.45 0 0 0-.227.406q0 .283.217.415.227.132.604.198l.33.057q.5.085.916.236.415.151.651.434.245.283.245.755 0 .698-.519 1.085t-1.396.387m4.695-.132q-.424 0-.679-.255-.245-.255-.245-.679v-2.897h-1.284v-.821h1.284v-1.538h.972v1.538h1.387v.821h-1.387v2.727q0 .283.264.283h.972v.821z"/><rect width="38.71" height="17.71" x="280.031" y="116.861" fill="#e5f6ff" rx="2.903"/><path fill="#009fee" d="M285.007 123.15h1.793q.486 0 .878.16.399.16.675.479.283.312.436.791.152.473.152 1.104t-.152 1.11a2.2 2.2 0 0 1-.436.791 1.76 1.76 0 0 1-.675.472q-.392.16-.878.16h-1.793zm1.793 4.341q.566 0 .914-.356.35-.355.349-1.045v-.813q0-.69-.349-1.045-.348-.356-.914-.356h-.973v3.615zm5.484.813q-.494 0-.9-.167a1.95 1.95 0 0 1-.689-.501 2.4 2.4 0 0 1-.443-.82 3.8 3.8 0 0 1-.152-1.132q0-.639.152-1.125.16-.494.443-.821.29-.333.689-.5.407-.175.9-.175.495 0 .893.175.406.167.69.5.29.327.443.821.159.486.159 1.125 0 .638-.159 1.132-.153.487-.443.82a1.9 1.9 0 0 1-.69.501 2.3 2.3 0 0 1-.893.167m0-.733q.291 0 .53-.102a1.1 1.1 0 0 0 .414-.29q.174-.196.269-.472a1.9 1.9 0 0 0 .094-.624v-.799q0-.348-.094-.624a1.3 1.3 0 0 0-.269-.464 1.06 1.06 0 0 0-.414-.298 1.3 1.3 0 0 0-.53-.102 1.4 1.4 0 0 0-.537.102 1.15 1.15 0 0 0-.413.298q-.168.188-.262.464a1.9 1.9 0 0 0-.094.624v.799q0 .348.094.624t.262.472q.174.189.413.29.24.102.537.102m4.348-4.421v3.122q0 .645.246.972.248.327.842.327.596 0 .842-.327.247-.327.247-.972v-3.122h.806v2.991q0 .558-.102.965a1.7 1.7 0 0 1-.326.675 1.37 1.37 0 0 1-.588.392q-.356.13-.879.131a2.6 2.6 0 0 1-.885-.131 1.4 1.4 0 0 1-.581-.392 1.65 1.65 0 0 1-.326-.675 4 4 0 0 1-.102-.965v-2.991zm4.562 0h2.243q.631 0 .987.356.363.356.363.951 0 .284-.08.486a1 1 0 0 1-.203.327.9.9 0 0 1-.283.189 1.3 1.3 0 0 1-.312.072v.044q.151.008.333.072.189.066.349.211.16.138.268.363.11.218.109.537 0 .305-.101.573a1.33 1.33 0 0 1-.683.777 1.2 1.2 0 0 1-.522.109h-2.468zm.82 4.363h1.408q.32 0 .501-.167.182-.168.182-.479v-.247q0-.312-.182-.479t-.501-.167h-1.408zm0-2.221h1.27q.306 0 .472-.153.167-.159.167-.45v-.232q0-.29-.167-.443-.166-.16-.472-.16h-1.27zm4.327 2.925v-5.067h.821v4.341h2.061v.726zm4.085 0v-5.067h3.244v.726h-2.424v1.408h2.199v.726h-2.199v1.481h2.424v.726z"/><rect width="117.274" height="28.598" x="208.363" y="145.822" fill="#fff" rx="2.54"/><rect width="117.274" height="28.598" x="208.363" y="145.822" stroke="#d6d6d6" stroke-width=".726" rx="2.54"/><path fill="#000" d="M215.975 165.008v-6.539h.953v.67h.151q.179-.31.538-.557.368-.245 1.047-.245a2.06 2.06 0 0 1 1.85 1.104q.302.528.302 1.283v.142q0 .754-.293 1.293a2.07 2.07 0 0 1-1.859 1.094q-.453 0-.764-.113a1.5 1.5 0 0 1-.5-.283 1.8 1.8 0 0 1-.302-.368h-.151v2.519zm2.406-2.604q.642 0 1.048-.406.405-.405.405-1.16v-.085q0-.745-.415-1.152-.405-.405-1.038-.405-.622 0-1.038.405-.406.406-.406 1.152v.085q0 .755.406 1.16.415.406 1.038.406m5.083.849q-.501 0-.897-.17a1.5 1.5 0 0 1-.623-.5 1.4 1.4 0 0 1-.226-.802q0-.482.226-.792.236-.321.633-.482.405-.16.915-.16h1.415v-.302q0-.406-.245-.651-.246-.245-.755-.245-.5 0-.764.235a1.13 1.13 0 0 0-.349.614l-.906-.293a2 2 0 0 1 .358-.679q.255-.311.67-.5t1-.189q.906 0 1.425.462.519.463.519 1.312v1.916q0 .282.264.283h.397v.811h-.727a.83.83 0 0 1-.538-.17.56.56 0 0 1-.207-.462v-.028h-.142q-.076.141-.226.33a1.26 1.26 0 0 1-.444.33q-.293.132-.773.132m.141-.802q.585 0 .944-.33.358-.34.358-.925v-.094h-1.359q-.386 0-.622.17-.237.16-.236.481 0 .321.245.509.246.189.67.189m4.279 2.557v-.849h2.595q.264 0 .264-.283v-1.434h-.151a1.3 1.3 0 0 1-.264.368 1.3 1.3 0 0 1-.463.283q-.292.113-.736.113-.528 0-.943-.236a1.66 1.66 0 0 1-.651-.67q-.236-.434-.236-1.028v-2.803h.972v2.727q0 .605.302.897.302.282.839.283.595 0 .954-.397.368-.396.368-1.151v-2.359h.971v5.605q0 .425-.254.68-.245.254-.68.254zm5.211-.547v-.878h4.51v.878zm7.823-1.208q-.575 0-1.066-.283a2.14 2.14 0 0 1-.792-.811q-.293-.538-.293-1.293v-.142q0-.745.293-1.283a2.06 2.06 0 0 1 1.858-1.104q.453 0 .755.113.312.113.51.293.198.17.302.358h.151v-2.585h.972v6.605h-.953v-.66h-.151a1.75 1.75 0 0 1-.548.547q-.359.245-1.038.245m.274-.849q.633 0 1.038-.406.415-.405.415-1.16v-.085q0-.745-.406-1.152-.405-.405-1.047-.405-.623 0-1.038.405-.406.406-.406 1.152v.085q0 .755.406 1.16.415.406 1.038.406m5.29.849a2.2 2.2 0 0 1-.896-.17 1.5 1.5 0 0 1-.623-.5 1.4 1.4 0 0 1-.227-.802q0-.482.227-.792.236-.321.632-.482.406-.16.915-.16h1.416v-.302q0-.406-.246-.651-.245-.245-.754-.245-.501 0-.765.235a1.14 1.14 0 0 0-.349.614l-.906-.293q.113-.377.359-.679.255-.311.67-.5t1-.189q.906 0 1.425.462.519.463.519 1.312v1.916q0 .282.264.283h.396v.811h-.726q-.33 0-.538-.17a.57.57 0 0 1-.208-.462v-.028h-.141a2.3 2.3 0 0 1-.227.33q-.15.189-.443.33-.292.132-.774.132m.142-.802q.585 0 .943-.33.359-.34.359-.925v-.094h-1.359q-.387 0-.623.17-.236.16-.236.481t.246.509q.245.189.67.189m5.284.67q-.425 0-.68-.255-.245-.255-.245-.679v-2.897h-1.284v-.821h1.284v-1.538h.972v1.538h1.387v.821h-1.387v2.727q0 .283.264.283h.972v.821zm4.542.132q-.708 0-1.236-.292a2.2 2.2 0 0 1-.83-.84q-.293-.547-.293-1.265v-.113q0-.727.293-1.264.292-.548.811-.84a2.4 2.4 0 0 1 1.218-.302q.669 0 1.17.302.508.293.792.821.283.528.283 1.236v.368h-3.576q.02.614.406.981.396.359.981.359.548 0 .821-.245.283-.246.434-.567l.802.416a2.7 2.7 0 0 1-.387.556 1.9 1.9 0 0 1-.651.491q-.405.198-1.038.198m-1.359-2.934h2.576q-.037-.529-.377-.821-.34-.303-.887-.302-.548 0-.896.302-.34.292-.416.821"/><rect width="52.71" height="17.71" x="266.031" y="151.266" fill="#e5f6ff" rx="2.903"/><path fill="#009fee" d="M272.887 158.281v4.34h-.82v-4.34h-1.51v-.726h3.84v.726zm2.412 4.34v-.668h.689v-3.731h-.689v-.667h2.206v.667h-.696v3.731h.696v.668zm7.476-3.876h-.036l-.399.82-1.111 2.025-1.11-2.025-.4-.82h-.036v3.876h-.784v-5.066h.973l1.357 2.576h.044l1.357-2.576h.929v5.066h-.784zm2.399 3.876v-5.066h3.244v.726h-2.424v1.408h2.199v.726h-2.199v1.48h2.424v.726zm6.182.087q-.638 0-1.089-.232a2.4 2.4 0 0 1-.762-.624l.567-.53q.269.327.587.493.327.168.741.167.486 0 .733-.217a.75.75 0 0 0 .247-.588q0-.298-.175-.472-.174-.174-.616-.261l-.45-.08q-.74-.138-1.111-.487-.37-.348-.37-.958 0-.333.123-.602.13-.276.356-.457.232-.189.559-.291.326-.101.733-.101.573 0 .994.203.421.196.719.573l-.574.508a1.5 1.5 0 0 0-.479-.406q-.282-.153-.704-.153-.435 0-.675.175-.239.174-.239.508 0 .319.196.479.196.152.609.232l.45.094q.763.146 1.111.494.356.349.356.958 0 .356-.124.646a1.4 1.4 0 0 1-.363.501 1.7 1.7 0 0 1-.573.319 2.5 2.5 0 0 1-.777.109m4.944-4.427v4.34h-.821v-4.34h-1.509v-.726h3.839v.726zm5.362 4.34-.458-1.372h-1.894l-.443 1.372h-.835l1.728-5.066h1.031l1.727 5.066zm-1.387-4.311h-.036l-.733 2.235h1.495zm7.267.435h-.037l-.399.82-1.11 2.025-1.111-2.025-.399-.82h-.036v3.876h-.784v-5.066h.972l1.358 2.576h.043l1.358-2.576h.929v5.066h-.784zm2.398 3.876v-5.066h2.178q.704 0 1.089.413.384.414.384 1.111t-.384 1.111-1.089.413h-1.358v2.018zm.82-2.736h1.307q.312 0 .486-.16.174-.167.175-.472v-.348q0-.304-.175-.465-.174-.167-.486-.167h-1.307z"/></g><path fill="#009fee" d="M161 112a4 4 0 1 0 8 0 4 4 0 0 0-8 0m35.417 0-7.5-4.33v8.66zM165 112v.75h24.667v-1.5H165z"/><defs><filter id="a" width="162.563" height="164.563" x="4.718" y="29.718" color-interpolation-filters="sRGB" filterUnits="userSpaceOnUse"><feFlood flood-opacity="0" result="BackgroundImageFix"/><feColorMatrix in="SourceAlpha" result="hardAlpha" values="0 0 0 0 0 0 0 0 0 0 0 0 0 0 0 0 0 0 127 0"/><feOffset/><feGaussianBlur stdDeviation="5.141"/><feComposite in2="hardAlpha" operator="out"/><feColorMatrix values="0 0 0 0 0 0 0 0 0 0 0 0 0 0 0 0 0 0 0.08 0"/><feBlend in2="BackgroundImageFix" result="effect1_dropShadow_1118_3040"/><feBlend in="SourceGraphic" in2="effect1_dropShadow_1118_3040" result="shape"/></filter><filter id="b" width="162.563" height="164.563" x="185.718" y="29.718" color-interpolation-filters="sRGB" filterUnits="userSpaceOnUse"><feFlood flood-opacity="0" result="BackgroundImageFix"/><feColorMatrix in="SourceAlpha" result="hardAlpha" values="0 0 0 0 0 0 0 0 0 0 0 0 0 0 0 0 0 0 127 0"/><feOffset/><feGaussianBlur stdDeviation="5.141"/><feComposite in2="hardAlpha" operator="out"/><feColorMatrix values="0 0 0 0 0 0 0 0 0 0 0 0 0 0 0 0 0 0 0.08 0"/><feBlend in2="BackgroundImageFix" result="effect1_dropShadow_1118_3040"/><feBlend in="SourceGraphic" in2="effect1_dropShadow_1118_3040" result="shape"/></filter></defs></svg>