<svg xmlns="http://www.w3.org/2000/svg" width="354" height="217" fill="none" viewBox="0 0 354 217"><path fill="#f3f3f3" d="M0 24C0 10.745 10.745 0 24 0h306c13.255 0 24 10.745 24 24v169c0 13.255-10.745 24-24 24H24c-13.255 0-24-10.745-24-24z"/><g filter="url(#a)"><rect width="117.59" height="128.345" x="29.5" y="27" fill="#fff" rx="12"/><rect width="116.733" height="127.489" x="29.928" y="27.428" stroke="#fff" stroke-width=".857" rx="11.572"/></g><g filter="url(#b)"><rect width="117" height="125" x="209" y="30" fill="#fff" rx="12"/><rect width="116.143" height="124.143" x="209.428" y="30.428" stroke="#fff" stroke-width=".857" rx="11.572"/></g><rect width="100.382" height="20.076" x="38.102" y="65.002" fill="#f7f7f7" rx="2.868"/><rect width="100.382" height="20.076" x="217.359" y="68.172" fill="#f7f7f7" rx="2.868"/><rect width="100.382" height="20.076" x="38.102" y="87.945" fill="#f7f7f7" rx="2.868"/><rect width="100.382" height="20.076" x="217.359" y="96.248" fill="#f7f7f7" rx="2.868"/><rect width="101" height="25" x="38" y="116" fill="#e5f6ff" rx="5.736"/><rect width="95" height="19" x="41" y="119" fill="#fff" rx="2.868"/><rect width="100.382" height="20.076" x="217.359" y="124.324" fill="#e5f6ff" rx="2.868"/><rect width="100.382" height="20.076" x="38.102" y="169" fill="#e5f6ff" rx="2.868"/><path fill="#000" d="M70.884 51.61q-1.01 0-1.72-.367a3.8 3.8 0 0 1-1.205-.986l.895-.838q.425.516.929.78.516.264 1.17.264.77 0 1.159-.344.39-.345.39-.93 0-.47-.275-.745-.276-.275-.976-.413l-.71-.126q-1.171-.218-1.756-.769-.585-.55-.585-1.514 0-.529.195-.952a2 2 0 0 1 .562-.723q.368-.298.883-.459.516-.16 1.159-.16.906 0 1.572.32.665.311 1.136.907l-.907.803a2.4 2.4 0 0 0-.757-.642q-.448-.241-1.113-.241-.688 0-1.067.275-.378.276-.378.803 0 .505.31.757.309.24.963.367l.711.15q1.205.228 1.756.78.561.55.562 1.514 0 .562-.195 1.02-.195.46-.574.793a2.7 2.7 0 0 1-.906.504 4 4 0 0 1-1.228.172m6.673 0q-.642 0-1.147-.218a2.3 2.3 0 0 1-.849-.62 2.9 2.9 0 0 1-.528-.986 4.3 4.3 0 0 1-.183-1.296q0-.712.183-1.285.185-.585.528-.987.344-.413.849-.63a2.9 2.9 0 0 1 1.147-.219q.895 0 1.469.402.573.401.837 1.067l-1.032.482a1.25 1.25 0 0 0-.448-.654q-.31-.252-.826-.253-.689 0-1.044.436-.344.425-.344 1.113v1.067q0 .689.344 1.124.355.425 1.044.425.55 0 .872-.264.333-.276.528-.723l.952.505q-.298.734-.895 1.124-.596.39-1.457.39m3.542-8.627h1.25v3.51h.058q.195-.48.585-.802.402-.322 1.09-.322.918 0 1.423.608.516.597.516 1.71v3.786h-1.25v-3.637q0-1.388-1.125-1.388-.24 0-.482.069-.229.058-.413.183a1 1 0 0 0-.298.321.94.94 0 0 0-.103.448v4.004H81.1zm8.995 8.627q-.642 0-1.147-.218a2.4 2.4 0 0 1-.86-.62 3 3 0 0 1-.55-.986 4.3 4.3 0 0 1-.184-1.296q0-.712.183-1.285.195-.585.55-.987.357-.413.861-.63a2.9 2.9 0 0 1 1.147-.219q.655 0 1.148.23.504.23.837.642.333.402.494.941.171.54.172 1.159v.47h-4.096v.195q0 .689.402 1.136.413.436 1.17.436.55 0 .929-.241a2.1 2.1 0 0 0 .642-.654l.735.723a2.4 2.4 0 0 1-.964.883q-.63.321-1.469.321m0-5.265q-.32 0-.596.114a1.4 1.4 0 0 0-.459.322 1.5 1.5 0 0 0-.287.493 1.9 1.9 0 0 0-.103.63v.081h2.776v-.115q0-.688-.355-1.101-.355-.424-.975-.424m4.035 5.128v-5.966h1.25v.987h.058q.091-.23.218-.436.138-.207.32-.356.196-.16.448-.24.264-.093.608-.093.609 0 1.079.299.47.298.688.918h.034q.162-.506.62-.86.459-.357 1.182-.357.894 0 1.388.608.493.597.493 1.71v3.786h-1.25v-3.637q0-.689-.264-1.032-.264-.356-.838-.356-.24 0-.459.069-.217.058-.39.183a1 1 0 0 0-.263.321.94.94 0 0 0-.104.448v4.004h-1.25v-3.637q0-1.388-1.09-1.388a1.6 1.6 0 0 0-.459.069q-.218.058-.39.183a.9.9 0 0 0-.275.321.94.94 0 0 0-.104.448v4.004zm14.487 0q-.492 0-.757-.276a1.3 1.3 0 0 1-.321-.722h-.057a1.47 1.47 0 0 1-.631.849q-.459.286-1.113.286-.93 0-1.434-.481-.493-.483-.493-1.297 0-.894.642-1.342.654-.448 1.904-.448h1.079v-.504q0-.55-.298-.85-.298-.297-.93-.297-.528 0-.86.229a2.1 2.1 0 0 0-.562.585l-.746-.677q.299-.505.837-.826.54-.333 1.412-.333 1.158 0 1.778.54t.619 1.548v2.995h.631v1.02zm-2.523-.815q.585 0 .963-.252.38-.264.379-.7v-.86h-1.056q-1.296 0-1.296.803v.206q0 .402.264.608.275.195.746.195M250.142 54.78q-1.01 0-1.721-.367a3.8 3.8 0 0 1-1.204-.986l.895-.838q.424.516.929.78.516.264 1.17.264.769 0 1.159-.344.39-.345.39-.93 0-.47-.276-.745-.275-.275-.975-.413l-.711-.126q-1.17-.219-1.755-.769t-.585-1.514q0-.528.195-.953.206-.435.562-.722.367-.299.883-.46.517-.16 1.159-.16.906 0 1.572.322.665.309 1.135.906l-.906.803a2.4 2.4 0 0 0-.757-.643q-.447-.24-1.113-.24-.689 0-1.067.275t-.378.803q0 .505.309.757.31.24.964.367l.711.15q1.205.228 1.755.78.563.55.563 1.514 0 .563-.195 1.02a2.2 2.2 0 0 1-.574.792 2.7 2.7 0 0 1-.906.505 4 4 0 0 1-1.228.172m6.673 0q-.642 0-1.147-.218a2.3 2.3 0 0 1-.849-.62 2.9 2.9 0 0 1-.528-.986 4.3 4.3 0 0 1-.183-1.296q0-.711.183-1.285.183-.585.528-.987.344-.412.849-.63a2.9 2.9 0 0 1 1.147-.219q.895 0 1.468.402.574.401.838 1.067l-1.033.482a1.25 1.25 0 0 0-.447-.654q-.31-.253-.826-.253-.689 0-1.044.436-.344.425-.344 1.113V52.2q0 .689.344 1.124.355.425 1.044.425.55 0 .872-.264.333-.276.528-.723l.952.505q-.298.734-.895 1.124-.596.39-1.457.39m3.542-8.627h1.251v3.51h.057q.195-.48.585-.802.402-.322 1.09-.322.918 0 1.423.608.516.597.516 1.71v3.786h-1.251v-3.637q0-1.388-1.124-1.388-.241 0-.482.069-.229.057-.413.183a1 1 0 0 0-.298.321.94.94 0 0 0-.103.448v4.004h-1.251zm8.995 8.627a2.9 2.9 0 0 1-1.147-.218 2.4 2.4 0 0 1-.86-.62 3 3 0 0 1-.551-.986 4.3 4.3 0 0 1-.184-1.296q0-.711.184-1.285.195-.585.551-.987.356-.412.86-.63a2.9 2.9 0 0 1 1.147-.219q.654 0 1.148.23.504.23.837.642.333.401.493.941.172.54.172 1.159v.47h-4.095v.195q0 .688.401 1.136.414.435 1.171.436.55 0 .929-.241.378-.24.642-.654l.734.723a2.4 2.4 0 0 1-.963.883q-.631.321-1.469.321m0-5.266a1.5 1.5 0 0 0-.596.115 1.4 1.4 0 0 0-.459.321 1.5 1.5 0 0 0-.287.494 1.9 1.9 0 0 0-.103.63v.081h2.776v-.115q0-.689-.356-1.101-.356-.425-.975-.425m4.035 5.129v-5.966h1.25v.987h.058q.091-.23.218-.436.136-.207.321-.356.195-.16.447-.24a1.9 1.9 0 0 1 .608-.093q.608 0 1.079.299.47.297.688.917h.034q.16-.504.62-.86t1.181-.356q.895 0 1.389.608.493.597.493 1.71v3.786h-1.251v-3.637q0-.688-.263-1.033-.264-.355-.838-.355-.24 0-.459.069a1.2 1.2 0 0 0-.39.183 1 1 0 0 0-.264.321.94.94 0 0 0-.103.448v4.004h-1.25v-3.637q0-1.388-1.09-1.388a1.6 1.6 0 0 0-.459.069 1.2 1.2 0 0 0-.39.183.9.9 0 0 0-.276.321.95.95 0 0 0-.103.448v4.004zm14.487 0q-.493 0-.757-.276a1.3 1.3 0 0 1-.321-.722h-.057a1.47 1.47 0 0 1-.631.848q-.459.288-1.113.287-.93 0-1.434-.482-.494-.48-.494-1.296 0-.894.643-1.342.654-.447 1.904-.448h1.079v-.504q0-.55-.299-.85-.298-.297-.929-.298-.528 0-.86.23-.333.23-.562.585l-.746-.677q.298-.505.837-.826.54-.333 1.411-.333 1.16 0 1.779.54.62.539.619 1.548v2.995h.631v1.02zm-2.524-.815q.586 0 .964-.252.379-.264.379-.7v-.86h-1.056q-1.296 0-1.296.803v.206q0 .401.264.608.275.195.745.195"/><path fill="#009fee" d="m155.695 158-4.33 7.5h8.66zm0 32.422a4 4 0 1 0 0 8 4 4 0 0 0 0-8m0-25.672h-.75v29.672h1.5V164.75zM156.711 91.531a4 4 0 1 0 8 0 4 4 0 0 0-8 0m43.417 0-7.5-4.33v8.66zm-39.417 0v.75h32.667v-1.5h-32.667z"/><defs><filter id="a" width="138.157" height="148.909" x="19.218" y="16.718" color-interpolation-filters="sRGB" filterUnits="userSpaceOnUse"><feFlood flood-opacity="0" result="BackgroundImageFix"/><feColorMatrix in="SourceAlpha" result="hardAlpha" values="0 0 0 0 0 0 0 0 0 0 0 0 0 0 0 0 0 0 127 0"/><feOffset/><feGaussianBlur stdDeviation="5.141"/><feComposite in2="hardAlpha" operator="out"/><feColorMatrix values="0 0 0 0 0 0 0 0 0 0 0 0 0 0 0 0 0 0 0.08 0"/><feBlend in2="BackgroundImageFix" result="effect1_dropShadow_1118_3019"/><feBlend in="SourceGraphic" in2="effect1_dropShadow_1118_3019" result="shape"/></filter><filter id="b" width="137.563" height="145.563" x="198.718" y="19.718" color-interpolation-filters="sRGB" filterUnits="userSpaceOnUse"><feFlood flood-opacity="0" result="BackgroundImageFix"/><feColorMatrix in="SourceAlpha" result="hardAlpha" values="0 0 0 0 0 0 0 0 0 0 0 0 0 0 0 0 0 0 127 0"/><feOffset/><feGaussianBlur stdDeviation="5.141"/><feComposite in2="hardAlpha" operator="out"/><feColorMatrix values="0 0 0 0 0 0 0 0 0 0 0 0 0 0 0 0 0 0 0.08 0"/><feBlend in2="BackgroundImageFix" result="effect1_dropShadow_1118_3019"/><feBlend in="SourceGraphic" in2="effect1_dropShadow_1118_3019" result="shape"/></filter></defs></svg>