<svg xmlns="http://www.w3.org/2000/svg" width="354" height="218" fill="none" viewBox="0 0 354 218"><path fill="#f3f3f3" d="M0 24C0 10.745 10.745 0 24 0h306c13.255 0 24 10.745 24 24v170c0 13.255-10.745 24-24 24H24c-13.255 0-24-10.745-24-24z"/><g filter="url(#a)"><rect width="58.932" height="58.932" x="91" y="76.129" fill="#fff" rx="16.838"/><rect width="58.031" height="58.031" x="91.451" y="76.58" stroke="#fff" stroke-width=".902" rx="16.387"/><path fill="#009fee" d="M126.723 96.021c-1.813-.987-4.195-1.53-6.709-1.53s-4.895.543-6.708 1.53c-2.036 1.112-3.158 2.67-3.158 4.389v9.471c0 1.719 1.122 3.277 3.158 4.388 1.81.987 4.192 1.532 6.708 1.532s4.896-.544 6.709-1.532c2.038-1.111 3.157-2.669 3.157-4.388v-9.471c0-1.719-1.121-3.277-3.157-4.389m.789 9.124c0 1.678-3.079 3.552-7.498 3.552s-7.498-1.874-7.498-3.552v-.834q.382.264.79.487c1.81.987 4.192 1.531 6.708 1.531s4.896-.543 6.709-1.531q.408-.222.789-.487zm-7.498-8.287c4.419 0 7.498 1.875 7.498 3.552s-3.079 3.552-7.498 3.552-7.498-1.875-7.498-3.552 3.079-3.552 7.498-3.552m0 16.575c-4.419 0-7.498-1.875-7.498-3.552v-.835q.382.265.79.488c1.81.986 4.192 1.531 6.708 1.531s4.896-.544 6.709-1.531q.408-.223.789-.488v.835c0 1.677-3.079 3.552-7.498 3.552"/></g><path stroke="#009fee" stroke-width="2.105" d="M149.938 105.596h75.77M224.125 37.668H204.13a8.42 8.42 0 0 0-8.419 8.419v114.869a8.42 8.42 0 0 0 8.419 8.419h19.995"/><g filter="url(#b)"><rect width="33.676" height="33.676" x="224.648" y="20.131" fill="#fff" rx="8.419"/><rect width="32.774" height="32.774" x="225.099" y="20.582" stroke="#fff" stroke-width=".902" rx="7.968"/><path fill="#009fee" d="M245.964 30.888c-1.209-.658-2.797-1.02-4.473-1.02s-3.263.362-4.472 1.02c-1.357.741-2.105 1.78-2.105 2.926v6.314c0 1.145.748 2.184 2.105 2.925 1.207.658 2.794 1.021 4.472 1.021s3.264-.362 4.473-1.02c1.359-.742 2.105-1.78 2.105-2.926v-6.314c0-1.146-.748-2.185-2.105-2.926m.526 6.083c0 1.118-2.053 2.368-4.999 2.368s-4.998-1.25-4.998-2.368v-.557q.254.177.526.325c1.207.658 2.794 1.02 4.472 1.02s3.264-.361 4.473-1.02q.272-.148.526-.325zm-4.999-5.525c2.946 0 4.999 1.25 4.999 2.368s-2.053 2.367-4.999 2.367-4.998-1.25-4.998-2.367c0-1.119 2.052-2.368 4.998-2.368m0 11.05c-2.946 0-4.998-1.25-4.998-2.368v-.557q.254.177.526.325c1.207.658 2.794 1.021 4.472 1.021s3.264-.362 4.473-1.02q.272-.15.526-.326v.557c0 1.118-2.053 2.368-4.999 2.368"/></g><g filter="url(#c)"><rect width="33.676" height="33.676" x="224.648" y="83.719" fill="#fff" rx="8.419"/><rect width="32.774" height="32.774" x="225.099" y="84.17" stroke="#fff" stroke-width=".902" rx="7.968"/><path fill="#009fee" d="M245.964 94.476c-1.209-.659-2.797-1.02-4.473-1.02s-3.263.361-4.472 1.02c-1.357.741-2.105 1.78-2.105 2.925v6.315c0 1.145.748 2.184 2.105 2.925 1.207.658 2.794 1.021 4.472 1.021s3.264-.362 4.473-1.021c1.359-.741 2.105-1.78 2.105-2.925v-6.315c0-1.145-.748-2.184-2.105-2.925m.526 6.083c0 1.118-2.053 2.367-4.999 2.367s-4.998-1.249-4.998-2.367v-.557q.254.177.526.325c1.207.658 2.794 1.021 4.472 1.021s3.264-.363 4.473-1.021q.272-.148.526-.325zm-4.999-5.525c2.946 0 4.999 1.25 4.999 2.367 0 1.119-2.053 2.368-4.999 2.368s-4.998-1.25-4.998-2.368 2.052-2.367 4.998-2.367m0 11.049c-2.946 0-4.998-1.249-4.998-2.367v-.557q.254.177.526.325c1.207.658 2.794 1.021 4.472 1.021s3.264-.362 4.473-1.021q.272-.148.526-.325v.557c0 1.118-2.053 2.367-4.999 2.367"/></g><g filter="url(#d)"><rect width="33.676" height="33.676" x="224.648" y="147.309" fill="#fff" rx="8.419"/><rect width="32.774" height="32.774" x="225.099" y="147.759" stroke="#fff" stroke-width=".902" rx="7.968"/><path fill="#009fee" d="M245.964 158.066c-1.209-.659-2.797-1.021-4.473-1.021s-3.263.362-4.472 1.021c-1.357.741-2.105 1.78-2.105 2.925v6.314c0 1.146.748 2.185 2.105 2.926 1.207.658 2.794 1.021 4.472 1.021s3.264-.363 4.473-1.021c1.359-.741 2.105-1.78 2.105-2.926v-6.314c0-1.145-.748-2.184-2.105-2.925m.526 6.082c0 1.119-2.053 2.368-4.999 2.368s-4.998-1.249-4.998-2.368v-.556q.254.176.526.325c1.207.658 2.794 1.021 4.472 1.021s3.264-.363 4.473-1.021q.272-.149.526-.325zm-4.999-5.525c2.946 0 4.999 1.25 4.999 2.368s-2.053 2.368-4.999 2.368-4.998-1.25-4.998-2.368 2.052-2.368 4.998-2.368m0 11.05c-2.946 0-4.998-1.249-4.998-2.368v-.556q.254.177.526.325c1.207.658 2.794 1.021 4.472 1.021s3.264-.363 4.473-1.021q.272-.148.526-.325v.556c0 1.119-2.053 2.368-4.999 2.368"/></g><path fill="#000" d="M93.394 151.719v-1.077h1.055v-5.699h-1.055v-1.076h3.141q1.57 0 2.4.796.843.796.842 2.401v1.469q0 1.604-.841 2.401-.831.785-2.4.785zm2.277-1.1h.875q1.022 0 1.515-.516t.493-1.536v-1.548q0-1.032-.493-1.537-.494-.505-1.515-.505h-.875zm7.225 1.257q-.594 0-1.066-.202a1.76 1.76 0 0 1-.74-.595q-.27-.392-.269-.953 0-.573.269-.942.28-.382.752-.572a2.9 2.9 0 0 1 1.088-.191h1.682v-.359q0-.483-.291-.774-.292-.292-.898-.292-.594 0-.908.281-.315.28-.415.729l-1.077-.348q.133-.448.426-.808.303-.37.796-.594.494-.225 1.189-.224 1.077 0 1.694.549.618.55.617 1.559v2.278q0 .336.314.336h.471v.965h-.863q-.393 0-.64-.202a.68.68 0 0 1-.247-.55v-.033h-.168q-.09.168-.269.392-.18.225-.527.393-.348.157-.92.157m.168-.954q.696 0 1.122-.392.426-.405.426-1.1v-.112h-1.615q-.46 0-.74.202-.28.19-.281.572 0 .381.292.606.291.224.796.224m6.282.797q-.505 0-.808-.303-.291-.303-.292-.808v-3.444h-1.525v-.975h1.525v-1.829h1.156v1.829h1.649v.975h-1.649v3.242q0 .337.314.337h1.155v.976zm4.767.157a2.7 2.7 0 0 1-1.065-.202 1.76 1.76 0 0 1-.741-.595q-.269-.392-.269-.953 0-.573.269-.942.28-.382.752-.572a2.9 2.9 0 0 1 1.088-.191h1.683v-.359q0-.483-.292-.774t-.897-.292q-.596 0-.909.281-.314.28-.415.729l-1.077-.348a2.4 2.4 0 0 1 .426-.808 2.2 2.2 0 0 1 .797-.594q.493-.225 1.189-.224 1.077 0 1.694.549.617.55.617 1.559v2.278q0 .336.314.336h.471v.965h-.864q-.393 0-.639-.202a.67.67 0 0 1-.247-.55v-.033h-.168q-.09.168-.27.392a1.5 1.5 0 0 1-.527.393q-.347.157-.92.157m.169-.954q.695 0 1.121-.392.427-.405.427-1.1v-.112h-1.616q-.46 0-.74.202-.28.19-.28.572t.291.606q.292.224.797.224m7.786.954q-.807 0-1.245-.292a2.1 2.1 0 0 1-.639-.65h-.18v.785h-1.133v-7.852h1.156v3.073h.179a1.9 1.9 0 0 1 .359-.426q.225-.213.595-.348t.908-.134q.696 0 1.279.336.583.337.931.976.348.64.348 1.526v.168q0 .897-.359 1.537-.348.627-.931.964a2.45 2.45 0 0 1-1.268.337m-.336-1.01q.751 0 1.234-.482.493-.483.493-1.38v-.101q0-.887-.482-1.368-.483-.483-1.245-.483-.74 0-1.234.483-.483.481-.483 1.368v.101q0 .897.483 1.38.493.482 1.234.482m6.042 1.01a2.7 2.7 0 0 1-1.066-.202 1.76 1.76 0 0 1-.74-.595q-.27-.392-.27-.953 0-.573.27-.942.28-.382.751-.572a2.9 2.9 0 0 1 1.088-.191h1.683v-.359q0-.483-.292-.774-.291-.292-.897-.292-.595 0-.909.281-.314.28-.415.729l-1.077-.348q.135-.448.427-.808.302-.37.796-.594.493-.225 1.189-.224 1.077 0 1.694.549.617.55.617 1.559v2.278q0 .336.314.336h.471v.965h-.864q-.392 0-.639-.202a.67.67 0 0 1-.247-.55v-.033h-.168q-.09.168-.269.392-.18.225-.528.393-.347.157-.919.157m.168-.954q.695 0 1.122-.392.426-.405.426-1.1v-.112h-1.615q-.46 0-.741.202-.28.19-.28.572t.291.606q.292.224.797.224m6.812.954q-1.055 0-1.75-.471t-.853-1.425l1.077-.258q.09.46.303.729.213.27.527.382.326.112.696.112.549 0 .841-.213.303-.213.303-.55a.53.53 0 0 0-.281-.494q-.28-.156-.83-.258l-.381-.067a5 5 0 0 1-1.021-.292 1.8 1.8 0 0 1-.729-.527q-.27-.336-.269-.864 0-.785.583-1.211.583-.437 1.548-.437.931 0 1.526.426.605.414.785 1.133l-1.077.303q-.1-.505-.426-.707-.325-.213-.808-.213-.471 0-.74.179a.54.54 0 0 0-.27.483q0 .336.258.493.27.157.718.236l.393.067q.594.101 1.088.28.493.18.774.516.291.337.292.898 0 .83-.617 1.29-.618.46-1.66.46m6.162 0q-.841 0-1.469-.348a2.6 2.6 0 0 1-.987-.998q-.348-.651-.348-1.503v-.135q0-.864.348-1.503.347-.651.964-.999.628-.358 1.447-.358.797 0 1.391.358.606.349.943.976.336.629.336 1.47v.437h-4.251q.022.729.482 1.167.471.426 1.167.426.65 0 .976-.291.336-.292.516-.673l.953.493q-.157.314-.46.662a2.3 2.3 0 0 1-.774.583q-.482.236-1.234.236m-1.615-3.489h3.062q-.045-.628-.448-.976-.405-.359-1.055-.359-.651 0-1.065.359-.405.348-.494.976"/><path fill="#6f6f6f" d="M224.249 66.39v-5.6h2.144q.504 0 .896.2.4.193.632.553t.232.872v.104q0 .503-.24.872-.231.36-.632.552a2 2 0 0 1-.888.192h-1.472v2.256zm.672-2.863h1.4q.536 0 .848-.264.312-.273.312-.76v-.08q0-.489-.312-.752-.303-.273-.848-.272h-1.4zm5.271 2.976a1.9 1.9 0 0 1-.744-.144 1.2 1.2 0 0 1-.528-.416 1.12 1.12 0 0 1-.192-.664q0-.4.192-.656.192-.264.528-.392a2 2 0 0 1 .752-.136h1.32v-.288q0-.416-.248-.656-.24-.24-.72-.24-.472 0-.736.232-.264.224-.36.608l-.592-.192a1.7 1.7 0 0 1 .304-.592q.209-.273.552-.432.352-.168.84-.168.752 0 1.168.392.416.384.416 1.088v1.768q0 .24.224.24h.36v.536h-.552a.6.6 0 0 1-.424-.144.53.53 0 0 1-.16-.4v-.04h-.096a2 2 0 0 1-.24.32 1.1 1.1 0 0 1-.4.264q-.256.111-.664.112m.072-.544q.56 0 .904-.328.352-.336.352-.936v-.088h-1.296q-.377 0-.624.168-.24.16-.24.488t.248.512q.256.184.656.184m3.33.432v-3.912h.616v.48h.112a.72.72 0 0 1 .32-.376q.216-.12.568-.12h.464v.576h-.504q-.424 0-.688.24-.256.231-.256.728v2.384zm4.455 0q-.336 0-.52-.184-.176-.184-.176-.504V63.03h-1.176v-.552h1.176v-1.392h.632v1.392h1.28v.552h-1.28v2.576q0 .24.232.24h.872v.544zm2.24 0v-3.912h.632v3.912zm.32-4.52a.465.465 0 0 1-.488-.48q0-.217.136-.352a.5.5 0 0 1 .352-.136.466.466 0 0 1 .48.488.465.465 0 0 1-.48.48m3.081 4.52q-.336 0-.52-.184-.176-.184-.176-.504V63.03h-1.176v-.552h1.176v-1.392h.632v1.392h1.28v.552h-1.28v2.576q0 .24.232.24h.872v.544zm2.24 0v-3.912h.632v3.912zm.32-4.52a.465.465 0 0 1-.488-.48q0-.217.136-.352a.5.5 0 0 1 .352-.136q.207 0 .344.136.135.136.136.352a.468.468 0 0 1-.48.48m3.449 4.632q-.592 0-1.048-.248a1.8 1.8 0 0 1-.704-.696q-.248-.457-.248-1.072v-.104q0-.608.248-1.064.255-.456.704-.704a2.16 2.16 0 0 1 1.048-.248q.591 0 1.04.248.456.248.704.704.255.456.256 1.064v.104q0 .615-.256 1.072-.249.447-.704.696a2.1 2.1 0 0 1-1.04.248m0-.568q.623 0 .992-.392.375-.4.376-1.072v-.072q0-.672-.376-1.064-.369-.4-.992-.4-.617 0-.992.4-.376.392-.376 1.064v.072q0 .672.376 1.072.375.392.992.392m3.137.456v-3.912h.616v.664h.112q.128-.28.432-.504.312-.232.912-.232.44 0 .784.184.352.184.56.544t.208.888v2.368h-.632v-2.32q0-.584-.296-.848-.288-.264-.784-.264-.568 0-.928.368-.352.367-.352 1.096v1.968zm6.937 0v-5.6h.672v5.6zM223.312 129.957v-5.6h2.144q.504 0 .896.2.4.192.632.552t.232.872v.104q0 .504-.24.872-.232.36-.632.552a2 2 0 0 1-.888.192h-1.472v2.256zm.672-2.864h1.4q.536 0 .848-.264.312-.272.312-.76v-.08q0-.488-.312-.752-.304-.272-.848-.272h-1.4zm5.271 2.976a1.9 1.9 0 0 1-.744-.144 1.2 1.2 0 0 1-.528-.416 1.12 1.12 0 0 1-.192-.664q0-.4.192-.656a1.13 1.13 0 0 1 .528-.392 2 2 0 0 1 .752-.136h1.32v-.288q0-.416-.248-.656-.24-.24-.72-.24-.472 0-.736.232a1.13 1.13 0 0 0-.36.608l-.592-.192q.096-.328.304-.592.207-.271.552-.432a1.9 1.9 0 0 1 .84-.168q.751 0 1.168.392.416.384.416 1.088v1.768q0 .24.224.24h.36v.536h-.552a.6.6 0 0 1-.424-.144.53.53 0 0 1-.16-.4v-.04h-.096a2 2 0 0 1-.24.32q-.144.16-.4.264-.256.112-.664.112m.072-.544q.56 0 .904-.328.352-.336.352-.936v-.088h-1.296q-.377 0-.624.168-.24.16-.24.488a.6.6 0 0 0 .248.512q.255.184.656.184m3.329.432v-3.912h.616v.48h.112a.73.73 0 0 1 .32-.376q.216-.12.568-.12h.464v.576h-.504q-.424 0-.688.24-.255.232-.256.728v2.384zm4.456 0q-.336 0-.52-.184-.177-.184-.176-.504v-2.672h-1.176v-.552h1.176v-1.392h.632v1.392h1.28v.552h-1.28v2.576q0 .24.232.24h.872v.544zm2.24 0v-3.912h.632v3.912zm.32-4.52a.465.465 0 0 1-.488-.48q0-.216.136-.352a.5.5 0 0 1 .352-.136q.207 0 .344.136a.48.48 0 0 1 .136.352.467.467 0 0 1-.48.48m3.08 4.52q-.336 0-.52-.184-.176-.184-.176-.504v-2.672h-1.176v-.552h1.176v-1.392h.632v1.392h1.28v.552h-1.28v2.576q0 .24.232.24h.872v.544zm2.24 0v-3.912h.632v3.912zm.32-4.52a.465.465 0 0 1-.488-.48q0-.216.136-.352a.5.5 0 0 1 .352-.136.465.465 0 0 1 .48.488.465.465 0 0 1-.48.48m3.449 4.632q-.592 0-1.048-.248a1.8 1.8 0 0 1-.704-.696q-.248-.456-.248-1.072v-.104q0-.608.248-1.064.256-.456.704-.704a2.16 2.16 0 0 1 1.048-.248q.592 0 1.04.248.456.248.704.704.256.456.256 1.064v.104q0 .616-.256 1.072-.248.449-.704.696a2.1 2.1 0 0 1-1.04.248m0-.568q.624 0 .992-.392.376-.4.376-1.072v-.072q0-.672-.376-1.064-.368-.4-.992-.4-.616 0-.992.4-.376.392-.376 1.064v.072q0 .672.376 1.072.376.392.992.392m3.137.456v-3.912h.616v.664h.112a1.3 1.3 0 0 1 .432-.504q.312-.232.912-.232.44 0 .784.184.353.184.56.544t.208.888v2.368h-.632v-2.32q0-.584-.296-.848-.288-.264-.784-.264-.567 0-.928.368-.351.368-.352 1.096v1.968zm6.937 0v-5.6h.672v5.6zm1.953 0v-5.6h.672v5.6zM222.382 193.523v-5.6h2.144q.504 0 .896.2.4.192.632.552t.232.872v.104q0 .504-.24.872-.231.36-.632.552a2 2 0 0 1-.888.192h-1.472v2.256zm.672-2.864h1.4q.536 0 .848-.264.312-.271.312-.76v-.08q0-.488-.312-.752-.303-.272-.848-.272h-1.4zm5.271 2.976a1.9 1.9 0 0 1-.744-.144 1.2 1.2 0 0 1-.528-.416 1.12 1.12 0 0 1-.192-.664q0-.4.192-.656.192-.263.528-.392.336-.135.752-.136h1.32v-.288q0-.416-.248-.656-.24-.24-.72-.24-.472 0-.736.232-.264.225-.36.608l-.592-.192q.096-.327.304-.592a1.46 1.46 0 0 1 .552-.432q.353-.168.84-.168.752 0 1.168.392.416.384.416 1.088v1.768q0 .24.224.24h.36v.536h-.552a.6.6 0 0 1-.424-.144.52.52 0 0 1-.16-.4v-.04h-.096a2 2 0 0 1-.24.32 1.06 1.06 0 0 1-.4.264q-.256.112-.664.112m.072-.544q.56 0 .904-.328.352-.336.352-.936v-.088h-1.296q-.376 0-.624.168-.24.16-.24.488 0 .329.248.512.256.184.656.184m3.33.432v-3.912h.616v.48h.112a.73.73 0 0 1 .32-.376q.216-.12.568-.12h.464v.576h-.504q-.424 0-.688.24-.256.233-.256.728v2.384zm4.455 0q-.336 0-.52-.184-.176-.183-.176-.504v-2.672h-1.176v-.552h1.176v-1.392h.632v1.392h1.28v.552h-1.28v2.576q0 .24.232.24h.872v.544zm2.24 0v-3.912h.632v3.912zm.32-4.52a.463.463 0 0 1-.488-.48q0-.216.136-.352a.5.5 0 0 1 .352-.136.47.47 0 0 1 .344.136.48.48 0 0 1 .136.352.467.467 0 0 1-.48.48m3.081 4.52q-.336 0-.52-.184-.176-.183-.176-.504v-2.672h-1.176v-.552h1.176v-1.392h.632v1.392h1.28v.552h-1.28v2.576q0 .24.232.24h.872v.544zm2.239 0v-3.912h.632v3.912zm.32-4.52a.5.5 0 0 1-.352-.136.47.47 0 0 1-.136-.344.48.48 0 0 1 .136-.352.5.5 0 0 1 .352-.136q.209 0 .344.136a.48.48 0 0 1 .136.352.463.463 0 0 1-.48.48m3.449 4.632q-.592 0-1.048-.248a1.8 1.8 0 0 1-.704-.696q-.248-.456-.248-1.072v-.104q0-.608.248-1.064.257-.456.704-.704a2.16 2.16 0 0 1 1.048-.248q.593 0 1.04.248.456.248.704.704.256.456.256 1.064v.104q0 .616-.256 1.072-.248.448-.704.696a2.1 2.1 0 0 1-1.04.248m0-.568q.624 0 .992-.392.376-.4.376-1.072v-.072q0-.671-.376-1.064-.368-.4-.992-.4-.615 0-.992.4-.375.393-.376 1.064v.072q0 .673.376 1.072.377.392.992.392m3.138.456v-3.912h.616v.664h.112q.127-.279.432-.504.312-.231.912-.232.44 0 .784.184.351.184.56.544.208.36.208.888v2.368h-.632v-2.32q0-.584-.296-.848-.288-.264-.784-.264-.568 0-.928.368-.352.369-.352 1.096v1.968zm6.937 0v-5.6h.672v5.6zm1.953 0v-5.6h.672v5.6zm1.953 0v-5.6h.672v5.6z"/><circle cx="195.5" cy="105.5" r="5.5" fill="#009fee"/><defs><filter id="a" width="80.57" height="80.572" x="80.18" y="65.309" color-interpolation-filters="sRGB" filterUnits="userSpaceOnUse"><feFlood flood-opacity="0" result="BackgroundImageFix"/><feColorMatrix in="SourceAlpha" result="hardAlpha" values="0 0 0 0 0 0 0 0 0 0 0 0 0 0 0 0 0 0 127 0"/><feOffset/><feGaussianBlur stdDeviation="5.41"/><feComposite in2="hardAlpha" operator="out"/><feColorMatrix values="0 0 0 0 0 0 0 0 0 0 0 0 0 0 0 0 0 0 0.08 0"/><feBlend in2="BackgroundImageFix" result="effect1_dropShadow_1118_3078"/><feBlend in="SourceGraphic" in2="effect1_dropShadow_1118_3078" result="shape"/></filter><filter id="b" width="55.312" height="55.316" x="213.828" y="9.311" color-interpolation-filters="sRGB" filterUnits="userSpaceOnUse"><feFlood flood-opacity="0" result="BackgroundImageFix"/><feColorMatrix in="SourceAlpha" result="hardAlpha" values="0 0 0 0 0 0 0 0 0 0 0 0 0 0 0 0 0 0 127 0"/><feOffset/><feGaussianBlur stdDeviation="5.41"/><feComposite in2="hardAlpha" operator="out"/><feColorMatrix values="0 0 0 0 0 0 0 0 0 0 0 0 0 0 0 0 0 0 0.08 0"/><feBlend in2="BackgroundImageFix" result="effect1_dropShadow_1118_3078"/><feBlend in="SourceGraphic" in2="effect1_dropShadow_1118_3078" result="shape"/></filter><filter id="c" width="55.312" height="55.316" x="213.828" y="72.899" color-interpolation-filters="sRGB" filterUnits="userSpaceOnUse"><feFlood flood-opacity="0" result="BackgroundImageFix"/><feColorMatrix in="SourceAlpha" result="hardAlpha" values="0 0 0 0 0 0 0 0 0 0 0 0 0 0 0 0 0 0 127 0"/><feOffset/><feGaussianBlur stdDeviation="5.41"/><feComposite in2="hardAlpha" operator="out"/><feColorMatrix values="0 0 0 0 0 0 0 0 0 0 0 0 0 0 0 0 0 0 0.08 0"/><feBlend in2="BackgroundImageFix" result="effect1_dropShadow_1118_3078"/><feBlend in="SourceGraphic" in2="effect1_dropShadow_1118_3078" result="shape"/></filter><filter id="d" width="55.312" height="55.316" x="213.828" y="136.489" color-interpolation-filters="sRGB" filterUnits="userSpaceOnUse"><feFlood flood-opacity="0" result="BackgroundImageFix"/><feColorMatrix in="SourceAlpha" result="hardAlpha" values="0 0 0 0 0 0 0 0 0 0 0 0 0 0 0 0 0 0 127 0"/><feOffset/><feGaussianBlur stdDeviation="5.41"/><feComposite in2="hardAlpha" operator="out"/><feColorMatrix values="0 0 0 0 0 0 0 0 0 0 0 0 0 0 0 0 0 0 0.08 0"/><feBlend in2="BackgroundImageFix" result="effect1_dropShadow_1118_3078"/><feBlend in="SourceGraphic" in2="effect1_dropShadow_1118_3078" result="shape"/></filter></defs></svg>