<svg xmlns="http://www.w3.org/2000/svg" width="32" height="32" fill="none" viewBox="0 0 32 32"><g clip-path="url(#a)"><path fill="#13aa52" d="M16 32.001c8.837 0 16-7.163 16-16s-7.163-16-16-16-16 7.164-16 16 7.163 16 16 16"/><path fill="#fff" d="M20.28 14.049c-1.01-4.46-3.398-5.927-3.655-6.487-.282-.396-.567-1.099-.567-1.099l-.02-.053c-.03.395-.045.548-.418.947-.58.452-3.549 2.944-3.79 8.011-.226 4.727 3.414 7.543 3.906 7.902l.056.04v-.004c.003.024.156 1.125.264 2.292h.385a23 23 0 0 1 .407-2.454l.03-.02q.33-.237.63-.514l.022-.02a9.07 9.07 0 0 0 2.909-6.767 11 11 0 0 0-.158-1.774M16.016 20.6s0-6.628.218-6.627c.171 0 .392 8.55.392 8.55-.304-.036-.61-1.407-.61-1.923"/></g><defs><clipPath id="a"><path fill="#fff" d="M0 0h32v32H0z"/></clipPath></defs></svg>