<svg xmlns="http://www.w3.org/2000/svg" width="488" height="46" fill="none" viewBox="0 0 488 46"><rect width="117.816" height="45.853" fill="#f3f3f3" rx="22.926"/><path fill="#193ae6" d="M30.143 26.11a2.55 2.55 0 0 0-2.468 1.911h-7.722a2.547 2.547 0 0 1 0-5.094h7.643a3.184 3.184 0 0 0 0-6.369h-7.643a.637.637 0 1 0 0 1.274h7.643a1.91 1.91 0 0 1 0 3.82h-7.643a3.821 3.821 0 0 0 0 7.643h7.722a2.548 2.548 0 1 0 2.468-3.184m0 3.822a1.273 1.273 0 1 1 0-2.547 1.273 1.273 0 0 1 0 2.547"/><path fill="#333" d="M44.2 27.926V17.227h4.249q.978 0 1.742.398.78.381 1.208 1.1.443.703.443 1.697v.198q0 .994-.459 1.712a2.93 2.93 0 0 1-1.207 1.1q-.764.383-1.727.383h-2.598v4.111zm1.65-5.609h2.43q.872 0 1.392-.459.52-.458.52-1.253v-.153q0-.81-.52-1.268-.52-.459-1.391-.459h-2.43zm10.163 5.823q-1.131 0-2.018-.458a3.5 3.5 0 0 1-1.375-1.345q-.505-.871-.505-2.064v-.229q0-1.192.505-2.048.504-.871 1.375-1.345.887-.474 2.018-.474t2.017.474a3.47 3.47 0 0 1 1.391 1.345q.504.855.504 2.048v.23q0 1.191-.504 2.063-.505.87-1.39 1.345-.888.458-2.018.458m0-1.406q1.04 0 1.68-.657.658-.673.658-1.85v-.137q0-1.177-.642-1.834-.642-.672-1.696-.673-1.024 0-1.682.673-.642.657-.642 1.834v.137q0 1.177.642 1.85.657.657 1.682.657m8.196 1.406q-1.437 0-2.385-.642t-1.161-1.94l1.467-.352q.122.626.412.993.291.367.719.52.443.153.947.153.75 0 1.147-.29.412-.291.412-.75 0-.458-.382-.672-.381-.214-1.13-.352l-.52-.091a6.8 6.8 0 0 1-1.391-.398 2.43 2.43 0 0 1-.994-.718q-.366-.459-.366-1.177 0-1.07.794-1.65.795-.597 2.11-.597 1.268 0 2.078.581.825.566 1.07 1.544l-1.467.412q-.137-.688-.581-.963-.444-.29-1.1-.29-.642 0-1.01.245a.73.73 0 0 0-.366.657q0 .459.352.672.366.214.978.321l.535.092q.81.139 1.482.382.673.245 1.055.703.397.459.397 1.223 0 1.131-.84 1.758-.84.626-2.263.626m6.841-.214q-.687 0-1.1-.412-.397-.413-.397-1.1V21.72h-2.079v-1.33h2.079V17.9h1.574v2.491h2.247v1.33h-2.247v4.417q0 .458.428.458h1.574v1.33zm2.773-3.73v-.228q0-1.193.474-2.033.489-.84 1.284-1.3a3.4 3.4 0 0 1 1.743-.458q1.1 0 1.68.413.597.412.872.886h.245v-1.085h1.528v9.079q0 .688-.413 1.1-.397.413-1.1.413h-5.074v-1.375h4.585q.443 0 .443-.459v-2.4h-.245q-.168.276-.473.566a2.3 2.3 0 0 1-.81.474q-.49.183-1.238.183a3.6 3.6 0 0 1-1.758-.443 3.4 3.4 0 0 1-1.269-1.3q-.474-.855-.474-2.032m3.928 2.4q1.025 0 1.682-.641.672-.657.672-1.804v-.137q0-1.177-.657-1.804-.657-.642-1.697-.642-1.008 0-1.68.642-.658.627-.658 1.803v.138q0 1.146.657 1.804.673.642 1.681.642m5.452 1.33v-7.535h1.543v.887h.245q.184-.474.58-.688.413-.23 1.01-.23h.901v1.422h-.963q-.765 0-1.253.428-.49.413-.49 1.284v4.432zm8.332.214q-1.146 0-2.003-.474a3.5 3.5 0 0 1-1.345-1.36q-.474-.886-.473-2.048v-.183q0-1.178.473-2.048a3.3 3.3 0 0 1 1.315-1.36q.855-.49 1.972-.49 1.085 0 1.895.49.825.472 1.284 1.329.458.856.458 2.002v.596h-5.793q.03.994.658 1.59.641.58 1.59.58.886 0 1.329-.397.459-.397.703-.917l1.3.673a4.4 4.4 0 0 1-.627.901 3.2 3.2 0 0 1-1.055.795q-.657.321-1.681.321m-2.201-4.753h4.172q-.06-.855-.611-1.33-.55-.489-1.437-.489-.886 0-1.452.49-.55.472-.672 1.329m9.995 4.753q-1.436 0-2.384-.642t-1.162-1.94l1.468-.352q.122.626.412.993t.719.52q.443.153.947.153.75 0 1.147-.29.412-.291.412-.75 0-.458-.382-.672t-1.13-.352l-.52-.091a6.8 6.8 0 0 1-1.391-.398 2.44 2.44 0 0 1-.994-.718q-.367-.459-.367-1.177 0-1.07.795-1.65.795-.597 2.11-.597 1.268 0 2.078.581.825.566 1.07 1.544l-1.467.412q-.138-.688-.581-.963-.444-.29-1.1-.29-.643 0-1.01.245a.73.73 0 0 0-.366.657q0 .459.351.672.367.214.979.321l.535.092q.81.139 1.482.382.672.245 1.055.703.397.459.397 1.223 0 1.131-.841 1.758-.84.626-2.262.626"/><rect width="164.947" height="45.853" x="323" fill="#f3f3f3" rx="22.926"/><path fill="#193ae6" d="M349.106 25.475v5.732a.635.635 0 0 1-.637.637.635.635 0 0 1-.637-.637v-5.732a.635.635 0 0 1 .637-.637.635.635 0 0 1 .637.637m5.732-5.094h-4.832l3.372-3.37a.639.639 0 0 0-.902-.902l-3.37 3.371V14.65a.635.635 0 0 0-.637-.637.635.635 0 0 0-.637.637v4.831l-3.37-3.371a.639.639 0 0 0-1.088.45c0 .17.067.332.187.451l3.371 3.37h-4.831a.64.64 0 0 0-.637.637.64.64 0 0 0 .637.637h4.831l-3.371 3.37a.636.636 0 0 0 .45 1.089.64.64 0 0 0 .451-.187l4.007-4.008 4.007 4.008a.65.65 0 0 0 .451.187.636.636 0 0 0 .451-1.088l-3.372-3.37h4.832a.64.64 0 0 0 .636-.638.64.64 0 0 0-.636-.636"/><path fill="#333" d="m367.277 27.926 3.057-10.699h2.904l3.042 10.7h-1.697l-.703-2.523h-4.188l-.703 2.522zm2.828-4.05h3.363l-1.559-5.625h-.245zm6.906 7.107V20.391h1.544v1.085h.244q.29-.504.871-.901.597-.398 1.697-.398a3.34 3.34 0 0 1 2.996 1.788q.489.856.489 2.08v.228q0 1.224-.474 2.094a3.36 3.36 0 0 1-1.269 1.315 3.4 3.4 0 0 1-1.742.458q-.734 0-1.238-.183a2.5 2.5 0 0 1-.81-.459 2.8 2.8 0 0 1-.489-.596h-.245v4.081zm3.897-4.218q1.04 0 1.697-.658.657-.656.657-1.88v-.137q0-1.208-.672-1.865-.657-.657-1.682-.657-1.008 0-1.681.657-.657.657-.657 1.865v.137q0 1.224.657 1.88.673.658 1.681.658m7.469 1.375q-.81 0-1.452-.275a2.4 2.4 0 0 1-1.009-.81q-.367-.535-.367-1.3 0-.779.367-1.283a2.3 2.3 0 0 1 1.024-.78q.657-.26 1.483-.26h2.292v-.488q0-.657-.397-1.055-.398-.397-1.223-.397-.81 0-1.238.382a1.83 1.83 0 0 0-.565.993l-1.468-.474q.184-.61.581-1.1a2.95 2.95 0 0 1 1.085-.81q.673-.306 1.62-.306 1.468 0 2.308.75.841.748.841 2.124v3.102q0 .459.428.459h.642v1.314h-1.177q-.535 0-.871-.275t-.337-.749v-.046h-.229a3.6 3.6 0 0 1-.367.535q-.244.306-.718.535-.474.214-1.253.214m.229-1.299q.948 0 1.528-.535.582-.55.581-1.498v-.153h-2.201q-.626 0-1.008.276-.383.26-.383.78 0 .518.398.824.397.306 1.085.306m8.81 1.3q-1.084 0-1.971-.46a3.5 3.5 0 0 1-1.391-1.329q-.505-.87-.505-2.094v-.199q0-1.223.505-2.078.52-.871 1.391-1.33a4.1 4.1 0 0 1 1.971-.474q1.086 0 1.85.398.764.397 1.222 1.054.474.657.612 1.452l-1.529.321a2.5 2.5 0 0 0-.321-.917 1.8 1.8 0 0 0-.687-.657q-.444-.245-1.116-.245-.657 0-1.192.306a2.1 2.1 0 0 0-.826.856q-.305.55-.305 1.345v.137q0 .796.305 1.36.306.567.826.857.535.29 1.192.29.993 0 1.513-.504.519-.52.657-1.315l1.529.352q-.184.78-.658 1.436-.458.658-1.222 1.055-.764.382-1.85.382m4.781-.215V17.227h1.574v4.234h.245q.153-.29.428-.566a2.1 2.1 0 0 1 .749-.443q.474-.183 1.192-.183.856 0 1.513.382.672.382 1.055 1.085.382.688.382 1.666v4.524h-1.574v-4.402q0-.977-.49-1.436-.489-.474-1.345-.474-.977 0-1.574.642-.58.642-.581 1.864v3.806zm12.094.214q-1.147 0-2.003-.474a3.5 3.5 0 0 1-1.345-1.36q-.474-.886-.474-2.048v-.183q0-1.178.474-2.048a3.3 3.3 0 0 1 1.315-1.36q.856-.49 1.971-.49 1.086 0 1.896.49.825.472 1.283 1.329.459.856.459 2.002v.596h-5.793q.031.994.658 1.59.64.58 1.589.58.886 0 1.33-.397.458-.397.703-.917l1.299.673a4.4 4.4 0 0 1-.627.901 3.2 3.2 0 0 1-1.054.795q-.658.321-1.681.321m-2.201-4.753h4.172q-.061-.855-.611-1.33-.55-.489-1.437-.489t-1.452.49q-.55.472-.672 1.329m9.993 4.54v-10.7h1.651v10.7zm6.663.213a4.2 4.2 0 0 1-1.972-.458 3.5 3.5 0 0 1-1.391-1.33q-.504-.87-.504-2.094v-.199q0-1.223.504-2.078a3.5 3.5 0 0 1 1.391-1.33 4.1 4.1 0 0 1 1.972-.474q1.085 0 1.849.398.764.397 1.223 1.054.474.657.611 1.452l-1.528.321a2.5 2.5 0 0 0-.321-.917 1.8 1.8 0 0 0-.688-.657q-.442-.245-1.116-.245a2.36 2.36 0 0 0-1.192.306 2.1 2.1 0 0 0-.825.856q-.306.55-.306 1.345v.137q0 .796.306 1.36.306.567.825.857.535.29 1.192.29.994 0 1.514-.504.519-.52.657-1.315l1.528.352q-.183.78-.657 1.436-.459.658-1.223 1.055-.764.382-1.849.382m8.235 0q-1.147 0-2.002-.474a3.5 3.5 0 0 1-1.345-1.36q-.474-.886-.474-2.048v-.183q0-1.178.474-2.048a3.3 3.3 0 0 1 1.314-1.36q.856-.49 1.972-.49 1.085 0 1.895.49.825.472 1.284 1.329.459.856.458 2.002v.596h-5.792q.03.994.657 1.59.642.58 1.59.58.887 0 1.329-.397.459-.397.703-.917l1.3.673a4.4 4.4 0 0 1-.627.901q-.398.474-1.055.795t-1.681.321m-2.201-4.753h4.173q-.062-.855-.612-1.33-.55-.489-1.436-.489t-1.452.49q-.55.472-.673 1.329m11.264 4.753q-1.1 0-1.696-.397-.581-.397-.871-.887h-.245v1.07h-1.544V17.227h1.575v4.188h.244q.183-.306.489-.58.306-.291.81-.474.505-.184 1.238-.184.948 0 1.743.459.794.458 1.268 1.33.474.87.474 2.078v.23q0 1.221-.489 2.093a3.36 3.36 0 0 1-1.269 1.315 3.34 3.34 0 0 1-1.727.458m-.458-1.375q1.024 0 1.681-.658.672-.656.673-1.88v-.137q0-1.208-.658-1.865-.657-.657-1.696-.657-1.009 0-1.682.657-.657.657-.657 1.865v.137q0 1.224.657 1.88.673.658 1.682.658m8.584 1.375q-1.147 0-2.002-.474a3.5 3.5 0 0 1-1.345-1.36q-.474-.886-.474-2.048v-.183q0-1.178.474-2.048a3.3 3.3 0 0 1 1.314-1.36q.856-.49 1.972-.49 1.085 0 1.895.49.825.472 1.284 1.329.458.856.458 2.002v.596h-5.792q.03.994.657 1.59.642.58 1.589.58.887 0 1.33-.397.459-.397.703-.917l1.299.673a4.4 4.4 0 0 1-.626.901q-.398.474-1.055.795-.658.321-1.681.321m-2.201-4.753h4.172q-.06-.855-.611-1.33-.55-.489-1.437-.489t-1.452.49q-.55.472-.672 1.329m6.908 4.54V20.39h1.544v.887h.244q.184-.474.581-.688.412-.23 1.009-.23h.902v1.422h-.963q-.765 0-1.254.428-.489.413-.489 1.284v4.432zm4.511-3.73v-.23q0-1.191.474-2.032a3.5 3.5 0 0 1 1.284-1.3 3.4 3.4 0 0 1 1.742-.458q1.1 0 1.681.413.596.412.872.886h.244v-1.085h1.529v9.079q0 .688-.413 1.1-.397.413-1.101.413h-5.074v-1.375h4.585q.444 0 .444-.459v-2.4h-.245q-.168.276-.474.566a2.3 2.3 0 0 1-.81.474q-.49.183-1.238.183a3.6 3.6 0 0 1-1.758-.443 3.4 3.4 0 0 1-1.268-1.3q-.474-.855-.474-2.032m3.928 2.4q1.024 0 1.681-.642.673-.657.673-1.804v-.137q0-1.177-.657-1.804-.658-.642-1.697-.642-1.009 0-1.681.642-.657.627-.657 1.803v.138q0 1.146.657 1.804.672.642 1.681.642"/><path stroke="#f3f3f3" stroke-width="4" d="M115 23h223"/></svg>