<svg xmlns="http://www.w3.org/2000/svg" width="242" height="244" fill="none" viewBox="0 0 242 244"><rect width="241" height="64" x=".5" fill="#fff" rx="16"/><path fill="#787878" d="M22.94 19.42q-.03-.54.11-1t.43-.79q.3-.34.74-.53a2.5 2.5 0 0 1 1-.19q.46 0 .86.14.41.13.71.39.3.25.47.63.18.38.18.88 0 .47-.15.83-.14.36-.38.65-.24.28-.55.51t-.64.44l-.66.4q-.33.19-.61.41-.27.22-.47.48-.19.25-.25.58h3.64V24h-4.63q.05-.63.22-1.07.18-.45.45-.78t.61-.58.71-.47q.45-.28.79-.51.34-.24.56-.48.23-.24.34-.52.12-.28.12-.65a1.23 1.23 0 0 0-.41-.93q-.18-.17-.43-.26a1.6 1.6 0 0 0-.53-.09q-.37 0-.64.16-.26.15-.43.4a1.8 1.8 0 0 0-.25.57 2.5 2.5 0 0 0-.06.63zm9.257-.7q-.06-.48-.37-.77t-.82-.29q-.54 0-.87.27a1.8 1.8 0 0 0-.52.67q-.18.4-.25.87a7 7 0 0 0-.08.88l.02.02q.3-.49.74-.71.45-.22 1.03-.22.51 0 .91.18.41.17.68.48.28.31.43.73t.15.91q0 .39-.12.81t-.4.77q-.27.34-.73.57-.45.22-1.12.22-.79 0-1.27-.32a2.2 2.2 0 0 1-.74-.82q-.26-.5-.35-1.1-.08-.6-.08-1.16 0-.73.12-1.41.13-.69.43-1.22t.8-.85 1.26-.32q.88 0 1.4.47.519.46.6 1.34zm-1.28 1.47q-.36 0-.63.13-.27.12-.46.34-.19.21-.29.51a2.1 2.1 0 0 0 .01 1.24q.1.29.28.5.19.21.46.34.279.12.63.12.35 0 .61-.12.27-.13.45-.35t.27-.5q.1-.29.1-.6 0-.33-.09-.62-.08-.3-.26-.51a1.3 1.3 0 0 0-.45-.35q-.27-.13-.63-.13m5.476-3.5h.73l-2.96 7.47h-.72zm1.87 3.82q0 .4.02.9.03.49.16.93.14.43.44.73t.84.3.84-.3.43-.73q.14-.44.16-.93a15 15 0 0 0 .02-1.47q0-.32-.05-.63a4 4 0 0 0-.13-.62 1.5 1.5 0 0 0-.25-.52 1.2 1.2 0 0 0-.41-.37 1.23 1.23 0 0 0-.61-.14q-.36 0-.61.14a1.3 1.3 0 0 0-.42.37q-.16.22-.25.52-.08.3-.13.62a7 7 0 0 0-.05.63zm-.9.01q0-.39.02-.81a5.5 5.5 0 0 1 .1-.82q.08-.4.23-.76t.41-.63.65-.43q.4-.16.95-.16t.94.16q.4.16.66.43t.41.63.23.76.1.82a17 17 0 0 1 0 1.62q-.02.42-.1.82t-.23.76q-.15.35-.41.62t-.65.43q-.39.15-.95.15-.55 0-.95-.15a1.9 1.9 0 0 1-.65-.43 2 2 0 0 1-.41-.62q-.15-.36-.23-.76a5.5 5.5 0 0 1-.1-.82q-.02-.42-.02-.81m5.577-1.1q-.03-.54.11-1t.43-.79q.3-.34.74-.53a2.5 2.5 0 0 1 1-.19q.46 0 .86.14.41.13.71.39.3.25.47.63.18.38.18.88 0 .47-.15.83-.14.36-.38.65-.24.28-.55.51t-.64.44l-.66.4q-.33.19-.61.41-.27.22-.47.48-.19.25-.25.58h3.64V24h-4.63q.05-.63.22-1.07.18-.45.45-.78t.61-.58.71-.47q.45-.28.79-.51.34-.24.56-.48.23-.24.34-.52.12-.28.12-.65a1.23 1.23 0 0 0-.41-.93q-.18-.17-.43-.26a1.6 1.6 0 0 0-.53-.09q-.37 0-.64.16-.26.15-.43.4a1.8 1.8 0 0 0-.25.57 2.5 2.5 0 0 0-.06.63zm7.897-2.73h.73l-2.96 7.47h-.72zm.99 2.73q-.03-.54.11-1a2.1 2.1 0 0 1 .43-.79q.3-.34.74-.53a2.5 2.5 0 0 1 1-.19q.46 0 .86.14.41.13.71.39.3.25.47.63.18.38.18.88 0 .47-.15.83-.14.36-.38.65-.24.28-.55.51t-.64.44l-.66.4q-.33.19-.61.41-.27.22-.47.48a1.34 1.34 0 0 0-.25.58h3.64V24h-4.63q.05-.63.22-1.07.18-.45.45-.78t.61-.58.71-.47q.45-.28.79-.51.34-.24.56-.48a1.639 1.639 0 0 0 .46-1.17 1.23 1.23 0 0 0-.41-.93q-.18-.17-.43-.26a1.6 1.6 0 0 0-.53-.09q-.37 0-.64.16a1.3 1.3 0 0 0-.43.4 1.8 1.8 0 0 0-.25.57 2.5 2.5 0 0 0-.06.63zm6.436 1.09q0 .4.02.9.03.49.16.93.14.43.44.73t.84.3.84-.3.43-.73q.14-.44.16-.93a15 15 0 0 0 .02-1.47q0-.32-.05-.63a4 4 0 0 0-.13-.62 1.5 1.5 0 0 0-.25-.52 1.2 1.2 0 0 0-.41-.37 1.23 1.23 0 0 0-.61-.14q-.36 0-.61.14a1.3 1.3 0 0 0-.42.37q-.16.22-.25.52-.08.3-.13.62a7 7 0 0 0-.05.63zm-.9.01q0-.39.02-.81a5.5 5.5 0 0 1 .1-.82q.08-.4.23-.76t.41-.63.65-.43q.4-.16.95-.16t.94.16q.4.16.66.43t.41.63.23.76.1.82a17 17 0 0 1 0 1.62q-.02.42-.1.82t-.23.76q-.15.35-.41.62t-.65.43q-.39.15-.95.15-.55 0-.95-.15a1.9 1.9 0 0 1-.65-.43 2 2 0 0 1-.41-.62q-.15-.36-.23-.76a5.5 5.5 0 0 1-.1-.82q-.02-.42-.02-.81m5.577-1.1q-.03-.54.11-1t.43-.79q.3-.34.74-.53a2.5 2.5 0 0 1 1-.19q.46 0 .86.14.41.13.71.39.3.25.47.63.18.38.18.88 0 .47-.15.83-.14.36-.38.65-.24.28-.55.51t-.64.44l-.66.4q-.33.19-.61.41-.27.22-.47.48-.19.25-.25.58h3.64V24h-4.63q.05-.63.22-1.07.18-.45.45-.78t.61-.58.71-.47q.45-.28.79-.51.34-.24.56-.48.23-.24.34-.52.12-.28.12-.65a1.23 1.23 0 0 0-.41-.93q-.18-.17-.43-.26a1.6 1.6 0 0 0-.53-.09q-.37 0-.64.16-.26.15-.43.4a1.8 1.8 0 0 0-.25.57 2.5 2.5 0 0 0-.06.63zm9.817-1.64h-2.86l-.38 2.04.02.02q.23-.26.59-.38.37-.13.73-.13.47 0 .89.15t.73.46q.31.3.49.76.18.45.18 1.06 0 .45-.16.88-.15.42-.46.75t-.78.53q-.46.19-1.08.19-.46 0-.87-.13a2.4 2.4 0 0 1-.71-.39 1.9 1.9 0 0 1-.49-.64 2.1 2.1 0 0 1-.19-.86h.85q.02.27.13.51.12.23.31.41.2.17.46.27.27.09.59.09.3 0 .57-.1a1.3 1.3 0 0 0 .48-.32q.21-.21.33-.52a2.1 2.1 0 0 0 .12-.74q0-.35-.12-.64-.11-.3-.32-.51-.21-.22-.51-.34-.29-.12-.65-.12-.42 0-.75.19-.321.18-.57.48l-.73-.04.66-3.68h3.5z"/><circle cx="78.5" cy="20" r="1" fill="#d9d9d9"/><path fill="#787878" d="M83.82 20.51q0 .4.02.9.03.49.16.93.14.43.44.73t.84.3.84-.3.43-.73q.14-.44.16-.93a15 15 0 0 0 .02-1.47q0-.32-.05-.63a4 4 0 0 0-.13-.62 1.5 1.5 0 0 0-.25-.52 1.2 1.2 0 0 0-.41-.37 1.23 1.23 0 0 0-.61-.14q-.36 0-.61.14a1.3 1.3 0 0 0-.42.37q-.16.22-.25.52-.08.3-.13.62a7 7 0 0 0-.05.63zm-.9.01q0-.39.02-.81t.1-.82.23-.76.41-.63.65-.43q.4-.16.95-.16t.94.16q.4.16.66.43t.41.63.23.76.1.82a17 17 0 0 1 0 1.62q-.02.42-.1.82t-.23.76q-.15.35-.41.62t-.65.43q-.39.15-.95.15-.55 0-.95-.15a1.9 1.9 0 0 1-.65-.43 2 2 0 0 1-.41-.62q-.15-.36-.23-.76a5.5 5.5 0 0 1-.1-.82q-.02-.42-.02-.81m6.457-.01q0 .4.02.9.03.49.16.93.14.43.44.73t.84.3.84-.3.43-.73q.14-.44.16-.93a15 15 0 0 0 .02-1.47q0-.32-.05-.63a4 4 0 0 0-.13-.62 1.5 1.5 0 0 0-.25-.52 1.2 1.2 0 0 0-.41-.37 1.23 1.23 0 0 0-.61-.14q-.36 0-.61.14a1.3 1.3 0 0 0-.42.37q-.16.22-.25.52-.08.3-.13.62a7 7 0 0 0-.05.63zm-.9.01q0-.39.02-.81t.1-.82.23-.76.41-.63.65-.43q.4-.16.95-.16t.94.16q.399.16.66.43.26.27.41.63t.23.76a5.5 5.5 0 0 1 .1.82 17 17 0 0 1 0 1.62 5.5 5.5 0 0 1-.1.82q-.08.4-.23.76-.15.35-.41.62t-.65.43q-.39.15-.95.15-.55 0-.95-.15a1.9 1.9 0 0 1-.65-.43 2 2 0 0 1-.41-.62q-.15-.36-.23-.76a5.5 5.5 0 0 1-.1-.82q-.02-.42-.02-.81m7.076-.58h-1.11v-1.11h1.11zm-1.11 2.95h1.11V24h-1.11zm3.273-2.38q0 .4.02.9.03.49.16.93.14.43.44.73t.84.3.84-.3.43-.73q.14-.44.16-.93a15 15 0 0 0 .02-1.47q0-.32-.05-.63a4 4 0 0 0-.13-.62 1.4 1.4 0 0 0-.25-.52 1.2 1.2 0 0 0-.41-.37 1.23 1.23 0 0 0-.61-.14q-.36 0-.61.14a1.3 1.3 0 0 0-.42.37q-.16.22-.25.52-.08.3-.13.62a7 7 0 0 0-.05.63zm-.9.01q0-.39.02-.81t.1-.82.23-.76.41-.63.65-.43q.4-.16.95-.16t.94.16a1.85 1.85 0 0 1 1.07 1.06q.15.36.23.76t.1.82a16 16 0 0 1 0 1.62q-.02.42-.1.82t-.23.76q-.15.35-.41.62t-.65.43q-.39.15-.95.15-.55 0-.95-.15a1.9 1.9 0 0 1-.65-.43 2 2 0 0 1-.41-.62q-.15-.36-.23-.76a5.5 5.5 0 0 1-.1-.82q-.02-.42-.02-.81m10.227-2.76q-.54.53-1.01 1.26a12 12 0 0 0-.84 1.56q-.36.83-.59 1.71a9 9 0 0 0-.28 1.71h-.95q.06-.9.29-1.75.24-.86.61-1.64.37-.79.85-1.49.49-.7 1.05-1.29h-3.72v-.8h4.59zm2.407 2.18h-1.11v-1.11h1.11zm-1.11 2.95h1.11V24h-1.11zm2.393-3.47q-.03-.54.11-1t.43-.79q.3-.34.74-.53a2.5 2.5 0 0 1 1-.19q.46 0 .86.14.41.13.71.39.3.25.47.63.18.38.18.88 0 .47-.15.83-.14.36-.38.65-.24.28-.55.51t-.64.44l-.66.4q-.33.19-.61.41-.27.22-.47.48-.19.25-.25.58h3.64V24h-4.63q.05-.63.22-1.07.18-.45.45-.78t.61-.58.71-.47q.45-.28.79-.51.34-.24.56-.48.23-.24.34-.52.12-.28.12-.65 0-.29-.11-.52a1.2 1.2 0 0 0-.3-.41q-.18-.17-.43-.26a1.6 1.6 0 0 0-.53-.09q-.37 0-.64.16-.26.15-.43.4a1.8 1.8 0 0 0-.25.57 2.5 2.5 0 0 0-.06.63zm7.297.53q.05.01.09.01h.28q.27 0 .51-.07.25-.08.43-.22.189-.15.3-.37t.11-.5q0-.57-.36-.85-.36-.29-.9-.29-.34 0-.6.13-.25.12-.42.33a1.5 1.5 0 0 0-.24.49q-.08.28-.08.59h-.85q.02-.51.16-.93.15-.42.42-.72t.67-.47q.41-.17.94-.17.46 0 .85.12.399.11.69.34t.45.59q.17.36.17.85 0 .48-.28.85t-.7.56v.02q.65.14.96.61.32.47.32 1.11 0 .53-.2.94-.19.4-.52.67t-.78.41q-.44.13-.94.13-.54 0-.98-.15a2 2 0 0 1-.75-.44 2 2 0 0 1-.48-.73 2.6 2.6 0 0 1-.15-.98h.85q.02.69.4 1.13.38.43 1.11.43.31 0 .59-.09.28-.1.49-.27.21-.18.33-.43.13-.26.13-.58 0-.33-.12-.58a1.2 1.2 0 0 0-.32-.43 1.2 1.2 0 0 0-.48-.26q-.27-.09-.59-.09-.27 0-.51.03z"/><path fill="#000" d="M23.564 35.007h1.749V45h-1.75zm3.67 2.757h1.512v1.064l.028.028q.364-.602.952-.938.588-.35 1.302-.35 1.19 0 1.875.616.686.616.686 1.848V45h-1.596v-4.548q-.028-.854-.364-1.232-.335-.392-1.05-.392-.405 0-.727.154a1.5 1.5 0 0 0-.546.406q-.224.252-.35.602t-.126.741V45h-1.595zm14.727 6.858q0 1.638-.924 2.435-.91.812-2.63.812-.547 0-1.106-.112-.546-.112-1.008-.378a2.5 2.5 0 0 1-.756-.7q-.307-.433-.364-1.063h1.596q.07.336.238.546t.392.322q.237.126.517.153.28.042.588.042.966 0 1.414-.475.447-.477.447-1.372v-1.106h-.028a2.4 2.4 0 0 1-.923.938 2.4 2.4 0 0 1-1.246.336q-.868 0-1.483-.294a3 3 0 0 1-1.008-.826 3.6 3.6 0 0 1-.574-1.217 5.7 5.7 0 0 1-.182-1.47q0-.728.224-1.385.224-.658.644-1.148.42-.504 1.022-.798.615-.294 1.385-.294.685 0 1.26.294.573.28.881.896h.028v-.994h1.596zm-3.54-.882q.53 0 .895-.21.377-.224.602-.573.237-.365.336-.812a4 4 0 0 0 .111-.924q0-.462-.111-.895a2.3 2.3 0 0 0-.35-.77 1.6 1.6 0 0 0-.602-.532q-.365-.196-.882-.196-.532 0-.895.224a1.8 1.8 0 0 0-.588.588q-.225.35-.322.812a4.2 4.2 0 0 0-.098.895q0 .449.112.882.111.42.336.756.237.336.587.546.364.21.868.21m10.115-2.995a2.4 2.4 0 0 0-.168-.727 1.7 1.7 0 0 0-.364-.602 1.6 1.6 0 0 0-.56-.42 1.55 1.55 0 0 0-.728-.168q-.42 0-.77.154-.336.14-.587.406-.239.252-.392.602a2.2 2.2 0 0 0-.154.755zm-3.723 1.05q0 .42.112.812.126.392.364.686.237.294.602.475.363.168.867.168.7 0 1.12-.294.434-.307.644-.91h1.511a3 3 0 0 1-.434 1.05q-.307.463-.741.784-.434.308-.98.462a3.7 3.7 0 0 1-1.12.168q-.854 0-1.511-.28a3.2 3.2 0 0 1-1.12-.784 3.5 3.5 0 0 1-.686-1.203 5 5 0 0 1-.224-1.54q0-.77.238-1.455.252-.7.7-1.218a3.4 3.4 0 0 1 1.106-.84q.644-.307 1.455-.307.855 0 1.526.363.686.35 1.133.938.449.588.644 1.358.21.755.112 1.567zm7.734.882q.07.7.532.98t1.106.28q.224 0 .504-.029.294-.041.546-.14a1 1 0 0 0 .406-.28.7.7 0 0 0 .153-.503.7.7 0 0 0-.223-.504 1.5 1.5 0 0 0-.546-.308 4.4 4.4 0 0 0-.742-.21q-.42-.084-.854-.182a9 9 0 0 1-.867-.238 3 3 0 0 1-.742-.378 1.8 1.8 0 0 1-.518-.602q-.196-.378-.196-.923 0-.588.28-.98.294-.405.728-.644.447-.252.98-.35.544-.097 1.035-.097.56 0 1.064.125.518.113.923.378.42.266.686.7.28.42.35 1.022h-1.666q-.111-.575-.531-.77a2.1 2.1 0 0 0-.938-.196q-.168 0-.406.028-.224.028-.434.112a.8.8 0 0 0-.336.224.5.5 0 0 0-.14.378.62.62 0 0 0 .196.476q.21.182.532.308.336.111.756.196.42.084.868.181.434.099.853.238.42.141.742.378.336.239.532.602.21.364.21.896 0 .644-.294 1.091a2.3 2.3 0 0 1-.77.728 3.4 3.4 0 0 1-1.035.406 5.3 5.3 0 0 1-2.408-.028 3.1 3.1 0 0 1-1.007-.462 2.5 2.5 0 0 1-.672-.784q-.239-.475-.252-1.12zm5.327-4.913h1.203v-2.169h1.596v2.17h1.441v1.189h-1.441v3.863q0 .252.014.434a.9.9 0 0 0 .098.308q.084.126.237.195.154.056.42.056h.336a2 2 0 0 0 .336-.056v1.232l-.518.056a5 5 0 0 1-.518.028q-.63 0-1.021-.112a1.5 1.5 0 0 1-.602-.35 1.34 1.34 0 0 1-.294-.588 5 5 0 0 1-.084-.797v-4.269h-1.203zm5.43-2.757h1.595v1.512h-1.595zm0 2.757h1.595V45h-1.595zm6.65 7.432q-.867 0-1.553-.28a3.5 3.5 0 0 1-1.148-.798 3.5 3.5 0 0 1-.713-1.203 4.8 4.8 0 0 1-.238-1.54q0-.825.238-1.525.252-.7.713-1.204.477-.504 1.148-.784.686-.294 1.553-.294.868 0 1.54.294.686.28 1.148.784.476.504.713 1.204.252.7.252 1.525 0 .84-.252 1.54a3.29 3.29 0 0 1-1.861 2.001q-.672.28-1.54.28m0-1.26q.532 0 .924-.224t.644-.587a2.5 2.5 0 0 0 .364-.812q.126-.462.126-.938 0-.462-.126-.923a2.3 2.3 0 0 0-.364-.812 1.95 1.95 0 0 0-.644-.588 1.83 1.83 0 0 0-.924-.224 1.83 1.83 0 0 0-.923.224q-.392.224-.644.588a2.5 2.5 0 0 0-.378.812 3.9 3.9 0 0 0 0 1.86q.126.45.378.813t.644.587q.392.224.923.224m4.98-6.172h1.511v1.064l.028.028q.364-.602.952-.938.588-.35 1.301-.35 1.19 0 1.876.616t.685 1.848V45h-1.595v-4.548q-.028-.854-.364-1.232-.336-.392-1.05-.392-.405 0-.727.154a1.5 1.5 0 0 0-.546.406q-.225.252-.35.602-.126.35-.126.741V45h-1.595zm12.155-2.757h1.75v8.482h5.08V45h-6.83zm11.13 10.189q-.87 0-1.554-.28a3.5 3.5 0 0 1-1.148-.798 3.5 3.5 0 0 1-.713-1.203 4.8 4.8 0 0 1-.238-1.54q0-.825.237-1.525.253-.7.714-1.204.476-.504 1.148-.784.686-.294 1.553-.294.868 0 1.54.294.686.28 1.147.784.477.504.714 1.204.252.7.252 1.525 0 .84-.252 1.54a3.2 3.2 0 0 1-.714 1.203q-.461.504-1.147.798-.672.28-1.54.28m0-1.26q.531 0 .923-.224t.644-.587q.252-.365.364-.812.126-.462.126-.938 0-.462-.126-.923a2.3 2.3 0 0 0-.364-.812 1.95 1.95 0 0 0-.644-.588 1.83 1.83 0 0 0-.924-.224 1.83 1.83 0 0 0-.923.224q-.392.224-.644.588a2.5 2.5 0 0 0-.378.812 3.9 3.9 0 0 0 0 1.86q.126.45.378.813t.644.587q.391.224.923.224m11.668.686q0 1.638-.923 2.435-.91.812-2.632.812a5.6 5.6 0 0 1-1.105-.112 3.4 3.4 0 0 1-1.008-.378 2.5 2.5 0 0 1-.756-.7q-.307-.433-.363-1.063h1.595q.07.336.238.546t.392.322q.237.126.518.153.28.042.587.042.966 0 1.414-.475.448-.477.448-1.372v-1.106h-.028a2.4 2.4 0 0 1-.924.938 2.4 2.4 0 0 1-1.245.336q-.868 0-1.484-.294a3 3 0 0 1-1.008-.826 3.6 3.6 0 0 1-.573-1.217 5.7 5.7 0 0 1-.182-1.47q0-.728.224-1.385.223-.658.643-1.148.42-.504 1.022-.798a3.2 3.2 0 0 1 1.386-.294q.686 0 1.259.294.575.28.882.896h.028v-.994h1.595zm-3.541-.882q.533 0 .896-.21.378-.224.602-.573.239-.365.336-.812.111-.462.112-.924a3.6 3.6 0 0 0-.112-.895 2.3 2.3 0 0 0-.35-.77 1.6 1.6 0 0 0-.602-.532q-.363-.196-.882-.196-.532 0-.895.224-.364.224-.588.588a2.4 2.4 0 0 0-.322.812 4.2 4.2 0 0 0-.098.895q0 .449.112.882.112.42.336.756.238.336.588.546.364.21.867.21m6.351-1.063q.07.7.532.98t1.106.28q.224 0 .503-.029.294-.041.546-.14a1 1 0 0 0 .406-.28.7.7 0 0 0 .154-.503.7.7 0 0 0-.224-.504 1.5 1.5 0 0 0-.546-.308 4.4 4.4 0 0 0-.741-.21q-.42-.084-.854-.182a8 8 0 0 1-.868-.238 3 3 0 0 1-.742-.378 1.8 1.8 0 0 1-.517-.602q-.196-.378-.196-.923 0-.588.28-.98.293-.405.727-.644.448-.252.98-.35a6 6 0 0 1 1.036-.097q.56 0 1.063.125.517.113.924.378.42.266.686.7.28.42.35 1.022h-1.666q-.112-.575-.532-.77a2.1 2.1 0 0 0-.937-.196q-.168 0-.406.028-.225.028-.434.112a.8.8 0 0 0-.336.224.51.51 0 0 0-.14.378q0 .293.196.476.21.182.532.308.336.111.756.196.42.084.867.181.434.099.854.238.42.141.742.378.336.239.532.602.21.364.209.896 0 .644-.293 1.091a2.3 2.3 0 0 1-.77.728 3.4 3.4 0 0 1-1.036.406 5.3 5.3 0 0 1-2.407-.028 3.1 3.1 0 0 1-1.008-.462 2.5 2.5 0 0 1-.671-.784q-.239-.475-.252-1.12z"/><rect width="241" height="48" x=".5" y="76" fill="#fff" rx="12"/><path fill="#fff1f0" d="M17.5 93a4 4 0 0 1 4-4h46a4 4 0 0 1 4 4v14a4 4 0 0 1-4 4h-46a4 4 0 0 1-4-4z"/><path fill="#f5222d" d="M31.936 95.432h5.916v.96h-4.776v2.724h4.452v.96h-4.452v2.964h4.812v.96h-5.952zm7.132 2.364h.96v1.308h.024q.372-.756.912-1.116t1.368-.336v1.08q-.612 0-1.044.168t-.696.492-.384.792a4.2 4.2 0 0 0-.12 1.056V104h-1.02zm3.996 0h.96v1.308h.024q.372-.756.912-1.116t1.368-.336v1.08q-.612 0-1.044.168t-.696.492-.384.792a4.2 4.2 0 0 0-.12 1.056V104h-1.02zm4.565 3.108q0 .564.144 1.008.156.432.42.732.264.288.612.444a1.88 1.88 0 0 0 1.5 0q.36-.156.624-.444.264-.3.408-.732a3 3 0 0 0 .156-1.008q0-.564-.156-.996a2.1 2.1 0 0 0-.408-.744 1.75 1.75 0 0 0-.624-.456 1.881 1.881 0 0 0-1.5 0 1.8 1.8 0 0 0-.612.456 2.2 2.2 0 0 0-.42.744q-.144.432-.144.996m-1.08 0q0-.684.192-1.272.192-.6.576-1.032.384-.444.948-.696a3.15 3.15 0 0 1 1.296-.252q.744 0 1.296.252.564.252.948.696.384.432.576 1.032.192.588.192 1.272t-.192 1.272-.576 1.032a2.75 2.75 0 0 1-.948.684q-.552.24-1.296.24-.732 0-1.296-.24a2.75 2.75 0 0 1-.948-.684 3 3 0 0 1-.576-1.032 4 4 0 0 1-.192-1.272m7.19-3.108h.96v1.308h.025q.372-.756.912-1.116t1.368-.336v1.08q-.612 0-1.044.168t-.696.492-.384.792a4.2 4.2 0 0 0-.12 1.056V104h-1.02zM86.704 96.432H88.3L91.6 105h-1.608l-.804-2.268h-3.42L84.964 105h-1.548zm-.528 5.16h2.616l-1.284-3.684h-.036zm6.048-2.796h1.296v.912l.024.024q.312-.516.816-.804.504-.3 1.116-.3 1.02 0 1.608.528t.588 1.584V105h-1.368v-3.9q-.024-.732-.312-1.056-.288-.336-.9-.336-.348 0-.624.132a1.26 1.26 0 0 0-.468.348 1.6 1.6 0 0 0-.3.516q-.108.3-.108.636V105h-1.368zm14.49 2.556a2.1 2.1 0 0 0-.144-.624 1.5 1.5 0 0 0-.312-.516 1.36 1.36 0 0 0-.48-.36 1.3 1.3 0 0 0-.624-.144q-.36 0-.66.132-.288.12-.504.348a1.8 1.8 0 0 0-.336.516q-.12.3-.132.648zm-3.192.9q0 .36.096.696.108.336.312.588t.516.408q.312.144.744.144.6 0 .96-.252.372-.264.552-.78h1.296a2.6 2.6 0 0 1-.372.9 2.7 2.7 0 0 1-.636.672 2.7 2.7 0 0 1-.84.396 3.2 3.2 0 0 1-.96.144q-.732 0-1.296-.24a2.7 2.7 0 0 1-.96-.672 3 3 0 0 1-.588-1.032q-.192-.6-.192-1.32 0-.66.204-1.248.216-.6.6-1.044.396-.456.948-.72a2.86 2.86 0 0 1 1.248-.264q.732 0 1.308.312.588.3.972.804t.552 1.164q.18.648.096 1.344zm5.6-3.456h1.284v1.2h.024q.06-.252.228-.492.18-.24.42-.432a2.1 2.1 0 0 1 .552-.324q.3-.12.612-.12.24 0 .324.012l.192.024v1.32a3 3 0 0 0-.3-.036 2 2 0 0 0-.288-.024q-.348 0-.66.144-.3.132-.528.408a1.9 1.9 0 0 0-.36.66 2.9 2.9 0 0 0-.132.912V105h-1.368zm4.219 0h1.284v1.2h.024q.06-.252.228-.492.18-.24.42-.432a2.1 2.1 0 0 1 .552-.324q.3-.12.612-.12.24 0 .324.012l.192.024v1.32a3 3 0 0 0-.3-.036 2 2 0 0 0-.288-.024q-.348 0-.66.144-.3.132-.528.408a1.9 1.9 0 0 0-.36.66 2.9 2.9 0 0 0-.132.912V105h-1.368zm6.852 6.372q-.744 0-1.332-.24a3 3 0 0 1-.984-.684 3 3 0 0 1-.612-1.032q-.204-.6-.204-1.32 0-.708.204-1.308.216-.6.612-1.032.408-.432.984-.672a3.35 3.35 0 0 1 1.332-.252q.744 0 1.32.252.588.24.984.672.408.432.612 1.032.216.6.216 1.308 0 .72-.216 1.32-.204.6-.612 1.032a2.8 2.8 0 0 1-.984.684q-.576.24-1.32.24m0-1.08a1.57 1.57 0 0 0 1.344-.696 2.1 2.1 0 0 0 .312-.696q.108-.396.108-.804 0-.396-.108-.792a2 2 0 0 0-.312-.696 1.57 1.57 0 0 0-1.344-.696 1.57 1.57 0 0 0-1.344.696q-.216.3-.324.696a3.35 3.35 0 0 0 0 1.596q.108.384.324.696t.552.504.792.192m4.269-5.292h1.284v1.2h.024q.06-.252.228-.492.18-.24.42-.432a2.1 2.1 0 0 1 .552-.324q.3-.12.612-.12.24 0 .324.012l.192.024v1.32a3 3 0 0 0-.3-.036 2 2 0 0 0-.288-.024q-.348 0-.66.144-.3.132-.528.408a1.9 1.9 0 0 0-.36.66 2.9 2.9 0 0 0-.132.912V105h-1.368zm7.559-2.364h1.368v3.18h.024a1.96 1.96 0 0 1 .744-.696 2.2 2.2 0 0 1 1.116-.288q1.02 0 1.608.528t.588 1.584V105h-1.368v-3.9q-.024-.732-.312-1.056-.288-.336-.9-.336-.348 0-.624.132a1.26 1.26 0 0 0-.468.348 1.6 1.6 0 0 0-.3.516q-.108.3-.108.636V105h-1.368zm12.086 7.188q0 .252.06.36.072.108.264.108h.144q.084 0 .192-.024v.948a2 2 0 0 1-.192.048 2 2 0 0 1-.228.06 2.5 2.5 0 0 1-.444.048q-.42 0-.696-.168t-.36-.588a2.4 2.4 0 0 1-1.008.576q-.588.18-1.14.18-.42 0-.804-.12a2.2 2.2 0 0 1-.684-.324 1.8 1.8 0 0 1-.468-.564 1.8 1.8 0 0 1-.168-.804q0-.576.204-.936.216-.36.552-.564a2.5 2.5 0 0 1 .768-.288q.432-.096.864-.144.372-.072.708-.096.336-.036.588-.108a.9.9 0 0 0 .408-.216q.156-.156.156-.456a.68.68 0 0 0-.132-.432.74.74 0 0 0-.312-.252 1.1 1.1 0 0 0-.408-.12 3 3 0 0 0-.432-.036q-.576 0-.948.24t-.42.744h-1.368q.036-.6.288-.996t.636-.636q.396-.24.888-.336a5.3 5.3 0 0 1 1.008-.096q.456 0 .9.096t.792.312q.36.216.576.564.216.336.216.828zm-1.368-1.728a1.7 1.7 0 0 1-.768.252 9 9 0 0 0-.912.12q-.216.036-.42.108-.204.06-.36.18a.8.8 0 0 0-.252.3q-.084.18-.084.444 0 .228.132.384t.312.252q.192.084.408.12.228.036.408.036.228 0 .492-.06t.492-.204q.24-.144.396-.36a.95.95 0 0 0 .156-.552zm3.872 1.116q.06.6.456.84t.948.24q.192 0 .432-.024.252-.036.468-.12a.85.85 0 0 0 .348-.24.6.6 0 0 0 .132-.432.6.6 0 0 0-.192-.432q-.18-.168-.468-.264a4 4 0 0 0-.636-.18q-.36-.072-.732-.156a7 7 0 0 1-.744-.204 2.5 2.5 0 0 1-.636-.324 1.54 1.54 0 0 1-.444-.516q-.168-.324-.168-.792 0-.504.24-.84.252-.348.624-.552.384-.216.84-.3.468-.084.888-.084.48 0 .912.108.444.096.792.324.36.228.588.6.24.36.3.876h-1.428q-.096-.492-.456-.66a1.8 1.8 0 0 0-.804-.168q-.144 0-.348.024a1.5 1.5 0 0 0-.372.096.7.7 0 0 0-.288.192.44.44 0 0 0-.12.324.53.53 0 0 0 .168.408q.18.156.456.264.288.096.648.168t.744.156q.372.084.732.204t.636.324q.288.204.456.516.18.312.18.768 0 .552-.252.936a2 2 0 0 1-.66.624q-.396.24-.888.348a4.5 4.5 0 0 1-2.064-.024 2.7 2.7 0 0 1-.864-.396 2.1 2.1 0 0 1-.576-.672 2.2 2.2 0 0 1-.216-.96zm11.375 2.16q-.744 0-1.332-.24a3 3 0 0 1-.984-.684 3 3 0 0 1-.612-1.032q-.204-.6-.204-1.32 0-.708.204-1.308.216-.6.612-1.032.408-.432.984-.672a3.35 3.35 0 0 1 1.332-.252q.744 0 1.32.252.588.24.984.672.408.432.612 1.032.216.6.216 1.308 0 .72-.216 1.32-.204.6-.612 1.032a2.8 2.8 0 0 1-.984.684q-.576.24-1.32.24m0-1.08a1.57 1.57 0 0 0 1.344-.696 2.1 2.1 0 0 0 .312-.696q.108-.396.108-.804 0-.396-.108-.792a2 2 0 0 0-.312-.696 1.57 1.57 0 0 0-1.344-.696 1.57 1.57 0 0 0-1.344.696q-.216.3-.324.696a3.35 3.35 0 0 0 0 1.596q.108.384.324.696t.552.504.792.192m8.457-3.216q-.084-.576-.468-.864-.372-.3-.948-.3-.264 0-.564.096-.3.084-.552.336-.252.24-.42.684-.168.432-.168 1.14 0 .384.084.768.096.384.288.684.204.3.516.492.312.18.756.18.6 0 .984-.372.396-.372.492-1.044h1.368q-.192 1.212-.924 1.86-.72.636-1.92.636-.732 0-1.296-.24a2.9 2.9 0 0 1-.936-.672 3 3 0 0 1-.588-1.02 4 4 0 0 1-.192-1.272q0-.696.192-1.308t.576-1.056q.384-.456.948-.708.576-.264 1.344-.264.54 0 1.02.144.492.132.864.408.384.276.624.696t.288.996zm6.668 0q-.084-.576-.468-.864-.372-.3-.948-.3-.264 0-.564.096-.3.084-.552.336-.252.24-.42.684-.168.432-.168 1.14 0 .384.084.768.096.384.288.684.204.3.516.492.312.18.756.18.6 0 .984-.372.396-.372.492-1.044h1.368q-.192 1.212-.924 1.86-.72.636-1.92.636-.732 0-1.296-.24a2.9 2.9 0 0 1-.936-.672 3 3 0 0 1-.588-1.02 4 4 0 0 1-.192-1.272q0-.696.192-1.308t.576-1.056q.384-.456.948-.708.576-.264 1.344-.264.54 0 1.02.144.492.132.864.408.384.276.624.696t.288.996zm7.928 4.128h-1.344v-.864h-.024q-.252.468-.756.756a2.04 2.04 0 0 1-1.008.276q-1.224 0-1.776-.6-.54-.612-.54-1.836v-3.936h1.368v3.804q0 .816.312 1.152t.876.336q.432 0 .72-.132t.468-.348q.18-.228.252-.54.084-.312.084-.672v-3.6h1.368zm1.443-6.204h1.284v1.2h.024q.06-.252.228-.492.18-.24.42-.432a2.1 2.1 0 0 1 .552-.324q.3-.12.612-.12.24 0 .324.012l.192.024v1.32a3 3 0 0 0-.3-.036 2 2 0 0 0-.288-.024q-.348 0-.66.144-.3.132-.528.408a1.9 1.9 0 0 0-.36.66 2.9 2.9 0 0 0-.132.912V105h-1.368zm4.218 0h1.284v1.2h.024q.06-.252.228-.492.18-.24.42-.432a2.1 2.1 0 0 1 .552-.324q.3-.12.612-.12.24 0 .324.012l.192.024v1.32a3 3 0 0 0-.3-.036 2 2 0 0 0-.288-.024q-.348 0-.66.144-.3.132-.528.408a1.9 1.9 0 0 0-.36.66 2.9 2.9 0 0 0-.132.912V105H186.7zm8.268 2.556a2.1 2.1 0 0 0-.144-.624 1.5 1.5 0 0 0-.312-.516 1.36 1.36 0 0 0-.48-.36 1.3 1.3 0 0 0-.624-.144q-.36 0-.66.132-.288.12-.504.348a1.8 1.8 0 0 0-.336.516q-.12.3-.132.648zm-3.192.9q0 .36.096.696.108.336.312.588t.516.408q.312.144.744.144.6 0 .96-.252.372-.264.552-.78h1.296a2.6 2.6 0 0 1-.372.9 2.7 2.7 0 0 1-.636.672 2.7 2.7 0 0 1-.84.396 3.2 3.2 0 0 1-.96.144q-.732 0-1.296-.24a2.7 2.7 0 0 1-.96-.672 3 3 0 0 1-.588-1.032q-.192-.6-.192-1.32 0-.66.204-1.248.216-.6.6-1.044.396-.456.948-.72a2.86 2.86 0 0 1 1.248-.264q.732 0 1.308.312.588.3.972.804t.552 1.164q.18.648.096 1.344zM203.22 105h-1.296v-.84h-.024q-.276.54-.804.78a2.8 2.8 0 0 1-1.116.228q-.732 0-1.284-.252a2.6 2.6 0 0 1-.9-.708 3 3 0 0 1-.54-1.044 4.6 4.6 0 0 1-.18-1.308q0-.84.228-1.452a3 3 0 0 1 .6-1.008q.384-.396.864-.576a2.7 2.7 0 0 1 .996-.192q.288 0 .588.06.3.048.576.168t.504.312q.24.18.396.432h.024v-3.168h1.368zm-4.776-3.036q0 .396.096.78.108.384.312.684.216.3.54.48t.768.18q.456 0 .78-.192.336-.192.54-.504a2.1 2.1 0 0 0 .312-.696q.108-.396.108-.804 0-1.032-.468-1.608-.456-.576-1.248-.576-.48 0-.816.204-.324.192-.54.516a2.2 2.2 0 0 0-.3.72 4 4 0 0 0-.084.816m6.376 1.416h1.668V105h-1.668zm3.34 0h1.668V105h-1.668z"/><rect width="241" height="48" x=".5" y="136" fill="#fff" rx="12"/><path fill="#fffbe6" d="M17.5 153a4 4 0 0 1 4-4h52a4 4 0 0 1 4 4v14a4 4 0 0 1-4 4h-52a4 4 0 0 1-4-4z"/><path fill="#faad14" d="M34.176 164h-1.188l-1.956-7.2h-.024l-1.98 7.2H27.84l-2.196-8.568h1.164l1.68 7.128h.024l1.92-7.128h1.236l1.896 7.128h.024l1.74-7.128h1.14zm8.252-.024q-.264.156-.732.156-.396 0-.636-.216-.228-.228-.228-.732-.42.504-.984.732a3.3 3.3 0 0 1-1.2.216q-.42 0-.804-.096a1.9 1.9 0 0 1-.648-.3 1.5 1.5 0 0 1-.444-.528 1.9 1.9 0 0 1-.156-.804q0-.528.18-.864a1.54 1.54 0 0 1 .468-.54q.3-.216.672-.324.384-.108.78-.18.42-.084.792-.12.384-.048.672-.12.288-.084.456-.228.168-.156.168-.444 0-.336-.132-.54a.8.8 0 0 0-.324-.312 1.3 1.3 0 0 0-.444-.144 3 3 0 0 0-.48-.036q-.648 0-1.08.252-.432.24-.468.924h-1.02q.024-.576.24-.972t.576-.636q.36-.252.816-.36a4.4 4.4 0 0 1 .996-.108q.42 0 .828.06.42.06.756.252.336.18.54.516t.204.876v3.192q0 .36.036.528.048.168.288.168.132 0 .312-.06zm-1.656-3.18a1.3 1.3 0 0 1-.504.216q-.312.06-.66.108-.336.036-.684.096-.348.048-.624.168a1.16 1.16 0 0 0-.456.348q-.168.216-.168.6 0 .252.096.432.108.168.264.276.168.108.384.156t.456.048q.504 0 .864-.132.36-.144.588-.348.228-.216.336-.456.108-.252.108-.468zm2.57-3h.96v1.308h.023q.372-.756.912-1.116t1.368-.336v1.08q-.612 0-1.044.168t-.696.492-.384.792a4.2 4.2 0 0 0-.12 1.056V164h-1.02zm4.242 0h.96v.984h.024q.636-1.128 2.016-1.128.612 0 1.02.168t.66.468.348.72q.108.408.108.912V164H51.7v-4.2q0-.576-.336-.912t-.924-.336q-.468 0-.816.144a1.5 1.5 0 0 0-.564.408 1.8 1.8 0 0 0-.348.624 2.6 2.6 0 0 0-.108.768V164h-1.02zm7.748-1.116h-1.02v-1.248h1.02zm-1.02 1.116h1.02V164h-1.02zm2.6 0h.96v.984h.025q.636-1.128 2.016-1.128.612 0 1.02.168t.66.468q.25.3.347.72.109.408.108.912V164h-1.02v-4.2q0-.576-.335-.912-.336-.336-.924-.336-.468 0-.816.144a1.5 1.5 0 0 0-.565.408 1.8 1.8 0 0 0-.347.624 2.6 2.6 0 0 0-.108.768V164h-1.02zm12.02 5.676q0 1.524-.695 2.28-.697.756-2.184.756-.432 0-.888-.096a2.8 2.8 0 0 1-.817-.312 1.9 1.9 0 0 1-.6-.564 1.6 1.6 0 0 1-.264-.852h1.02q.012.276.168.468.168.192.397.312.24.12.516.168.276.06.528.06.503 0 .852-.18.347-.168.575-.48.228-.3.325-.732.108-.432.108-.948v-.408h-.025a1.74 1.74 0 0 1-.803.852 2.5 2.5 0 0 1-1.129.264q-.696 0-1.212-.252a2.6 2.6 0 0 1-.864-.672 3 3 0 0 1-.527-.996 4.3 4.3 0 0 1-.168-1.212q0-.552.144-1.128.143-.588.48-1.056.336-.48.888-.78.551-.312 1.355-.312.589 0 1.08.264.493.252.769.768h.011v-.888h.96zm-2.856-.3q.504 0 .853-.204.36-.216.575-.552.216-.348.313-.78a3.6 3.6 0 0 0 .108-.864 3.4 3.4 0 0 0-.096-.804 2.1 2.1 0 0 0-.312-.708 1.5 1.5 0 0 0-.54-.516q-.336-.192-.817-.192-.492 0-.84.192-.347.18-.575.492a2.3 2.3 0 0 0-.325.72 3.7 3.7 0 0 0-.096.852q0 .42.085.84.083.42.287.768.205.336.54.552.336.204.84.204M92.704 156.432H94.3L97.6 165h-1.608l-.804-2.268h-3.42L90.964 165h-1.548zm-.528 5.16h2.616l-1.284-3.684h-.036zm6.048-2.796h1.296v.912l.024.024q.312-.516.816-.804.504-.3 1.116-.3 1.02 0 1.608.528t.588 1.584V165h-1.368v-3.9q-.024-.732-.312-1.056-.288-.336-.9-.336-.348 0-.624.132-.276.12-.468.348a1.6 1.6 0 0 0-.3.516q-.108.3-.108.636V165h-1.368zm14.49 2.556a2.1 2.1 0 0 0-.144-.624 1.5 1.5 0 0 0-.312-.516 1.36 1.36 0 0 0-.48-.36 1.3 1.3 0 0 0-.624-.144q-.36 0-.66.132-.288.12-.504.348a1.8 1.8 0 0 0-.336.516q-.12.3-.132.648zm-3.192.9q0 .36.096.696.108.336.312.588t.516.408q.312.144.744.144.6 0 .96-.252.372-.264.552-.78h1.296a2.6 2.6 0 0 1-.372.9 2.7 2.7 0 0 1-.636.672 2.7 2.7 0 0 1-.84.396 3.2 3.2 0 0 1-.96.144q-.732 0-1.296-.24a2.7 2.7 0 0 1-.96-.672 3 3 0 0 1-.588-1.032q-.192-.6-.192-1.32 0-.66.204-1.248.216-.6.6-1.044.396-.456.948-.72a2.86 2.86 0 0 1 1.248-.264q.732 0 1.308.312.588.3.972.804t.552 1.164q.18.648.096 1.344zm5.6-3.456h1.284v1.2h.024q.06-.252.228-.492.18-.24.42-.432a2.1 2.1 0 0 1 .552-.324q.3-.12.612-.12a3 3 0 0 1 .516.036v1.32a3 3 0 0 0-.3-.036 2 2 0 0 0-.288-.024q-.348 0-.66.144-.3.132-.528.408a1.9 1.9 0 0 0-.36.66 2.9 2.9 0 0 0-.132.912V165h-1.368zm4.219 0h1.284v1.2h.024q.06-.252.228-.492.18-.24.42-.432a2.1 2.1 0 0 1 .552-.324q.3-.12.612-.12.24 0 .324.012l.192.024v1.32a3 3 0 0 0-.3-.036 2 2 0 0 0-.288-.024q-.348 0-.66.144-.3.132-.528.408a1.9 1.9 0 0 0-.36.66 2.9 2.9 0 0 0-.132.912V165h-1.368zm6.852 6.372q-.744 0-1.332-.24a3 3 0 0 1-.984-.684 3 3 0 0 1-.612-1.032q-.204-.6-.204-1.32 0-.708.204-1.308.216-.6.612-1.032.408-.432.984-.672a3.35 3.35 0 0 1 1.332-.252q.744 0 1.32.252.588.24.984.672.408.432.612 1.032.216.6.216 1.308 0 .72-.216 1.32-.204.6-.612 1.032a2.8 2.8 0 0 1-.984.684q-.576.24-1.32.24m0-1.08a1.57 1.57 0 0 0 1.344-.696 2.1 2.1 0 0 0 .312-.696q.108-.396.108-.804 0-.396-.108-.792a2 2 0 0 0-.312-.696 1.57 1.57 0 0 0-1.344-.696 1.57 1.57 0 0 0-1.344.696q-.216.3-.324.696a3.35 3.35 0 0 0 0 1.596q.108.384.324.696t.552.504.792.192m4.269-5.292h1.284v1.2h.024q.06-.252.228-.492.18-.24.42-.432a2.1 2.1 0 0 1 .552-.324q.3-.12.612-.12a3 3 0 0 1 .516.036v1.32a3 3 0 0 0-.3-.036 2 2 0 0 0-.288-.024q-.348 0-.66.144-.3.132-.528.408a1.9 1.9 0 0 0-.36.66 2.9 2.9 0 0 0-.132.912V165h-1.368zm7.559-2.364h1.368v3.18h.024a1.96 1.96 0 0 1 .744-.696 2.2 2.2 0 0 1 1.116-.288q1.02 0 1.608.528t.588 1.584V165h-1.368v-3.9q-.024-.732-.312-1.056-.288-.336-.9-.336-.348 0-.624.132a1.26 1.26 0 0 0-.468.348 1.6 1.6 0 0 0-.3.516q-.108.3-.108.636V165h-1.368zm12.086 7.188q0 .252.06.36.072.108.264.108h.144q.084 0 .192-.024v.948a2 2 0 0 1-.192.048 2 2 0 0 1-.228.06 2.5 2.5 0 0 1-.444.048q-.42 0-.696-.168t-.36-.588a2.4 2.4 0 0 1-1.008.576q-.588.18-1.14.18-.42 0-.804-.12a2.2 2.2 0 0 1-.684-.324 1.8 1.8 0 0 1-.468-.564 1.8 1.8 0 0 1-.168-.804q0-.576.204-.936.216-.36.552-.564a2.5 2.5 0 0 1 .768-.288q.432-.096.864-.144.372-.072.708-.096.336-.036.588-.108a.9.9 0 0 0 .408-.216q.156-.156.156-.456a.68.68 0 0 0-.132-.432.74.74 0 0 0-.312-.252 1.1 1.1 0 0 0-.408-.12 3 3 0 0 0-.432-.036q-.576 0-.948.24t-.42.744h-1.368q.036-.6.288-.996t.636-.636q.396-.24.888-.336a5.3 5.3 0 0 1 1.008-.096q.456 0 .9.096t.792.312q.36.216.576.564.216.336.216.828zm-1.368-1.728a1.7 1.7 0 0 1-.768.252 9 9 0 0 0-.912.12q-.216.036-.42.108-.204.06-.36.18a.8.8 0 0 0-.252.3q-.084.18-.084.444 0 .228.132.384t.312.252q.192.084.408.12.228.036.408.036.228 0 .492-.06t.492-.204q.24-.144.396-.36a.95.95 0 0 0 .156-.552zm3.872 1.116q.06.6.456.84t.948.24q.192 0 .432-.024.252-.036.468-.12a.85.85 0 0 0 .348-.24.6.6 0 0 0 .132-.432.6.6 0 0 0-.192-.432q-.18-.168-.468-.264a4 4 0 0 0-.636-.18q-.36-.072-.732-.156a7 7 0 0 1-.744-.204 2.5 2.5 0 0 1-.636-.324 1.54 1.54 0 0 1-.444-.516q-.168-.324-.168-.792 0-.504.24-.84.252-.348.624-.552.384-.216.84-.3.468-.084.888-.084.48 0 .912.108.444.096.792.324.36.228.588.6.24.36.3.876h-1.428q-.096-.492-.456-.66a1.8 1.8 0 0 0-.804-.168q-.144 0-.348.024a1.5 1.5 0 0 0-.372.096.7.7 0 0 0-.288.192.44.44 0 0 0-.12.324.53.53 0 0 0 .168.408q.18.156.456.264.288.096.648.168t.744.156q.372.084.732.204t.636.324q.288.204.456.516.18.312.18.768 0 .552-.252.936a2 2 0 0 1-.66.624q-.396.24-.888.348a4.5 4.5 0 0 1-2.064-.024 2.7 2.7 0 0 1-.864-.396 2.1 2.1 0 0 1-.576-.672 2.2 2.2 0 0 1-.216-.96zm11.375 2.16q-.744 0-1.332-.24a3 3 0 0 1-.984-.684 3 3 0 0 1-.612-1.032q-.204-.6-.204-1.32 0-.708.204-1.308.216-.6.612-1.032.408-.432.984-.672a3.35 3.35 0 0 1 1.332-.252q.744 0 1.32.252.588.24.984.672.408.432.612 1.032.216.6.216 1.308 0 .72-.216 1.32-.204.6-.612 1.032a2.8 2.8 0 0 1-.984.684q-.576.24-1.32.24m0-1.08a1.57 1.57 0 0 0 1.344-.696 2.1 2.1 0 0 0 .312-.696q.108-.396.108-.804 0-.396-.108-.792a2 2 0 0 0-.312-.696 1.57 1.57 0 0 0-1.344-.696 1.57 1.57 0 0 0-1.344.696q-.216.3-.324.696a3.35 3.35 0 0 0 0 1.596q.108.384.324.696t.552.504.792.192m8.457-3.216q-.084-.576-.468-.864-.372-.3-.948-.3-.264 0-.564.096-.3.084-.552.336-.252.24-.42.684-.168.432-.168 1.14 0 .384.084.768.096.384.288.684.204.3.516.492.312.18.756.18.6 0 .984-.372.396-.372.492-1.044h1.368q-.192 1.212-.924 1.86-.72.636-1.92.636-.732 0-1.296-.24a2.9 2.9 0 0 1-.936-.672 3 3 0 0 1-.588-1.02 4 4 0 0 1-.192-1.272q0-.696.192-1.308t.576-1.056q.384-.456.948-.708.576-.264 1.344-.264.54 0 1.02.144.492.132.864.408.384.276.624.696t.288.996zm6.668 0q-.084-.576-.468-.864-.372-.3-.948-.3-.264 0-.564.096-.3.084-.552.336-.252.24-.42.684-.168.432-.168 1.14 0 .384.084.768.096.384.288.684.204.3.516.492.312.18.756.18.6 0 .984-.372.396-.372.492-1.044h1.368q-.192 1.212-.924 1.86-.72.636-1.92.636-.732 0-1.296-.24a2.9 2.9 0 0 1-.936-.672 3 3 0 0 1-.588-1.02 4 4 0 0 1-.192-1.272q0-.696.192-1.308t.576-1.056q.384-.456.948-.708.576-.264 1.344-.264.54 0 1.02.144.492.132.864.408.384.276.624.696t.288.996zm7.928 4.128h-1.344v-.864h-.024q-.252.468-.756.756a2.04 2.04 0 0 1-1.008.276q-1.224 0-1.776-.6-.54-.612-.54-1.836v-3.936h1.368v3.804q0 .816.312 1.152t.876.336q.432 0 .72-.132t.468-.348q.18-.228.252-.54.084-.312.084-.672v-3.6h1.368zm1.443-6.204h1.284v1.2h.024q.06-.252.228-.492.18-.24.42-.432a2.1 2.1 0 0 1 .552-.324q.3-.12.612-.12.24 0 .324.012l.192.024v1.32a3 3 0 0 0-.3-.036 2 2 0 0 0-.288-.024q-.348 0-.66.144-.3.132-.528.408a1.9 1.9 0 0 0-.36.66 2.9 2.9 0 0 0-.132.912V165h-1.368zm4.218 0h1.284v1.2h.024q.06-.252.228-.492.18-.24.42-.432a2.1 2.1 0 0 1 .552-.324q.3-.12.612-.12a3 3 0 0 1 .516.036v1.32a3 3 0 0 0-.3-.036 2 2 0 0 0-.288-.024q-.348 0-.66.144-.3.132-.528.408a1.9 1.9 0 0 0-.36.66 2.9 2.9 0 0 0-.132.912V165H192.7zm8.268 2.556a2.1 2.1 0 0 0-.144-.624 1.5 1.5 0 0 0-.312-.516 1.36 1.36 0 0 0-.48-.36 1.3 1.3 0 0 0-.624-.144q-.36 0-.66.132-.288.12-.504.348a1.8 1.8 0 0 0-.336.516q-.12.3-.132.648zm-3.192.9q0 .36.096.696.108.336.312.588t.516.408q.312.144.744.144.6 0 .96-.252.372-.264.552-.78h1.296a2.6 2.6 0 0 1-.372.9 2.7 2.7 0 0 1-.636.672 2.7 2.7 0 0 1-.84.396 3.2 3.2 0 0 1-.96.144q-.732 0-1.296-.24a2.7 2.7 0 0 1-.96-.672 3 3 0 0 1-.588-1.032q-.192-.6-.192-1.32 0-.66.204-1.248.216-.6.6-1.044.396-.456.948-.72a2.86 2.86 0 0 1 1.248-.264q.732 0 1.308.312.588.3.972.804t.552 1.164q.18.648.096 1.344zM209.22 165h-1.296v-.84h-.024q-.276.54-.804.78a2.8 2.8 0 0 1-1.116.228q-.732 0-1.284-.252a2.6 2.6 0 0 1-.9-.708 3 3 0 0 1-.54-1.044 4.6 4.6 0 0 1-.18-1.308q0-.84.228-1.452a3 3 0 0 1 .6-1.008q.384-.396.864-.576a2.7 2.7 0 0 1 .996-.192q.288 0 .588.06.3.048.576.168t.504.312q.24.18.396.432h.024v-3.168h1.368zm-4.776-3.036q0 .396.096.78.108.384.312.684.216.3.54.48t.768.18q.456 0 .78-.192.336-.192.54-.504a2.1 2.1 0 0 0 .312-.696q.108-.396.108-.804 0-1.032-.468-1.608-.456-.576-1.248-.576-.48 0-.816.204-.324.192-.54.516a2.2 2.2 0 0 0-.3.72 4 4 0 0 0-.084.816m6.376 1.416h1.668V165h-1.668zm3.34 0h1.668V165h-1.668z"/><rect width="241" height="48" x=".5" y="196" fill="#fff" rx="12"/><path fill="#f0f5ff" d="M17.5 213a4 4 0 0 1 4-4h53a4 4 0 0 1 4 4v14a4 4 0 0 1-4 4h-53a4 4 0 0 1-4-4z"/><path fill="#1d39c4" d="M32.076 223.04h1.896q.192 0 .48-.024.288-.036.612-.144.324-.12.636-.336.324-.216.576-.588t.408-.924q.168-.564.168-1.356 0-.768-.156-1.368a2.5 2.5 0 0 0-.492-1.032 2.05 2.05 0 0 0-.876-.648q-.54-.228-1.332-.228h-1.92zm-1.14-7.608h2.94q1.98 0 3.048 1.008t1.068 3.072q0 1.08-.24 1.92a3.6 3.6 0 0 1-.744 1.404 3.25 3.25 0 0 1-1.284.864q-.78.3-1.848.3h-2.94zm12.59 4.872a2 2 0 0 0-.169-.684 1.6 1.6 0 0 0-.372-.552 1.6 1.6 0 0 0-.552-.372 1.64 1.64 0 0 0-.696-.144q-.396 0-.72.144a1.6 1.6 0 0 0-.54.372 1.8 1.8 0 0 0-.36.564q-.132.312-.156.672zm.983 1.728q-.204 1.044-.9 1.572t-1.752.528q-.744 0-1.296-.24a2.56 2.56 0 0 1-.912-.672 2.9 2.9 0 0 1-.564-1.032q-.18-.6-.204-1.308 0-.708.216-1.296t.6-1.02q.396-.432.924-.672.54-.24 1.176-.24.828 0 1.368.348.552.336.876.864.336.528.456 1.152.132.624.108 1.188h-4.644q-.012.408.096.78.108.36.348.648.24.276.612.444t.876.168q.648 0 1.056-.3.42-.3.552-.912zm1.19-6.6h1.02v3.204h.023q.253-.516.793-.744.54-.24 1.188-.24.72 0 1.248.264.54.264.888.72.36.444.54 1.032t.18 1.248-.18 1.248a2.9 2.9 0 0 1-.529 1.032 2.45 2.45 0 0 1-.887.684q-.528.252-1.236.252-.23 0-.517-.048a3 3 0 0 1-.551-.156 2.4 2.4 0 0 1-.529-.288 1.8 1.8 0 0 1-.407-.468h-.025V224h-1.02zm4.8 5.412q0-.432-.12-.84a2.1 2.1 0 0 0-.348-.744 1.64 1.64 0 0 0-.6-.516 1.8 1.8 0 0 0-.852-.192q-.517 0-.876.204-.36.204-.589.54a2.3 2.3 0 0 0-.335.744q-.097.42-.097.852 0 .456.108.888.108.42.337.744.24.324.611.528.372.192.9.192.529 0 .877-.204.36-.204.575-.54a2.4 2.4 0 0 0 .313-.768q.096-.432.096-.888M57.912 224h-.96v-.984h-.024q-.324.576-.828.852-.504.264-1.188.264-.612 0-1.02-.156a1.7 1.7 0 0 1-.66-.468 1.8 1.8 0 0 1-.36-.708 4 4 0 0 1-.096-.924v-4.08h1.02v4.2q0 .576.336.912t.924.336q.468 0 .804-.144a1.5 1.5 0 0 0 .576-.408q.228-.264.336-.612.12-.36.12-.78v-3.504h1.02zm6.884-.528q0 1.524-.696 2.28t-2.184.756q-.432 0-.888-.096a2.8 2.8 0 0 1-.816-.312 1.9 1.9 0 0 1-.6-.564 1.6 1.6 0 0 1-.264-.852h1.02q.012.276.168.468.168.192.396.312.24.12.516.168.276.06.528.06.504 0 .852-.18.348-.168.576-.48.228-.3.324-.732.108-.432.108-.948v-.408h-.024a1.74 1.74 0 0 1-.804.852 2.5 2.5 0 0 1-1.128.264q-.696 0-1.212-.252a2.6 2.6 0 0 1-.864-.672 3 3 0 0 1-.528-.996 4.3 4.3 0 0 1-.168-1.212q0-.552.144-1.128.144-.588.48-1.056.336-.48.888-.78.552-.312 1.356-.312.588 0 1.08.264.492.252.768.768h.012v-.888h.96zm-2.856-.3q.504 0 .852-.204.36-.216.576-.552.216-.348.312-.78a3.6 3.6 0 0 0 .108-.864 3.4 3.4 0 0 0-.096-.804 2.1 2.1 0 0 0-.312-.708 1.5 1.5 0 0 0-.54-.516q-.336-.192-.816-.192-.492 0-.84.192-.348.18-.576.492a2.3 2.3 0 0 0-.324.72 3.7 3.7 0 0 0-.096.852q0 .42.084.84t.288.768q.204.336.54.552.336.204.84.204M93.704 216.432H95.3L98.6 225h-1.608l-.804-2.268h-3.42L91.964 225h-1.548zm-.528 5.16h2.616l-1.284-3.684h-.036zm6.048-2.796h1.296v.912l.024.024q.312-.516.816-.804.504-.3 1.116-.3 1.02 0 1.608.528t.588 1.584V225h-1.368v-3.9q-.024-.732-.312-1.056-.288-.336-.9-.336-.348 0-.624.132a1.26 1.26 0 0 0-.468.348 1.6 1.6 0 0 0-.3.516q-.108.3-.108.636V225h-1.368zm14.49 2.556a2.1 2.1 0 0 0-.144-.624 1.5 1.5 0 0 0-.312-.516 1.36 1.36 0 0 0-.48-.36 1.3 1.3 0 0 0-.624-.144q-.36 0-.66.132-.288.12-.504.348a1.8 1.8 0 0 0-.336.516q-.12.3-.132.648zm-3.192.9q0 .36.096.696.108.336.312.588t.516.408q.312.144.744.144.6 0 .96-.252.372-.264.552-.78h1.296a2.6 2.6 0 0 1-.372.9 2.7 2.7 0 0 1-.636.672 2.7 2.7 0 0 1-.84.396 3.2 3.2 0 0 1-.96.144q-.732 0-1.296-.24a2.7 2.7 0 0 1-.96-.672 3 3 0 0 1-.588-1.032q-.192-.6-.192-1.32 0-.66.204-1.248.216-.6.6-1.044.396-.456.948-.72a2.86 2.86 0 0 1 1.248-.264q.732 0 1.308.312.588.3.972.804t.552 1.164q.18.648.096 1.344zm5.6-3.456h1.284v1.2h.024q.06-.252.228-.492.18-.24.42-.432a2.1 2.1 0 0 1 .552-.324q.3-.12.612-.12a3 3 0 0 1 .516.036v1.32a3 3 0 0 0-.3-.036 2 2 0 0 0-.288-.024q-.348 0-.66.144-.3.132-.528.408a1.9 1.9 0 0 0-.36.66 2.9 2.9 0 0 0-.132.912V225h-1.368zm4.219 0h1.284v1.2h.024q.06-.252.228-.492.18-.24.42-.432a2.1 2.1 0 0 1 .552-.324q.3-.12.612-.12.24 0 .324.012l.192.024v1.32a3 3 0 0 0-.3-.036 2 2 0 0 0-.288-.024q-.348 0-.66.144-.3.132-.528.408a1.9 1.9 0 0 0-.36.66 2.9 2.9 0 0 0-.132.912V225h-1.368zm6.852 6.372q-.744 0-1.332-.24a3 3 0 0 1-.984-.684 3 3 0 0 1-.612-1.032q-.204-.6-.204-1.32 0-.708.204-1.308.216-.6.612-1.032.408-.432.984-.672a3.35 3.35 0 0 1 1.332-.252q.744 0 1.32.252.588.24.984.672.408.432.612 1.032.216.6.216 1.308 0 .72-.216 1.32-.204.6-.612 1.032a2.8 2.8 0 0 1-.984.684q-.576.24-1.32.24m0-1.08a1.57 1.57 0 0 0 1.344-.696 2.1 2.1 0 0 0 .312-.696q.108-.396.108-.804 0-.396-.108-.792a2 2 0 0 0-.312-.696 1.57 1.57 0 0 0-1.344-.696 1.57 1.57 0 0 0-1.344.696q-.216.3-.324.696a3.35 3.35 0 0 0 0 1.596q.108.384.324.696t.552.504.792.192m4.269-5.292h1.284v1.2h.024q.06-.252.228-.492.18-.24.42-.432a2.1 2.1 0 0 1 .552-.324q.3-.12.612-.12a3 3 0 0 1 .516.036v1.32a3 3 0 0 0-.3-.036 2 2 0 0 0-.288-.024q-.348 0-.66.144-.3.132-.528.408a1.9 1.9 0 0 0-.36.66 2.9 2.9 0 0 0-.132.912V225h-1.368zm7.559-2.364h1.368v3.18h.024a1.96 1.96 0 0 1 .744-.696 2.2 2.2 0 0 1 1.116-.288q1.02 0 1.608.528t.588 1.584V225h-1.368v-3.9q-.024-.732-.312-1.056-.288-.336-.9-.336-.348 0-.624.132a1.26 1.26 0 0 0-.468.348 1.6 1.6 0 0 0-.3.516q-.108.3-.108.636V225h-1.368zm12.086 7.188q0 .252.06.36.072.108.264.108h.144q.084 0 .192-.024v.948a2 2 0 0 1-.192.048 2 2 0 0 1-.228.06 2.5 2.5 0 0 1-.444.048q-.42 0-.696-.168t-.36-.588a2.4 2.4 0 0 1-1.008.576q-.588.18-1.14.18-.42 0-.804-.12a2.2 2.2 0 0 1-.684-.324 1.8 1.8 0 0 1-.468-.564 1.8 1.8 0 0 1-.168-.804q0-.576.204-.936.216-.36.552-.564a2.5 2.5 0 0 1 .768-.288q.432-.096.864-.144.372-.072.708-.096.336-.036.588-.108a.9.9 0 0 0 .408-.216q.156-.156.156-.456a.68.68 0 0 0-.132-.432.74.74 0 0 0-.312-.252 1.1 1.1 0 0 0-.408-.12 3 3 0 0 0-.432-.036q-.576 0-.948.24t-.42.744h-1.368q.036-.6.288-.996t.636-.636q.396-.24.888-.336a5.3 5.3 0 0 1 1.008-.096q.456 0 .9.096t.792.312q.36.216.576.564.216.336.216.828zm-1.368-1.728a1.7 1.7 0 0 1-.768.252 9 9 0 0 0-.912.12q-.216.036-.42.108-.204.06-.36.18a.8.8 0 0 0-.252.3q-.084.18-.084.444 0 .228.132.384t.312.252q.192.084.408.12.228.036.408.036.228 0 .492-.06t.492-.204q.24-.144.396-.36a.95.95 0 0 0 .156-.552zm3.872 1.116q.06.6.456.84t.948.24q.192 0 .432-.024.252-.036.468-.12a.85.85 0 0 0 .348-.24.6.6 0 0 0 .132-.432.6.6 0 0 0-.192-.432q-.18-.168-.468-.264a4 4 0 0 0-.636-.18q-.36-.072-.732-.156a7 7 0 0 1-.744-.204 2.5 2.5 0 0 1-.636-.324 1.54 1.54 0 0 1-.444-.516q-.168-.324-.168-.792 0-.504.24-.84.252-.348.624-.552.384-.216.84-.3.468-.084.888-.084.48 0 .912.108.444.096.792.324.36.228.588.6.24.36.3.876h-1.428q-.096-.492-.456-.66a1.8 1.8 0 0 0-.804-.168q-.144 0-.348.024a1.5 1.5 0 0 0-.372.096.7.7 0 0 0-.288.192.44.44 0 0 0-.12.324.53.53 0 0 0 .168.408q.18.156.456.264.288.096.648.168t.744.156q.372.084.732.204t.636.324q.288.204.456.516.18.312.18.768 0 .552-.252.936a2 2 0 0 1-.66.624q-.396.24-.888.348a4.5 4.5 0 0 1-2.064-.024 2.7 2.7 0 0 1-.864-.396 2.1 2.1 0 0 1-.576-.672 2.2 2.2 0 0 1-.216-.96zm11.375 2.16q-.744 0-1.332-.24a3 3 0 0 1-.984-.684 3 3 0 0 1-.612-1.032q-.204-.6-.204-1.32 0-.708.204-1.308.216-.6.612-1.032.408-.432.984-.672a3.35 3.35 0 0 1 1.332-.252q.744 0 1.32.252.588.24.984.672.408.432.612 1.032.216.6.216 1.308 0 .72-.216 1.32-.204.6-.612 1.032a2.8 2.8 0 0 1-.984.684q-.576.24-1.32.24m0-1.08a1.57 1.57 0 0 0 1.344-.696 2.1 2.1 0 0 0 .312-.696q.108-.396.108-.804 0-.396-.108-.792a2 2 0 0 0-.312-.696 1.57 1.57 0 0 0-1.344-.696 1.57 1.57 0 0 0-1.344.696q-.216.3-.324.696a3.35 3.35 0 0 0 0 1.596q.108.384.324.696t.552.504.792.192m8.457-3.216q-.084-.576-.468-.864-.372-.3-.948-.3-.264 0-.564.096-.3.084-.552.336-.252.24-.42.684-.168.432-.168 1.14 0 .384.084.768.096.384.288.684.204.3.516.492.312.18.756.18.6 0 .984-.372.396-.372.492-1.044h1.368q-.192 1.212-.924 1.86-.72.636-1.92.636-.732 0-1.296-.24a2.9 2.9 0 0 1-.936-.672 3 3 0 0 1-.588-1.02 4 4 0 0 1-.192-1.272q0-.696.192-1.308t.576-1.056q.384-.456.948-.708.576-.264 1.344-.264.54 0 1.02.144.492.132.864.408.384.276.624.696t.288.996zm6.668 0q-.084-.576-.468-.864-.372-.3-.948-.3-.264 0-.564.096-.3.084-.552.336-.252.24-.42.684-.168.432-.168 1.14 0 .384.084.768.096.384.288.684.204.3.516.492.312.18.756.18.6 0 .984-.372.396-.372.492-1.044h1.368q-.192 1.212-.924 1.86-.72.636-1.92.636-.732 0-1.296-.24a2.9 2.9 0 0 1-.936-.672 3 3 0 0 1-.588-1.02 4 4 0 0 1-.192-1.272q0-.696.192-1.308t.576-1.056q.384-.456.948-.708.576-.264 1.344-.264.54 0 1.02.144.492.132.864.408.384.276.624.696t.288.996zm7.928 4.128h-1.344v-.864h-.024q-.252.468-.756.756a2.04 2.04 0 0 1-1.008.276q-1.224 0-1.776-.6-.54-.612-.54-1.836v-3.936h1.368v3.804q0 .816.312 1.152t.876.336q.432 0 .72-.132t.468-.348q.18-.228.252-.54.084-.312.084-.672v-3.6h1.368zm1.443-6.204h1.284v1.2h.024q.06-.252.228-.492.18-.24.42-.432a2.1 2.1 0 0 1 .552-.324q.3-.12.612-.12.24 0 .324.012l.192.024v1.32a3 3 0 0 0-.3-.036 2 2 0 0 0-.288-.024q-.348 0-.66.144-.3.132-.528.408a1.9 1.9 0 0 0-.36.66 2.9 2.9 0 0 0-.132.912V225h-1.368zm4.218 0h1.284v1.2h.024q.06-.252.228-.492.18-.24.42-.432a2.1 2.1 0 0 1 .552-.324q.3-.12.612-.12a3 3 0 0 1 .516.036v1.32a3 3 0 0 0-.3-.036 2 2 0 0 0-.288-.024q-.348 0-.66.144-.3.132-.528.408a1.9 1.9 0 0 0-.36.66 2.9 2.9 0 0 0-.132.912V225H193.7zm8.268 2.556a2.1 2.1 0 0 0-.144-.624 1.5 1.5 0 0 0-.312-.516 1.36 1.36 0 0 0-.48-.36 1.3 1.3 0 0 0-.624-.144q-.36 0-.66.132-.288.12-.504.348a1.8 1.8 0 0 0-.336.516q-.12.3-.132.648zm-3.192.9q0 .36.096.696.108.336.312.588t.516.408q.312.144.744.144.6 0 .96-.252.372-.264.552-.78h1.296a2.6 2.6 0 0 1-.372.9 2.7 2.7 0 0 1-.636.672 2.7 2.7 0 0 1-.84.396 3.2 3.2 0 0 1-.96.144q-.732 0-1.296-.24a2.7 2.7 0 0 1-.96-.672 3 3 0 0 1-.588-1.032q-.192-.6-.192-1.32 0-.66.204-1.248.216-.6.6-1.044.396-.456.948-.72a2.86 2.86 0 0 1 1.248-.264q.732 0 1.308.312.588.3.972.804t.552 1.164q.18.648.096 1.344zM210.22 225h-1.296v-.84h-.024q-.276.54-.804.78a2.8 2.8 0 0 1-1.116.228q-.732 0-1.284-.252a2.6 2.6 0 0 1-.9-.708 3 3 0 0 1-.54-1.044 4.6 4.6 0 0 1-.18-1.308q0-.84.228-1.452a3 3 0 0 1 .6-1.008q.384-.396.864-.576a2.7 2.7 0 0 1 .996-.192q.288 0 .588.06.3.048.576.168t.504.312q.24.18.396.432h.024v-3.168h1.368zm-4.776-3.036q0 .396.096.78.108.384.312.684.216.3.54.48t.768.18q.456 0 .78-.192.336-.192.54-.504a2.1 2.1 0 0 0 .312-.696q.108-.396.108-.804 0-1.032-.468-1.608-.456-.576-1.248-.576-.48 0-.816.204-.324.192-.54.516a2.2 2.2 0 0 0-.3.72 4 4 0 0 0-.084.816m6.376 1.416h1.668V225h-1.668zm3.34 0h1.668V225h-1.668z"/></svg>