<svg xmlns="http://www.w3.org/2000/svg" width="501" height="216" fill="none" viewBox="0 0 501 216"><rect width="30.153" height="35.635" x="146.414" y="22.904" fill="#88d8ff" rx="5.576"/><rect width="31.067" height="22.843" x="133.719" y="122.879" fill="#009fee" rx="5.576"/><g filter="url(#a)"><rect width="40.164" height="40.164" x="119.102" y="70.844" fill="#e5f6ff" rx="7.806"/></g><g filter="url(#b)"><rect width="39.668" height="39.668" x="119.102" y="159.428" fill="#e5f6ff" rx="7.806"/></g><rect width="40.164" height="40.164" x="173.242" y="70.844" fill="#e5f6ff" rx="7.806"/><rect width="39.668" height="39.668" x="173.016" y="159.428" fill="#e5f6ff" rx="7.806"/><rect width="30.761" height="23.378" x="186.773" y="35.162" fill="#009fee" fill-opacity=".1" rx="5.576"/><rect width="38.376" height="22.843" x="177.93" y="122.789" fill="#88d8ff" rx="5.576"/><rect width="30.153" height="35.635" x="227.742" y="22.904" fill="#5bc9ff" rx="5.576"/><rect width="30.761" height="23.378" x="267.984" y="35.162" fill="#009fee" rx="5.576"/><rect width="30.761" height="23.378" x="226.148" y="122.521" fill="#009fee" fill-opacity=".1" rx="5.576"/><rect width="49.341" height="22.843" x="267.125" y="122.879" fill="#009fee" rx="5.576"/><g filter="url(#c)"><rect width="40.164" height="40.164" x="226.148" y="70.844" fill="#e5f6ff" rx="7.806"/></g><rect width="40.164" height="40.164" x="280.281" y="70.844" fill="#e5f6ff" rx="7.806"/><g filter="url(#d)"><rect width="39.668" height="39.668" x="226.922" y="159.428" fill="#e5f6ff" rx="7.806"/></g><rect width="39.668" height="39.668" x="280.828" y="159.428" fill="#e5f6ff" rx="7.806"/><g filter="url(#e)"><rect width="160" height="40" x="5.5" y="4" fill="#fff" rx="8"/><path fill="#001f2e" d="M49.416 16.834h-1.792a1.194 1.194 0 0 0-1.194 1.194v11.945a1.194 1.194 0 0 0 1.194 1.194h1.792a1.194 1.194 0 0 0 1.194-1.194V18.028a1.194 1.194 0 0 0-1.194-1.194m0 13.139h-1.792V18.028h1.792zm5.375-13.139h-1.792a1.194 1.194 0 0 0-1.194 1.194v11.945a1.194 1.194 0 0 0 1.194 1.194h1.792a1.194 1.194 0 0 0 1.194-1.194V18.028a1.194 1.194 0 0 0-1.194-1.194m0 13.139h-1.792V18.028h1.792zM61.958 24a.597.597 0 0 1-.598.597h-1.194v1.194a.597.597 0 1 1-1.195 0v-1.194h-1.194a.597.597 0 1 1 0-1.195h1.194V22.21a.597.597 0 1 1 1.195 0v1.194h1.194a.597.597 0 0 1 .598.598M69.083 25.692q0 .655.224 1.12.224.464.624.768.399.288.912.432.528.128 1.136.128.655 0 1.12-.144.464-.16.752-.4.287-.24.416-.544.128-.32.128-.64 0-.656-.304-.96a1.6 1.6 0 0 0-.64-.448q-.608-.225-1.424-.416-.8-.209-1.984-.528-.737-.192-1.232-.496a3.1 3.1 0 0 1-.768-.704 2.6 2.6 0 0 1-.416-.816 3.5 3.5 0 0 1-.112-.88q0-.864.352-1.488.368-.64.96-1.056.591-.416 1.344-.608a5.7 5.7 0 0 1 1.52-.208q.895 0 1.68.24.8.225 1.392.688.607.464.96 1.152.351.672.352 1.568h-2q-.08-1.104-.752-1.552-.672-.465-1.712-.464-.352 0-.72.08-.369.065-.672.24a1.5 1.5 0 0 0-.512.448q-.192.288-.192.72 0 .608.368.96.383.336.992.512.064.016.496.144a75 75 0 0 1 2.048.544q.528.128.752.192.56.176.976.48t.688.704q.287.384.416.832.144.448.144.896 0 .96-.4 1.648a3.3 3.3 0 0 1-1.024 1.104 4.4 4.4 0 0 1-1.456.624 6.7 6.7 0 0 1-1.664.208q-.976 0-1.84-.24a4.3 4.3 0 0 1-1.504-.736 3.6 3.6 0 0 1-1.024-1.264q-.385-.784-.4-1.84zm14.39-1.696q-.111-.768-.623-1.152-.496-.4-1.264-.4-.353 0-.752.128a1.7 1.7 0 0 0-.736.448q-.336.32-.56.912-.225.575-.224 1.52 0 .512.112 1.024.127.511.384.912.271.4.688.656.415.24 1.008.24.8 0 1.312-.496.528-.496.656-1.392h1.824q-.257 1.616-1.232 2.48-.96.848-2.56.848-.977 0-1.728-.32a3.8 3.8 0 0 1-1.248-.896 4 4 0 0 1-.784-1.36 5.4 5.4 0 0 1-.256-1.696q0-.928.256-1.744.255-.816.768-1.408.511-.608 1.264-.944.768-.352 1.792-.352.72 0 1.36.192.655.176 1.152.544.511.368.832.928t.384 1.328zm3.307-5.92h1.824v4.24h.032q.336-.56.992-.928a2.95 2.95 0 0 1 1.488-.384q1.36 0 2.144.704t.784 2.112v5.68H92.22v-5.2q-.032-.976-.416-1.408-.384-.448-1.2-.448-.463 0-.832.176a1.7 1.7 0 0 0-.624.464q-.255.288-.4.688-.144.4-.144.848v4.88H86.78zm14.868 6.56a2.8 2.8 0 0 0-.192-.832 2 2 0 0 0-.416-.688 1.8 1.8 0 0 0-.64-.48 1.8 1.8 0 0 0-.832-.192q-.48 0-.88.176-.384.16-.672.464-.271.288-.448.688a2.6 2.6 0 0 0-.176.864zm-4.256 1.2q0 .48.128.928.143.448.416.784.271.336.688.544.416.192.992.192.8 0 1.28-.336.495-.352.736-1.04h1.728a3.5 3.5 0 0 1-.496 1.2 3.6 3.6 0 0 1-.848.896q-.496.352-1.12.528a4.2 4.2 0 0 1-1.28.192q-.976 0-1.728-.32a3.65 3.65 0 0 1-1.28-.896 4 4 0 0 1-.784-1.376 5.8 5.8 0 0 1-.256-1.76q0-.88.272-1.664.288-.8.8-1.392a3.9 3.9 0 0 1 1.264-.96q.735-.352 1.664-.352.976 0 1.744.416.783.4 1.296 1.072.511.672.736 1.552.24.864.128 1.792zm7.466-4.608h1.728v1.152h.048q.208-.305.448-.56t.528-.432q.304-.176.688-.272a3.2 3.2 0 0 1 .88-.112q.753 0 1.392.336.657.336.928 1.04.465-.64 1.072-1.008.609-.368 1.52-.368 1.312 0 2.032.64.736.64.736 2.144V29.5h-1.824v-4.832q0-.496-.032-.896a1.7 1.7 0 0 0-.192-.704 1 1 0 0 0-.448-.464q-.303-.16-.832-.16-.927 0-1.344.576-.416.576-.416 1.632V29.5h-1.824v-5.312q0-.864-.32-1.296-.303-.448-1.136-.448-.352 0-.688.144a1.8 1.8 0 0 0-.576.416q-.24.271-.4.672-.144.4-.144.912V29.5h-1.824zm20.85 6.432q0 .336.08.48.096.144.352.144h.192q.112 0 .256-.032v1.264a2 2 0 0 1-.256.064 3 3 0 0 1-.304.08 3.3 3.3 0 0 1-.592.064q-.56 0-.928-.224-.367-.224-.48-.784-.543.528-1.344.768-.783.24-1.52.24-.56 0-1.072-.16a2.9 2.9 0 0 1-.912-.432 2.4 2.4 0 0 1-.624-.752 2.44 2.44 0 0 1-.224-1.072q0-.768.272-1.248.288-.48.736-.752.465-.272 1.024-.384.576-.128 1.152-.192.497-.096.944-.128.448-.048.784-.144.352-.096.544-.288.208-.208.208-.608 0-.352-.176-.576a1 1 0 0 0-.416-.336 1.5 1.5 0 0 0-.544-.16 4 4 0 0 0-.576-.048q-.768 0-1.264.32-.495.32-.56.992h-1.824q.048-.8.384-1.328t.848-.848a3.6 3.6 0 0 1 1.184-.448 7 7 0 0 1 1.344-.128q.609 0 1.2.128.593.128 1.056.416.48.288.768.752.288.449.288 1.104zm-1.824-2.304q-.415.271-1.024.336-.607.048-1.216.16-.287.048-.56.144a1.5 1.5 0 0 0-.48.24 1.05 1.05 0 0 0-.336.4q-.112.24-.112.592 0 .304.176.512.177.208.416.336.256.112.544.16.304.048.544.048.305 0 .656-.08.353-.08.656-.272.321-.192.528-.48a1.27 1.27 0 0 0 .208-.736z"/></g><g filter="url(#f)"><rect width="197" height="40" x="298.5" y="170" fill="#fff" rx="8"/><path fill="#001f2e" d="M323.428 187.708a4 4 0 0 0-.352-.912 2.438 2.438 0 0 0-1.408-1.184 3.1 3.1 0 0 0-1.088-.176q-.912 0-1.584.368a3.1 3.1 0 0 0-1.072.992 4.5 4.5 0 0 0-.624 1.392 6.7 6.7 0 0 0-.192 1.6q0 .816.192 1.6.209.784.624 1.408.416.608 1.072.976.672.368 1.584.368.672 0 1.184-.224.512-.24.88-.64.368-.416.576-.96t.272-1.168h1.952a5.3 5.3 0 0 1-.448 1.872 4.6 4.6 0 0 1-1.008 1.472q-.64.608-1.504.944a5.2 5.2 0 0 1-1.904.336q-1.28 0-2.304-.464a5.2 5.2 0 0 1-1.712-1.296 5.9 5.9 0 0 1-1.088-1.904 7.2 7.2 0 0 1-.368-2.32q0-1.217.368-2.304a5.9 5.9 0 0 1 1.088-1.904 5.2 5.2 0 0 1 1.712-1.296q1.024-.48 2.304-.48.96 0 1.808.272a4.4 4.4 0 0 1 1.488.768q.655.496 1.056 1.216a4.25 4.25 0 0 1 .496 1.648zm7.371 8.016q-.991 0-1.776-.32a4 4 0 0 1-1.312-.912 4 4 0 0 1-.816-1.376 5.5 5.5 0 0 1-.272-1.76q0-.944.272-1.744.288-.8.816-1.376.544-.576 1.312-.896.784-.336 1.776-.336t1.76.336q.784.32 1.312.896.544.576.816 1.376.288.8.288 1.744 0 .96-.288 1.76a3.758 3.758 0 0 1-2.128 2.288q-.768.32-1.76.32m0-1.44q.607 0 1.056-.256a2.2 2.2 0 0 0 .736-.672q.288-.416.416-.928.144-.528.144-1.072 0-.528-.144-1.056a2.6 2.6 0 0 0-.416-.928 2.2 2.2 0 0 0-.736-.672q-.448-.256-1.056-.256-.607 0-1.056.256a2.2 2.2 0 0 0-.736.672 2.9 2.9 0 0 0-.432.928 4.5 4.5 0 0 0 0 2.128q.144.512.432.928.288.415.736.672.449.256 1.056.256m5.692-7.056h1.728v1.216l.032.032q.416-.688 1.088-1.072.672-.4 1.488-.4 1.36 0 2.144.704.784.703.784 2.112v5.68h-1.824v-5.2q-.032-.976-.416-1.408-.384-.448-1.2-.448-.463 0-.832.176a1.7 1.7 0 0 0-.624.464q-.256.288-.4.688a2.5 2.5 0 0 0-.144.848v4.88h-1.824zm9.188 0h1.728v1.216l.032.032q.416-.688 1.088-1.072.672-.4 1.488-.4 1.36 0 2.144.704.784.703.784 2.112v5.68h-1.824v-5.2q-.033-.976-.416-1.408-.384-.448-1.2-.448-.465 0-.832.176a1.7 1.7 0 0 0-.624.464 2.1 2.1 0 0 0-.4.688 2.5 2.5 0 0 0-.144.848v4.88h-1.824zm14.867 3.408a2.8 2.8 0 0 0-.192-.832 1.9 1.9 0 0 0-.416-.688 1.8 1.8 0 0 0-.64-.48 1.8 1.8 0 0 0-.832-.192q-.48 0-.88.176-.384.16-.672.464-.271.288-.448.688a2.6 2.6 0 0 0-.176.864zm-4.256 1.2q0 .48.128.928.144.448.416.784.273.336.688.544.416.192.992.192.8 0 1.28-.336.496-.352.736-1.04h1.728a3.4 3.4 0 0 1-.496 1.2 3.6 3.6 0 0 1-.848.896 3.6 3.6 0 0 1-1.12.528 4.2 4.2 0 0 1-1.28.192q-.975 0-1.728-.32a3.65 3.65 0 0 1-1.28-.896 4 4 0 0 1-.784-1.376 5.8 5.8 0 0 1-.256-1.76q0-.88.272-1.664.288-.8.8-1.392a3.9 3.9 0 0 1 1.264-.96q.737-.352 1.664-.352.976 0 1.744.416.785.4 1.296 1.072.513.672.736 1.552.24.864.128 1.792zm13.051-1.84q-.113-.768-.624-1.152-.496-.4-1.264-.4-.352 0-.752.128a1.7 1.7 0 0 0-.736.448q-.336.32-.56.912-.224.576-.224 1.52 0 .512.112 1.024.127.512.384.912.272.4.688.656.415.24 1.008.24.8 0 1.312-.496.528-.496.656-1.392h1.824q-.256 1.616-1.232 2.48-.96.848-2.56.848-.976 0-1.728-.32a3.8 3.8 0 0 1-1.248-.896 4 4 0 0 1-.784-1.36 5.4 5.4 0 0 1-.256-1.696q0-.928.256-1.744a3.9 3.9 0 0 1 .768-1.408 3.5 3.5 0 0 1 1.264-.944q.768-.352 1.792-.352.72 0 1.36.192.656.176 1.152.544.512.368.832.928t.384 1.328zm2.475-2.768h1.376v-2.48h1.824v2.48h1.648v1.36h-1.648v4.416q0 .288.016.496.031.208.112.352a.63.63 0 0 0 .272.224q.176.064.48.064h.384q.192-.016.384-.064v1.408l-.592.064a6 6 0 0 1-.592.032q-.72 0-1.168-.128a1.7 1.7 0 0 1-.688-.4 1.54 1.54 0 0 1-.336-.672 5.4 5.4 0 0 1-.096-.912v-4.88h-1.376zm6.208-3.152h1.824v1.728h-1.824zm0 3.152h1.824v8.272h-1.824zm3.811 0h1.728v1.216l.032.032q.416-.688 1.088-1.072.672-.4 1.488-.4 1.36 0 2.144.704.784.703.784 2.112v5.68h-1.824v-5.2q-.032-.976-.416-1.408-.384-.448-1.2-.448a1.9 1.9 0 0 0-.832.176 1.7 1.7 0 0 0-.624.464 2.1 2.1 0 0 0-.4.688 2.5 2.5 0 0 0-.144.848v4.88h-1.824zm16.836 7.84q0 1.872-1.056 2.784-1.04.928-3.008.928-.625 0-1.264-.128a3.8 3.8 0 0 1-1.152-.432 2.8 2.8 0 0 1-.864-.8q-.353-.496-.416-1.216h1.824q.08.384.272.624t.448.368q.271.144.592.176.32.048.672.048 1.103 0 1.616-.544.512-.544.512-1.568v-1.264h-.032a2.76 2.76 0 0 1-1.056 1.072 2.77 2.77 0 0 1-1.424.384q-.993 0-1.696-.336a3.4 3.4 0 0 1-1.152-.944 4.1 4.1 0 0 1-.656-1.392 6.5 6.5 0 0 1-.208-1.68q0-.833.256-1.584.255-.752.736-1.312.48-.576 1.168-.912a3.6 3.6 0 0 1 1.584-.336q.783 0 1.44.336.656.32 1.008 1.024h.032v-1.136h1.824zm-4.048-1.008q.607 0 1.024-.24.432-.256.688-.656.271-.416.384-.928.128-.528.128-1.056t-.128-1.024a2.7 2.7 0 0 0-.4-.88 1.8 1.8 0 0 0-.688-.608q-.417-.224-1.008-.224-.609 0-1.024.256a2 2 0 0 0-.672.672 2.8 2.8 0 0 0-.368.928 4.8 4.8 0 0 0-.112 1.024q0 .512.128 1.008.127.48.384.864a2.2 2.2 0 0 0 .672.624q.416.24.992.24m10.593-9.984h4.736q1.312 0 2.272.448t1.568 1.232q.608.768.896 1.808a7.9 7.9 0 0 1 .304 2.224 7.9 7.9 0 0 1-.304 2.224 5.2 5.2 0 0 1-.896 1.824 4.26 4.26 0 0 1-1.568 1.216q-.96.448-2.272.448h-4.736zm2 9.792h1.968q1.168 0 1.904-.304.752-.32 1.168-.864.432-.56.576-1.296.16-.752.16-1.616t-.16-1.6a2.94 2.94 0 0 0-.576-1.296q-.416-.56-1.168-.864-.736-.32-1.904-.32h-1.968zm16.219-.208q0 .336.08.48.096.144.352.144h.192q.112 0 .256-.032v1.264a2 2 0 0 1-.256.064 3 3 0 0 1-.304.08 3.5 3.5 0 0 1-.592.064q-.56 0-.928-.224-.367-.224-.48-.784a3.2 3.2 0 0 1-1.344.768q-.784.24-1.52.24-.56 0-1.072-.16a2.9 2.9 0 0 1-.912-.432 2.4 2.4 0 0 1-.624-.752 2.44 2.44 0 0 1-.224-1.072q0-.768.272-1.248.288-.48.736-.752a3.3 3.3 0 0 1 1.024-.384q.576-.127 1.152-.192.496-.096.944-.128.448-.048.784-.144.352-.096.544-.288.208-.208.208-.608 0-.352-.176-.576a1 1 0 0 0-.416-.336 1.5 1.5 0 0 0-.544-.16 4 4 0 0 0-.576-.048q-.768 0-1.264.32t-.56.992h-1.824q.048-.8.384-1.328t.848-.848a3.6 3.6 0 0 1 1.184-.448 7 7 0 0 1 1.344-.128q.608 0 1.2.128.593.128 1.056.416.48.288.768.752.288.449.288 1.104zm-1.824-2.304q-.416.272-1.024.336a12 12 0 0 0-1.216.16 3.3 3.3 0 0 0-.56.144 1.4 1.4 0 0 0-.48.24 1.03 1.03 0 0 0-.336.4 1.4 1.4 0 0 0-.112.592q0 .304.176.512t.416.336q.256.112.544.16.304.048.544.048.304 0 .656-.08t.656-.272q.32-.192.528-.48a1.27 1.27 0 0 0 .208-.736zm2.955-4.128h1.376v-2.48h1.824v2.48h1.648v1.36h-1.648v4.416q0 .288.016.496.031.208.112.352a.63.63 0 0 0 .272.224q.176.064.48.064h.384q.192-.016.384-.064v1.408l-.592.064a6 6 0 0 1-.592.032q-.72 0-1.168-.128a1.7 1.7 0 0 1-.688-.4 1.54 1.54 0 0 1-.336-.672 5.4 5.4 0 0 1-.096-.912v-4.88h-1.376zm13.088 6.432q0 .336.08.48.096.144.352.144h.192q.111 0 .256-.032v1.264a2 2 0 0 1-.256.064 3 3 0 0 1-.304.08 3.6 3.6 0 0 1-.592.064q-.56 0-.928-.224-.369-.224-.48-.784a3.2 3.2 0 0 1-1.344.768q-.785.24-1.52.24-.56 0-1.072-.16a2.9 2.9 0 0 1-.912-.432 2.4 2.4 0 0 1-.624-.752 2.4 2.4 0 0 1-.224-1.072q0-.768.272-1.248.288-.48.736-.752.463-.272 1.024-.384.576-.127 1.152-.192a8 8 0 0 1 .944-.128q.448-.048.784-.144.351-.096.544-.288.208-.208.208-.608 0-.352-.176-.576a1 1 0 0 0-.416-.336 1.5 1.5 0 0 0-.544-.16 4 4 0 0 0-.576-.048q-.769 0-1.264.32-.497.32-.56.992h-1.824q.048-.8.384-1.328.335-.528.848-.848a3.6 3.6 0 0 1 1.184-.448 7 7 0 0 1 1.344-.128q.608 0 1.2.128.591.128 1.056.416.48.288.768.752.288.449.288 1.104zm-1.824-2.304q-.417.272-1.024.336-.609.048-1.216.16a3.3 3.3 0 0 0-.56.144 1.4 1.4 0 0 0-.48.24 1.03 1.03 0 0 0-.336.4 1.4 1.4 0 0 0-.112.592q0 .304.176.512t.416.336q.255.112.544.16.303.048.544.048.303 0 .656-.08.351-.08.656-.272.32-.192.528-.48.208-.304.208-.736zm8.495-7.28h2v9.696h5.808v1.728h-7.808zm15.86 9.584q0 .336.08.48.096.144.352.144h.192q.112 0 .256-.032v1.264a2 2 0 0 1-.256.064 3 3 0 0 1-.304.08 3.5 3.5 0 0 1-.592.064q-.56 0-.928-.224-.367-.224-.48-.784a3.2 3.2 0 0 1-1.344.768q-.784.24-1.52.24-.56 0-1.072-.16a2.9 2.9 0 0 1-.912-.432 2.4 2.4 0 0 1-.624-.752 2.44 2.44 0 0 1-.224-1.072q0-.768.272-1.248.288-.48.736-.752a3.3 3.3 0 0 1 1.024-.384q.576-.127 1.152-.192.496-.096.944-.128.448-.048.784-.144.352-.096.544-.288.208-.208.208-.608 0-.352-.176-.576a1 1 0 0 0-.416-.336 1.5 1.5 0 0 0-.544-.16 4 4 0 0 0-.576-.048q-.768 0-1.264.32t-.56.992h-1.824q.048-.8.384-1.328t.848-.848a3.6 3.6 0 0 1 1.184-.448 7 7 0 0 1 1.344-.128q.608 0 1.2.128.593.128 1.056.416.48.288.768.752.288.449.288 1.104zm-1.824-2.304q-.416.272-1.024.336a12 12 0 0 0-1.216.16 3.3 3.3 0 0 0-.56.144 1.4 1.4 0 0 0-.48.24 1.03 1.03 0 0 0-.336.4 1.4 1.4 0 0 0-.112.592q0 .304.176.512t.416.336q.256.112.544.16.304.048.544.048.304 0 .656-.08t.656-.272q.32-.192.528-.48a1.27 1.27 0 0 0 .208-.736zm3.835-7.28h1.824v6.496l3.296-3.344h2.24l-3.168 3.04 3.472 5.232h-2.224l-2.528-4.016-1.088 1.056v2.96h-1.824zm14.225 6.56a2.8 2.8 0 0 0-.192-.832 1.9 1.9 0 0 0-.416-.688 1.8 1.8 0 0 0-.64-.48 1.8 1.8 0 0 0-.832-.192q-.48 0-.88.176-.384.16-.672.464-.271.288-.448.688a2.6 2.6 0 0 0-.176.864zm-4.256 1.2q0 .48.128.928.144.448.416.784.273.336.688.544.416.192.992.192.8 0 1.28-.336.496-.352.736-1.04h1.728a3.4 3.4 0 0 1-.496 1.2 3.6 3.6 0 0 1-.848.896 3.6 3.6 0 0 1-1.12.528 4.2 4.2 0 0 1-1.28.192q-.975 0-1.728-.32a3.65 3.65 0 0 1-1.28-.896 4 4 0 0 1-.784-1.376 5.8 5.8 0 0 1-.256-1.76q0-.88.272-1.664.288-.8.8-1.392a3.9 3.9 0 0 1 1.264-.96q.737-.352 1.664-.352.976 0 1.744.416.785.4 1.296 1.072.513.672.736 1.552.24.864.128 1.792z"/></g><defs><filter id="a" width="62.467" height="62.467" x="107.95" y="58.577" color-interpolation-filters="sRGB" filterUnits="userSpaceOnUse"><feFlood flood-opacity="0" result="BackgroundImageFix"/><feColorMatrix in="SourceAlpha" result="hardAlpha" values="0 0 0 0 0 0 0 0 0 0 0 0 0 0 0 0 0 0 127 0"/><feOffset dy="-1.115"/><feGaussianBlur stdDeviation="5.576"/><feComposite in2="hardAlpha" operator="out"/><feColorMatrix values="0 0 0 0 0 0 0 0 0 0.623529 0 0 0 0 0.933333 0 0 0 0.33 0"/><feBlend in2="BackgroundImageFix" result="effect1_dropShadow_1122_6248"/><feBlend in="SourceGraphic" in2="effect1_dropShadow_1122_6248" result="shape"/></filter><filter id="b" width="61.967" height="61.971" x="107.95" y="147.161" color-interpolation-filters="sRGB" filterUnits="userSpaceOnUse"><feFlood flood-opacity="0" result="BackgroundImageFix"/><feColorMatrix in="SourceAlpha" result="hardAlpha" values="0 0 0 0 0 0 0 0 0 0 0 0 0 0 0 0 0 0 127 0"/><feOffset dy="-1.115"/><feGaussianBlur stdDeviation="5.576"/><feComposite in2="hardAlpha" operator="out"/><feColorMatrix values="0 0 0 0 0 0 0 0 0 0.623529 0 0 0 0 0.933333 0 0 0 0.33 0"/><feBlend in2="BackgroundImageFix" result="effect1_dropShadow_1122_6248"/><feBlend in="SourceGraphic" in2="effect1_dropShadow_1122_6248" result="shape"/></filter><filter id="c" width="62.467" height="62.467" x="214.997" y="58.577" color-interpolation-filters="sRGB" filterUnits="userSpaceOnUse"><feFlood flood-opacity="0" result="BackgroundImageFix"/><feColorMatrix in="SourceAlpha" result="hardAlpha" values="0 0 0 0 0 0 0 0 0 0 0 0 0 0 0 0 0 0 127 0"/><feOffset dy="-1.115"/><feGaussianBlur stdDeviation="5.576"/><feComposite in2="hardAlpha" operator="out"/><feColorMatrix values="0 0 0 0 0 0 0 0 0 0.623529 0 0 0 0 0.933333 0 0 0 0.33 0"/><feBlend in2="BackgroundImageFix" result="effect1_dropShadow_1122_6248"/><feBlend in="SourceGraphic" in2="effect1_dropShadow_1122_6248" result="shape"/></filter><filter id="d" width="61.967" height="61.971" x="215.771" y="147.161" color-interpolation-filters="sRGB" filterUnits="userSpaceOnUse"><feFlood flood-opacity="0" result="BackgroundImageFix"/><feColorMatrix in="SourceAlpha" result="hardAlpha" values="0 0 0 0 0 0 0 0 0 0 0 0 0 0 0 0 0 0 127 0"/><feOffset dy="-1.115"/><feGaussianBlur stdDeviation="5.576"/><feComposite in2="hardAlpha" operator="out"/><feColorMatrix values="0 0 0 0 0 0 0 0 0 0.623529 0 0 0 0 0.933333 0 0 0 0.33 0"/><feBlend in2="BackgroundImageFix" result="effect1_dropShadow_1122_6248"/><feBlend in="SourceGraphic" in2="effect1_dropShadow_1122_6248" result="shape"/></filter><filter id="e" width="170" height="50" x=".5" y="0" color-interpolation-filters="sRGB" filterUnits="userSpaceOnUse"><feFlood flood-opacity="0" result="BackgroundImageFix"/><feColorMatrix in="SourceAlpha" result="hardAlpha" values="0 0 0 0 0 0 0 0 0 0 0 0 0 0 0 0 0 0 127 0"/><feOffset dy="1"/><feGaussianBlur stdDeviation="1"/><feComposite in2="hardAlpha" operator="out"/><feColorMatrix values="0 0 0 0 0 0 0 0 0 0 0 0 0 0 0 0 0 0 0.03 0"/><feBlend in2="BackgroundImageFix" result="effect1_dropShadow_1122_6248"/><feColorMatrix in="SourceAlpha" result="hardAlpha" values="0 0 0 0 0 0 0 0 0 0 0 0 0 0 0 0 0 0 127 0"/><feMorphology in="SourceAlpha" radius="1" result="effect2_dropShadow_1122_6248"/><feOffset dy="1"/><feGaussianBlur stdDeviation="3"/><feComposite in2="hardAlpha" operator="out"/><feColorMatrix values="0 0 0 0 0 0 0 0 0 0 0 0 0 0 0 0 0 0 0.02 0"/><feBlend in2="effect1_dropShadow_1122_6248" result="effect2_dropShadow_1122_6248"/><feColorMatrix in="SourceAlpha" result="hardAlpha" values="0 0 0 0 0 0 0 0 0 0 0 0 0 0 0 0 0 0 127 0"/><feOffset dy="2"/><feGaussianBlur stdDeviation="2"/><feComposite in2="hardAlpha" operator="out"/><feColorMatrix values="0 0 0 0 0 0 0 0 0 0 0 0 0 0 0 0 0 0 0.02 0"/><feBlend in2="effect2_dropShadow_1122_6248" result="effect3_dropShadow_1122_6248"/><feBlend in="SourceGraphic" in2="effect3_dropShadow_1122_6248" result="shape"/></filter><filter id="f" width="207" height="50" x="293.5" y="166" color-interpolation-filters="sRGB" filterUnits="userSpaceOnUse"><feFlood flood-opacity="0" result="BackgroundImageFix"/><feColorMatrix in="SourceAlpha" result="hardAlpha" values="0 0 0 0 0 0 0 0 0 0 0 0 0 0 0 0 0 0 127 0"/><feOffset dy="1"/><feGaussianBlur stdDeviation="1"/><feComposite in2="hardAlpha" operator="out"/><feColorMatrix values="0 0 0 0 0 0 0 0 0 0 0 0 0 0 0 0 0 0 0.03 0"/><feBlend in2="BackgroundImageFix" result="effect1_dropShadow_1122_6248"/><feColorMatrix in="SourceAlpha" result="hardAlpha" values="0 0 0 0 0 0 0 0 0 0 0 0 0 0 0 0 0 0 127 0"/><feMorphology in="SourceAlpha" radius="1" result="effect2_dropShadow_1122_6248"/><feOffset dy="1"/><feGaussianBlur stdDeviation="3"/><feComposite in2="hardAlpha" operator="out"/><feColorMatrix values="0 0 0 0 0 0 0 0 0 0 0 0 0 0 0 0 0 0 0.02 0"/><feBlend in2="effect1_dropShadow_1122_6248" result="effect2_dropShadow_1122_6248"/><feColorMatrix in="SourceAlpha" result="hardAlpha" values="0 0 0 0 0 0 0 0 0 0 0 0 0 0 0 0 0 0 127 0"/><feOffset dy="2"/><feGaussianBlur stdDeviation="2"/><feComposite in2="hardAlpha" operator="out"/><feColorMatrix values="0 0 0 0 0 0 0 0 0 0 0 0 0 0 0 0 0 0 0.02 0"/><feBlend in2="effect2_dropShadow_1122_6248" result="effect3_dropShadow_1122_6248"/><feBlend in="SourceGraphic" in2="effect3_dropShadow_1122_6248" result="shape"/></filter></defs></svg>