<svg width="1451" height="1137" viewBox="0 0 1451 1137" fill="none" xmlns="http://www.w3.org/2000/svg">
<path d="M995.5 533.763C995.35 533.745 995.177 533.726 994.983 533.702C994.154 533.602 992.931 533.448 991.383 533.232C988.284 532.802 983.893 532.13 978.757 531.17C968.431 529.24 955.316 526.184 943.664 521.674C931.681 517.035 922.647 511.376 918.8 505.039C917.032 502.128 916.351 499.067 916.996 495.547C917.671 491.864 919.899 487.176 924.929 481.428C928.212 477.676 930.443 473.55 930.86 469.052C931.29 464.421 929.715 460.326 927.152 456.919C922.372 450.566 913.457 445.689 903.768 441.574C893.777 437.331 881.623 433.377 869.159 429.445C856.584 425.479 843.648 421.521 831.67 417.192C819.661 412.853 809.013 408.275 800.998 403.203C792.83 398.034 788.455 393.013 787.182 388.22C786.024 383.86 786.993 377.837 794.266 369.298C801.588 360.7 814.615 350.436 835.45 338.282C854.442 327.204 867.161 317.105 873.572 307.692C876.843 302.89 878.778 297.821 878.591 292.617C878.399 287.298 876.025 282.742 872.402 279.022C865.524 271.961 853.401 267.129 838.717 263.609C823.719 260.015 804.848 257.529 783.292 255.947C697.328 249.638 565.379 257.493 455.5 270.02V0H995.5V533.763Z" fill="white"/>
<path d="M277.329 1017.59C249.732 1017.59 225.483 1011.56 204.584 999.5C183.953 987.175 167.743 970.161 155.954 948.458C144.432 926.487 138.672 901.033 138.672 872.096C138.672 843.427 144.432 818.241 155.954 796.538C167.743 774.567 183.953 757.419 204.584 745.094C225.483 732.769 249.732 726.606 277.329 726.606C305.194 726.606 329.443 732.769 350.074 745.094C370.973 757.419 387.183 774.567 398.704 796.538C410.226 818.241 415.986 843.427 415.986 872.096C415.986 901.033 410.226 926.487 398.704 948.458C387.183 970.161 370.973 987.175 350.074 999.5C329.443 1011.56 305.194 1017.59 277.329 1017.59ZM277.329 987.845C297.96 987.845 316.046 983.29 331.586 974.18C347.394 964.802 359.586 951.539 368.16 934.391C377.001 916.975 381.422 896.21 381.422 872.096C381.422 847.982 377.001 827.351 368.16 810.203C359.586 792.787 347.394 779.524 331.586 770.414C316.046 761.304 297.96 756.749 277.329 756.749C256.698 756.749 238.478 761.304 222.67 770.414C207.13 779.524 194.939 792.787 186.097 810.203C177.523 827.351 173.236 847.982 173.236 872.096C173.236 896.21 177.523 916.975 186.097 934.391C194.939 951.539 207.13 964.802 222.67 974.18C238.478 983.29 256.698 987.845 277.329 987.845ZM458.494 1012.76V731.429H506.722V974.984H632.117V1012.76H458.494ZM744.983 1017.59C728.371 1017.59 714.572 1014.77 703.587 1009.15C692.601 1003.52 684.429 996.017 679.071 986.639C673.712 977.261 671.032 967.08 671.032 956.094C671.032 943.233 674.248 932.114 680.678 922.736C687.377 913.358 697.156 906.124 710.017 901.033C722.878 895.674 738.686 892.995 757.442 892.995H808.484C808.484 882.278 807.01 873.436 804.063 866.469C801.116 859.235 796.561 853.876 790.398 850.393C784.236 846.91 776.332 845.168 766.686 845.168C755.7 845.168 746.323 847.714 738.553 852.805C730.782 857.627 725.959 865.13 724.084 875.311H676.659C678.267 860.843 683.09 848.518 691.128 838.336C699.166 827.886 709.749 819.848 722.878 814.222C736.275 808.327 750.878 805.38 766.686 805.38C785.709 805.38 801.92 808.729 815.316 815.427C828.713 821.858 838.895 831.236 845.861 843.561C853.095 855.618 856.713 870.22 856.713 887.368V1012.76H815.718L810.895 980.208C808.216 985.567 804.733 990.524 800.446 995.079C796.427 999.634 791.738 1003.65 786.379 1007.14C781.02 1010.35 774.858 1012.9 767.892 1014.77C761.193 1016.65 753.557 1017.59 744.983 1017.59ZM755.834 979.405C763.605 979.405 770.437 978.065 776.332 975.386C782.494 972.438 787.719 968.419 792.006 963.328C796.561 957.97 800.044 952.075 802.455 945.645C804.867 939.214 806.474 932.382 807.278 925.147V924.344H762.667C753.289 924.344 745.519 925.549 739.356 927.961C733.194 930.104 728.773 933.32 726.093 937.606C723.414 941.893 722.074 946.85 722.074 952.477C722.074 958.104 723.414 962.926 726.093 966.946C728.773 970.965 732.658 974.046 737.749 976.189C742.839 978.333 748.868 979.405 755.834 979.405ZM1038.86 1012.76L949.239 901.837L1029.62 810.203H1087.09L987.018 921.53V884.153L1099.15 1012.76H1038.86ZM908.244 1012.76V723.391H956.473V1012.76H908.244ZM1210.33 1017.59C1190.23 1017.59 1172.55 1013.3 1157.27 1004.72C1142 995.883 1130.08 983.558 1121.51 967.749C1112.93 951.941 1108.64 933.721 1108.64 913.09C1108.64 891.655 1112.8 872.9 1121.1 856.824C1129.68 840.747 1141.6 828.154 1156.87 819.045C1172.41 809.935 1190.36 805.38 1210.73 805.38C1230.56 805.38 1247.84 809.801 1262.57 818.643C1277.31 827.485 1288.7 839.408 1296.74 854.412C1304.77 869.149 1308.79 885.761 1308.79 904.248C1308.79 906.928 1308.79 909.875 1308.79 913.09C1308.79 916.306 1308.52 919.655 1307.99 923.138H1143.21V892.191H1260.16C1259.63 877.455 1254.67 865.933 1245.29 857.627C1235.91 849.053 1224.26 844.766 1210.33 844.766C1200.41 844.766 1191.3 847.044 1183 851.599C1174.69 856.154 1168.13 862.986 1163.3 872.096C1158.48 880.938 1156.07 892.191 1156.07 905.856V917.511C1156.07 930.104 1158.35 940.956 1162.9 950.066C1167.72 959.175 1174.15 966.142 1182.19 970.965C1190.5 975.52 1199.74 977.797 1209.92 977.797C1221.18 977.797 1230.42 975.386 1237.66 970.563C1245.16 965.74 1250.65 959.309 1254.13 951.271H1303.17C1299.41 963.864 1293.25 975.252 1284.68 985.433C1276.1 995.347 1265.52 1003.25 1252.93 1009.15C1240.33 1014.77 1226.13 1017.59 1210.33 1017.59Z" fill="white"/>
<path d="M1318.49 684.653V705.012H1277.77V806.804H1257.41V705.012H1216.7V684.653H1318.49ZM1338.85 684.653H1364.29L1394.83 737.545L1425.37 684.653H1450.82V806.804H1430.46V716.545L1394.83 778.261L1359.2 716.565V806.804H1338.85V684.653Z" fill="white"/>
</svg>
