<svg width="1383" height="1126" viewBox="0 0 1383 1126" fill="none" xmlns="http://www.w3.org/2000/svg">
<path d="M961 533.763C960.85 533.745 960.677 533.726 960.483 533.702C959.654 533.602 958.431 533.448 956.883 533.232C953.784 532.802 949.393 532.13 944.257 531.17C933.931 529.24 920.816 526.184 909.164 521.674C897.181 517.035 888.147 511.376 884.3 505.039C882.532 502.128 881.851 499.067 882.496 495.547C883.171 491.864 885.399 487.176 890.429 481.428C893.712 477.676 895.943 473.55 896.36 469.052C896.79 464.421 895.215 460.326 892.652 456.919C887.872 450.566 878.957 445.689 869.268 441.574C859.277 437.331 847.123 433.377 834.659 429.445C822.084 425.479 809.148 421.521 797.17 417.192C785.161 412.853 774.513 408.275 766.498 403.203C758.33 398.034 753.955 393.013 752.682 388.22C751.524 383.86 752.493 377.837 759.766 369.298C767.088 360.7 780.115 350.436 800.95 338.282C819.942 327.204 832.661 317.105 839.072 307.692C842.343 302.89 844.278 297.821 844.091 292.617C843.899 287.298 841.525 282.742 837.902 279.022C831.024 271.961 818.901 267.129 804.217 263.609C789.219 260.015 770.348 257.529 748.792 255.947C662.828 249.638 530.879 257.493 421 270.02V0H961V533.763Z" fill="#222222"/>
<path d="M242.829 1017.58C215.232 1017.58 190.983 1011.56 170.084 999.499C149.453 987.174 133.243 970.16 121.454 948.457C109.932 926.486 104.172 901.032 104.172 872.095C104.172 843.426 109.932 818.24 121.454 796.537C133.243 774.566 149.453 757.418 170.084 745.093C190.983 732.768 215.232 726.605 242.829 726.605C270.694 726.605 294.943 732.768 315.574 745.093C336.473 757.418 352.683 774.566 364.204 796.537C375.726 818.24 381.486 843.426 381.486 872.095C381.486 901.032 375.726 926.486 364.204 948.457C352.683 970.16 336.473 987.174 315.574 999.499C294.943 1011.56 270.694 1017.58 242.829 1017.58ZM242.829 987.844C263.46 987.844 281.546 983.289 297.086 974.179C312.894 964.801 325.086 951.538 333.66 934.39C342.501 916.974 346.922 896.209 346.922 872.095C346.922 847.981 342.501 827.35 333.66 810.202C325.086 792.786 312.894 779.523 297.086 770.413C281.546 761.303 263.46 756.748 242.829 756.748C222.198 756.748 203.978 761.303 188.17 770.413C172.63 779.523 160.439 792.786 151.597 810.202C143.023 827.35 138.736 847.981 138.736 872.095C138.736 896.209 143.023 916.974 151.597 934.39C160.439 951.538 172.63 964.801 188.17 974.179C203.978 983.289 222.198 987.844 242.829 987.844ZM423.994 1012.76V731.428H472.222V974.983H597.617V1012.76H423.994ZM710.483 1017.58C693.871 1017.58 680.072 1014.77 669.087 1009.14C658.101 1003.52 649.929 996.016 644.571 986.638C639.212 977.26 636.532 967.079 636.532 956.093C636.532 943.232 639.748 932.113 646.178 922.735C652.877 913.357 662.656 906.123 675.517 901.032C688.378 895.673 704.186 892.994 722.942 892.994H773.984C773.984 882.277 772.51 873.435 769.563 866.468C766.616 859.234 762.061 853.875 755.898 850.392C749.736 846.909 741.832 845.167 732.186 845.167C721.2 845.167 711.823 847.713 704.053 852.804C696.282 857.626 691.459 865.129 689.584 875.31H642.159C643.767 860.842 648.59 848.517 656.628 838.335C664.666 827.885 675.249 819.847 688.378 814.221C701.775 808.326 716.378 805.379 732.186 805.379C751.209 805.379 767.42 808.728 780.816 815.426C794.213 821.857 804.395 831.235 811.361 843.56C818.595 855.617 822.213 870.219 822.213 887.367V1012.76H781.218L776.395 980.207C773.716 985.566 770.233 990.523 765.946 995.078C761.927 999.633 757.238 1003.65 751.879 1007.14C746.52 1010.35 740.358 1012.9 733.392 1014.77C726.693 1016.65 719.057 1017.58 710.483 1017.58ZM721.334 979.404C729.105 979.404 735.937 978.064 741.832 975.385C747.994 972.437 753.219 968.418 757.506 963.327C762.061 957.969 765.544 952.074 767.955 945.644C770.367 939.213 771.974 932.381 772.778 925.146V924.343H728.167C718.789 924.343 711.019 925.548 704.856 927.96C698.694 930.103 694.273 933.319 691.593 937.606C688.914 941.892 687.574 946.849 687.574 952.476C687.574 958.103 688.914 962.926 691.593 966.945C694.273 970.964 698.158 974.045 703.249 976.188C708.339 978.332 714.368 979.404 721.334 979.404ZM1004.36 1012.76L914.739 901.836L995.12 810.202H1052.59L952.518 921.529V884.152L1064.65 1012.76H1004.36ZM873.744 1012.76V723.39H921.973V1012.76H873.744ZM1175.83 1017.58C1155.73 1017.58 1138.05 1013.3 1122.77 1004.72C1107.5 995.882 1095.58 983.557 1087.01 967.748C1078.43 951.94 1074.14 933.72 1074.14 913.089C1074.14 891.654 1078.3 872.899 1086.6 856.823C1095.18 840.746 1107.1 828.153 1122.37 819.044C1137.91 809.934 1155.86 805.379 1176.23 805.379C1196.06 805.379 1213.34 809.8 1228.07 818.642C1242.81 827.484 1254.2 839.407 1262.24 854.411C1270.27 869.148 1274.29 885.76 1274.29 904.247C1274.29 906.927 1274.29 909.874 1274.29 913.089C1274.29 916.305 1274.02 919.654 1273.49 923.137H1108.71V892.19H1225.66C1225.13 877.454 1220.17 865.932 1210.79 857.626C1201.41 849.052 1189.76 844.765 1175.83 844.765C1165.91 844.765 1156.8 847.043 1148.5 851.598C1140.19 856.153 1133.63 862.985 1128.8 872.095C1123.98 880.937 1121.57 892.19 1121.57 905.855V917.51C1121.57 930.103 1123.85 940.955 1128.4 950.065C1133.22 959.174 1139.65 966.141 1147.69 970.964C1156 975.519 1165.24 977.796 1175.42 977.796C1186.68 977.796 1195.92 975.385 1203.16 970.562C1210.66 965.739 1216.15 959.308 1219.63 951.27H1268.67C1264.91 963.863 1258.75 975.251 1250.18 985.432C1241.6 995.346 1231.02 1003.25 1218.43 1009.14C1205.83 1014.77 1191.63 1017.58 1175.83 1017.58Z" fill="#222222"/>
<path d="M1249.79 613.881V634.239H1209.08V736.031H1188.72V634.239H1148V613.881H1249.79ZM1270.15 613.881H1295.6L1326.14 666.772L1356.67 613.881H1382.12V736.031H1361.76V645.772L1326.14 707.489L1290.51 645.793V736.031H1270.15V613.881Z" fill="#222222"/>
</svg>
